# Extracted from the Cocos Creator 3.8.3 playable build
# Geometry-only OBJ preview for Unity; rig and animation stay in the raw assets.
o Arrow_Tower
v 2.53919601 -2.10256767 2.92614794
v -2.44853592 -2.10256767 2.92614698
v -2.44853592 -2.10256672 2.56960726
v 2.53919601 -2.10256767 2.56960869
v -2.44853592 -2.10256767 2.92614698
v 2.53919601 -2.10256767 2.92614794
v 2.53919601 -0.956549644 2.92614794
v -2.50483322 -0.956549644 2.92614698
v -2.44853592 -2.10256672 2.56960726
v 2.53919601 -0.956549644 2.56960869
v 2.53919601 -2.10256767 2.56960869
v -2.50483322 -0.956549644 2.56960726
v 2.53919601 -0.956549644 2.92614794
v 2.53919601 -2.10256767 2.92614794
v 2.53919601 -2.10256767 2.56960869
v 2.53919601 -0.956549644 2.56960869
v -2.44853592 -2.10256767 2.92614698
v -2.50483322 -0.956549644 2.92614698
v -2.44853592 -2.10256672 2.56960726
v -2.50483322 -0.956549644 2.56960726
v 2.29763412 2.65071678 2.56960917
v -2.40935135 2.65071678 2.56960773
v -2.40935135 2.65071678 2.92614794
v 2.29763412 2.65071678 2.92614889
v -2.5377655 1.50469971 2.56960773
v -2.40935135 2.65071678 2.92614794
v -2.40935135 2.65071678 2.56960773
v -2.5377655 1.50469971 2.92614794
v 2.29763412 1.50470066 2.56960917
v -2.5377655 1.50469971 2.56960773
v -2.40935135 2.65071678 2.56960773
v 2.29763412 2.65071678 2.56960917
v 2.29763412 1.50470066 2.56960917
v 2.29763412 2.65071678 2.92614889
v 2.29763412 1.50470066 2.92614889
v 2.29763412 2.65071678 2.56960917
v 2.29763412 1.50470066 2.92614889
v -2.40935135 2.65071678 2.92614794
v -2.5377655 1.50469971 2.92614794
v 2.29763412 2.65071678 2.92614889
v 2.29763412 1.50470066 2.92614889
v -2.5377655 1.50469971 2.92614794
v -2.5377655 1.50469971 2.56960773
v 2.29763412 1.50470066 2.56960917
v -2.29329681 -0.895062447 2.92614698
v -2.29329681 0.250953674 2.92614698
v -2.29329681 -0.895062447 2.56960726
v -2.29329681 0.250953674 2.56960726
v 2.31974411 -0.895062447 2.56960869
v -2.29329681 -0.895062447 2.56960726
v -2.29329681 0.250953674 2.56960726
v 2.31974411 0.250953674 2.56960869
v 2.31974411 -0.895062447 2.56960869
v 2.31974411 0.250953674 2.92614889
v 2.31974411 -0.895062447 2.92614794
v 2.31974411 0.250953674 2.56960869
v 2.31974411 0.250953674 2.92614889
v -2.29329681 -0.895062447 2.92614698
v 2.31974411 -0.895062447 2.92614794
v -2.29329681 0.250953674 2.92614698
v 2.31974411 -0.895062447 2.92614794
v -2.29329681 -0.895062447 2.92614698
v -2.29329681 -0.895062447 2.56960726
v 2.31974411 -0.895062447 2.56960869
v -2.29329681 0.250953674 2.92614698
v 2.31974411 0.250953674 2.92614889
v -2.29329681 0.250953674 2.56960726
v 2.31974411 0.250953674 2.56960869
v -2.17919159 0.316386223 2.92614698
v -2.17919159 1.46240234 2.56960773
v -2.17919159 0.316386223 2.56960726
v -2.17919159 1.46240234 2.92614794
v 2.52457428 0.316386223 2.56960869
v -2.17919159 0.316386223 2.56960726
v -2.17919159 1.46240234 2.56960773
v 2.52457428 1.46240234 2.56960917
v 2.52457428 1.46240234 2.56960917
v 2.52457428 0.316386223 2.92614889
v 2.52457428 0.316386223 2.56960869
v 2.52457428 1.46240234 2.92614889
v -2.17919159 0.316386223 2.92614698
v 2.52457428 0.316386223 2.92614889
v 2.52457428 1.46240234 2.92614889
v -2.17919159 1.46240234 2.92614794
v 2.52457428 0.316386223 2.92614889
v -2.17919159 0.316386223 2.92614698
v -2.17919159 0.316386223 2.56960726
v 2.52457428 0.316386223 2.56960869
v -2.17919159 1.46240234 2.92614794
v 2.52457428 1.46240234 2.92614889
v -2.17919159 1.46240234 2.56960773
v 2.52457428 1.46240234 2.56960917
v 2.53919601 -0.956549644 2.56960869
v -2.50483322 -0.956549644 2.56960726
v -2.50483322 -0.956549644 2.92614698
v 2.53919601 -0.956549644 2.92614794
v 1.74647903 1.9220953 1.70320559
v 1.87453461 -1.55646133 0.424777508
v 1.8334198 -1.65828896 1.04801989
v 1.78759003 2.0918045 1.06686354
v 2.07703018 1.92212105 1.70320559
v 2.23457336 -1.55643368 0.424777508
v 2.12762833 2.09183121 1.06686354
v 2.23457336 -1.55643368 0.424777508
v 2.07703018 1.92212105 1.70320559
v 2.18396759 -1.6582613 1.04801941
v 1.8334198 -1.65828896 1.04801989
v 2.07703018 1.92212105 1.70320559
v 1.74647903 1.9220953 1.70320559
v 2.18396759 -1.6582613 1.04801941
v 1.87453461 -1.55646133 0.424777508
v 2.12762833 2.09183121 1.06686354
v 2.23457336 -1.55643368 0.424777508
v 2.12762833 2.09183121 1.06686354
v 1.87453461 -1.55646133 0.424777508
v 1.78759003 2.0918045 1.06686354
v 1.9102211 2.21105289 1.32034111
v -1.42734528 2.15756512 -0.428040981
v -1.62561798 2.1078968 0.295647144
v 1.94696808 2.25370693 0.574556828
v 1.91024017 1.98011875 1.32034111
v -1.4273262 1.93417549 -0.428040981
v 1.94698715 2.01722431 0.574556828
v -1.4273262 1.93417549 -0.428040981
v 1.91024017 1.98011875 1.32034111
v -1.62560272 1.89096546 0.295647144
v -1.62560272 1.89096546 0.295647144
v 1.91024017 1.98011875 1.32034111
v -1.62561798 2.1078968 0.295647144
v 1.9102211 2.21105289 1.32034111
v -1.42734528 2.15756512 -0.428040981
v 1.94698715 2.01722431 0.574556828
v -1.4273262 1.93417549 -0.428040981
v 1.94698715 2.01722431 0.574556828
v -1.42734528 2.15756512 -0.428040981
v 1.94696808 2.25370693 0.574556828
v -1.38638687 -1.47047997 1.62642241
v 1.93478775 -1.51593399 -0.135661602
v -1.40561295 -1.5161953 0.944606304
v 1.93478775 -1.51593399 -0.135661602
v -1.38638687 -1.47047997 1.62642241
v 1.76381302 -1.47023392 0.524067402
v -1.4056015 -1.68846989 0.944606304
v 1.93479919 -1.68820858 -0.135661602
v -1.38637543 -1.63739872 1.62642241
v 1.76382828 -1.63715172 0.524067402
v -1.38637543 -1.63739872 1.62642241
v 1.76381302 -1.47023392 0.524067402
v -1.38638687 -1.47047997 1.62642241
v 1.76381302 -1.47023392 0.524067402
v -1.38637543 -1.63739872 1.62642241
v 1.76382828 -1.63715172 0.524067402
v -1.40561295 -1.5161953 0.944606304
v 1.93478775 -1.51593399 -0.135661602
v -1.4056015 -1.68846989 0.944606304
v 1.93479919 -1.68820858 -0.135661602
v -1.60700989 -2.01462746 -5.04405165
v -1.61332703 -1.78077793 2.47009659
v -1.99046326 -2.01465702 -5.04405165
v -1.61332703 -1.78077793 2.47009659
v -1.60700989 -2.01462746 -5.04405165
v -1.29928589 -1.78075314 2.47009659
v -1.41530991 -1.68253326 -5.04405165
v -1.29928589 -1.78075314 2.47009659
v -1.60700989 -2.01462746 -5.04405165
v -1.29928589 -1.78075314 2.47009659
v -1.41530991 -1.68253326 -5.04405165
v -1.14229202 -1.48628998 2.47009659
v -1.60705948 -1.35046864 -5.04405165
v -1.14229202 -1.48628998 2.47009659
v -1.41530991 -1.68253326 -5.04405165
v -1.14229202 -1.48628998 2.47009659
v -1.60705948 -1.35046864 -5.04405165
v -1.29933167 -1.19184971 2.47009659
v -1.6133728 -1.1918745 2.47009659
v -1.60705948 -1.35046864 -5.04405165
v -1.99051285 -1.35049915 -5.04405165
v -1.29933167 -1.19184971 2.47009659
v -2.18221283 -1.68259335 -5.04405165
v -1.77037048 -1.48633862 2.47009659
v -1.99051285 -1.35049915 -5.04405165
v -1.6133728 -1.1918745 2.47009659
v -1.99046326 -2.01465702 -5.04405165
v -1.61332703 -1.78077793 2.47009659
v -2.18221283 -1.68259335 -5.04405165
v -1.77037048 -1.48633862 2.47009659
v -1.61364365 2.26715183 2.47009659
v -1.60736084 2.50141716 -5.04405165
v -1.99081421 2.5013876 -5.04405165
v -1.29960251 2.26717663 2.47009659
v -1.41561127 2.16935349 -5.04405165
v -1.29960251 2.26717663 2.47009659
v -1.14255905 1.97273731 2.47009659
v -1.60736084 2.50141716 -5.04405165
v -1.60731125 1.83725929 -5.04405165
v -1.14255905 1.97273731 2.47009659
v -1.29955673 1.6782732 2.47009659
v -1.41561127 2.16935349 -5.04405165
v -1.61359787 1.67824841 2.47009659
v -1.9907608 1.83722973 -5.04405165
v -1.60731125 1.83725929 -5.04405165
v -1.61359787 1.67824841 2.47009659
v -1.60731125 1.83725929 -5.04405165
v -1.29955673 1.6782732 2.47009659
v -1.77064133 1.97268867 2.47009659
v -1.9907608 1.83722973 -5.04405165
v -1.61359787 1.67824841 2.47009659
v -1.9907608 1.83722973 -5.04405165
v -1.77064133 1.97268867 2.47009659
v -2.18251419 2.1692934 -5.04405165
v -1.61364365 2.26715183 2.47009659
v -2.18251419 2.1692934 -5.04405165
v -1.77064133 1.97268867 2.47009659
v -2.18251419 2.1692934 -5.04405165
v -1.61364365 2.26715183 2.47009659
v -1.99081421 2.5013876 -5.04405165
v 2.10221863 -2.01433754 -5.04404974
v 2.10834122 -1.78048611 2.47009706
v 1.79430008 -1.7805109 2.47009706
v 2.485672 -2.01430702 -5.04404974
v 1.91046906 -1.68227291 -5.04404974
v 1.79430008 -1.7805109 2.47009706
v 1.63726044 -1.48607159 2.47009659
v 2.10221863 -2.01433754 -5.04404974
v 2.10216904 -1.35017872 -5.04404974
v 1.63726044 -1.48607159 2.47009659
v 1.7942543 -1.19160748 2.47009706
v 1.91046906 -1.68227291 -5.04404974
v 2.10829544 -1.19158363 2.47009706
v 2.48561859 -1.35014915 -5.04404974
v 2.10216904 -1.35017872 -5.04404974
v 2.10216904 -1.35017872 -5.04404974
v 1.7942543 -1.19160748 2.47009706
v 2.10829544 -1.19158363 2.47009706
v 2.2653389 -1.48602295 2.47009706
v 2.67737579 -1.68221283 -5.04404974
v 2.48561859 -1.35014915 -5.04404974
v 2.48561859 -1.35014915 -5.04404974
v 2.10829544 -1.19158363 2.47009706
v 2.2653389 -1.48602295 2.47009706
v 2.10834122 -1.78048611 2.47009706
v 2.485672 -2.01430702 -5.04404974
v 2.67737579 -1.68221283 -5.04404974
v 2.67737579 -1.68221283 -5.04404974
v 2.2653389 -1.48602295 2.47009706
v 2.10834122 -1.78048611 2.47009706
v 2.10186768 2.50170803 -5.04404974
v 2.1080246 2.2674427 2.47009706
v 2.48532104 2.50173759 -5.04404974
v 2.1080246 2.2674427 2.47009706
v 2.10186768 2.50170803 -5.04404974
v 1.79398727 2.26741886 2.47009706
v 1.79398727 2.26741886 2.47009706
v 1.91016769 2.16961384 -5.04404974
v 1.63698959 1.9729557 2.47009659
v 1.91016769 2.16961384 -5.04404974
v 1.79398727 2.26741886 2.47009706
v 2.10186768 2.50170803 -5.04404974
v 1.63698959 1.9729557 2.47009659
v 2.10192108 1.83754921 -5.04404974
v 1.79402924 1.67851543 2.47009706
v 2.10192108 1.83754921 -5.04404974
v 1.63698959 1.9729557 2.47009659
v 1.91016769 2.16961384 -5.04404974
v 2.48537064 1.83757973 -5.04404974
v 2.10807037 1.67854023 2.47009706
v 2.10192108 1.83754921 -5.04404974
v 1.79402924 1.67851543 2.47009706
v 2.67707062 2.16967297 -5.04404974
v 2.26506805 1.97300434 2.47009706
v 2.48537064 1.83757973 -5.04404974
v 2.10807037 1.67854023 2.47009706
v 2.48532104 2.50173759 -5.04404974
v 2.1080246 2.2674427 2.47009706
v 2.67707062 2.16967297 -5.04404974
v 2.26506805 1.97300434 2.47009706
v -1.26636124 -1.12834549 0.754758358
v -1.65644455 -1.25646973 0.911481857
v -1.33454895 -1.25644493 0.911481857
v -1.74908829 -1.12838268 0.754758358
v -1.35650635 -1.27453804 0.598036766
v -1.81737137 -1.53525257 0.911481857
v -1.68335342 -1.27456379 0.598036766
v -1.9904213 -1.54645634 0.754758358
v -1.84675598 -1.55763531 0.598036766
v -1.65640259 -1.81400967 0.911481857
v -1.68331146 -1.84068012 0.598036766
v -1.74902344 -1.96449184 0.754758358
v -1.35646439 -1.84065533 0.598036766
v -1.26629639 -1.9644537 0.754758358
v -1.33450699 -1.81398487 0.911481857
v -1.19306183 -1.55758381 0.598036766
v -1.02496338 -1.54638004 0.754758358
v -1.17358017 -1.53520203 0.911482334
v -1.35650635 -1.27453804 0.598036766
v -1.33454895 -1.25644493 0.911481857
v -1.26636124 -1.12834549 0.754758358
v 2.2345314 -1.22229195 0.128955364
v 1.7830925 -1.07389641 -0.0228037834
v 1.86238861 -1.22232056 0.128955364
v 2.34101486 -1.07385254 -0.0228037834
v 1.88684082 -1.24246311 -0.174563885
v 2.42062378 -1.54456139 0.128955364
v 2.26449966 -1.24243355 -0.174563885
v 2.62001038 -1.55700493 -0.0228037834
v 2.45335388 -1.56947803 -0.174563885
v 2.23458099 -1.86685944 0.128955364
v 2.26454926 -1.89655113 -0.174563885
v 2.34108734 -2.04020023 -0.0228037834
v 1.88689423 -1.8965807 -0.174563885
v 1.78316498 -2.0402441 -0.0228037834
v 1.8624382 -1.86688805 0.128955364
v 1.69804382 -1.56953621 -0.174563885
v 1.50416946 -1.55709171 -0.0228042603
v 1.67634201 -1.54461956 0.128954887
v 1.88684082 -1.24246311 -0.174563885
v 1.86238861 -1.22232056 0.128955364
v 1.7830925 -1.07389641 -0.0228037834
v 2.26625443 -1.24361515 -0.192362309
v 1.80755615 -1.09275246 -0.34412241
v 1.88827896 -1.24364376 -0.192362309
v 2.37416458 -1.09270763 -0.34412241
v 1.91273499 -1.26378632 -0.495880604
v 2.45527267 -1.57093906 -0.192362309
v 2.2962265 -1.26375675 -0.495880604
v 2.65750885 -1.58338261 -0.34412241
v 2.48799896 -1.59585571 -0.495880604
v 2.26630783 -1.89829254 -0.192362309
v 2.29627991 -1.92798519 -0.495880604
v 2.37424469 -2.07410145 -0.34412241
v 1.91278839 -1.9280138 -0.495880604
v 1.80763626 -2.07414532 -0.34412241
v 1.88832855 -1.89832211 -0.192362309
v 1.72101212 -1.59591579 -0.495880604
v 1.52429199 -1.5834713 -0.34412241
v 1.69931412 -1.57099819 -0.192362785
v 1.91273499 -1.26378632 -0.495880604
v 1.88827896 -1.24364376 -0.192362309
v 1.80755615 -1.09275246 -0.34412241
v 2.20214462 -1.20052719 0.456931591
v 1.75811768 -1.05465031 0.30517292
v 1.83596039 -1.2005558 0.456931591
v 2.30717087 -1.05460739 0.30517292
v 1.86041641 -1.2206974 0.153412342
v 2.38526154 -1.51763725 0.456931591
v 2.23211288 -1.22066879 0.153412342
v 2.58173752 -1.53008175 0.30517292
v 2.41798782 -1.54255295 0.153412342
v 2.20219421 -1.83477497 0.456931591
v 2.23216248 -1.86446762 0.153412342
v 2.30724716 -2.00559711 0.30517292
v 1.860466 -1.86449623 0.153412342
v 1.75819397 -2.00564003 0.30517292
v 1.83600998 -1.83480358 0.456931591
v 1.67459106 -1.54261112 0.153411865
v 1.48362732 -1.53016663 0.305172443
v 1.65289307 -1.51769447 0.456931591
v 1.86041641 -1.2206974 0.153412342
v 1.83596039 -1.2005558 0.456931591
v 1.75811768 -1.05465031 0.30517292
v 2.15920639 1.72924232 0.894805431
v 1.8191185 1.72921562 0.894805431
v 1.74707794 1.59387779 0.754760265
v 2.25708771 1.59391785 0.754760265
v 1.84231949 1.74833202 0.614717007
v 2.32922363 2.02377892 0.894805431
v 2.18763733 1.74835873 0.614717007
v 2.51205444 2.03561592 0.754760265
v 2.36027145 2.04742622 0.614717007
v 2.15916061 2.3182888 0.894805431
v 2.18759155 2.34646606 0.614717007
v 2.25701523 2.47727489 0.754760265
v 1.84227371 2.34643936 0.614717007
v 1.74700928 2.47723484 0.754760265
v 1.81907272 2.31826305 0.894805431
v 1.66963959 2.04737282 0.614716053
v 1.49203873 2.03553581 0.754760265
v 1.64905167 2.02372646 0.894805431
v 1.84231949 1.74833202 0.614717007
v 1.8191185 1.72921562 0.894805431
v 1.74707794 1.59387779 0.754760265
v -1.78733444 1.69771576 -0.546823978
v -1.36732483 1.56106091 -0.704919338
v -1.44140244 1.69774342 -0.546824932
v -1.88582611 1.56102085 -0.704918861
v -1.46336365 1.71895885 -0.860074997
v -1.96032715 1.99727631 -0.54383707
v -1.81424713 1.7189312 -0.86007452
v -2.14511108 2.01001358 -0.700441837
v -1.98971558 2.02277851 -0.857044697
v -1.78738403 2.29686356 -0.540849209
v -1.81429672 2.32665348 -0.854014397
v -1.88589478 2.45904827 -0.695964336
v -1.46340942 2.32668114 -0.854014874
v -1.36739349 2.45908833 -0.695964336
v -1.44144821 2.29689026 -0.540850163
v -1.28794098 2.02283287 -0.857044697
v -1.10810852 2.01009464 -0.700440884
v -1.26845551 1.99733067 -0.54383707
v -1.46336365 1.71895885 -0.860074997
v -1.44140244 1.69774342 -0.546824932
v -1.36732483 1.56106091 -0.704919338
v -2.06925964 -1.38417435 2.56939316
v -3.46980667 -1.38428402 -5.04050827
v -2.94617081 -1.38424301 -5.04050779
v -2.06925964 -1.38417435 2.56939316
v -2.94617081 -1.38424301 -5.04050779
v -1.68820953 -1.38414478 2.56939316
v -1.68824005 -0.9917202 2.56939316
v -3.46983719 -0.99186039 -5.04050827
v -2.06929016 -0.991751671 2.56939316
v -3.46983719 -0.99186039 -5.04050827
v -1.68824005 -0.9917202 2.56939316
v -2.94620514 -0.991818428 -5.04050779
v -2.06929016 -0.991751671 2.56939316
v -3.46983719 -0.99186039 -5.04050827
v -3.46980667 -1.38428402 -5.04050827
v -2.06929016 -0.991751671 2.56939316
v -3.46980667 -1.38428402 -5.04050827
v -2.06925964 -1.38417435 2.56939316
v -2.94620514 -0.991818428 -5.04050779
v -1.68824005 -0.9917202 2.56939316
v -2.94617081 -1.38424301 -5.04050779
v -1.68820953 -1.38414478 2.56939316
v -2.74002075 -1.1633873 -0.06813097
v -2.74024582 1.73714161 -0.06813097
v -2.74024582 1.73714161 -0.360702991
v -2.74002075 -1.1633873 -0.360702991
v -2.74024582 1.73714161 -0.06813097
v -2.74002075 -1.1633873 -0.06813097
v -2.06755829 -1.16333485 -0.06813097
v -2.08398056 1.68752289 -0.06813097
v -2.06755829 -1.16333485 -0.06813097
v -2.74002075 -1.1633873 -0.06813097
v -2.74002075 -1.1633873 -0.360702991
v -2.06755829 -1.16333485 -0.360702991
v -2.74024582 1.73714161 -0.06813097
v -2.08398056 1.68752289 -0.06813097
v -2.74024582 1.73714161 -0.360702991
v -2.74024582 1.73714161 -0.360702991
v -2.08398056 1.68752289 -0.06813097
v -2.08398056 1.68752289 -0.360702991
v -2.06755829 -1.16333485 -0.360702991
v -2.08398056 1.68752289 -0.360702991
v -2.08398056 1.68752289 -0.06813097
v -2.06755829 -1.16333485 -0.06813097
v -3.0589447 -1.16341209 -1.85608673
v -3.05917358 1.73711681 -1.85608673
v -3.05917358 1.73711681 -2.14865923
v -3.0589447 -1.16341209 -2.14865923
v -3.05917358 1.73711681 -1.85608673
v -3.0589447 -1.16341209 -1.85608673
v -2.38648224 -1.16335964 -1.85608673
v -2.40290451 1.68749809 -1.85608673
v -2.38648224 -1.16335964 -1.85608673
v -3.0589447 -1.16341209 -1.85608673
v -3.0589447 -1.16341209 -2.14865923
v -2.38648224 -1.16335964 -2.14865923
v -3.05917358 1.73711681 -1.85608673
v -2.40290451 1.68749809 -1.85608673
v -3.05917358 1.73711681 -2.14865923
v -3.05917358 1.73711681 -2.14865923
v -2.40290451 1.68749809 -1.85608673
v -2.40290451 1.68749809 -2.14865923
v -2.38648224 -1.16335964 -2.14865923
v -2.40290451 1.68749809 -2.14865923
v -2.40290451 1.68749809 -1.85608673
v -2.38648224 -1.16335964 -1.85608673
v -3.35235977 -1.16343498 -3.50018406
v -3.35258484 1.73709393 -3.50018406
v -3.35258484 1.73709393 -3.79275703
v -3.35235977 -1.16343498 -3.79275703
v -3.35258484 1.73709393 -3.50018406
v -3.35235977 -1.16343498 -3.50018406
v -2.67989731 -1.16338253 -3.50018406
v -2.69631958 1.6874752 -3.50018406
v -2.67989731 -1.16338253 -3.50018406
v -3.35235977 -1.16343498 -3.50018406
v -3.35235977 -1.16343498 -3.79275703
v -2.67989731 -1.16338253 -3.79275703
v -3.35258484 1.73709393 -3.50018406
v -2.69631958 1.6874752 -3.50018406
v -3.35258484 1.73709393 -3.79275703
v -3.35258484 1.73709393 -3.79275703
v -2.69631958 1.6874752 -3.50018406
v -2.69631958 1.6874752 -3.79275703
v -2.67989731 -1.16338253 -3.79275703
v -2.69631958 1.6874752 -3.79275703
v -2.69631958 1.6874752 -3.50018406
v -2.67989731 -1.16338253 -3.50018406
v -2.48487854 -1.16336727 1.28825045
v -2.48510742 1.73716164 1.28825045
v -2.48510361 1.73716164 0.995677471
v -2.48487854 -1.16336727 0.995677471
v -2.48510742 1.73716164 1.28825045
v -2.48487854 -1.16336727 1.28825045
v -1.81241608 -1.16331482 1.28825045
v -1.82883835 1.68754292 1.28825045
v -1.81241608 -1.16331482 1.28825045
v -2.48487854 -1.16336727 1.28825045
v -2.48487854 -1.16336727 0.995677471
v -1.81241608 -1.16331482 0.995677471
v -2.48510742 1.73716164 1.28825045
v -1.82883835 1.68754292 1.28825045
v -2.48510361 1.73716164 0.995677471
v -2.48510361 1.73716164 0.995677471
v -1.82883835 1.68754292 1.28825045
v -1.82883835 1.68754292 0.995677471
v -1.81241608 -1.16331482 0.995677471
v -1.82883835 1.68754292 0.995677471
v -1.82883835 1.68754292 1.28825045
v -1.81241608 -1.16331482 1.28825045
v -2.06948853 1.51268864 2.56939316
v -3.47003555 1.51257992 -5.04050779
v -2.94639969 1.51262093 -5.04050779
v -2.06948853 1.51268864 2.56939316
v -2.94639969 1.51262093 -5.04050779
v -1.68843842 1.51271915 2.56939316
v -1.68846893 1.90514374 2.56939316
v -3.47006607 1.90500259 -5.04050779
v -2.06951904 1.90511227 2.56939316
v -3.47006607 1.90500259 -5.04050779
v -1.68846893 1.90514374 2.56939316
v -2.94643021 1.90504551 -5.04050779
v -2.06951904 1.90511227 2.56939316
v -3.47006607 1.90500259 -5.04050779
v -3.47003555 1.51257992 -5.04050779
v -2.06951904 1.90511227 2.56939316
v -3.47003555 1.51257992 -5.04050779
v -2.06948853 1.51268864 2.56939316
v -2.94643021 1.90504551 -5.04050779
v -1.68846893 1.90514374 2.56939316
v -2.94639969 1.51262093 -5.04050779
v -1.68843842 1.51271915 2.56939316
vt 0.515625 0.848632812
vt 0.289550781 0.848632812
vt 0.289550781 0.831054688
vt 0.515625 0.831054688
vt 0.7734375 0.228027344
vt 0.7734375 0
vt 0.830078125 0
vt 0.830078125 0.228027344
vt 0.830078125 0.467773438
vt 0.7734375 0.239746094
vt 0.830078125 0.239746094
vt 0.7734375 0.467773438
vt 0.966308594 0.321289062
vt 0.966308594 0.377441406
vt 0.94921875 0.377441406
vt 0.94921875 0.321289062
vt 0.94921875 0.309570312
vt 0.94921875 0.252929688
vt 0.966308594 0.309570312
vt 0.966308594 0.252929688
vt 0.508789062 0.913452148
vt 0.289550781 0.913452148
vt 0.289550781 0.896362305
vt 0.508789062 0.896362305
vt 0.94921875 0.184570312
vt 0.966308594 0.240722656
vt 0.94921875 0.240722656
vt 0.966308594 0.184570312
vt 0.695800781 0.602294922
vt 0.695800781 0.823486328
vt 0.640625 0.823486328
vt 0.640625 0.602294922
vt 0.975585938 0.780883789
vt 0.958496094 0.837158203
vt 0.958496094 0.780883789
vt 0.975585938 0.837158203
vt 0.7734375 0.479492188
vt 0.828613281 0.700683594
vt 0.7734375 0.700683594
vt 0.828613281 0.479492188
vt 0.715820312 0.884460449
vt 0.493408203 0.884460449
vt 0.493408203 0.8671875
vt 0.715820312 0.8671875
vt 0.892089844 0.984619141
vt 0.892089844 0.928222656
vt 0.909179688 0.984619141
vt 0.909179688 0.928222656
vt 0.120849609 0.620605469
vt 0.120849609 0.837402344
vt 0.06640625 0.837402344
vt 0.06640625 0.620605469
vt 0.9375 0.928222656
vt 0.920410156 0.984786987
vt 0.920410156 0.928222656
vt 0.9375 0.984786987
vt 0.187255859 0.620605469
vt 0.1328125 0.837402344
vt 0.1328125 0.620605469
vt 0.187255859 0.837402344
vt 0.881347656 0.948669434
vt 0.664550781 0.948669434
vt 0.664550781 0.931762695
vt 0.881347656 0.931762695
vt 0.653320312 0.948669434
vt 0.436523438 0.948669434
vt 0.653320312 0.931762695
vt 0.436523438 0.931762695
vt 0.94921875 0.4453125
vt 0.966308594 0.389648438
vt 0.966308594 0.4453125
vt 0.94921875 0.389648438
vt 0.0551452637 0.620605469
vt 0.0551452637 0.838989258
vt 0 0.838989258
vt 0 0.620605469
vt 0.966308594 0.513183594
vt 0.94921875 0.457519531
vt 0.966308594 0.457519531
vt 0.94921875 0.513183594
vt 0.70703125 0.820678711
vt 0.70703125 0.602294922
vt 0.762207031 0.602294922
vt 0.762207031 0.820678711
vt 0.741210938 0.91986084
vt 0.521972656 0.91986084
vt 0.521972656 0.902770996
vt 0.741210938 0.902770996
vt 0.219238281 0.926452637
vt 0 0.926452637
vt 0.219238281 0.909362793
vt 0 0.909362793
vt 0.517089844 0.819213867
vt 0.289550781 0.819213867
vt 0.289550781 0.801513672
vt 0.517089844 0.801513672
vt 0.930175781 0
vt 0.892089844 0.194824219
vt 0.930175781 0.194824219
vt 0.892089844 0
vt 0.901855469 0.85949707
vt 0.863769531 0.664306641
vt 0.863769531 0.85949707
vt 0.863769531 0.664306641
vt 0.901855469 0.85949707
vt 0.901855469 0.664306641
vt 0.482666016 0.880737305
vt 0.289550781 0.860595703
vt 0.289550781 0.880737305
vt 0.482666016 0.860595703
vt 0.514160156 0.391113281
vt 0.493408203 0.194335938
vt 0.493408203 0.391113281
vt 0.493408203 0.194335938
vt 0.514160156 0.391113281
vt 0.514160156 0.194335938
vt 0.880859375 0
vt 0.83984375 0.220214844
vt 0.880859375 0.220214844
vt 0.83984375 0
vt 0.880859375 0.451660156
vt 0.83984375 0.231933594
vt 0.83984375 0.451660156
vt 0.83984375 0.231933594
vt 0.880859375 0.451660156
vt 0.880859375 0.231933594
vt 0.973632812 0.902770996
vt 0.754394531 0.902770996
vt 0.973632812 0.916320801
vt 0.754394531 0.916320801
vt 0.403320312 0.974441528
vt 0.625 0.960540771
vt 0.403320312 0.960540771
vt 0.625 0.960540771
vt 0.403320312 0.974441528
vt 0.625 0.974441528
vt 0.619140625 0.813232422
vt 0.579101562 0.624511719
vt 0.579101562 0.813232422
vt 0.579101562 0.624511719
vt 0.619140625 0.813232422
vt 0.619140625 0.624511719
vt 0.83984375 0.463867188
vt 0.83984375 0.652587891
vt 0.880371094 0.463867188
vt 0.880371094 0.652587891
vt 0.186035156 0.969329834
vt 0 0.979202271
vt 0.186035156 0.979202271
vt 0 0.979202271
vt 0.186035156 0.969329834
vt 0 0.969329834
vt 0.635742188 0.970733643
vt 0.828125 0.970733643
vt 0.635742188 0.960540771
vt 0.828125 0.960540771
vt 0.440282464 0.00624859333
vt 0.422352731 0.447364688
vt 0.422352731 0.00624859333
vt 0.422352731 0.447364688
vt 0.440282464 0.00624859333
vt 0.440282464 0.447364688
vt 0.458445042 0.00624859333
vt 0.440282464 0.447364688
vt 0.440282464 0.00624859333
vt 0.440282464 0.447364688
vt 0.458445042 0.00624859333
vt 0.458445042 0.447364688
vt 0.476607621 0.00624859333
vt 0.458445042 0.447364688
vt 0.458445042 0.00624859333
vt 0.458445042 0.447364688
vt 0.476607621 0.00624859333
vt 0.476607621 0.447364688
vt 0.38626045 0.447364688
vt 0.368097812 0.00624859333
vt 0.38626045 0.00624859333
vt 0.368097812 0.447364688
vt 0.404190153 0.00624859333
vt 0.404190153 0.447364688
vt 0.38626045 0.00624859333
vt 0.38626045 0.447364688
vt 0.422352731 0.00624859333
vt 0.422352731 0.447364688
vt 0.404190153 0.00624859333
vt 0.404190153 0.447364688
vt 0.18693763 0.00624859333
vt 0.204983786 0.447364688
vt 0.18693763 0.447364688
vt 0.204983786 0.00624859333
vt 0.223146379 0.447364688
vt 0.204983786 0.00624859333
vt 0.223146379 0.00624859333
vt 0.204983786 0.447364688
vt 0.241192535 0.447364688
vt 0.223146379 0.00624859333
vt 0.241192535 0.00624859333
vt 0.223146379 0.447364688
vt 0.150845289 0.00624859333
vt 0.150845289 0.447364688
vt 0.132740915 0.447364688
vt 0.150845289 0.00624859333
vt 0.132740915 0.447364688
vt 0.132740915 0.00624859333
vt 0.168891445 0.00624859333
vt 0.150845289 0.447364688
vt 0.150845289 0.00624859333
vt 0.150845289 0.447364688
vt 0.168891445 0.00624859333
vt 0.168891445 0.447364688
vt 0.18693763 0.00624859333
vt 0.168891445 0.447364688
vt 0.168891445 0.00624859333
vt 0.168891445 0.447364688
vt 0.18693763 0.00624859333
vt 0.18693763 0.447364688
vt 0.322691321 0.447364688
vt 0.304528743 0.00624859333
vt 0.322691321 0.00624859333
vt 0.304528743 0.447364688
vt 0.340853959 0.447364688
vt 0.322691321 0.00624859333
vt 0.340853959 0.00624859333
vt 0.322691321 0.447364688
vt 0.358783662 0.447364688
vt 0.340853959 0.00624859333
vt 0.358783662 0.00624859333
vt 0.340853959 0.447364688
vt 0.268436402 0.00624859333
vt 0.268436402 0.447364688
vt 0.250390261 0.447364688
vt 0.250390261 0.447364688
vt 0.250390261 0.00624859333
vt 0.268436402 0.00624859333
vt 0.28659901 0.00624859333
vt 0.28659901 0.447364688
vt 0.268436402 0.447364688
vt 0.268436402 0.447364688
vt 0.268436402 0.00624859333
vt 0.28659901 0.00624859333
vt 0.304528743 0.00624859333
vt 0.304528743 0.447364688
vt 0.28659901 0.447364688
vt 0.28659901 0.447364688
vt 0.28659901 0.00624859333
vt 0.304528743 0.00624859333
vt 0.0873344243 0.00624859333
vt 0.0692882538 0.447364688
vt 0.0692882538 0.00624859333
vt 0.0692882538 0.447364688
vt 0.0873344243 0.00624859333
vt 0.0873344243 0.447364688
vt 0.0873344243 0.447364688
vt 0.105438814 0.00624859333
vt 0.105438814 0.447364688
vt 0.105438814 0.00624859333
vt 0.0873344243 0.447364688
vt 0.0873344243 0.00624859333
vt 0.105438814 0.447364688
vt 0.123484969 0.00624859333
vt 0.123484969 0.447364688
vt 0.123484969 0.00624859333
vt 0.105438814 0.447364688
vt 0.105438814 0.00624859333
vt 0.0331522822 0.00624859333
vt 0.0331522822 0.447364688
vt 0.0150915682 0.00624859333
vt 0.0150915682 0.447364688
vt 0.0512129962 0.00624859333
vt 0.0512129962 0.447364688
vt 0.0331522822 0.00624859333
vt 0.0331522822 0.447364688
vt 0.0692882538 0.00624859333
vt 0.0692882538 0.447364688
vt 0.0512129962 0.00624859333
vt 0.0512129962 0.447364688
vt 0 0.860229492
vt 0.0312805176 0.869750977
vt 0 0.869750977
vt 0.0312805176 0.860229492
vt 0 0.850952148
vt 0.0625610352 0.869750977
vt 0.0312805176 0.850952148
vt 0.0625610352 0.860229492
vt 0.0625610352 0.850952148
vt 0.0938720703 0.869750977
vt 0.0938720703 0.850952148
vt 0.0938720703 0.860229492
vt 0.12512207 0.850952148
vt 0.12512207 0.860229492
vt 0.12512207 0.869750977
vt 0.15637207 0.850952148
vt 0.15637207 0.860229492
vt 0.15637207 0.869750977
vt 0.187744141 0.850952148
vt 0.187744141 0.869750977
vt 0.187744141 0.860229492
vt 0.393310547 0.944671631
vt 0.425292969 0.934875488
vt 0.425292969 0.944671631
vt 0.393310547 0.934875488
vt 0.425292969 0.925292969
vt 0.361083984 0.944671631
vt 0.393310547 0.925292969
vt 0.361083984 0.934875488
vt 0.361083984 0.925292969
vt 0.328857422 0.944671631
vt 0.328857422 0.925292969
vt 0.328857422 0.934875488
vt 0.296875 0.925292969
vt 0.296875 0.934875488
vt 0.296875 0.944671631
vt 0.264648438 0.925292969
vt 0.264648438 0.934875488
vt 0.264648438 0.944671631
vt 0.232543945 0.925292969
vt 0.232543945 0.944671631
vt 0.232543945 0.934875488
vt 0.888671875 0.890930176
vt 0.920898438 0.88104248
vt 0.920898438 0.890930176
vt 0.888671875 0.88104248
vt 0.920898438 0.871337891
vt 0.855957031 0.890930176
vt 0.888671875 0.871337891
vt 0.855957031 0.88104248
vt 0.855957031 0.871337891
vt 0.823730469 0.890930176
vt 0.823730469 0.871337891
vt 0.823730469 0.88104248
vt 0.791015625 0.871337891
vt 0.791015625 0.88104248
vt 0.791015625 0.890930176
vt 0.758300781 0.871337891
vt 0.758300781 0.88104248
vt 0.758300781 0.890930176
vt 0.726074219 0.871337891
vt 0.726074219 0.890930176
vt 0.726074219 0.88104248
vt 0.158813477 0.957458496
vt 0.190551758 0.947814941
vt 0.190551758 0.957458496
vt 0.158813477 0.947814941
vt 0.190551758 0.938323975
vt 0.127075195 0.957458496
vt 0.158813477 0.938323975
vt 0.127075195 0.947814941
vt 0.127075195 0.938323975
vt 0.0952758789 0.957458496
vt 0.0952758789 0.938323975
vt 0.0952758789 0.947814941
vt 0.0635375977 0.938323975
vt 0.0635375977 0.947814941
vt 0.0635375977 0.957458496
vt 0.0317687988 0.938323975
vt 0.0317687988 0.947814941
vt 0.0317687988 0.957458496
vt 0 0.938323975
vt 0 0.957458496
vt 0 0.947814941
vt 0.235351562 0.975387573
vt 0.204101562 0.975387573
vt 0.204101562 0.965881348
vt 0.235351562 0.965881348
vt 0.204101562 0.956542969
vt 0.266601562 0.975387573
vt 0.235351562 0.956542969
vt 0.266601562 0.965881348
vt 0.266601562 0.956542969
vt 0.297851562 0.975387573
vt 0.297851562 0.956542969
vt 0.297851562 0.965881348
vt 0.329101562 0.956542969
vt 0.329101562 0.965881348
vt 0.329101562 0.975387573
vt 0.360595703 0.956542969
vt 0.360595703 0.965881348
vt 0.360595703 0.975387573
vt 0.391845703 0.956542969
vt 0.391845703 0.975387573
vt 0.391845703 0.965881348
vt 0.69140625 0.855224609
vt 0.724609375 0.845214844
vt 0.724609375 0.855224609
vt 0.69140625 0.845214844
vt 0.724609375 0.835449219
vt 0.658691406 0.855224609
vt 0.69140625 0.835449219
vt 0.658691406 0.845214844
vt 0.658691406 0.835449219
vt 0.625488281 0.855224609
vt 0.625488281 0.835449219
vt 0.625488281 0.845214844
vt 0.592773438 0.835449219
vt 0.592773438 0.845214844
vt 0.592773438 0.855224609
vt 0.559570312 0.835449219
vt 0.559570312 0.845214844
vt 0.559570312 0.855224609
vt 0.526855469 0.835449219
vt 0.526855469 0.855224609
vt 0.526855469 0.845214844
vt 0.564492106 0.416016936
vt 0.564492106 0.607258856
vt 0.548930526 0.607258856
vt 0.564492106 0.416016936
vt 0.548930526 0.607258856
vt 0.548930526 0.416016936
vt 0.583473086 0.416016936
vt 0.567911506 0.607258856
vt 0.567911506 0.416016936
vt 0.567911506 0.607258856
vt 0.583473086 0.416016936
vt 0.583473086 0.607258856
vt 0.627764165 0.416151643
vt 0.627764165 0.607393563
vt 0.60714823 0.607393563
vt 0.627764165 0.416151643
vt 0.60714823 0.607393563
vt 0.60714823 0.416151643
vt 0.603398561 0.415937543
vt 0.603398561 0.607179523
vt 0.587284148 0.415937543
vt 0.587284148 0.607179523
vt 0.303511679 0.744398594
vt 0.303511679 0.628728211
vt 0.313860655 0.628728211
vt 0.313860655 0.744398594
vt 0.336513579 0.744182348
vt 0.336513579 0.627512634
vt 0.369860291 0.627512634
vt 0.369860291 0.744182348
vt 0.298104823 0.712006748
vt 0.298104823 0.743090093
vt 0.288644671 0.743090093
vt 0.288644671 0.712006748
vt 0.288644671 0.705519736
vt 0.288644671 0.674166083
vt 0.298104823 0.705519736
vt 0.298104823 0.705519736
vt 0.288644671 0.674166083
vt 0.298104823 0.674166083
vt 0.319607943 0.745148063
vt 0.319607943 0.628728211
vt 0.330028832 0.628728211
vt 0.330028832 0.745148063
vt 0.389962852 0.744398594
vt 0.389962852 0.628728211
vt 0.400311828 0.628728211
vt 0.400311828 0.744398594
vt 0.422964752 0.744182348
vt 0.422964752 0.627512634
vt 0.456311464 0.627512634
vt 0.456311464 0.744182348
vt 0.384555995 0.712006748
vt 0.384555995 0.743090093
vt 0.375095844 0.743090093
vt 0.375095844 0.712006748
vt 0.375095844 0.705519736
vt 0.375095844 0.674166083
vt 0.384555995 0.705519736
vt 0.384555995 0.705519736
vt 0.375095844 0.674166083
vt 0.384555995 0.674166083
vt 0.406059116 0.745148063
vt 0.406059116 0.628728211
vt 0.416480005 0.628728211
vt 0.416480005 0.745148063
vt 0.477616429 0.744398594
vt 0.477616429 0.628728211
vt 0.487965405 0.628728211
vt 0.487965405 0.744398594
vt 0.510618329 0.744182348
vt 0.510618329 0.627512634
vt 0.543965101 0.627512634
vt 0.543965101 0.744182348
vt 0.472209573 0.712006748
vt 0.472209573 0.743090093
vt 0.462749422 0.743090093
vt 0.462749422 0.712006748
vt 0.462749422 0.705519736
vt 0.462749422 0.674166083
vt 0.472209573 0.705519736
vt 0.472209573 0.705519736
vt 0.462749422 0.674166083
vt 0.472209573 0.674166083
vt 0.493712723 0.745148063
vt 0.493712723 0.628728211
vt 0.504133582 0.628728211
vt 0.504133582 0.745148063
vt 0.216089129 0.744398594
vt 0.216089129 0.628728211
vt 0.226438105 0.628728211
vt 0.226438105 0.744398594
vt 0.249091059 0.744182348
vt 0.249091059 0.627512634
vt 0.282437772 0.627512634
vt 0.282437772 0.744182348
vt 0.210682273 0.712006748
vt 0.210682273 0.743090093
vt 0.201222122 0.743090093
vt 0.201222122 0.712006748
vt 0.201222122 0.705519736
vt 0.201222122 0.674166083
vt 0.210682273 0.705519736
vt 0.210682273 0.705519736
vt 0.201222122 0.674166083
vt 0.210682273 0.674166083
vt 0.232185408 0.745148063
vt 0.232185408 0.628728211
vt 0.242606282 0.628728211
vt 0.242606282 0.745148063
vt 0.543686807 0.199397385
vt 0.543686807 0.390639305
vt 0.528125226 0.390639305
vt 0.543686807 0.199397385
vt 0.528125226 0.390639305
vt 0.528125226 0.199397385
vt 0.562667787 0.199397385
vt 0.547106206 0.390639305
vt 0.547106206 0.199397385
vt 0.547106206 0.390639305
vt 0.562667787 0.199397385
vt 0.562667787 0.390639305
vt 0.606958866 0.199532092
vt 0.606958866 0.390774012
vt 0.586342931 0.390774012
vt 0.606958866 0.199532092
vt 0.586342931 0.390774012
vt 0.586342931 0.199532092
vt 0.582593262 0.199318051
vt 0.582593262 0.390560031
vt 0.566478848 0.199318051
vt 0.566478848 0.390560031
vn -1.82519813e-07 -1 -1.46140835e-07
vn 5.11433452e-13 -1 -3.21766106e-06
vn -8.68368133e-09 -1 -3.0715205e-06
vn -1.91204009e-07 -1 0
vn -1.76868127e-07 -7.99320876e-09 1
vn -2.50263071e-07 0 1
vn -2.38003125e-07 -1.33519196e-09 1
vn -1.6497988e-07 -9.28792243e-09 1
vn 3.18850482e-07 1.19898216e-08 -1
vn 2.61720004e-07 2.00278927e-09 -1
vn 2.50263099e-07 0 -1
vn 3.29960045e-07 1.39318956e-08 -1
vn 1 0 0
vn 1 0 0
vn 1 0 0
vn 1 0 0
vn -0.998862743 -0.047676526 -1.45699161e-07
vn -0.998865128 -0.0476286449 1.09958933e-07
vn -0.998855948 -0.0478201807 -5.81688404e-08
vn -0.998867273 -0.04758076 9.25944903e-07
vn 0 1 0
vn 0 1 0
vn 0 1 0
vn 0 1 0
vn -0.993865669 0.110593438 4.77989488e-07
vn -0.993902743 0.110260002 1.58763996e-07
vn -0.99383384 0.110879391 0
vn -0.993780613 0.111355692 0
vn 2.64119706e-07 -5.03936404e-09 -1
vn 2.5814748e-07 -3.31497922e-08 -1
vn 2.59147072e-07 -2.84448269e-08 -1
vn 2.65190351e-07 0 -1
vn 1 0 0
vn 1 0 0
vn 1 0 0
vn 1 0 0
vn -1.89160829e-07 3.35957595e-09 1
vn -2.46600877e-07 1.89632186e-08 1
vn -2.5814748e-07 2.20998615e-08 1
vn -1.76793577e-07 0 1
vn 1.97227621e-07 -1 0
vn 1.97227621e-07 -1 0
vn 1.97227621e-07 -1 0
vn 1.97227621e-07 -1 0
vn -1 0 0
vn -1 0 0
vn -1 0 0
vn -1 0 0
vn 3.46807951e-07 0 -1
vn 2.70590988e-07 0 -1
vn 2.8457103e-07 0 -1
vn 3.60787965e-07 0 -1
vn 1 2.7323015e-08 0
vn 1 6.49255627e-09 0
vn 1 3.3815585e-08 0
vn 1 0 0
vn -2.8457103e-07 -7.03183844e-07 1
vn -3.46807951e-07 -1.28980972e-07 1
vn -2.70590988e-07 -8.32164801e-07 1
vn -3.60787965e-07 0 1
vn 0 -1 0
vn 0 -1 0
vn 0 -1 0
vn 0 -1 0
vn 0 1 0
vn 0 1 0
vn 0 1 0
vn 0 1 0
vn -1 -1.0964505e-07 0
vn -1 -5.56219213e-08 0
vn -1 -1.26483329e-07 0
vn -1 -3.87836643e-08 0
vn 2.78827883e-07 4.16082486e-07 -1
vn 3.53829194e-07 4.16082429e-07 -1
vn 3.40373276e-07 4.16082429e-07 -1
vn 2.65371938e-07 4.16082486e-07 -1
vn 1 0 0
vn 1 0 0
vn 1 0 0
vn 1 0 0
vn -2.17282476e-07 -7.0557769e-07 1
vn -4.42286478e-07 0 1
vn -4.01918612e-07 -1.2658731e-07 1
vn -1.76914625e-07 -8.32164972e-07 1
vn 0 -1 0
vn 0 -1 0
vn 0 -1 0
vn 0 -1 0
vn 0 1 0
vn 0 1 0
vn 0 1 0
vn 0 1 0
vn 0 1 0
vn 0 0.99999994 0
vn 0 1 0
vn 0 1 0
vn -0.99753654 -0.0121593075 -0.0690866932
vn -0.997553706 -0.0120638506 -0.0688554943
vn -0.997532547 -0.0121020488 -0.0691537857
vn -0.997540891 -0.0121679306 -0.0690240562
vn 0.996335208 0.0148223862 0.0842396095
vn 0.996335328 0.0148388278 0.0842359439
vn 0.996335208 0.0147997383 0.0842442513
vn 0.996379793 0.0146165984 0.0837475434
vn 0.996420443 0.0145211658 0.0832795128
vn 0.996371686 0.0146387843 0.0838405043
vn 1.27377662e-05 -0.183633626 0.982994854
vn 2.27271585e-06 -0.183680534 0.982986033
vn 4.2275642e-06 -0.183633402 0.982994854
vn 1.19675606e-05 -0.183680743 0.982985973
vn -2.34965555e-05 0.17465502 -0.98462975
vn -1.60204836e-05 0.174513459 -0.984654784
vn -9.46120326e-06 0.174513444 -0.984654844
vn -1.72040891e-05 0.174702331 -0.984621286
vn -1.36280396e-05 0.173333332 -0.984863222
vn -1.28090187e-05 0.174277499 -0.984696567
vn -0.0449603871 0.997386932 0.0565485097
vn -0.0455053039 0.997240961 0.058648739
vn -0.0461573415 0.997185588 0.0590807945
vn -0.0443879217 0.997435391 0.0561467186
vn 0.0418879613 -0.998022795 -0.0468596257
vn 0.0412823856 -0.998102129 -0.0456934758
vn 0.0419252329 -0.99801445 -0.0470041595
vn 0.0425004922 -0.997935653 -0.0481454469
vn 0.042550195 -0.997933388 -0.0481491573
vn 0.0422492363 -0.997935355 -0.0483716466
vn -0.278900981 -2.07130906e-05 0.960319936
vn -0.279269189 -2.86531322e-05 0.960212827
vn -0.278348476 -1.96897745e-05 0.960480154
vn -0.278900921 -2.70447563e-05 0.960319817
vn 0.283992112 2.7464288e-05 -0.958826542
vn 0.284175932 2.41781963e-05 -0.958772063
vn 0.284267843 2.30517744e-05 -0.958744824
vn 0.283118755 4.27261621e-05 -0.959084809
vn 0.28316462 2.6097081e-05 -0.959071279
vn 0.283026725 8.49290609e-06 -0.959111989
vn -0.021391917 0.997327089 -0.0698648766
vn -0.0225704312 0.997315645 -0.0696562082
vn -0.0222016312 0.997313976 -0.0697991699
vn -0.0270317886 0.996485949 -0.0792784765
vn -0.0276567061 0.996467352 -0.0792959183
vn -0.0260884389 0.996501505 -0.0793984085
vn 0.0238512792 -0.996708035 0.0774863586
vn 0.0281202663 -0.99586457 0.0863894746
vn 0.0253708344 -0.996589065 0.0785265565
vn 0.0303029101 -0.995639265 0.088227503
vn 0.330293655 2.26289285e-05 0.943878233
vn 0.330293655 2.26289285e-05 0.943878233
vn 0.330293655 2.26289285e-05 0.943878233
vn 0.330292404 3.01719738e-05 0.943878651
vn 0.330292404 3.01719738e-05 0.943878651
vn 0.330292404 3.01719738e-05 0.943878651
vn -0.3077043 -2.04000517e-05 -0.951482117
vn -0.307704449 -2.04955395e-05 -0.951481998
vn -0.30770427 -2.04031239e-05 -0.951481998
vn -0.307704449 -2.04986172e-05 -0.951481998
vn 8.75346013e-05 -0.99955982 0.029668821
vn 0.00010965913 -0.999561191 0.0296212211
vn 8.029725e-05 -0.99955982 0.0296687856
vn 0.000107957996 -0.999556899 0.0297648832
vn 9.87223248e-05 -0.99955982 0.0296688713
vn 8.68970455e-05 -0.99955982 0.0296687558
vn 0.867591679 -0.496719629 -0.0235423744
vn 0.867625892 -0.496663064 -0.0234768149
vn 0.86754632 -0.496797889 -0.0235626977
vn 0.8838135 -0.467257053 -0.0233345162
vn 0.883855879 -0.467174739 -0.0233778935
vn 0.883806586 -0.467269421 -0.0233483166
vn 0.866699696 0.496518552 -0.0479672849
vn 0.866690516 0.496526927 -0.0480453633
vn 0.866709173 0.496497631 -0.0480119213
vn 0.882808089 0.467117846 -0.0495032556
vn 0.882825792 0.467081428 -0.0495309308
vn 0.882839859 0.467064232 -0.049443543
vn -7.89493715e-05 0.999777317 -0.0211014394
vn -7.95592059e-05 0.999777377 -0.0211014375
vn -7.95759479e-05 0.999777317 -0.0211014338
vn -7.89290352e-05 0.999777377 -0.0211014394
vn -0.867253065 0.49659279 0.0356023274
vn -0.882994235 0.468035102 0.0355583839
vn -0.867703617 0.495802641 0.0356396101
vn -0.88348192 0.467110485 0.0356008522
vn -0.86607337 -0.496308774 0.0599555708
vn -0.881689548 -0.467805713 0.0614924319
vn -0.866627574 -0.495325208 0.0600801781
vn -0.882190347 -0.466851085 0.0615645796
vn -6.99388765e-05 0.999555349 0.0298197344
vn -7.54051289e-05 0.999542356 0.0302509442
vn -7.50463369e-05 0.999542296 0.0302509423
vn -7.36452857e-05 0.999543726 0.0302030537
vn 0.867956579 0.496081144 -0.0235538166
vn 0.883248985 0.468318731 -0.0234273337
vn 0.88375622 0.467362195 -0.0233980995
vn 0.867483616 0.496906847 -0.0235767327
vn 0.86723721 -0.495577455 -0.0479854122
vn 0.882393241 -0.467909008 -0.0494301878
vn 0.882942975 -0.46686089 -0.0495224781
vn 0.866787672 -0.496358901 -0.0480309017
vn 7.70760307e-05 -0.999776185 -0.0211567301
vn 7.70760307e-05 -0.999776185 -0.0211567301
vn 7.70760307e-05 -0.999776185 -0.0211567301
vn 7.89414989e-05 -0.999776125 -0.0211567264
vn 8.35588144e-05 -0.999768972 -0.0214921869
vn 7.89414989e-05 -0.999776125 -0.0211567264
vn -0.883422256 -0.467230022 0.035514202
vn -0.883430004 -0.467218459 0.0354732461
vn -0.883407593 -0.467252135 0.0355881229
vn -0.867055118 -0.496943057 0.0355388895
vn -0.867156625 -0.496766239 0.0355372205
vn -0.867171288 -0.496736825 0.0355887637
vn -0.882308781 0.466624379 0.0615862459
vn -0.882360578 0.46651426 0.0616789423
vn -0.882325709 0.466587991 0.061618872
vn -0.866223872 0.496029407 0.0600931123
vn -0.866263747 0.495953947 0.0601403154
vn -0.866107523 0.496251911 0.0599332899
vn 7.69401668e-05 -0.999555528 0.0298126414
vn 6.94093396e-05 -0.99955982 0.0296688676
vn 7.15623755e-05 -0.999556899 0.0297646895
vn 7.63988719e-05 -0.999557078 0.0297647268
vn -0.867979527 -0.49603796 -0.0236208141
vn -0.883215249 -0.468385756 -0.0233544894
vn -0.883767545 -0.467339367 -0.0234283712
vn -0.86749047 -0.496893317 -0.02360956
vn -0.867252529 0.495548159 -0.0480114333
vn -0.882411301 0.467872083 -0.0494584367
vn -0.882918537 0.46691519 -0.0494484417
vn -0.866756618 0.496420413 -0.0479550213
vn -7.70864208e-05 0.999777377 -0.0211014114
vn -7.70864208e-05 0.999777377 -0.0211014114
vn -7.70864208e-05 0.999777377 -0.0211014114
vn -8.84138863e-05 0.999757707 -0.0220119711
vn -7.90703416e-05 0.999765038 -0.021676559
vn -8.62820307e-05 0.999767125 -0.021580603
vn 0.867155612 0.496766299 0.0355574861
vn 0.867148519 0.496776193 0.0355932526
vn 0.867141962 0.496785313 0.0356252305
vn 0.883432984 0.467211366 0.0354924947
vn 0.883410811 0.467244476 0.0356082208
vn 0.883404613 0.467263162 0.0355184563
vn 0.866128445 -0.496201754 0.0600425825
vn 0.866125047 -0.496220052 0.0599408261
vn 0.866153717 -0.496157736 0.0600420311
vn 0.882257521 -0.466719627 0.0616017543
vn 0.882304549 -0.466630638 0.0616014749
vn 0.882308185 -0.466626137 0.0615830049
vn -8.27726399e-05 0.999538064 0.0303948987
vn -8.96888814e-05 0.999532223 0.0305866804
vn -7.88024336e-05 0.999538064 0.0303948801
vn -9.55515425e-05 0.999542296 0.0302513186
vn -8.90480442e-05 0.999543726 0.0302032791
vn -8.1164173e-05 0.999543726 0.0302032046
vn -0.883807957 0.467267692 -0.0233280528
vn -0.883835018 0.467215985 -0.0233378541
vn -0.883816183 0.46724984 -0.0233758185
vn -0.867591143 0.496720761 -0.0235339869
vn -0.867592633 0.496724427 -0.0234014448
vn -0.867561519 0.496769994 -0.0235890839
vn -0.882842064 -0.467043012 -0.0496032983
vn -0.882818043 -0.467096567 -0.049526725
vn -0.882788837 -0.467171758 -0.0493374802
vn -0.866700768 -0.496513575 -0.047999274
vn -0.866676986 -0.496550947 -0.0480424315
vn -0.866695285 -0.496522158 -0.0480092615
vn 7.95641536e-05 -0.999776125 -0.0211566221
vn 7.38448653e-05 -0.999759674 -0.0219234433
vn 7.95480228e-05 -0.999776185 -0.021156624
vn 7.89414989e-05 -0.999776125 -0.0211566221
vn 0.867252469 -0.496594548 0.035596434
vn 0.883013844 -0.467997134 0.0355701037
vn 0.867571652 -0.496040881 0.0355359055
vn 0.883378327 -0.46731323 0.0355144553
vn 0.866054177 0.496341318 0.0599613711
vn 0.881774724 0.467635274 0.0615678281
vn 0.866608918 0.495357364 0.0600846261
vn 0.882295728 0.466639996 0.0616551824
vn 0.495679349 0.865616739 -0.0707799047
vn -0.337986052 0.620854437 0.707322538
vn 0.371521056 0.632370412 0.67976439
vn -0.497033983 0.867695034 -0.00789910369
vn 0.331198215 0.583705664 -0.741347134
vn -0.670685351 0.00783039257 0.741700649
vn -0.363794684 0.600955188 -0.711692572
vn -0.996913731 -7.60243274e-05 0.0785049349
vn -0.737775505 -0.00791685563 -0.674999774
vn -0.330769598 -0.575029731 0.748286247
vn -0.376459777 -0.643226087 -0.66673702
vn -0.494713008 -0.863935709 0.0942015871
vn 0.347050428 -0.630846441 -0.693965971
vn 0.502709508 -0.863885403 0.0313874632
vn 0.354556322 -0.590793371 0.724743366
vn 0.6831249 -0.00787748769 -0.73025912
vn 0.9984864 7.75214285e-05 -0.0549971536
vn 0.726550341 0.00793044455 0.687067389
vn 0.331198215 0.583705664 -0.741347134
vn 0.371521056 0.632370412 0.67976439
vn 0.495679349 0.865616739 -0.0707799047
vn 0.310885876 0.559657574 0.76820147
vn -0.495556951 0.865714014 -0.0704443604
vn -0.337751389 0.578943849 0.742123961
vn 0.496883065 0.867781699 -0.00788319297
vn -0.304359943 0.529234409 -0.792007565
vn 0.605429828 0.00807333924 0.795857728
vn 0.328987598 0.545623362 -0.770754397
vn 0.996952176 0.000281366985 0.0780161321
vn 0.6725775 -0.00854513794 -0.7399773
vn 0.29678914 -0.521777809 0.799790084
vn 0.345174253 -0.585915506 -0.733183324
vn 0.494530678 -0.864093304 0.0937134176
vn -0.313325584 -0.57208252 -0.757989883
vn -0.502706885 -0.863892436 0.0312369596
vn -0.321337909 -0.538413167 0.779007912
vn -0.618057907 -0.00816593319 -0.786090136
vn -0.998499691 -0.000203936244 -0.0547559783
vn -0.66024065 0.00846895576 0.751006424
vn -0.304359943 0.529234409 -0.792007565
vn -0.337751389 0.578943849 0.742123961
vn -0.495556951 0.865714014 -0.0704443604
vn 0.305436999 0.556006491 0.773023248
vn -0.495231986 0.865220845 -0.0783467069
vn -0.338213325 0.570688725 0.748282194
vn 0.496893853 0.867775738 -0.00785682909
vn -0.296662003 0.52175349 -0.799853086
vn 0.600862384 0.00806008093 0.799311936
vn 0.328362465 0.53686446 -0.777145207
vn 0.996958554 0.000272897014 0.0779337883
vn 0.668550372 -0.00843775086 -0.743619025
vn 0.296052277 -0.512811005 0.805839896
vn 0.345019102 -0.585918188 -0.733254135
vn 0.494543195 -0.864096344 0.0936189368
vn -0.311441004 -0.568413317 -0.761518776
vn -0.502695203 -0.863901138 0.0311818905
vn -0.320760638 -0.529575229 0.785278618
vn -0.609416246 -0.00817965809 -0.792808235
vn -0.998503387 -0.000203320524 -0.0546888709
vn -0.656097412 0.00834626891 0.754630029
vn -0.296662003 0.52175349 -0.799853086
vn -0.338213325 0.570688725 0.748282194
vn -0.495231986 0.865220845 -0.0783467069
vn 0.311412483 0.568422675 0.761523426
vn -0.49556154 0.865708053 -0.070485957
vn -0.345027357 0.58586359 0.733293951
vn 0.496899307 0.867772639 -0.00785490498
vn -0.302812099 0.534647107 -0.788959622
vn 0.60940522 0.0081987055 0.79281652
vn 0.338175595 0.547602952 -0.765354872
vn 0.996949375 0.000280039152 0.0780503303
vn 0.68073827 -0.00850084051 -0.732477427
vn 0.296648145 -0.521839797 0.799801946
vn 0.345575035 -0.594329178 -0.726189137
vn 0.494536102 -0.864083171 0.0937786177
vn -0.320771843 -0.579198062 -0.749423146
vn -0.502701104 -0.863895893 0.0312314555
vn -0.328401774 -0.536840618 0.777145147
vn -0.622497439 -0.00817793701 -0.782579124
vn -0.998499036 -0.000208996556 -0.0547698587
vn -0.668545544 0.00845674518 0.743623197
vn -0.302812099 0.534647107 -0.788959622
vn -0.345027357 0.58586359 0.733293951
vn -0.49556154 0.865708053 -0.070485957
vn 0.306657225 -0.568157852 0.763647676
vn -0.342283845 -0.580720961 0.73865068
vn -0.497790545 -0.864423692 -0.0705428272
vn 0.497096956 -0.867658436 -0.00795961916
vn -0.299450636 -0.528956413 -0.794061959
vn 0.607382536 -0.00812922977 0.794367909
vn 0.333612412 -0.547228277 -0.767622232
vn 0.996950567 -0.000658898149 0.0780325085
vn 0.678714812 0.00883927569 -0.734348774
vn 0.298875123 0.520043612 0.800142646
vn 0.347699314 0.592473209 -0.726691663
vn 0.494609982 0.864050746 0.0936879218
vn -0.315977871 0.579009831 -0.751602113
vn -0.501909971 0.864352703 0.0313174687
vn -0.323917419 0.536343098 0.779367447
vn -0.620407641 0.00821813662 -0.784236372
vn -0.998507798 -0.00204533432 -0.0545699522
vn -0.666552365 -0.00876491703 0.745406568
vn -0.299450636 -0.528956413 -0.794061959
vn -0.342283845 -0.580720961 0.73865068
vn -0.497790545 -0.864423692 -0.0705428272
vn -0.330024332 -0.604609132 0.72493577
vn 0.495512754 -0.864204049 -0.0872834697
vn 0.355236173 -0.614743054 0.704200447
vn -0.496899098 -0.86765039 -0.0165545717
vn 0.321371913 -0.55680573 -0.765955269
vn -0.645582557 -0.0155838681 0.763531446
vn -0.345124096 -0.573189616 -0.743197739
vn -0.996918082 -0.000864918518 0.0784451365
vn -0.711025 0.0148601495 -0.703009725
vn -0.314237803 0.549519837 0.774133384
vn -0.362565786 0.629448652 -0.687270284
vn -0.494840592 0.862877429 0.102835946
vn 0.33037889 0.612978995 -0.717709184
vn 0.502577305 0.863605976 0.0400097109
vn 0.346242219 0.559189439 0.753275156
vn 0.654003143 0.0154484957 -0.756334126
vn 0.998484492 0.000626917579 -0.0550300777
vn 0.699187458 -0.0149348397 0.714782357
vn 0.321371913 -0.55680573 -0.765955269
vn 0.355236173 -0.614743054 0.704200447
vn 0.495512754 -0.864204049 -0.0872834697
vn 7.8313933e-05 -1 2.99158671e-08
vn 7.8313933e-05 -1 2.99158671e-08
vn 7.8313933e-05 -1 2.99158671e-08
vn 7.75853405e-05 -1 8.22202892e-08
vn 7.75853405e-05 -1 8.22202892e-08
vn 7.75853405e-05 -1 8.22202892e-08
vn -8.25908501e-05 1 9.04423189e-07
vn -8.25908501e-05 1 9.04423189e-07
vn -8.25908501e-05 1 9.04423189e-07
vn -8.0135811e-05 1 3.58993219e-07
vn -8.0135811e-05 1 3.58993219e-07
vn -8.0135811e-05 1 3.58993219e-07
vn -0.98348254 -7.66341545e-05 0.181002825
vn -0.98348254 -7.66341545e-05 0.181002825
vn -0.98348254 -7.66341545e-05 0.181002825
vn -0.983482599 -7.6634351e-05 0.181002796
vn -0.983482599 -7.6634351e-05 0.181002796
vn -0.983482599 -7.6634351e-05 0.181002796
vn 0.98661077 8.69600553e-05 -0.16309303
vn 0.98661077 7.72039202e-05 -0.163092583
vn 0.986610711 8.66338596e-05 -0.163093001
vn 0.98661077 7.68777318e-05 -0.163092569
vn -1 -7.76738743e-05 0
vn -0.99999994 -7.75423832e-05 0
vn -1 -7.75513763e-05 0
vn -0.99999994 -7.76828601e-05 0
vn -4.16612966e-10 0 1
vn -2.73478351e-09 0 1
vn -2.34670305e-09 0 1
vn 0 0 1
vn 7.80000264e-05 -1 0
vn 7.80000628e-05 -1 0
vn 7.80000555e-05 -1 0
vn 7.80000119e-05 -1 0
vn 0.0766353533 0.997059166 0
vn 0.0768743455 0.997040749 2.95112841e-07
vn 0.0764441714 0.997073889 1.25233015e-07
vn 0.0763007104 0.997084856 1.1708471e-07
vn 0.0766352937 0.997059166 4.93837433e-08
vn 0.0765875056 0.997062862 4.02133679e-07
vn 0.99998337 0.00576040102 0
vn 0.99998337 0.00576026831 0
vn 0.99998343 0.00576027855 0
vn 0.99998343 0.0057604108 0
vn -1 -7.89469632e-05 0
vn -1 -7.89470432e-05 0
vn -1 -7.89470359e-05 0
vn -1 -7.89469559e-05 0
vn 1.26280915e-08 0 1
vn 8.28949496e-08 0 1
vn 7.11316588e-08 0 1
vn 0 0 1
vn 7.79999755e-05 -1 0
vn 7.80000628e-05 -1 0
vn 7.80000264e-05 -1 0
vn 7.79999464e-05 -1 0
vn 0.0766348392 0.997059166 0
vn 0.0767782331 0.997048199 2.63680704e-08
vn 0.0764914528 0.997070193 -4.30985274e-08
vn 0.0765393749 0.997066617 2.65310518e-07
vn 0.0767783597 0.997048259 2.721832e-07
vn 0.0766827688 0.99705559 6.18318836e-08
vn 0.99998337 0.00576040102 0
vn 0.99998343 0.00576040149 0
vn 0.99998337 0.00576040102 0
vn 0.99998343 0.00576040149 0
vn -1 -7.75511871e-05 0
vn -1 -7.76825109e-05 0
vn -1 -7.76735324e-05 0
vn -1 -7.75422086e-05 0
vn 7.59913448e-08 0 1
vn 4.9883198e-07 0 1
vn 4.2804507e-07 0 1
vn 0 0 1
vn 7.80000846e-05 -1 0
vn 7.80000773e-05 -1 0
vn 7.80000846e-05 -1 0
vn 7.80000773e-05 -1 0
vn 0.0764919296 0.997070193 0
vn 0.0766831189 0.997055531 2.58325599e-07
vn 0.0762529373 0.997088552 1.03697765e-07
vn 0.0764441341 0.997073889 1.35565642e-07
vn 0.0768743083 0.997040749 5.95892331e-08
vn 0.0765397251 0.997066557 5.49616779e-08
vn 0.99998337 0.00576038565 0
vn 0.99998343 0.00576025248 0
vn 0.99998337 0.00576026132 0
vn 0.99998343 0.00576039543 0
vn -1 -7.7763485e-05 -8.34221737e-07
vn -0.99999994 -7.8946905e-05 -1.3038446e-05
vn -1 -7.88660182e-05 -1.22042256e-05
vn -1 -7.76825909e-05 0
vn -2.31593802e-07 0 1
vn -1.01479351e-07 0 1
vn -1.23261671e-07 0 1
vn -2.54977465e-07 0 0.99999994
vn 7.8000041e-05 -1 0
vn 7.80000337e-05 -1 0
vn 7.8000041e-05 -1 0
vn 7.80000337e-05 -1 0
vn 0.0763002783 0.997084916 2.47637104e-06
vn 0.076778248 0.997048259 2.50455923e-06
vn 0.0753920674 0.997153997 2.47637217e-06
vn 0.0753925815 0.997153938 0
vn 0.0766831711 0.997055531 2.54646352e-07
vn 0.0765875801 0.997062862 5.725175e-08
vn 0.99998337 0.00576039124 0
vn 0.99998343 0.00576039171 0
vn 0.99998337 0.00576039124 0
vn 0.99998343 0.00576039171 0
vn 7.83140276e-05 -0.99999994 -8.97477008e-08
vn 7.83140276e-05 -0.99999994 -8.97477008e-08
vn 7.83140276e-05 -0.99999994 -8.97477008e-08
vn 8.00880953e-05 -1 -4.11101439e-07
vn 8.00880953e-05 -1 -4.11101439e-07
vn 8.00880953e-05 -1 -4.11101439e-07
vn -8.25908501e-05 1 8.22202878e-07
vn -8.25908501e-05 1 8.22202878e-07
vn -8.25908501e-05 1 8.22202878e-07
vn -8.1956452e-05 0.99999994 5.98317399e-07
vn -8.1956452e-05 0.99999994 5.98317399e-07
vn -8.1956452e-05 0.99999994 5.98317399e-07
vn -0.983482659 -7.66343583e-05 0.181002855
vn -0.983482659 -7.66343583e-05 0.181002855
vn -0.983482659 -7.66343583e-05 0.181002855
vn -0.983482599 -7.66341618e-05 0.181002825
vn -0.983482599 -7.66341618e-05 0.181002825
vn -0.983482599 -7.66341618e-05 0.181002825
vn 0.98661077 7.68777318e-05 -0.163092479
vn 0.98661077 7.56582085e-05 -0.163092494
vn 0.98661077 7.68369646e-05 -0.163092494
vn 0.98661077 7.56174413e-05 -0.163092479
f 1/1/1 2/2/2 3/3/3
f 1/1/1 3/3/3 4/4/4
f 5/5/5 6/6/6 7/7/7
f 5/5/5 7/7/7 8/8/8
f 9/9/9 10/10/10 11/11/11
f 10/10/10 9/9/9 12/12/12
f 13/13/13 14/14/14 15/15/15
f 15/15/15 16/16/16 13/13/13
f 17/17/17 18/18/18 19/19/19
f 19/19/19 18/18/18 20/20/20
f 21/21/21 22/22/22 23/23/23
f 21/21/21 23/23/23 24/24/24
f 25/25/25 26/26/26 27/27/27
f 26/26/26 25/25/25 28/28/28
f 29/29/29 30/30/30 31/31/31
f 29/29/29 31/31/31 32/32/32
f 33/33/33 34/34/34 35/35/35
f 34/34/34 33/33/33 36/36/36
f 37/37/37 38/38/38 39/39/39
f 38/38/38 37/37/37 40/40/40
f 41/41/41 42/42/42 43/43/43
f 41/41/41 43/43/43 44/44/44
f 45/45/45 46/46/46 47/47/47
f 47/47/47 46/46/46 48/48/48
f 49/49/49 50/50/50 51/51/51
f 49/49/49 51/51/51 52/52/52
f 53/53/53 54/54/54 55/55/55
f 54/54/54 53/53/53 56/56/56
f 57/57/57 58/58/58 59/59/59
f 58/58/58 57/57/57 60/60/60
f 61/61/61 62/62/62 63/63/63
f 61/61/61 63/63/63 64/64/64
f 65/65/65 66/66/66 67/67/67
f 68/68/68 67/67/67 66/66/66
f 69/69/69 70/70/70 71/71/71
f 70/70/70 69/69/69 72/72/72
f 73/73/73 74/74/74 75/75/75
f 73/73/73 75/75/75 76/76/76
f 77/77/77 78/78/78 79/79/79
f 78/78/78 77/77/77 80/80/80
f 81/81/81 82/82/82 83/83/83
f 81/81/81 83/83/83 84/84/84
f 85/85/85 86/86/86 87/87/87
f 85/85/85 87/87/87 88/88/88
f 89/89/89 90/90/90 91/91/91
f 92/92/92 91/91/91 90/90/90
f 93/93/93 94/94/94 95/95/95
f 93/93/93 95/95/95 96/96/96
f 97/97/97 98/98/98 99/99/99
f 98/98/98 97/97/97 100/100/100
f 101/101/101 102/102/102 103/103/103
f 104/104/104 105/105/105 106/106/106
f 107/107/107 108/108/108 109/109/109
f 108/108/108 107/107/107 110/110/110
f 111/111/111 112/112/112 113/113/113
f 114/114/114 115/115/115 116/116/116
f 117/117/117 118/118/118 119/119/119
f 118/118/118 117/117/117 120/120/120
f 121/121/121 122/122/122 123/123/123
f 124/124/124 125/125/125 126/126/126
f 127/127/127 128/128/128 129/129/129
f 128/128/128 130/130/130 129/129/129
f 131/131/131 132/132/132 133/133/133
f 134/134/134 135/135/135 136/136/136
f 137/137/137 138/138/138 139/139/139
f 140/140/140 141/141/141 142/142/142
f 143/143/143 144/144/144 145/145/145
f 145/145/145 144/144/144 146/146/146
f 147/147/147 148/148/148 149/149/149
f 150/150/150 151/151/151 152/152/152
f 153/153/153 154/154/154 155/155/155
f 155/155/155 154/154/154 156/156/156
f 157/157/157 158/158/158 159/159/159
f 160/160/160 161/161/161 162/162/162
f 163/163/163 164/164/164 165/165/165
f 166/166/166 167/167/167 168/168/168
f 169/169/169 170/170/170 171/171/171
f 172/172/172 173/173/173 174/174/174
f 175/175/175 176/176/176 177/177/177
f 178/178/178 176/176/176 175/175/175
f 179/179/179 180/180/180 181/181/181
f 182/182/182 181/181/181 180/180/180
f 183/183/183 184/184/184 185/185/185
f 186/186/186 185/185/185 184/184/184
f 187/187/187 188/188/188 189/189/189
f 188/188/188 187/187/187 190/190/190
f 191/191/191 192/192/192 193/193/193
f 192/192/192 191/191/191 194/194/194
f 195/195/195 196/196/196 197/197/197
f 196/196/196 195/195/195 198/198/198
f 199/199/199 200/200/200 201/201/201
f 202/202/202 203/203/203 204/204/204
f 205/205/205 206/206/206 207/207/207
f 208/208/208 209/209/209 210/210/210
f 211/211/211 212/212/212 213/213/213
f 214/214/214 215/215/215 216/216/216
f 217/217/217 218/218/218 219/219/219
f 218/218/218 217/217/217 220/220/220
f 221/221/221 222/222/222 223/223/223
f 222/222/222 221/221/221 224/224/224
f 225/225/225 226/226/226 227/227/227
f 226/226/226 225/225/225 228/228/228
f 229/229/229 230/230/230 231/231/231
f 232/232/232 233/233/233 234/234/234
f 235/235/235 236/236/236 237/237/237
f 238/238/238 239/239/239 240/240/240
f 241/241/241 242/242/242 243/243/243
f 244/244/244 245/245/245 246/246/246
f 247/247/247 248/248/248 249/249/249
f 250/250/250 251/251/251 252/252/252
f 253/253/253 254/254/254 255/255/255
f 256/256/256 257/257/257 258/258/258
f 259/259/259 260/260/260 261/261/261
f 262/262/262 263/263/263 264/264/264
f 265/265/265 266/266/266 267/267/267
f 268/268/268 267/267/267 266/266/266
f 269/269/269 270/270/270 271/271/271
f 271/271/271 270/270/270 272/272/272
f 273/273/273 274/274/274 275/275/275
f 275/275/275 274/274/274 276/276/276
f 277/277/277 278/278/278 279/279/279
f 278/278/278 277/277/277 280/280/280
f 281/281/281 280/280/280 277/277/277
f 282/282/282 278/278/278 280/280/280
f 280/280/280 281/281/281 283/283/283
f 280/280/280 284/284/284 282/282/282
f 283/283/283 284/284/284 280/280/280
f 284/284/284 283/283/283 285/285/285
f 284/284/284 286/286/286 282/282/282
f 287/287/287 284/284/284 285/285/285
f 288/288/288 284/284/284 287/287/287
f 286/286/286 284/284/284 288/288/288
f 287/287/287 289/289/289 288/288/288
f 290/290/290 286/286/286 288/288/288
f 288/288/288 289/289/289 290/290/290
f 286/286/286 290/290/290 291/291/291
f 292/292/292 290/290/290 289/289/289
f 293/293/293 291/291/291 290/290/290
f 293/293/293 290/290/290 292/292/292
f 291/291/291 293/293/293 294/294/294
f 292/292/292 295/295/295 293/293/293
f 293/293/293 296/296/296 294/294/294
f 293/293/293 295/295/295 297/297/297
f 297/297/297 296/296/296 293/293/293
f 298/298/298 299/299/299 300/300/300
f 299/299/299 298/298/298 301/301/301
f 299/299/299 301/301/301 302/302/302
f 303/303/303 301/301/301 298/298/298
f 302/302/302 301/301/301 304/304/304
f 301/301/301 303/303/303 305/305/305
f 301/301/301 305/305/305 304/304/304
f 306/306/306 304/304/304 305/305/305
f 307/307/307 305/305/305 303/303/303
f 305/305/305 308/308/308 306/306/306
f 308/308/308 305/305/305 309/309/309
f 305/305/305 307/307/307 309/309/309
f 309/309/309 310/310/310 308/308/308
f 311/311/311 309/309/309 307/307/307
f 310/310/310 309/309/309 311/311/311
f 307/307/307 312/312/312 311/311/311
f 311/311/311 313/313/313 310/310/310
f 312/312/312 314/314/314 311/311/311
f 313/313/313 311/311/311 314/314/314
f 314/314/314 312/312/312 315/315/315
f 314/314/314 316/316/316 313/313/313
f 317/317/317 314/314/314 315/315/315
f 316/316/316 314/314/314 318/318/318
f 314/314/314 317/317/317 318/318/318
f 319/319/319 320/320/320 321/321/321
f 320/320/320 319/319/319 322/322/322
f 320/320/320 322/322/322 323/323/323
f 324/324/324 322/322/322 319/319/319
f 323/323/323 322/322/322 325/325/325
f 322/322/322 324/324/324 326/326/326
f 326/326/326 325/325/325 322/322/322
f 327/327/327 325/325/325 326/326/326
f 328/328/328 326/326/326 324/324/324
f 326/326/326 329/329/329 327/327/327
f 329/329/329 326/326/326 330/330/330
f 326/326/326 328/328/328 330/330/330
f 330/330/330 331/331/331 329/329/329
f 332/332/332 330/330/330 328/328/328
f 331/331/331 330/330/330 332/332/332
f 328/328/328 333/333/333 332/332/332
f 332/332/332 334/334/334 331/331/331
f 333/333/333 335/335/335 332/332/332
f 334/334/334 332/332/332 335/335/335
f 335/335/335 333/333/333 336/336/336
f 335/335/335 337/337/337 334/334/334
f 338/338/338 335/335/335 336/336/336
f 337/337/337 335/335/335 339/339/339
f 335/335/335 338/338/338 339/339/339
f 340/340/340 341/341/341 342/342/342
f 341/341/341 340/340/340 343/343/343
f 341/341/341 343/343/343 344/344/344
f 345/345/345 343/343/343 340/340/340
f 344/344/344 343/343/343 346/346/346
f 343/343/343 345/345/345 347/347/347
f 343/343/343 347/347/347 346/346/346
f 348/348/348 346/346/346 347/347/347
f 349/349/349 347/347/347 345/345/345
f 347/347/347 350/350/350 348/348/348
f 350/350/350 347/347/347 351/351/351
f 347/347/347 349/349/349 351/351/351
f 351/351/351 352/352/352 350/350/350
f 353/353/353 351/351/351 349/349/349
f 352/352/352 351/351/351 353/353/353
f 349/349/349 354/354/354 353/353/353
f 353/353/353 355/355/355 352/352/352
f 354/354/354 356/356/356 353/353/353
f 355/355/355 353/353/353 356/356/356
f 356/356/356 354/354/354 357/357/357
f 356/356/356 358/358/358 355/355/355
f 359/359/359 356/356/356 357/357/357
f 358/358/358 356/356/356 360/360/360
f 356/356/356 359/359/359 360/360/360
f 361/361/361 362/362/362 363/363/363
f 363/363/363 364/364/364 361/361/361
f 365/365/365 364/364/364 363/363/363
f 364/364/364 366/366/366 361/361/361
f 364/364/364 365/365/365 367/367/367
f 366/366/366 364/364/364 368/368/368
f 367/367/367 368/368/368 364/364/364
f 368/368/368 367/367/367 369/369/369
f 370/370/370 366/366/366 368/368/368
f 369/369/369 371/371/371 368/368/368
f 372/372/372 368/368/368 371/371/371
f 368/368/368 372/372/372 370/370/370
f 373/373/373 372/372/372 371/371/371
f 374/374/374 370/370/370 372/372/372
f 374/374/374 372/372/372 373/373/373
f 370/370/370 374/374/374 375/375/375
f 373/373/373 376/376/376 374/374/374
f 377/377/377 375/375/375 374/374/374
f 374/374/374 376/376/376 377/377/377
f 375/375/375 377/377/377 378/378/378
f 379/379/379 377/377/377 376/376/376
f 380/380/380 378/378/378 377/377/377
f 381/381/381 377/377/377 379/379/379
f 377/377/377 381/381/381 380/380/380
f 382/382/382 383/383/383 384/384/384
f 383/383/383 382/382/382 385/385/385
f 385/385/385 386/386/386 383/383/383
f 387/387/387 385/385/385 382/382/382
f 388/388/388 386/386/386 385/385/385
f 385/385/385 387/387/387 389/389/389
f 385/385/385 389/389/389 388/388/388
f 388/388/388 389/389/389 390/390/390
f 391/391/391 389/389/389 387/387/387
f 389/389/389 392/392/392 390/390/390
f 392/392/392 389/389/389 393/393/393
f 389/389/389 391/391/391 393/393/393
f 393/393/393 394/394/394 392/392/392
f 391/391/391 395/395/395 393/393/393
f 394/394/394 393/393/393 395/395/395
f 395/395/395 391/391/391 396/396/396
f 395/395/395 397/397/397 394/394/394
f 398/398/398 395/395/395 396/396/396
f 397/397/397 395/395/395 398/398/398
f 396/396/396 399/399/399 398/398/398
f 398/398/398 400/400/400 397/397/397
f 401/401/401 398/398/398 399/399/399
f 400/400/400 398/398/398 402/402/402
f 398/398/398 401/401/401 402/402/402
f 403/403/403 404/404/404 405/405/405
f 406/406/406 407/407/407 408/408/408
f 409/409/409 410/410/410 411/411/411
f 412/412/412 413/413/413 414/414/414
f 415/415/415 416/416/416 417/417/417
f 418/418/418 419/419/419 420/420/420
f 421/421/421 422/422/422 423/423/423
f 424/424/424 423/423/423 422/422/422
f 425/425/425 426/426/426 427/427/427
f 425/425/425 427/427/427 428/428/428
f 429/429/429 430/430/430 431/431/431
f 429/429/429 431/431/431 432/432/432
f 433/433/433 434/434/434 435/435/435
f 435/435/435 436/436/436 433/433/433
f 437/437/437 438/438/438 439/439/439
f 440/440/440 441/441/441 442/442/442
f 443/443/443 444/444/444 445/445/445
f 443/443/443 445/445/445 446/446/446
f 447/447/447 448/448/448 449/449/449
f 447/447/447 449/449/449 450/450/450
f 451/451/451 452/452/452 453/453/453
f 451/451/451 453/453/453 454/454/454
f 455/455/455 456/456/456 457/457/457
f 457/457/457 458/458/458 455/455/455
f 459/459/459 460/460/460 461/461/461
f 462/462/462 463/463/463 464/464/464
f 465/465/465 466/466/466 467/467/467
f 465/465/465 467/467/467 468/468/468
f 469/469/469 470/470/470 471/471/471
f 469/469/469 471/471/471 472/472/472
f 473/473/473 474/474/474 475/475/475
f 473/473/473 475/475/475 476/476/476
f 477/477/477 478/478/478 479/479/479
f 479/479/479 480/480/480 477/477/477
f 481/481/481 482/482/482 483/483/483
f 484/484/484 485/485/485 486/486/486
f 487/487/487 488/488/488 489/489/489
f 487/487/487 489/489/489 490/490/490
f 491/491/491 492/492/492 493/493/493
f 491/491/491 493/493/493 494/494/494
f 495/495/495 496/496/496 497/497/497
f 495/495/495 497/497/497 498/498/498
f 499/499/499 500/500/500 501/501/501
f 501/501/501 502/502/502 499/499/499
f 503/503/503 504/504/504 505/505/505
f 506/506/506 507/507/507 508/508/508
f 509/509/509 510/510/510 511/511/511
f 509/509/509 511/511/511 512/512/512
f 513/513/513 514/514/514 515/515/515
f 516/516/516 517/517/517 518/518/518
f 519/519/519 520/520/520 521/521/521
f 522/522/522 523/523/523 524/524/524
f 525/525/525 526/526/526 527/527/527
f 528/528/528 529/529/529 530/530/530
f 531/531/531 532/532/532 533/533/533
f 534/534/534 533/533/533 532/532/532
