# Extracted from the Cocos Creator 3.8.3 playable build
# Geometry-only OBJ preview for Unity; rig and animation stay in the raw assets.
o Cavalry_Battalion
v -0.0843915641 -2.54410219 0.489540339
v -1.96135616 -2.48072672 2.23593736
v -0.381237954 -2.54410219 0.207671642
v -1.87012863 -2.48072672 2.54300237
v -0.0843944252 3.26057768 0.489540577
v -1.96135855 3.1972003 2.23593736
v -1.87013102 3.1972003 2.54300332
v -0.381234139 3.26057768 0.207671642
v -4.09026766 3.26057577 0.489540577
v -2.21330261 3.1972003 2.23593736
v -3.79342794 3.26057577 0.207671642
v -2.30453014 3.1972003 2.54300332
v -2.21330023 -2.48072672 2.23593736
v -4.0902648 -2.5441041 0.489540339
v -3.79342508 -2.5441041 0.207671642
v -2.30452776 -2.48072672 2.54300237
v -1.96135855 3.1972003 2.23593736
v -1.96135616 -2.48072672 2.23593736
v -2.21330023 -2.48072672 2.23593736
v -2.21330261 3.1972003 2.23593736
v -2.30453014 3.1972003 2.54300332
v -2.30452776 -2.48072672 2.54300237
v -1.87013102 3.1972003 2.54300332
v -1.87012863 -2.48072672 2.54300237
v -1.96135855 3.1972003 2.23593736
v -0.381237954 -2.54410219 0.207671642
v -1.96135616 -2.48072672 2.23593736
v -0.381234139 3.26057768 0.207671642
v -0.381237954 -2.54410219 0.207671642
v -0.381234139 3.26057768 0.207671642
v -0.0843915641 -2.54410219 0.489540339
v -0.0843944252 3.26057768 0.489540577
v -2.30452776 -2.48072672 2.54300237
v -2.30453014 3.1972003 2.54300332
v -4.09026766 3.26057577 0.489540577
v -4.0902648 -2.5441041 0.489540339
v -2.21330023 -2.48072672 2.23593736
v -3.79342794 3.26057577 0.207671642
v -2.21330261 3.1972003 2.23593736
v -3.79342508 -2.5441041 0.207671642
v -3.79342794 3.26057577 0.207671642
v -3.79342508 -2.5441041 0.207671642
v -4.0902648 -2.5441041 0.489540339
v -4.09026766 3.26057577 0.489540577
v -1.87013102 3.1972003 2.54300332
v -0.0843915641 -2.54410219 0.489540339
v -0.0843944252 3.26057768 0.489540577
v -1.87012863 -2.48072672 2.54300237
v 3.59042788 2.96725035 0.528097153
v 3.53001165 1.24200964 2.50495839
v 3.59042788 2.60655355 0.316036463
v 3.53001165 1.38755941 2.77739453
v -1.88280964 1.24200773 2.50495839
v -1.94322729 2.96724653 0.528097153
v -1.94322681 2.60655928 0.316035271
v -1.88280964 1.38755751 2.77739453
v -1.88280916 0.704547346 2.48077035
v 3.53001165 1.24200964 2.50495839
v 3.53001261 0.704549253 2.48077035
v -1.88280964 1.24200773 2.50495839
v -1.88280964 1.24200773 2.50495839
v 3.59042788 2.60655355 0.316036463
v 3.53001165 1.24200964 2.50495839
v -1.94322681 2.60655928 0.316035271
v -1.94322729 2.96724653 0.528097153
v 3.59042788 2.96725035 0.528097153
v -1.94322681 2.60655928 0.316035271
v 3.59042788 2.60655355 0.316036463
v 3.53001261 0.704549253 2.48077035
v -1.88280916 0.704547346 2.48077035
v -1.94322443 -1.77570963 0.473914146
v 3.59043074 -1.77570581 0.473914146
v -1.88280964 1.38755751 2.77739453
v 3.59042788 2.96725035 0.528097153
v -1.94322729 2.96724653 0.528097153
v 3.53001165 1.38755941 2.77739453
v -3.35132933 -2.14353037 0.366521358
v -3.35132647 -2.14353037 -1.74692655
v -0.66262579 -2.14352846 0.366521358
v -0.662623405 -2.14352846 -1.7469244
v 3.27305174 -1.7877965 -1.65013766
v 3.27305174 -1.7877965 0.360486984
v 2.89226675 -1.7877965 0.360485315
v 2.89226675 -1.7877965 -1.65013766
v 2.89226675 -1.40701151 0.360484838
v 2.89226675 -1.7877965 -1.65013766
v 2.89226675 -1.7877965 0.360485315
v 2.89226675 -1.4070096 -1.65013766
v 3.27305174 -1.40701151 0.360486746
v 3.27305174 -1.4070096 -1.65013766
v 2.89226675 -1.40701151 0.360484838
v 2.89226675 -1.4070096 -1.65013766
v 3.27305174 -1.7877965 0.360486984
v 3.27305174 -1.7877965 -1.65013766
v 3.27305174 -1.40701151 0.360486746
v 3.27305174 -1.4070096 -1.65013766
v -3.22199869 2.50504827 -1.60835838
v -3.8079381 2.50504827 -1.60835838
v -3.22199869 2.50504827 -2.05500507
v -3.8079381 2.50504827 -2.05500507
v -3.8079381 2.50504827 -1.60835838
v -3.80793858 3.09098577 -2.05500507
v -3.8079381 2.50504827 -2.05500507
v -3.80793858 3.09098577 -1.60835814
v -3.22199869 2.50504827 -1.60835838
v -3.22199917 3.09098577 -2.05500507
v -3.22199917 3.09098577 -1.60835814
v -3.22199869 2.50504827 -2.05500507
v -3.22199917 3.09098577 -1.60835814
v -3.8079381 2.50504827 -1.60835838
v -3.22199869 2.50504827 -1.60835838
v -3.80793858 3.09098577 -1.60835814
v -3.22199917 3.09098577 -1.60835814
v -3.80793858 3.09098577 -2.05500507
v -3.80793858 3.09098577 -1.60835814
v -3.22199917 3.09098577 -2.05500507
v -3.22199631 -2.46944475 -1.60835862
v -3.80793524 -2.46944666 -1.60835862
v -3.22199631 -2.46944475 -2.05500555
v -3.80793524 -2.46944666 -2.05500555
v -3.80793524 -1.88350916 -1.60835862
v -3.80793524 -2.46944666 -2.05500555
v -3.80793524 -2.46944666 -1.60835862
v -3.80793524 -1.88350916 -2.05500555
v -3.22199631 -2.46944475 -1.60835862
v -3.22199631 -2.46944475 -2.05500555
v -3.22199678 -1.88350916 -1.60835862
v -3.22199678 -1.88350916 -2.05500555
v -3.22199678 -1.88350916 -1.60835862
v -3.80793524 -1.88350916 -1.60835862
v -3.22199631 -2.46944475 -1.60835862
v -3.80793524 -2.46944666 -1.60835862
v -3.22199678 -1.88350916 -2.05500555
v -3.80793524 -1.88350916 -1.60835862
v -3.22199678 -1.88350916 -1.60835862
v -3.80793524 -1.88350916 -2.05500555
v 2.86032534 -1.43069315 -1.70724392
v 2.86032534 -1.77115679 -1.70724392
v 2.86032534 -1.43069315 -2.05498099
v 2.86032534 -1.77115679 -2.05498099
v 2.18573809 -1.50318766 -1.7072444
v 2.86032534 -1.77115679 -1.70724392
v 2.86032534 -1.43069315 -1.70724392
v 2.18573809 -1.77115679 -1.7072444
v 2.18573809 -1.77115679 -1.98093748
v 2.18573809 -1.77115679 -2.05498147
v 2.86032534 -1.77115679 -2.05498099
v 2.86032534 -1.77115679 -1.70724392
v 2.18573809 -1.77115679 -1.7072444
v 2.18573809 -1.43069315 -1.7072444
v 2.89313078 2.85362768 -1.70225358
v -0.210285634 2.85362577 -2.0549767
v -0.210285634 2.85362577 -1.70225358
v 2.89313078 2.85362768 -2.0549767
v -0.210285634 2.85362577 -1.70225358
v 2.89313078 2.51316214 -1.70225382
v 2.89313078 2.85362768 -1.70225358
v -0.210285634 2.51316214 -1.70225382
v -0.188836545 -2.46944475 -1.60835671
v -0.774774075 -2.46944475 -1.60835671
v -0.188836545 -2.46944475 -2.0550015
v -0.774774075 -2.46944475 -2.0550015
v -0.774774075 -2.46944475 -1.60835671
v -0.774774551 -1.88350725 -2.0550015
v -0.774774075 -2.46944475 -2.0550015
v -0.774774551 -1.88350725 -1.60835648
v -0.188837022 -1.88350725 -1.60835648
v -0.774774551 -1.88350725 -2.0550015
v -0.774774551 -1.88350725 -1.60835648
v -0.188837022 -1.88350725 -2.0550015
v -0.188836545 -2.46944475 -1.60835671
v -0.188837022 -1.88350725 -2.0550015
v -0.188837022 -1.88350725 -1.60835648
v -0.188836545 -2.46944475 -2.0550015
v -0.188837022 -1.88350725 -1.60835648
v -0.774774075 -2.46944475 -1.60835671
v -0.188836545 -2.46944475 -1.60835671
v -0.774774551 -1.88350725 -1.60835648
v -0.313724488 -2.0463357 0.536089182
v -0.313723534 -1.80044603 0.371019125
v -0.313723534 -1.80044603 0.536089182
v -0.313724488 -2.0463357 0.371019125
v -0.313724488 -2.0463357 0.536089182
v -0.62314558 -2.0463357 0.536089182
v -0.62314558 -2.0463357 0.371019125
v -0.313724488 -2.0463357 0.371019125
v -0.62314558 -1.80044603 0.536089182
v -0.62314558 -2.0463357 0.371019125
v -0.62314558 -2.0463357 0.536089182
v -0.62314558 -1.80044603 0.371019125
v -0.313723534 -1.80044603 0.536089182
v -0.62314558 -1.80044603 0.371019125
v -0.62314558 -1.80044603 0.536089182
v -0.313723534 -1.80044603 0.371019125
v -0.62314558 -2.0463357 0.371019125
v -0.62314558 -1.80044603 0.371019125
v -0.313724488 -2.0463357 0.371019125
v -0.313723534 -1.80044603 0.371019125
v -0.313723534 -1.80044603 0.536089182
v -0.62314558 -1.80044603 0.536089182
v -0.313724488 -2.0463357 0.536089182
v -0.62314558 -2.0463357 0.536089182
v -0.505114079 2.61828375 0.393910885
v -0.505112171 2.61828375 -1.65409207
v -0.0858606994 2.61828375 0.393910885
v -0.0858578384 2.61828375 -1.65409207
v -0.505114555 2.92866278 0.393910885
v -0.505112171 2.61828375 -1.65409207
v -0.505114079 2.61828375 0.393910885
v -0.505112171 2.92866278 -1.65409207
v -0.0858606994 2.92866278 0.393910885
v -0.505112171 2.92866278 -1.65409207
v -0.505114555 2.92866278 0.393910885
v -0.0858583152 2.92866278 -1.65409207
v -0.0858583152 2.92866278 -1.65409207
v -0.0858606994 2.92866278 0.393910885
v -0.0858606994 2.61828375 0.393910885
v -0.0858578384 2.61828375 -1.65409207
v -3.78218126 2.52226019 0.111543894
v -3.25330687 3.05113554 0.111543417
v -3.25330591 2.52226019 0.111543894
v -3.78218174 3.05113554 0.111543417
v -3.78218174 3.05113554 0.564662695
v -3.25330687 3.05113554 0.564662695
v -3.25330687 3.05113554 0.111543417
v -3.78218174 3.05113554 0.111543417
v -3.25330687 3.05113554 0.564662695
v -3.25330591 2.52226019 0.564663172
v -3.25330591 2.52226019 0.111543894
v -3.25330687 3.05113554 0.111543417
v -3.78218126 2.52226019 0.564663172
v -3.78218126 2.52226019 0.111543894
v -3.25330591 2.52226019 0.564663172
v -3.25330591 2.52226019 0.111543894
v -3.78218174 3.05113554 0.564662695
v -3.78218126 2.52226019 0.564663172
v -3.25330687 3.05113554 0.564662695
v -3.25330591 2.52226019 0.564663172
v -3.78218174 3.05113554 0.564662695
v -3.78218126 2.52226019 0.111543894
v -3.78218126 2.52226019 0.564663172
v -3.78218174 3.05113554 0.111543417
v -0.236016721 -1.92600489 -1.70724177
v -0.236015767 -1.7066865 -2.05498099
v -0.236016721 -1.7066865 -1.70724177
v -0.236016721 -1.92600489 -2.05498099
v -0.236016721 -1.92600489 -1.70724177
v -0.576480389 -1.92600489 -1.70724392
v -0.236016721 -1.92600489 -2.05498099
v -0.576480389 -1.92600489 -2.05498099
v -0.576480389 -1.7066865 -1.70724392
v -0.236016721 -1.92600489 -1.70724177
v -0.236016721 -1.7066865 -1.70724177
v -0.576480389 -1.92600489 -1.70724392
v 3.21031904 2.51545668 -1.70225382
v 3.21032095 -1.34656 -2.05497694
v 3.21031904 2.51545858 -2.0549767
v 3.21032095 -1.34656191 -1.70225406
v 3.21031904 2.51545668 -1.70225382
v 2.86985636 -1.34656191 -1.70225406
v 3.21032095 -1.34656191 -1.70225406
v 2.8698554 2.51545858 -1.70225382
v 0.250545055 -1.7983613 -2.04425478
v 0.250545055 -1.7983613 0.00542354584
v 0.250545055 -1.41757631 0.00542116165
v 0.250545055 -1.41757631 -2.04425478
v 0.499185115 -1.7983613 0.00542354584
v 0.499185115 -1.79836321 -2.04425478
v 0.499185115 -1.41757631 0.00542116165
v 0.499185115 -1.41757441 -2.04425478
v 0.499185115 -1.79836321 -2.04425478
v 0.499185115 -1.7983613 0.00542354584
v 0.250545055 -1.7983613 0.00542354584
v 0.250545055 -1.7983613 -2.04425478
v -3.71698952 -2.05631685 -1.6730051
v -3.71699142 2.57151556 -2.02572775
v -3.71698952 -2.05631685 -2.02572799
v -3.71699142 2.57151556 -1.67300463
v -3.37652636 2.57151556 -1.67300463
v -3.71698952 -2.05631685 -1.6730051
v -3.3765254 -2.05631685 -1.6730051
v -3.71699142 2.57151556 -1.67300463
v 3.30161142 2.43691969 -1.60835838
v 2.71567202 2.43691969 -1.60835838
v 3.30161142 2.43691969 -2.05500507
v 2.71567202 2.43691969 -2.05500507
v 2.71567202 2.43691969 -1.60835838
v 2.71567202 3.02285528 -2.05500507
v 2.71567202 2.43691969 -2.05500507
v 2.71567202 3.02285528 -1.60835814
v 3.30161142 2.43691969 -1.60835838
v 3.30161047 3.02285528 -2.05500507
v 3.30161047 3.02285528 -1.60835814
v 3.30161142 2.43691969 -2.05500507
v 3.30161047 3.02285528 -1.60835814
v 2.71567202 2.43691969 -1.60835838
v 3.30161142 2.43691969 -1.60835838
v 2.71567202 3.02285528 -1.60835814
v 3.30161047 3.02285528 -1.60835814
v 2.71567202 3.02285528 -2.05500507
v 2.71567202 3.02285528 -1.60835814
v 3.30161047 3.02285528 -2.05500507
v -2.44855976 3.50360632 3.03205228
v -1.73570299 -2.8144803 3.03329873
v -1.73569918 3.50360823 3.03330064
v -2.44855547 -2.81448221 3.03205132
v -2.28406954 -2.67701006 2.4663794
v -1.89941168 3.36613607 2.4663794
v -1.89941502 -2.67701006 2.4663794
v -2.28407526 3.36613607 2.4663794
v -2.44855976 3.50360632 3.03205228
v -1.73569918 3.50360823 3.03330064
v -2.28407526 3.36613607 2.4663794
v -1.89941168 3.36613607 2.4663794
v -2.28406954 -2.67701006 2.4663794
v -1.73570299 -2.8144803 3.03329873
v -2.44855547 -2.81448221 3.03205132
v -1.89941502 -2.67701006 2.4663794
v -1.73570299 -2.8144803 3.03329873
v -1.89941168 3.36613607 2.4663794
v -1.73569918 3.50360823 3.03330064
v -1.89941502 -2.67701006 2.4663794
v -2.44855976 3.50360632 3.03205228
v -2.28406954 -2.67701006 2.4663794
v -2.44855547 -2.81448221 3.03205132
v -2.28407526 3.36613607 2.4663794
v -3.27427912 -2.35333681 0.349758625
v -0.25551936 -2.3533349 0.349760771
v -3.27427912 -2.35333681 0.557347775
v -0.25551936 -2.3533349 0.557350159
v -3.27428007 -2.04391527 0.557347775
v -3.27427912 -2.35333681 0.349758625
v -3.27427912 -2.35333681 0.557347775
v -3.27428007 -2.04391527 0.349758625
v -3.27428007 -2.04391527 0.557347775
v -0.25551936 -2.04391336 0.349758625
v -3.27428007 -2.04391527 0.349758625
v -0.25551936 -2.04391336 0.557350159
v -0.25551936 -2.3533349 0.557350159
v -0.25551936 -2.3533349 0.349760771
v -0.25551936 -2.04391336 0.557350159
v -0.25551936 -2.04391336 0.349758625
v -3.27427912 -2.35333681 0.349758625
v -0.25551936 -2.04391336 0.349758625
v -0.25551936 -2.3533349 0.349760771
v -3.27428007 -2.04391527 0.349758625
v -3.27427912 -2.35333681 0.557347775
v -0.25551936 -2.04391336 0.557350159
v -3.27428007 -2.04391527 0.557347775
v -0.25551936 -2.3533349 0.557350159
v 0.470916301 -1.77115679 -1.7927165
v -0.529294491 -1.7711587 -1.70724583
v -0.529294491 -1.7711587 -2.05498314
v 0.470916301 -1.77115679 -2.05498266
v 0.470916301 -1.77115679 -1.70724535
v -0.529294968 -1.43069315 -1.70724583
v -0.529294491 -1.7711587 -2.05498314
v -0.529294491 -1.7711587 -1.70724583
v -0.529294968 -1.43069315 -2.05498314
v -0.529294968 -1.43069315 -1.70724583
v 0.470917255 -1.68747377 -1.70724535
v 0.470916301 -1.43069315 -1.70724535
v -0.529294491 -1.7711587 -1.70724583
v 0.470916301 -1.77115679 -1.70724535
v -3.60656309 -2.09400034 -1.92128515
v -3.606565 2.80764532 -1.92128682
v -3.60656309 -2.09399462 0.374335766
v -3.606565 2.80764532 0.374333858
v -3.26381826 -2.37257051 -2.05498314
v -0.729530334 -2.37256861 -2.05498099
v -3.26381826 -2.37257051 -1.70724583
v -0.729530334 -2.37256861 -1.70724392
v -3.26381826 -2.03210497 -1.70724583
v -3.26381826 -2.37257051 -2.05498314
v -3.26381826 -2.37257051 -1.70724583
v -3.26381826 -2.03210497 -2.05498314
v -0.729530334 -2.03210497 -1.70724392
v -0.729530334 -2.37256861 -1.70724392
v -0.729530334 -2.03210497 -2.05498099
v -0.729530334 -2.37256861 -2.05498099
v -3.26381826 -2.03210497 -1.70724583
v -0.729530334 -2.37256861 -1.70724392
v -0.729530334 -2.03210497 -1.70724392
v -3.26381826 -2.37257051 -1.70724583
v 2.22062922 -1.90290499 -0.029156208
v 0.204717189 -1.90290689 -0.029156208
v 0.204719096 -1.52212 -0.0291564465
v 2.22062922 -1.52212 -0.0291564465
v 0.204719096 -1.52212 0.200724125
v 2.22062922 -1.90290689 0.200724125
v 2.22062922 -1.52212 0.200724125
v 0.204717189 -1.90290689 0.200724125
v 2.22062922 -1.90290689 0.200724125
v 0.204717189 -1.90290689 0.200724125
v 0.204717189 -1.90290689 -0.029156208
v 2.22062922 -1.90290499 -0.029156208
v 2.22062922 -1.90290689 0.200724125
v 2.22062922 -1.90290499 -0.029156208
v 2.22062922 -1.52212 0.200724125
v 2.22062922 -1.52212 -0.0291564465
v 0.204719096 -1.52212 0.200724125
v 0.204717189 -1.90290689 -0.029156208
v 0.204717189 -1.90290689 0.200724125
v 0.204719096 -1.52212 -0.0291564465
v -0.433877438 -1.81485033 0.349305391
v 3.3220048 -1.81484842 0.349307537
v -0.433877438 -1.81485033 0.557382822
v 3.32200575 -1.81484842 0.557384729
v -0.433877438 -1.81485033 0.557382822
v -0.433877915 -1.38270426 0.349305391
v -0.433877438 -1.81485033 0.349305391
v -0.433877915 -1.38270426 0.55738306
v -0.433877915 -1.38270426 0.55738306
v 3.32200575 -1.38270235 0.557384968
v 3.3220048 -1.38270235 0.349307299
v -0.433877915 -1.38270426 0.349305391
v 3.32200575 -1.81484842 0.557384729
v 3.3220048 -1.38270235 0.349307299
v 3.32200575 -1.38270235 0.557384968
v 3.3220048 -1.81484842 0.349307537
v -0.433877438 -1.81485033 0.349305391
v 3.3220048 -1.38270235 0.349307299
v 3.3220048 -1.81484842 0.349307537
v -0.433877915 -1.38270426 0.349305391
v -0.433877438 -1.81485033 0.557382822
v 3.32200575 -1.38270235 0.557384968
v -0.433877915 -1.38270426 0.55738306
v 3.32200575 -1.81484842 0.557384729
v 2.79901266 2.55015326 0.3939116
v 2.79901457 2.55015326 -1.65409207
v 3.21826601 2.55015326 0.3939116
v 3.21826887 2.55015326 -1.65409207
v 2.79901266 2.86053228 0.393910885
v 2.79901457 2.55015326 -1.65409207
v 2.79901266 2.55015326 0.3939116
v 2.79901457 2.86053228 -1.65409207
v 3.21826601 2.86053228 0.393910885
v 2.79901457 2.86053228 -1.65409207
v 2.79901266 2.86053228 0.393910885
v 3.21826887 2.86053228 -1.65409207
v 3.21826601 2.86053228 0.393910885
v 3.21826887 2.55015326 -1.65409207
v 3.21826887 2.86053228 -1.65409207
v 3.21826601 2.55015326 0.3939116
v -0.345170945 2.99224806 -1.70225382
v -3.44858742 2.99224615 -2.05497646
v -3.44858742 2.99224615 -1.70225382
v -0.345170945 2.99224806 -2.05497646
v -3.44858742 2.99224615 -1.70225382
v -0.345170468 2.65178251 -1.70225358
v -0.345170945 2.99224806 -1.70225382
v -3.44858789 2.65178251 -1.70225358
v -0.0025157663 2.50505018 -1.60835838
v -0.588454247 2.50505018 -1.60835838
v -0.0025157663 2.50505018 -2.05500507
v -0.588454247 2.50505018 -2.05500507
v -0.588454723 3.09098577 -1.60835814
v -0.588454247 2.50505018 -2.05500507
v -0.588454247 2.50505018 -1.60835838
v -0.588454723 3.09098768 -2.05500507
v -0.0025157663 2.50505018 -1.60835838
v -0.0025157663 2.50505018 -2.05500507
v -0.0025157663 3.09098577 -1.60835814
v -0.0025157663 3.09098768 -2.05500507
v -0.0025157663 3.09098577 -1.60835814
v -0.588454247 2.50505018 -1.60835838
v -0.0025157663 2.50505018 -1.60835838
v -0.588454723 3.09098577 -1.60835814
v -0.0025157663 3.09098577 -1.60835814
v -0.588454723 3.09098768 -2.05500507
v -0.588454723 3.09098577 -1.60835814
v -0.0025157663 3.09098768 -2.05500507
v 3.27030325 2.4541316 0.111543894
v 2.7414279 2.98300505 0.111543417
v 3.27030325 2.98300505 0.111543417
v 2.7414279 2.4541297 0.111543894
v 2.7414279 2.98300505 0.564662695
v 3.27030325 2.98300505 0.564662695
v 3.27030325 2.98300505 0.111543417
v 2.7414279 2.98300505 0.111543417
v 3.27030325 2.98300505 0.564662695
v 3.27030325 2.4541316 0.564663172
v 3.27030325 2.4541316 0.111543894
v 3.27030325 2.98300505 0.111543417
v 2.7414279 2.4541297 0.564663172
v 2.7414279 2.4541297 0.111543894
v 3.27030325 2.4541316 0.564663172
v 3.27030325 2.4541316 0.111543894
v 2.7414279 2.98300505 0.564662695
v 3.27030325 2.4541316 0.564663172
v 3.27030325 2.98300505 0.564662695
v 2.7414279 2.4541297 0.564663172
v 2.7414279 2.98300505 0.564662695
v 2.7414279 2.4541297 0.111543894
v 2.7414279 2.4541297 0.564663172
v 2.7414279 2.98300505 0.111543417
v -2.26849222 -2.11397982 2.57974267
v -3.58240747 -2.11397982 0.368886232
v -1.85611296 -2.11398172 2.57974267
v -0.530283928 -2.11397791 0.368886232
v -0.523469448 -1.5873704 -1.74692845
v -0.523471355 -1.58736849 0.378331661
v -0.523471355 -2.07399607 0.378330946
v -0.523470402 -2.07399607 -1.74692845
v -0.562698364 2.5222621 0.111543894
v -0.0338234641 3.05113745 0.111543417
v -0.0338229872 2.5222621 0.111543894
v -0.562698841 3.05113745 0.111543417
v -0.562698841 3.05113745 0.564662695
v -0.0338234641 3.05113745 0.564662695
v -0.0338234641 3.05113745 0.111543417
v -0.562698841 3.05113745 0.111543417
v -0.0338234641 3.05113745 0.564662695
v -0.0338229872 2.5222621 0.564663172
v -0.0338229872 2.5222621 0.111543894
v -0.0338234641 3.05113745 0.111543417
v -0.562698364 2.5222621 0.564663172
v -0.562698364 2.5222621 0.111543894
v -0.0338229872 2.5222621 0.564663172
v -0.0338229872 2.5222621 0.111543894
v -0.562698841 3.05113745 0.564662695
v -0.562698364 2.5222621 0.564663172
v -0.0338234641 3.05113745 0.564662695
v -0.0338229872 2.5222621 0.564663172
v -0.562698841 3.05113745 0.564662695
v -0.562698364 2.5222621 0.111543894
v -0.562698364 2.5222621 0.564663172
v -0.562698841 3.05113745 0.111543417
v -3.253304 -2.45223284 0.11154294
v -3.78217936 -1.92335939 0.111543179
v -3.253304 -1.92335939 0.111543179
v -3.78217936 -2.45223475 0.11154294
v -3.78217936 -1.92335939 0.564662218
v -3.253304 -1.92335939 0.564662218
v -3.253304 -1.92335939 0.111543179
v -3.78217936 -1.92335939 0.111543179
v -3.253304 -2.45223284 0.564662218
v -3.253304 -1.92335939 0.111543179
v -3.253304 -1.92335939 0.564662218
v -3.253304 -2.45223284 0.11154294
v -3.78217936 -2.45223475 0.564662218
v -3.78217936 -2.45223475 0.11154294
v -3.253304 -2.45223284 0.564662218
v -3.253304 -2.45223284 0.11154294
v -3.78217936 -1.92335939 0.564662218
v -3.253304 -2.45223284 0.564662218
v -3.253304 -1.92335939 0.564662218
v -3.78217936 -2.45223475 0.564662218
v -3.78217936 -1.92335939 0.564662218
v -3.78217936 -1.92335939 0.111543179
v -3.78217936 -2.45223475 0.564662218
v -3.78217936 -2.45223475 0.11154294
v -0.67220068 -2.32752085 0.354717731
v -0.67220068 -2.32752085 -1.65354967
v -0.291413754 -2.32751894 0.354717731
v -0.291412801 -2.32751894 -1.65354967
v -0.67220068 -2.0529542 0.354717731
v -0.67220068 -2.32752085 -1.65354967
v -0.67220068 -2.32752085 0.354717731
v -0.67220068 -2.0529542 -1.65354967
v -0.291413754 -2.05295229 0.354717731
v -0.67220068 -2.0529542 -1.65354967
v -0.67220068 -2.0529542 0.354717731
v -0.291412801 -2.05295229 -1.65354967
v -0.291412801 -2.05295229 -1.65354967
v -0.291413754 -2.05295229 0.354717731
v -0.291413754 -2.32751894 0.354717731
v -0.291412801 -2.32751894 -1.65354967
v -3.72459507 -2.35621119 0.393910646
v -3.72459316 -2.35621119 -1.65409255
v -3.30534077 -2.35621119 0.393910646
v -3.30533886 -2.35621119 -1.65409255
v -3.72459507 -2.35621119 0.393910646
v -3.72459316 -2.04583216 -1.65409231
v -3.72459316 -2.35621119 -1.65409255
v -3.72459507 -2.04583216 0.393910646
v -3.30534124 -2.04583216 0.393910646
v -3.72459316 -2.04583216 -1.65409231
v -3.72459507 -2.04583216 0.393910646
v -3.30533934 -2.04583216 -1.65409231
v -3.30533934 -2.04583216 -1.65409231
v -3.30534124 -2.04583216 0.393910646
v -3.30534077 -2.35621119 0.393910646
v -3.30533886 -2.35621119 -1.65409255
v -0.533422947 -1.59740496 -0.018014431
v 0.3600097 -1.59740305 -1.92128658
v 0.3600097 -1.59740305 -0.018014431
v -0.533422947 -1.59740496 -1.92128706
v 2.93826342 -1.59740305 0.374336243
v 1.95499849 -1.59740305 -0.018014431
v 2.93826437 -1.59740305 -0.018014431
v 1.95499849 -1.59740305 0.374335766
v 1.32860518 -1.59740305 0.374335051
v 1.32860518 -1.59740305 -0.018014431
v 0.3600097 -1.59740305 0.374334812
v -0.533422947 -1.59740305 0.374334097
v 2.93826437 -1.59740305 -1.92128515
v 1.95499849 -1.59740305 -0.320152879
v 1.95499849 -1.59740305 -1.92128563
v 1.94326162 -1.7983613 -2.04425478
v 1.94326162 -1.7983613 0.00542354584
v 1.94326162 -1.41757441 0.00542116165
v 1.94326162 -1.41757441 -2.04425478
v 2.19190168 -1.7983613 0.00542354584
v 2.19190168 -1.7983613 -2.04425478
v 2.19190168 -1.41757441 0.00542116165
v 2.19190168 -1.41757441 -2.04425478
v 2.19190168 -1.7983613 -2.04425478
v 2.19190168 -1.7983613 0.00542354584
v 1.94326162 -1.7983613 0.00542354584
v 1.94326162 -1.7983613 -2.04425478
v -3.5287261 2.75874662 0.458203793
v -0.451405019 2.75874662 0.458203793
v -3.52872801 2.75874662 -1.75167155
v -0.451405019 2.75874853 -1.75167465
v -1.77588844 2.75874662 2.36749768
v -2.34894991 2.75874662 2.3675015
v -3.72459841 2.61828184 0.393910885
v -3.72459555 2.61828184 -1.65409207
v -3.3053441 2.61828184 0.393910885
v -3.30534124 2.61828184 -1.65409207
v -3.72459841 2.92866087 0.393910885
v -3.72459555 2.61828184 -1.65409207
v -3.72459841 2.61828184 0.393910885
v -3.72459555 2.92866087 -1.65409207
v -3.3053441 2.92866087 0.393910885
v -3.72459555 2.92866087 -1.65409207
v -3.72459841 2.92866087 0.393910885
v -3.30534124 2.92866087 -1.65409207
v -3.30534124 2.92866087 -1.65409207
v -3.3053441 2.92866087 0.393910885
v -3.3053441 2.61828184 0.393910885
v -3.30534124 2.61828184 -1.65409207
v 3.08266115 2.60302496 -1.76280022
v 3.0826602 2.60302496 0.526618719
v 3.0826602 2.27768278 0.419908285
v 3.08266211 1.1761508 -1.76280046
v 3.08265924 1.34756613 2.50482106
v 3.08266115 -0.195158541 0.419907331
v 3.08265924 0.734689176 2.50482106
v 3.08266211 -1.63705111 0.526624441
v 3.08266401 -1.63705111 -1.76280069
v 3.08266306 -0.195158541 -1.76280046
v 2.78969145 -1.8903718 -2.05499935
v 3.37562895 -1.8903718 -1.61085153
v 2.78969145 -1.8903718 -1.61085153
v 3.37562895 -1.8903718 -2.05499935
v 2.78969145 -1.30443621 -1.61085153
v 2.78969145 -1.8903718 -2.05499935
v 2.78969145 -1.8903718 -1.61085153
v 2.78969145 -1.30443621 -2.05499935
v 3.37562895 -1.30443621 -1.61085153
v 2.78969145 -1.30443621 -2.05499935
v 2.78969145 -1.30443621 -1.61085153
v 3.37562895 -1.3044343 -2.05499935
v 3.37562895 -1.30443621 -1.61085153
v 3.37562895 -1.8903718 -2.05499935
v 3.37562895 -1.3044343 -2.05499935
v 3.37562895 -1.8903718 -1.61085153
v 3.37562895 -1.30443621 -1.61085153
v 2.78969145 -1.30443621 -1.61085153
v 3.37562895 -1.8903718 -1.61085153
v 2.78969145 -1.8903718 -1.61085153
v 3.10139704 2.73819304 0.60475421
v -0.595210552 2.73819113 0.604756117
v 3.10139704 2.73819494 -1.92128658
v -0.595214367 2.73819304 -1.92128468
v 3.96199179 1.51197386 3.19403386
v 3.96199274 0.570279539 3.19403386
v 3.78788805 1.38678312 2.17107034
v 3.78788805 0.695470273 2.17107034
v 3.96199274 0.570279539 3.19403386
v 2.45499277 0.631026685 2.99700761
v 3.12746382 0.740065992 2.15484548
v 3.78788805 0.695470273 2.17107034
v -1.7572155 0.631024778 2.9970057
v -1.7572155 0.740064085 2.15484452
v 2.45499277 1.45122671 2.99700761
v 3.96199179 1.51197386 3.19403386
v 3.12746382 1.3421874 2.15484548
v 3.78788805 1.38678312 2.17107034
v -1.75721598 1.3421855 2.15484452
v -1.75721598 1.4512248 2.9970057
v 3.78788805 0.695470273 2.17107034
v 3.12746382 0.740065992 2.15484548
v 3.12746382 1.3421874 2.15484548
v 3.78788805 1.38678312 2.17107034
v -1.7572155 0.740064085 2.15484452
v -1.75721598 1.3421855 2.15484452
v 3.96199179 1.51197386 3.19403386
v 2.45499277 1.45122671 2.99700761
v 2.45499277 0.631026685 2.99700761
v 3.96199274 0.570279539 3.19403386
v -1.75721598 1.4512248 2.9970057
v -1.7572155 0.631024778 2.9970057
v -0.317649335 -1.58079195 -1.98344445
v -3.58457422 -1.58079386 -1.98344445
v -3.58457613 2.72394133 -1.98344421
v -0.317651242 2.72394323 -1.98344421
v 3.09318972 2.72394323 -1.98344421
v -0.317649335 -1.58079195 -1.98344445
v 3.09319258 -1.58079004 -1.98344445
v -0.317651242 2.72394323 -1.98344421
v -3.58457279 -2.26578188 -1.98344469
v -0.317648858 -2.26577997 -1.98344469
v 2.63811445 -0.444098055 2.2127564
v 0.794738293 -1.49697733 0.708960533
v 2.43221807 -1.38062525 1.04766488
v 3.38955927 0.941224515 3.66588807
v 1.24134398 0.528560102 3.6509583
v -0.621465206 -0.246605456 2.59659314
v -1.01967907 0.767587125 3.70842195
v -0.786469936 0.842023313 4.20215893
v -0.695888042 0.919944227 3.46464467
v -0.983046055 0.772185743 4.15505886
v -0.784541607 0.888450086 3.44340444
v -1.06555367 0.586713254 4.08771801
v -0.784541607 0.888450086 3.44340444
v -0.82173872 0.804810941 3.41303658
v -0.983046055 0.772185743 4.15505886
v -0.785708427 0.718026578 3.39133286
v -0.98564291 0.394257963 4.03958702
v -1.06555367 0.586713254 4.08771801
v -0.82173872 0.804810941 3.41303658
v -0.98564291 0.394257963 4.03958702
v -0.785708427 0.718026578 3.39133286
v -0.790137291 0.307555616 4.03885937
v -0.697537422 0.678927839 3.39100385
v -0.790137291 0.307555616 4.03885937
v -0.608896732 0.710423887 3.41224504
v -0.593554497 0.377398908 4.0859623
v -0.697537422 0.678927839 3.39100385
v -0.608896732 0.710423887 3.41224504
v -0.511059761 0.562871397 4.15330315
v -0.593554497 0.377398908 4.0859623
v -0.571686745 0.794061124 3.44261193
v -0.511059761 0.562871397 4.15330315
v -0.607723713 0.880847394 3.46431661
v -0.590964794 0.755326688 4.20143414
v -0.571686745 0.794061124 3.44261193
v -0.590964794 0.755326688 4.20143414
v -0.695888042 0.919944227 3.46464467
v -0.786469936 0.842023313 4.20215893
v -0.607723713 0.880847394 3.46431661
v -0.98564291 0.394257963 4.03958702
v -0.790137291 0.307555616 4.03885937
v -0.593554497 0.377398908 4.0859623
v -0.590964794 0.755326688 4.20143414
v -0.983046055 0.772185743 4.15505886
v -1.06555367 0.586713254 4.08771801
v -0.511059761 0.562871397 4.15330315
v -0.511059761 0.562871397 4.15330315
v -1.06555367 0.586713254 4.08771801
v -0.98564291 0.394257963 4.03958702
v -0.593554497 0.377398908 4.0859623
v -0.983046055 0.772185743 4.15505886
v -0.590964794 0.755326688 4.20143414
v -0.786469936 0.842023313 4.20215893
v 2.96284056 0.860080183 3.23991895
v 3.03083181 0.830432355 3.88667512
v 3.18544149 0.94652313 3.85401845
v 3.02165174 0.904242933 3.22749543
v 2.9496417 0.786908567 3.23398614
v 2.9961257 0.638074338 3.87107778
v 3.03083181 0.830432355 3.88667512
v 2.96284056 0.860080183 3.23991895
v 3.10166121 0.482135236 3.81636262
v 2.9496417 0.786908567 3.23398614
v 2.98979235 0.72758621 3.21317124
v 2.9961257 0.638074338 3.87107778
v 3.28560495 0.453956068 3.75458264
v 2.98979235 0.72758621 3.21317124
v 3.05975962 0.71686691 3.18966985
v 3.10166121 0.482135236 3.81636262
v 3.28560495 0.453956068 3.75458264
v 3.11857748 0.761029661 3.17724633
v 3.44022036 0.570048749 3.72192502
v 3.05975962 0.71686691 3.18966985
v 3.11857748 0.761029661 3.17724633
v 3.4749217 0.762401044 3.73752046
v 3.44022036 0.570048749 3.72192502
v 3.13178205 0.834201276 3.18317819
v 3.4749217 0.762401044 3.73752046
v 3.09163141 0.893529356 3.20399594
v 3.36939192 0.918345869 3.79223752
v 3.13178205 0.834201276 3.18317819
v 3.09163141 0.893529356 3.20399594
v 3.18544149 0.94652313 3.85401845
v 3.36939192 0.918345869 3.79223752
v 3.02165174 0.904242933 3.22749543
v 3.10166121 0.482135236 3.81636262
v 3.28560495 0.453956068 3.75458264
v 3.44022036 0.570048749 3.72192502
v 3.03083181 0.830432355 3.88667512
v 3.4749217 0.762401044 3.73752046
v 3.36939192 0.918345869 3.79223752
v 2.9961257 0.638074338 3.87107778
v 2.9961257 0.638074338 3.87107778
v 3.44022036 0.570048749 3.72192502
v 3.4749217 0.762401044 3.73752046
v 3.10166121 0.482135236 3.81636262
v 3.03083181 0.830432355 3.88667512
v 3.36939192 0.918345869 3.79223752
v 3.18544149 0.94652313 3.85401845
v 0.841992855 -1.39448404 1.45085049
v 0.936863422 -1.0410676 0.938232899
v 0.668847561 -1.40939569 1.389431
v 0.864430904 -1.04730654 0.912541628
v 0.668847561 -1.40939569 1.389431
v 0.864430904 -1.04730654 0.912541628
v 0.584926128 -1.50908327 1.25907469
v 0.829329014 -1.08900499 0.858011723
v 0.852118015 -1.14174509 0.806585312
v 0.584926128 -1.50908327 1.25907469
v 0.829329014 -1.08900499 0.858011723
v 0.639382839 -1.63515902 1.13613939
v 0.639382839 -1.63515902 1.13613939
v 0.919443607 -1.17462015 0.788391113
v 0.800328732 -1.71376085 1.09264088
v 0.852118015 -1.14174509 0.806585312
v 0.800328732 -1.71376085 1.09264088
v 0.919443607 -1.17462015 0.788391113
v 0.973479748 -1.6988492 1.15405917
v 0.99186945 -1.16838884 0.814081669
v 1.02697134 -1.12668276 0.868613243
v 1.0573945 -1.59916162 1.28441715
v 0.99186945 -1.16838884 0.814081669
v 0.973479748 -1.6988492 1.15405917
v 1.00418901 -1.07394838 0.92003727
v 1.0573945 -1.59916162 1.28441715
v 1.02697134 -1.12668276 0.868613243
v 1.00292635 -1.4730916 1.40735149
v 1.00292635 -1.4730916 1.40735149
v 0.936863422 -1.0410676 0.938232899
v 0.841992855 -1.39448404 1.45085049
v 1.00418901 -1.07394838 0.92003727
v 0.639382839 -1.63515902 1.13613939
v 0.800328732 -1.71376085 1.09264088
v 0.973479748 -1.6988492 1.15405917
v 0.668847561 -1.40939569 1.389431
v 1.0573945 -1.59916162 1.28441715
v 1.00292635 -1.4730916 1.40735149
v 0.584926128 -1.50908327 1.25907469
v 0.584926128 -1.50908327 1.25907469
v 0.973479748 -1.6988492 1.15405917
v 1.0573945 -1.59916162 1.28441715
v 0.639382839 -1.63515902 1.13613939
v 0.668847561 -1.40939569 1.389431
v 1.00292635 -1.4730916 1.40735149
v 0.841992855 -1.39448404 1.45085049
vt 0.0078125 0.221843481
vt 0.0078125 0.410601735
vt 0.0078125 0.221843481
vt 0.0078125 0.415340424
vt 0.287395895 0.221843481
vt 0.287395895 0.410601735
vt 0.287395895 0.415340424
vt 0.287395895 0.221843481
vt 0.287395895 0.221843481
vt 0.287395895 0.410601735
vt 0.287395895 0.221843481
vt 0.287395895 0.415340424
vt 0.0078125 0.410601735
vt 0.0078125 0.221843481
vt 0.0078125 0.221843481
vt 0.0078125 0.415340424
vt 0.287395895 0.410601735
vt 0.0078125 0.410601735
vt 0.0078125 0.410601735
vt 0.287395895 0.410601735
vt 0.287395895 0.415340424
vt 0.0078125 0.415340424
vt 0.287395895 0.415340424
vt 0.0078125 0.415340424
vt 0.287395895 0.410601735
vt 0.0078125 0.221843481
vt 0.0078125 0.410601735
vt 0.287395895 0.221843481
vt 0.0078125 0.221843481
vt 0.287395895 0.221843481
vt 0.0078125 0.221843481
vt 0.287395895 0.221843481
vt 0.0078125 0.415340424
vt 0.287395895 0.415340424
vt 0.287395895 0.221843481
vt 0.0078125 0.221843481
vt 0.0078125 0.410601735
vt 0.287395895 0.221843481
vt 0.287395895 0.410601735
vt 0.0078125 0.221843481
vt 0.287395895 0.221843481
vt 0.0078125 0.221843481
vt 0.0078125 0.221843481
vt 0.287395895 0.221843481
vt 0.287395895 0.415340424
vt 0.0078125 0.221843481
vt 0.287395895 0.221843481
vt 0.0078125 0.415340424
vt 0.0078125 0.00781440735
vt 0.0078125 0.206344068
vt 0.0078125 0.00781440735
vt 0.0078125 0.211328089
vt 0.301869035 0.206344068
vt 0.301869035 0.00781440735
vt 0.301869035 0.00781440735
vt 0.301869035 0.211328089
vt 0.301869035 0.206344068
vt 0.0078125 0.206344068
vt 0.0078125 0.206344068
vt 0.301869035 0.206344068
vt 0.301869035 0.206344068
vt 0.0078125 0.00781440735
vt 0.0078125 0.206344068
vt 0.301869035 0.00781440735
vt 0.301869035 0.00781440735
vt 0.0078125 0.00781440735
vt 0.301869035 0.00781440735
vt 0.0078125 0.00781440735
vt 0.0078125 0.206344068
vt 0.301869035 0.206344068
vt 0.301869035 0.00781440735
vt 0.0078125 0.00781440735
vt 0.301869035 0.211328089
vt 0.0078125 0.00781440735
vt 0.301869035 0.00781440735
vt 0.0078125 0.211328089
vt 0.846612036 0.367542982
vt 0.738630533 0.367542982
vt 0.846612036 0.213876963
vt 0.738630533 0.213876963
vt 0.474819928 0.611239254
vt 0.474819928 0.502606809
vt 0.49541232 0.502606809
vt 0.49541232 0.611239254
vt 0.516004741 0.502606809
vt 0.49541232 0.611239254
vt 0.49541232 0.502606809
vt 0.516004741 0.611239254
vt 0.454227537 0.502606809
vt 0.454227537 0.611239254
vt 0.433684856 0.502606809
vt 0.433684856 0.611239254
vt 0.474819928 0.502606809
vt 0.474819928 0.611239254
vt 0.454227537 0.502606809
vt 0.454227537 0.611239254
vt 0.191948056 0.835908175
vt 0.191948056 0.804245472
vt 0.216083765 0.835908175
vt 0.216083765 0.804245472
vt 0.191948056 0.930896342
vt 0.216083765 0.899233699
vt 0.216083765 0.930896342
vt 0.191948056 0.899233699
vt 0.191948056 0.835908175
vt 0.216083765 0.867570877
vt 0.191948056 0.867570877
vt 0.216083765 0.835908175
vt 0.160285354 0.899233699
vt 0.191948056 0.930896342
vt 0.160285354 0.930896342
vt 0.191948056 0.899233699
vt 0.191948056 0.867570877
vt 0.216083765 0.899233699
vt 0.191948056 0.899233699
vt 0.216083765 0.867570877
vt 0.495050579 0.890610099
vt 0.495050579 0.922104776
vt 0.470488667 0.890610099
vt 0.470488667 0.922104776
vt 0.495050579 0.953649044
vt 0.470488667 0.922104776
vt 0.495050579 0.922104776
vt 0.470488667 0.953649044
vt 0.495050579 0.890610099
vt 0.470488667 0.890610099
vt 0.495050579 0.859115303
vt 0.470488667 0.859115303
vt 0.525951087 0.890610099
vt 0.525951087 0.922104776
vt 0.495050579 0.890610099
vt 0.495050579 0.922104776
vt 0.90998143 0.56335175
vt 0.885845661 0.531689048
vt 0.885845661 0.56335175
vt 0.90998143 0.531689048
vt 0.987839162 0.722326458
vt 0.968802333 0.722326458
vt 0.987839162 0.702461958
vt 0.968802333 0.702461958
vt 0.98378557 0.756340861
vt 0.968802333 0.722326458
vt 0.987839162 0.722326458
vt 0.968802333 0.756340861
vt 0.953167617 0.756340861
vt 0.948937833 0.756340861
vt 0.948937833 0.722326458
vt 0.968802333 0.722326458
vt 0.968802333 0.756340861
vt 0.987839162 0.756340861
vt 0.0400056839 0.93047595
vt 0.0078125 0.830836236
vt 0.0400056839 0.830836236
vt 0.0078125 0.93047595
vt 0.0400056839 0.830836236
vt 0.0708575249 0.93047595
vt 0.0400056839 0.93047595
vt 0.0708575249 0.830836236
vt 0.352491438 0.863147438
vt 0.352491438 0.894894838
vt 0.328531206 0.863147438
vt 0.328531206 0.894894838
vt 0.352491438 0.894894838
vt 0.328531206 0.926741958
vt 0.328531206 0.894894838
vt 0.352491438 0.926741958
vt 0.352491438 0.831400096
vt 0.328531206 0.799652696
vt 0.352491438 0.799652696
vt 0.328531206 0.831400096
vt 0.352491438 0.863147438
vt 0.328531206 0.831400096
vt 0.352491438 0.831400096
vt 0.328531206 0.863147438
vt 0.352491438 0.831400096
vt 0.384438515 0.863147438
vt 0.352491438 0.863147438
vt 0.384438515 0.831400096
vt 0.286998659 0.747843146
vt 0.265439004 0.75347811
vt 0.265439004 0.747843146
vt 0.286998659 0.75347811
vt 0.705407858 0.128246188
vt 0.705407858 0.145120144
vt 0.696569026 0.145120144
vt 0.696569026 0.128246188
vt 0.265439004 0.737553358
vt 0.286998659 0.732163429
vt 0.286998659 0.737553358
vt 0.265439004 0.732163429
vt 0.815819204 0.128685057
vt 0.806980431 0.111810982
vt 0.815819204 0.111810982
vt 0.806980431 0.128685057
vt 0.286998659 0.763767838
vt 0.265439004 0.763767838
vt 0.286998659 0.75347811
vt 0.265439004 0.75347811
vt 0.265439004 0.747843146
vt 0.265439004 0.737553358
vt 0.286998659 0.747843146
vt 0.286998659 0.737553358
vt 0.31800583 0.775666237
vt 0.31800583 0.886335552
vt 0.295350343 0.775666237
vt 0.295350343 0.886335552
vt 0.255922705 0.775666237
vt 0.239150584 0.886335552
vt 0.239150584 0.775666237
vt 0.255922705 0.886335552
vt 0.278578222 0.775666237
vt 0.255922705 0.886335552
vt 0.255922705 0.775666237
vt 0.278578222 0.886335552
vt 0.278578222 0.886335552
vt 0.278578222 0.775666237
vt 0.295350343 0.775666237
vt 0.295350343 0.886335552
vt 0.252444535 0.765150905
vt 0.2238653 0.73657167
vt 0.252444535 0.73657167
vt 0.2238653 0.765150905
vt 0.199379832 0.765150905
vt 0.199379832 0.73657167
vt 0.2238653 0.73657167
vt 0.2238653 0.765150905
vt 0.199379832 0.73657167
vt 0.199379832 0.707992554
vt 0.2238653 0.707992554
vt 0.2238653 0.73657167
vt 0.199379832 0.679413378
vt 0.2238653 0.679413378
vt 0.199379832 0.707992554
vt 0.2238653 0.707992554
vt 0.170800686 0.73657167
vt 0.170800686 0.707992554
vt 0.199379832 0.73657167
vt 0.199379832 0.707992554
vt 0.199379832 0.765150905
vt 0.2238653 0.79373008
vt 0.199379832 0.79373008
vt 0.2238653 0.765150905
vt 0.793798327 0.10129559
vt 0.780691981 0.0774881244
vt 0.793798327 0.0774881244
vt 0.780691981 0.10129559
vt 0.793798327 0.10129559
vt 0.793798327 0.114192784
vt 0.780691981 0.10129559
vt 0.780691981 0.114192784
vt 0.806625783 0.0774881244
vt 0.793798327 0.10129559
vt 0.793798327 0.0774881244
vt 0.806625783 0.10129559
vt 0.7535128 0.78469342
vt 0.717599809 0.895846009
vt 0.717599809 0.78469342
vt 0.7535128 0.895846009
vt 0.7535128 0.78469342
vt 0.787929416 0.895846009
vt 0.7535128 0.895846009
vt 0.787929416 0.78469342
vt 0.963219881 0.56940335
vt 0.963219881 0.468757629
vt 0.982724786 0.468757629
vt 0.982724786 0.56940335
vt 0.942934632 0.468757629
vt 0.942934632 0.56940335
vt 0.922649443 0.468757629
vt 0.922649443 0.56940335
vt 0.942934632 0.56940335
vt 0.942934632 0.468757629
vt 0.963219881 0.468757629
vt 0.963219881 0.56940335
vt 0.70433569 0.652503073
vt 0.665022969 0.774178028
vt 0.665022969 0.652503073
vt 0.70433569 0.774178028
vt 0.742010415 0.774178028
vt 0.70433569 0.652503073
vt 0.742010415 0.652503073
vt 0.70433569 0.774178028
vt 0.917508423 0.289010644
vt 0.917508423 0.257347941
vt 0.941644132 0.289010644
vt 0.941644132 0.257347941
vt 0.917508423 0.383998692
vt 0.941644132 0.352336049
vt 0.941644132 0.383998692
vt 0.917508423 0.352336049
vt 0.917508423 0.289010644
vt 0.941644132 0.320673347
vt 0.917508423 0.320673347
vt 0.941644132 0.289010644
vt 0.885845661 0.352336049
vt 0.917508423 0.383998692
vt 0.885845661 0.383998692
vt 0.917508423 0.352336049
vt 0.917508423 0.320673347
vt 0.941644132 0.352336049
vt 0.917508423 0.352336049
vt 0.941644132 0.320673347
vt 0.560183764 0.76319474
vt 0.602227509 0.399031579
vt 0.602227509 0.76319474
vt 0.560183764 0.399031579
vt 0.652033091 0.399031579
vt 0.624219656 0.76319474
vt 0.624219656 0.399031579
vt 0.652033091 0.76319474
vt 0.502034783 0.235087216
vt 0.502034783 0.196213186
vt 0.526055992 0.235087216
vt 0.526055992 0.196213186
vt 0.954195499 0.455451488
vt 0.978308082 0.416725278
vt 0.978308082 0.455451488
vt 0.954195499 0.416725278
vt 0.602227509 0.399031579
vt 0.624219656 0.76319474
vt 0.602227509 0.76319474
vt 0.624219656 0.399031579
vt 0.560183764 0.76319474
vt 0.538838565 0.399031579
vt 0.560183764 0.399031579
vt 0.538838565 0.76319474
vt 0.828214884 0.801790833
vt 0.828214884 0.630041301
vt 0.838865995 0.801790833
vt 0.838865995 0.630041301
vt 0.854842603 0.801790833
vt 0.838865995 0.812632143
vt 0.838865995 0.801790833
vt 0.854842603 0.812632143
vt 0.854842603 0.801790833
vt 0.865493774 0.630041301
vt 0.865493774 0.801790833
vt 0.854842603 0.630041301
vt 0.838865995 0.630041301
vt 0.828214884 0.630041301
vt 0.838865995 0.614064574
vt 0.828214884 0.614064574
vt 0.828214884 0.801790833
vt 0.812238097 0.630041301
vt 0.828214884 0.630041301
vt 0.812238097 0.801790833
vt 0.838865995 0.801790833
vt 0.854842603 0.630041301
vt 0.854842603 0.801790833
vt 0.838865995 0.630041301
vt 0.87621516 0.269795299
vt 0.881643772 0.313451171
vt 0.859557211 0.313451171
vt 0.859557211 0.269795358
vt 0.881643772 0.269795299
vt 0.881643772 0.334617436
vt 0.859557211 0.313451171
vt 0.881643772 0.313451171
vt 0.859557211 0.334617436
vt 0.902810097 0.313451171
vt 0.886846423 0.269795358
vt 0.902810097 0.269795299
vt 0.881643772 0.313451171
vt 0.881643772 0.269795299
vt 0.665022969 0.399031579
vt 0.665022969 0.641987681
vt 0.800263464 0.399031579
vt 0.800263464 0.641987681
vt 0.901618719 0.896748543
vt 0.901618719 0.751230776
vt 0.919714153 0.896748543
vt 0.919714153 0.751230776
vt 0.919714153 0.914090037
vt 0.901618719 0.896748543
vt 0.919714153 0.896748543
vt 0.901618719 0.914090037
vt 0.937055707 0.751230776
vt 0.919714153 0.751230776
vt 0.937055707 0.733135283
vt 0.919714153 0.733135283
vt 0.937055707 0.896748543
vt 0.919714153 0.751230776
vt 0.937055707 0.751230776
vt 0.919714153 0.896748543
vt 0.973024309 0.186318815
vt 0.973024309 0.087436676
vt 0.9921875 0.087436676
vt 0.9921875 0.186318815
vt 0.933164835 0.087436676
vt 0.953094482 0.186318815
vt 0.933164835 0.186318815
vt 0.953094482 0.087436676
vt 0.953094482 0.186318815
vt 0.953094482 0.087436676
vt 0.973024309 0.087436676
vt 0.973024309 0.186318815
vt 0.670280635 0.13451165
vt 0.682702839 0.13451153
vt 0.670280635 0.113934755
vt 0.682702839 0.113934815
vt 0.859557271 0.345132828
vt 0.871979475 0.365709603
vt 0.859557271 0.365709543
vt 0.871979475 0.345132828
vt 0.853757083 0.378058314
vt 0.853757083 0.603549182
vt 0.843735218 0.378058314
vt 0.843735218 0.603549182
vt 0.723600805 0.0434406996
vt 0.712342083 0.0667623281
vt 0.712342083 0.0434406996
vt 0.723600805 0.0667623281
vt 0.822975814 0.378058314
vt 0.822975814 0.603549182
vt 0.812238097 0.603549182
vt 0.812238097 0.378058314
vt 0.560612619 0.0855338573
vt 0.549353898 0.0622122288
vt 0.560612619 0.0622122288
vt 0.549353898 0.0855338573
vt 0.853757083 0.378058314
vt 0.874516487 0.603549182
vt 0.853757083 0.603549182
vt 0.874516487 0.378058314
vt 0.843735218 0.378058314
vt 0.822975814 0.603549182
vt 0.822975814 0.378058314
vt 0.843735218 0.603549182
vt 0.181306124 0.747087061
vt 0.181306124 0.857756376
vt 0.158650696 0.747087061
vt 0.158650696 0.857756376
vt 0.119222999 0.747087061
vt 0.102450788 0.857756376
vt 0.102450788 0.747087061
vt 0.119222999 0.857756376
vt 0.141878486 0.747087061
vt 0.119222999 0.857756376
vt 0.119222999 0.747087061
vt 0.141878486 0.857756376
vt 0.141878486 0.747087061
vt 0.158650696 0.857756376
vt 0.141878486 0.857756376
vt 0.158650696 0.747087061
vt 0.429074287 0.958754957
vt 0.396881074 0.859115303
vt 0.429074287 0.859115303
vt 0.396881074 0.958754957
vt 0.429074287 0.859115303
vt 0.459926158 0.958754957
vt 0.429074287 0.958754957
vt 0.459926158 0.859115303
vt 0.904723704 0.709052563
vt 0.904723704 0.740715384
vt 0.880587995 0.709052563
vt 0.880587995 0.740715384
vt 0.904723704 0.645727158
vt 0.880587995 0.614064574
vt 0.904723704 0.614064574
vt 0.880587995 0.645727158
vt 0.904723704 0.709052563
vt 0.880587995 0.709052563
vt 0.904723704 0.67738992
vt 0.880587995 0.67738992
vt 0.936386466 0.645727158
vt 0.904723704 0.614064574
vt 0.936386466 0.614064574
vt 0.904723704 0.645727158
vt 0.904723704 0.67738992
vt 0.880587995 0.645727158
vt 0.904723704 0.645727158
vt 0.880587995 0.67738992
vt 0.32030654 0.679413438
vt 0.291727424 0.707992613
vt 0.291727424 0.679413438
vt 0.32030654 0.707992613
vt 0.954195559 0.37763083
vt 0.954195559 0.349051595
vt 0.978681028 0.349051595
vt 0.978681028 0.37763083
vt 0.954195559 0.349051595
vt 0.954195559 0.320472479
vt 0.978681028 0.320472479
vt 0.978681028 0.349051595
vt 0.954195559 0.291893303
vt 0.978681028 0.291893303
vt 0.954195559 0.320472479
vt 0.978681028 0.320472479
vt 0.391623408 0.502606809
vt 0.420202523 0.531186044
vt 0.391623408 0.531186044
vt 0.420202523 0.502606809
vt 0.954195559 0.37763083
vt 0.978681028 0.406209946
vt 0.954195559 0.406209946
vt 0.978681028 0.37763083
vt 0.615326345 0.117768526
vt 0.549353898 0.00781440735
vt 0.6512447 0.117768526
vt 0.716850638 0.00781440735
vt 0.954195559 0.281377912
vt 0.954195559 0.196834207
vt 0.989916205 0.196834207
vt 0.989916205 0.281377912
vt 0.08945629 0.734583318
vt 0.0608771443 0.763162494
vt 0.0608771443 0.734583318
vt 0.08945629 0.763162494
vt 0.0363916457 0.791741669
vt 0.0363916457 0.763162494
vt 0.0608771443 0.763162494
vt 0.0608771443 0.791741669
vt 0.0363916457 0.763162494
vt 0.0363916457 0.734583318
vt 0.0608771443 0.734583318
vt 0.0608771443 0.763162494
vt 0.0363916457 0.706004143
vt 0.0608771443 0.706004143
vt 0.0363916457 0.734583318
vt 0.0608771443 0.734583318
vt 0.0363916457 0.791741669
vt 0.0078125 0.791741669
vt 0.0363916457 0.763162494
vt 0.0078125 0.763162494
vt 0.0363916457 0.791741669
vt 0.0608771443 0.820320845
vt 0.0363916457 0.820320845
vt 0.0608771443 0.791741669
vt 0.336211979 0.731913745
vt 0.307500452 0.760625184
vt 0.307500452 0.731913745
vt 0.336211979 0.760625184
vt 0.360536993 0.674690068
vt 0.360536993 0.703202188
vt 0.336211979 0.703202188
vt 0.336211979 0.674690068
vt 0.360536993 0.731913745
vt 0.336211979 0.703202188
vt 0.360536993 0.703202188
vt 0.336211979 0.731913745
vt 0.360536993 0.760625184
vt 0.336211979 0.760625184
vt 0.360536993 0.731913745
vt 0.336211979 0.731913745
vt 0.38924852 0.703202188
vt 0.360536993 0.731913745
vt 0.360536993 0.703202188
vt 0.38924852 0.731913745
vt 0.360536993 0.789137363
vt 0.336211979 0.789137363
vt 0.360536993 0.760625184
vt 0.336211979 0.760625184
vt 0.857825816 0.823147535
vt 0.857825816 0.931673229
vt 0.837135315 0.823147535
vt 0.837135315 0.931673229
vt 0.872547925 0.823147535
vt 0.857825816 0.931673229
vt 0.857825816 0.823147535
vt 0.872547925 0.931673229
vt 0.822413325 0.823147535
vt 0.801722765 0.931673229
vt 0.801722765 0.823147535
vt 0.822413325 0.931673229
vt 0.822413325 0.931673229
vt 0.822413325 0.823147535
vt 0.837135315 0.823147535
vt 0.837135315 0.931673229
vt 0.601351976 0.773710072
vt 0.601351976 0.884402812
vt 0.578656077 0.773710072
vt 0.578656077 0.884402812
vt 0.601351976 0.773710072
vt 0.617677212 0.884402812
vt 0.601351976 0.884402812
vt 0.617677212 0.773710072
vt 0.561534464 0.773710072
vt 0.538838565 0.884402812
vt 0.538838565 0.773710072
vt 0.561534464 0.884402812
vt 0.561534464 0.884402812
vt 0.561534464 0.773710072
vt 0.578656077 0.773710072
vt 0.578656077 0.884402812
vt 0.828877091 0.203361571
vt 0.738630533 0.143184483
vt 0.828877211 0.143184364
vt 0.738630533 0.203361571
vt 0.847481012 0.00781440735
vt 0.828877091 0.0669726729
vt 0.828877091 0.00781440735
vt 0.847481012 0.0669726729
vt 0.847481012 0.104659736
vt 0.828877211 0.104659736
vt 0.847481012 0.143184364
vt 0.847481012 0.203361571
vt 0.738630533 0.00781440735
vt 0.814550698 0.0669727325
vt 0.738630533 0.0669727325
vt 0.121990442 0.968917429
vt 0.121990442 0.868271708
vt 0.141495451 0.868271708
vt 0.141495451 0.968917429
vt 0.101705268 0.868271708
vt 0.101705268 0.968917429
vt 0.081420064 0.868271708
vt 0.081420064 0.968917429
vt 0.101705268 0.968917429
vt 0.101705268 0.868271708
vt 0.121990442 0.868271708
vt 0.121990442 0.968917429
vt 0.316505849 0.502606809
vt 0.31650573 0.668898046
vt 0.197089374 0.50260669
vt 0.197089106 0.668897986
vt 0.419679612 0.597326219
vt 0.419679791 0.566359282
vt 0.707074404 0.78469342
vt 0.707074404 0.895362735
vt 0.684418917 0.78469342
vt 0.684418917 0.895362735
vt 0.644991279 0.78469342
vt 0.628219187 0.895362735
vt 0.628219187 0.78469342
vt 0.644991279 0.895362735
vt 0.667646766 0.78469342
vt 0.644991279 0.895362735
vt 0.644991279 0.78469342
vt 0.667646766 0.895362735
vt 0.667646766 0.895362735
vt 0.667646766 0.78469342
vt 0.684418917 0.78469342
vt 0.684418917 0.895362735
vt 0.312758148 0.00781440735
vt 0.312758148 0.134678245
vt 0.372960746 0.128765047
vt 0.372962683 0.00781440735
vt 0.412205487 0.244296968
vt 0.477298111 0.128765047
vt 0.438064754 0.244296968
vt 0.538136363 0.134678602
vt 0.538136363 0.00781440735
vt 0.477298111 0.00781440735
vt 0.885845661 0.489309669
vt 0.909743667 0.458242238
vt 0.909743667 0.489309669
vt 0.885845661 0.458242238
vt 0.909743667 0.521173716
vt 0.885845661 0.489309669
vt 0.909743667 0.489309669
vt 0.885845661 0.521173716
vt 0.909743667 0.426378131
vt 0.885845661 0.394514084
vt 0.909743667 0.394514084
vt 0.885845661 0.426378131
vt 0.909743667 0.426378131
vt 0.885845661 0.458242238
vt 0.885845661 0.426378131
vt 0.909743667 0.458242238
vt 0.909743667 0.426378131
vt 0.941607714 0.426378131
vt 0.909743667 0.458242238
vt 0.941607714 0.458242238
vt 0.525337994 0.848599911
vt 0.525337994 0.627275705
vt 0.40213877 0.848599911
vt 0.40213877 0.627275705
vt 0.228635192 0.896850944
vt 0.27259028 0.896850944
vt 0.228635192 0.953137279
vt 0.27259028 0.953137279
vt 0.405870825 0.2548123
vt 0.405870825 0.324059129
vt 0.341950715 0.324059129
vt 0.341950715 0.2548123
vt 0.405870825 0.492091417
vt 0.341950715 0.492091417
vt 0.459621817 0.324059129
vt 0.459621817 0.2548123
vt 0.523541927 0.324059129
vt 0.523541927 0.2548123
vt 0.523541927 0.492091417
vt 0.459621817 0.492091417
vt 0.341950715 0.2548123
vt 0.341950715 0.324059129
vt 0.302242786 0.324059129
vt 0.302242786 0.2548123
vt 0.341950715 0.492091417
vt 0.302242786 0.492091417
vt 0.459621817 0.2548123
vt 0.459621817 0.324059129
vt 0.405870825 0.324059129
vt 0.405870825 0.2548123
vt 0.459621817 0.492091417
vt 0.405870825 0.492091417
vt 0.184349373 0.462870836
vt 0.0078125 0.462870836
vt 0.0078125 0.695488751
vt 0.184349537 0.695488751
vt 0.538838565 0.388516188
vt 0.723152459 0.155898333
vt 0.538838565 0.155898333
vt 0.72315228 0.388516188
vt 0.0078125 0.425855756
vt 0.184349373 0.425855756
vt 0.576809049 0.928182304
vt 0.637162149 0.912938535
vt 0.60387677 0.891136765
vt 0.549741268 0.965227723
vt 0.5918504 0.972394288
vt 0.637872219 0.969191611
vt 0.61860472 0.991512299
vt 0.691064775 0.911152005
vt 0.687886834 0.933744013
vt 0.68635112 0.910923839
vt 0.685761094 0.933641076
vt 0.679825068 0.911151886
vt 0.685761094 0.933641076
vt 0.682818234 0.933744073
vt 0.68635112 0.910923839
vt 0.664973497 0.933752716
vt 0.663897097 0.910923839
vt 0.668760717 0.911714852
vt 0.667166591 0.934109509
vt 0.663897097 0.910923839
vt 0.664973497 0.933752716
vt 0.657416344 0.911714733
vt 0.662050843 0.934109509
vt 0.679825068 0.912736535
vt 0.673221231 0.933293164
vt 0.675290465 0.910923839
vt 0.675265968 0.934110582
vt 0.673221231 0.933293164
vt 0.668760777 0.910923839
vt 0.675290465 0.910923839
vt 0.670276523 0.933293104
vt 0.69132489 0.933744013
vt 0.684370875 0.956020892
vt 0.686331511 0.933876216
vt 0.686622679 0.955961287
vt 0.686331511 0.933876216
vt 0.681436718 0.955961227
vt 0.679825068 0.933744013
vt 0.684370875 0.956020892
vt 0.745862007 0.951451242
vt 0.739417553 0.951381087
vt 0.734860539 0.946723342
vt 0.739417136 0.935648561
vt 0.750418484 0.940376401
vt 0.750418782 0.946893096
vt 0.734860539 0.940206885
vt 0.734860539 0.940206885
vt 0.750418782 0.946893096
vt 0.745862007 0.951451242
vt 0.734860539 0.946723342
vt 0.750418484 0.940376401
vt 0.739417136 0.935648561
vt 0.74586153 0.935718894
vt 0.699947894 0.930173278
vt 0.696599543 0.910923839
vt 0.702003598 0.911153734
vt 0.702003598 0.930260718
vt 0.697842538 0.93078196
vt 0.691064775 0.912524045
vt 0.696599543 0.910923839
vt 0.699947894 0.930173278
vt 0.707897186 0.934337199
vt 0.705779314 0.954157174
vt 0.70420903 0.953090847
vt 0.712024748 0.937140107
vt 0.701944888 0.933744013
vt 0.70420903 0.953090847
vt 0.701944888 0.952865183
vt 0.707897186 0.934337199
vt 0.701944888 0.933960438
vt 0.695046484 0.953378856
vt 0.697277308 0.933744073
vt 0.696822107 0.95346117
vt 0.695046484 0.953378856
vt 0.69132489 0.933744073
vt 0.697277308 0.933744073
vt 0.692782104 0.953378856
vt 0.712854028 0.954157174
vt 0.705276012 0.971420467
vt 0.707753599 0.955017984
vt 0.707216501 0.971092999
vt 0.705276012 0.971420467
vt 0.701944888 0.954157174
vt 0.707753599 0.955017984
vt 0.703066349 0.971092999
vt 0.748141706 0.961532295
vt 0.744251728 0.965872109
vt 0.738750279 0.966036439
vt 0.744251966 0.951451242
vt 0.734860539 0.961928725
vt 0.734860539 0.955955267
vt 0.748142004 0.955558956
vt 0.748142004 0.955558956
vt 0.738750279 0.966036439
vt 0.734860539 0.961928725
vt 0.748141706 0.961532295
vt 0.744251966 0.951451242
vt 0.734860539 0.955955267
vt 0.738750696 0.951615453
vt 0.684213519 0.956020892
vt 0.68166095 0.97455579
vt 0.679825068 0.956738532
vt 0.679825068 0.974855959
vt 0.71226263 0.91139251
vt 0.709132612 0.930361688
vt 0.706787646 0.910923839
vt 0.706842422 0.930165648
vt 0.704841256 0.930361688
vt 0.706787646 0.910923839
vt 0.706842422 0.930165648
vt 0.702003598 0.911392093
vt 0.722115755 0.933744013
vt 0.71853441 0.951634586
vt 0.716560304 0.934195459
vt 0.720858276 0.951445699
vt 0.716560304 0.934195459
vt 0.71853441 0.951634586
vt 0.712024748 0.933744013
vt 0.716637194 0.951445639
vt 0.693056881 0.972548723
vt 0.695465505 0.95346117
vt 0.695359945 0.973037302
vt 0.70097065 0.954629362
vt 0.69132489 0.972566783
vt 0.695465505 0.95346117
vt 0.693056881 0.972548723
vt 0.69132489 0.953504443
vt 0.689687371 0.957315266
vt 0.68166095 0.97455579
vt 0.684213519 0.956020892
vt 0.683950841 0.975097299
vt 0.764087915 0.921135366
vt 0.764087558 0.926759064
vt 0.760485053 0.930806339
vt 0.755391359 0.91732949
vt 0.755390882 0.930906117
vt 0.751788974 0.927000046
vt 0.76048559 0.917229593
vt 0.76048559 0.917229593
vt 0.760485053 0.930806339
vt 0.755390882 0.930906117
vt 0.764087915 0.921135366
vt 0.755391359 0.91732949
vt 0.751788974 0.927000046
vt 0.751788974 0.921376646
vn -1.31223351e-06 -0.999965131 0.00834185444
vn -0.00296954461 -0.99999553 -0.000499822898
vn -6.61611557e-06 -0.999965072 0.00834415667
vn -0.00412450358 -0.999990523 -0.0014644037
vn -4.81503084e-05 0.999965131 0.00835516304
vn -0.00477775559 0.999988258 -0.000797643792
vn -6.72084279e-05 0.999994218 0.00341950054
vn -0.0127705242 0.999918461 2.86402646e-05
vn 4.77191061e-05 0.999965072 0.00835444126
vn 0.00297059026 0.99999547 -0.000500619877
vn 6.71669841e-06 0.999965191 0.00834476296
vn 0.00412456179 0.999990523 -0.00146423234
vn 0.00477773882 -0.999988258 -0.000797634013
vn 1.84308738e-06 -0.999965191 0.00834312383
vn 0.0127725312 -0.999918401 2.74582999e-05
vn 6.68885186e-05 -0.999994218 0.00342063117
vn 0 0 -1
vn 0 0 -1
vn 0 0 -1
vn 0 0 -1
vn 0 -1.67961716e-07 1
vn 0 -1.67961716e-07 1
vn 0 -1.67961716e-07 1
vn 0 -1.67961716e-07 1
vn -0.790923357 -3.22215783e-07 -0.61191535
vn -0.790923297 -1.60893251e-07 -0.61191535
vn -0.790864646 -4.66920689e-08 -0.611991167
vn -0.790923297 -4.89877117e-08 -0.61191535
vn 0.688579917 -4.38982433e-08 -0.725160539
vn 0.688579917 -4.38982433e-08 -0.725160539
vn 0.688579917 -4.38982433e-08 -0.725160539
vn 0.688579917 -4.38982433e-08 -0.725160539
vn -0.754584074 -3.9813375e-07 0.65620333
vn -0.754584074 -3.9813375e-07 0.65620333
vn -0.754584074 -3.9813375e-07 0.65620333
vn -0.754584074 -3.9813375e-07 0.65620333
vn 0.790893137 2.95280188e-07 -0.611954093
vn 0.790922582 1.28173269e-07 -0.611916244
vn 0.790863872 4.98925999e-07 -0.611992061
vn 0.790893137 4.98320674e-07 -0.611954093
vn -0.688236237 -3.74025916e-07 -0.725486636
vn -0.68858391 -3.51187992e-07 -0.725156605
vn -0.68858391 -3.51187992e-07 -0.725156605
vn -0.688236237 -3.51187964e-07 -0.725486636
vn 0.754804313 2.93308432e-07 0.65595001
vn 0.754804313 2.59500609e-07 0.65595001
vn 0.754804313 2.98207851e-07 0.65595001
vn 0.754804313 2.80777385e-07 0.65595001
vn 0.999965072 0.00135983713 0.00823173486
vn 0.999996483 -0.00262518018 -0.000135574373
vn 0.999984264 -0.00417044479 0.00371562783
vn 0.999996185 -0.00118766166 0.0024475446
vn -0.999991059 -0.00423260219 -0.000197463669
vn -0.99996531 0.00135936774 0.00823340192
vn -0.999984503 -0.00417134725 0.00371585274
vn -0.999998152 -0.000865896 0.00174633646
vn 1.01206106e-05 -0.164910436 -0.986308575
vn 3.67537865e-07 -0.164957717 -0.986300647
vn -9.86555096e-06 -0.164910436 -0.986308575
vn 1.859554e-07 -0.164957717 -0.986300647
vn 2.5092595e-07 -0.850408316 -0.526123464
vn 2.41569069e-07 -0.850408375 -0.526123405
vn 3.37884615e-07 -0.850408316 -0.526123464
vn 1.91024967e-07 -0.850408316 -0.526123464
vn 1.86638744e-07 0.506824017 -0.862049639
vn 1.86638744e-07 0.506824017 -0.862049639
vn 1.86638744e-07 0.506824017 -0.862049639
vn 1.86638744e-07 0.506824017 -0.862049639
vn 7.35125127e-07 -0.632659793 0.774429917
vn 2.39524525e-08 -0.632659793 0.774429917
vn 9.07808655e-08 -0.632659793 0.774429917
vn 6.34267053e-07 -0.632659793 0.774429917
vn -4.27906855e-07 0.818345308 0.574726939
vn -4.27906855e-07 0.818345308 0.574726939
vn -4.27906855e-07 0.818345308 0.574726939
vn -4.27906855e-07 0.818345308 0.574726939
vn 7.09393419e-07 -1 0
vn 7.09393419e-07 -1 0
vn 7.09393419e-07 -1 0
vn 7.09393419e-07 -1 0
vn 0 -1 0
vn 0 -1 0
vn 0 -1 0
vn 0 -1 0
vn -1 0 0
vn -1 0 0
vn -1 0 0
vn -1 0 0
vn -2.37585299e-12 1 9.34223408e-07
vn -2.37585299e-12 1 9.34223408e-07
vn -2.37585299e-12 1 9.34223408e-07
vn -2.37585299e-12 1 9.34223408e-07
vn 1 0 0
vn 1 0 0
vn 1 0 0
vn 1 0 0
vn 0 -1 0
vn 0 -1 0
vn 0 -1 0
vn 0 -1 0
vn -1 -9.11012933e-07 0
vn -1 -9.11012933e-07 0
vn -1 -9.11012933e-07 0
vn -1 -9.11012933e-07 0
vn 1 9.11012933e-07 0
vn 1 9.11012933e-07 0
vn 1 9.11012933e-07 0
vn 1 9.11012933e-07 0
vn 0 -4.06900909e-07 0.99999994
vn 0 -4.06900909e-07 0.99999994
vn 0 -4.06900909e-07 0.99999994
vn 0 -4.06900909e-07 0.99999994
vn 0 1 0
vn 0 1 0
vn 0 1 0
vn 0 1 0
vn 3.25520091e-06 -1 0
vn 3.25520091e-06 -1 0
vn 3.25520091e-06 -1 0
vn 3.25520091e-06 -1 0
vn -1 0 0
vn -1 0 0
vn -1 0 0
vn -1 0 0
vn 1 9.11015832e-07 0
vn 1 9.11015832e-07 0
vn 1 9.11015832e-07 0
vn 1 9.11015832e-07 0
vn -1.73611042e-07 0 1
vn -1.73611042e-07 0 1
vn -1.73611042e-07 0 1
vn -1.73611042e-07 0 1
vn 0 1 0
vn 0 1 0
vn 0 1 0
vn 0 1 0
vn 1 0 0
vn 1 0 0
vn 1 0 0
vn 1 0 0
vn -6.7173039e-07 0 1
vn -7.26105043e-07 0 1
vn -7.18153728e-07 0 1
vn -7.26105043e-07 0 1
vn 0 -1 0
vn 0 -1 0
vn 0 -1 0
vn 0 -1 0
vn 0 -1 0
vn -6.09405333e-07 0 1
vn -6.14596445e-07 1 0
vn -6.14596445e-07 1 0
vn -6.14596445e-07 1 0
vn -6.14596445e-07 1 0
vn 0 -7.002742e-07 1
vn 0 -7.002742e-07 1
vn 0 -7.002742e-07 1
vn 0 -7.002742e-07 1
vn 0 -1 0
vn 0 -1 0
vn 0 -1 0
vn 0 -1 0
vn -1 -7.97139933e-07 0
vn -1 -7.97139933e-07 0
vn -1 -7.97139933e-07 0
vn -1 -7.97139933e-07 0
vn 0 1 0
vn 0 1 0
vn 0 1 0
vn 0 1 0
vn 1 7.97139933e-07 0
vn 1 7.97139933e-07 0
vn 1 7.97139933e-07 0
vn 1 7.97139933e-07 0
vn 0 -4.06901023e-07 1
vn 0 -4.06901023e-07 1
vn 0 -4.06901023e-07 1
vn 0 -4.06901023e-07 1
vn 1 -3.85479098e-06 0
vn 1 -3.85479098e-06 0
vn 1 -3.85479098e-06 0
vn 1 -3.85479098e-06 0
vn 0 -1 0
vn 0 -1 0
vn 0 -1 0
vn 0 -1 0
vn -1 0 0
vn -1 0 0
vn -1 0 0
vn -1 0 0
vn 0 1 0
vn 0 1 0
vn 0 1 0
vn 0 1 0
vn 0 0 -0.99999994
vn 0 0 -0.99999994
vn 0 0 -0.99999994
vn 0 0 -0.99999994
vn 0 0 1
vn 0 0 1
vn 0 0 1
vn 0 0 1
vn 0 -1 0
vn 0 -1 0
vn 0 -1 0
vn 0 -1 0
vn -1 -7.50148274e-07 -1.0477363e-06
vn -1 -7.50148274e-07 -1.0477363e-06
vn -1 -7.50148274e-07 -1.0477363e-06
vn -1 -7.50148274e-07 -1.0477363e-06
vn 0 1 5.92472773e-08
vn 0 1 5.92472773e-08
vn 0 1 5.92472773e-08
vn 0 1 5.92472773e-08
vn 1 7.73590386e-07 1.28056661e-06
vn 1 7.73590386e-07 1.28056661e-06
vn 1 7.73590386e-07 1.28056661e-06
vn 1 7.73590386e-07 1.28056661e-06
vn 0 -9.01606143e-07 -1
vn 0 -9.01606143e-07 -1
vn 0 -9.01606143e-07 -1
vn 0 -9.01606143e-07 -1
vn 0 0.99999994 0
vn 0 0.99999994 0
vn 0 0.99999994 0
vn 0 0.99999994 0
vn 1 1.99635519e-06 0
vn 1 1.99635519e-06 0
vn 1 1.99635519e-06 0
vn 1 1.99635519e-06 0
vn 0 -1 0
vn 0 -1 0
vn 0 -1 0
vn 0 -1 0
vn 0 9.01606029e-07 0.99999994
vn 0 9.01606029e-07 0.99999994
vn 0 9.01606029e-07 0.99999994
vn 0 9.01606029e-07 0.99999994
vn -1 -9.30854071e-07 0
vn -1 -9.30854071e-07 0
vn -1 -9.30854071e-07 0
vn -1 -9.30854071e-07 0
vn 1 -2.24692849e-06 1.37124937e-06
vn 1 -2.24692849e-06 1.37124937e-06
vn 1 -2.24692849e-06 1.37124937e-06
vn 1 -2.24692849e-06 1.37124937e-06
vn 0 -1 0
vn 0 -1 0
vn 0 -1 0
vn 0 -1 0
vn -6.38593065e-06 0 1
vn -6.38593065e-06 0 1
vn -6.38593065e-06 0 1
vn -6.38593065e-06 0 1
vn 1 5.25065275e-07 2.67062024e-12
vn 1 5.25065275e-07 2.67062024e-12
vn 1 5.25065275e-07 2.67062024e-12
vn 1 5.25065275e-07 2.67062024e-12
vn 0 -6.17341769e-08 1
vn 0 -6.17341769e-08 1
vn 0 -6.17341769e-08 1
vn 0 -6.17341769e-08 1
vn -1 0 0
vn -1 0 0
vn -1 0 0
vn -1 0 0
vn 1 2.48919796e-09 0
vn 1 2.48919796e-09 0
vn 1 2.48919796e-09 0
vn 1 2.48919796e-09 0
vn -3.83556153e-06 -1 4.67824833e-07
vn -3.83556153e-06 -1 4.67824833e-07
vn -3.83556153e-06 -1 4.67824833e-07
vn -3.83556153e-06 -1 4.67824833e-07
vn -1 -3.65148054e-07 0
vn -1 -3.65148054e-07 0
vn -1 -3.65148054e-07 0
vn -1 -3.65148054e-07 0
vn 0 -1.03036825e-07 1
vn 0 -1.03036825e-07 1
vn 0 -1.03036825e-07 1
vn 0 -1.03036825e-07 1
vn 0 -1 0
vn 0 -1 0
vn 0 -1 0
vn 0 -1 0
vn -1 0 0
vn -1 0 0
vn -1 0 0
vn -1 0 0
vn 1 1.82203212e-06 0
vn 1 1.82203212e-06 0
vn 1 1.82203212e-06 0
vn 1 1.82203212e-06 0
vn 0 -4.06902501e-07 1
vn 0 -4.06902501e-07 1
vn 0 -4.06902501e-07 1
vn 0 -4.06902501e-07 1
vn 0 1 0
vn 0 1 0
vn 0 1 0
vn 0 1 0
vn 2.34263716e-05 -2.21548959e-07 1
vn 2.34267209e-05 -1.40459932e-07 1
vn 2.34277686e-05 -3.10641013e-07 1
vn 2.34275358e-05 -2.21679485e-07 1
vn 0 0 -1
vn 0 0 -1
vn 0 0 -1
vn 0 0 -1
vn -6.6665234e-06 1 -0.000158667564
vn 1.64844096e-05 1 -0.000206030905
vn -5.2280724e-05 1 -0.000167436898
vn -4.10535904e-06 1 -0.000149309635
vn -3.15645775e-06 -1 -0.000168174505
vn 2.65957497e-05 -1 -0.000206708908
vn 3.08454037e-06 -1 -0.00015873462
vn 4.56571579e-05 -1.00000012 -0.000149296597
vn 0.9379462 8.24593008e-06 -0.346781105
vn 0.937946141 6.38887286e-07 -0.346781105
vn 0.9379462 8.67458596e-07 -0.346781105
vn 0.9379462 -1.0353408e-06 -0.346781105
vn -0.937936962 -2.11037695e-06 -0.34680596
vn -0.937953591 7.33695924e-06 -0.346760958
vn -0.937953591 1.51049437e-06 -0.346761048
vn -0.937936962 3.30680678e-07 -0.34680599
vn 6.31831824e-07 -1 0
vn 6.31831824e-07 -1 0
vn 6.31831824e-07 -1 0
vn 6.31831824e-07 -1 0
vn -1 -2.78385232e-06 0
vn -1 -2.78385232e-06 0
vn -1 -2.78385232e-06 0
vn -1 -2.78385232e-06 0
vn -6.31831654e-07 1 0
vn -6.31831654e-07 1 0
vn -6.31831654e-07 1 0
vn -6.31831654e-07 1 0
vn 1 -1.03902815e-08 0
vn 1 -1.03902815e-08 0
vn 1 -1.03902815e-08 0
vn 1 -1.03902815e-08 0
vn 3.62624917e-07 -3.46738557e-06 -1
vn 3.62624917e-07 -3.46738557e-06 -1
vn 3.62624917e-07 -3.46738557e-06 -1
vn 3.62624917e-07 -3.46738557e-06 -1
vn -8.03082287e-07 -1.46053644e-12 1
vn -8.03082287e-07 -1.46053644e-12 1
vn -8.03082287e-07 -1.46053644e-12 1
vn -8.03082287e-07 -1.46053644e-12 1
vn 1.90694664e-06 -1 0
vn 1.90694664e-06 -1 0
vn 1.90694664e-06 -1 0
vn 1.90694664e-06 -1 0
vn 1.90694664e-06 -1 0
vn -1 -1.38448513e-06 0
vn -1 -1.38448513e-06 0
vn -1 -1.38448513e-06 0
vn -1 -1.38448513e-06 0
vn -3.99112054e-07 -1.14186872e-12 1
vn -3.787286e-07 1.97096441e-12 1
vn -3.99112054e-07 -1.14186872e-12 1
vn -3.96824845e-07 -7.92581333e-13 1
vn -3.56058393e-07 5.43301992e-12 0.99999994
vn 1 4.23768114e-07 -4.8496412e-13
vn 1 4.23768114e-07 -4.8496412e-13
vn 1 4.23768114e-07 -4.8496412e-13
vn 1 4.23768114e-07 -4.8496412e-13
vn 7.52617495e-07 -1 0
vn 7.52617495e-07 -1 0
vn 7.52617495e-07 -1 0
vn 7.52617495e-07 -1 0
vn -1 0 0
vn -1 0 0
vn -1 0 0
vn -1 0 0
vn 1 0 0
vn 1 0 0
vn 1 0 0
vn 1 0 0
vn -7.16232478e-07 0 1
vn -7.16232478e-07 0 1
vn -7.16232478e-07 0 1
vn -7.16232478e-07 0 1
vn 3.49518303e-10 -6.26122358e-07 -1
vn 3.49518303e-10 -6.26122358e-07 -1
vn 3.49518303e-10 -6.26122358e-07 -1
vn 3.49518303e-10 -6.26122358e-07 -1
vn 0 0 1
vn 0 0 1
vn 0 0 1
vn 0 0 1
vn 4.73073413e-07 -1 -4.11582323e-06
vn 4.73073413e-07 -1 -4.11582323e-06
vn 4.73073413e-07 -1 -4.11582323e-06
vn 4.73073413e-07 -1 -4.11582323e-06
vn 1 -7.99968163e-08 0
vn 1 -7.99968163e-08 0
vn 1 -7.99968163e-08 0
vn 1 -7.99968163e-08 0
vn -1 5.0174458e-06 0
vn -1 5.0174458e-06 0
vn -1 5.0174458e-06 0
vn -1 5.0174458e-06 0
vn 5.07829668e-07 -1 -2.25938777e-07
vn 5.07829668e-07 -1 -2.25938777e-07
vn 5.07829668e-07 -1 -2.25938777e-07
vn 5.07829668e-07 -1 -2.25938777e-07
vn -1 -1.07715368e-06 0
vn -1 -1.07715368e-06 0
vn -1 -1.07715368e-06 0
vn -1 -1.07715368e-06 0
vn -5.07829611e-07 1 -6.10144298e-07
vn -5.07829611e-07 1 -6.10144298e-07
vn -5.07829611e-07 1 -6.10144298e-07
vn -5.07829611e-07 1 -6.10144298e-07
vn 1 -6.62864238e-07 -4.58326667e-06
vn 1 -6.62864238e-07 -4.58326667e-06
vn 1 -6.62864238e-07 -4.58326667e-06
vn 1 -6.62864238e-07 -4.58326667e-06
vn 5.44314787e-07 -2.75853864e-07 -0.99999994
vn 5.44314787e-07 -2.75853864e-07 -0.99999994
vn 5.44314787e-07 -2.75853864e-07 -0.99999994
vn 5.44314787e-07 -2.75853864e-07 -0.99999994
vn -5.08108712e-07 -5.51708467e-07 0.99999994
vn -5.08108712e-07 -5.51708467e-07 0.99999994
vn -5.08108712e-07 -5.51708467e-07 0.99999994
vn -5.08108712e-07 -5.51708467e-07 0.99999994
vn 0 -1 0
vn 0 -1 0
vn 0 -1 0
vn 0 -1 0
vn -1 0 -9.31321097e-07
vn -1 0 -9.31321097e-07
vn -1 0 -9.31321097e-07
vn -1 0 -9.31321097e-07
vn 0 1 4.82079301e-08
vn 0 1 4.82079301e-08
vn 0 1 4.82079301e-08
vn 0 1 4.82079301e-08
vn 1 0 1.39698091e-06
vn 1 0 1.39698091e-06
vn 1 0 1.39698091e-06
vn 1 0 1.39698091e-06
vn -6.14596445e-07 1 0
vn -6.14596445e-07 1 0
vn -6.14596445e-07 1 0
vn -6.14596445e-07 1 0
vn 0 7.00274313e-07 1
vn 0 7.00274313e-07 1
vn 0 7.00274313e-07 1
vn 0 7.00274313e-07 1
vn 0 -1 0
vn 0 -1 0
vn 0 -1 0
vn 0 -1 0
vn -0.99999994 -7.97137659e-07 -1.7376222e-12
vn -0.99999994 -7.97137659e-07 -1.7376222e-12
vn -0.99999994 -7.97137659e-07 -1.7376222e-12
vn -0.99999994 -7.97137659e-07 -1.7376222e-12
vn 1 0 0
vn 1 0 0
vn 1 0 0
vn 1 0 0
vn 0 -4.06902444e-07 1
vn 0 -4.06902444e-07 1
vn 0 -4.06902444e-07 1
vn 0 -4.06902444e-07 1
vn 0 1 4.55505233e-06
vn 0 1 4.55505233e-06
vn 0 1 4.55505233e-06
vn 0 1 4.55505233e-06
vn 0 -9.01607621e-07 -1
vn 0 -9.01607621e-07 -1
vn 0 -9.01607621e-07 -1
vn 0 -9.01607621e-07 -1
vn 0 1 0
vn 0 1 0
vn 0 1 0
vn 0 1 0
vn 1 -4.03990654e-08 0
vn 1 -4.03990654e-08 0
vn 1 -4.03990654e-08 0
vn 1 -4.03990654e-08 0
vn 3.60642457e-06 -1 0
vn 3.60642457e-06 -1 0
vn 3.60642457e-06 -1 0
vn 3.60642457e-06 -1 0
vn -1.4750789e-08 9.01607621e-07 1
vn -1.4750789e-08 9.01607621e-07 1
vn -1.4750789e-08 9.01607621e-07 1
vn -1.4750789e-08 9.01607621e-07 1
vn -1 1.70565624e-08 0
vn -1 1.70565624e-08 0
vn -1 1.70565624e-08 0
vn -1 1.70565624e-08 0
vn 0 -0.99999994 -8.71558711e-07
vn 0 -0.99999994 -8.71558711e-07
vn 0 -0.99999994 -8.71558711e-07
vn 0 -0.99999994 -8.71558711e-07
vn 1 -9.22130141e-07 6.73100033e-07
vn 1 -9.22130141e-07 6.73100033e-07
vn 1 -9.22130141e-07 6.73100033e-07
vn 1 -9.22130141e-07 6.73100033e-07
vn 0 -9.01605745e-07 -1
vn 0 -9.01605745e-07 -1
vn 0 -9.01605745e-07 -1
vn 0 -9.01605745e-07 -1
vn 0 1 0
vn 0 1 0
vn 0 1 0
vn 0 1 0
vn 1 9.02851184e-07 0
vn 1 9.02851184e-07 0
vn 1 9.02851184e-07 0
vn 1 9.02851184e-07 0
vn 0 -1 0
vn 0 -1 0
vn 0 -1 0
vn 0 -1 0
vn 0 9.01605688e-07 1
vn 0 9.01605688e-07 1
vn 0 9.01605688e-07 1
vn 0 9.01605688e-07 1
vn -1 -8.70131885e-07 0
vn -1 -8.70131885e-07 0
vn -1 -8.70131885e-07 0
vn -1 -8.70131885e-07 0
vn 0 4.5080381e-07 -1
vn 0 4.5080381e-07 -1
vn 0 4.5080381e-07 -1
vn 0 4.5080381e-07 -1
vn 0 1 0
vn 0 1 0
vn 0 1 0
vn 0 1 0
vn 1 0 0
vn 1 0 0
vn 1 0 0
vn 1 0 0
vn 3.60642457e-06 -1 0
vn 3.60642457e-06 -1 0
vn 3.60642457e-06 -1 0
vn 3.60642457e-06 -1 0
vn -1.47442858e-08 0 1
vn -1.47442858e-08 0 1
vn -1.47442858e-08 0 1
vn -1.47442858e-08 0 1
vn -0.99999994 2.16707207e-07 0
vn -0.99999994 2.16707207e-07 0
vn -0.99999994 2.16707207e-07 0
vn -0.99999994 2.16707207e-07 0
vn 5.00895976e-06 -1 7.79428007e-08
vn 5.00895976e-06 -1 7.79428007e-08
vn 5.00895976e-06 -1 7.79428007e-08
vn 5.00895976e-06 -1 7.79428007e-08
vn -1 0 0
vn -1 0 0
vn -1 0 0
vn -1 0 0
vn -5.00895976e-06 1 -1.19068044e-08
vn -5.00895976e-06 1 -1.19068044e-08
vn -5.00895976e-06 1 -1.19068044e-08
vn -5.00895976e-06 1 -1.19068044e-08
vn 1 0 4.74874128e-07
vn 1 0 4.74874128e-07
vn 1 0 4.74874128e-07
vn 1 0 4.74874128e-07
vn 0 -0.99999994 0
vn 0 -0.99999994 0
vn 0 -0.99999994 0
vn 0 -0.99999994 0
vn -1 0 -9.31321154e-07
vn -1 0 -9.31321154e-07
vn -1 0 -9.31321154e-07
vn -1 0 -9.31321154e-07
vn 0 1 3.23924851e-08
vn 0 1 3.23924851e-08
vn 0 1 3.23924851e-08
vn 0 1 3.23924851e-08
vn 1 1.50029655e-06 9.31321154e-07
vn 1 1.50029655e-06 9.31321154e-07
vn 1 1.50029655e-06 9.31321154e-07
vn 1 1.50029655e-06 9.31321154e-07
vn 1.60114018e-06 -1 1.19026561e-06
vn 2.13485441e-06 -1 0
vn 1.06742687e-06 -1 7.93510424e-07
vn 2.13485441e-06 -1 0
vn 0 -1 0
vn 0 -1 0
vn 0 -1 0
vn 0 -1 0
vn 0 -1 0
vn 0 -1 0
vn 5.33712921e-07 -1 1.19026527e-06
vn 1.06742618e-06 -1 2.38053121e-06
vn 0 -1 0
vn 0 -1 0
vn 0 -1 0
vn -1 -3.05472867e-07 0
vn -1 -3.05472867e-07 0
vn -1 -3.05472867e-07 0
vn -1 -3.05472867e-07 0
vn 1 2.47378669e-08 0
vn 1 2.47378669e-08 0
vn 1 2.47378669e-08 0
vn 1 2.47378669e-08 0
vn 0 -1 0
vn 0 -1 0
vn 0 -1 0
vn 0 -1 0
vn -1.8809007e-07 1 2.69515823e-07
vn -1.9202119e-07 1 2.76578675e-07
vn -3.09903754e-07 1 4.88372336e-07
vn -3.09903754e-07 1 4.88372336e-07
vn 0 1 -6.84161279e-08
vn 0 1 -6.84161279e-08
vn 0 -0.99999994 0
vn 0 -0.99999994 0
vn 0 -0.99999994 0
vn 0 -0.99999994 0
vn -1 0 -1.39698102e-06
vn -1 0 -1.39698102e-06
vn -1 0 -1.39698102e-06
vn -1 0 -1.39698102e-06
vn 0 0.99999994 -3.99649132e-08
vn 0 0.99999994 -3.99649132e-08
vn 0 0.99999994 -3.99649132e-08
vn 0 0.99999994 -3.99649132e-08
vn 1 0 1.39698102e-06
vn 1 0 1.39698102e-06
vn 1 0 1.39698102e-06
vn 1 0 1.39698102e-06
vn 1 2.47111018e-07 5.1338759e-07
vn 1 7.49801927e-07 4.54690422e-07
vn 1 5.53450036e-07 5.5589544e-07
vn 1 3.81749089e-07 6.66018366e-07
vn 1 3.59967743e-07 6.66543031e-07
vn 1 5.10362213e-07 7.19181969e-07
vn 1 3.44971511e-07 6.70093925e-07
vn 1 6.24523011e-07 7.67143945e-07
vn 1 6.59413217e-07 8.52992855e-07
vn 1 5.57024748e-07 8.00819464e-07
vn 0 -1 0
vn 0 -1 0
vn 0 -1 0
vn 0 -1 0
vn -1 0 0
vn -1 0 0
vn -1 0 0
vn -1 0 0
vn -1.62760375e-06 1 2.29034617e-06
vn -1.62760375e-06 1 2.29034617e-06
vn -1.62760375e-06 1 2.29034617e-06
vn -1.62760375e-06 1 2.29034617e-06
vn 1 0 0
vn 1 0 0
vn 1 0 0
vn 1 0 0
vn 0 0 1
vn 0 0 1
vn 0 0 1
vn 0 0 1
vn 5.15972147e-07 -1 -7.14914677e-07
vn 5.15972147e-07 -1 -7.14914677e-07
vn 5.15972147e-07 -1 -7.14914677e-07
vn 5.15972147e-07 -1 -7.14914677e-07
vn 1 -5.28292958e-07 -0.000173166394
vn 1.00000012 -4.63426113e-06 -0.000173082342
vn 1.00000012 3.32761556e-05 -0.000173079083
vn 1 1.67869445e-07 -0.000173166394
vn -1.46236271e-05 -0.99999994 -0.000141695142
vn -0.00787187368 -0.992003798 -0.125961572
vn -0.0157156996 -0.990897894 -0.133695111
vn -6.38132915e-05 -0.99999994 -0.000153102446
vn 6.54450196e-06 -1 -0.000188320875
vn 1.27301328e-05 -0.99999994 -0.000188365579
vn -0.00789657794 0.991998434 -0.126003161
vn -3.98941338e-05 0.999999881 -0.000135113019
vn -0.0157160982 0.990897715 -0.133696213
vn -4.60403971e-05 0.999999881 -0.000157788396
vn -3.74954226e-07 0.99999994 -0.000188738108
vn 5.72939825e-06 0.99999994 -0.000188782811
vn 1.80428979e-05 2.68220901e-07 -1.00000012
vn 0.00786485523 -1.82526194e-09 -0.999969065
vn 0.00791304372 -8.57107807e-08 -0.999968648
vn 1.80415809e-05 8.18884303e-07 -1.00000012
vn 1.81479479e-07 7.73072199e-14 -1
vn 1.81479479e-07 7.73072199e-14 -1
vn -0.000186243604 -6.68829307e-06 0.99999994
vn -0.0550686754 1.21646366e-07 0.998482585
vn -0.0550220944 -1.37608731e-06 0.998485088
vn -0.000186264515 -7.51018706e-06 0.99999994
vn -4.15711071e-07 -1.31625654e-13 1
vn -4.15711071e-07 -1.31625654e-13 1
vn 1.12268539e-09 2.01723765e-07 -1
vn 1.12268594e-09 2.01723708e-07 -1
vn 2.24537078e-09 5.53851969e-08 -1
vn 2.24537078e-09 5.53851969e-08 -1
vn 0 -5.5385204e-08 1
vn 0 -5.5385204e-08 1
vn 0 -5.5385204e-08 1
vn 0 -5.5385204e-08 1
vn 0 3.48062343e-07 -1
vn 0 3.48062343e-07 -1
vn -0.154193774 -0.710573852 0.686519563
vn 0.0186556838 -0.800284386 0.599330544
vn -0.154193774 -0.710573852 0.686519563
vn 0.0538265184 -0.795744896 0.603235126
vn 0.0644039735 -0.814456761 0.576638877
vn -0.00955889933 -0.797633588 0.603066564
vn -0.0623337775 -0.748379946 0.660334766
vn -0.234050095 0.856048644 -0.460870117
vn -0.346208245 0.936459601 0.0564203449
vn -0.152609557 0.988176405 0.0147556886
vn -0.346830308 0.936070204 0.059002649
vn -0.870389044 0.458106995 -0.180446506
vn -0.876863062 0.449192286 -0.171282545
vn -0.877010465 0.450501978 -0.167035118
vn -0.842513621 0.396342099 -0.364806503
vn -0.8776232 -0.264584035 -0.399715871
vn -0.90313834 -0.0535915643 -0.425991923
vn -0.871001244 -0.273568422 -0.408065081
vn -0.875472665 -0.267021894 -0.40279901
vn -0.214191899 -0.726796985 -0.652601004
vn -0.349542469 -0.790599048 -0.502765775
vn -0.694297314 -0.376925081 -0.613089502
vn -0.351973623 -0.789463818 -0.502853394
vn 0.589211345 -0.399712414 -0.702182293
vn 0.388803601 -0.822346568 -0.415425032
vn 0.209551305 -0.824411154 -0.525770307
vn 0.391275465 -0.821417749 -0.41494137
vn 0.920941472 -0.341913164 -0.186981991
vn 0.917983949 -0.341204613 -0.202200353
vn 0.929892302 -0.175519124 -0.323254466
vn 0.919365346 -0.344198793 -0.19051145
vn 0.921579897 0.386028141 0.0409005694
vn 0.927450359 0.371567994 0.0421088301
vn 0.972161949 0.219086334 -0.0830804035
vn 0.926698267 0.372942805 0.0463047884
vn 0.311823577 0.949551284 -0.0334438309
vn 0.401553005 0.904306531 0.144861564
vn 0.815557539 0.565593243 0.12235219
vn 0.401530355 0.903887868 0.147513166
vn 0.0795568228 -0.34743306 0.934323728
vn 0.150038734 0.183670968 0.971469641
vn -0.33070296 -0.296346068 0.895999193
vn -0.293497294 -0.379858285 0.877249718
vn -0.089958854 -0.476542264 0.874536872
vn -0.117164411 -0.279183358 0.953063011
vn -0.137114003 -0.28503722 0.948658764
vn -0.132909909 -0.298503965 0.945108533
vn -0.1120262 -0.292374283 0.949719548
vn 0.0570513532 -0.183033362 0.981449842
vn -0.156069607 -0.0815656334 0.984372437
vn 0.0788103491 -0.269988507 0.959632814
vn -0.315859288 -0.220938012 0.922723889
vn -0.58096838 -0.416141689 0.699501157
vn -0.583286405 0.805433095 0.10514088
vn -0.464938015 0.885335982 0.00359336287
vn -0.630797505 0.657435656 -0.412156463
vn -0.584172845 0.805648804 0.0983467549
vn -0.978807032 0.165817723 0.12017183
vn -0.978974581 0.194018289 0.0629720166
vn -0.993589699 0.102479696 -0.047722239
vn -0.980768502 0.161012962 0.110308006
vn -0.923881829 -0.372512043 -0.0876180977
vn -0.831636429 -0.551102221 -0.0683164299
vn -0.835927129 -0.545596719 -0.059581656
vn -0.809311509 -0.579530478 -0.0957040861
vn -0.726191401 -0.612658739 -0.311922044
vn -0.242540807 -0.913390219 -0.326944113
vn -0.248949751 -0.912332416 -0.325074822
vn -0.199420124 -0.843696952 -0.498404503
vn 0.383454502 -0.299884498 -0.873516977
vn 0.435863584 -0.737274051 -0.516187787
vn 0.261047482 -0.796058297 -0.546026945
vn 0.441156119 -0.73314327 -0.517573357
vn 0.842350543 -0.109831788 -0.527619541
vn 0.808184326 -0.12098062 -0.576369286
vn 0.756545544 0.0180786811 -0.653690994
vn 0.837351918 -0.117662013 -0.533851266
vn 0.672113419 0.646281481 -0.361363828
vn 0.712738991 0.60075587 -0.362071216
vn 0.74873203 0.474249333 -0.463128448
vn 0.713874817 0.605355144 -0.352033943
vn 0.121276401 0.988403082 -0.0913866237
vn 0.58412528 0.77355051 -0.245799333
vn -0.0128712133 0.978028119 -0.208075419
vn 0.118538029 0.988134742 -0.0976655111
vn 0.474877775 -0.134685457 0.869684398
vn 0.404540181 0.408210516 0.818359017
vn 0.118083842 -0.195039243 0.973661065
vn 0.35183239 -0.284359187 0.891826153
vn 0.245375812 -0.128754675 0.960839689
vn 0.176377907 -0.252125949 0.951484859
vn 0.318386585 -0.080054298 0.944574714
vn 0.34916234 -0.129422739 0.928081632
vn 0.224481255 0.0459343866 0.973395228
vn 0.274124652 -0.17947416 0.944798768
vn 0.425323248 0.00836472958 0.905002892
vn 0.448613584 -0.0689982325 0.891058445
vn 0.130157471 -0.123051308 0.983827889
vn -0.150234133 -0.416303486 0.896728039
vn -0.137340367 0.990421236 0.0142651796
vn -0.253728449 0.817662776 0.516768336
vn -0.0637950376 0.861947 0.502968729
vn -0.253728449 0.817662776 0.516768336
vn -0.786784112 0.610072851 -0.0937113315
vn -0.818839431 0.566254735 0.0941144377
vn -0.802072883 0.591556311 0.082098417
vn -0.818964064 0.566037238 0.09433759
vn -0.883049846 0.0708768517 -0.463896155
vn -0.869703352 0.0570227131 -0.490269959
vn -0.883049846 0.0708768517 -0.463896155
vn -0.889424205 0.249771714 -0.382803798
vn -0.272887528 -0.271120608 -0.92305249
vn -0.409130126 -0.378225386 -0.830396295
vn -0.708901048 0.0592919141 -0.702811301
vn -0.409130126 -0.378225386 -0.830396295
vn 0.567059159 -0.0303471107 -0.823117852
vn 0.325193882 -0.51823163 -0.791002512
vn 0.160282448 -0.454118192 -0.876405299
vn 0.324740589 -0.518309355 -0.791137815
vn 0.890075088 -0.267469794 -0.369088203
vn 0.8836537 -0.250080436 -0.395747036
vn 0.890301228 -0.267657131 -0.368406296
vn 0.914823532 -0.0743200034 -0.396956325
vn 0.955072463 0.22806339 0.189271569
vn 0.945176721 0.256257743 0.20241785
vn 0.955085933 0.227817446 0.189499453
vn 0.987394035 0.157988593 0.00963040069
vn 0.402260393 0.806849599 0.432643354
vn 0.481254637 0.677532792 0.556186438
vn 0.867122471 0.354042649 0.350360483
vn 0.481254637 0.677532792 0.556186438
vn 0.00904733315 -0.782054603 0.623144329
vn 0.141144037 -0.360399544 0.922057867
vn -0.363078237 -0.689159393 0.627083361
vn -0.155482814 -0.844377697 0.512690365
vn -0.204154834 -0.713253736 0.670514822
vn -0.341251522 -0.748897374 0.568067133
vn -0.152397677 -0.710973322 0.686507165
vn -0.143559381 -0.735898614 0.661697805
vn -0.185962886 -0.577108979 0.795212626
vn -0.195430338 -0.738184929 0.645670235
vn 0.00093698781 -0.673143387 0.73951149
vn 0.0209094528 -0.732866943 0.680050671
vn -0.349389553 -0.640416801 0.683954179
vn -0.639957309 -0.660056472 0.393421024
f 1/1/1 2/2/2 3/3/3
f 2/2/2 1/1/1 4/4/4
f 5/5/5 6/6/6 7/7/7
f 6/6/6 5/5/5 8/8/8
f 9/9/9 10/10/10 11/11/11
f 10/10/10 9/9/9 12/12/12
f 13/13/13 14/14/14 15/15/15
f 14/14/14 13/13/13 16/16/16
f 17/17/17 18/18/18 19/19/19
f 19/19/19 20/20/20 17/17/17
f 16/16/16 2/2/2 4/4/4
f 2/2/2 16/16/16 13/13/13
f 21/21/21 22/22/22 23/23/23
f 23/23/23 22/22/22 24/24/24
f 12/12/12 7/7/7 10/10/10
f 7/7/7 6/6/6 10/10/10
f 25/25/25 26/26/26 27/27/27
f 26/26/26 25/25/25 28/28/28
f 29/29/29 30/30/30 31/31/31
f 31/31/31 30/30/30 32/32/32
f 33/33/33 34/34/34 35/35/35
f 33/33/33 35/35/35 36/36/36
f 37/37/37 38/38/38 39/39/39
f 38/38/38 37/37/37 40/40/40
f 41/41/41 42/42/42 43/43/43
f 43/43/43 44/44/44 41/41/41
f 45/45/45 46/46/46 47/47/47
f 46/46/46 45/45/45 48/48/48
f 49/49/49 50/50/50 51/51/51
f 50/50/50 49/49/49 52/52/52
f 53/53/53 54/54/54 55/55/55
f 54/54/54 53/53/53 56/56/56
f 57/57/57 58/58/58 59/59/59
f 58/58/58 57/57/57 60/60/60
f 61/61/61 62/62/62 63/63/63
f 62/62/62 61/61/61 64/64/64
f 65/65/65 66/66/66 67/67/67
f 68/68/68 67/67/67 66/66/66
f 69/69/69 70/70/70 71/71/71
f 69/69/69 71/71/71 72/72/72
f 73/73/73 74/74/74 75/75/75
f 74/74/74 73/73/73 76/76/76
f 77/77/77 78/78/78 79/79/79
f 79/79/79 78/78/78 80/80/80
f 81/81/81 82/82/82 83/83/83
f 83/83/83 84/84/84 81/81/81
f 85/85/85 86/86/86 87/87/87
f 86/86/86 85/85/85 88/88/88
f 89/89/89 90/90/90 91/91/91
f 91/91/91 90/90/90 92/92/92
f 93/93/93 94/94/94 95/95/95
f 95/95/95 94/94/94 96/96/96
f 97/97/97 98/98/98 99/99/99
f 98/98/98 100/100/100 99/99/99
f 101/101/101 102/102/102 103/103/103
f 102/102/102 101/101/101 104/104/104
f 105/105/105 106/106/106 107/107/107
f 106/106/106 105/105/105 108/108/108
f 109/109/109 110/110/110 111/111/111
f 110/110/110 109/109/109 112/112/112
f 113/113/113 114/114/114 115/115/115
f 114/114/114 113/113/113 116/116/116
f 117/117/117 118/118/118 119/119/119
f 118/118/118 120/120/120 119/119/119
f 121/121/121 122/122/122 123/123/123
f 122/122/122 121/121/121 124/124/124
f 125/125/125 126/126/126 127/127/127
f 127/127/127 126/126/126 128/128/128
f 129/129/129 130/130/130 131/131/131
f 130/130/130 132/132/132 131/131/131
f 133/133/133 134/134/134 135/135/135
f 134/134/134 133/133/133 136/136/136
f 137/137/137 138/138/138 139/139/139
f 138/138/138 140/140/140 139/139/139
f 141/141/141 142/142/142 143/143/143
f 142/142/142 141/141/141 144/144/144
f 145/145/145 146/146/146 147/147/147
f 145/145/145 148/148/148 149/149/149
f 148/148/148 145/145/145 147/147/147
f 150/150/150 141/141/141 143/143/143
f 151/151/151 152/152/152 153/153/153
f 152/152/152 151/151/151 154/154/154
f 155/155/155 156/156/156 157/157/157
f 156/156/156 155/155/155 158/158/158
f 159/159/159 160/160/160 161/161/161
f 160/160/160 162/162/162 161/161/161
f 163/163/163 164/164/164 165/165/165
f 164/164/164 163/163/163 166/166/166
f 167/167/167 168/168/168 169/169/169
f 168/168/168 167/167/167 170/170/170
f 171/171/171 172/172/172 173/173/173
f 172/172/172 171/171/171 174/174/174
f 175/175/175 176/176/176 177/177/177
f 176/176/176 175/175/175 178/178/178
f 179/179/179 180/180/180 181/181/181
f 180/180/180 179/179/179 182/182/182
f 183/183/183 184/184/184 185/185/185
f 183/183/183 185/185/185 186/186/186
f 187/187/187 188/188/188 189/189/189
f 188/188/188 187/187/187 190/190/190
f 191/191/191 192/192/192 193/193/193
f 192/192/192 191/191/191 194/194/194
f 195/195/195 196/196/196 197/197/197
f 197/197/197 196/196/196 198/198/198
f 199/199/199 200/200/200 201/201/201
f 200/200/200 202/202/202 201/201/201
f 203/203/203 204/204/204 205/205/205
f 205/205/205 204/204/204 206/206/206
f 207/207/207 208/208/208 209/209/209
f 208/208/208 207/207/207 210/210/210
f 211/211/211 212/212/212 213/213/213
f 212/212/212 211/211/211 214/214/214
f 215/215/215 216/216/216 217/217/217
f 217/217/217 218/218/218 215/215/215
f 219/219/219 220/220/220 221/221/221
f 220/220/220 219/219/219 222/222/222
f 223/223/223 224/224/224 225/225/225
f 223/223/223 225/225/225 226/226/226
f 227/227/227 228/228/228 229/229/229
f 227/227/227 229/229/229 230/230/230
f 231/231/231 232/232/232 233/233/233
f 233/233/233 232/232/232 234/234/234
f 235/235/235 236/236/236 237/237/237
f 237/237/237 236/236/236 238/238/238
f 239/239/239 240/240/240 241/241/241
f 240/240/240 239/239/239 242/242/242
f 243/243/243 244/244/244 245/245/245
f 244/244/244 243/243/243 246/246/246
f 247/247/247 248/248/248 249/249/249
f 248/248/248 250/250/250 249/249/249
f 251/251/251 252/252/252 253/253/253
f 252/252/252 251/251/251 254/254/254
f 255/255/255 256/256/256 257/257/257
f 256/256/256 255/255/255 258/258/258
f 259/259/259 260/260/260 261/261/261
f 260/260/260 259/259/259 262/262/262
f 263/263/263 264/264/264 265/265/265
f 265/265/265 266/266/266 263/263/263
f 267/267/267 268/268/268 269/269/269
f 269/269/269 268/268/268 270/270/270
f 271/271/271 272/272/272 273/273/273
f 273/273/273 274/274/274 271/271/271
f 275/275/275 276/276/276 277/277/277
f 276/276/276 275/275/275 278/278/278
f 279/279/279 280/280/280 281/281/281
f 280/280/280 279/279/279 282/282/282
f 283/283/283 284/284/284 285/285/285
f 284/284/284 286/286/286 285/285/285
f 287/287/287 288/288/288 289/289/289
f 288/288/288 287/287/287 290/290/290
f 291/291/291 292/292/292 293/293/293
f 292/292/292 291/291/291 294/294/294
f 295/295/295 296/296/296 297/297/297
f 296/296/296 295/295/295 298/298/298
f 299/299/299 300/300/300 301/301/301
f 300/300/300 299/299/299 302/302/302
f 303/303/303 304/304/304 305/305/305
f 304/304/304 303/303/303 306/306/306
f 307/307/307 308/308/308 309/309/309
f 308/308/308 307/307/307 310/310/310
f 311/311/311 312/312/312 313/313/313
f 312/312/312 314/314/314 313/313/313
f 315/315/315 316/316/316 317/317/317
f 316/316/316 315/315/315 318/318/318
f 319/319/319 320/320/320 321/321/321
f 320/320/320 319/319/319 322/322/322
f 323/323/323 324/324/324 325/325/325
f 324/324/324 323/323/323 326/326/326
f 327/327/327 328/328/328 329/329/329
f 330/330/330 329/329/329 328/328/328
f 331/331/331 332/332/332 333/333/333
f 332/332/332 331/331/331 334/334/334
f 335/335/335 336/336/336 337/337/337
f 336/336/336 335/335/335 338/338/338
f 339/339/339 340/340/340 341/341/341
f 341/341/341 340/340/340 342/342/342
f 343/343/343 344/344/344 345/345/345
f 344/344/344 343/343/343 346/346/346
f 347/347/347 348/348/348 349/349/349
f 348/348/348 347/347/347 350/350/350
f 351/351/351 352/352/352 353/353/353
f 351/351/351 353/353/353 354/354/354
f 352/352/352 351/351/351 355/355/355
f 356/356/356 357/357/357 358/358/358
f 357/357/357 356/356/356 359/359/359
f 360/360/360 361/361/361 362/362/362
f 361/361/361 360/360/360 363/363/363
f 364/364/364 361/361/361 363/363/363
f 365/365/365 366/366/366 367/367/367
f 368/368/368 367/367/367 366/366/366
f 369/369/369 370/370/370 371/371/371
f 372/372/372 371/371/371 370/370/370
f 373/373/373 374/374/374 375/375/375
f 374/374/374 373/373/373 376/376/376
f 377/377/377 378/378/378 379/379/379
f 378/378/378 380/380/380 379/379/379
f 381/381/381 382/382/382 383/383/383
f 382/382/382 381/381/381 384/384/384
f 385/385/385 386/386/386 387/387/387
f 385/385/385 387/387/387 388/388/388
f 389/389/389 390/390/390 391/391/391
f 390/390/390 389/389/389 392/392/392
f 393/393/393 394/394/394 395/395/395
f 393/393/393 395/395/395 396/396/396
f 397/397/397 398/398/398 399/399/399
f 399/399/399 398/398/398 400/400/400
f 401/401/401 402/402/402 403/403/403
f 402/402/402 401/401/401 404/404/404
f 405/405/405 406/406/406 407/407/407
f 408/408/408 407/407/407 406/406/406
f 409/409/409 410/410/410 411/411/411
f 410/410/410 409/409/409 412/412/412
f 413/413/413 414/414/414 415/415/415
f 413/413/413 415/415/415 416/416/416
f 417/417/417 418/418/418 419/419/419
f 418/418/418 417/417/417 420/420/420
f 421/421/421 422/422/422 423/423/423
f 422/422/422 421/421/421 424/424/424
f 425/425/425 426/426/426 427/427/427
f 426/426/426 425/425/425 428/428/428
f 429/429/429 430/430/430 431/431/431
f 431/431/431 430/430/430 432/432/432
f 433/433/433 434/434/434 435/435/435
f 434/434/434 433/433/433 436/436/436
f 437/437/437 438/438/438 439/439/439
f 438/438/438 437/437/437 440/440/440
f 441/441/441 442/442/442 443/443/443
f 442/442/442 441/441/441 444/444/444
f 445/445/445 446/446/446 447/447/447
f 446/446/446 445/445/445 448/448/448
f 449/449/449 450/450/450 451/451/451
f 450/450/450 449/449/449 452/452/452
f 453/453/453 454/454/454 455/455/455
f 454/454/454 456/456/456 455/455/455
f 457/457/457 458/458/458 459/459/459
f 458/458/458 457/457/457 460/460/460
f 461/461/461 462/462/462 463/463/463
f 463/463/463 462/462/462 464/464/464
f 465/465/465 466/466/466 467/467/467
f 466/466/466 465/465/465 468/468/468
f 469/469/469 470/470/470 471/471/471
f 470/470/470 469/469/469 472/472/472
f 473/473/473 474/474/474 475/475/475
f 474/474/474 473/473/473 476/476/476
f 477/477/477 478/478/478 479/479/479
f 477/477/477 479/479/479 480/480/480
f 481/481/481 482/482/482 483/483/483
f 481/481/481 483/483/483 484/484/484
f 485/485/485 486/486/486 487/487/487
f 487/487/487 486/486/486 488/488/488
f 489/489/489 490/490/490 491/491/491
f 490/490/490 489/489/489 492/492/492
f 493/493/493 494/494/494 495/495/495
f 494/494/494 493/493/493 496/496/496
f 497/497/497 498/498/498 499/499/499
f 499/499/499 498/498/498 500/500/500
f 501/501/501 502/502/502 503/503/503
f 503/503/503 504/504/504 501/501/501
f 505/505/505 506/506/506 507/507/507
f 506/506/506 505/505/505 508/508/508
f 509/509/509 510/510/510 511/511/511
f 509/509/509 511/511/511 512/512/512
f 513/513/513 514/514/514 515/515/515
f 513/513/513 515/515/515 516/516/516
f 517/517/517 518/518/518 519/519/519
f 519/519/519 518/518/518 520/520/520
f 521/521/521 522/522/522 523/523/523
f 523/523/523 522/522/522 524/524/524
f 525/525/525 526/526/526 527/527/527
f 526/526/526 525/525/525 528/528/528
f 529/529/529 530/530/530 531/531/531
f 530/530/530 529/529/529 532/532/532
f 533/533/533 534/534/534 535/535/535
f 533/533/533 535/535/535 536/536/536
f 537/537/537 538/538/538 539/539/539
f 538/538/538 537/537/537 540/540/540
f 541/541/541 542/542/542 543/543/543
f 543/543/543 542/542/542 544/544/544
f 545/545/545 546/546/546 547/547/547
f 546/546/546 545/545/545 548/548/548
f 549/549/549 550/550/550 551/551/551
f 551/551/551 550/550/550 552/552/552
f 553/553/553 554/554/554 555/555/555
f 555/555/555 554/554/554 556/556/556
f 557/557/557 558/558/558 559/559/559
f 558/558/558 557/557/557 560/560/560
f 561/561/561 562/562/562 563/563/563
f 562/562/562 561/561/561 564/564/564
f 565/565/565 566/566/566 567/567/567
f 567/567/567 568/568/568 565/565/565
f 569/569/569 570/570/570 571/571/571
f 571/571/571 570/570/570 572/572/572
f 573/573/573 574/574/574 575/575/575
f 574/574/574 573/573/573 576/576/576
f 577/577/577 578/578/578 579/579/579
f 578/578/578 577/577/577 580/580/580
f 581/581/581 582/582/582 583/583/583
f 583/583/583 584/584/584 581/581/581
f 585/585/585 586/586/586 587/587/587
f 586/586/586 585/585/585 588/588/588
f 589/589/589 590/590/590 591/591/591
f 590/590/590 589/589/589 592/592/592
f 592/592/592 593/593/593 590/590/590
f 593/593/593 594/594/594 590/590/590
f 587/587/587 594/594/594 595/595/595
f 593/593/593 595/595/595 594/594/594
f 596/596/596 587/587/587 595/595/595
f 587/587/587 596/596/596 585/585/585
f 597/597/597 591/591/591 598/598/598
f 598/598/598 599/599/599 597/597/597
f 591/591/591 590/590/590 598/598/598
f 600/600/600 601/601/601 602/602/602
f 602/602/602 603/603/603 600/600/600
f 604/604/604 605/605/605 606/606/606
f 606/606/606 605/605/605 607/607/607
f 608/608/608 609/609/609 610/610/610
f 610/610/610 611/611/611 608/608/608
f 612/612/612 613/613/613 614/614/614
f 613/613/613 615/615/615 614/614/614
f 612/612/612 616/616/616 613/613/613
f 616/616/616 612/612/612 617/617/617
f 618/618/618 619/619/619 620/620/620
f 620/620/620 619/619/619 621/621/621
f 622/622/622 623/623/623 624/624/624
f 623/623/623 622/622/622 625/625/625
f 626/626/626 627/627/627 628/628/628
f 627/627/627 626/626/626 629/629/629
f 630/630/630 631/631/631 632/632/632
f 632/632/632 633/633/633 630/630/630
f 634/634/634 635/635/635 636/636/636
f 636/636/636 637/637/637 634/634/634
f 635/635/635 638/638/638 636/636/636
f 639/639/639 636/636/636 638/638/638
f 639/639/639 638/638/638 640/640/640
f 640/640/640 641/641/641 639/639/639
f 641/641/641 642/642/642 639/639/639
f 639/639/639 642/642/642 643/643/643
f 636/636/636 639/639/639 637/637/637
f 639/639/639 643/643/643 637/637/637
f 644/644/644 645/645/645 646/646/646
f 645/645/645 644/644/644 647/647/647
f 648/648/648 649/649/649 650/650/650
f 649/649/649 648/648/648 651/651/651
f 652/652/652 653/653/653 654/654/654
f 653/653/653 652/652/652 655/655/655
f 656/656/656 657/657/657 658/658/658
f 657/657/657 656/656/656 659/659/659
f 660/660/660 661/661/661 662/662/662
f 661/661/661 663/663/663 662/662/662
f 664/664/664 665/665/665 666/666/666
f 665/665/665 667/667/667 666/666/666
f 668/668/668 669/669/669 670/670/670
f 669/669/669 671/671/671 670/670/670
f 672/672/672 673/673/673 674/674/674
f 672/672/672 674/674/674 675/675/675
f 673/673/673 676/676/676 677/677/677
f 677/677/677 674/674/674 673/673/673
f 678/678/678 679/679/679 680/680/680
f 679/679/679 681/681/681 680/680/680
f 680/680/680 682/682/682 678/678/678
f 683/683/683 678/678/678 682/682/682
f 684/684/684 685/685/685 686/686/686
f 684/684/684 686/686/686 687/687/687
f 688/688/688 686/686/686 685/685/685
f 686/686/686 688/688/688 689/689/689
f 690/690/690 691/691/691 692/692/692
f 690/690/690 692/692/692 693/693/693
f 694/694/694 692/692/692 691/691/691
f 692/692/692 694/694/694 695/695/695
f 696/696/696 697/697/697 698/698/698
f 696/696/696 698/698/698 699/699/699
f 700/700/700 701/701/701 702/702/702
f 701/701/701 700/700/700 703/703/703
f 704/704/704 696/696/696 705/705/705
f 696/696/696 704/704/704 697/697/697
f 706/706/706 707/707/707 708/708/708
f 709/709/709 707/707/707 706/706/706
f 707/707/707 709/709/709 710/710/710
f 711/711/711 707/707/707 710/710/710
f 711/711/711 710/710/710 712/712/712
f 713/713/713 714/714/714 715/715/715
f 715/715/715 714/714/714 716/716/716
f 717/717/717 718/718/718 719/719/719
f 718/718/718 717/717/717 720/720/720
f 721/721/721 722/722/722 723/723/723
f 723/723/723 724/724/724 721/721/721
f 725/725/725 726/726/726 727/727/727
f 727/727/727 726/726/726 728/728/728
f 729/729/729 730/730/730 731/731/731
f 730/730/730 729/729/729 732/732/732
f 733/733/733 734/734/734 735/735/735
f 734/734/734 733/733/733 736/736/736
f 737/737/737 738/738/738 739/739/739
f 738/738/738 737/737/737 740/740/740
f 741/741/741 742/742/742 743/743/743
f 742/742/742 741/741/741 744/744/744
f 745/745/745 746/746/746 747/747/747
f 748/748/748 749/749/749 750/750/750
f 748/748/748 750/750/750 751/751/751
f 752/752/752 753/753/753 754/754/754
f 752/752/752 754/754/754 755/755/755
f 756/756/756 757/757/757 758/758/758
f 759/759/759 760/760/760 761/761/761
f 761/761/761 762/762/762 759/759/759
f 763/763/763 764/764/764 765/765/765
f 765/765/765 766/766/766 763/763/763
f 767/767/767 768/768/768 769/769/769
f 768/768/768 767/767/767 770/770/770
f 771/771/771 772/772/772 773/773/773
f 772/772/772 771/771/771 774/774/774
f 775/775/775 776/776/776 777/777/777
f 776/776/776 775/775/775 778/778/778
f 779/779/779 780/780/780 781/781/781
f 780/780/780 779/779/779 782/782/782
f 783/783/783 784/784/784 785/785/785
f 784/784/784 783/783/783 786/786/786
f 787/787/787 788/788/788 789/789/789
f 788/788/788 787/787/787 790/790/790
f 791/791/791 792/792/792 793/793/793
f 794/794/794 795/795/795 796/796/796
f 795/795/795 794/794/794 797/797/797
f 798/798/798 799/799/799 800/800/800
f 799/799/799 798/798/798 801/801/801
f 802/802/802 803/803/803 804/804/804
f 805/805/805 806/806/806 807/807/807
f 808/808/808 807/807/807 806/806/806
f 809/809/809 810/810/810 811/811/811
f 812/812/812 811/811/811 810/810/810
f 813/813/813 814/814/814 815/815/815
f 814/814/814 813/813/813 816/816/816
f 817/817/817 818/818/818 819/819/819
f 818/818/818 817/817/817 820/820/820
f 821/821/821 822/822/822 823/823/823
f 823/823/823 822/822/822 824/824/824
f 825/825/825 826/826/826 827/827/827
f 827/827/827 826/826/826 828/828/828
f 829/829/829 830/830/830 831/831/831
f 830/830/830 829/829/829 832/832/832
f 833/833/833 834/834/834 835/835/835
f 834/834/834 833/833/833 836/836/836
f 837/837/837 838/838/838 839/839/839
f 840/840/840 841/841/841 842/842/842
f 841/841/841 840/840/840 843/843/843
f 844/844/844 845/845/845 846/846/846
f 845/845/845 844/844/844 847/847/847
f 848/848/848 849/849/849 850/850/850
