# Extracted from the Cocos Creator 3.8.3 playable build
# Geometry-only OBJ preview for Unity; rig and animation stay in the raw assets.
o coin
v -0.488625795 -0.18362467 -0.465386719
v -0.488625795 0.10262569 -0.465386599
v -0.00384519203 -0.183624625 -0.666189432
v -0.00384519203 0.102625728 -0.666189313
v -0.689428568 -0.183624804 0.0193938836
v -0.488625795 0.10262569 -0.465386599
v -0.488625795 -0.18362467 -0.465386719
v -0.689428568 0.102625579 0.0193939768
v -0.488625795 -0.183624879 0.504174471
v -0.689428568 0.102625579 0.0193939768
v -0.689428568 -0.183624804 0.0193938836
v -0.488625795 0.102625482 0.50417459
v -0.00384519203 0.102625437 0.704977334
v -0.488625795 0.102625482 0.50417459
v -0.488625795 -0.183624879 0.504174471
v -0.00384519203 -0.183624938 0.704977214
v -0.00384519203 0.102625437 0.704977334
v 0.480935425 -0.183624879 0.504174471
v 0.480935425 0.102625482 0.50417459
v -0.00384519203 -0.183624938 0.704977214
v 0.480935425 0.102625482 0.50417459
v 0.480935425 -0.183624879 0.504174471
v 0.681738079 0.102625579 0.0193939768
v 0.681738079 -0.183624804 0.0193938836
v 0.438887298 0.102625579 0.0193940029
v 0.276970118 0.0267530084 -0.261421382
v 0.393287688 0.026752932 0.0193939861
v 0.309213966 0.102625668 -0.2936652
v 0.681738079 0.102625579 0.0193939768
v 0.681738079 -0.183624804 0.0193938836
v 0.480935425 0.10262569 -0.465386599
v 0.480935425 -0.18362467 -0.465386719
v -0.00384519203 -0.183624625 -0.666189432
v 0.480935425 0.10262569 -0.465386599
v 0.480935425 -0.18362467 -0.465386719
v -0.00384519203 0.102625728 -0.666189313
v -0.488625795 -0.183624879 0.504174471
v 0.681738079 -0.183624804 0.0193938836
v 0.480935425 -0.183624879 0.504174471
v -0.00384519203 -0.183624625 -0.666189432
v 0.480935425 -0.18362467 -0.465386719
v -0.488625795 -0.18362467 -0.465386719
v -0.00384519203 -0.183624938 0.704977214
v -0.689428568 -0.183624804 0.0193938836
v -0.00384519203 0.102625728 -0.666189313
v -0.488625795 0.10262569 -0.465386599
v -0.00384525163 0.102625698 -0.423338503
v -0.316904455 0.102625668 -0.2936652
v -0.689428568 0.102625579 0.0193939768
v -0.446577817 0.102625579 0.0193940029
v -0.488625795 0.102625482 0.50417459
v -0.316904455 0.102625504 0.332453221
v -0.00384525163 0.102625467 0.462126613
v -0.00384519203 0.102625437 0.704977334
v 0.309213966 0.102625504 0.332453221
v 0.480935425 0.102625482 0.50417459
v 0.438887298 0.102625579 0.0193940029
v 0.681738079 0.102625579 0.0193939768
v 0.309213966 0.102625668 -0.2936652
v 0.480935425 0.10262569 -0.465386599
v 0.276970118 0.0267530084 -0.261421382
v -0.00384525163 0.0267530363 -0.377738982
v -0.284660637 0.0267530084 -0.261421382
v -0.284660637 0.0267528556 0.300209403
v -0.400978208 0.026752932 0.0193939861
v 0.276970118 0.0267528556 0.300209403
v -0.00384525163 0.0267528277 0.416526973
v 0.393287688 0.026752932 0.0193939861
v -0.00384525163 0.102625467 0.462126613
v 0.276970118 0.0267528556 0.300209403
v -0.00384525163 0.0267528277 0.416526973
v 0.309213966 0.102625504 0.332453221
v -0.284660637 0.0267528556 0.300209403
v -0.446577817 0.102625579 0.0193940029
v -0.316904455 0.102625504 0.332453221
v -0.400978208 0.026752932 0.0193939861
v -0.284660637 0.0267530084 -0.261421382
v -0.00384525163 0.102625698 -0.423338503
v -0.316904455 0.102625668 -0.2936652
v -0.00384525163 0.0267530363 -0.377738982
v -0.00384525163 0.0267530363 -0.377738982
v 0.276970118 0.0267530084 -0.261421382
v -0.00384525163 0.102625698 -0.423338503
v 0.309213966 0.102625668 -0.2936652
v 0.309213966 0.102625504 0.332453221
v 0.438887298 0.102625579 0.0193940029
v 0.276970118 0.0267528556 0.300209403
v 0.393287688 0.026752932 0.0193939861
v -0.284660637 0.0267528556 0.300209403
v -0.00384525163 0.102625467 0.462126613
v -0.00384525163 0.0267528277 0.416526973
v -0.316904455 0.102625504 0.332453221
v -0.284660637 0.0267530084 -0.261421382
v -0.446577817 0.102625579 0.0193940029
v -0.400978208 0.026752932 0.0193939861
v -0.316904455 0.102625668 -0.2936652
vt 0.77026391 0.213721037
vt 0.880493343 0.226702332
vt 0.795060039 0.00316888094
vt 0.905289531 0.0161503553
vt 0.794585466 0.367532849
vt 0.880493343 0.226702332
vt 0.77026391 0.213721037
vt 0.904814839 0.380514324
vt 0.296884775 0.688466191
vt 0.161853433 0.88603276
vt 0.272082627 0.899017274
vt 0.1866557 0.675481439
vt 0.162338614 0.521668851
vt 0.1866557 0.675481439
vt 0.296884775 0.688466191
vt 0.272567809 0.534653366
vt 0.865383208 0.976374507
vt 0.976374626 0.764367402
vt 0.865383327 0.764367342
vt 0.976374507 0.976374507
vt 0.00366965379 0.997281909
vt 0.11466115 0.997281909
vt 0.0458140299 0.847370207
vt 0.156805217 0.847370207
vt 0.587188065 0.0796610713
vt 0.604492366 0.232588172
vt 0.620949149 0.0918006301
vt 0.568841875 0.236614287
vt 0.0458140299 0.847370207
vt 0.156805217 0.847370207
vt 0.0458141603 0.635363102
vt 0.156805336 0.635363042
vt 0.114661291 0.48545146
vt 0.0458141603 0.635363102
vt 0.156805336 0.635363042
vt 0.00366979837 0.48545146
vt 0.153447926 0.00353634357
vt 0.153448105 0.515366912
vt 0.00353619456 0.365455389
vt 0.515366912 0.365455151
vt 0.36545527 0.515366793
vt 0.515366793 0.153447866
vt 0.00353637338 0.153448224
vt 0.365455061 0.00353634357
vt 0.372551709 0.522463322
vt 0.37255168 0.734470308
vt 0.437717736 0.549455941
vt 0.437717766 0.707477748
vt 0.522463262 0.884382069
vt 0.54945612 0.819216013
vt 0.734470427 0.88438189
vt 0.707477748 0.819215775
vt 0.819216013 0.707477629
vt 0.884382069 0.734470189
vt 0.819216013 0.549455881
vt 0.884382069 0.522463083
vt 0.707477629 0.437717557
vt 0.734470367 0.372551441
vt 0.549455941 0.437717676
vt 0.522463202 0.37255156
vt 0.548323035 0.790298939
vt 0.690069258 0.79029876
vt 0.790298879 0.690069139
vt 0.690069199 0.448093295
vt 0.790298879 0.548322976
vt 0.448093444 0.548323035
vt 0.548323095 0.448093295
vt 0.448093444 0.690069258
vt 0.556598186 0.275977433
vt 0.539301932 0.123049319
vt 0.522837877 0.263835907
vt 0.5749529 0.119025111
vt 0.757939994 0.264819622
vt 0.722997904 0.114935756
vt 0.722997844 0.272957444
vt 0.757940054 0.123073578
vt 0.621549547 0.134456277
vt 0.656491578 0.284340382
vt 0.656491697 0.126318574
vt 0.621549547 0.276202679
vt 0.620842695 0.335411429
vt 0.604492366 0.232588172
vt 0.587069333 0.351243913
vt 0.568841875 0.236614287
vt 0.5749529 0.119025111
vt 0.556731284 0.00439459085
vt 0.539301932 0.123049319
vt 0.522957265 0.0202251673
vt 0.757939994 0.264819622
vt 0.754410505 0.384695768
vt 0.786117315 0.365049362
vt 0.722997844 0.272957444
vt 0.786117435 0.0228438377
vt 0.722997904 0.114935756
vt 0.757940054 0.123073578
vt 0.754410684 0.00319749117
vn -0.382683486 1.98414867e-07 -0.923879564
vn -0.382683486 1.98414867e-07 -0.923879564
vn -0.382683486 1.98414867e-07 -0.923879564
vn -0.382683486 1.98414867e-07 -0.923879564
vn -0.923879504 1.48811111e-07 -0.382683575
vn -0.923879504 1.48811111e-07 -0.382683575
vn -0.923879504 1.48811111e-07 -0.382683575
vn -0.923879504 1.48811111e-07 -0.382683575
vn -0.923879504 -1.48811125e-07 0.382683605
vn -0.923879504 -1.48811125e-07 0.382683605
vn -0.923879504 -1.48811125e-07 0.382683605
vn -0.923879504 -1.48811125e-07 0.382683605
vn -0.382683545 -3.96829734e-07 0.923879564
vn -0.382683545 -3.96829734e-07 0.923879564
vn -0.382683545 -3.96829734e-07 0.923879564
vn -0.382683545 -3.96829734e-07 0.923879564
vn 0.382683486 -3.96829677e-07 0.923879504
vn 0.382683486 -3.96829677e-07 0.923879504
vn 0.382683486 -3.96829677e-07 0.923879504
vn 0.382683486 -3.96829677e-07 0.923879504
vn 0.923879504 -1.48811125e-07 0.382683307
vn 0.923879504 -1.48811125e-07 0.382683307
vn 0.923879504 -1.48811125e-07 0.382683307
vn 0.923879504 -1.48811125e-07 0.382683307
vn -0.807719469 0.485441238 0.334568441
vn -0.807719469 0.485441238 0.334568441
vn -0.807719469 0.485441238 0.334568441
vn -0.807719469 0.485441238 0.334568441
vn 0.923879623 1.48811125e-07 -0.382683307
vn 0.923879623 1.48811125e-07 -0.382683307
vn 0.923879623 1.48811125e-07 -0.382683307
vn 0.923879623 1.48811125e-07 -0.382683307
vn 0.382683456 1.98414838e-07 -0.923879504
vn 0.382683456 1.98414838e-07 -0.923879504
vn 0.382683456 1.98414838e-07 -0.923879504
vn 0.382683456 1.98414838e-07 -0.923879504
vn 5.60434188e-09 -1 -2.21691636e-07
vn 5.60434188e-09 -1 -2.21691636e-07
vn 5.60434188e-09 -1 -2.21691636e-07
vn 5.60434188e-09 -1 -2.21691636e-07
vn 5.60434188e-09 -1 -2.21691636e-07
vn 5.60434188e-09 -1 -2.21691636e-07
vn 5.60434188e-09 -1 -2.21691636e-07
vn 5.60434188e-09 -1 -2.21691636e-07
vn 2.26181344e-15 1 1.37093537e-07
vn -3.42547111e-08 1 1.85684272e-07
vn -3.61868272e-15 1 1.37093522e-07
vn -3.42547111e-08 1 1.85684286e-07
vn -5.41464695e-09 1 2.18333341e-07
vn -5.41464162e-09 1 2.18333369e-07
vn 2.88400681e-08 1 1.73044242e-07
vn 2.88400717e-08 1 1.73044256e-07
vn 3.6186823e-15 1 1.43696866e-07
vn -7.53937779e-16 1 1.4369688e-07
vn -3.42547075e-08 1 1.7304427e-07
vn -3.42547111e-08 1 1.73044285e-07
vn -5.41464562e-09 1 2.18333383e-07
vn -5.41464251e-09 1 2.18333412e-07
vn 2.88400575e-08 1 1.856843e-07
vn 2.88400628e-08 1 1.85684328e-07
vn 3.6536032e-09 1 2.6730271e-07
vn 3.6536032e-09 1 2.6730271e-07
vn 3.6536032e-09 1 2.6730271e-07
vn 3.6536032e-09 1 2.6730271e-07
vn 3.6536032e-09 1 2.6730271e-07
vn 3.6536032e-09 1 2.6730271e-07
vn 3.6536032e-09 1 2.6730271e-07
vn 3.6536032e-09 1 2.6730271e-07
vn -0.334568441 0.485441446 -0.80771929
vn -0.334568441 0.485441446 -0.80771929
vn -0.334568441 0.485441446 -0.80771929
vn -0.334568441 0.485441446 -0.80771929
vn 0.807719588 0.485441327 -0.334568113
vn 0.807719588 0.485441327 -0.334568113
vn 0.807719588 0.485441327 -0.334568113
vn 0.807719588 0.485441327 -0.334568113
vn 0.334568411 0.485440522 0.807719886
vn 0.334568411 0.485440522 0.807719886
vn 0.334568411 0.485440522 0.807719886
vn 0.334568411 0.485440522 0.807719886
vn -0.334568381 0.485440731 0.807719767
vn -0.334568381 0.485440731 0.807719767
vn -0.334568381 0.485440731 0.807719767
vn -0.334568381 0.485440731 0.807719767
vn -0.807719409 0.485441417 -0.334568352
vn -0.807719409 0.485441417 -0.334568352
vn -0.807719409 0.485441417 -0.334568352
vn -0.807719409 0.485441417 -0.334568352
vn 0.334568441 0.485441297 -0.807719409
vn 0.334568441 0.485441297 -0.807719409
vn 0.334568441 0.485441297 -0.807719409
vn 0.334568441 0.485441297 -0.807719409
vn 0.807719588 0.485441118 0.334568352
vn 0.807719588 0.485441118 0.334568352
vn 0.807719588 0.485441118 0.334568352
vn 0.807719588 0.485441118 0.334568352
f 1/1/1 2/2/2 3/3/3
f 3/3/3 2/2/2 4/4/4
f 5/5/5 6/6/6 7/7/7
f 6/6/6 5/5/5 8/8/8
f 9/9/9 10/10/10 11/11/11
f 10/10/10 9/9/9 12/12/12
f 13/13/13 14/14/14 15/15/15
f 13/13/13 15/15/15 16/16/16
f 17/17/17 18/18/18 19/19/19
f 18/18/18 17/17/17 20/20/20
f 21/21/21 22/22/22 23/23/23
f 22/22/22 24/24/24 23/23/23
f 25/25/25 26/26/26 27/27/27
f 26/26/26 25/25/25 28/28/28
f 29/29/29 30/30/30 31/31/31
f 30/30/30 32/32/32 31/31/31
f 33/33/33 34/34/34 35/35/35
f 34/34/34 33/33/33 36/36/36
f 37/37/37 38/38/38 39/39/39
f 38/38/38 40/40/40 41/41/41
f 38/38/38 42/42/42 40/40/40
f 37/37/37 39/39/39 43/43/43
f 42/42/42 38/38/38 37/37/37
f 42/42/42 37/37/37 44/44/44
f 45/45/45 46/46/46 47/47/47
f 47/47/47 46/46/46 48/48/48
f 49/49/49 48/48/48 46/46/46
f 48/48/48 49/49/49 50/50/50
f 50/50/50 49/49/49 51/51/51
f 50/50/50 51/51/51 52/52/52
f 51/51/51 53/53/53 52/52/52
f 53/53/53 51/51/51 54/54/54
f 54/54/54 55/55/55 53/53/53
f 55/55/55 54/54/54 56/56/56
f 56/56/56 57/57/57 55/55/55
f 57/57/57 56/56/56 58/58/58
f 58/58/58 59/59/59 57/57/57
f 59/59/59 58/58/58 60/60/60
f 47/47/47 59/59/59 45/45/45
f 59/59/59 60/60/60 45/45/45
f 61/61/61 62/62/62 63/63/63
f 64/64/64 63/63/63 65/65/65
f 66/66/66 61/61/61 63/63/63
f 66/66/66 63/63/63 64/64/64
f 66/66/66 64/64/64 67/67/67
f 61/61/61 66/66/66 68/68/68
f 69/69/69 70/70/70 71/71/71
f 70/70/70 69/69/69 72/72/72
f 73/73/73 74/74/74 75/75/75
f 74/74/74 73/73/73 76/76/76
f 77/77/77 78/78/78 79/79/79
f 78/78/78 77/77/77 80/80/80
f 81/81/81 82/82/82 83/83/83
f 84/84/84 83/83/83 82/82/82
f 85/85/85 86/86/86 87/87/87
f 87/87/87 86/86/86 88/88/88
f 89/89/89 90/90/90 91/91/91
f 90/90/90 89/89/89 92/92/92
f 93/93/93 94/94/94 95/95/95
f 96/96/96 94/94/94 93/93/93
