# Extracted from the Cocos Creator 3.8.3 playable build
# Geometry-only OBJ preview for Unity; rig and animation stay in the raw assets.
o mesh_f0848989
v -0.0966187119 -0.0580282211 1.69356441
v 0.123573229 0.290028572 1.69376409
v -0.0966645032 0.290006638 1.6935643
v 0.12361902 -0.0580062866 1.69376421
v -0.0966187119 -0.0580282211 1.69356441
v 0.12450403 -0.0580065586 -2.65312552
v 0.12361902 -0.0580062866 1.69376421
v -0.0957337022 -0.0580294468 -2.65326953
v 0.123573229 0.290028572 1.69376409
v 0.124473497 0.290028334 -2.54820085
v -0.0966645032 0.290006638 1.6935643
v -0.0957642347 0.290006399 -2.54834437
v 0.124473497 0.290028334 -2.54820085
v 0.123573229 0.290028572 1.69376409
v 0.12361902 -0.0580062866 1.69376421
v 0.12450403 -0.0580065586 -2.65312552
v -0.0966187119 -0.0580282211 1.69356441
v -0.0957642347 0.290006399 -2.54834437
v -0.0957337022 -0.0580294468 -2.65326953
v -0.0966645032 0.290006638 1.6935643
v -0.0966186821 -0.590341508 1.93256867
v 0.123573251 -0.2422847 1.93276846
v -0.0966644809 -0.242306635 1.93256867
v 0.12361905 -0.590319574 1.93276846
v -0.0966186821 -0.590341508 1.93256867
v 0.12450406 -0.590320885 -2.65312576
v 0.12361905 -0.590319574 1.93276846
v -0.0957336724 -0.590341866 -2.65326929
v 0.123573251 -0.2422847 1.93276846
v 0.12447352 -0.242285103 -2.84211421
v -0.0966644809 -0.242306635 1.93256867
v -0.0957718417 -0.242307037 -2.84225726
v 0.123573251 -0.2422847 1.93276846
v 0.12450406 -0.590320885 -2.65312576
v 0.12447352 -0.242285103 -2.84211421
v 0.12361905 -0.590319574 1.93276846
v -0.0966644809 -0.242306635 1.93256867
v -0.0957336724 -0.590341866 -2.65326929
v -0.0966186821 -0.590341508 1.93256867
v -0.0957718417 -0.242307037 -2.84225726
v -0.132904157 0.986941099 0.939505279
v -0.132904083 -0.947160065 0.625803947
v -0.132896453 -0.947161913 0.939505339
v -0.132904157 0.98694104 0.625804842
v -0.132904157 0.98694104 0.625804842
v 0.00427243859 -0.947160125 0.46894601
v -0.132904083 -0.947160065 0.625803947
v 0.00426472444 0.986941934 0.468948573
v 0.141425982 0.986941993 0.625802934
v 0.141426057 -0.947161019 0.625801563
v 0.00427243859 -0.947160125 0.46894601
v 0.00426472444 0.986941934 0.468948573
v 0.141433686 -0.947160959 0.939502716
v 0.141425982 0.986941993 0.625802934
v 0.141433612 0.986942053 0.939504802
v 0.141426057 -0.947161019 0.625801563
v 0.00427243859 -0.947159946 1.09636164
v 0.141433612 0.986942053 0.939504802
v 0.00426472444 0.986941159 1.09636259
v 0.141433686 -0.947160959 0.939502716
v 0.00427243859 -0.947159946 1.09636164
v 0.00426472444 0.986941159 1.09636259
v -0.132904157 0.986941099 0.939505279
v -0.132896453 -0.947161913 0.939505339
v -0.0966187343 0.445381105 1.44050062
v 0.123573206 0.793437898 1.44070077
v -0.0966645256 0.793415964 1.44050097
v 0.123618998 0.445403039 1.44069946
v -0.0966187343 0.445381105 1.44050062
v 0.124511637 0.445402771 -2.81879807
v 0.123618998 0.445403039 1.44069946
v -0.0957337245 0.445379883 -2.81894255
v 0.123573206 0.793437898 1.44070077
v 0.124473475 0.79343766 -2.851933
v -0.0966645256 0.793415964 1.44050097
v -0.095764257 0.793416679 -2.85207653
v 0.123573206 0.793437898 1.44070077
v 0.124511637 0.445402771 -2.81879807
v 0.124473475 0.79343766 -2.851933
v 0.123618998 0.445403039 1.44069946
v -0.0966645256 0.793415964 1.44050097
v -0.0957337245 0.445379883 -2.81894255
v -0.0966187343 0.445381105 1.44050062
v -0.095764257 0.793416679 -2.85207653
v -0.132904157 0.986940324 -1.84316754
v -0.132904083 -0.94716084 -2.15686917
v -0.132896453 -0.947162688 -1.84316778
v -0.132904157 0.986940265 -2.15686822
v -0.132904157 0.986940265 -2.15686822
v 0.00427243859 -0.9471609 -2.3137269
v -0.132904083 -0.94716084 -2.15686917
v 0.00426472444 0.986941159 -2.31372452
v 0.141425982 0.986941218 -2.15687013
v 0.141426057 -0.947161794 -2.15687132
v 0.00427243859 -0.9471609 -2.3137269
v 0.00426472444 0.986941159 -2.31372452
v 0.141433686 -0.947161734 -1.84317017
v 0.141425982 0.986941218 -2.15687013
v 0.141433612 0.986941278 -1.84316826
v 0.141426057 -0.947161794 -2.15687132
v 0.00427243859 -0.947160721 -1.68631148
v 0.141433612 0.986941278 -1.84316826
v 0.00426472444 0.986940384 -1.68631005
v 0.141433686 -0.947161734 -1.84317017
v 0.00427243859 -0.947160721 -1.68631148
v 0.00426472444 0.986940384 -1.68631005
v -0.132904157 0.986940324 -1.84316754
v -0.132896453 -0.947162688 -1.84316778
v -0.224365354 0.974931657 1.4933126
v 0.232635379 1.36744213 1.49353135
v -0.224456906 1.36741638 1.49331248
v 0.232726932 0.974957407 1.49353099
v -0.222511411 0.974931419 -2.85104942
v 0.232726932 0.974957407 1.49353099
v -0.224365354 0.974931657 1.4933126
v 0.234573245 0.974956214 -2.85093117
v 0.232635379 1.36744213 1.49353135
v -0.222602963 1.36741602 -2.87821221
v -0.224456906 1.36741638 1.49331248
v 0.234481692 1.36744177 -2.87809396
v 0.232635379 1.36744213 1.49353135
v 0.234573245 0.974956214 -2.85093117
v 0.234481692 1.36744177 -2.87809396
v 0.232726932 0.974957407 1.49353099
v -0.224456906 1.36741638 1.49331248
v -0.222511411 0.974931419 -2.85104942
v -0.224365354 0.974931657 1.4933126
v -0.222602963 1.36741602 -2.87821221
v 0.362518311 -1.05130959 1.81346107
v 0.330635071 -1.04508913 -2.87455177
v 0.17314145 -0.757122934 1.81376815
v 0.158782929 -0.754406333 -2.87455082
v 0.17314145 -0.757122934 1.81376815
v 0.158782929 -0.754406333 -2.87455082
v -0.195106536 -0.753172815 1.81397414
v -0.183784515 -0.755401969 -2.87455082
v -0.195106536 -0.753172815 1.81397414
v -0.183784515 -0.755401969 -2.87455082
v -0.362518311 -1.07811737 1.8138746
v -0.342369109 -1.0819248 -2.87455177
v -0.362518311 -1.07811737 1.8138746
v -0.342369109 -1.0819248 -2.87455177
v -0.176986694 -1.36325073 1.81356847
v -0.173973083 -1.36362684 -2.87455201
v -0.0799865872 -0.912975907 2.87821221
v -0.362518311 -1.07811737 1.8138746
v -0.164810196 -1.07120097 2.87813497
v -0.195106536 -0.753172815 1.81397414
v -0.176986694 -1.36325073 1.81356847
v 0.192779541 -1.36272562 -2.87455201
v 0.216186523 -1.36744213 1.81336248
v -0.173973083 -1.36362684 -2.87455201
v 0.216186523 -1.36744213 1.81336248
v 0.192779541 -1.36272562 -2.87455201
v 0.362518311 -1.05130959 1.81346107
v 0.330635071 -1.04508913 -2.87455177
v -0.0737991408 -1.22706378 2.87794614
v 0.105186448 -0.913784623 2.8780992
v -0.164810196 -1.07120097 2.87813497
v -0.0799865872 -0.912975907 2.87821221
v 0.196189851 -1.06328547 2.87791085
v 0.120910637 -1.22045577 2.87783504
v 0.120910637 -1.22045577 2.87783504
v 0.362518311 -1.05130959 1.81346107
v 0.196189851 -1.06328547 2.87791085
v 0.216186523 -1.36744213 1.81336248
v -0.362518311 -1.07811737 1.8138746
v -0.0737991408 -1.22706378 2.87794614
v -0.164810196 -1.07120097 2.87813497
v -0.176986694 -1.36325073 1.81356847
v 0.17314145 -0.757122934 1.81376815
v -0.0799865872 -0.912975907 2.87821221
v 0.105186448 -0.913784623 2.8780992
v -0.195106536 -0.753172815 1.81397414
v 0.216186523 -1.36744213 1.81336248
v -0.0737991408 -1.22706378 2.87794614
v -0.176986694 -1.36325073 1.81356847
v 0.120910637 -1.22045577 2.87783504
v 0.362518311 -1.05130959 1.81346107
v 0.105186448 -0.913784623 2.8780992
v 0.196189851 -1.06328547 2.87791085
v 0.17314145 -0.757122934 1.81376815
vt 0.685237944 0.994478285
vt 0.739587247 0.96928066
vt 0.739587247 0.994478285
vt 0.685237944 0.96928066
vt 0.68265301 0.743921697
vt 0.698298693 0.506078303
vt 0.698298693 0.743921697
vt 0.68265301 0.506078303
vt 0.638057351 0.743921697
vt 0.638057351 0.506078303
vt 0.653703034 0.743921697
vt 0.653703034 0.506078303
vt 0.638057351 0.506078303
vt 0.638057351 0.743921697
vt 0.609107375 0.743921697
vt 0.609107375 0.506078303
vt 0.68265301 0.743921697
vt 0.653703034 0.506078303
vt 0.68265301 0.506078303
vt 0.653703034 0.743921697
vt 0.741026878 0.994454265
vt 0.795376182 0.96925658
vt 0.795376182 0.994454265
vt 0.741026878 0.96925658
vt 0.581022441 0.745459437
vt 0.595861018 0.504540563
vt 0.595861018 0.745459437
vt 0.581022441 0.504540563
vt 0.535850167 0.745459437
vt 0.535850167 0.504540563
vt 0.550688744 0.745459437
vt 0.550688744 0.504540563
vt 0.535850167 0.745459437
vt 0.505516469 0.504540563
vt 0.535850167 0.504540563
vt 0.505516469 0.745459437
vt 0.550688744 0.745459437
vt 0.581022441 0.504540563
vt 0.581022441 0.745459437
vt 0.550688744 0.504540563
vt 0.776475787 0.957798183
vt 0.768161297 0.758247912
vt 0.776475787 0.758247912
vt 0.768161297 0.957798183
vt 0.768161297 0.957798183
vt 0.759846568 0.758247912
vt 0.768161297 0.758247912
vt 0.759846568 0.957798183
vt 0.801419497 0.957798183
vt 0.801419497 0.758247912
vt 0.809734225 0.758247912
vt 0.809734225 0.957798183
vt 0.793105125 0.758247912
vt 0.801419497 0.957798183
vt 0.793105125 0.957798183
vt 0.801419497 0.758247912
vt 0.784790397 0.758247912
vt 0.793105125 0.957798183
vt 0.784790397 0.957798183
vt 0.793105125 0.758247912
vt 0.784790397 0.758247912
vt 0.784790397 0.957798183
vt 0.776475787 0.957798183
vt 0.776475787 0.758247912
vt 0.796681523 0.994454265
vt 0.851030827 0.96925658
vt 0.851030827 0.994454265
vt 0.796681523 0.96925658
vt 0.662079573 0.958876669
vt 0.676089406 0.759926975
vt 0.676089406 0.958876669
vt 0.662079573 0.759926975
vt 0.622330308 0.958876669
vt 0.622330308 0.759926975
vt 0.636340141 0.958876669
vt 0.636340141 0.759926975
vt 0.622330308 0.958876669
vt 0.596590877 0.759926975
vt 0.622330308 0.759926975
vt 0.596590877 0.958876669
vt 0.636340141 0.958876669
vt 0.662079573 0.759926975
vt 0.662079573 0.958876669
vt 0.636340141 0.759926975
vt 0.726507902 0.742471576
vt 0.716718793 0.507528424
vt 0.726507902 0.507528424
vt 0.716718793 0.742471576
vt 0.716718793 0.742471576
vt 0.706929266 0.507528424
vt 0.716718793 0.507528424
vt 0.706929266 0.742471576
vt 0.755875826 0.742471576
vt 0.755875826 0.507528424
vt 0.765664995 0.507528424
vt 0.765664995 0.742471576
vt 0.746086657 0.507528424
vt 0.755875826 0.742471576
vt 0.746086657 0.742471576
vt 0.755875826 0.507528424
vt 0.736297131 0.507528424
vt 0.746086657 0.742471576
vt 0.736297131 0.742471576
vt 0.746086657 0.507528424
vt 0.736297131 0.507528424
vt 0.736297131 0.742471576
vt 0.726507902 0.742471576
vt 0.726507902 0.507528424
vt 0.935140908 0.545886517
vt 0.996130049 0.512841105
vt 0.996130049 0.545886517
vt 0.935140908 0.512841105
vt 0.174275801 0.506341577
vt 0.189877659 0.742428064
vt 0.174275801 0.742428064
vt 0.189877659 0.506341577
vt 0.130009592 0.742428064
vt 0.145611435 0.506341577
vt 0.145611435 0.742428064
vt 0.130009592 0.506341577
vt 0.130009592 0.742428064
vt 0.101345226 0.506341577
vt 0.130009592 0.506341577
vt 0.101345226 0.742428064
vt 0.145611435 0.742428064
vt 0.174275801 0.506341577
vt 0.174275801 0.742428064
vt 0.145611435 0.506341577
vt 0.351254731 0.96269244
vt 0.351254731 0.752919793
vt 0.366665751 0.96269244
vt 0.366665751 0.752919793
vt 0.366665751 0.96269244
vt 0.366665751 0.752919793
vt 0.382164061 0.96269244
vt 0.382164061 0.752919793
vt 0.382164061 0.96269244
vt 0.382164061 0.752919793
vt 0.397518486 0.96269244
vt 0.397518486 0.752919793
vt 0.397518486 0.96269244
vt 0.397518486 0.752919793
vt 0.412934035 0.96269244
vt 0.412934035 0.752919793
vt 0.382164061 0.997080207
vt 0.397518486 0.96269244
vt 0.397518486 0.997080207
vt 0.382164061 0.96269244
vt 0.320308656 0.96269244
vt 0.335837603 0.752919793
vt 0.335837603 0.96269244
vt 0.320308656 0.752919793
vt 0.335882843 0.96269244
vt 0.335882843 0.752919793
vt 0.351254731 0.96269244
vt 0.351254731 0.752919793
vt 0.402044803 0.554701865
vt 0.374340534 0.507935584
vt 0.415430009 0.531074584
vt 0.402049214 0.507935584
vt 0.361154914 0.531481147
vt 0.374190867 0.554701865
vt 0.335882843 0.997080207
vt 0.351254731 0.96269244
vt 0.351254731 0.997080207
vt 0.335882843 0.96269244
vt 0.397518486 0.96269244
vt 0.412934035 0.997080207
vt 0.397518486 0.997080207
vt 0.412934035 0.96269244
vt 0.366665751 0.96269244
vt 0.382164061 0.997080207
vt 0.366665751 0.997080207
vt 0.382164061 0.96269244
vt 0.335837603 0.96269244
vt 0.320308656 0.997080207
vt 0.320308656 0.96269244
vt 0.335837603 0.997080207
vt 0.351254731 0.96269244
vt 0.366665751 0.997080207
vt 0.351254731 0.997080207
vt 0.366665751 0.96269244
vn -0.000907687296 2.23163099e-07 0.999999642
vn -0.000907687296 2.23163099e-07 0.999999642
vn -0.000907687296 2.23163099e-07 0.999999642
vn -0.000907687296 2.23163099e-07 0.999999642
vn 0.000101759651 -1 1.92618373e-07
vn 0.000101759651 -1 1.92618373e-07
vn 0.000101759651 -1 1.92618373e-07
vn 0.000101759651 -1 1.92618373e-07
vn -9.95946393e-05 1 -7.97506345e-08
vn -9.95946393e-05 1 -7.97506345e-08
vn -9.95946393e-05 1 -7.97506345e-08
vn -9.95946393e-05 1 -7.97506345e-08
vn 1 7.83237701e-05 0.000207859892
vn 1 7.83237701e-05 0.000207859892
vn 1 7.83237701e-05 0.000207859892
vn 1 7.83237701e-05 0.000207859892
vn -1 -7.82848001e-05 -0.000207862569
vn -1 -7.82848001e-05 -0.000207862569
vn -1 -7.82848001e-05 -0.000207862569
vn -1 -7.82848001e-05 -0.000207862569
vn -0.000906873494 -1.19378655e-07 0.999999642
vn -0.000906873494 -1.19378655e-07 0.999999642
vn -0.000906873494 -1.19378655e-07 0.999999642
vn -0.000906873494 -1.19378655e-07 0.999999642
vn 9.74294453e-05 -1 2.06554674e-07
vn 9.74294453e-05 -1 2.06554674e-07
vn 9.74294453e-05 -1 2.06554674e-07
vn 9.74294453e-05 -1 2.06554674e-07
vn -9.95929076e-05 1 -1.02730347e-07
vn -9.95929076e-05 1 -1.02730347e-07
vn -9.95929076e-05 1 -1.02730347e-07
vn -9.95929076e-05 1 -1.02730347e-07
vn 1 0.000161439719 0.000190719016
vn 1 0.000161439719 0.000190719016
vn 1 0.000161439719 0.000190719016
vn 1 0.000161439719 0.000190719016
vn -0.99999994 -0.000172199783 -0.000189906277
vn -0.99999994 -0.000172199783 -0.000189906277
vn -0.99999994 -0.000172199783 -0.000189906277
vn -0.99999994 -0.000172199783 -0.000189906277
vn -1 -2.01327134e-06 1.21602934e-05
vn -1 -2.01327134e-06 1.21602934e-05
vn -1 -2.01327134e-06 1.21602934e-05
vn -1 -2.01327134e-06 1.21602934e-05
vn -0.75276047 -9.24927974e-07 -0.658294618
vn -0.75276047 -9.24927974e-07 -0.658294618
vn -0.75276047 -9.24927974e-07 -0.658294618
vn -0.75276047 -9.24927974e-07 -0.658294618
vn 0.752792358 2.18198511e-06 -0.658258021
vn 0.752792358 2.18198511e-06 -0.658258021
vn 0.752792358 2.18198511e-06 -0.658258021
vn 0.752792358 2.18198511e-06 -0.658258021
vn 1 3.80851155e-08 -2.43205559e-05
vn 1 3.80851155e-08 -2.43205559e-05
vn 1 3.80851155e-08 -2.43205559e-05
vn 1 3.80851155e-08 -2.43205559e-05
vn 0.752781332 9.96856556e-07 0.658270597
vn 0.752781332 9.96856556e-07 0.658270597
vn 0.752781332 9.96856556e-07 0.658270597
vn 0.752781332 9.96856556e-07 0.658270597
vn -0.752768993 -3.14857243e-06 0.658284843
vn -0.752768993 -3.14857243e-06 0.658284843
vn -0.752768993 -3.14857243e-06 0.658284843
vn -0.752768993 -3.14857243e-06 0.658284843
vn -0.000905255147 -2.51671713e-06 0.999999642
vn -0.000905255147 -2.51671713e-06 0.999999642
vn -0.000905255147 -2.51671713e-06 0.999999642
vn -0.000905255147 -2.51671713e-06 0.999999642
vn 0.000101757869 -0.99999994 1.98552414e-07
vn 0.000101757869 -0.99999994 1.98552414e-07
vn 0.000101757869 -0.99999994 1.98552414e-07
vn 0.000101757869 -0.99999994 1.98552414e-07
vn -9.74296127e-05 1 3.15237081e-08
vn -9.74296127e-05 1 3.15237081e-08
vn -9.74296127e-05 1 3.15237081e-08
vn -9.74296127e-05 1 3.15237081e-08
vn 1 0.000130566157 0.000209644553
vn 1 0.000130566157 0.000209644553
vn 1 0.000130566157 0.000209644553
vn 1 0.000130566157 0.000209644553
vn -1 -0.000119613433 -0.000208755126
vn -1 -0.000119613433 -0.000208755126
vn -1 -0.000119613433 -0.000208755126
vn -1 -0.000119613433 -0.000208755126
vn -1 -2.00790601e-06 1.21602816e-05
vn -1 -2.00790601e-06 1.21602816e-05
vn -1 -2.00790601e-06 1.21602816e-05
vn -1 -2.00790601e-06 1.21602816e-05
vn -0.75276053 -9.45308614e-07 -0.658294439
vn -0.75276053 -9.45308614e-07 -0.658294439
vn -0.75276053 -9.45308614e-07 -0.658294439
vn -0.75276053 -9.45308614e-07 -0.658294439
vn 0.752792001 2.12154555e-06 -0.658258438
vn 0.752792001 2.12154555e-06 -0.658258438
vn 0.752792001 2.12154555e-06 -0.658258438
vn 0.752792001 2.12154555e-06 -0.658258438
vn 1 3.93817423e-08 -2.43205468e-05
vn 1 3.93817423e-08 -2.43205468e-05
vn 1 3.93817423e-08 -2.43205468e-05
vn 1 3.93817423e-08 -2.43205468e-05
vn 0.752781153 9.44134911e-07 0.658270955
vn 0.752781153 9.44134911e-07 0.658270955
vn 0.752781153 9.44134911e-07 0.658270955
vn 0.752781153 9.44134911e-07 0.658270955
vn -0.752768755 -3.28151486e-06 0.658285141
vn -0.752768755 -3.28151486e-06 0.658285141
vn -0.752768755 -3.28151486e-06 0.658285141
vn -0.752768755 -3.28151486e-06 0.658285141
vn -0.000478479778 -4.153014e-07 0.999999881
vn -0.000478479778 -4.153014e-07 0.999999881
vn -0.000478479778 -4.153014e-07 0.999999881
vn -0.000478479778 -4.153014e-07 0.999999881
vn 5.52898164e-05 -1 1.80094318e-07
vn 5.52898164e-05 -1 1.80094318e-07
vn 5.52898164e-05 -1 1.80094318e-07
vn 5.52898164e-05 -1 1.80094318e-07
vn -5.63330577e-05 1 -1.19316866e-07
vn -5.63330577e-05 1 -1.19316866e-07
vn -5.63330577e-05 1 -1.19316866e-07
vn -5.63330577e-05 1 -1.19316866e-07
vn 0.999999821 0.000247971155 0.000423656253
vn 0.999999821 0.000247971155 0.000423656253
vn 0.999999821 0.000247971155 0.000423656253
vn 0.999999821 0.000247971155 0.000423656253
vn -0.999999881 -0.000247942342 -0.000425416831
vn -0.999999881 -0.000247942342 -0.000425416831
vn -0.999999881 -0.000247942342 -0.000425416831
vn -0.999999881 -0.000247942342 -0.000425416831
vn 0.850800335 0.525476098 -0.00369506981
vn 0.850800335 0.525476098 -0.00369506981
vn 0.850800335 0.525476098 -0.00369506981
vn 0.850800335 0.525476098 -0.00369506981
vn 0.00415644841 0.999991357 5.06328797e-05
vn 0.00415644841 0.999991357 5.06328797e-05
vn 0.00415644841 0.999991357 5.06328797e-05
vn 0.00415644841 0.999991357 5.06328797e-05
vn -0.894277811 0.44749999 -0.00328948675
vn -0.894277811 0.44749999 -0.00328948675
vn -0.894277811 0.44749999 -0.00328948675
vn -0.894277811 0.44749999 -0.00328948675
vn -0.848228872 -0.529626548 -0.00185906969
vn -0.848228872 -0.529626548 -0.00185906969
vn -0.848228872 -0.529626548 -0.00185906969
vn -0.848228872 -0.529626548 -0.00185906969
vn -0.874878526 0.456665158 0.16138348
vn -0.874878526 0.456665158 0.16138348
vn -0.874878526 0.456665158 0.16138348
vn -0.874878526 0.456665158 0.16138348
vn -0.00432968419 -0.999990582 -0.000453503628
vn -0.00432968419 -0.999990582 -0.000453503628
vn -0.00432968419 -0.999990582 -0.000453503628
vn -0.00432968419 -0.999990582 -0.000453503628
vn 0.912448823 -0.409148842 -0.00585801434
vn 0.912448823 -0.409148842 -0.00585801434
vn 0.912448823 -0.409148842 -0.00585801434
vn 0.912448823 -0.409148842 -0.00585801434
vn 0.000626519846 -0.000831935846 0.999999464
vn 0.000626519846 -0.000831935846 0.999999464
vn 0.000626519846 -0.000831935846 0.999999464
vn 0.000626519846 -0.000831935846 0.999999464
vn 0.000626519846 -0.000831935846 0.999999464
vn 0.000626519846 -0.000831935846 0.999999464
vn 0.897099137 -0.420092404 0.136877656
vn 0.897099137 -0.420092404 0.136877656
vn 0.897099137 -0.420092404 0.136877656
vn 0.897099137 -0.420092404 0.136877656
vn -0.837068439 -0.525086582 0.153624967
vn -0.837068439 -0.525086582 0.153624967
vn -0.837068439 -0.525086582 0.153624967
vn -0.837068439 -0.525086582 0.153624967
vn 0.0085900994 0.989118993 0.146866769
vn 0.0085900994 0.989118993 0.146866769
vn 0.0085900994 0.989118993 0.146866769
vn 0.0085900994 0.989118993 0.146866769
vn 0.00414596172 -0.991262436 0.131839454
vn 0.00414596172 -0.991262436 0.131839454
vn 0.00414596172 -0.991262436 0.131839454
vn 0.00414596172 -0.991262436 0.131839454
vn 0.837782919 0.529272079 0.134130165
vn 0.837782919 0.529272079 0.134130165
vn 0.837782919 0.529272079 0.134130165
vn 0.837782919 0.529272079 0.134130165
f 1/1/1 2/2/2 3/3/3
f 2/2/2 1/1/1 4/4/4
f 5/5/5 6/6/6 7/7/7
f 6/6/6 5/5/5 8/8/8
f 9/9/9 10/10/10 11/11/11
f 11/11/11 10/10/10 12/12/12
f 13/13/13 14/14/14 15/15/15
f 15/15/15 16/16/16 13/13/13
f 17/17/17 18/18/18 19/19/19
f 18/18/18 17/17/17 20/20/20
f 21/21/21 22/22/22 23/23/23
f 22/22/22 21/21/21 24/24/24
f 25/25/25 26/26/26 27/27/27
f 26/26/26 25/25/25 28/28/28
f 29/29/29 30/30/30 31/31/31
f 31/31/31 30/30/30 32/32/32
f 33/33/33 34/34/34 35/35/35
f 34/34/34 33/33/33 36/36/36
f 37/37/37 38/38/38 39/39/39
f 37/37/37 40/40/40 38/38/38
f 41/41/41 42/42/42 43/43/43
f 42/42/42 41/41/41 44/44/44
f 45/45/45 46/46/46 47/47/47
f 46/46/46 45/45/45 48/48/48
f 49/49/49 50/50/50 51/51/51
f 49/49/49 51/51/51 52/52/52
f 53/53/53 54/54/54 55/55/55
f 54/54/54 53/53/53 56/56/56
f 57/57/57 58/58/58 59/59/59
f 58/58/58 57/57/57 60/60/60
f 61/61/61 62/62/62 63/63/63
f 61/61/61 63/63/63 64/64/64
f 65/65/65 66/66/66 67/67/67
f 66/66/66 65/65/65 68/68/68
f 69/69/69 70/70/70 71/71/71
f 70/70/70 69/69/69 72/72/72
f 73/73/73 74/74/74 75/75/75
f 75/75/75 74/74/74 76/76/76
f 77/77/77 78/78/78 79/79/79
f 78/78/78 77/77/77 80/80/80
f 81/81/81 82/82/82 83/83/83
f 82/82/82 81/81/81 84/84/84
f 85/85/85 86/86/86 87/87/87
f 86/86/86 85/85/85 88/88/88
f 89/89/89 90/90/90 91/91/91
f 90/90/90 89/89/89 92/92/92
f 93/93/93 94/94/94 95/95/95
f 93/93/93 95/95/95 96/96/96
f 97/97/97 98/98/98 99/99/99
f 98/98/98 97/97/97 100/100/100
f 101/101/101 102/102/102 103/103/103
f 102/102/102 101/101/101 104/104/104
f 105/105/105 106/106/106 107/107/107
f 105/105/105 107/107/107 108/108/108
f 109/109/109 110/110/110 111/111/111
f 110/110/110 109/109/109 112/112/112
f 113/113/113 114/114/114 115/115/115
f 114/114/114 113/113/113 116/116/116
f 117/117/117 118/118/118 119/119/119
f 118/118/118 117/117/117 120/120/120
f 121/121/121 122/122/122 123/123/123
f 122/122/122 121/121/121 124/124/124
f 125/125/125 126/126/126 127/127/127
f 126/126/126 125/125/125 128/128/128
f 129/129/129 130/130/130 131/131/131
f 131/131/131 130/130/130 132/132/132
f 133/133/133 134/134/134 135/135/135
f 135/135/135 134/134/134 136/136/136
f 137/137/137 138/138/138 139/139/139
f 139/139/139 138/138/138 140/140/140
f 141/141/141 142/142/142 143/143/143
f 143/143/143 142/142/142 144/144/144
f 145/145/145 146/146/146 147/147/147
f 146/146/146 145/145/145 148/148/148
f 149/149/149 150/150/150 151/151/151
f 150/150/150 149/149/149 152/152/152
f 153/153/153 154/154/154 155/155/155
f 155/155/155 154/154/154 156/156/156
f 157/157/157 158/158/158 159/159/159
f 159/159/159 158/158/158 160/160/160
f 158/158/158 157/157/157 161/161/161
f 161/161/161 157/157/157 162/162/162
f 163/163/163 164/164/164 165/165/165
f 164/164/164 163/163/163 166/166/166
f 167/167/167 168/168/168 169/169/169
f 168/168/168 167/167/167 170/170/170
f 171/171/171 172/172/172 173/173/173
f 172/172/172 171/171/171 174/174/174
f 175/175/175 176/176/176 177/177/177
f 176/176/176 175/175/175 178/178/178
f 179/179/179 180/180/180 181/181/181
f 180/180/180 179/179/179 182/182/182
