# Extracted from the Cocos Creator 3.8.3 playable build
# Geometry-only OBJ preview for Unity; rig and animation stay in the raw assets.
o enemy_soldier_elite
v 1.24113989 6.00875187 0.451445073
v 1.18882442 6.03864384 -0.553302407
v 1.10278952 6.28674221 -0.0867319703
v 1.45588231 5.23849583 -0.612748384
v 1.41379762 5.29001141 0.693219185
v 1.47255874 4.79369354 0.476589411
v 1.5256623 4.84626293 -0.314546108
v 1.20791364 4.22208023 -0.425913692
v 0.887254655 5.28290939 -1.30555904
v 0.375083059 4.56984711 -1.41965497
v 0.509890735 4.04225063 -1.00474894
v 0.88218677 3.9403038 -0.510454178
v 0.543584287 3.67989063 -0.232277572
v 0.0951696187 3.70463276 -0.576898217
v -0.405465752 3.97389698 -0.948228598
v -0.422999322 4.55572224 -1.37504423
v -0.0674469769 5.22558784 -1.53661549
v 0.576331615 6.03186512 -1.17996347
v -0.555128396 5.84315968 -1.28469026
v 0.0270151161 6.38227558 -0.982848525
v 0.0322606489 6.59811687 -0.606450319
v 0.589477301 6.60320187 0.107815981
v 0.484133065 6.09787464 1.14680099
v -0.106053233 6.59705257 0.598409235
v -0.0461121984 6.2720499 1.09429955
v 1.31438839 4.3400135 0.338836074
v 0.742707253 3.79916096 0.349844635
v 0.418546647 4.67923927 1.43450403
v 0.76234591 5.23387718 1.37291217
v 0.404100299 3.95316792 0.934403896
v -0.188654184 3.60716534 0.261280149
v -0.538018703 4.05507278 0.974351168
v -0.188654184 3.60716534 0.261280149
v -0.357787848 3.64477348 -0.296974659
v -0.793396115 3.94675255 0.602339685
v -0.805079043 3.84754372 -0.335203767
v -1.33744681 4.4201746 0.307160228
v -1.29523695 4.35443592 -0.325914502
v -1.28303635 5.17550564 -0.868458152
v -0.773874342 5.2055397 -1.35862625
v -1.19198489 5.91732883 -0.654810786
v -0.989409208 6.34236622 -0.138922274
v -0.618997633 6.58811283 -0.0101008415
v -0.618997633 6.58811283 -0.0101008415
v -1.12615323 6.06748486 0.550688565
v -0.989409208 6.34236622 -0.138922274
v -0.443810046 6.06172657 1.18457651
v -0.549665749 5.11845493 1.4553802
v -0.449911296 4.58221626 1.38558102
v -1.30807757 5.1817131 0.833096802
v -1.33744681 4.4201746 0.307160228
v -0.793396115 3.94675255 0.602339685
v -1.52219141 5.13275814 0.00911098719
v -1.52219141 5.13275814 0.00911098719
v -1.32568836 5.85938168 -0.0479494333
v -1.32568836 5.85938168 -0.0479494333
v -0.577986538 6.57559872 -0.00272351503
v -0.264529198 6.91921139 -0.247109413
v -0.37451297 6.55829716 -0.352152467
v -0.407161981 6.92825413 0.0133241713
v 0.36481297 6.52639675 -0.362426996
v -0.00440769643 6.54099751 -0.586076856
v 0.261554629 6.93284321 -0.252429247
v -0.0031087473 6.91016865 -0.42612803
v 0.374909222 6.53522015 0.370100617
v 0.597372293 6.5117979 0.00752264261
v 0.250933349 6.94103146 0.266276896
v 0.416153669 6.95551777 0.00441086292
v -0.268894553 6.92739773 0.244488031
v 0.0191789009 6.55864429 0.596321106
v 0.00637672842 6.92654705 0.425479352
v -0.359441519 6.56712055 0.353558749
v -0.00445457548 7.26300716 -0.145849407
v 0.109975263 7.31027889 0.00106340647
v -0.123908341 7.28283596 -0.00935804844
v 0.0101024956 7.31546688 0.103538632
v -0.186231852 6.19720173 -0.181337655
v -0.287520409 6.19306278 -0.00110715628
v -0.00148911774 6.20133877 -0.302431226
v 0.182840005 6.18937016 -0.17582494
v 0.186298922 6.18439579 0.181160182
v 0.290073127 6.17740726 0.00812929869
v -0.182772934 6.19222355 0.175647497
v 0.00392398983 6.19138432 0.295686692
v -0.00445457548 7.26300716 -0.145849407
v -0.0031087473 6.91016865 -0.42612803
v -0.00440769643 6.54099751 -0.586076856
v -0.00148911774 6.20133877 -0.302431226
v -0.107007578 3.73326397 0.15117988
v 0.0382704996 2.84368038 0.228447258
v 0.0382704996 3.73326397 0.211355448
v -0.119093418 2.84368038 0.163265586
v 0.18354854 3.73326397 0.15117988
v 0.195634395 2.84368038 0.163265586
v 0.260816067 2.84368038 0.0059016943
v 0.243724108 3.73326397 0.00590181351
v 0.195634395 2.84368038 -0.151462197
v 0.18354854 3.73326397 -0.139376223
v 0.0382704996 2.84368038 -0.216643929
v 0.0382704996 3.73326397 -0.199551821
v -0.119093418 2.84368038 -0.151462197
v -0.107007578 3.73326397 -0.139376223
v -0.184275091 2.84368038 0.0059016943
v -0.167183176 3.73326397 0.00590181351
v -0.107007578 3.73326397 0.15117988
v -0.119093418 2.84368038 0.163265586
v 0.0382704996 -0.184697151 0.135329098
v -0.0532488711 -0.184697151 0.0974205732
v 0.0382704996 -0.249521255 0.00590115786
v 0.129789844 -0.184697151 0.0974205732
v 0.167698383 -0.184697151 0.00590115786
v 0.129789844 -0.184697151 -0.0856181383
v 0.0382704996 -0.184697151 -0.123526692
v -0.0532488711 -0.184697151 -0.0856181979
v -0.0911573768 -0.184697151 0.00590115786
v -0.119093418 2.84368038 0.163265586
v 0.0382704996 2.70471859 0.378703624
v 0.0382704996 2.84368038 0.228447258
v -0.225340322 2.70471859 0.269512475
v 0.195634395 2.84368038 0.163265586
v 0.301881284 2.70471859 0.269512475
v 0.411072463 2.70471859 0.0059016943
v 0.260816067 2.84368038 0.0059016943
v 0.301881284 2.70471859 -0.257709146
v 0.195634395 2.84368038 -0.151462197
v 0.0382704996 2.70471859 -0.366900325
v 0.0382704996 2.84368038 -0.216643929
v -0.119093418 2.84368038 -0.151462197
v -0.225340262 2.70471859 -0.257709146
v -0.334531456 2.70471859 0.0059016943
v -0.184275091 2.84368038 0.0059016943
v -0.225340322 2.70471859 0.269512475
v -0.119093418 2.84368038 0.163265586
v -0.162274808 0.600104332 0.206446707
v 0.0382704996 0.298976898 0.523665726
v 0.0382704996 0.600104332 0.289515197
v -0.327844173 0.298976898 0.372016072
v 0.238815814 0.600104332 0.206446707
v 0.404385269 0.298976898 0.372016072
v 0.556034923 0.298976898 0.00590127707
v 0.321884364 0.600104332 0.00590133667
v 0.404385269 0.298976898 -0.360213459
v 0.238815814 0.600104332 -0.194644034
v 0.0382704996 0.298976898 -0.511863112
v 0.0382704996 0.600104332 -0.277712524
v -0.162274852 0.600104332 -0.194644034
v -0.327844292 0.298976898 -0.360213518
v -0.479493946 0.298976898 0.00590127707
v -0.245343342 0.600104332 0.00590133667
v -0.162274808 0.600104332 0.206446707
v -0.327844173 0.298976898 0.372016072
v -0.0532488711 -0.184697151 0.0974205732
v 0.0382704996 -0.184697151 0.135329098
v 0.129789844 -0.184697151 0.0974205732
v 0.167698383 -0.184697151 0.00590115786
v 0.129789844 -0.184697151 -0.0856181383
v 0.0382704996 -0.184697151 -0.123526692
v -0.0532488711 -0.184697151 -0.0856181979
v -0.0911573768 -0.184697151 0.00590115786
v -0.0532488711 -0.184697151 0.0974205732
v -0.162274808 0.600104332 0.206446707
v -0.333363026 0.704230309 0.00590133667
v -0.245343342 0.600104332 0.00590133667
v -0.224514052 0.704230309 0.268685937
v -0.162274852 0.600104332 -0.194644034
v -0.224514112 0.704230309 -0.256883264
v 0.0382704996 0.704230309 -0.365732133
v 0.0382704996 0.600104332 -0.277712524
v 0.238815814 0.600104332 -0.194644034
v 0.301055133 0.704230309 -0.256883264
v 0.409904033 0.704230309 0.00590133667
v 0.321884364 0.600104332 0.00590133667
v 0.301055133 0.704230309 0.268685937
v 0.238815814 0.600104332 0.206446707
v 0.0382704996 0.704230309 0.377534837
v 0.0382704996 0.600104332 0.289515197
v -0.224514052 0.704230309 0.268685937
v -0.162274808 0.600104332 0.206446707
v -0.374435931 1.20435143 0.00590145588
v -0.253557086 1.20435143 0.297729045
v -0.253557116 1.20435143 -0.285926163
v 0.0382704996 1.20435143 -0.406805038
v 0.330098063 1.20435143 -0.285926104
v 0.450976908 1.20435143 0.00590145588
v 0.330098063 1.20435143 0.297729045
v 0.0382704996 1.20435143 0.418607831
v -0.253557086 1.20435143 0.297729045
v 0.0382704996 1.7044735 -0.413777888
v 0.323318332 2.20459652 -0.279146194
v 0.335028648 1.7044735 -0.2908566
v 0.0382704996 2.20459652 -0.397216976
v 0.457949877 1.7044735 0.00590151548
v 0.441389024 2.20459652 0.00590157509
v 0.323318332 2.20459652 0.290949434
v 0.335028648 1.7044735 0.30265969
v 0.0382704996 2.20459652 0.409020066
v 0.0382704996 1.7044735 0.425580859
v -0.246777281 2.20459652 0.290949434
v -0.258487642 1.7044735 0.30265969
v -0.246777281 2.20459652 0.290949434
v -0.3814089 1.7044735 0.00590151548
v -0.258487642 1.7044735 0.30265969
v -0.364848107 2.20459652 0.00590157509
v -0.246777371 2.20459652 -0.279146314
v -0.258487701 1.7044735 -0.290856719
v -0.288607031 4.04110432 -0.996438146
v -0.0189059228 3.91490555 -1.23400819
v -0.00524080545 3.97589684 -0.957021117
v -0.225291386 3.96870327 -1.26401079
v 0.381283462 4.27883625 -1.17321026
v 0.207023308 3.94410038 -1.26426923
v 0.253443629 4.11615658 -1.4098407
v 0.304879487 4.02767849 -1.00249088
v 0.0128351711 4.60071564 -1.38008463
v 0.200958818 4.28092289 -1.54252899
v -0.0166751072 4.33620071 -1.55175769
v 0.31293878 4.53984833 -1.33960068
v -0.286257446 4.54870892 -1.34076869
v -0.222759143 4.31484985 -1.50766122
v -0.357470095 4.28798199 -1.15823233
v -0.271998793 4.12553883 -1.37059581
v 0.0472529456 3.91911697 -1.54813993
v 0.0290059261 4.0093689 -1.65266144
v -0.0845726132 3.92322254 -1.55839765
v -0.0747533888 4.01245022 -1.65135682
v -0.122563064 4.31725979 -0.864379048
v 0.0211104527 4.27670956 -0.850585699
v 0.177526519 4.29532051 -0.879654884
v 0.208268031 4.42922592 -0.966171145
v 0.17018342 4.5576334 -1.0434233
v 0.0283879749 4.58938122 -1.06104076
v -0.123978883 4.56418133 -1.03752601
v -0.158769548 4.43686771 -0.945452809
v 0.0472529456 3.91911697 -1.54813993
v 0.207023308 3.94410038 -1.26426923
v 0.304879487 4.02767849 -1.00249088
v 0.177526519 4.29532051 -0.879654884
v -0.341373533 4.4683876 1.29133368
v -0.0558093973 4.26792526 1.48101115
v -0.0431827195 4.52333832 1.33188391
v -0.273276299 4.22461891 1.44563317
v 0.345150769 4.20584297 1.0842638
v 0.178102538 4.22471714 1.45241642
v 0.218262419 4.02475834 1.32611084
v 0.277361155 4.45640278 1.28227019
v -0.0536823757 3.9046154 0.84581244
v 0.15577817 3.84160995 1.20699382
v -0.073388502 3.81865311 1.16400576
v 0.261753917 3.95895672 0.88103199
v -0.362754583 3.96532059 0.897151589
v -0.286922634 3.87277031 1.17960691
v -0.424666643 4.2305603 1.10068417
v -0.329288721 4.06981087 1.32584929
v 0.0116742924 3.95355892 1.5739938
v -0.0117389038 3.82144642 1.51843917
v -0.12585488 3.94434547 1.57858026
v -0.119943976 3.82355309 1.51921403
v -0.180128127 4.50896835 0.968597472
v -0.0286312252 4.53305626 0.998553514
v 0.133350298 4.4955883 0.982928395
v 0.159101307 4.36664677 0.876337171
v 0.11344412 4.24983597 0.775072932
v -0.0357220955 4.22471046 0.75498569
v -0.193216264 4.25868702 0.778749764
v -0.223454639 4.39112473 0.87720108
v 0.0116742924 3.95355892 1.5739938
v 0.178102538 4.22471714 1.45241642
v 0.277361155 4.45640278 1.28227019
v 0.133350298 4.4955883 0.982928395
v -0.988189101 4.07497406 -0.362058043
v -0.791384518 3.84993172 -0.277009964
v -1.04474771 3.73067379 -0.166119993
v -1.19032884 3.89260769 -0.234192908
v -1.24143672 4.40498447 0.0252426267
v -1.34786606 4.07378101 -0.194014072
v -1.39014637 4.10765648 0.0436323285
v -1.20127094 4.32651901 -0.294537067
v -0.971299171 4.13036251 0.435357332
v -1.36100852 4.06433582 0.268534034
v -1.19352591 3.90473938 0.324627519
v -1.17653894 4.37148094 0.352977246
v -0.769777417 3.88451099 0.371433735
v -1.03643298 3.75036812 0.281759799
v -0.730053425 3.81247139 0.0359013379
v -1.00628412 3.70245934 0.0351679921
v -1.43856049 3.78344727 -0.0289707184
v -1.45052385 3.75158119 0.114597648
v -1.3545655 3.67196655 -0.0166435242
v -1.37834024 3.66869831 0.118120611
v -0.681276798 4.17131042 -0.133268416
v -0.788785756 4.27900887 -0.178678036
v -0.903955996 4.39949894 -0.146964908
v -0.915696025 4.43552399 0.0207909346
v -0.877750039 4.4178133 0.179128528
v -0.778320312 4.30594063 0.219585389
v -0.672742844 4.18307018 0.18585515
v -0.65140903 4.14942455 0.0201164186
v -1.43856049 3.78344727 -0.0289707184
v -1.34786606 4.07378101 -0.194014072
v -1.20127094 4.32651901 -0.294537067
v -0.903955996 4.39949894 -0.146964908
v 1.24947965 4.25429249 0.253988385
v 1.38627028 4.03706169 -0.0103787184
v 1.29747856 4.27538109 -0.0379356742
v 1.34537983 4.01919174 0.202764273
v 1.35296774 3.98043728 -0.233429074
v 1.01450121 3.97502041 -0.391113162
v 1.24091423 4.1915884 -0.343028069
v 1.20113683 3.80657578 -0.258551002
v 0.740456343 3.75550556 0.0151945949
v 1.05863917 3.65600491 -0.185621202
v 1.01452816 3.65790653 0.0375736058
v 0.783538401 3.77495575 -0.293317556
v 1.03806257 3.72348404 0.240322828
v 1.20751691 3.89352512 0.267628431
v 1.03165185 4.0614624 0.351018518
v 0.797480106 3.83261871 0.309589833
v 1.41327965 3.74300098 -0.0560652614
v 1.33823383 3.63042736 -0.0245934129
v 1.4153384 3.74610996 0.0773810446
v 1.33899546 3.64145947 0.0798185468
v 0.963339329 4.29949474 0.0977880657
v 0.995543838 4.30612278 -0.0503429174
v 0.974897325 4.25985432 -0.20434624
v 0.854075909 4.14950657 -0.220234513
v 0.740124941 4.05573463 -0.167938948
v 0.716730475 4.04729366 -0.0220611095
v 0.744162619 4.08947945 0.127776861
v 0.858196974 4.20390797 0.147831202
v 1.41327965 3.74300098 -0.0560652614
v 1.35296774 3.98043728 -0.233429074
v 1.24091423 4.1915884 -0.343028069
v 0.974897325 4.25985432 -0.20434624
v 0.612376153 6.04190159 1.01617169
v 1.09341669 6.17752552 1.0097959
v 0.823272884 6.11609745 0.730957389
v 0.939946055 6.11535931 1.21792889
v 1.45757437 5.89887142 0.901473165
v 1.11856043 6.03468227 0.485802084
v 1.30727172 6.12927914 0.829610467
v 1.30439007 5.70055866 0.543861806
v 1.13967824 5.29192829 1.02970052
v 1.51362765 5.68255329 1.05185318
v 1.33015442 5.62022877 1.25059104
v 1.36279345 5.35997295 0.727767825
v 0.668391705 5.71965694 1.19806623
v 0.859694779 5.37280369 1.27063847
v 1.11801922 5.65851116 1.39887047
v 0.976761997 5.91053677 1.3397131
v 1.45511496 6.15022945 1.24265027
v 1.52574074 6.02936649 1.34523916
v 1.3538152 6.14968586 1.37114668
v 1.43687093 6.02970409 1.437639
v 0.573054969 5.69080257 0.707076848
v 0.68737793 5.73759937 0.569205642
v 0.843656242 5.70574474 0.452245921
v 0.929948628 5.52828312 0.488050729
v 0.950437963 5.36118984 0.578267694
v 0.843004882 5.32531261 0.719132483
v 0.60043329 5.53463078 0.800287426
v 0.696733654 5.36508083 0.838453829
v 1.45511496 6.15022945 1.24265027
v 1.30727172 6.12927914 0.829610467
v 1.11856043 6.03468227 0.485802084
v 0.843656242 5.70574474 0.452245921
v 1.13855612 6.11943722 -1.08712566
v 1.13790548 6.03029919 -0.619522214
v 1.33271086 6.05842876 -0.93651557
v 0.871055901 6.10345364 -0.825556397
v 1.01350653 5.83362865 -1.40937459
v 0.660692513 5.68417072 -1.24734271
v 0.630598962 6.01962757 -1.09875643
v 0.962670803 6.06904888 -1.28587162
v 1.14049804 5.61369419 -1.44469392
v 1.09386015 5.27659512 -1.05749238
v 0.810619414 5.34411907 -1.27459514
v 1.32590461 5.55567837 -1.26560247
v 1.3301791 5.35895252 -0.798763394
v 1.47076702 5.59877491 -1.06763804
v 1.28724885 5.70793438 -0.646030545
v 1.4334867 5.85298824 -0.95451808
v 1.35547686 6.04724407 -1.42814958
v 1.44381714 5.91980267 -1.48518479
v 1.47809005 6.04590511 -1.33209431
v 1.53213811 5.92084789 -1.40096939
v 0.819529951 5.72349834 -0.552853465
v 0.691241741 5.76817799 -0.665098786
v 0.576927423 5.73352718 -0.810626864
v 0.597704113 5.55602551 -0.877779722
v 0.671302557 5.38986683 -0.883405685
v 0.803171515 5.35473537 -0.77860558
v 0.920232534 5.39587498 -0.643227339
v 0.896709085 5.56688595 -0.56592381
v 1.35547686 6.04724407 -1.42814958
v 0.962670803 6.06904888 -1.28587162
v 0.630598962 6.01962757 -1.09875643
v 0.576927423 5.73352718 -0.810626864
v -0.982802153 5.13267994 -1.05159867
v -1.35258126 5.42672443 -1.06374776
v -1.20504403 5.35689068 -1.25069058
v -1.19066441 5.22103882 -0.79992187
v -1.0166775 5.40004826 -1.43171966
v -0.573304236 5.53394032 -1.28331411
v -0.717998564 5.20355701 -1.29425657
v -0.939578414 5.65389156 -1.43671954
v -0.941126347 5.89288425 -1.3588413
v -0.762747228 5.95714855 -0.883905411
v -0.537344277 5.87028408 -1.14546597
v -1.08432269 5.94411564 -1.14918315
v -1.02237463 5.89173985 -0.654064775
v -1.33955824 5.63527393 -0.980337024
v -1.16275632 5.54349232 -0.668785334
v -1.24236572 5.89252377 -0.970383763
v -1.33627391 5.65856838 -1.49124968
v -1.34762692 5.81967449 -1.47635186
v -1.4473995 5.6743021 -1.38767254
v -1.42957449 5.82299137 -1.38926184
v -0.772465229 5.27651119 -0.661142588
v -0.676291764 5.23259735 -0.797740102
v -0.551931739 5.26916218 -0.929103017
v -0.480270952 5.44124126 -0.912441373
v -0.463469982 5.60241222 -0.838224053
v -0.566866517 5.64401722 -0.711629152
v -0.696086407 5.60823345 -0.591528535
v -0.762885749 5.43537426 -0.596927047
v -1.33627391 5.65856838 -1.49124968
v -1.0166775 5.40004826 -1.43171966
v -0.717998564 5.20355701 -1.29425657
v -0.551931739 5.26916218 -0.929103017
v -1.27635682 5.65287685 0.591140509
v -1.36009073 5.49433994 1.01954103
v -1.34295654 5.75601292 0.886601865
v -1.3102901 5.29550743 0.768681228
v -1.21640337 6.03962994 0.842355549
v -0.750955105 6.12374401 0.787434876
v -1.08850312 6.04016209 0.538863599
v -0.986327291 6.10006809 1.04710531
v -0.459765732 6.02270985 1.09111977
v -0.805084288 6.03485584 1.27352667
v -0.825831771 5.75109196 1.38803458
v -0.505533636 5.6461916 1.27490425
v -1.0363723 5.19631863 1.06253028
v -0.68898052 5.27496052 1.32970619
v -0.935663462 5.48474407 1.41168594
v -1.18710399 5.42904568 1.21164274
v -1.29821575 5.95284748 1.21508503
v -1.19339454 5.941926 1.37077093
v -1.34564888 5.7913866 1.27955246
v -1.23130202 5.81142902 1.41092682
v -0.919780135 5.37164211 0.650700629
v -0.911250651 5.55733585 0.56505537
v -0.825205088 5.75715733 0.54298991
v -0.649429202 5.78762722 0.674364388
v -0.508154333 5.73067188 0.820337653
v -0.526274025 5.55132961 0.906505704
v -0.618331552 5.36054325 0.93095392
v -0.78809464 5.32104015 0.797196686
v -1.29821575 5.95284748 1.21508503
v -1.21640337 6.03962994 0.842355549
v -1.08850312 6.04016209 0.538863599
v -0.825205088 5.75715733 0.54298991
vt 0.823114157 0.788992047
vt 0.784739494 0.792498112
vt 0.803632379 0.773858964
vt 0.783855259 0.830865026
vt 0.827632189 0.827253103
vt 0.81972003 0.851292253
vt 0.79371053 0.848898113
vt 0.786330938 0.881740689
vt 0.7528826 0.828740001
vt 0.735121131 0.860073686
vt 0.749646664 0.889141679
vt 0.777568996 0.898293853
vt 0.783795476 0.921900153
vt 0.743091881 0.915964544
vt 0.709703445 0.894518018
vt 0.70418036 0.860569298
vt 0.716921806 0.829044282
vt 0.749026537 0.792770505
vt 0.699968219 0.796217203
vt 0.734093904 0.769845724
vt 0.745238423 0.753949225
vt 0.807914615 0.742030621
vt 0.860915303 0.787719309
vt 0.871741295 0.75165987
vt 0.880002856 0.778830051
vt 0.815756738 0.873080969
vt 0.821945548 0.907971144
vt 0.871927023 0.857757688
vt 0.860174 0.83082509
vt 0.858095706 0.898550987
vt 0.862146378 0.943170786
vt 0.906554341 0.896403491
vt 0.72057128 0.954149604
vt 0.714341819 0.92526114
vt 0.666277885 0.952185631
vt 0.68643713 0.913736045
vt 0.630587578 0.905547142
vt 0.653198719 0.885742664
vt 0.659965992 0.828966379
vt 0.690257192 0.828134775
vt 0.667577684 0.783677459
vt 0.676991224 0.738536835
vt 0.710479975 0.724904299
vt 0.905957103 0.724957883
vt 0.938049555 0.772413731
vt 0.93799901 0.733922005
vt 0.900734007 0.7870906
vt 0.910454929 0.837064385
vt 0.907013774 0.865055919
vt 0.952268243 0.827467084
vt 0.970320284 0.877671838
vt 0.922398508 0.910394549
vt 0.620247722 0.838194132
vt 0.988754153 0.819346309
vt 0.970300794 0.766021729
vt 0.637917995 0.7761482
vt 0.965961993 0.942204177
vt 0.956801176 0.921483099
vt 0.974191487 0.929646134
vt 0.953135967 0.932383478
vt 0.902902305 0.972464323
vt 0.884769082 0.972430527
vt 0.903891325 0.950931311
vt 0.889554918 0.948592007
vt 0.933259666 0.968811333
vt 0.919153214 0.971548498
vt 0.926807046 0.950378597
vt 0.915220678 0.951762438
vt 0.946549773 0.940469563
vt 0.945465982 0.962406278
vt 0.937376082 0.948256552
vt 0.957526267 0.95386982
vt 0.909395933 0.928329229
vt 0.920190752 0.928481698
vt 0.933890224 0.925053
vt 0.92711544 0.930263042
vt 0.986565232 0.94653827
vt 0.979089141 0.957989872
vt 0.900072336 0.993253052
vt 0.912412226 0.990582585
vt 0.940129876 0.984484613
vt 0.926477134 0.989555776
vt 0.968042135 0.967912793
vt 0.955503583 0.978863955
vt 0.932071805 0.917731941
vt 0.959696472 0.907552421
vt 0.983358741 0.913998902
vt 0.994746387 0.937355936
vt 0.867776513 0.659591258
vt 0.87599206 0.615084469
vt 0.87599206 0.659591258
vt 0.867776513 0.615084469
vt 0.884207368 0.659591258
vt 0.884207368 0.615084469
vt 0.89242053 0.615084469
vt 0.89242053 0.659591258
vt 0.900630236 0.615084469
vt 0.900630236 0.659591258
vt 0.9088341 0.615084469
vt 0.9088341 0.659591258
vt 0.917030334 0.615084469
vt 0.917030334 0.659591258
vt 0.925217867 0.615084469
vt 0.925217867 0.659591258
vt 0.933394194 0.659591258
vt 0.933394194 0.615084469
vt 0.983176708 0.737105608
vt 0.989379764 0.739716649
vt 0.983126283 0.745899081
vt 0.976944089 0.739645481
vt 0.974333227 0.745848656
vt 0.976873338 0.752081335
vt 0.983076453 0.754692376
vt 0.989308715 0.752152324
vt 0.991919756 0.74594909
vt 0.860978484 0.134140193
vt 0.877579451 0.120731413
vt 0.877579451 0.134140193
vt 0.860978484 0.120731413
vt 0.894181728 0.134140193
vt 0.894181728 0.120731413
vt 0.91083014 0.120731413
vt 0.91083014 0.134140193
vt 0.92752552 0.120731413
vt 0.92752552 0.134140193
vt 0.94423151 0.120731413
vt 0.94423151 0.134140193
vt 0.960946083 0.134140193
vt 0.960946083 0.120731413
vt 0.977626562 0.120731413
vt 0.977626562 0.134140193
vt 0.994169354 0.120731413
vt 0.994169354 0.134140193
vt 0.991888106 0.725616932
vt 0.975496411 0.708996952
vt 0.991888046 0.70899713
vt 0.975496352 0.725616753
vt 0.991888106 0.69237709
vt 0.975496352 0.692377031
vt 0.975496352 0.675757289
vt 0.991888106 0.675757408
vt 0.975496411 0.659137487
vt 0.991888165 0.659137607
vt 0.975496411 0.642517686
vt 0.991888165 0.642517745
vt 0.991888165 0.625898123
vt 0.975496411 0.625897944
vt 0.975496411 0.609277964
vt 0.991888165 0.609278083
vt 0.991888165 0.592658401
vt 0.975496411 0.592658222
vt 0.94456768 0.725616753
vt 0.94456768 0.708996952
vt 0.94456768 0.692377031
vt 0.94456768 0.675757289
vt 0.94456768 0.659137487
vt 0.94456768 0.642517686
vt 0.94456768 0.625897944
vt 0.94456768 0.609278023
vt 0.94456768 0.592658222
vt 0.994169354 0.00603049994
vt 0.977626562 0.0124058127
vt 0.977626562 0.00603049994
vt 0.994169354 0.0124058127
vt 0.960946083 0.00603049994
vt 0.960946083 0.0124058127
vt 0.94423151 0.0124058127
vt 0.94423151 0.00603049994
vt 0.92752552 0.00603049994
vt 0.92752552 0.0124058127
vt 0.910829902 0.0124058127
vt 0.91083014 0.00603049994
vt 0.894181728 0.0124058127
vt 0.894181728 0.00603049994
vt 0.877579093 0.0124058127
vt 0.877579093 0.00603049994
vt 0.860978484 0.0124058127
vt 0.860978484 0.00603049994
vt 0.977626562 0.0394961834
vt 0.994169354 0.0394961834
vt 0.960946083 0.0394961834
vt 0.94423151 0.0394961834
vt 0.92752552 0.0394961834
vt 0.91083014 0.0394961834
vt 0.894181728 0.0394961834
vt 0.877579212 0.0394961834
vt 0.860978484 0.0394961834
vt 0.94423151 0.0665225983
vt 0.92752552 0.0935847759
vt 0.92752552 0.0665225983
vt 0.94423151 0.0935847759
vt 0.91083014 0.0665225983
vt 0.91083014 0.0935847759
vt 0.894181728 0.0935847759
vt 0.894181728 0.0665225983
vt 0.877579451 0.0935847759
vt 0.877579451 0.0665225983
vt 0.860978484 0.0935847759
vt 0.860978484 0.0665225983
vt 0.994169354 0.0935847759
vt 0.977626562 0.0665225983
vt 0.994169354 0.0665225983
vt 0.977626562 0.0935847759
vt 0.960946083 0.0935847759
vt 0.960946083 0.0665225983
vt 0.965961993 0.942204177
vt 0.956801176 0.921483099
vt 0.974191487 0.929646134
vt 0.953135967 0.932383478
vt 0.902902305 0.972464323
vt 0.889554918 0.948592007
vt 0.903891325 0.950931311
vt 0.884769082 0.972430527
vt 0.933259666 0.968811333
vt 0.915220678 0.951762438
vt 0.926807046 0.950378597
vt 0.919153214 0.971548498
vt 0.945465982 0.962406278
vt 0.937376082 0.948256552
vt 0.957526267 0.95386982
vt 0.946549773 0.940469563
vt 0.909395933 0.928329229
vt 0.920190752 0.928481698
vt 0.933890224 0.925053
vt 0.92711544 0.930263042
vt 0.979089141 0.957989872
vt 0.986565232 0.94653827
vt 0.900072336 0.993253052
vt 0.912412226 0.990582585
vt 0.926477134 0.989555776
vt 0.940129876 0.984484613
vt 0.955503583 0.978863955
vt 0.968042135 0.967912793
vt 0.932071805 0.917731941
vt 0.959696472 0.907552421
vt 0.983358741 0.913998902
vt 0.994746387 0.937355936
vt 0.965961993 0.942204177
vt 0.956801176 0.921483099
vt 0.974191487 0.929646134
vt 0.953135967 0.932383478
vt 0.902902305 0.972464323
vt 0.889554918 0.948592007
vt 0.903891325 0.950931311
vt 0.884769082 0.972430527
vt 0.933259666 0.968811333
vt 0.915220678 0.951762438
vt 0.926807046 0.950378597
vt 0.919153214 0.971548498
vt 0.945465982 0.962406278
vt 0.937376082 0.948256552
vt 0.957526267 0.95386982
vt 0.946549773 0.940469563
vt 0.909395933 0.928329229
vt 0.920190752 0.928481698
vt 0.933890224 0.925053
vt 0.92711544 0.930263042
vt 0.979089141 0.957989872
vt 0.986565232 0.94653827
vt 0.900072336 0.993253052
vt 0.912412226 0.990582585
vt 0.926477134 0.989555776
vt 0.940129876 0.984484613
vt 0.955503583 0.978863955
vt 0.968042135 0.967912793
vt 0.932071805 0.917731941
vt 0.959696472 0.907552421
vt 0.983358741 0.913998902
vt 0.994746387 0.937355936
vt 0.974191487 0.929646134
vt 0.965961993 0.942204177
vt 0.953135967 0.932383478
vt 0.956801176 0.921483099
vt 0.902902305 0.972464323
vt 0.889554918 0.948592007
vt 0.903891325 0.950931311
vt 0.884769082 0.972430527
vt 0.933259666 0.968811333
vt 0.915220678 0.951762438
vt 0.926807046 0.950378597
vt 0.919153214 0.971548498
vt 0.945465982 0.962406278
vt 0.937376082 0.948256552
vt 0.957526267 0.95386982
vt 0.946549773 0.940469563
vt 0.909395933 0.928329229
vt 0.920190752 0.928481698
vt 0.933890224 0.925053
vt 0.92711544 0.930263042
vt 0.979089141 0.957989872
vt 0.986565232 0.94653827
vt 0.900072336 0.993253052
vt 0.912412226 0.990582585
vt 0.926477134 0.989555776
vt 0.940129876 0.984484613
vt 0.955503583 0.978863955
vt 0.968042135 0.967912793
vt 0.932071805 0.917731941
vt 0.959696472 0.907552421
vt 0.983358741 0.913998902
vt 0.994746387 0.937355936
vt 0.965961993 0.942204177
vt 0.956801176 0.921483099
vt 0.974191487 0.929646134
vt 0.953135967 0.932383478
vt 0.889554918 0.948592007
vt 0.902902305 0.972464323
vt 0.884769082 0.972430527
vt 0.903891325 0.950931311
vt 0.933259666 0.968811333
vt 0.915220678 0.951762438
vt 0.926807046 0.950378597
vt 0.919153214 0.971548498
vt 0.937376082 0.948256552
vt 0.946549773 0.940469563
vt 0.957526267 0.95386982
vt 0.945465982 0.962406278
vt 0.909395933 0.928329229
vt 0.920190752 0.928481698
vt 0.933890224 0.925053
vt 0.92711544 0.930263042
vt 0.979089141 0.957989872
vt 0.986565232 0.94653827
vt 0.900072336 0.993253052
vt 0.912412226 0.990582585
vt 0.926477134 0.989555776
vt 0.940129876 0.984484613
vt 0.955503583 0.978863955
vt 0.968042135 0.967912793
vt 0.932071805 0.917731941
vt 0.959696472 0.907552421
vt 0.983358741 0.913998902
vt 0.994746387 0.937355936
vt 0.965961993 0.942204177
vt 0.956801176 0.921483099
vt 0.974191487 0.929646134
vt 0.953135967 0.932383478
vt 0.903891325 0.950931311
vt 0.884769082 0.972430527
vt 0.889554918 0.948592007
vt 0.902902305 0.972464323
vt 0.933259666 0.968811333
vt 0.915220678 0.951762438
vt 0.926807046 0.950378597
vt 0.919153214 0.971548498
vt 0.957526267 0.95386982
vt 0.945465982 0.962406278
vt 0.937376082 0.948256552
vt 0.946549773 0.940469563
vt 0.909395933 0.928329229
vt 0.920190752 0.928481698
vt 0.933890224 0.925053
vt 0.92711544 0.930263042
vt 0.979089141 0.957989872
vt 0.986565232 0.94653827
vt 0.900072336 0.993253052
vt 0.912412226 0.990582585
vt 0.926477134 0.989555776
vt 0.940129876 0.984484613
vt 0.968042135 0.967912793
vt 0.955503583 0.978863955
vt 0.932071805 0.917731941
vt 0.959696472 0.907552421
vt 0.983358741 0.913998902
vt 0.994746387 0.937355936
vt 0.956801176 0.921483099
vt 0.965961993 0.942204177
vt 0.953135967 0.932383478
vt 0.974191487 0.929646134
vt 0.903891325 0.950931311
vt 0.902902305 0.972464323
vt 0.884769082 0.972430527
vt 0.889554918 0.948592007
vt 0.915220678 0.951762438
vt 0.933259666 0.968811333
vt 0.919153214 0.971548498
vt 0.926807046 0.950378597
vt 0.945465982 0.962406278
vt 0.937376082 0.948256552
vt 0.957526267 0.95386982
vt 0.946549773 0.940469563
vt 0.909395933 0.928329229
vt 0.920190752 0.928481698
vt 0.933890224 0.925053
vt 0.92711544 0.930263042
vt 0.979089141 0.957989872
vt 0.986565232 0.94653827
vt 0.900072336 0.993253052
vt 0.912412226 0.990582585
vt 0.926477134 0.989555776
vt 0.940129876 0.984484613
vt 0.955503583 0.978863955
vt 0.968042135 0.967912793
vt 0.932071805 0.917731941
vt 0.959696472 0.907552421
vt 0.983358741 0.913998902
vt 0.994746387 0.937355936
vt 0.974191487 0.929646134
vt 0.953135967 0.932383478
vt 0.956801176 0.921483099
vt 0.965961993 0.942204177
vt 0.889554918 0.948592007
vt 0.902902305 0.972464323
vt 0.884769082 0.972430527
vt 0.903891325 0.950931311
vt 0.915220678 0.951762438
vt 0.933259666 0.968811333
vt 0.919153214 0.971548498
vt 0.926807046 0.950378597
vt 0.945465982 0.962406278
vt 0.946549773 0.940469563
vt 0.957526267 0.95386982
vt 0.937376082 0.948256552
vt 0.909395933 0.928329229
vt 0.920190752 0.928481698
vt 0.933890224 0.925053
vt 0.92711544 0.930263042
vt 0.979089141 0.957989872
vt 0.986565232 0.94653827
vt 0.900072336 0.993253052
vt 0.912412226 0.990582585
vt 0.926477134 0.989555776
vt 0.940129876 0.984484613
vt 0.955503583 0.978863955
vt 0.968042135 0.967912793
vt 0.932071805 0.917731941
vt 0.959696472 0.907552421
vt 0.983358741 0.913998902
vt 0.994746387 0.937355936
vt 0.974191487 0.929646134
vt 0.953135967 0.932383478
vt 0.956801176 0.921483099
vt 0.965961993 0.942204177
vt 0.889554918 0.948592007
vt 0.902902305 0.972464323
vt 0.884769082 0.972430527
vt 0.903891325 0.950931311
vt 0.919153214 0.971548498
vt 0.915220678 0.951762438
vt 0.926807046 0.950378597
vt 0.933259666 0.968811333
vt 0.957526267 0.95386982
vt 0.945465982 0.962406278
vt 0.937376082 0.948256552
vt 0.946549773 0.940469563
vt 0.909395933 0.928329229
vt 0.920190752 0.928481698
vt 0.933890224 0.925053
vt 0.92711544 0.930263042
vt 0.979089141 0.957989872
vt 0.986565232 0.94653827
vt 0.900072336 0.993253052
vt 0.912412226 0.990582585
vt 0.926477134 0.989555776
vt 0.940129876 0.984484613
vt 0.955503583 0.978863955
vt 0.968042135 0.967912793
vt 0.932071805 0.917731941
vt 0.959696472 0.907552421
vt 0.983358741 0.913998902
vt 0.994746387 0.937355936
vn 0.798218489 0.469979733 0.376784086
vn 0.735050738 0.558442235 -0.384503156
vn 0.71608752 0.674500406 -0.179632634
vn 0.878925145 0.0701958537 -0.471765906
vn 0.820274532 0.119026393 0.559448302
vn 0.77025497 -0.326532245 0.54779923
vn 0.901466548 -0.210566446 -0.378179759
vn 0.756385863 -0.515693426 -0.402418524
vn 0.639863849 0.00917354785 -0.768433511
vn 0.374232709 -0.411955118 -0.83080852
vn 0.412138581 -0.567595482 -0.712725103
vn 0.560987115 -0.793507218 -0.235880628
vn 0.260091126 -0.952259898 -0.159855112
vn 0.0912657976 -0.937008917 -0.337171614
vn -0.290300965 -0.650037885 -0.702264905
vn -0.317736566 -0.469940662 -0.823528409
vn 0.0175960492 0.128166109 -0.99159652
vn 0.442041278 0.582824051 -0.681847215
vn -0.414004147 0.561527014 -0.716441214
vn -0.0406692401 0.830133736 -0.55607909
vn 0.058498349 0.934226215 -0.351851165
vn 0.358035535 0.933667719 0.00866441801
vn 0.431472868 0.512750983 0.742238283
vn -0.118496224 0.936710954 0.329440862
vn 0.000783884898 0.723208427 0.690629482
vn 0.723843873 -0.546257377 0.421488881
vn 0.503616095 -0.833278418 0.228074074
vn 0.421900541 -0.344852358 0.838496745
vn 0.539616942 0.100714505 0.835864902
vn 0.380165279 -0.650021672 0.657986522
vn -0.145519018 -0.973356485 0.177204192
vn -0.438443124 -0.601185143 0.668089986
vn -0.145519018 -0.973356485 0.177204192
vn -0.238351092 -0.96750319 -0.0844190866
vn -0.639451504 -0.674367547 0.369229168
vn -0.596095979 -0.796577036 -0.100670613
vn -0.807962835 -0.509639442 0.295742661
vn -0.804129124 -0.531009078 -0.267218441
vn -0.83762598 0.00608339347 -0.54621017
vn -0.577724576 0.0884711295 -0.811422944
vn -0.695247352 0.534068465 -0.481042594
vn -0.534886241 0.824075639 -0.186536983
vn -0.388421834 0.921440661 0.00868993998
vn -0.388421834 0.921440661 0.00868993998
vn -0.74092865 0.537099302 0.403173685
vn -0.534886241 0.824075639 -0.186536983
vn -0.318146765 0.460835725 0.828500509
vn -0.29706642 0.140373275 0.944482327
vn -0.386428833 -0.415053487 0.823652446
vn -0.840009212 0.0366041474 0.54133594
vn -0.807962835 -0.509639442 0.295742661
vn -0.639451504 -0.674367547 0.369229168
vn -0.995212436 0.0976119041 0.0049000578
vn -0.995212436 0.0976119041 0.0049000578
vn -0.952223957 0.305237055 0.00999016315
vn -0.952223957 0.305237055 0.00999016315
vn -0.995802939 -0.0915167257 0.00109571964
vn -0.645056188 0.436381429 -0.62727499
vn -0.717817247 -0.0946069807 -0.689773798
vn -0.877643287 0.479147851 0.0126309488
vn 0.700471342 -0.0976962447 -0.706962109
vn -0.0067386874 -0.094610557 -0.995491445
vn 0.650061905 0.408958405 -0.64044714
vn 0.00700907037 0.457810134 -0.889022291
vn 0.707375407 -0.0946367308 0.700473964
vn 0.995510876 -0.0946106762 -0.00265848171
vn 0.64760536 0.427264065 0.630914271
vn 0.889072359 0.457766771 -0.000153101981
vn -0.636584699 0.430285931 0.640010715
vn -0.00999547075 -0.091539897 0.995751202
vn -0.0201388001 0.476068616 0.879177451
vn -0.702793419 -0.109853774 0.702861011
vn -0.0111318193 0.720242143 -0.693633497
vn 0.63032937 0.775158286 -0.0425969362
vn -0.670591712 0.741600752 -0.0183131769
vn -0.0505986102 0.762947202 0.644477665
vn -0.598270059 -0.576759815 -0.556256354
vn -0.794099271 -0.607284009 0.0247487575
vn -0.0238183141 -0.643907845 -0.764732301
vn 0.552272022 -0.61036092 -0.567851305
vn 0.545666337 -0.607295752 0.577442646
vn 0.741105318 -0.671388149 0.0009291108
vn -0.596179366 -0.558470666 0.57678479
vn -0.0461600721 -0.631721139 0.773820162
vn -0.0111318193 0.720242143 -0.693633497
vn 0.00700907037 0.457810134 -0.889022291
vn -0.0067386874 -0.094610557 -0.995491445
vn -0.0238183141 -0.643907845 -0.764732301
vn -0.706966102 0.0184274912 0.707007289
vn 2.21384962e-05 0.231959388 0.972725511
vn -2.36682354e-08 0.0183709431 0.9998312
vn -0.687822163 0.231960148 0.687819064
vn 0.706986845 0.0184269641 0.706986666
vn 0.687836289 0.231960237 0.687805116
vn 0.972725391 0.231959522 -2.22053422e-05
vn 0.9998312 0.0183711071 -3.66371751e-08
vn 0.687867343 0.231960475 -0.687773943
vn 0.706986845 0.0184271857 -0.706986547
vn -2.23230345e-05 0.231959641 -0.972725451
vn 5.90216587e-09 0.0183712672 -0.9998312
vn -0.687742293 0.231960386 -0.687898934
vn -0.706964672 0.0183159504 -0.70701164
vn -0.972725511 0.231959388 2.20499387e-05
vn -0.9998312 0.0183710754 -4.23597157e-09
vn -0.706966102 0.0184274912 0.707007289
vn -0.687822163 0.231960148 0.687819064
vn -6.18025661e-06 -0.636332631 0.771414697
vn -0.54543972 -0.636332572 0.545505524
vn 6.06671113e-09 -1 -1.5773449e-07
vn 0.545468152 -0.636332691 0.545477033
vn 0.771414757 -0.636332512 6.00889325e-06
vn 0.545477033 -0.636332512 -0.54546833
vn 6.29946589e-06 -0.636332452 -0.771414936
vn -0.545468211 -0.636332572 -0.545477152
vn -0.771414816 -0.636332631 -6.12437725e-06
vn -0.687822163 0.231960148 0.687819064
vn 1.91739709e-05 0.204491913 0.978868246
vn 2.21384962e-05 0.231959388 0.972725511
vn -0.692174613 0.204492167 0.69215405
vn 0.687836289 0.231960237 0.687805116
vn 0.692177832 0.204492211 0.692150772
vn 0.978868186 0.204491988 -1.92425414e-05
vn 0.972725391 0.231959522 -2.22053422e-05
vn 0.692150414 0.20449242 -0.692178011
vn 0.687867343 0.231960475 -0.687773943
vn -1.93585875e-05 0.204492182 -0.978868246
vn -2.23230345e-05 0.231959641 -0.972725451
vn -0.687742293 0.231960386 -0.687898934
vn -0.692123353 0.204492435 -0.692205071
vn -0.978868186 0.204492003 1.92478165e-05
vn -0.972725511 0.231959388 2.20499387e-05
vn -0.692174613 0.204492167 0.69215405
vn -0.687822163 0.231960148 0.687819064
vn -0.652778447 0.384489834 0.652723432
vn 3.04946279e-05 -0.112855554 0.993611395
vn 2.91466713e-05 0.384489626 0.92312932
vn -0.702584028 -0.112919226 0.702584386
vn 0.652771592 0.384489715 0.652730465
vn 0.702591479 -0.112919256 0.702576995
vn 0.993611395 -0.112855457 -1.02377026e-05
vn 0.92312932 0.384489596 -2.91671604e-05
vn 0.702605844 -0.112919115 -0.70256269
vn 0.652730227 0.384489805 -0.652771652
vn 3.05443864e-05 -0.11285539 -0.993611455
vn -2.92290933e-05 0.384489834 -0.923129201
vn -0.652771592 0.384489954 -0.652730286
vn -0.70256263 -0.112919115 -0.702605903
vn -0.993611455 -0.112855375 3.05896392e-05
vn -0.923129261 0.384489655 2.93888152e-05
vn -0.652778447 0.384489834 0.652723432
vn -0.702584028 -0.112919226 0.702584386
vn -0.54543972 -0.636332572 0.545505524
vn -6.18025661e-06 -0.636332631 0.771414697
vn 0.545468152 -0.636332691 0.545477033
vn 0.771414757 -0.636332512 6.00889325e-06
vn 0.545477033 -0.636332512 -0.54546833
vn 6.29946589e-06 -0.636332452 -0.771414936
vn -0.545468211 -0.636332572 -0.545477152
vn -0.771414816 -0.636332631 -6.12437725e-06
vn -0.54543972 -0.636332572 0.545505524
vn -0.652778447 0.384489834 0.652723432
vn -0.984752595 -0.173960343 -1.81640044e-05
vn -0.923129261 0.384489655 2.93888152e-05
vn -0.696324646 -0.174017832 0.696311474
vn -0.652771592 0.384489954 -0.652730286
vn -0.696356833 -0.174017698 -0.696279466
vn 5.46565716e-05 -0.174017563 -0.984742522
vn -2.92290933e-05 0.384489834 -0.923129201
vn 0.652730227 0.384489805 -0.652771652
vn 0.696331084 -0.174017683 -0.696305156
vn 0.984752655 -0.173960403 1.8195351e-05
vn 0.92312932 0.384489596 -2.91671604e-05
vn 0.696253777 -0.174017847 0.696382463
vn 0.652771592 0.384489715 0.652730465
vn -1.82580516e-05 -0.173960492 0.984752655
vn 2.91466713e-05 0.384489626 0.92312932
vn -0.696324646 -0.174017832 0.696311474
vn -0.652778447 0.384489834 0.652723432
vn -0.998950958 -0.0457919165 5.42615226e-07
vn -0.706364751 -0.0457920432 0.706365168
vn -0.706364691 -0.0457918458 -0.706365347
vn 2.6033527e-07 -0.0457917787 -0.998950958
vn 0.706364453 -0.0457917638 -0.706365526
vn 0.998950958 -0.0457918532 1.57186122e-07
vn 0.70636487 -0.045792006 0.706365168
vn 4.90419438e-07 -0.0457920656 0.998950958
vn -0.706364751 -0.0457920432 0.706365168
vn 1.23691962e-07 0.00919987541 -0.999957681
vn 0.706367016 0.0457311869 -0.706366897
vn 0.707076967 0.00919982977 -0.707076788
vn -1.13666829e-07 0.045785334 -0.998951316
vn 0.999957681 0.00919973571 1.77695711e-07
vn 0.998951316 0.0457851849 -5.16114547e-08
vn 0.706366897 0.0457310081 0.706367075
vn 0.70707655 0.00919964164 0.707077086
vn -5.15082732e-08 0.0457850248 0.998951316
vn 3.22424512e-07 0.00919959601 0.999957681
vn -0.706368566 0.0456768945 0.706368744
vn -0.707077384 0.00903678779 0.707078457
vn -0.706368566 0.0456768945 0.706368744
vn -0.999957681 0.00919972826 4.57189401e-07
vn -0.707077384 0.00903678779 0.707078457
vn -0.998951375 0.045785211 7.20084117e-08
vn -0.706365168 0.0457853489 -0.706365287
vn -0.707076967 0.0091998186 -0.707076669
vn -0.700700581 -0.49136427 0.517281353
vn -0.0438330844 -0.985361516 0.164746448
vn -0.0178477447 -0.756777287 0.653429091
vn -0.660604954 -0.750719786 -0.00456704572
vn 0.999342144 0.0122131091 0.0341489352
vn 0.599113643 -0.799511969 -0.0429373533
vn 0.885104656 -0.265500903 -0.38222909
vn 0.70040983 -0.552348435 0.452036798
vn 0.0149529791 0.866375625 -0.499169022
vn 0.60108304 0.222747326 -0.767517328
vn -0.0116955489 0.491305858 -0.870908558
vn 0.71417284 0.598168433 -0.363526672
vn -0.701612532 0.650061786 -0.291821182
vn -0.661940038 0.247186109 -0.707625866
vn -0.985024869 0.103739001 0.137710616
vn -0.927705169 -0.210595965 -0.308241069
vn 0.433749765 -0.842149615 -0.320382953
vn 0.428192168 -0.125184238 -0.894975185
vn -0.511163056 -0.805743754 -0.299147755
vn -0.537743568 -0.0763417855 -0.839645028
vn -0.541834772 -0.070202902 0.837547958
vn 0.00361906691 -0.332655013 0.943041623
vn 0.561820269 -0.106810108 0.820334971
vn 0.829840541 0.311285675 0.463104576
vn 0.567567408 0.793517649 0.219537899
vn 0.0196258742 0.999148726 0.0362845957
vn -0.534686327 0.808615744 0.245461166
vn -0.792530954 0.344817132 0.502986729
vn 0.433749765 -0.842149615 -0.320382953
vn 0.599113643 -0.799511969 -0.0429373533
vn 0.70040983 -0.552348435 0.452036798
vn 0.561820269 -0.106810108 0.820334971
vn -0.677535057 0.653127611 0.338187128
vn -0.00151402969 0.457683504 0.889113903
vn 0.0167309437 0.854329705 0.519462109
vn -0.629240811 0.234954417 0.74084574
vn 0.997965157 0.0122283921 -0.062579006
vn 0.63425684 0.192265064 0.748833954
vn 0.894178033 -0.296018571 0.335885078
vn 0.726134121 0.585929871 0.359743476
vn -0.0237504207 -0.738584876 -0.673741877
vn 0.588175774 -0.808727384 -0.00302777067
vn -0.0356502607 -0.979153156 -0.19997023
vn 0.685947895 -0.540153801 -0.487554431
vn -0.729283631 -0.46386838 -0.502962768
vn -0.674212635 -0.738503456 0.00707051717
vn -0.988115191 0.11597462 -0.100888267
vn -0.919234753 -0.213614419 0.330720842
vn 0.469106495 -0.0579829141 0.881236196
vn 0.429591417 -0.820929706 0.376198679
vn -0.476653308 -0.0305303894 0.87856102
vn -0.538449705 -0.766072214 0.351006031
vn -0.536722541 0.827125072 -0.166712612
vn 0.0215367284 0.999306738 0.0303686969
vn 0.567216933 0.805562854 -0.171270385
vn 0.818158627 0.332596362 -0.469037414
vn 0.533119559 -0.0427351333 -0.844959974
vn -0.0228241943 -0.268554389 -0.962994099
vn -0.569141865 -0.00304785324 -0.822233737
vn -0.805101097 0.387561798 -0.449007839
vn 0.469106495 -0.0579829141 0.881236196
vn 0.63425684 0.192265064 0.748833954
vn 0.726134121 0.585929871 0.359743476
vn 0.567216933 0.805562854 -0.171270385
vn 0.0659748614 0.00915507972 -0.99777925
vn 0.537316918 -0.479141742 -0.694056034
vn 0.0705621988 -0.811728537 -0.579756618
vn -0.325782806 -0.344857723 -0.880306065
vn -0.607923925 0.79355824 -0.0263378378
vn -0.777451992 0.125127375 -0.616369665
vn -0.921795964 0.387608111 0.00722727366
vn -0.420777708 0.546278059 -0.724241972
vn 0.0824270993 0.106831111 0.990854621
vn -0.752305448 0.173927888 0.635441244
vn -0.304414958 -0.247199401 0.919904351
vn -0.401118845 0.607353032 0.685730278
vn 0.565902531 -0.427240252 0.705138385
vn 0.0974429995 -0.762981772 0.639033437
vn 0.757197559 -0.653050303 0.0133067528
vn 0.302567929 -0.952445149 0.0360657722
vn -0.863685012 -0.158744305 -0.478381068
vn -0.883477986 -0.164803147 0.438527852
vn -0.23343417 -0.863417268 -0.44723469
vn -0.212479204 -0.86342901 0.457540125
vn 0.829139173 -0.0305219181 -0.558208406
vn 0.425932914 0.338718265 -0.838958323
vn 0.101453871 0.799541235 -0.591980517
vn -0.0973818451 0.994012177 -0.049562443
vn 0.143426478 0.860761881 0.488382906
vn 0.472260743 0.430274159 0.769307494
vn 0.866333842 0.0274833348 0.498708665
vn 0.973924696 -0.225838602 -0.021625448
vn -0.863685012 -0.158744305 -0.478381068
vn -0.777451992 0.125127375 -0.616369665
vn -0.420777708 0.546278059 -0.724241972
vn 0.101453871 0.799541235 -0.591980517
vn 0.41520831 0.665282011 0.620485246
vn 0.956799686 0.289904922 -0.0221235212
vn 0.614610195 0.784388006 -0.0836040527
vn 0.784867227 0.131208405 0.60561353
vn 0.781464338 -4.61190939e-06 -0.623950005
vn -0.0766712278 -0.0457789339 -0.996004939
vn 0.417117327 0.488292187 -0.76654017
vn 0.312232554 -0.439439386 -0.842261136
vn -0.7663095 -0.637767911 0.0776004419
vn -0.0733947158 -0.863593459 -0.498818129
vn -0.280140936 -0.952695787 0.117863253
vn -0.563621998 -0.518768609 -0.642813683
vn -0.0423137732 -0.70191896 0.710998774
vn 0.331900775 -0.225838631 0.915881455
vn -0.0841127783 0.210565001 0.973954558
vn -0.560572207 -0.332642227 0.758358777
vn 0.868246555 -0.262481004 -0.42101261
vn 0.297467113 -0.897434473 -0.325767577
vn 0.870548844 -0.167892173 0.462554604
vn 0.282656252 -0.775110126 0.565074861
vn -0.0978486463 0.896987796 0.431089908
vn 0.105290197 0.988771379 -0.106043398
vn -0.114817098 0.790358424 -0.601789534
vn -0.450918972 0.37227425 -0.811223745
vn -0.852233112 0.0915526226 -0.515089154
vn -0.9967134 -0.076297842 0.0272225812
vn -0.823610961 0.204472408 0.52901423
vn -0.416200489 0.540148199 0.73144865
vn 0.868246555 -0.262481004 -0.42101261
vn 0.781464338 -4.61190939e-06 -0.623950005
vn 0.417117327 0.488292187 -0.76654017
vn -0.114817098 0.790358424 -0.601789534
vn -0.798681676 0.570663691 0.190920562
vn -0.088231124 0.99402833 -0.064210698
vn -0.405947387 0.827165604 -0.388592213
vn -0.422403693 0.756738663 0.4989205
vn 0.895392537 0.177032262 -0.408572823
vn 0.212644309 0.58284539 -0.784266353
vn 0.498526275 0.762864053 -0.411716074
vn 0.666206837 -0.0335788578 -0.745010674
vn 0.294367969 -0.909717917 0.292849481
vn 0.933128059 -0.357087672 0.0419599414
vn 0.554107308 -0.619502008 0.556041718
vn 0.698882341 -0.650051057 -0.2983239
vn -0.777462542 -0.0518958904 0.626784503
vn -0.326513201 -0.653037906 0.683323026
vn -0.00016849488 -0.338778049 0.940866292
vn -0.433156461 0.180083543 0.883145213
vn 0.597815573 0.793532252 -0.11368037
vn 0.96201849 -0.0274495408 0.271600634
vn -0.115018293 0.787492692 0.605496705
vn 0.209448636 -0.0426874682 0.976887405
vn -0.966570914 0.219711363 -0.132165
vn -0.628425658 0.485250056 -0.607958615
vn -0.15696907 0.225827202 -0.961437881
vn 0.260932595 -0.259435833 -0.929842651
vn 0.214574754 -0.784350455 -0.582024038
vn -0.0666775405 -0.996726394 -0.0457227938
vn -0.93233496 -0.241076961 0.269506007
vn -0.603616416 -0.759944737 0.241104126
vn 0.597815573 0.793532252 -0.11368037
vn 0.498526275 0.762864053 -0.411716074
vn 0.212644309 0.58284539 -0.784266353
vn -0.15696907 0.225827202 -0.961437881
vn 0.0104965307 0.999943435 0.0017062407
vn 0.238770649 0.619497836 0.747804046
vn 0.557080626 0.750630021 0.355268717
vn -0.320552856 0.887857497 0.330083102
vn -0.400271118 0.131200403 -0.906956077
vn -0.749891341 -0.0335726701 -0.660708547
vn -0.739960372 0.61950177 -0.262061775
vn -0.357636988 0.74470377 -0.563482046
vn 0.00860340893 -0.439372748 -0.898263633
vn 0.220783249 -0.951788366 -0.212964103
vn -0.351406038 -0.683695138 -0.639589489
vn 0.504493475 -0.704924524 -0.498565555
vn 0.635284543 -0.671294987 0.38180697
vn 0.913424969 -0.405947536 0.0293524582
vn 0.626547337 -0.0335516557 0.778660834
vn 0.897110522 0.149539515 0.415728986
vn -0.0585480966 0.744816065 -0.664696336
vn 0.261654317 -0.131178886 -0.956205606
vn 0.662545919 0.747600555 0.0461117104
vn 0.969447255 -0.134253666 -0.205299884
vn -0.10836561 0.314356029 0.943099797
vn -0.565168202 0.582848191 0.583843231
vn -0.940406144 0.311263323 0.136936307
vn -0.948910594 -0.207596794 -0.237639129
vn -0.64071095 -0.753825068 -0.145729378
vn -0.120681927 -0.980664015 0.154058099
vn 0.188079178 -0.720269144 0.667711258
vn 0.257491171 -0.180067748 0.949354529
vn -0.0585480966 0.744816065 -0.664696336
vn -0.357636988 0.74470377 -0.563482046
vn -0.739960372 0.61950177 -0.262061775
vn -0.940406144 0.311263323 0.136936307
vn -0.175144568 -0.976846635 -0.122862287
vn -0.873705029 -0.476119965 0.099745959
vn -0.491236746 -0.76912868 -0.408812374
vn -0.564789712 -0.692766488 0.44842732
vn -0.00476058573 -0.497451127 -0.867478967
vn 0.716513216 -0.0335765257 -0.696764946
vn 0.362941831 -0.704922974 -0.609390557
vn 0.356811076 0.109852672 -0.927695096
vn 0.276115179 0.735282719 -0.618966579
vn 0.281181604 0.930229664 0.235816881
vn 0.683606625 0.643947303 -0.343531489
vn -0.0569173396 0.995862424 -0.0708412006
vn -0.256702185 0.643943727 0.720722139
vn -0.881978989 0.11596369 0.456799328
vn -0.587794065 -0.0244261287 0.808641732
vn -0.594831944 0.726232827 0.34461695
vn -0.256400645 -0.314323574 -0.914034665
vn -0.0873964727 0.643995345 -0.760020971
vn -0.942988276 -0.292959213 -0.157949358
vn -0.761823416 0.646995664 0.0319638848
vn -0.134280369 -0.704977214 0.696402133
vn 0.159694597 -0.96959728 0.185414821
vn 0.65439117 -0.738488436 -0.162502676
vn 0.943001032 -0.174057886 -0.283642232
vn 0.933363914 0.350973189 0.0751634166
vn 0.565668046 0.637862444 0.522638559
vn 0.131214887 0.353987128 0.92599988
vn -0.214002922 -0.155633911 0.964355111
vn -0.256400645 -0.314323574 -0.914034665
vn -0.00476058573 -0.497451127 -0.867478967
vn 0.362941831 -0.704922974 -0.609390557
vn 0.65439117 -0.738488436 -0.162502676
vn -0.656482637 -0.0457687452 -0.752951205
vn -0.929071665 -0.338678718 0.148736328
vn -0.956652999 0.192240149 -0.21876657
vn -0.621824086 -0.683636189 -0.382068604
vn -0.617020667 0.765946567 -0.180585802
vn 0.331792951 0.879132271 -0.342111021
vn -0.263778299 0.619486213 -0.739363074
vn -0.0796130896 0.989543855 0.120268911
vn 0.765581846 0.60423708 0.220867336
vn 0.24831374 0.741528392 0.62327832
vn 0.309312135 0.180039704 0.933762252
vn 0.802631974 -0.0549446158 0.593938708
vn -0.169060051 -0.972765267 0.15857628
vn 0.401268065 -0.714066386 0.573666453
vn -0.0919599831 -0.363215506 0.927155793
vn -0.54591769 -0.610372186 0.573950946
vn -0.711732686 0.689608574 0.133703649
vn -0.153941721 0.683639705 0.713399291
vn -0.928968549 -0.0732126161 0.362846076
vn -0.362762094 -0.109845966 0.925385118
vn -0.0593216643 -0.732364237 -0.678323984
vn -0.134851426 -0.253305107 -0.957941294
vn 0.213788435 0.180026039 -0.960148513
vn 0.616508722 0.415032208 -0.669077873
vn 0.935323536 0.149545521 -0.320633709
vn 0.958724797 -0.28380549 0.0173546392
vn 0.655412614 -0.753847122 -0.046354685
vn 0.199569464 -0.94543767 -0.25752601
vn -0.711732686 0.689608574 0.133703649
vn -0.617020667 0.765946567 -0.180585802
vn -0.263778299 0.619486213 -0.739363074
vn 0.213788435 0.180026039 -0.960148513
f 1/1/1 2/2/2 3/3/3
f 2/2/2 1/1/1 4/4/4
f 4/4/4 1/1/1 5/5/5
f 6/6/6 7/7/7 5/5/5
f 8/8/8 9/9/9 4/4/4
f 8/8/8 4/4/4 7/7/7
f 8/8/8 10/10/10 9/9/9
f 10/10/10 8/8/8 11/11/11
f 12/12/12 11/11/11 8/8/8
f 11/11/11 12/12/12 13/13/13
f 11/11/11 13/13/13 14/14/14
f 15/15/15 10/10/10 11/11/11
f 10/10/10 15/15/15 16/16/16
f 9/9/9 10/10/10 17/17/17
f 18/18/18 17/17/17 19/19/19
f 18/18/18 19/19/19 20/20/20
f 2/2/2 4/4/4 18/18/18
f 4/4/4 9/9/9 18/18/18
f 20/20/20 2/2/2 18/18/18
f 20/20/20 3/3/3 2/2/2
f 21/21/21 3/3/3 20/20/20
f 3/3/3 21/21/21 22/22/22
f 22/22/22 1/1/1 3/3/3
f 1/1/1 22/22/22 23/23/23
f 24/24/24 25/25/25 23/23/23
f 26/26/26 7/7/7 6/6/6
f 27/27/27 8/8/8 26/26/26
f 8/8/8 27/27/27 12/12/12
f 27/27/27 13/13/13 12/12/12
f 28/28/28 5/5/5 29/29/29
f 28/28/28 6/6/6 5/5/5
f 28/28/28 26/26/26 6/6/6
f 26/26/26 28/28/28 30/30/30
f 27/27/27 26/26/26 30/30/30
f 31/31/31 13/13/13 27/27/27
f 31/31/31 30/30/30 32/32/32
f 14/14/14 33/33/33 34/34/34
f 33/33/33 14/14/14 13/13/13
f 35/35/35 36/36/36 33/33/33
f 33/33/33 36/36/36 34/34/34
f 15/15/15 14/14/14 34/34/34
f 36/36/36 15/15/15 34/34/34
f 37/37/37 36/36/36 35/35/35
f 36/36/36 37/37/37 38/38/38
f 15/15/15 38/38/38 16/16/16
f 16/16/16 39/39/39 40/40/40
f 17/17/17 10/10/10 16/16/16
f 17/17/17 16/16/16 40/40/40
f 19/19/19 17/17/17 40/40/40
f 9/9/9 17/17/17 18/18/18
f 39/39/39 41/41/41 40/40/40
f 41/41/41 19/19/19 40/40/40
f 41/41/41 20/20/20 19/19/19
f 20/20/20 41/41/41 42/42/42
f 42/42/42 21/21/21 20/20/20
f 21/21/21 42/42/42 43/43/43
f 44/44/44 24/24/24 22/22/22
f 24/24/24 44/44/44 45/45/45
f 45/45/45 44/44/44 46/46/46
f 24/24/24 47/47/47 25/25/25
f 1/1/1 23/23/23 29/29/29
f 29/29/29 5/5/5 1/1/1
f 23/23/23 25/25/25 47/47/47
f 48/48/48 29/29/29 47/47/47
f 49/49/49 28/28/28 48/48/48
f 28/28/28 49/49/49 30/30/30
f 50/50/50 48/48/48 47/47/47
f 50/50/50 49/49/49 48/48/48
f 51/51/51 32/32/32 49/49/49
f 32/32/32 51/51/51 52/52/52
f 50/50/50 51/51/51 49/49/49
f 53/53/53 39/39/39 38/38/38
f 50/50/50 54/54/54 51/51/51
f 50/50/50 45/45/45 55/55/55
f 50/50/50 55/55/55 54/54/54
f 53/53/53 56/56/56 41/41/41
f 53/53/53 41/41/41 39/39/39
f 56/56/56 42/42/42 41/41/41
f 45/45/45 46/46/46 55/55/55
f 53/53/53 38/38/38 37/37/37
f 11/11/11 14/14/14 15/15/15
f 15/15/15 36/36/36 38/38/38
f 16/16/16 38/38/38 39/39/39
f 26/26/26 8/8/8 7/7/7
f 4/4/4 5/5/5 7/7/7
f 48/48/48 28/28/28 29/29/29
f 23/23/23 47/47/47 29/29/29
f 45/45/45 47/47/47 24/24/24
f 23/23/23 22/22/22 24/24/24
f 50/50/50 47/47/47 45/45/45
f 31/31/31 32/32/32 52/52/52
f 30/30/30 49/49/49 32/32/32
f 43/43/43 22/22/22 21/21/21
f 31/31/31 27/27/27 30/30/30
f 57/57/57 58/58/58 59/59/59
f 58/58/58 57/57/57 60/60/60
f 61/61/61 62/62/62 63/63/63
f 62/62/62 64/64/64 63/63/63
f 65/65/65 66/66/66 67/67/67
f 67/67/67 66/66/66 68/68/68
f 69/69/69 70/70/70 71/71/71
f 70/70/70 69/69/69 72/72/72
f 63/63/63 64/64/64 73/73/73
f 74/74/74 67/67/67 68/68/68
f 75/75/75 69/69/69 76/76/76
f 75/75/75 58/58/58 60/60/60
f 59/59/59 77/77/77 57/57/57
f 78/78/78 57/57/57 77/77/77
f 79/79/79 62/62/62 80/80/80
f 62/62/62 61/61/61 80/80/80
f 81/81/81 66/66/66 65/65/65
f 66/66/66 81/81/81 82/82/82
f 72/72/72 83/83/83 70/70/70
f 70/70/70 83/83/83 84/84/84
f 76/76/76 67/67/67 74/74/74
f 70/70/70 67/67/67 71/71/71
f 67/67/67 70/70/70 65/65/65
f 65/65/65 70/70/70 81/81/81
f 81/81/81 70/70/70 84/84/84
f 74/74/74 68/68/68 63/63/63
f 66/66/66 63/63/63 68/68/68
f 63/63/63 66/66/66 61/61/61
f 61/61/61 66/66/66 80/80/80
f 66/66/66 82/82/82 80/80/80
f 75/75/75 74/74/74 85/85/85
f 58/58/58 85/85/85 86/86/86
f 87/87/87 58/58/58 86/86/86
f 58/58/58 87/87/87 59/59/59
f 87/87/87 88/88/88 77/77/77
f 77/77/77 59/59/59 87/87/87
f 75/75/75 60/60/60 69/69/69
f 69/69/69 57/57/57 72/72/72
f 57/57/57 69/69/69 60/60/60
f 83/83/83 72/72/72 57/57/57
f 83/83/83 57/57/57 78/78/78
f 74/74/74 75/75/75 76/76/76
f 58/58/58 75/75/75 85/85/85
f 63/63/63 73/73/73 74/74/74
f 76/76/76 69/69/69 71/71/71
f 71/71/71 67/67/67 76/76/76
f 89/89/89 90/90/90 91/91/91
f 90/90/90 89/89/89 92/92/92
f 91/91/91 90/90/90 93/93/93
f 93/93/93 90/90/90 94/94/94
f 95/95/95 93/93/93 94/94/94
f 93/93/93 95/95/95 96/96/96
f 97/97/97 98/98/98 95/95/95
f 96/96/96 95/95/95 98/98/98
f 99/99/99 98/98/98 97/97/97
f 98/98/98 99/99/99 100/100/100
f 101/101/101 102/102/102 99/99/99
f 99/99/99 102/102/102 100/100/100
f 103/103/103 102/102/102 101/101/101
f 102/102/102 103/103/103 104/104/104
f 105/105/105 103/103/103 106/106/106
f 103/103/103 105/105/105 104/104/104
f 107/107/107 108/108/108 109/109/109
f 110/110/110 107/107/107 109/109/109
f 111/111/111 110/110/110 109/109/109
f 112/112/112 111/111/111 109/109/109
f 113/113/113 112/112/112 109/109/109
f 114/114/114 113/113/113 109/109/109
f 115/115/115 114/114/114 109/109/109
f 108/108/108 115/115/115 109/109/109
f 116/116/116 117/117/117 118/118/118
f 117/117/117 116/116/116 119/119/119
f 120/120/120 117/117/117 121/121/121
f 117/117/117 120/120/120 118/118/118
f 122/122/122 120/120/120 121/121/121
f 120/120/120 122/122/122 123/123/123
f 122/122/122 124/124/124 125/125/125
f 122/122/122 125/125/125 123/123/123
f 125/125/125 126/126/126 127/127/127
f 126/126/126 125/125/125 124/124/124
f 128/128/128 127/127/127 126/126/126
f 126/126/126 129/129/129 128/128/128
f 130/130/130 128/128/128 129/129/129
f 128/128/128 130/130/130 131/131/131
f 130/130/130 132/132/132 133/133/133
f 130/130/130 133/133/133 131/131/131
f 134/134/134 135/135/135 136/136/136
f 135/135/135 134/134/134 137/137/137
f 138/138/138 136/136/136 135/135/135
f 135/135/135 139/139/139 138/138/138
f 138/138/138 140/140/140 141/141/141
f 140/140/140 138/138/138 139/139/139
f 142/142/142 143/143/143 140/140/140
f 141/141/141 140/140/140 143/143/143
f 144/144/144 143/143/143 142/142/142
f 143/143/143 144/144/144 145/145/145
f 146/146/146 144/144/144 147/147/147
f 144/144/144 146/146/146 145/145/145
f 148/148/148 146/146/146 147/147/147
f 146/146/146 148/148/148 149/149/149
f 150/150/150 148/148/148 151/151/151
f 148/148/148 150/150/150 149/149/149
f 137/137/137 152/152/152 135/135/135
f 135/135/135 152/152/152 153/153/153
f 135/135/135 154/154/154 139/139/139
f 154/154/154 135/135/135 153/153/153
f 155/155/155 140/140/140 154/154/154
f 139/139/139 154/154/154 140/140/140
f 140/140/140 156/156/156 142/142/142
f 156/156/156 140/140/140 155/155/155
f 157/157/157 144/144/144 156/156/156
f 156/156/156 144/144/144 142/142/142
f 158/158/158 144/144/144 157/157/157
f 144/144/144 158/158/158 147/147/147
f 148/148/148 158/158/158 159/159/159
f 148/148/148 147/147/147 158/158/158
f 160/160/160 148/148/148 159/159/159
f 148/148/148 160/160/160 151/151/151
f 161/161/161 162/162/162 163/163/163
f 162/162/162 161/161/161 164/164/164
f 162/162/162 165/165/165 163/163/163
f 162/162/162 166/166/166 165/165/165
f 165/165/165 167/167/167 168/168/168
f 167/167/167 165/165/165 166/166/166
f 169/169/169 168/168/168 167/167/167
f 169/169/169 167/167/167 170/170/170
f 171/171/171 169/169/169 170/170/170
f 169/169/169 171/171/171 172/172/172
f 171/171/171 173/173/173 174/174/174
f 174/174/174 172/172/172 171/171/171
f 175/175/175 174/174/174 173/173/173
f 174/174/174 175/175/175 176/176/176
f 175/175/175 177/177/177 178/178/178
f 175/175/175 178/178/178 176/176/176
f 164/164/164 179/179/179 162/162/162
f 179/179/179 164/164/164 180/180/180
f 179/179/179 166/166/166 162/162/162
f 166/166/166 179/179/179 181/181/181
f 166/166/166 182/182/182 167/167/167
f 182/182/182 166/166/166 181/181/181
f 167/167/167 182/182/182 170/170/170
f 170/170/170 182/182/182 183/183/183
f 184/184/184 170/170/170 183/183/183
f 170/170/170 184/184/184 171/171/171
f 171/171/171 184/184/184 173/173/173
f 185/185/185 173/173/173 184/184/184
f 186/186/186 173/173/173 185/185/185
f 173/173/173 186/186/186 175/175/175
f 187/187/187 177/177/177 186/186/186
f 186/186/186 177/177/177 175/175/175
f 188/188/188 189/189/189 190/190/190
f 189/189/189 188/188/188 191/191/191
f 190/190/190 189/189/189 192/192/192
f 193/193/193 192/192/192 189/189/189
f 194/194/194 192/192/192 193/193/193
f 192/192/192 194/194/194 195/195/195
f 196/196/196 197/197/197 194/194/194
f 194/194/194 197/197/197 195/195/195
f 198/198/198 197/197/197 196/196/196
f 197/197/197 198/198/198 199/199/199
f 200/200/200 201/201/201 202/202/202
f 201/201/201 200/200/200 203/203/203
f 201/201/201 204/204/204 205/205/205
f 204/204/204 201/201/201 203/203/203
f 205/205/205 204/204/204 188/188/188
f 188/188/188 204/204/204 191/191/191
f 191/191/191 124/124/124 189/189/189
f 124/124/124 191/191/191 126/126/126
f 189/189/189 124/124/124 193/193/193
f 122/122/122 193/193/193 124/124/124
f 193/193/193 121/121/121 194/194/194
f 121/121/121 193/193/193 122/122/122
f 117/117/117 196/196/196 121/121/121
f 121/121/121 196/196/196 194/194/194
f 119/119/119 196/196/196 117/117/117
f 196/196/196 119/119/119 198/198/198
f 132/132/132 203/203/203 200/200/200
f 203/203/203 132/132/132 130/130/130
f 203/203/203 129/129/129 204/204/204
f 129/129/129 203/203/203 130/130/130
f 204/204/204 129/129/129 191/191/191
f 191/191/191 129/129/129 126/126/126
f 182/182/182 188/188/188 183/183/183
f 183/183/183 188/188/188 190/190/190
f 192/192/192 183/183/183 190/190/190
f 183/183/183 192/192/192 184/184/184
f 195/195/195 185/185/185 192/192/192
f 185/185/185 184/184/184 192/192/192
f 197/197/197 185/185/185 195/195/195
f 185/185/185 197/197/197 186/186/186
f 197/197/197 199/199/199 187/187/187
f 197/197/197 187/187/187 186/186/186
f 180/180/180 201/201/201 179/179/179
f 201/201/201 180/180/180 202/202/202
f 201/201/201 181/181/181 179/179/179
f 181/181/181 201/201/201 205/205/205
f 181/181/181 188/188/188 182/182/182
f 188/188/188 181/181/181 205/205/205
f 206/206/206 207/207/207 208/208/208
f 207/207/207 206/206/206 209/209/209
f 210/210/210 211/211/211 212/212/212
f 211/211/211 210/210/210 213/213/213
f 214/214/214 215/215/215 216/216/216
f 215/215/215 214/214/214 217/217/217
f 218/218/218 219/219/219 220/220/220
f 219/219/219 221/221/221 220/220/220
f 212/212/212 211/211/211 222/222/222
f 223/223/223 216/216/216 215/215/215
f 224/224/224 221/221/221 225/225/225
f 224/224/224 207/207/207 209/209/209
f 226/226/226 208/208/208 227/227/227
f 208/208/208 226/226/226 206/206/206
f 210/210/210 228/228/228 213/213/213
f 228/228/228 210/210/210 229/229/229
f 230/230/230 214/214/214 231/231/231
f 214/214/214 230/230/230 217/217/217
f 232/232/232 220/220/220 233/233/233
f 220/220/220 232/232/232 218/218/218
f 225/225/225 216/216/216 223/223/223
f 216/216/216 218/218/218 214/214/214
f 218/218/218 216/216/216 219/219/219
f 214/214/214 232/232/232 231/231/231
f 232/232/232 214/214/214 218/218/218
f 223/223/223 215/215/215 212/212/212
f 217/217/217 210/210/210 215/215/215
f 215/215/215 210/210/210 212/212/212
f 230/230/230 210/210/210 217/217/217
f 210/210/210 230/230/230 229/229/229
f 224/224/224 223/223/223 234/234/234
f 207/207/207 234/234/234 235/235/235
f 236/236/236 208/208/208 235/235/235
f 208/208/208 207/207/207 235/235/235
f 208/208/208 237/237/237 227/227/227
f 237/237/237 208/208/208 236/236/236
f 224/224/224 209/209/209 221/221/221
f 209/209/209 220/220/220 221/221/221
f 220/220/220 209/209/209 206/206/206
f 220/220/220 226/226/226 233/233/233
f 226/226/226 220/220/220 206/206/206
f 223/223/223 224/224/224 225/225/225
f 207/207/207 224/224/224 234/234/234
f 212/212/212 222/222/222 223/223/223
f 225/225/225 221/221/221 219/219/219
f 219/219/219 216/216/216 225/225/225
f 238/238/238 239/239/239 240/240/240
f 239/239/239 238/238/238 241/241/241
f 242/242/242 243/243/243 244/244/244
f 243/243/243 242/242/242 245/245/245
f 246/246/246 247/247/247 248/248/248
f 247/247/247 246/246/246 249/249/249
f 250/250/250 251/251/251 252/252/252
f 251/251/251 253/253/253 252/252/252
f 244/244/244 243/243/243 254/254/254
f 255/255/255 248/248/248 247/247/247
f 256/256/256 253/253/253 257/257/257
f 256/256/256 239/239/239 241/241/241
f 240/240/240 258/258/258 238/238/238
f 258/258/258 240/240/240 259/259/259
f 260/260/260 242/242/242 261/261/261
f 242/242/242 260/260/260 245/245/245
f 262/262/262 249/249/249 246/246/246
f 246/246/246 263/263/263 262/262/262
f 264/264/264 252/252/252 265/265/265
f 252/252/252 264/264/264 250/250/250
f 257/257/257 248/248/248 255/255/255
f 248/248/248 250/250/250 246/246/246
f 250/250/250 248/248/248 251/251/251
f 246/246/246 264/264/264 263/263/263
f 264/264/264 246/246/246 250/250/250
f 255/255/255 247/247/247 244/244/244
f 249/249/249 242/242/242 247/247/247
f 247/247/247 242/242/242 244/244/244
f 242/242/242 262/262/262 261/261/261
f 262/262/262 242/242/242 249/249/249
f 256/256/256 255/255/255 266/266/266
f 239/239/239 266/266/266 267/267/267
f 268/268/268 240/240/240 267/267/267
f 240/240/240 239/239/239 267/267/267
f 240/240/240 269/269/269 259/259/259
f 269/269/269 240/240/240 268/268/268
f 256/256/256 241/241/241 253/253/253
f 238/238/238 252/252/252 241/241/241
f 252/252/252 253/253/253 241/241/241
f 252/252/252 258/258/258 265/265/265
f 258/258/258 252/252/252 238/238/238
f 255/255/255 256/256/256 257/257/257
f 239/239/239 256/256/256 266/266/266
f 244/244/244 254/254/254 255/255/255
f 257/257/257 253/253/253 251/251/251
f 251/251/251 248/248/248 257/257/257
f 270/270/270 271/271/271 272/272/272
f 270/270/270 272/272/272 273/273/273
f 274/274/274 275/275/275 276/276/276
f 275/275/275 274/274/274 277/277/277
f 278/278/278 279/279/279 280/280/280
f 279/279/279 278/278/278 281/281/281
f 282/282/282 283/283/283 284/284/284
f 283/283/283 285/285/285 284/284/284
f 276/276/276 275/275/275 286/286/286
f 287/287/287 280/280/280 279/279/279
f 288/288/288 285/285/285 289/289/289
f 288/288/288 273/273/273 272/272/272
f 290/290/290 270/270/270 291/291/291
f 270/270/270 290/290/290 271/271/271
f 274/274/274 292/292/292 277/277/277
f 292/292/292 274/274/274 293/293/293
f 281/281/281 278/278/278 294/294/294
f 278/278/278 295/295/295 294/294/294
f 296/296/296 284/284/284 297/297/297
f 284/284/284 296/296/296 282/282/282
f 289/289/289 280/280/280 287/287/287
f 278/278/278 283/283/283 282/282/282
f 283/283/283 278/278/278 280/280/280
f 296/296/296 278/278/278 282/282/282
f 278/278/278 296/296/296 295/295/295
f 287/287/287 279/279/279 276/276/276
f 281/281/281 276/276/276 279/279/279
f 276/276/276 281/281/281 274/274/274
f 294/294/294 274/274/274 281/281/281
f 274/274/274 294/294/294 293/293/293
f 288/288/288 287/287/287 298/298/298
f 273/273/273 298/298/298 299/299/299
f 299/299/299 300/300/300 270/270/270
f 270/270/270 273/273/273 299/299/299
f 270/270/270 301/301/301 291/291/291
f 301/301/301 270/270/270 300/300/300
f 288/288/288 272/272/272 285/285/285
f 272/272/272 284/284/284 285/285/285
f 271/271/271 284/284/284 272/272/272
f 284/284/284 290/290/290 297/297/297
f 290/290/290 284/284/284 271/271/271
f 287/287/287 288/288/288 289/289/289
f 273/273/273 288/288/288 298/298/298
f 276/276/276 286/286/286 287/287/287
f 289/289/289 285/285/285 283/283/283
f 283/283/283 280/280/280 289/289/289
f 302/302/302 303/303/303 304/304/304
f 303/303/303 302/302/302 305/305/305
f 306/306/306 307/307/307 308/308/308
f 307/307/307 306/306/306 309/309/309
f 310/310/310 311/311/311 312/312/312
f 311/311/311 310/310/310 313/313/313
f 314/314/314 315/315/315 316/316/316
f 314/314/314 316/316/316 317/317/317
f 309/309/309 306/306/306 318/318/318
f 319/319/319 312/312/312 311/311/311
f 320/320/320 315/315/315 321/321/321
f 320/320/320 303/303/303 305/305/305
f 322/322/322 304/304/304 323/323/323
f 304/304/304 322/322/322 302/302/302
f 307/307/307 324/324/324 308/308/308
f 324/324/324 307/307/307 325/325/325
f 326/326/326 310/310/310 327/327/327
f 310/310/310 326/326/326 313/313/313
f 316/316/316 328/328/328 317/317/317
f 328/328/328 316/316/316 329/329/329
f 321/321/321 312/312/312 319/319/319
f 317/317/317 312/312/312 314/314/314
f 312/312/312 317/317/317 310/310/310
f 328/328/328 310/310/310 317/317/317
f 310/310/310 328/328/328 327/327/327
f 319/319/319 311/311/311 309/309/309
f 307/307/307 311/311/311 313/313/313
f 311/311/311 307/307/307 309/309/309
f 307/307/307 326/326/326 325/325/325
f 326/326/326 307/307/307 313/313/313
f 320/320/320 319/319/319 330/330/330
f 303/303/303 330/330/330 331/331/331
f 303/303/303 331/331/331 304/304/304
f 332/332/332 304/304/304 331/331/331
f 304/304/304 333/333/333 323/323/323
f 333/333/333 304/304/304 332/332/332
f 320/320/320 305/305/305 315/315/315
f 305/305/305 316/316/316 315/315/315
f 316/316/316 305/305/305 302/302/302
f 316/316/316 322/322/322 329/329/329
f 322/322/322 316/316/316 302/302/302
f 319/319/319 320/320/320 321/321/321
f 303/303/303 320/320/320 330/330/330
f 309/309/309 318/318/318 319/319/319
f 321/321/321 315/315/315 314/314/314
f 314/314/314 312/312/312 321/321/321
f 334/334/334 335/335/335 336/336/336
f 335/335/335 334/334/334 337/337/337
f 338/338/338 339/339/339 340/340/340
f 339/339/339 338/338/338 341/341/341
f 342/342/342 343/343/343 344/344/344
f 343/343/343 342/342/342 345/345/345
f 346/346/346 347/347/347 348/348/348
f 346/346/346 348/348/348 349/349/349
f 338/338/338 340/340/340 350/350/350
f 351/351/351 344/344/344 343/343/343
f 352/352/352 349/349/349 353/353/353
f 352/352/352 335/335/335 337/337/337
f 354/354/354 336/336/336 355/355/355
f 336/336/336 354/354/354 334/334/334
f 341/341/341 356/356/356 339/339/339
f 356/356/356 341/341/341 357/357/357
f 342/342/342 358/358/358 345/345/345
f 358/358/358 342/342/342 359/359/359
f 360/360/360 347/347/347 346/346/346
f 347/347/347 360/360/360 361/361/361
f 353/353/353 344/344/344 351/351/351
f 344/344/344 348/348/348 342/342/342
f 342/342/342 348/348/348 347/347/347
f 342/342/342 361/361/361 359/359/359
f 361/361/361 342/342/342 347/347/347
f 351/351/351 343/343/343 338/338/338
f 341/341/341 338/338/338 343/343/343
f 341/341/341 343/343/343 345/345/345
f 357/357/357 345/345/345 358/358/358
f 345/345/345 357/357/357 341/341/341
f 352/352/352 351/351/351 362/362/362
f 335/335/335 362/362/362 363/363/363
f 363/363/363 364/364/364 336/336/336
f 336/336/336 335/335/335 363/363/363
f 336/336/336 365/365/365 355/355/355
f 365/365/365 336/336/336 364/364/364
f 352/352/352 337/337/337 349/349/349
f 334/334/334 349/349/349 337/337/337
f 349/349/349 334/334/334 346/346/346
f 354/354/354 346/346/346 334/334/334
f 346/346/346 354/354/354 360/360/360
f 351/351/351 352/352/352 353/353/353
f 335/335/335 352/352/352 362/362/362
f 338/338/338 350/350/350 351/351/351
f 353/353/353 349/349/349 348/348/348
f 348/348/348 344/344/344 353/353/353
f 366/366/366 367/367/367 368/368/368
f 367/367/367 366/366/366 369/369/369
f 370/370/370 371/371/371 372/372/372
f 370/370/370 372/372/372 373/373/373
f 374/374/374 375/375/375 376/376/376
f 375/375/375 374/374/374 377/377/377
f 378/378/378 379/379/379 380/380/380
f 379/379/379 381/381/381 380/380/380
f 370/370/370 373/373/373 382/382/382
f 383/383/383 377/377/377 374/374/374
f 384/384/384 381/381/381 385/385/385
f 384/384/384 366/366/366 368/368/368
f 369/369/369 386/386/386 367/367/367
f 386/386/386 369/369/369 387/387/387
f 371/371/371 388/388/388 372/372/372
f 388/388/388 371/371/371 389/389/389
f 390/390/390 376/376/376 375/375/375
f 390/390/390 375/375/375 391/391/391
f 380/380/380 392/392/392 378/378/378
f 392/392/392 380/380/380 393/393/393
f 385/385/385 377/377/377 383/383/383
f 379/379/379 375/375/375 377/377/377
f 375/375/375 379/379/379 378/378/378
f 375/375/375 392/392/392 391/391/391
f 392/392/392 375/375/375 378/378/378
f 383/383/383 374/374/374 370/370/370
f 370/370/370 374/374/374 371/371/371
f 374/374/374 376/376/376 371/371/371
f 389/389/389 376/376/376 390/390/390
f 376/376/376 389/389/389 371/371/371
f 384/384/384 383/383/383 394/394/394
f 366/366/366 394/394/394 395/395/395
f 369/369/369 395/395/395 396/396/396
f 395/395/395 369/369/369 366/366/366
f 369/369/369 397/397/397 387/387/387
f 397/397/397 369/369/369 396/396/396
f 384/384/384 368/368/368 381/381/381
f 367/367/367 381/381/381 368/368/368
f 381/381/381 367/367/367 380/380/380
f 380/380/380 386/386/386 393/393/393
f 386/386/386 380/380/380 367/367/367
f 383/383/383 384/384/384 385/385/385
f 366/366/366 384/384/384 394/394/394
f 370/370/370 382/382/382 383/383/383
f 385/385/385 381/381/381 379/379/379
f 379/379/379 377/377/377 385/385/385
f 398/398/398 399/399/399 400/400/400
f 399/399/399 398/398/398 401/401/401
f 402/402/402 403/403/403 404/404/404
f 403/403/403 402/402/402 405/405/405
f 406/406/406 407/407/407 408/408/408
f 407/407/407 406/406/406 409/409/409
f 410/410/410 411/411/411 412/412/412
f 411/411/411 410/410/410 413/413/413
f 405/405/405 402/402/402 414/414/414
f 415/415/415 409/409/409 406/406/406
f 416/416/416 411/411/411 417/417/417
f 416/416/416 400/400/400 399/399/399
f 398/398/398 418/418/418 401/401/401
f 418/418/418 398/398/398 419/419/419
f 403/403/403 420/420/420 404/404/404
f 420/420/420 403/403/403 421/421/421
f 422/422/422 408/408/408 407/407/407
f 407/407/407 423/423/423 422/422/422
f 412/412/412 424/424/424 410/410/410
f 424/424/424 412/412/412 425/425/425
f 417/417/417 409/409/409 415/415/415
f 413/413/413 407/407/407 409/409/409
f 407/407/407 413/413/413 410/410/410
f 424/424/424 407/407/407 410/410/410
f 407/407/407 424/424/424 423/423/423
f 415/415/415 406/406/406 405/405/405
f 405/405/405 408/408/408 403/403/403
f 408/408/408 405/405/405 406/406/406
f 403/403/403 422/422/422 421/421/421
f 422/422/422 403/403/403 408/408/408
f 416/416/416 415/415/415 426/426/426
f 400/400/400 426/426/426 427/427/427
f 398/398/398 427/427/427 428/428/428
f 427/427/427 398/398/398 400/400/400
f 429/429/429 398/398/398 428/428/428
f 398/398/398 429/429/429 419/419/419
f 416/416/416 399/399/399 411/411/411
f 399/399/399 401/401/401 412/412/412
f 399/399/399 412/412/412 411/411/411
f 412/412/412 418/418/418 425/425/425
f 418/418/418 412/412/412 401/401/401
f 415/415/415 416/416/416 417/417/417
f 400/400/400 416/416/416 426/426/426
f 405/405/405 414/414/414 415/415/415
f 417/417/417 411/411/411 413/413/413
f 413/413/413 409/409/409 417/417/417
f 430/430/430 431/431/431 432/432/432
f 431/431/431 430/430/430 433/433/433
f 434/434/434 435/435/435 436/436/436
f 435/435/435 434/434/434 437/437/437
f 438/438/438 439/439/439 440/440/440
f 438/438/438 440/440/440 441/441/441
f 442/442/442 443/443/443 444/444/444
f 442/442/442 444/444/444 445/445/445
f 437/437/437 434/434/434 446/446/446
f 447/447/447 440/440/440 439/439/439
f 448/448/448 445/445/445 449/449/449
f 448/448/448 432/432/432 431/431/431
f 450/450/450 430/430/430 451/451/451
f 430/430/430 450/450/450 433/433/433
f 452/452/452 435/435/435 453/453/453
f 435/435/435 452/452/452 436/436/436
f 454/454/454 438/438/438 441/441/441
f 454/454/454 441/441/441 455/455/455
f 456/456/456 442/442/442 457/457/457
f 442/442/442 456/456/456 443/443/443
f 449/449/449 440/440/440 447/447/447
f 443/443/443 441/441/441 444/444/444
f 441/441/441 440/440/440 444/444/444
f 441/441/441 456/456/456 455/455/455
f 456/456/456 441/441/441 443/443/443
f 447/447/447 439/439/439 437/437/437
f 435/435/435 439/439/439 438/438/438
f 439/439/439 435/435/435 437/437/437
f 435/435/435 454/454/454 453/453/453
f 454/454/454 435/435/435 438/438/438
f 448/448/448 447/447/447 458/458/458
f 432/432/432 458/458/458 459/459/459
f 460/460/460 432/432/432 459/459/459
f 432/432/432 460/460/460 430/430/430
f 430/430/430 461/461/461 451/451/451
f 461/461/461 430/430/430 460/460/460
f 448/448/448 431/431/431 445/445/445
f 433/433/433 442/442/442 431/431/431
f 442/442/442 445/445/445 431/431/431
f 442/442/442 450/450/450 457/457/457
f 450/450/450 442/442/442 433/433/433
f 447/447/447 448/448/448 449/449/449
f 432/432/432 448/448/448 458/458/458
f 437/437/437 446/446/446 447/447/447
f 449/449/449 445/445/445 444/444/444
f 444/444/444 440/440/440 449/449/449
