# Extracted from the Cocos Creator 3.8.3 playable build
# Geometry-only OBJ preview for Unity; rig and animation stay in the raw assets.
o enemy_soldier_elite
v 0.56345439 -0.520044327 1.28601468
v 0.833361804 -0.769025087 1.18208671
v 0.617346227 -0.524515152 1.13330781
v 0.785748005 -0.772847176 1.3379004
v 0.515718341 -0.504395008 1.10715544
v 0.400088549 -0.603149414 1.24138784
v 0.483591676 -0.507464886 1.26386237
v 0.400640726 -0.636662006 1.08036935
v 0.63839525 -0.933403134 1.30342901
v 0.676415026 -0.93458569 1.14486599
v 0.56345439 -0.520044327 1.28601468
v 0.400088549 -0.603149414 1.24138784
v 0.412062764 -0.739340067 1.2402029
v 0.483591676 -0.507464886 1.26386237
v 0.676415026 -0.93458569 1.14486599
v 0.412062764 -0.739340067 1.2402029
v 0.400827169 -0.700211763 1.06904638
v 0.63839525 -0.933403134 1.30342901
v 0.785748005 -0.772847176 1.3379004
v 0.63839525 -0.933403134 1.30342901
v 0.493559122 0.497854948 -1.45147347
v 0.703159034 0.00432825089 -1.580616
v 0.327195644 -0.102865458 -1.50191927
v 0.0922297239 -0.238369465 -1.42176282
v -0.511270046 -0.173545122 -1.16298866
v -0.14705646 0.185727835 -1.3268584
v -0.117217064 -0.489792347 -1.33728039
v -0.830142975 0.0939531326 -0.922185242
v -0.604703188 0.288711309 -1.04713714
v -0.873190165 0.547360659 -0.641191363
v -0.642213345 0.872867346 -0.589292228
v -0.580485106 0.730136871 -0.871357024
v -0.934141874 0.646811485 -0.220838919
v 0.443891287 0.880809307 -1.22260308
v 0.68417567 0.620757341 -0.686407566
v 0.740060568 0.28925252 -1.02963591
v 0.363504887 1.34900451 -0.620198309
v 0.389156699 1.12101197 -0.998057246
v 0.378759146 1.41629863 -0.219519526
v 0.22051239 1.55498719 -0.219519511
v 0.184731603 1.4294703 -0.636747241
v 0.810605288 -0.0567722321 -1.23985958
v 0.703159034 0.00432825089 -1.580616
v 0.654637039 0.768774271 -0.219519645
v 0.225161076 1.17374587 -1.0485574
v 0.316694856 0.8852005 -1.30033386
v 0.493559122 0.497854948 -1.45147347
v -0.715173006 -0.150744677 -0.617337048
v -0.830142975 0.0939531326 -0.922185242
v -0.511270046 -0.173545122 -1.16298866
v -1.04127884 0.256633997 -0.565429151
v -0.874482393 -0.0593996048 -0.219519764
v -0.0622205734 -0.565952539 -1.03199971
v -0.117217064 -0.489792347 -1.33728039
v -0.448011875 -0.31209445 -0.825686038
v 0.0765337944 0.307797432 -1.39877379
v 0.316694856 0.8852005 -1.30033386
v 0.155699253 0.542328358 -1.3820138
v -0.29397893 1.12743306 -0.644648969
v 0.184731603 1.4294703 -0.636747241
v 0.225161076 1.17374587 -1.0485574
v -0.287916183 1.25662065 -0.21951957
v -0.604703188 0.288711309 -1.04713714
v -0.469163418 0.265098333 -0.945298254
v -0.47878623 0.195441008 -1.14683354
v -0.521615744 0.82933116 -0.543086529
v -0.465202332 0.676337957 -0.808231771
v -0.580485106 0.730136871 -0.871357024
v -0.65703845 0.971960306 -0.2195196
v -0.519212008 0.927483559 -0.2195196
v -0.642213345 0.872867346 -0.589292228
v 0.208127499 -0.27493906 -1.05249882
v -0.117217064 -0.489792347 -1.33728039
v 0.0922297239 -0.238369465 -1.42176282
v -0.0622205734 -0.565952539 -1.03199971
v 0.468416929 -0.145664692 -1.14985633
v 0.703159034 0.00432825089 -1.580616
v 0.810605288 -0.0567722321 -1.23985958
v 0.327195644 -0.102865458 -1.50191927
v 0.034398675 0.612610102 -1.17915905
v 0.0551979542 0.726786137 -1.27812684
v 0.155699253 0.542328358 -1.3820138
v -0.30049932 1 -0.581171393
v -0.29397893 1.12743306 -0.644648969
v -0.227702975 0.891716719 -1.00347865
v -0.336332083 1.10716653 -0.219519585
v -0.287916183 1.25662065 -0.21951957
v -0.7356143 0.403142214 -0.885777354
v -0.239346743 0.765862465 -0.923375845
v 0.0551979542 0.726786137 -1.27812684
v -0.227702975 0.891716719 -1.00347865
v -1.11047339 0.303522587 -0.219519719
v -0.47878623 0.195441008 -1.14683354
v 0.0765337944 0.307797432 -1.39877379
v -0.14705646 0.185727835 -1.3268584
v -0.0511956215 0.265919924 -1.20136392
v -0.469163418 0.265098333 -0.945298254
v 0.034398675 0.612610102 -1.17915905
v -0.326724052 0.198446035 -1.03923571
v -0.239346743 0.765862465 -0.923375845
v -0.521615744 0.82933116 -0.543086529
v -0.30049932 1 -0.581171393
v -0.465202332 0.676337957 -0.808231771
v -0.336332083 1.10716653 -0.219519585
v 0.0919064283 0.412004948 -1.24414265
v 0.0919064283 0.412004948 -1.24414265
v -0.0511956215 0.265919924 -1.20136392
v -0.326724052 0.198446035 -1.03923571
v 0.654637039 0.768774271 -0.219519645
v -0.874482393 -0.0593996048 -0.219519764
v -0.715173006 -0.150744677 -0.617337048
v 0.68417567 0.620757341 -0.686407566
v -0.448011875 -0.31209445 -0.825686038
v 0.740060568 0.28925252 -1.02963591
v -0.0622205734 -0.565952539 -1.03199971
v 0.208127499 -0.27493906 -1.05249882
v 0.468416929 -0.145664692 -1.14985633
v 0.810605288 -0.0567722321 -1.23985958
v 0.22051239 1.55498719 -0.219519511
v -0.65703845 0.971960306 -0.2195196
v -0.519212008 0.927483559 -0.2195196
v 0.493559122 0.497854471 1.00935113
v 0.327195644 -0.102866173 1.05869997
v 0.703159034 0.00432777405 1.13568604
v 0.0922297239 -0.238369942 0.980285943
v -0.14705646 0.185727596 0.887444735
v -0.511270046 -0.173545361 0.727137506
v -0.117217064 -0.489792824 0.897639871
v -0.604703188 0.288711071 0.61380446
v -0.830142975 0.0939528942 0.491568923
v -0.859879494 0.555479765 0.181331083
v -0.580485106 0.730136871 0.441845804
v -0.642213345 0.872867346 0.165912807
v 0.443891287 0.880809307 0.785456121
v 0.740060568 0.289252281 0.5966838
v 0.68417567 0.620757341 0.260916948
v 0.363504887 1.34900451 0.196147233
v 0.389156699 1.12101197 0.565791965
v 0.184731603 1.4294703 0.212336376
v 0.810605288 -0.0567729473 0.802337229
v 0.703159034 0.00432777405 1.13568604
v 0.225161076 1.17374587 0.615194261
v 0.316694856 0.885200262 0.861497283
v 0.493559122 0.497854471 1.00935113
v -0.715173006 -0.150744677 0.193347767
v -0.511270046 -0.173545361 0.727137506
v -0.830142975 0.0939528942 0.491568923
v -1.04127884 0.256633997 0.142568275
v -0.0622205734 -0.565952539 0.598995984
v -0.117217064 -0.489792824 0.897639871
v -0.448011875 -0.312094688 0.397167206
v 0.0765337944 0.307797194 0.957796991
v 0.316694856 0.885200262 0.861497283
v 0.155699253 0.542328119 0.941401422
v -0.29397893 1.12743306 0.220066339
v 0.225161076 1.17374587 0.615194261
v 0.184731603 1.4294703 0.212336376
v -0.604703188 0.288711071 0.61380446
v -0.47878623 0.195440531 0.711333454
v -0.469163418 0.265098333 0.514179289
v -0.521615744 0.82933116 0.120711558
v -0.580485106 0.730136871 0.441845804
v -0.465202332 0.676337957 0.380092949
v -0.642213345 0.872867346 0.165912807
v -0.117217064 -0.489792824 0.897639871
v 0.208127499 -0.274939537 0.61904937
v 0.0922297239 -0.238369942 0.980285943
v -0.0622205734 -0.565952539 0.598995984
v 0.468416929 -0.14566493 0.71429038
v 0.703159034 0.00432777405 1.13568604
v 0.327195644 -0.102866173 1.05869997
v 0.810605288 -0.0567729473 0.802337229
v 0.034398675 0.612610102 0.742956519
v 0.155699253 0.542328119 0.941401422
v 0.0551979542 0.72678566 0.83977288
v -0.30049932 1 0.15796864
v -0.227702975 0.891716719 0.571095288
v -0.29397893 1.12743306 0.220066339
v -0.7360816 0.416684151 0.467085302
v -0.239346743 0.765862465 0.492733836
v -0.227702975 0.891716719 0.571095288
v 0.0551979542 0.72678566 0.83977288
v -0.47878623 0.195440531 0.711333454
v 0.0765337944 0.307797194 0.957796991
v -0.0405954123 0.268768787 0.767265737
v -0.14705646 0.185727596 0.887444735
v -0.469163418 0.265098333 0.514179289
v -0.326724052 0.198445797 0.60607475
v 0.034398675 0.612610102 0.742956519
v -0.239346743 0.765862465 0.492733836
v -0.521615744 0.82933116 0.120711558
v -0.465202332 0.676337957 0.380092949
v -0.30049932 1 0.15796864
v 0.0919064283 0.412004709 0.806527436
v 0.0919064283 0.412004709 0.806527436
v -0.0405954123 0.268768787 0.767265737
v -0.326724052 0.198445797 0.60607475
v -0.715173006 -0.150744677 0.193347767
v 0.68417567 0.620757341 0.260916948
v -0.448011875 -0.312094688 0.397167206
v 0.740060568 0.289252281 0.5966838
v 0.208127499 -0.274939537 0.61904937
v -0.0622205734 -0.565952539 0.598995984
v 0.810605288 -0.0567729473 0.802337229
v 0.468416929 -0.14566493 0.71429038
v -1.04127884 0.256633997 -0.565429151
v -1.11047339 0.303522587 -0.219519719
v -1.04127884 0.256633997 0.142568275
v -0.412894487 -0.544730663 -0.896799266
v -0.237639308 -0.270268202 -0.877220809
v -0.23045969 -0.309660196 -1.03170264
v -0.407794237 -0.643520594 -1.00059307
v -0.407794237 -0.643520594 -1.00059307
v -0.673387051 -0.418427467 -0.831429303
v -0.412894487 -0.544730663 -0.896799266
v -0.611867905 -0.388906956 -0.740976512
v -0.12745297 -0.397691011 -1.06194592
v -0.407794237 -0.643520594 -1.00059307
v -0.23045969 -0.309660196 -1.03170264
v -0.333211184 -0.808315039 -1.04321349
v -0.673387051 -0.418427467 -0.831429303
v -0.749096155 -0.593291044 -0.829970896
v -0.926736832 -0.328171015 -0.567867935
v -0.81499815 -0.327043295 -0.524206817
v -0.926736832 -0.328171015 -0.567867935
v -1.00224566 -0.482941628 -0.57198447
v -1.04534864 -0.328366041 -0.230152264
v -1.09241962 -0.442822218 -0.230152205
v -0.891699791 -0.322680712 -0.230152264
v -1.04534864 -0.328366041 -0.230152264
v -0.611867905 -0.388906956 -0.740976512
v -0.237639308 -0.270268202 -0.877220809
v -0.412894487 -0.544730663 -0.896799266
v -0.418370962 -0.105653763 -0.725988507
v -0.566097736 0.0412423611 -0.514857054
v -0.81499815 -0.327043295 -0.524206817
v -0.891699791 -0.322680712 -0.230152264
v -0.608703375 0.116949558 -0.2301514
v -0.05149436 -0.419363976 -0.859296978
v -0.333211184 -0.808315039 -1.04321349
v -0.12745297 -0.397691011 -1.06194592
v -0.292905092 -0.845350504 -0.912582755
v -0.292905092 -0.845350504 -0.912582755
v -0.749096155 -0.593291044 -0.829970896
v -0.333211184 -0.808315039 -1.04321349
v -0.528779268 -0.719519138 -0.666770577
v -1.00224566 -0.482941628 -0.57198447
v -0.664471626 -0.643291712 -0.49549526
v -0.72157979 -0.606827259 -0.230152294
v -1.09241962 -0.442822218 -0.230152205
v -0.407794237 -0.643520832 0.540288389
v -0.23045969 -0.309660435 0.571398139
v -0.412894487 -0.544730902 0.436494708
v -0.237639308 -0.270268202 0.416916043
v -0.412894487 -0.544730902 0.436494708
v -0.611867905 -0.388906956 0.280671924
v -0.673387051 -0.418427706 0.371124536
v -0.407794237 -0.643520832 0.540288389
v -0.12745297 -0.39769125 0.601641238
v -0.407794237 -0.643520832 0.540288389
v -0.333211184 -0.808315516 0.58290869
v -0.23045969 -0.309660435 0.571398139
v -0.749095917 -0.593291283 0.369666219
v -0.673387051 -0.418427706 0.371124536
v -0.81499815 -0.327043295 0.0639022514
v -0.926736832 -0.328171015 0.107563287
v -0.926736832 -0.328171015 0.107563287
v -1.00224566 -0.482941628 0.111679837
v -0.237639308 -0.270268202 0.416916043
v -0.611867905 -0.388906956 0.280671924
v -0.412894487 -0.544730902 0.436494708
v -0.418370962 -0.105653763 0.265683949
v -0.566097736 0.0412423611 0.0545525625
v -0.81499815 -0.327043295 0.0639022514
v -0.333211184 -0.808315516 0.58290869
v -0.05149436 -0.419364214 0.39899224
v -0.12745297 -0.39769125 0.601641238
v -0.292905092 -0.845350504 0.452277929
v -0.749095917 -0.593291283 0.369666219
v -0.292905092 -0.845350504 0.452277929
v -0.333211184 -0.808315516 0.58290869
v -0.528779268 -0.719519377 0.206465811
v -0.664471626 -0.643291712 0.0351905562
v -1.00224566 -0.482941628 0.111679837
v 0.143521667 -0.267369747 1.02588439
v 0.473177314 -0.113404036 0.861807942
v 0.204069734 -0.263326883 0.789678872
v 0.40892148 -0.115842819 1.10585237
v 0.434197187 -0.34722805 1.10183644
v 0.143521667 -0.267369747 1.02588439
v 0.242409468 -0.560303688 1.0586009
v 0.242409468 -0.560303688 1.0586009
v 0.49571681 -0.350816488 0.866984367
v 0.434197187 -0.34722805 1.10183644
v 0.307893872 -0.558364153 0.816168487
v 0.164512992 -0.828172207 0.771431863
v 0.512049794 -0.979223967 1.11285007
v 0.102577925 -0.824847698 1.01040769
v 0.574195981 -0.990291476 0.881921709
v 0.456741452 -0.772388697 0.851943135
v 0.391609907 -0.773000956 1.09392917
v 0.512049794 -0.979223967 1.11285007
v 0.860156417 -0.599199295 1.2130754
v 0.391609907 -0.773000956 1.09392917
v 0.648168325 -0.490305185 1.1599021
v 0.685318112 -0.18224287 1.16507876
v 0.928116798 -0.600239754 0.97573179
v 0.74976337 -0.180921316 0.925217092
v 0.860156417 -0.599199295 1.2130754
v 0.685318112 -0.18224287 1.16507876
v 0.0122070312 -0.552638292 0.996129632
v 0.0674889088 -0.544820547 0.749900758
v 0.0122070312 -0.552638292 0.996129632
v 0.102577925 -0.824847698 1.01040769
v 0.712869942 -0.490147591 0.919479251
v 0.648168325 -0.490305185 1.1599021
v 0.512049794 -0.979223967 1.11285007
v 0.574195981 -0.990291476 0.881921709
v 0.40892148 -0.115842819 1.10585237
vt 0.847344041 0.591305375
vt 0.873715878 0.60413605
vt 0.847344041 0.60413605
vt 0.873715997 0.591305375
vt 0.839853108 0.60413605
vt 0.827781796 0.591305375
vt 0.839853108 0.591305375
vt 0.827781796 0.60413605
vt 0.891285241 0.591305375
vt 0.891285241 0.60413605
vt 0.904659748 0.706757426
vt 0.887453496 0.713277638
vt 0.878501892 0.703392684
vt 0.900031328 0.713497877
vt 0.794006407 0.60413605
vt 0.819867373 0.591305375
vt 0.819867373 0.60413605
vt 0.794006348 0.591305256
vt 0.901858926 0.673652589
vt 0.88033849 0.673722446
vt 0.111465476 0.93476826
vt 0.0676691979 0.91394043
vt 0.0869590268 0.8847422
vt 0.0957547128 0.860788286
vt 0.144894317 0.82704246
vt 0.136056215 0.873940587
vt 0.0974836498 0.830864966
vt 0.189532518 0.823890924
vt 0.181164831 0.851467967
vt 0.228632838 0.849009991
vt 0.234577373 0.883243084
vt 0.21058318 0.87775147
vt 0.264633894 0.851438344
vt 0.365097821 0.746678591
vt 0.324104249 0.717770576
vt 0.353819966 0.693820477
vt 0.317151368 0.780305743
vt 0.346850455 0.764591873
vt 0.286784112 0.784593105
vt 0.286781847 0.80108422
vt 0.320669949 0.795441151
vt 0.373120546 0.667941809
vt 0.399451256 0.677859306
vt 0.286791384 0.728697419
vt 0.354162157 0.776769519
vt 0.374833405 0.753234148
vt 0.386731505 0.719441533
vt 0.256599605 0.666929007
vt 0.232853413 0.688013852
vt 0.21281755 0.656042933
vt 0.261121273 0.708042979
vt 0.287943006 0.679971159
vt 0.220080376 0.608473778
vt 0.196932793 0.617087841
vt 0.238660932 0.643626332
vt 0.12788184 0.897356272
vt 0.148958489 0.952038109
vt 0.13682434 0.91895932
vt 0.227046281 0.930512011
vt 0.224979207 0.979373991
vt 0.182249054 0.966695011
vt 0.263847142 0.937574506
vt 0.181164831 0.851467967
vt 0.177190572 0.865354896
vt 0.163556889 0.853213131
vt 0.233651057 0.894755781
vt 0.205408528 0.887791812
vt 0.21058318 0.87775147
vt 0.264296263 0.888336599
vt 0.264113545 0.90102905
vt 0.234577373 0.883243084
vt 0.100156441 0.991832078
vt 0.0713051111 0.964194596
vt 0.100156441 0.964194655
vt 0.0713051111 0.991832078
vt 0.123319522 0.991832078
vt 0.153312221 0.964194596
vt 0.153312221 0.991832078
vt 0.123319522 0.964194596
vt 0.158278063 0.914316177
vt 0.156564087 0.926939011
vt 0.13682434 0.91895932
vt 0.229870036 0.918569028
vt 0.227046281 0.930512011
vt 0.192174405 0.921253741
vt 0.263926923 0.923633218
vt 0.263847142 0.937574506
vt 0.201507002 0.848932922
vt 0.193462476 0.908589065
vt 0.156564087 0.926939011
vt 0.192174405 0.921253741
vt 0.287938833 0.71412313
vt 0.163556889 0.853213131
vt 0.12788184 0.897356272
vt 0.136056215 0.873940587
vt 0.14301461 0.886273205
vt 0.177190572 0.865354896
vt 0.158278063 0.914316177
vt 0.163557336 0.868775547
vt 0.193462476 0.908589065
vt 0.233651057 0.894755781
vt 0.229870036 0.918569028
vt 0.205408528 0.887791812
vt 0.263926923 0.923633218
vt 0.143070206 0.903638482
vt 0.143070206 0.903638482
vt 0.14301461 0.886273205
vt 0.163557336 0.868775547
vt 0.393972486 0.78018713
vt 0.392519385 0.820091963
vt 0.382977396 0.817525387
vt 0.382943779 0.780800223
vt 0.375293285 0.813754797
vt 0.372254461 0.782986045
vt 0.364798218 0.80887711
vt 0.367165595 0.800056815
vt 0.365764469 0.79317522
vt 0.363142937 0.785230041
vt 0.263553977 0.988515615
vt 0.264296263 0.888336599
vt 0.264113545 0.90102905
vt 0.416588247 0.937308431
vt 0.441845268 0.887701213
vt 0.460653991 0.917143941
vt 0.433498472 0.863682568
vt 0.39304474 0.876243174
vt 0.385151595 0.829348862
vt 0.4323273 0.833797455
vt 0.348681897 0.853287816
vt 0.340960532 0.825706482
vt 0.299412727 0.850645363
vt 0.318949252 0.879005611
vt 0.295373231 0.883863389
vt 0.208480299 0.746657908
vt 0.2197721 0.693802714
vt 0.249481559 0.717760682
vt 0.25641793 0.780297756
vt 0.226722956 0.764576077
vt 0.252895296 0.79543227
vt 0.200478435 0.667918921
vt 0.174145043 0.677829504
vt 0.219408035 0.776751697
vt 0.198743045 0.753210902
vt 0.186853826 0.719415188
vt 0.319289804 0.666936517
vt 0.363074422 0.656061411
vt 0.343030691 0.688027143
vt 0.314758003 0.708049834
vt 0.355823219 0.608490348
vt 0.378968954 0.617110014
vt 0.337234259 0.643638372
vt 0.400771499 0.899701118
vt 0.378913164 0.953911126
vt 0.391467184 0.9211061
vt 0.301974118 0.931155086
vt 0.345726252 0.967978776
vt 0.303514391 0.979981959
vt 0.348681897 0.853287816
vt 0.366092563 0.855229378
vt 0.352573186 0.867021799
vt 0.296122313 0.895333827
vt 0.318949252 0.879005611
vt 0.32408163 0.888972759
vt 0.295373231 0.883863389
vt 0.463033795 0.964164019
vt 0.434182733 0.991800189
vt 0.434182703 0.964164019
vt 0.463033795 0.991800189
vt 0.411019295 0.991800189
vt 0.381026864 0.964164019
vt 0.411019325 0.964164019
vt 0.381026894 0.991800189
vt 0.370352238 0.91618675
vt 0.391467184 0.9211061
vt 0.371664047 0.928722382
vt 0.299431026 0.919223249
vt 0.336420387 0.922474384
vt 0.301974118 0.931155086
vt 0.328602999 0.851538718
vt 0.335531414 0.909892499
vt 0.336420387 0.922474384
vt 0.371664047 0.928722382
vt 0.366092563 0.855229378
vt 0.400771499 0.899701118
vt 0.386125565 0.888445973
vt 0.39304474 0.876243174
vt 0.352573186 0.867021799
vt 0.366067261 0.870676637
vt 0.370352238 0.91618675
vt 0.335531414 0.909892499
vt 0.296122313 0.895333827
vt 0.32408163 0.888972759
vt 0.299431026 0.919223249
vt 0.385722637 0.905776501
vt 0.385722637 0.905776501
vt 0.386125565 0.888445973
vt 0.366067261 0.870676637
vt 0.402222902 0.818226099
vt 0.404927403 0.781600237
vt 0.410161167 0.81502378
vt 0.415429264 0.784558177
vt 0.419263393 0.801953316
vt 0.420982987 0.810922623
vt 0.424353629 0.787458897
vt 0.421161205 0.795192242
vt 0.231546819 0.818896174
vt 0.265201449 0.818203151
vt 0.30000186 0.820507944
vt 0.226968825 0.54595983
vt 0.231802225 0.57140553
vt 0.219595611 0.570809364
vt 0.217217982 0.539987087
vt 0.217217982 0.539987087
vt 0.247385383 0.53578639
vt 0.226968825 0.54595983
vt 0.251063168 0.543575287
vt 0.210612953 0.569578052
vt 0.217217982 0.539987087
vt 0.219595611 0.570809364
vt 0.204826832 0.5349648
vt 0.247385383 0.53578639
vt 0.243169665 0.523244858
vt 0.273806751 0.527801633
vt 0.274525225 0.537057996
vt 0.273806751 0.527801633
vt 0.271974266 0.516003191
vt 0.299101889 0.522073388
vt 0.299261928 0.514099956
vt 0.298858106 0.53421855
vt 0.299101889 0.522073388
vt 0.251063168 0.543575287
vt 0.231802225 0.57140553
vt 0.226968825 0.54595983
vt 0.254125476 0.57139504
vt 0.276068926 0.572849035
vt 0.274525225 0.537057996
vt 0.298858106 0.53421855
vt 0.298013031 0.576318741
vt 0.304375827 0.599650204
vt 0.267728686 0.586436391
vt 0.304375827 0.586436391
vt 0.267728686 0.599650204
vt 0.233885705 0.583438635
vt 0.240871012 0.623267949
vt 0.224246085 0.586915791
vt 0.253001988 0.603741884
vt 0.260953367 0.644858718
vt 0.266510427 0.616095006
vt 0.287487268 0.621401787
vt 0.287485063 0.652542531
vt 0.380200982 0.543258905
vt 0.376588225 0.573960781
vt 0.370218217 0.548835456
vt 0.364367664 0.574066758
vt 0.370218217 0.548835456
vt 0.34623903 0.545485854
vt 0.350226521 0.537850738
vt 0.380200982 0.543258905
vt 0.385613263 0.57309103
vt 0.380200982 0.543258905
vt 0.392783821 0.538737893
vt 0.376588225 0.573960781
vt 0.354942203 0.525488615
vt 0.350226521 0.537850738
vt 0.323057473 0.538032413
vt 0.324146867 0.52881217
vt 0.324146867 0.52881217
vt 0.326451421 0.517096758
vt 0.364367664 0.574066758
vt 0.34623903 0.545485854
vt 0.370218217 0.548835456
vt 0.342062652 0.573160172
vt 0.320078671 0.573732495
vt 0.323057473 0.538032413
vt 0.171209708 0.769086599
vt 0.184423402 0.805733442
vt 0.171209708 0.805733442
vt 0.184423387 0.769086599
vt 0.334103346 0.623274744
vt 0.341094255 0.583446324
vt 0.350733459 0.586924791
vt 0.321975231 0.603746891
vt 0.308464766 0.616098046
vt 0.314017832 0.644862533
vt 0.866688669 0.562880933
vt 0.891625524 0.582030594
vt 0.866688609 0.582030594
vt 0.891625583 0.562880993
vt 0.840908647 0.694556713
vt 0.864690125 0.676469982
vt 0.838677168 0.662618995
vt 0.838677168 0.662618995
vt 0.832410038 0.686208606
vt 0.840908647 0.694556713
vt 0.833041012 0.668381572
vt 0.819184482 0.582030594
vt 0.783539712 0.562880874
vt 0.819184482 0.562880874
vt 0.783539593 0.582030594
vt 0.817026615 0.669567823
vt 0.809456885 0.658590078
vt 0.788366139 0.652445197
vt 0.788368464 0.706145108
vt 0.809456885 0.658590078
vt 0.809919 0.69966644
vt 0.914568782 0.562880874
vt 0.950584292 0.582030654
vt 0.914568722 0.582030594
vt 0.950584471 0.562880874
vt 0.831127286 0.721801281
vt 0.841976166 0.562880993
vt 0.841976225 0.582030594
vt 0.853719413 0.647739708
vt 0.828876734 0.636285067
vt 0.819638371 0.684193611
vt 0.809919 0.69966644
vt 0.992384076 0.562880993
vt 0.992384136 0.582030594
vt 0.856826961 0.707350731
vn 0.601243973 0.775306344 0.19340618
vn 0.943598866 0.168565542 0.284968227
vn 0.620026946 0.758576393 0.20032075
vn 0.946347415 0.151754633 0.285301864
vn -0.443618834 0.892628729 -0.0801015645
vn -0.883382022 0.460002273 -0.0896331146
vn -0.421637386 0.903610945 -0.0755595192
vn -0.94637996 0.318086714 -0.0564433262
vn 0.698070347 -0.691893697 0.184339136
vn 0.698070347 -0.691893697 0.184339136
vn -0.253284156 -0.00763436826 0.967361808
vn -0.253647596 -0.0206803009 0.967075646
vn -0.253285259 -0.00607926818 0.967372537
vn -0.25364998 -0.0206756648 0.96707505
vn -0.620317876 -0.771895468 -0.139223784
vn -0.7206617 -0.683587432 -0.115563728
vn -0.789305151 -0.606490135 -0.0957442224
vn -0.620317876 -0.771895468 -0.139223784
vn -0.253373057 -0.00518229324 0.967354774
vn -0.253373057 -0.00518229324 0.967354774
vn -0.193762437 0.176958427 -0.964956939
vn -0.243088588 0.148129016 -0.958627045
vn -0.273169637 0.0869958326 -0.958024085
vn -0.361615777 0.0137339421 -0.932226121
vn -0.447137743 0.0335868709 -0.893834293
vn -0.375418007 0.0167892966 -0.926703513
vn -0.392125398 0.0175100081 -0.919745088
vn -0.68436867 0.229650334 -0.692026198
vn -0.586827874 0.180098742 -0.789428592
vn -0.804840624 0.434827715 -0.403926224
vn -0.743823707 0.599637508 -0.295230716
vn -0.69586432 0.46389997 -0.54824239
vn -0.849239588 0.527986169 0.00476681814
vn 0.792081356 0.467039526 -0.393040866
vn 0.904022694 0.398228198 -0.155426219
vn 0.88446784 0.382139802 -0.267742097
vn 0.769013047 0.598157883 -0.225446582
vn 0.740723372 0.575196564 -0.347099394
vn 0.804824352 0.593513072 -2.33342871e-06
vn 0.552850604 0.833280265 0.000350737188
vn 0.476922363 0.811901689 -0.336690694
vn 0.91672343 0.326388478 -0.230409607
vn 0.872768342 0.40737924 -0.26891923
vn 0.914638519 0.404272646 -0.000175499954
vn 0.402680844 0.755032599 -0.51746875
vn 0.428418636 0.613461852 -0.663416743
vn 0.860519648 0.384499043 -0.334165335
vn -0.744025707 -0.637177169 -0.201074824
vn -0.750151336 -0.624215961 -0.21823658
vn -0.646670222 -0.744258702 -0.167023271
vn -0.79806149 -0.58288908 -0.15276818
vn -0.80770123 -0.589590669 -0.00127915759
vn -0.628077328 -0.765328109 -0.140683323
vn -0.628075302 -0.765332818 -0.140667006
vn -0.624065578 -0.765205622 -0.158122122
vn -0.262823492 0.0778311715 -0.961699665
vn -0.307819158 0.444036752 -0.841474175
vn -0.188851655 0.242663056 -0.951551199
vn -0.49535647 0.769141197 -0.403786808
vn -0.487158686 0.799596012 -0.351173401
vn -0.447532326 0.657754779 -0.605865896
vn -0.520089924 0.854111433 -0.000452040986
vn 0.586766839 0.441085637 -0.679078758
vn 0.545597851 0.509010851 -0.665755868
vn 0.14043808 0.975284636 -0.17057851
vn 0.437132925 0.84880209 -0.297405213
vn 0.583607674 0.492825747 -0.645387352
vn 0.582171857 0.512775958 -0.63098073
vn 0.307290643 0.951615572 0.000378771743
vn 0.328097492 0.944643855 -0.000228466903
vn 0.405756444 0.86494261 -0.295357466
vn 0.559617281 -0.78429383 -0.267790407
vn 0.689634502 -0.665328264 -0.285906702
vn 0.550242901 -0.791387677 -0.266342312
vn 0.689634502 -0.665328264 -0.285906702
vn 0.289128304 -0.929906726 -0.227328718
vn 0.20891121 -0.953422666 -0.217580423
vn 0.20890753 -0.953425586 -0.217571005
vn 0.294908702 -0.92788738 -0.228153169
vn -0.78048104 -0.28991586 -0.553893685
vn -0.773134291 -0.311213672 -0.55263859
vn -0.92725265 0.0137302456 -0.374184459
vn -0.991014183 -0.0136980591 -0.133053392
vn -0.991005361 0.028987661 -0.130645156
vn -0.853747129 -0.239537597 -0.462317407
vn -0.964516938 0.26402095 -0.000238243723
vn -0.951319814 0.308205456 0.000296462647
vn -0.713145494 0.308914244 -0.629281819
vn -0.859392107 -0.232023016 -0.455643177
vn -0.374945164 0.491280437 -0.786167681
vn -0.45551461 0.630242527 -0.628729641
vn -0.838215172 -0.545339704 0.000364799052
vn -0.512029886 0.0824124143 -0.855005026
vn -0.762995124 0.607353449 -0.221269429
vn -0.340993136 0.920678675 -0.18993257
vn -0.497154593 0.83100611 -0.24953191
vn -0.534843802 0.243382156 -0.809139848
vn -0.535268426 0.230429262 -0.812643826
vn -0.497502357 0.148790851 -0.854606748
vn -0.556934059 0.382986009 -0.736984551
vn -0.617282629 0.691302299 -0.375583947
vn -0.594963431 0.701758444 -0.391859263
vn -0.550138772 0.471558869 -0.689187586
vn -0.672320068 0.740260303 -0.000504731084
vn -0.896031976 0.288380057 -0.337585092
vn -0.49507156 0.14950642 -0.855892599
vn -0.53720206 0.29482013 -0.790249944
vn -0.0144851394 0.987576067 -0.156473324
vn 0.485546291 -0.874210894 -0.000281212851
vn 0.485255331 -0.874372065 -0.000841412344
vn 0.444776386 -0.762908518 0.469195515
vn 0.439889014 -0.744721234 0.501884341
vn 0.377623111 -0.543173611 0.749908805
vn 0.376493126 -0.538610399 0.75375849
vn 0.32917276 -0.241870329 0.912767291
vn 0.365417153 -0.368459672 0.854814529
vn 0.36539045 -0.388310522 0.845993459
vn 0.333454847 -0.4384965 0.834582984
vn -0.506332278 0.862338483 0.000465241377
vn -0.761298895 0.648400545 0.000898820406
vn -0.701360226 0.712806821 -0.000580928521
vn -0.189603209 0.173960596 0.96632725
vn -0.267787039 0.0846809521 0.959749579
vn -0.237950042 0.144796133 0.960423827
vn -0.354744911 0.0137320869 0.934862256
vn -0.368447393 0.0160190836 0.929510534
vn -0.439479053 0.03280586 0.897653639
vn -0.385151684 0.0175501071 0.922686398
vn -0.563812375 0.168621466 0.80850625
vn -0.691197097 0.249468818 0.67824167
vn -0.807849407 0.443961024 0.387656987
vn -0.7178213 0.457698643 0.524637401
vn -0.760658026 0.575350106 0.300618768
vn 0.789694667 0.46545881 0.399662882
vn 0.882727146 0.382212609 0.273324758
vn 0.904007971 0.398222744 0.155525729
vn 0.769768059 0.598133147 0.222921178
vn 0.739804208 0.572343051 0.353713542
vn 0.47883141 0.811885417 0.334010005
vn 0.915473044 0.326450735 0.235242337
vn 0.871762693 0.40593487 0.274311244
vn 0.400511801 0.75066793 0.525440693
vn 0.423702806 0.608653307 0.670833111
vn 0.858330011 0.383007735 0.341430187
vn -0.744399011 -0.636835098 0.200776547
vn -0.646154106 -0.743783593 0.171086967
vn -0.749812663 -0.623175204 0.222336322
vn -0.798030794 -0.58362627 0.150091335
vn -0.627740026 -0.765129209 0.14324677
vn -0.627740026 -0.765129209 0.14324677
vn -0.624110997 -0.764493883 0.16135183
vn -0.25748077 0.0763166323 0.963265002
vn -0.303223252 0.437870324 0.846360028
vn -0.185047626 0.238076106 0.953455329
vn -0.495856494 0.770480752 0.400606871
vn -0.443688661 0.653136849 0.613638818
vn -0.487488389 0.80098778 0.347524971
vn 0.581400752 0.433392972 0.68858093
vn 0.141906098 0.974100709 0.17604126
vn 0.539345503 0.506577909 0.672670305
vn 0.433502316 0.851802349 0.294123143
vn 0.576765895 0.511171639 0.63721627
vn 0.578272164 0.486719579 0.65475589
vn 0.403660119 0.866814852 0.292729318
vn 0.688371301 -0.664109826 0.291724563
vn 0.558070362 -0.783554614 0.273129076
vn 0.55004251 -0.789610088 0.271972835
vn 0.688371301 -0.664109826 0.291724563
vn 0.288313508 -0.928991079 0.232057899
vn 0.208854616 -0.95227325 0.222610354
vn 0.295387089 -0.926582158 0.232791662
vn 0.208854616 -0.95227325 0.222610354
vn -0.775482178 -0.288363457 0.561670601
vn -0.923669279 0.0106861992 0.383041501
vn -0.767586529 -0.308249474 0.561954856
vn -0.991099 -0.0121830022 0.132568523
vn -0.851302624 -0.236472443 0.468363643
vn -0.991059721 0.0304870941 0.129888505
vn -0.71636945 0.33568126 0.611663997
vn -0.853675604 -0.233444929 0.465554893
vn -0.451605201 0.625535965 0.636205614
vn -0.370004505 0.485204965 0.792258024
vn -0.503535926 0.0808694661 0.860181272
vn -0.766007721 0.606565356 0.212863058
vn -0.498909295 0.831456006 0.244479731
vn -0.337346286 0.92120409 0.193856999
vn -0.527212739 0.239554301 0.815267146
vn -0.489095449 0.144991174 0.860094905
vn -0.527592719 0.22734198 0.818511724
vn -0.55077064 0.378393173 0.74395591
vn -0.617131293 0.694180489 0.37048921
vn -0.544704437 0.465362608 0.697663784
vn -0.595161736 0.703507006 0.388407499
vn -0.900169253 0.276150018 0.336803228
vn -0.486730725 0.1457185 0.861312628
vn -0.521469593 0.260093927 0.812662721
vn -0.0190456379 0.987023711 0.159440652
vn 0.44554466 -0.766727626 -0.462188989
vn 0.440563947 -0.749153495 -0.494643927
vn 0.373060167 -0.536297262 -0.757107258
vn 0.371929616 -0.531749606 -0.760861814
vn 0.359716833 -0.362388074 -0.859813213
vn 0.323228598 -0.23714675 -0.916124761
vn 0.328455865 -0.432614863 -0.839619756
vn 0.359698594 -0.382212788 -0.851193368
vn -0.836342394 0.38765198 -0.387630522
vn -0.885055065 0.465415776 0.00809996109
vn -0.825446784 0.405853808 0.392326742
vn -0.829434931 0.475181729 -0.293666601
vn -0.829434931 0.475181729 -0.293666601
vn -0.829434931 0.475181729 -0.293666601
vn -0.829434931 0.475181729 -0.293666601
vn 0.231896624 0.779545128 -0.581836045
vn 0.146490067 0.881242096 -0.449391901
vn 0.231893048 0.779538393 -0.581846476
vn 0.119806744 0.905748427 -0.406529278
vn -0.27924794 0.0796298981 -0.956911564
vn -0.36699909 0.0969020426 -0.925160348
vn -0.27924794 0.0796298981 -0.956911564
vn -0.3471919 0.0930914134 -0.933162212
vn -0.546183765 0.213582903 -0.809978724
vn -0.537066519 0.205212116 -0.818197727
vn 0.000768590136 0.993207395 -0.116355464
vn 0.00686428556 0.989971578 -0.141099423
vn -0.748475015 0.347913921 -0.564571619
vn -0.756739438 0.350906551 -0.551552594
vn -0.908552766 0.417770237 6.51016308e-07
vn -0.908480942 0.417926282 4.27905889e-07
vn -0.0233904775 0.999726474 -5.10301301e-10
vn -0.0233904794 0.999726415 -1.51054425e-09
vn -0.514963746 0.38450405 -0.766138971
vn -0.412913203 0.325726002 -0.850532293
vn -0.412913203 0.325726002 -0.850532293
vn -0.520364344 0.387603402 -0.760910392
vn -0.744489193 0.507265985 -0.43407023
vn -0.744757414 0.507439315 -0.433407187
vn -0.833917916 0.551888466 4.2472255e-08
vn -0.833917975 0.551888466 5.24625477e-07
vn 0.827597082 -0.427318156 -0.363981038
vn 0.827597082 -0.427318156 -0.363981038
vn 0.827597082 -0.427318156 -0.363981038
vn 0.827597082 -0.427318156 -0.363981038
vn -0.489839524 -0.870425344 -0.0491621979
vn -0.46432361 -0.885153651 -0.0301100183
vn -0.489839524 -0.870425344 -0.0491621979
vn -0.472366571 -0.880664766 -0.0360472314
vn -0.427245677 -0.904129684 0.00325894123
vn -0.434022933 -0.900894582 -0.00360629428
vn -0.417395532 -0.908724904 -1.02471134e-08
vn -0.417395532 -0.908724904 -1.29995357e-08
vn -0.829234779 0.475447804 0.293800861
vn -0.829236925 0.475444913 0.29379943
vn -0.829235494 0.47544679 0.293800354
vn -0.829266667 0.475497514 0.293630332
vn 0.231924564 0.77968204 0.581641614
vn 0.119804144 0.90567261 0.406699181
vn 0.146489426 0.881241679 0.449392855
vn 0.231922328 0.779676378 0.581650138
vn -0.279234529 0.079021655 0.956965804
vn -0.36699903 0.0969015434 0.925160408
vn -0.347102612 0.0930700898 0.933197618
vn -0.279234976 0.0790444836 0.956963778
vn -0.537107944 0.205227226 0.818166792
vn -0.546256483 0.213623986 0.80991894
vn 0.00686530722 0.990000546 0.140896723
vn 0.000765697099 0.993219435 0.116251826
vn -0.748419762 0.347891331 0.564658582
vn -0.756819963 0.350943506 0.551418424
vn -0.412912816 0.325725943 0.850532532
vn -0.514962554 0.38450554 0.76613903
vn -0.412912816 0.325725943 0.850532532
vn -0.520333588 0.387580037 0.760943234
vn -0.744565964 0.507316649 0.433879286
vn -0.744659901 0.507376373 0.43364805
vn 0.827597141 -0.427318484 0.363980502
vn 0.827597141 -0.427318484 0.363980502
vn 0.827597141 -0.427318484 0.363980502
vn 0.827597141 -0.427318484 0.363980502
vn -0.464323789 -0.885153592 0.0301095024
vn -0.489839137 -0.870425642 0.0491614528
vn -0.489839137 -0.870425642 0.0491614528
vn -0.472366482 -0.880664766 0.0360466205
vn -0.434039205 -0.900886834 0.00358416187
vn -0.427246034 -0.904129565 -0.00325931306
vn -0.70347482 0.692070067 -0.16174753
vn -0.140790746 0.989709973 -0.0255337656
vn -0.703670681 0.691834986 -0.161901101
vn -0.146105394 0.988908589 -0.026702309
vn -0.246838301 -0.00988333113 0.96900624
vn -0.255981117 0.00379162678 0.966674328
vn -0.260534167 -0.00382316951 0.965457082
vn 0.961425066 -0.0869652405 0.260957688
vn 0.156035706 -0.986636162 0.0469253957
vn 0.161352083 -0.985707283 0.0484429933
vn 0.960935235 -0.0923056901 0.260927796
vn -0.631150842 -0.763013959 -0.139493093
vn -0.345507085 -0.936328828 -0.0625559017
vn -0.638942659 -0.756051838 -0.141908288
vn -0.345507085 -0.936328828 -0.0625559017
vn -0.162503019 0.985879302 -0.0404333211
vn -0.147141308 0.988437951 -0.0366030261
vn -0.241049245 -0.0335605182 0.969932437
vn -0.236909822 -0.0213793945 0.97129637
vn -0.247933537 -0.0366188958 0.968084753
vn -0.239193782 -0.0129583981 0.970885396
vn 0.68842113 0.698887527 0.193991169
vn 0.938634455 -0.212096065 0.271993726
vn 0.695004642 0.691973567 0.195297569
vn 0.938810647 -0.211317375 0.2719917
vn -0.237999141 -0.00463896058 0.971254349
vn -0.970831037 0.0701878741 -0.229261547
vn -0.970163584 0.0793652087 -0.229093403
vn -0.262041301 -0.00838299282 0.96502012
vn -0.267337531 -0.0416106321 0.962704062
vn -0.96069032 0.114408195 -0.252952456
vn -0.960694313 0.111348741 -0.254298985
vn 0.694992602 -0.687378526 0.210940689
vn 0.69498992 -0.687381268 0.210940599
vn -0.241479471 -0.0434807986 0.969431341
f 1/1/1 2/2/2 3/3/3
f 2/2/2 1/1/1 4/4/4
f 5/5/5 6/6/6 7/7/7
f 6/6/6 5/5/5 8/8/8
f 9/9/9 2/2/2 4/4/4
f 2/2/2 9/9/9 10/10/10
f 11/11/11 12/12/12 13/13/13
f 12/12/12 11/11/11 14/14/14
f 15/15/15 16/16/16 17/17/17
f 16/16/16 15/15/15 18/18/18
f 1/1/1 5/5/5 7/7/7
f 5/5/5 1/1/1 3/3/3
f 16/16/16 6/6/6 8/8/8
f 16/16/16 8/8/8 17/17/17
f 19/19/19 13/13/13 20/20/20
f 13/13/13 19/19/19 11/11/11
f 21/21/21 22/22/22 23/23/23
f 24/24/24 25/25/25 26/26/26
f 24/24/24 27/27/27 25/25/25
f 25/25/25 28/28/28 29/29/29
f 30/30/30 31/31/31 32/32/32
f 30/30/30 33/33/33 31/31/31
f 34/34/34 35/35/35 36/36/36
f 37/37/37 35/35/35 38/38/38
f 39/39/39 37/37/37 40/40/40
f 40/40/40 37/37/37 41/41/41
f 42/42/42 43/43/43 36/36/36
f 39/39/39 44/44/44 37/37/37
f 37/37/37 38/38/38 41/41/41
f 41/41/41 38/38/38 45/45/45
f 46/46/46 34/34/34 47/47/47
f 48/48/48 49/49/49 50/50/50
f 48/48/48 51/51/51 49/49/49
f 51/51/51 48/48/48 52/52/52
f 53/53/53 50/50/50 54/54/54
f 50/50/50 53/53/53 55/55/55
f 23/23/23 56/56/56 21/21/21
f 57/57/57 21/21/21 58/58/58
f 59/59/59 60/60/60 61/61/61
f 62/62/62 60/60/60 59/59/59
f 63/63/63 64/64/64 65/65/65
f 66/66/66 67/67/67 68/68/68
f 69/69/69 70/70/70 71/71/71
f 72/72/72 73/73/73 74/74/74
f 73/73/73 72/72/72 75/75/75
f 76/76/76 77/77/77 78/78/78
f 77/77/77 76/76/76 79/79/79
f 80/80/80 81/81/81 82/82/82
f 83/83/83 84/84/84 85/85/85
f 86/86/86 87/87/87 84/84/84
f 29/29/29 88/88/88 32/32/32
f 64/64/64 68/68/68 67/67/67
f 80/80/80 85/85/85 81/81/81
f 85/85/85 80/80/80 89/89/89
f 61/61/61 90/90/90 91/91/91
f 45/45/45 34/34/34 46/46/46
f 34/34/34 45/45/45 38/38/38
f 51/51/51 52/52/52 92/92/92
f 25/25/25 93/93/93 26/26/26
f 72/72/72 74/74/74 76/76/76
f 76/76/76 74/74/74 79/79/79
f 24/24/24 56/56/56 23/23/23
f 56/56/56 24/24/24 26/26/26
f 94/94/94 95/95/95 96/96/96
f 97/97/97 98/98/98 99/99/99
f 100/100/100 98/98/98 97/97/97
f 101/101/101 102/102/102 103/103/103
f 104/104/104 102/102/102 101/101/101
f 35/35/35 34/34/34 38/38/38
f 82/82/82 94/94/94 105/105/105
f 21/21/21 56/56/56 58/58/58
f 106/106/106 107/107/107 99/99/99
f 95/95/95 65/65/65 108/108/108
f 105/105/105 94/94/94 96/96/96
f 95/95/95 108/108/108 96/96/96
f 64/64/64 108/108/108 65/65/65
f 109/109/109 110/110/110 111/111/111
f 109/109/109 111/111/111 112/112/112
f 113/113/113 112/112/112 111/111/111
f 112/112/112 113/113/113 114/114/114
f 113/113/113 115/115/115 116/116/116
f 114/114/114 117/117/117 118/118/118
f 114/114/114 113/113/113 116/116/116
f 114/114/114 116/116/116 117/117/117
f 88/88/88 30/30/30 32/32/32
f 59/59/59 61/61/61 91/91/91
f 62/62/62 119/119/119 60/60/60
f 44/44/44 35/35/35 37/37/37
f 34/34/34 36/36/36 47/47/47
f 43/43/43 47/47/47 36/36/36
f 55/55/55 48/48/48 50/50/50
f 25/25/25 29/29/29 93/93/93
f 33/33/33 120/120/120 31/31/31
f 100/100/100 97/97/97 103/103/103
f 98/98/98 106/106/106 99/99/99
f 80/80/80 82/82/82 105/105/105
f 90/90/90 57/57/57 58/58/58
f 61/61/61 57/57/57 90/90/90
f 102/102/102 100/100/100 103/103/103
f 83/83/83 85/85/85 89/89/89
f 86/86/86 84/84/84 83/83/83
f 121/121/121 104/104/104 101/101/101
f 71/71/71 66/66/66 68/68/68
f 64/64/64 63/63/63 68/68/68
f 70/70/70 66/66/66 71/71/71
f 122/122/122 123/123/123 124/124/124
f 125/125/125 126/126/126 127/127/127
f 125/125/125 127/127/127 128/128/128
f 127/127/127 129/129/129 130/130/130
f 131/131/131 132/132/132 133/133/133
f 33/33/33 131/131/131 133/133/133
f 134/134/134 135/135/135 136/136/136
f 137/137/137 138/138/138 136/136/136
f 137/137/137 40/40/40 139/139/139
f 40/40/40 137/137/137 39/39/39
f 140/140/140 135/135/135 141/141/141
f 39/39/39 137/137/137 44/44/44
f 139/139/139 138/138/138 137/137/137
f 138/138/138 139/139/139 142/142/142
f 143/143/143 144/144/144 134/134/134
f 145/145/145 146/146/146 147/147/147
f 145/145/145 147/147/147 148/148/148
f 148/148/148 52/52/52 145/145/145
f 146/146/146 149/149/149 150/150/150
f 149/149/149 146/146/146 151/151/151
f 123/123/123 122/122/122 152/152/152
f 153/153/153 154/154/154 122/122/122
f 155/155/155 156/156/156 157/157/157
f 62/62/62 155/155/155 157/157/157
f 158/158/158 159/159/159 160/160/160
f 161/161/161 162/162/162 163/163/163
f 69/69/69 164/164/164 70/70/70
f 165/165/165 166/166/166 167/167/167
f 166/166/166 165/165/165 168/168/168
f 169/169/169 170/170/170 171/171/171
f 170/170/170 169/169/169 172/172/172
f 173/173/173 174/174/174 175/175/175
f 176/176/176 177/177/177 178/178/178
f 86/86/86 178/178/178 87/87/87
f 179/179/179 129/129/129 132/132/132
f 160/160/160 163/163/163 162/162/162
f 173/173/173 177/177/177 180/180/180
f 177/177/177 173/173/173 175/175/175
f 156/156/156 181/181/181 182/182/182
f 134/134/134 142/142/142 143/143/143
f 142/142/142 134/134/134 138/138/138
f 148/148/148 92/92/92 52/52/52
f 127/127/127 126/126/126 183/183/183
f 166/166/166 171/171/171 167/167/167
f 171/171/171 166/166/166 169/169/169
f 125/125/125 152/152/152 126/126/126
f 152/152/152 125/125/125 123/123/123
f 184/184/184 185/185/185 186/186/186
f 187/187/187 188/188/188 189/189/189
f 190/190/190 187/187/187 189/189/189
f 191/191/191 192/192/192 193/193/193
f 104/104/104 191/191/191 193/193/193
f 136/136/136 138/138/138 134/134/134
f 174/174/174 194/194/194 184/184/184
f 122/122/122 154/154/154 152/152/152
f 195/195/195 188/188/188 196/196/196
f 186/186/186 197/197/197 159/159/159
f 194/194/194 185/185/185 184/184/184
f 186/186/186 185/185/185 197/197/197
f 160/160/160 159/159/159 197/197/197
f 198/198/198 109/109/109 199/199/199
f 109/109/109 198/198/198 110/110/110
f 200/200/200 199/199/199 201/201/201
f 198/198/198 199/199/199 200/200/200
f 200/200/200 202/202/202 203/203/203
f 201/201/201 204/204/204 205/205/205
f 202/202/202 201/201/201 205/205/205
f 200/200/200 201/201/201 202/202/202
f 131/131/131 179/179/179 132/132/132
f 155/155/155 181/181/181 156/156/156
f 62/62/62 157/157/157 119/119/119
f 44/44/44 137/137/137 136/136/136
f 134/134/134 144/144/144 135/135/135
f 141/141/141 135/135/135 144/144/144
f 151/151/151 146/146/146 145/145/145
f 127/127/127 183/183/183 129/129/129
f 33/33/33 133/133/133 120/120/120
f 190/190/190 192/192/192 187/187/187
f 189/189/189 188/188/188 195/195/195
f 173/173/173 194/194/194 174/174/174
f 182/182/182 154/154/154 153/153/153
f 156/156/156 182/182/182 153/153/153
f 193/193/193 192/192/192 190/190/190
f 176/176/176 180/180/180 177/177/177
f 86/86/86 176/176/176 178/178/178
f 121/121/121 191/191/191 104/104/104
f 164/164/164 162/162/162 161/161/161
f 160/160/160 162/162/162 158/158/158
f 70/70/70 164/164/164 161/161/161
f 28/28/28 88/88/88 29/29/29
f 88/88/88 206/206/206 30/30/30
f 206/206/206 88/88/88 28/28/28
f 207/207/207 30/30/30 206/206/206
f 30/30/30 207/207/207 33/33/33
f 131/131/131 207/207/207 208/208/208
f 207/207/207 131/131/131 33/33/33
f 179/179/179 208/208/208 130/130/130
f 208/208/208 179/179/179 131/131/131
f 130/130/130 129/129/129 179/179/179
f 209/209/209 210/210/210 211/211/211
f 209/209/209 211/211/211 212/212/212
f 213/213/213 214/214/214 215/215/215
f 214/214/214 216/216/216 215/215/215
f 217/217/217 218/218/218 219/219/219
f 218/218/218 217/217/217 220/220/220
f 221/221/221 218/218/218 222/222/222
f 220/220/220 222/222/222 218/218/218
f 214/214/214 223/223/223 224/224/224
f 214/214/214 224/224/224 216/216/216
f 225/225/225 222/222/222 226/226/226
f 222/222/222 225/225/225 221/221/221
f 227/227/227 225/225/225 228/228/228
f 228/228/228 225/225/225 226/226/226
f 223/223/223 229/229/229 224/224/224
f 229/229/229 223/223/223 230/230/230
f 231/231/231 232/232/232 233/233/233
f 232/232/232 231/231/231 234/234/234
f 235/235/235 231/231/231 236/236/236
f 231/231/231 235/235/235 234/234/234
f 237/237/237 235/235/235 236/236/236
f 235/235/235 237/237/237 238/238/238
f 239/239/239 240/240/240 241/241/241
f 240/240/240 239/239/239 242/242/242
f 243/243/243 244/244/244 245/245/245
f 244/244/244 243/243/243 246/246/246
f 247/247/247 244/244/244 248/248/248
f 244/244/244 246/246/246 248/248/248
f 249/249/249 250/250/250 247/247/247
f 247/247/247 248/248/248 249/249/249
f 251/251/251 252/252/252 253/253/253
f 253/253/253 252/252/252 254/254/254
f 255/255/255 256/256/256 257/257/257
f 257/257/257 258/258/258 255/255/255
f 259/259/259 260/260/260 261/261/261
f 260/260/260 259/259/259 262/262/262
f 263/263/263 261/261/261 260/260/260
f 263/263/263 260/260/260 264/264/264
f 257/257/257 265/265/265 266/266/266
f 265/265/265 257/257/257 256/256/256
f 267/267/267 263/263/263 264/264/264
f 263/263/263 267/267/267 268/268/268
f 267/267/267 228/228/228 268/268/268
f 228/228/228 267/267/267 227/227/227
f 229/229/229 266/266/266 265/265/265
f 266/266/266 229/229/229 230/230/230
f 269/269/269 270/270/270 271/271/271
f 270/270/270 269/269/269 272/272/272
f 273/273/273 270/270/270 272/272/272
f 270/270/270 273/273/273 274/274/274
f 273/273/273 237/237/237 274/274/274
f 237/237/237 273/273/273 238/238/238
f 275/275/275 276/276/276 277/277/277
f 276/276/276 275/275/275 278/278/278
f 279/279/279 280/280/280 281/281/281
f 280/280/280 279/279/279 282/282/282
f 283/283/283 282/282/282 279/279/279
f 279/279/279 284/284/284 283/283/283
f 283/283/283 284/284/284 249/249/249
f 284/284/284 250/250/250 249/249/249
f 285/285/285 286/286/286 287/287/287
f 286/286/286 285/285/285 288/288/288
f 289/289/289 290/290/290 291/291/291
f 292/292/292 293/293/293 294/294/294
f 293/293/293 292/292/292 295/295/295
f 296/296/296 297/297/297 298/298/298
f 297/297/297 296/296/296 299/299/299
f 292/292/292 300/300/300 295/295/295
f 300/300/300 292/292/292 301/301/301
f 302/302/302 303/303/303 304/304/304
f 303/303/303 305/305/305 304/304/304
f 306/306/306 307/307/307 308/308/308
f 307/307/307 306/306/306 309/309/309
f 305/305/305 310/310/310 289/289/289
f 298/298/298 311/311/311 296/296/296
f 311/311/311 312/312/312 296/296/296
f 313/313/313 314/314/314 291/291/291
f 311/311/311 287/287/287 312/312/312
f 287/287/287 311/311/311 285/285/285
f 301/301/301 315/315/315 300/300/300
f 315/315/315 301/301/301 316/316/316
f 293/293/293 316/316/316 294/294/294
f 316/316/316 293/293/293 315/315/315
f 317/317/317 307/307/307 309/309/309
f 307/307/307 317/317/317 318/318/318
f 288/288/288 306/306/306 286/286/286
f 306/306/306 308/308/308 286/286/286
f 310/310/310 319/319/319 289/289/289
f 304/304/304 314/314/314 302/302/302
f 304/304/304 291/291/291 314/314/314
f 305/305/305 303/303/303 310/310/310
f 319/319/319 290/290/290 289/289/289
f 313/313/313 291/291/291 290/290/290
