# Extracted from the Cocos Creator 3.8.3 playable build
# Geometry-only OBJ preview for Unity; rig and animation stay in the raw assets.
o enemy_soldier_elite
v -0.896714211 2.50789595 0.368078858
v -0.816675663 3.1582675 0.376993895
v -0.816675663 3.1582675 -0.376993805
v -0.896714211 2.50789595 -0.368078768
v -0.896714211 2.50789595 0.368078858
v 0.805899143 3.1582675 0.372689635
v -0.816675663 3.1582675 0.376993895
v 0.894852161 2.50789595 0.372689635
v -0.896714211 2.50789595 -0.368078768
v 0.805899143 3.1582675 -0.372689545
v 0.894852161 2.50789595 -0.372689575
v -0.816675663 3.1582675 -0.376993805
v 0.894852161 2.50789595 0.372689635
v 0.805899143 3.1582675 -0.372689545
v 0.805899143 3.1582675 0.372689635
v 0.894852161 2.50789595 -0.372689575
v -0.896714211 2.50789595 -0.368078768
v 0.894852161 2.50789595 0.372689635
v -0.896714211 2.50789595 0.368078858
v 0.894852161 2.50789595 -0.372689575
v 0.805899143 3.1582675 0.372689635
v -0.816675663 3.1582675 -0.376993805
v -0.816675663 3.1582675 0.376993895
v 0.805899143 3.1582675 -0.372689545
v 0.235877037 0.544668674 0.185898066
v 0.235877037 2.5455637 0.185898021
v -0.242350101 2.5455637 0.185898021
v -0.242350101 0.544668674 0.185898066
v 0.235877037 2.5455637 -0.185897917
v 0.235877037 0.544668674 -0.185897887
v -0.242350101 0.544668674 -0.185897887
v -0.242350101 2.5455637 -0.185897917
v 0.235877037 2.5455637 0.185898021
v 0.235877037 0.544668674 0.185898066
v 0.235877037 0.544668674 -0.185897887
v 0.235877037 2.5455637 -0.185897917
v -0.242350101 2.5455637 0.185898021
v -0.242350101 0.544668674 -0.185897887
v -0.242350101 0.544668674 0.185898066
v -0.242350101 2.5455637 -0.185897917
v -0.341549397 0.596039772 0.236571148
v -0.341549397 0.00898313522 -0.236570984
v -0.341549397 0.00898313522 0.236571163
v -0.341549397 0.596039772 -0.236570999
v -0.341549397 0.596039772 0.236571148
v 0.335075855 0.00898313522 0.236571163
v 0.335075855 0.596039772 0.236571148
v -0.341549397 0.00898313522 0.236571163
v 0.335075855 0.596039772 0.236571148
v 0.335075855 0.00898313522 0.236571163
v 0.335075855 0.00898313522 -0.236570984
v 0.335075855 0.596039772 -0.236570999
v 0.335075855 0.00898313522 -0.236570984
v -0.341549397 0.00898313522 -0.236570984
v 0.335075855 0.596039772 -0.236570999
v -0.341549397 0.596039772 -0.236570999
v 0.335075855 0.00898313522 0.236571163
v -0.341549397 0.00898313522 0.236571163
v 0.335075855 0.00898313522 -0.236570984
v -0.341549397 0.00898313522 -0.236570984
v 0.335075855 0.596039772 0.236571148
v -0.341549397 0.596039772 -0.236570999
v -0.341549397 0.596039772 0.236571148
v 0.335075855 0.596039772 -0.236570999
v -0.00323581696 6.90144682 0.174403936
v -0.00323581696 3.07971144 0.17440398
v 0.545250416 6.49381542 0.174403951
v 0.488713741 3.07971144 0.17440398
v -0.551723003 6.49381542 0.174403951
v -0.495186329 3.07971144 0.17440398
v 0.800047398 6.63846493 8.7866141e-09
v -0.00323581696 6.90144682 0.174403936
v 0.545250416 6.49381542 0.174403951
v -0.00323581696 7.25682116 1.41278989e-09
v 0.545250416 6.49381542 0.174403951
v 0.688026905 3.07971144 5.12242764e-08
v 0.800047398 6.63846493 8.7866141e-09
v 0.488713741 3.07971144 0.17440398
v -0.00323581696 6.90144682 0.174403936
v -0.806519032 6.63846493 8.7866141e-09
v -0.551723003 6.49381542 0.174403951
v -0.00323581696 7.25682116 1.41278989e-09
v -0.806519032 6.63846493 8.7866141e-09
v -0.694499969 3.07971144 5.12242764e-08
v -0.551723003 6.49381542 0.174403951
v -0.495186329 3.07971144 0.17440398
v 0.545250416 6.49381542 -0.174403921
v 0.488713741 3.07971144 -0.174403876
v -0.00323581696 3.07971144 -0.174403876
v -0.00323581696 6.90144682 -0.174403936
v -0.495186329 3.07971144 -0.174403876
v -0.551723003 6.49381542 -0.174403921
v -0.00323581696 6.90144682 -0.174403936
v 0.800047398 6.63846493 8.7866141e-09
v 0.545250416 6.49381542 -0.174403921
v -0.00323581696 7.25682116 1.41278989e-09
v 0.545250416 6.49381542 -0.174403921
v 0.688026905 3.07971144 5.12242764e-08
v 0.488713741 3.07971144 -0.174403876
v 0.800047398 6.63846493 8.7866141e-09
v -0.00323581696 6.90144682 -0.174403936
v -0.806519032 6.63846493 8.7866141e-09
v -0.00323581696 7.25682116 1.41278989e-09
v -0.551723003 6.49381542 -0.174403921
v -0.551723003 6.49381542 -0.174403921
v -0.495186329 3.07971144 -0.174403876
v -0.694499969 3.07971144 5.12242764e-08
v -0.806519032 6.63846493 8.7866141e-09
vt 0.989378691 0.0440920591
vt 0.9238801 0.0440920591
vt 0.9238801 0.118497372
vt 0.989378691 0.118497372
vt 0.989378691 0.288986742
vt 0.9238801 0.11851263
vt 0.9238801 0.288986742
vt 0.989378691 0.11851263
vt 0.989378691 0.118497372
vt 0.9238801 0.288971424
vt 0.989378691 0.288971424
vt 0.9238801 0.118497372
vt 0.989378691 0.11851263
vt 0.9238801 0.0440767407
vt 0.9238801 0.11851263
vt 0.989378691 0.0440767407
vt 0.909887493 0.401517034
vt 0.835641682 0.221951187
vt 0.835641682 0.401517034
vt 0.909887493 0.221951187
vt 0.910434306 0.0187966228
vt 0.835407794 0.181180537
vt 0.910434306 0.181180537
vt 0.835407794 0.0187966228
vt 0.632935584 0.323522449
vt 0.632935584 0.521967411
vt 0.680365264 0.521967411
vt 0.680365264 0.323522449
vt 0.596061647 0.521967411
vt 0.596061647 0.323522449
vt 0.548631847 0.323522449
vt 0.548631847 0.521967411
vt 0.632935584 0.521967411
vt 0.632935584 0.323522449
vt 0.596061647 0.323522449
vt 0.596061647 0.521967411
vt 0.680365264 0.521967411
vt 0.71723932 0.323522449
vt 0.680365264 0.323522449
vt 0.71723932 0.521967411
vt 0.80206418 0.434690416
vt 0.745626092 0.389203608
vt 0.745626092 0.434690416
vt 0.802064002 0.389203608
vt 0.80206418 0.434690416
vt 0.745626092 0.499739408
vt 0.80206418 0.499739408
vt 0.745626092 0.434690416
vt 0.80206418 0.499739408
vt 0.745626092 0.499739408
vt 0.745626092 0.545226038
vt 0.80206418 0.545226038
vt 0.745626092 0.324154735
vt 0.745626092 0.389203608
vt 0.802064002 0.324154735
vt 0.802064002 0.389203608
vt 0.721207142 0.649064124
vt 0.790176451 0.648808539
vt 0.720858335 0.601208508
vt 0.789831221 0.600951374
vt 0.844410181 0.513532877
vt 0.892010331 0.444214702
vt 0.844154596 0.444563568
vt 0.892267346 0.513187706
vt 0.896770239 0.648485899
vt 0.896770239 0.983112931
vt 0.95087111 0.688196957
vt 0.94585824 0.982664466
vt 0.842385411 0.689355731
vt 0.848025084 0.983606756
vt 0.97671473 0.672163367
vt 0.896770239 0.648485899
vt 0.95087111 0.688196957
vt 0.896770239 0.608556628
vt 0.95087111 0.688196957
vt 0.97671473 0.982440531
vt 0.97671473 0.672163367
vt 0.94585824 0.982664466
vt 0.896770239 0.648485899
vt 0.816876888 0.674369395
vt 0.842385411 0.689355731
vt 0.896770239 0.608556628
vt 0.816876888 0.674369395
vt 0.816876888 0.984037519
vt 0.842385411 0.689355731
vt 0.848025084 0.983606756
vt 0.95087111 0.688196957
vt 0.94585824 0.982664466
vt 0.896770239 0.983112931
vt 0.896770239 0.648485899
vt 0.848025084 0.983606756
vt 0.842385411 0.689355731
vt 0.896770239 0.648485899
vt 0.97671473 0.672163367
vt 0.95087111 0.688196957
vt 0.896770239 0.608556628
vt 0.95087111 0.688196957
vt 0.97671473 0.982440531
vt 0.94585824 0.982664466
vt 0.97671473 0.672163367
vt 0.896770239 0.648485899
vt 0.816876888 0.674369395
vt 0.896770239 0.608556628
vt 0.842385411 0.689355731
vt 0.842385411 0.689355731
vt 0.848025084 0.983606756
vt 0.816876888 0.984037519
vt 0.816876888 0.674369395
vn -0.992512345 0.122144476 0
vn -0.992512345 0.122144476 0
vn -0.992512345 0.122144476 0
vn -0.992512345 0.122144476 0
vn -8.97772261e-05 -0.00685424358 0.999976516
vn -8.97772261e-05 -0.00685424358 0.999976516
vn -8.97772261e-05 -0.00685424358 0.999976516
vn -8.97772261e-05 -0.00685424358 0.999976516
vn -8.97856153e-05 -0.0068542771 -0.999976516
vn -8.97856153e-05 -0.0068542771 -0.999976516
vn -8.97856153e-05 -0.0068542771 -0.999976516
vn -8.97856153e-05 -0.0068542771 -0.999976516
vn 0.990775824 0.135510981 0
vn 0.990775824 0.135510981 0
vn 0.990775824 0.135510981 0
vn 0.990775824 0.135510981 0
vn 0 -0.99999994 0
vn 0 -0.99999994 0
vn 0 -0.99999994 0
vn 0 -0.99999994 0
vn 0 1 0
vn 0 1 0
vn 0 1 0
vn 0 1 0
vn 0 2.33589255e-08 1
vn 0 2.33589255e-08 1
vn 0 2.33589255e-08 1
vn 0 2.33589255e-08 1
vn 0 -1.5572617e-08 -1
vn 0 -1.5572617e-08 -1
vn 0 -1.5572617e-08 -1
vn 0 -1.5572617e-08 -1
vn 0.99999994 0 0
vn 0.99999994 0 0
vn 0.99999994 0 0
vn 0.99999994 0 0
vn -0.99999994 0 0
vn -0.99999994 0 0
vn -0.99999994 0 0
vn -0.99999994 0 0
vn -1 0 0
vn -1 0 0
vn -1 0 0
vn -1 0 0
vn 0 0 1
vn 0 0 1
vn 0 0 1
vn 0 0 1
vn 0.99999994 0 0
vn 0.99999994 0 0
vn 0.99999994 0 0
vn 0.99999994 0 0
vn 0 -3.75138747e-08 -1
vn 0 -3.75138747e-08 -1
vn 0 -3.75138747e-08 -1
vn 0 -3.75138747e-08 -1
vn 0 -1 0
vn 0 -1 0
vn 0 -1 0
vn 0 -1 0
vn 0 1 0
vn 0 1 0
vn 0 1 0
vn 0 1 0
vn -8.57973055e-15 9.86638415e-09 1
vn -1.30049348e-14 9.86638327e-09 1
vn -1.02564748e-08 7.89311549e-09 1
vn -1.02564748e-08 7.89311549e-09 1
vn 1.0256449e-08 1.18396519e-08 1
vn 1.0256449e-08 1.18396519e-08 1
vn 0.322815716 0.425318897 0.845514059
vn 0.322815716 0.425318897 0.845514059
vn 0.322815716 0.425318897 0.845514059
vn 0.322815716 0.425318897 0.845514059
vn 0.612046719 -0.0147952009 0.79068315
vn 0.612046719 -0.0147952009 0.79068315
vn 0.612046719 -0.0147952009 0.79068315
vn 0.612046719 -0.0147952009 0.79068315
vn -0.322815746 0.425319225 0.845513761
vn -0.322815746 0.425319225 0.845513761
vn -0.322815746 0.425319225 0.845513761
vn -0.322815746 0.425319225 0.845513761
vn -0.612047076 -0.0147950826 0.790682912
vn -0.612047076 -0.0147950826 0.790682912
vn -0.612047076 -0.0147950826 0.790682912
vn -0.612047076 -0.0147950826 0.790682912
vn 8.64772876e-09 -1.62795502e-08 -1
vn 8.64772876e-09 -1.62795502e-08 -1
vn 8.19876309e-15 -1.60328764e-08 -1
vn 4.28986528e-15 -1.60328764e-08 -1
vn -8.64771277e-09 -1.57862026e-08 -1
vn -8.64771277e-09 -1.57862026e-08 -1
vn 0.322815001 0.425318986 -0.845514178
vn 0.322815001 0.425318986 -0.845514178
vn 0.322815001 0.425318986 -0.845514178
vn 0.322815001 0.425318986 -0.845514178
vn 0.612046897 -0.0147952167 -0.79068315
vn 0.612046897 -0.0147952167 -0.79068315
vn 0.612046897 -0.0147952167 -0.79068315
vn 0.612046897 -0.0147952167 -0.79068315
vn -0.32281509 0.425319374 -0.845513999
vn -0.32281509 0.425319374 -0.845513999
vn -0.32281509 0.425319374 -0.845513999
vn -0.32281509 0.425319374 -0.845513999
vn -0.612047017 -0.0147950966 -0.790682971
vn -0.612047017 -0.0147950966 -0.790682971
vn -0.612047017 -0.0147950966 -0.790682971
vn -0.612047017 -0.0147950966 -0.790682971
f 1/1/1 2/2/2 3/3/3
f 1/1/1 3/3/3 4/4/4
f 5/5/5 6/6/6 7/7/7
f 6/6/6 5/5/5 8/8/8
f 9/9/9 10/10/10 11/11/11
f 10/10/10 9/9/9 12/12/12
f 13/13/13 14/14/14 15/15/15
f 14/14/14 13/13/13 16/16/16
f 17/17/17 18/18/18 19/19/19
f 18/18/18 17/17/17 20/20/20
f 21/21/21 22/22/22 23/23/23
f 22/22/22 21/21/21 24/24/24
f 25/25/25 26/26/26 27/27/27
f 27/27/27 28/28/28 25/25/25
f 29/29/29 30/30/30 31/31/31
f 31/31/31 32/32/32 29/29/29
f 33/33/33 34/34/34 35/35/35
f 33/33/33 35/35/35 36/36/36
f 37/37/37 38/38/38 39/39/39
f 38/38/38 37/37/37 40/40/40
f 41/41/41 42/42/42 43/43/43
f 42/42/42 41/41/41 44/44/44
f 45/45/45 46/46/46 47/47/47
f 46/46/46 45/45/45 48/48/48
f 49/49/49 50/50/50 51/51/51
f 49/49/49 51/51/51 52/52/52
f 53/53/53 54/54/54 55/55/55
f 54/54/54 56/56/56 55/55/55
f 57/57/57 58/58/58 59/59/59
f 58/58/58 60/60/60 59/59/59
f 61/61/61 62/62/62 63/63/63
f 62/62/62 61/61/61 64/64/64
f 65/65/65 66/66/66 67/67/67
f 67/67/67 66/66/66 68/68/68
f 66/66/66 65/65/65 69/69/69
f 69/69/69 70/70/70 66/66/66
f 71/71/71 72/72/72 73/73/73
f 72/72/72 71/71/71 74/74/74
f 75/75/75 76/76/76 77/77/77
f 76/76/76 75/75/75 78/78/78
f 79/79/79 80/80/80 81/81/81
f 82/82/82 80/80/80 79/79/79
f 83/83/83 84/84/84 85/85/85
f 85/85/85 84/84/84 86/86/86
f 87/87/87 88/88/88 89/89/89
f 89/89/89 90/90/90 87/87/87
f 91/91/91 92/92/92 89/89/89
f 89/89/89 92/92/92 90/90/90
f 93/93/93 94/94/94 95/95/95
f 94/94/94 93/93/93 96/96/96
f 97/97/97 98/98/98 99/99/99
f 98/98/98 97/97/97 100/100/100
f 101/101/101 102/102/102 103/103/103
f 102/102/102 101/101/101 104/104/104
f 105/105/105 106/106/106 107/107/107
f 107/107/107 108/108/108 105/105/105
