# Extracted from the Cocos Creator 3.8.3 playable build
# Geometry-only OBJ preview for Unity; rig and animation stay in the raw assets.
o enemy_soldier_elite
v -3.31584644e-08 1.52494526 0.556753576
v -0.136167511 1.12200189 0.93340224
v -3.31584644e-08 1.2102499 1.10312521
v -0.273259014 1.33768344 0.495049626
v -3.31584644e-08 1.79840708 0.0281403828
v -0.472272843 1.43252957 0.0266423356
v -0.236017272 1.47322524 -0.499749631
v -3.31584644e-08 1.72662151 -0.575335264
v -3.31584644e-08 1.56578732 -1.1317482
v -0.136283889 1.33572078 -0.964938462
v -3.31584644e-08 1.34692526 -1.18411791
v -3.31584644e-08 0.745756984 1.19324362
v -0.147976056 1.02906561 0.840307951
v -3.31584644e-08 0.745756984 1.19324362
v -0.136167511 1.12200189 0.93340224
v -3.31584644e-08 0.688004971 1.03084993
v -0.273259014 1.33768344 0.495049626
v -0.284910858 1.21628714 0.465109617
v -0.436707437 1.35946918 0.0280039124
v -0.472272843 1.43252957 0.0266423356
v -0.239919916 1.37019706 -0.476377845
v -0.236017272 1.47322524 -0.499749631
v -0.145672515 1.2705456 -0.882580578
v -0.136283889 1.33572078 -0.964938462
v -3.31584644e-08 1.03007746 -1.01514578
v -3.31584644e-08 1.10157275 -1.15225124
v -3.31584644e-08 1.52494526 0.556753576
v 0.136167452 1.12200189 0.93340224
v 0.273258924 1.33768344 0.495049626
v -3.31584644e-08 1.2102499 1.10312521
v -3.31584644e-08 1.79840708 0.0281403828
v 0.472272843 1.43252957 0.0266423356
v 0.236017168 1.47322524 -0.499749631
v -3.31584644e-08 1.72662151 -0.575335264
v 0.13628383 1.33572078 -0.964938462
v -3.31584644e-08 1.56578732 -1.1317482
v -3.31584644e-08 1.34692526 -1.18411791
v -3.31584644e-08 0.745756984 1.19324362
v 0.147975996 1.02906561 0.840307951
v -3.31584644e-08 0.745756984 1.19324362
v -3.31584644e-08 0.688004971 1.03084993
v 0.136167452 1.12200189 0.93340224
v 0.284910738 1.21628714 0.465109617
v 0.273258924 1.33768344 0.495049626
v 0.436707318 1.35946918 0.0280039124
v 0.472272843 1.43252957 0.0266423356
v 0.239919811 1.37019706 -0.476377845
v 0.236017168 1.47322524 -0.499749631
v 0.14567247 1.2705456 -0.882580578
v 0.13628383 1.33572078 -0.964938462
v -3.31584644e-08 1.03007746 -1.01514578
v -3.31584644e-08 1.10157275 -1.15225124
v -3.31584644e-08 1.10157275 -1.15225124
v -3.31584644e-08 1.10157275 -1.15225124
v 0.303401738 0.0520481467 1.04822552
v 0.843503177 -0.644620359 0.789106905
v 0.760310054 0.211011529 0.76022476
v 0.205373138 -0.824002564 1.20094311
v 1.18345904 -0.0599547625 0.104418255
v 0.760310054 0.211011529 0.76022476
v 0.843503177 -0.644620359 0.789106905
v 0.966094315 0.405986935 0.340330631
v 0.641549468 0.309901059 0.635198593
v 0.966094315 0.405986935 0.340330631
v 0.81146276 0.421598405 0.310272932
v 0.760310054 0.211011529 0.76022476
v 0.303401738 0.0520481467 1.04822552
v 0.105943911 0.175031185 0.945140004
v 0.303401738 0.0520481467 1.04822552
v 0.0646239519 -0.732029855 1.09586644
v 0.205373138 -0.824002564 1.20094311
v 0.105943911 0.175031185 0.945140004
v 0.70546788 0.643420458 0.701983273
v -3.31584644e-08 0.487725288 0.943935573
v 0.603732765 0.605039597 0.591313899
v -3.31584644e-08 0.500710547 1.09760046
v 0.729526639 0.632262111 0.274433076
v 0.883010626 0.724349856 0.342289418
v 0.81146276 0.421598405 0.310272932
v 0.883010626 0.724349856 0.342289418
v 0.729526639 0.632262111 0.274433076
v 0.966094315 0.405986935 0.340330631
v 0.901423395 1.25088453 -0.0172663033
v 0.883010626 0.724349856 0.342289418
v 1.04232979 0.371775985 -0.418892682
v 0.861067533 1.20805061 -0.404830426
v 0.637125313 1.04557955 0.709487855
v 0.70546788 0.643420458 0.701983273
v -3.31584644e-08 0.877131104 1.07619309
v -3.31584644e-08 0.500710547 1.09760046
v -3.31584644e-08 1.33548713 0.665223897
v 0.409638911 1.46265101 -0.0238271616
v -3.31584644e-08 1.57148719 -0.0348700844
v 0.449050128 1.3854624 -0.510750711
v -3.31584644e-08 1.52503407 -0.563530385
v -3.31584644e-08 0.660269439 -1.34892344
v 0.415668339 1.20466375 -1.01620388
v 0.440539271 0.686694503 -1.2596525
v -3.31584644e-08 1.28585887 -1.1123085
v 0.773296535 1.08551514 -0.807143152
v 0.826647878 0.741864204 -0.96211791
v 0.440539271 0.686694503 -1.2596525
v 0.674019217 -0.440454781 -0.679982722
v -3.31584644e-08 -0.586084187 -0.896020532
v 0.826647878 0.741864204 -0.96211791
v 1.04232979 0.371775985 -0.418892682
v 0.843503177 -0.644620359 0.789106905
v 0.281183004 -0.703410804 -0.318611741
v -0.303401798 0.0520481467 1.04822552
v -0.843503177 -0.644620359 0.789106905
v -0.205373183 -0.824002564 1.20094311
v -0.760310054 0.211011529 0.76022476
v -1.18345904 -0.0599547625 0.104418255
v -0.966094315 0.405986935 0.340330631
v -0.966094315 0.405986935 0.340330631
v -0.641549468 0.309901059 0.635198593
v -0.81146276 0.421598405 0.310272932
v -0.760310054 0.211011529 0.76022476
v -0.303401798 0.0520481467 1.04822552
v -0.10594397 0.175031185 0.945140004
v -0.303401798 0.0520481467 1.04822552
v -0.0646239668 -0.732029855 1.09586644
v -0.10594397 0.175031185 0.945140004
v -0.205373183 -0.824002564 1.20094311
v -0.70546788 0.643420458 0.701983273
v -0.603732765 0.605039597 0.591314018
v -0.883010626 0.724349856 0.342289418
v -0.729526579 0.632262111 0.274433076
v -0.883010626 0.724349856 0.342289418
v -0.81146276 0.421598405 0.310272932
v -0.729526579 0.632262111 0.274433076
v -0.966094315 0.405986935 0.340330631
v -0.901423395 1.25088453 -0.0172663033
v -0.883010626 0.724349856 0.342289418
v -1.04232979 0.371775985 -0.418892682
v -0.861067533 1.20805061 -0.404830426
v -0.637125313 1.04557955 0.709487855
v -0.70546788 0.643420458 0.701983273
v -0.409639031 1.46265101 -0.0238271616
v -0.449050218 1.3854624 -0.510750711
v -0.44053939 0.686694503 -1.2596525
v -0.415668428 1.20466375 -1.01620388
v -0.773296535 1.08551514 -0.807143152
v -0.826647878 0.741864204 -0.96211791
v -0.44053939 0.686694503 -1.2596525
v -0.674019217 -0.440454781 -0.679982722
v -1.18345904 -0.0599547625 0.104418255
v -1.04232979 0.371775985 -0.418892682
v -0.826647878 0.741864204 -0.96211791
v -0.843503177 -0.644620359 0.789106905
v -0.281183094 -0.703410804 -0.318611741
v -3.31584644e-08 0.660269439 -1.34892344
v 1.18345904 -0.0599547625 0.104418255
v -0.843503177 -0.644620359 0.789106905
v 0.976055086 1.25907588 0.254470587
v 0.955026805 0.995005727 0.26720649
v 1.02338302 1.05983186 0.0346360803
v 1.02549994 1.40206194 -0.0257690959
v 0.966332674 1.04667091 -0.406973273
v 0.968262851 1.31011748 -0.446212858
v 0.840203464 1.03624034 -0.853956938
v 0.639661551 0.988273323 -1.01502061
v 0.845526695 1.18434048 -0.874480784
v 0.639661551 0.988273323 -1.01502061
v 0.705474317 1.16307735 -0.845439553
v 0.845526695 1.18434048 -0.874480784
v 1.02549994 1.40206194 -0.0257690959
v 0.742960155 1.32471049 -0.352425069
v 0.709773183 1.40367293 0.00393863395
v 0.968262851 1.31011748 -0.446212858
v 0.966332674 1.04667091 -0.406973273
v 0.796857953 0.960891366 -0.819860518
v 0.840203464 1.03624034 -0.853956938
v 0.919987917 0.978876531 -0.396012694
v 0.567592382 0.940167129 -0.989872217
v 0.639661551 0.988273323 -1.01502061
v 1.02338302 1.05983186 0.0346360803
v 0.985549927 0.990011573 0.0584379658
v 0.955026805 0.995005727 0.26720649
v 0.904613316 0.948014617 0.276113778
v 0.861648321 0.932515144 0.511884034
v 0.869391441 1.10576499 0.538931131
v 0.640785456 1.01416349 0.739687502
v 0.812260866 0.895850062 0.506017864
v 0.640785456 1.01416349 0.739687502
v 0.579924524 0.96784997 0.723768055
v 0.861648321 0.932515144 0.511884034
v 0.976055086 1.25907588 0.254470587
v 0.769209862 1.27728808 0.256235391
v 0.749339938 1.12602592 0.530207336
v 0.869391441 1.10576499 0.538931131
v 0.640785456 1.01416349 0.739687502
v 0.698794365 1.10239136 0.524213076
v 0.579924524 0.96784997 0.723768055
v 0.640785456 1.01416349 0.739687502
v 0.749339938 1.12602592 0.530207336
v 0.769209862 1.27728808 0.256235391
v 0.712007999 1.23021841 0.244967386
v 0.654958308 1.32717812 0.0030316473
v 0.709773183 1.40367293 0.00393863395
v 0.742960155 1.32471049 -0.352425069
v 0.688605845 1.25592232 -0.370993584
v 0.705474317 1.16307735 -0.845439553
v 0.657656848 1.12989843 -0.811961114
v 0.639661551 0.988273323 -1.01502061
v 0.567592382 0.940167129 -0.989872217
v -0.976055086 1.25907588 0.254470587
v -1.02338302 1.05983186 0.0346360803
v -0.955026805 0.995005727 0.26720649
v -1.02549994 1.40206194 -0.0257690959
v -0.966332674 1.04667091 -0.406973273
v -0.968262851 1.31011748 -0.446212858
v -0.840203464 1.03624034 -0.853956938
v -0.845526695 1.18434048 -0.874480784
v -0.639661551 0.988273323 -1.01502061
v -0.639661551 0.988273323 -1.01502061
v -0.845526695 1.18434048 -0.874480784
v -0.705474317 1.16307735 -0.845439553
v -1.02549994 1.40206194 -0.0257690959
v -0.742960155 1.32471049 -0.352425069
v -0.968262851 1.31011748 -0.446212858
v -0.709773183 1.40367293 0.00393863395
v -0.966332674 1.04667091 -0.406973273
v -0.796857953 0.960891366 -0.819860518
v -0.919987917 0.978876531 -0.396012694
v -0.840203464 1.03624034 -0.853956938
v -0.567592382 0.940167129 -0.989872217
v -0.639661551 0.988273323 -1.01502061
v -1.02338302 1.05983186 0.0346360803
v -0.985549927 0.990011573 0.0584379658
v -0.955026805 0.995005727 0.26720649
v -0.904613316 0.948014617 0.276113778
v -0.861648321 0.932515144 0.511884034
v -0.640785456 1.01416349 0.739687502
v -0.869391441 1.10576499 0.538931131
v -0.640785456 1.01416349 0.739687502
v -0.812260866 0.895850062 0.506017864
v -0.579924524 0.96784997 0.723768055
v -0.861648321 0.932515144 0.511884034
v -0.976055086 1.25907588 0.254470587
v -0.769209862 1.27728808 0.256235391
v -0.749339938 1.12602592 0.530207336
v -0.869391441 1.10576499 0.538931131
v -0.640785456 1.01416349 0.739687502
v -0.698794365 1.10239136 0.524213076
v -0.640785456 1.01416349 0.739687502
v -0.579924524 0.96784997 0.723768055
v -0.749339938 1.12602592 0.530207336
v -0.769209862 1.27728808 0.256235391
v -0.712007999 1.23021841 0.244967386
v -0.709773183 1.40367293 0.00393863395
v -0.654958308 1.32717812 0.0030316473
v -0.742960155 1.32471049 -0.352425069
v -0.688605845 1.25592232 -0.370993584
v -0.705474317 1.16307735 -0.845439553
v -0.657656848 1.12989843 -0.811961114
v -0.567592382 0.940167129 -0.989872217
v -0.639661551 0.988273323 -1.01502061
vt 0.579791307 0.956409156
vt 0.609509468 0.944382846
vt 0.611214757 0.956415355
vt 0.58171761 0.935911357
vt 0.548299789 0.956403077
vt 0.552578211 0.926081359
vt 0.519086361 0.935142934
vt 0.516263962 0.956397593
vt 0.483549476 0.956392646
vt 0.490041733 0.938229859
vt 0.476382852 0.944419324
vt 0.635632157 0.956420302
vt 0.611139655 0.937444568
vt 0.635632157 0.956420302
vt 0.609509468 0.944382846
vt 0.636526942 0.945756495
vt 0.58171761 0.935911357
vt 0.584145784 0.929176748
vt 0.553470731 0.922022521
vt 0.552578211 0.926081359
vt 0.519424796 0.928881228
vt 0.519086361 0.935142934
vt 0.493337512 0.932843864
vt 0.490041733 0.938229859
vt 0.478495836 0.922708035
vt 0.473076165 0.930036962
vt 0.579791307 0.956409156
vt 0.609504819 0.968447268
vt 0.581709743 0.97690767
vt 0.611214757 0.956415355
vt 0.548299789 0.956403077
vt 0.552567124 0.986726522
vt 0.519079328 0.977653086
vt 0.516263962 0.956397593
vt 0.49003607 0.9745574
vt 0.483549476 0.956392646
vt 0.476379156 0.968363822
vt 0.635632157 0.956420302
vt 0.611132145 0.975386202
vt 0.635632157 0.956420302
vt 0.63652277 0.967084408
vt 0.609504819 0.968447268
vt 0.584135056 0.983643353
vt 0.581709743 0.97690767
vt 0.553458095 0.990785778
vt 0.552567124 0.986726522
vt 0.519415736 0.983914971
vt 0.519079328 0.977653086
vt 0.49333024 0.979944289
vt 0.49003607 0.9745574
vt 0.478485525 0.990075707
vt 0.473068058 0.982745171
vt 0.473068058 0.982745171
vt 0.473076165 0.930036962
vt 0.614920676 0.600887835
vt 0.664919019 0.616086662
vt 0.617799044 0.63193059
vt 0.655109584 0.570435107
vt 0.643521905 0.670029759
vt 0.617799044 0.63193059
vt 0.664919019 0.616086662
vt 0.61179781 0.659843564
vt 0.607106805 0.633178413
vt 0.61179781 0.659843564
vt 0.604586184 0.652939498
vt 0.617799044 0.63193059
vt 0.614920676 0.600887835
vt 0.601004183 0.596046448
vt 0.614920676 0.600887835
vt 0.644484699 0.565548301
vt 0.655109584 0.570435107
vt 0.601004183 0.596046448
vt 0.57169646 0.643500626
vt 0.527368426 0.618981242
vt 0.573572576 0.636355996
vt 0.527360737 0.62505281
vt 0.593402743 0.650843203
vt 0.592651427 0.663153768
vt 0.604586184 0.652939498
vt 0.592651427 0.663153768
vt 0.593402743 0.650843203
vt 0.61179781 0.659843564
vt 0.576864719 0.69544667
vt 0.592651427 0.663153768
vt 0.624503791 0.711900532
vt 0.577916861 0.717146993
vt 0.562690318 0.661135614
vt 0.57169646 0.643500626
vt 0.527339339 0.643530607
vt 0.527360737 0.62505281
vt 0.527318478 0.671562135
vt 0.549754143 0.70224452
vt 0.527167559 0.704203844
vt 0.553328156 0.725550473
vt 0.527412176 0.728577137
vt 0.527435958 0.789656162
vt 0.552946687 0.753134012
vt 0.561615765 0.782140732
vt 0.527361095 0.757033288
vt 0.57572782 0.740570724
vt 0.59188205 0.755052567
vt 0.501940191 0.895154178
vt 0.488111377 0.827966154
vt 0.526105285 0.822053313
vt 0.474557996 0.891385615
vt 0.451363683 0.860050857
vt 0.433612823 0.77055949
vt 0.496472955 0.797940969
vt 0.439907521 0.600868225
vt 0.38986519 0.615929306
vt 0.399810284 0.570300341
vt 0.436937422 0.631899118
vt 0.411128521 0.669967353
vt 0.442873061 0.659808934
vt 0.442873061 0.659808934
vt 0.447625011 0.633173585
vt 0.450095892 0.652916014
vt 0.436937422 0.631899118
vt 0.439907521 0.600868225
vt 0.453840077 0.596071482
vt 0.439907521 0.600868225
vt 0.410450041 0.565444112
vt 0.453840077 0.596071482
vt 0.399810284 0.570300341
vt 0.482985586 0.643459857
vt 0.481127173 0.636312962
vt 0.462008566 0.663128436
vt 0.461277276 0.650813878
vt 0.462008566 0.663128436
vt 0.450095892 0.652916014
vt 0.461277276 0.650813878
vt 0.442873061 0.659808934
vt 0.477754265 0.695449352
vt 0.462008566 0.663128436
vt 0.430116802 0.711919427
vt 0.476689637 0.71721983
vt 0.491951615 0.661097169
vt 0.482985586 0.643459857
vt 0.504902005 0.702063918
vt 0.501198709 0.725747108
vt 0.493204117 0.782257378
vt 0.501742899 0.753219008
vt 0.478912413 0.740684748
vt 0.46279645 0.755194008
vt 0.551321149 0.894798458
vt 0.564180434 0.827418089
vt 0.617180049 0.822708368
vt 0.601386607 0.858969986
vt 0.578646243 0.890635729
vt 0.617846191 0.769232094
vt 0.555387139 0.797516525
vt 0.52663213 0.89517951
vt 0.435049444 0.824020565
vt 0.617846191 0.769232094
vt 0.768144369 0.970488131
vt 0.763541222 0.985540092
vt 0.779413402 0.984522402
vt 0.782350183 0.966693342
vt 0.805914521 0.981691837
vt 0.803642988 0.965213418
vt 0.831321478 0.970391631
vt 0.841519952 0.96106106
vt 0.828014731 0.963489294
vt 0.841519952 0.96106106
vt 0.82981509 0.955511451
vt 0.828014731 0.963489294
vt 0.782350183 0.966693342
vt 0.799736619 0.950892687
vt 0.778665185 0.950778306
vt 0.803642988 0.965213418
vt 0.805914521 0.981691837
vt 0.833913565 0.974817097
vt 0.831321478 0.970391631
vt 0.807291806 0.986327231
vt 0.846170366 0.959682584
vt 0.841519952 0.96106106
vt 0.779413402 0.984522402
vt 0.777850211 0.98894316
vt 0.763541222 0.985540092
vt 0.76092428 0.988906026
vt 0.74694407 0.983244419
vt 0.749536335 0.973189831
vt 0.734031916 0.972218156
vt 0.74429816 0.985794306
vt 0.734031916 0.972218156
vt 0.730603516 0.971972644
vt 0.74694407 0.983244419
vt 0.768144369 0.970488131
vt 0.763996005 0.958567262
vt 0.746411562 0.966769397
vt 0.749536335 0.973189831
vt 0.734031916 0.972218156
vt 0.744060397 0.964311719
vt 0.730603516 0.971972644
vt 0.734031916 0.972218156
vt 0.746411562 0.966769397
vt 0.763996005 0.958567262
vt 0.761498094 0.954785407
vt 0.777476192 0.945747197
vt 0.778665185 0.950778306
vt 0.799736619 0.950892687
vt 0.802384555 0.946375132
vt 0.82981509 0.955511451
vt 0.830359519 0.951828063
vt 0.841519952 0.96106106
vt 0.846170366 0.959682584
vt 0.768144369 0.970488131
vt 0.779413402 0.984522402
vt 0.763541222 0.985540092
vt 0.782350183 0.966693342
vt 0.805914521 0.981691837
vt 0.803642988 0.965213418
vt 0.831321478 0.970391631
vt 0.828014731 0.963489294
vt 0.841519952 0.96106106
vt 0.841519952 0.96106106
vt 0.828014731 0.963489294
vt 0.82981509 0.955511451
vt 0.782350183 0.966693342
vt 0.799736619 0.950892687
vt 0.803642988 0.965213418
vt 0.778665185 0.950778306
vt 0.805914521 0.981691837
vt 0.833913565 0.974817097
vt 0.807291806 0.986327231
vt 0.831321478 0.970391631
vt 0.846170366 0.959682584
vt 0.841519952 0.96106106
vt 0.779413402 0.984522402
vt 0.777850211 0.98894316
vt 0.763541222 0.985540092
vt 0.76092428 0.988906026
vt 0.74694407 0.983244419
vt 0.734031916 0.972218156
vt 0.749536335 0.973189831
vt 0.734031916 0.972218156
vt 0.74429816 0.985794306
vt 0.730603516 0.971972644
vt 0.74694407 0.983244419
vt 0.768144369 0.970488131
vt 0.763996005 0.958567262
vt 0.746411562 0.966769397
vt 0.749536335 0.973189831
vt 0.734031916 0.972218156
vt 0.744060397 0.964311719
vt 0.734031916 0.972218156
vt 0.730603516 0.971972644
vt 0.746411562 0.966769397
vt 0.763996005 0.958567262
vt 0.761498094 0.954785407
vt 0.778665185 0.950778306
vt 0.777476192 0.945747197
vt 0.799736619 0.950892687
vt 0.802384555 0.946375132
vt 0.82981509 0.955511451
vt 0.830359519 0.951828063
vt 0.846170366 0.959682584
vt 0.841519952 0.96106106
vn -0.602986217 0.691221833 0.398271263
vn -0.698673427 0.544656098 0.463902056
vn -0.72537452 0.483611315 0.489848942
vn -0.598952115 0.695821285 0.39634487
vn -0.64411056 0.759886801 0.087713182
vn -0.637396336 0.759837627 0.127955273
vn -0.715519249 0.674451768 -0.182063073
vn -0.734345138 0.651537716 -0.190357596
vn -0.836192489 0.479059011 -0.266991884
vn -0.842476785 0.463783383 -0.27411294
vn -0.849557042 0.0228546895 -0.527001262
vn -0.80297339 0.113196358 0.585166752
vn -0.956737101 -0.161724404 0.241866574
vn -0.947880089 -0.253227204 0.193389177
vn -0.95611167 -0.172433436 0.236890599
vn -0.947876573 -0.253238261 0.193391725
vn -0.946055949 -0.109878443 0.304803044
vn -0.94729656 -0.10377086 0.303085536
vn -0.979768276 -0.199880749 -0.0100903502
vn -0.975817263 -0.204472944 -0.0772754252
vn -0.939429283 -0.144939825 -0.31058833
vn -0.945719182 -0.132747114 -0.296636909
vn -0.956340015 -0.18004255 -0.230213732
vn -0.939509988 -0.242675722 -0.241721734
vn -0.896931469 -0.357100964 -0.260754555
vn -0.896931469 -0.357100964 -0.260754555
vn 0.602986157 0.691221893 0.398271412
vn 0.698675871 0.5446558 0.463898778
vn 0.598951519 0.695821226 0.396345735
vn 0.72537756 0.483610868 0.489844829
vn 0.644103527 0.75988692 0.0877648517
vn 0.63739574 0.759838223 0.127955258
vn 0.715519011 0.674451888 -0.182063833
vn 0.734345436 0.651537597 -0.190356687
vn 0.842484236 0.463776737 -0.274101347
vn 0.83619082 0.479060531 -0.266994089
vn 0.849556983 0.0228546951 -0.5270015
vn 0.803002179 0.112958483 0.585173249
vn 0.956737161 -0.161724329 0.24186641
vn 0.947880089 -0.253227115 0.193389028
vn 0.947849751 -0.253323555 0.19341135
vn 0.956111729 -0.172433347 0.23689042
vn 0.94729656 -0.103771254 0.303085029
vn 0.946055949 -0.109878756 0.304802924
vn 0.979768038 -0.199881896 -0.0100905616
vn 0.975821853 -0.204472557 -0.0772174895
vn 0.939413309 -0.144966915 -0.310623884
vn 0.945719242 -0.132748231 -0.296636164
vn 0.956340015 -0.180042461 -0.230214089
vn 0.939524531 -0.242629781 -0.241711468
vn 0.89693135 -0.357100993 -0.260754645
vn 0.89693135 -0.357100993 -0.260754645
vn 0.845631838 -0.0687488392 -0.529320955
vn -0.845631838 -0.0687488392 -0.529320896
vn 0.517830431 0.0848352686 0.851266563
vn 0.640456498 0.0968979076 0.761857212
vn 0.725825727 0.105286047 0.67977339
vn 0.517830431 0.0848352686 0.851266563
vn 0.931681693 0.161011115 0.325645
vn 0.725922942 0.105285592 0.679669559
vn 0.640584052 0.0969308838 0.761745632
vn 0.878005624 0.169387564 0.44767648
vn 0.12704654 0.836294889 0.533357263
vn 0.128555194 0.892506182 0.432326525
vn 0.128555194 0.892506182 0.432326525
vn 0.126670137 0.82334882 0.55321914
vn 0.125174433 0.792319953 0.597126782
vn 0.125174433 0.792319953 0.597126782
vn -0.42772764 0.184028849 0.884975851
vn -0.42772764 0.184028849 0.884975851
vn -0.42772764 0.184028849 0.884975851
vn -0.42772764 0.184028849 0.884975851
vn 0.310985208 -0.947287321 0.0770384818
vn -1.48253081e-08 -0.995363951 0.096179381
vn 0.315796137 -0.94578743 0.0758874267
vn -1.41426408e-08 -0.99536407 0.0961793959
vn 0.42920354 -0.901947856 0.0476905853
vn 0.429206789 -0.901946306 0.0476908125
vn -0.295643985 -0.0305861868 0.954808474
vn -0.295695722 -0.0310888849 0.954776227
vn -0.295644552 -0.0305918548 0.954808176
vn -0.295695722 -0.0310888849 0.954776227
vn 0.854818821 0.512784839 0.0796010494
vn 0.892119288 0.218218178 0.395606011
vn 0.96847558 0.209028408 -0.135507226
vn 0.852914989 0.486857682 -0.188429356
vn 0.612135231 0.444058985 0.654295087
vn 0.693603694 0.12819016 0.708859205
vn -4.8667637e-08 0.257848948 0.966185272
vn 1.09139364e-08 0.0656251013 0.997844338
vn 2.0628795e-07 0.845554054 0.53388983
vn 0.343553513 0.932138324 0.114408232
vn -4.07515063e-06 0.998250127 0.0591323823
vn 0.359431982 0.901939332 -0.239403367
vn -9.09356743e-07 0.966267347 -0.25754106
vn 3.60887498e-08 0.390749604 -0.920497
vn 0.373754948 0.656144917 -0.655576885
vn 0.342438608 0.39213559 -0.853794813
vn -4.95230779e-07 0.697327375 -0.716752827
vn 0.764237523 0.479139686 -0.431701481
vn 0.821837962 0.309746385 -0.478162616
vn 0.403919071 -0.320378184 -0.856858969
vn 0.602912486 -0.57143122 -0.556742966
vn -8.9071691e-06 -0.528833151 -0.848725796
vn 0.709542334 -0.248727262 -0.659305871
vn 0.852120399 -0.236293867 -0.466964751
vn 0.667481065 -0.723195672 -0.177361339
vn 0.400189579 -0.891162455 -0.213723391
vn -0.517497659 0.0845800489 0.851494253
vn -0.640516341 0.096897088 0.761806846
vn -0.517494857 0.0845779106 0.8514961
vn -0.725885987 0.105277643 0.679710388
vn -0.931681693 0.161011696 0.325644791
vn -0.878005803 0.169387043 0.447676271
vn -0.128555194 0.892506182 0.432326525
vn -0.127046496 0.836294949 0.533357322
vn -0.128555194 0.892506182 0.432326525
vn -0.126670122 0.823348701 0.553219199
vn -0.125174463 0.792319894 0.597126901
vn -0.125174463 0.792319894 0.597126901
vn 0.427716106 0.183572695 0.885076165
vn 0.427719563 0.18371132 0.885045767
vn 0.427719146 0.183692887 0.88504982
vn 0.427715451 0.1835462 0.885082006
vn -0.310984343 -0.947287977 0.0770339072
vn -0.315796643 -0.945787072 0.0758904964
vn -0.429206699 -0.901946306 0.0476908721
vn -0.429203451 -0.901947856 0.0476907045
vn 0.295634538 -0.0304928683 0.954814255
vn 0.295644104 -0.0305861086 0.954808354
vn 0.295644701 -0.030591771 0.954807997
vn 0.295695782 -0.0310888104 0.954776108
vn -0.854816258 0.51279223 0.079581514
vn -0.892119348 0.218218133 0.395606071
vn -0.968475461 0.209029347 -0.135506913
vn -0.852915764 0.486859888 -0.188419729
vn -0.612137914 0.444058746 0.654292703
vn -0.693603396 0.128190964 0.708859205
vn -0.343552977 0.932138503 0.114407726
vn -0.359386295 0.901953161 -0.239419848
vn -0.342438787 0.392134726 -0.853795052
vn -0.37375465 0.656145513 -0.655576527
vn -0.764237881 0.479141206 -0.431699187
vn -0.821838796 0.309739679 -0.478165567
vn -0.403884679 -0.320417285 -0.856860518
vn -0.602917552 -0.571429312 -0.556739569
vn -0.801320791 -0.539270461 -0.258983076
vn -0.852120399 -0.236293867 -0.466964751
vn -0.709542394 -0.248727441 -0.659305811
vn -0.667562127 -0.723120391 -0.177362934
vn -0.400188297 -0.891163349 -0.213722229
vn 5.01640898e-08 -0.341973305 -0.939709663
vn 0.801321924 -0.539269626 -0.258981287
vn -0.667419016 -0.723248243 -0.177380621
vn 0.967600107 -0.0289922897 0.250817835
vn 0.959068954 -0.0457815491 0.279447377
vn 0.999468207 -0.0197404101 0.0259548239
vn 0.998959064 -0.0228897538 -0.0394599028
vn 0.982823133 -0.038145341 -0.180564404
vn 0.982709229 -0.0382737704 -0.181156695
vn 0.930925012 -0.0701873675 -0.358402401
vn 0.639589787 -0.128569379 -0.757888377
vn 0.945090592 -0.0641055405 -0.320459664
vn -0.24376604 0.721616387 -0.647956789
vn -0.135844514 0.927762151 -0.347568452
vn -0.124156028 0.941195667 -0.314222813
vn 0.0113854222 0.998943865 0.0445126556
vn -0.0511036515 0.970272362 -0.236558616
vn 0.0158488303 0.997068346 0.0748570561
vn -0.0681095347 0.966101646 -0.249015197
vn 0.81869334 -0.552406728 -0.156805694
vn 0.704197228 -0.631747544 -0.324039102
vn 0.709165812 -0.628668487 -0.319154888
vn 0.817645431 -0.553817034 -0.157297567
vn 0.499293387 -0.70658958 -0.501435161
vn 0.499201328 -0.70654732 -0.501586378
vn 0.835520506 -0.54620862 -0.0596785955
vn 0.831489444 -0.555474401 -0.00857497379
vn 0.759518564 -0.640878022 0.111386403
vn 0.702218771 -0.706368148 0.0890667737
vn 0.892468214 -0.0930889174 0.441400975
vn 0.899657726 -0.091551736 0.426888913
vn 0.684707761 -0.142195031 0.714811683
vn 0.48497799 -0.735371709 0.473312646
vn 0.386046708 -0.67733413 0.626247823
vn 0.386046708 -0.67733413 0.626247823
vn 0.546034455 -0.7598418 0.352826834
vn 0.0713336989 0.883353293 0.463247538
vn 0.0722888112 0.88186419 0.465929091
vn 0.0952090025 0.862389624 0.497211486
vn 0.0934653953 0.863740802 0.495193094
vn 0.106837936 0.852996767 0.510864198
vn -0.553009152 0.79049021 0.263260484
vn -0.548448861 0.815202594 0.186141461
vn -0.548855245 0.814918458 0.186187983
vn -0.553369761 0.778256416 0.296814054
vn -0.635950148 0.662275314 0.396180212
vn -0.628961742 0.671316385 0.392098695
vn -0.775987148 0.627203941 0.0667761341
vn -0.777250707 0.627139747 0.05076579
vn -0.74975127 0.63604039 -0.18255268
vn -0.73320961 0.657574177 -0.173204392
vn -0.688682258 0.680480301 -0.250326484
vn -0.69012779 0.680600405 -0.245980799
vn -0.639909089 0.656038523 -0.400162101
vn -0.640002072 0.655878425 -0.400275856
vn -0.967600107 -0.0289923158 0.250817865
vn -0.9994663 -0.0198337175 0.0259580128
vn -0.959068954 -0.0457815863 0.279447347
vn -0.998959005 -0.0228930786 -0.0394597165
vn -0.982823193 -0.0381451137 -0.180564418
vn -0.982708991 -0.0381543972 -0.181183383
vn -0.930924833 -0.0701961815 -0.35840103
vn -0.945090532 -0.0641041771 -0.320459902
vn -0.639569938 -0.128481105 -0.757920086
vn 0.243755743 0.721649468 -0.647923648
vn 0.124166891 0.941195548 -0.314218789
vn 0.135837615 0.92776221 -0.347570986
vn -0.0120135341 0.99894011 0.0444314517
vn 0.0511033684 0.970272243 -0.236559063
vn 0.0681095645 0.966101825 -0.249015078
vn -0.015851086 0.997068226 0.0748567879
vn -0.81869334 -0.552406788 -0.156805769
vn -0.704198778 -0.63174361 -0.324042976
vn -0.817645431 -0.553817153 -0.157297656
vn -0.709163308 -0.628673434 -0.31915018
vn -0.499337196 -0.706526399 -0.50148046
vn -0.499187499 -0.706582069 -0.501551092
vn -0.835520208 -0.546209157 -0.0596786626
vn -0.83149296 -0.555469096 -0.00857365504
vn -0.759518564 -0.640878022 0.111386403
vn -0.702218831 -0.706368089 0.0890668556
vn -0.892468214 -0.093090564 0.441400707
vn -0.684707761 -0.142195031 0.714811683
vn -0.899657786 -0.0915492252 0.426889449
vn -0.386046618 -0.67733413 0.626248002
vn -0.484977603 -0.735372007 0.473312676
vn -0.386046618 -0.67733413 0.626248002
vn -0.54603833 -0.759838462 0.352828115
vn -0.0713339075 0.883353412 0.463247389
vn -0.0722890273 0.88186425 0.465928972
vn -0.0952092856 0.862389863 0.497211248
vn -0.0934657604 0.863740981 0.495192707
vn -0.106837936 0.852996767 0.510864198
vn 0.55300808 0.790490806 0.263260841
vn 0.548855603 0.81491822 0.186188012
vn 0.548449278 0.815202415 0.186141193
vn 0.553369343 0.778256834 0.296814233
vn 0.635950506 0.662275493 0.396179438
vn 0.628961563 0.671316564 0.392098546
vn 0.777249217 0.627141595 0.0507657416
vn 0.775988817 0.627201974 0.0667764246
vn 0.749587178 0.636330307 -0.182216838
vn 0.733238339 0.657538712 -0.173217416
vn 0.688680649 0.680482149 -0.250326097
vn 0.690130055 0.680598021 -0.245980978
vn 0.639838517 0.656100452 -0.400173813
vn 0.639883995 0.656074226 -0.400144011
f 1/1/1 2/2/2 3/3/3
f 2/2/2 1/1/1 4/4/4
f 5/5/5 4/4/4 1/1/1
f 4/4/4 5/5/5 6/6/6
f 7/7/7 6/6/6 5/5/5
f 5/5/5 8/8/8 7/7/7
f 8/8/8 9/9/9 10/10/10
f 8/8/8 10/10/10 7/7/7
f 11/11/11 10/10/10 9/9/9
f 12/12/12 3/3/3 2/2/2
f 13/13/13 14/14/14 15/15/15
f 14/14/14 13/13/13 16/16/16
f 15/15/15 17/17/17 13/13/13
f 13/13/13 17/17/17 18/18/18
f 17/17/17 19/19/19 18/18/18
f 19/19/19 17/17/17 20/20/20
f 20/20/20 21/21/21 19/19/19
f 21/21/21 20/20/20 22/22/22
f 22/22/22 23/23/23 21/21/21
f 23/23/23 22/22/22 24/24/24
f 25/25/25 24/24/24 26/26/26
f 24/24/24 25/25/25 23/23/23
f 27/27/27 28/28/28 29/29/29
f 28/28/28 27/27/27 30/30/30
f 29/29/29 31/31/31 27/27/27
f 31/31/31 29/29/29 32/32/32
f 33/33/33 31/31/31 32/32/32
f 31/31/31 33/33/33 34/34/34
f 33/33/33 35/35/35 34/34/34
f 36/36/36 34/34/34 35/35/35
f 37/37/37 36/36/36 35/35/35
f 38/38/38 28/28/28 30/30/30
f 39/39/39 40/40/40 41/41/41
f 40/40/40 39/39/39 42/42/42
f 39/39/39 43/43/43 44/44/44
f 39/39/39 44/44/44 42/42/42
f 44/44/44 45/45/45 46/46/46
f 45/45/45 44/44/44 43/43/43
f 46/46/46 47/47/47 48/48/48
f 47/47/47 46/46/46 45/45/45
f 48/48/48 49/49/49 50/50/50
f 49/49/49 48/48/48 47/47/47
f 51/51/51 50/50/50 49/49/49
f 50/50/50 51/51/51 52/52/52
f 37/37/37 35/35/35 53/53/53
f 11/11/11 54/54/54 10/10/10
f 55/55/55 56/56/56 57/57/57
f 56/56/56 55/55/55 58/58/58
f 59/59/59 60/60/60 61/61/61
f 60/60/60 59/59/59 62/62/62
f 63/63/63 64/64/64 65/65/65
f 64/64/64 63/63/63 66/66/66
f 63/63/63 67/67/67 66/66/66
f 63/63/63 68/68/68 67/67/67
f 69/69/69 70/70/70 71/71/71
f 70/70/70 69/69/69 72/72/72
f 73/73/73 74/74/74 75/75/75
f 73/73/73 76/76/76 74/74/74
f 75/75/75 77/77/77 78/78/78
f 75/75/75 78/78/78 73/73/73
f 79/79/79 80/80/80 81/81/81
f 80/80/80 79/79/79 82/82/82
f 83/83/83 62/62/62 59/59/59
f 62/62/62 83/83/83 84/84/84
f 83/83/83 59/59/59 85/85/85
f 83/83/83 85/85/85 86/86/86
f 87/87/87 88/88/88 84/84/84
f 84/84/84 83/83/83 87/87/87
f 89/89/89 88/88/88 87/87/87
f 88/88/88 89/89/89 90/90/90
f 91/91/91 92/92/92 93/93/93
f 91/91/91 89/89/89 87/87/87
f 93/93/93 92/92/92 94/94/94
f 93/93/93 94/94/94 95/95/95
f 96/96/96 97/97/97 98/98/98
f 97/97/97 96/96/96 99/99/99
f 83/83/83 92/92/92 87/87/87
f 92/92/92 83/83/83 86/86/86
f 92/92/92 86/86/86 94/94/94
f 98/98/98 100/100/100 101/101/101
f 100/100/100 98/98/98 97/97/97
f 87/87/87 92/92/92 91/91/91
f 102/102/102 103/103/103 104/104/104
f 103/103/103 105/105/105 106/106/106
f 103/103/103 102/102/102 105/105/105
f 103/103/103 107/107/107 108/108/108
f 108/108/108 104/104/104 103/103/103
f 109/109/109 110/110/110 111/111/111
f 110/110/110 109/109/109 112/112/112
f 112/112/112 113/113/113 110/110/110
f 113/113/113 112/112/112 114/114/114
f 115/115/115 116/116/116 117/117/117
f 116/116/116 115/115/115 118/118/118
f 116/116/116 119/119/119 120/120/120
f 118/118/118 119/119/119 116/116/116
f 121/121/121 122/122/122 123/123/123
f 122/122/122 121/121/121 124/124/124
f 125/125/125 74/74/74 76/76/76
f 126/126/126 74/74/74 125/125/125
f 125/125/125 127/127/127 126/126/126
f 128/128/128 126/126/126 127/127/127
f 129/129/129 130/130/130 131/131/131
f 130/130/130 129/129/129 132/132/132
f 133/133/133 114/114/114 134/134/134
f 114/114/114 133/133/133 113/113/113
f 133/133/133 135/135/135 113/113/113
f 135/135/135 133/133/133 136/136/136
f 137/137/137 134/134/134 138/138/138
f 137/137/137 133/133/133 134/134/134
f 89/89/89 138/138/138 90/90/90
f 138/138/138 89/89/89 137/137/137
f 91/91/91 93/93/93 139/139/139
f 91/91/91 137/137/137 89/89/89
f 93/93/93 140/140/140 139/139/139
f 140/140/140 93/93/93 95/95/95
f 96/96/96 141/141/141 142/142/142
f 96/96/96 142/142/142 99/99/99
f 133/133/133 137/137/137 139/139/139
f 139/139/139 136/136/136 133/133/133
f 136/136/136 139/139/139 140/140/140
f 141/141/141 143/143/143 142/142/142
f 143/143/143 141/141/141 144/144/144
f 137/137/137 91/91/91 139/139/139
f 145/145/145 104/104/104 146/146/146
f 146/146/146 147/147/147 148/148/148
f 146/146/146 149/149/149 145/145/145
f 146/146/146 150/150/150 147/147/147
f 151/151/151 146/146/146 104/104/104
f 145/145/145 152/152/152 104/104/104
f 102/102/102 104/104/104 152/152/152
f 153/153/153 107/107/107 103/103/103
f 151/151/151 154/154/154 146/146/146
f 85/85/85 100/100/100 86/86/86
f 85/85/85 101/101/101 100/100/100
f 94/94/94 100/100/100 97/97/97
f 100/100/100 94/94/94 86/86/86
f 95/95/95 97/97/97 99/99/99
f 97/97/97 95/95/95 94/94/94
f 95/95/95 142/142/142 140/140/140
f 142/142/142 95/95/95 99/99/99
f 140/140/140 143/143/143 136/136/136
f 143/143/143 140/140/140 142/142/142
f 135/135/135 143/143/143 144/144/144
f 135/135/135 136/136/136 143/143/143
f 103/103/103 106/106/106 153/153/153
f 146/146/146 148/148/148 149/149/149
f 155/155/155 156/156/156 157/157/157
f 157/157/157 158/158/158 155/155/155
f 158/158/158 159/159/159 160/160/160
f 159/159/159 158/158/158 157/157/157
f 161/161/161 162/162/162 163/163/163
f 164/164/164 165/165/165 166/166/166
f 159/159/159 163/163/163 160/160/160
f 163/163/163 159/159/159 161/161/161
f 167/167/167 168/168/168 169/169/169
f 167/167/167 170/170/170 168/168/168
f 168/168/168 170/170/170 165/165/165
f 170/170/170 166/166/166 165/165/165
f 171/171/171 172/172/172 173/173/173
f 172/172/172 171/171/171 174/174/174
f 172/172/172 175/175/175 176/176/176
f 176/176/176 173/173/173 172/172/172
f 177/177/177 174/174/174 171/171/171
f 174/174/174 177/177/177 178/178/178
f 178/178/178 179/179/179 180/180/180
f 179/179/179 178/178/178 177/177/177
f 181/181/181 182/182/182 183/183/183
f 184/184/184 185/185/185 186/186/186
f 185/185/185 184/184/184 187/187/187
f 181/181/181 156/156/156 182/182/182
f 156/156/156 155/155/155 182/182/182
f 179/179/179 187/187/187 180/180/180
f 184/184/184 180/180/180 187/187/187
f 169/169/169 188/188/188 167/167/167
f 188/188/188 169/169/169 189/189/189
f 189/189/189 190/190/190 191/191/191
f 191/191/191 188/188/188 189/189/189
f 190/190/190 192/192/192 191/191/191
f 193/193/193 194/194/194 195/195/195
f 195/195/195 196/196/196 193/193/193
f 193/193/193 197/197/197 198/198/198
f 197/197/197 193/193/193 196/196/196
f 197/197/197 199/199/199 198/198/198
f 199/199/199 197/197/197 200/200/200
f 201/201/201 199/199/199 200/200/200
f 199/199/199 201/201/201 202/202/202
f 203/203/203 202/202/202 201/201/201
f 202/202/202 203/203/203 204/204/204
f 203/203/203 205/205/205 206/206/206
f 203/203/203 206/206/206 204/204/204
f 207/207/207 208/208/208 209/209/209
f 208/208/208 207/207/207 210/210/210
f 210/210/210 211/211/211 208/208/208
f 211/211/211 210/210/210 212/212/212
f 213/213/213 214/214/214 215/215/215
f 216/216/216 217/217/217 218/218/218
f 211/211/211 214/214/214 213/213/213
f 214/214/214 211/211/211 212/212/212
f 219/219/219 220/220/220 221/221/221
f 219/219/219 222/222/222 220/220/220
f 220/220/220 218/218/218 221/221/221
f 221/221/221 218/218/218 217/217/217
f 223/223/223 224/224/224 225/225/225
f 224/224/224 223/223/223 226/226/226
f 227/227/227 224/224/224 228/228/228
f 226/226/226 228/228/228 224/224/224
f 229/229/229 225/225/225 230/230/230
f 225/225/225 229/229/229 223/223/223
f 231/231/231 230/230/230 232/232/232
f 230/230/230 231/231/231 229/229/229
f 233/233/233 234/234/234 235/235/235
f 236/236/236 237/237/237 238/238/238
f 237/237/237 236/236/236 239/239/239
f 235/235/235 209/209/209 233/233/233
f 209/209/209 235/235/235 207/207/207
f 239/239/239 232/232/232 237/237/237
f 232/232/232 239/239/239 231/231/231
f 222/222/222 219/219/219 240/240/240
f 222/222/222 240/240/240 241/241/241
f 242/242/242 241/241/241 243/243/243
f 243/243/243 241/241/241 240/240/240
f 242/242/242 243/243/243 244/244/244
f 245/245/245 246/246/246 247/247/247
f 246/246/246 245/245/245 248/248/248
f 245/245/245 249/249/249 248/248/248
f 249/249/249 245/245/245 250/250/250
f 251/251/251 249/249/249 252/252/252
f 250/250/250 252/252/252 249/249/249
f 252/252/252 253/253/253 251/251/251
f 253/253/253 252/252/252 254/254/254
f 254/254/254 255/255/255 253/253/253
f 255/255/255 254/254/254 256/256/256
f 256/256/256 257/257/257 255/255/255
f 258/258/258 255/255/255 257/257/257
