# Extracted from the Cocos Creator 3.8.3 playable build
# Geometry-only OBJ preview for Unity; rig and animation stay in the raw assets.
o GoldMine
v 0.339428306 -4.02191925 1.82491755
v -1.34261703 -3.78265238 0.973902941
v -0.947608054 -4.30511522 1.07489896
v 0.424860388 -1.73830926 1.07169044
v 0.403664827 -3.99711466 1.81600761
v 1.41625392 -3.36043406 0.10456638
v 1.04872966 -2.88879609 -0.656317055
v 0.486096352 -2.04257154 -0.208788186
v 1.36761022 -3.31876326 -0.0596349426
v 0.519550323 -2.11746144 -0.656317115
v -1.75658464 -3.38661432 0.341210902
v -0.947608054 -4.30511522 1.07489896
v -1.34261703 -3.78265238 0.973902941
v 1.19067597 -4.45619774 -0.250815392
v 0.728558719 -4.64471674 -0.656317055
v 0.686152101 -4.16616392 -0.656317055
v 0.339428306 -4.02191925 1.82491755
v 0.394158036 -1.73933327 1.12995005
v -1.42815197 -2.65742135 1.09606123
v 0.424860388 -1.73830926 1.07169044
v 0.486096352 -2.04257154 -0.208788186
v -0.10469535 -1.71684504 0.985659778
v 1.19067597 -4.45619774 -0.250815392
v 1.41625392 -3.36043406 0.10456638
v 1.44887936 -4.22648811 0.454574943
v -0.10469535 -1.71684504 0.985659778
v 0.339428306 -4.02191925 1.82491755
v -0.947608054 -4.30511522 1.07489896
v 1.44887936 -4.22648811 0.454574943
v -1.34261703 -3.78265238 0.973902941
v -1.42815197 -2.65742135 1.09606123
v -1.75658464 -3.38661432 0.341210902
v -1.42815197 -2.65742135 1.09606123
v 0.394158036 -1.73933327 1.12995005
v 1.44887936 -4.22648811 0.454574943
v 0.424860388 -1.73830926 1.07169044
v 1.41625392 -3.36043406 0.10456638
v -1.21545148 -4.29003 -0.656317294
v -0.81217283 -4.81893301 -0.656317115
v 1.36761022 -3.31876326 -0.0596349426
v 0.650031149 -3.41082025 -0.656316996
v 0.403664827 -3.99711466 1.81600761
v -0.10469535 -1.71684504 0.985659778
v 0.486096352 -2.04257154 -0.208788186
v -1.42815197 -2.65742135 1.09606123
v 0.519550323 -2.11746144 -0.656317115
v 0.186628103 -2.55336308 -0.656316996
v -1.75658464 -3.38661432 0.341210902
v 1.36761022 -3.31876326 -0.0596349426
v 0.394158036 -1.73933327 1.12995005
v 0.424860388 -1.73830926 1.07169044
v -0.10469535 -1.71684504 0.985659778
v -0.81217283 -4.81893301 -0.656317115
v -0.490681022 -4.80016518 -0.656317055
v 1.19067597 -4.45619774 -0.250815392
v 0.403664827 -3.99711466 1.81600761
v -1.73743629 0.749827981 -0.61748898
v -1.91437054 -0.614427686 1.31231177
v -0.521329522 -0.296622664 0.0876339674
v -2.85960841 -1.68493807 0.795340896
v -2.80972171 -1.62913108 0.882453322
v -2.93797207 -1.63209927 0.744182348
v -2.80383587 0.656239748 -0.484649539
v -2.82630038 0.570627213 -0.656317413
v -2.94468403 0.431015253 -0.656317294
v -1.69934773 -1.34855437 1.14691544
v -1.86936104 -2.03494143 -0.21134156
v -0.521329522 -0.296622664 0.0876339674
v -1.69934773 -1.34855437 1.14691544
v -1.91437054 -0.614427686 1.31231177
v -2.40681624 -1.41035151 1.21635592
v -2.27435255 -1.78251183 -0.656317472
v -1.86936104 -2.03494143 -0.21134156
v -3.07706165 -1.55883837 0.523216307
v -1.83935273 -1.98950505 -0.656317294
v -1.69934773 -1.34855437 1.14691544
v -2.40681624 -1.41035151 1.21635592
v -2.80972171 -1.62913108 0.882453322
v -3.07706165 -1.55883837 0.523216307
v -1.91437054 -0.614427686 1.31231177
v -2.80383587 0.656239748 -0.484649539
v -2.51904011 0.812390268 -0.254252255
v -1.27255595 -0.808294237 1.20325863
v -1.74098325 -2.03603959 -0.656317294
v -1.60357416 -1.87067711 -0.656317294
v -1.27255595 -0.808294237 1.20325863
v -1.27255595 -0.808294237 1.20325863
v -2.80383587 0.656239748 -0.484649539
v -2.51904011 0.812390268 -0.254252255
v -1.73743629 0.749827981 -0.61748898
v -2.85960841 -1.68493807 0.795340896
v -2.93797207 -1.63209927 0.744182348
v -2.85960841 -1.68493807 0.795340896
v -1.86936104 -2.03494143 -0.21134156
v -2.93797207 -1.63209927 0.744182348
v -2.80972171 -1.62913108 0.882453322
v -3.07706165 -1.55883837 0.523216307
v -2.80972171 -1.62913108 0.882453322
v -2.40681624 -1.41035151 1.21635592
v -2.51904011 0.812390268 -0.254252255
v -3.17905354 -0.322564244 -0.656317353
v -2.80383587 0.656239748 -0.484649539
v -2.94468403 0.431015253 -0.656317294
v -3.07706165 -1.55883837 0.523216307
v -1.73743629 0.749827981 -0.61748898
v -0.521329522 -0.296622664 0.0876339674
v -1.70872998 0.632886231 -0.656317234
v -0.842042804 -0.94848299 -0.656317115
v -1.74880564 0.70590651 -0.656317234
v 2.23436832 0.424743533 -0.0144225974
v 2.48762012 0.192322403 0.726297617
v 3.25767303 1.18061101 1.20303738
v 2.41639304 -0.099474743 -0.122305751
v 2.48762012 0.192322403 0.726297617
v 2.23436832 0.424743533 -0.0144225974
v 4.16165829 1.13030398 0.198261276
v 4.09613323 1.4471935 0.479384601
v 3.25767303 1.18061101 1.20303738
v 2.41639304 -0.099474743 -0.122305751
v 3.60936666 -0.28039971 -0.143169343
v 2.48762012 0.192322403 0.726297617
v 4.16165829 1.13030398 0.198261276
v 3.90028882 1.6505872 -0.0540896542
v 4.09613323 1.4471935 0.479384601
v 2.96349669 1.56946039 -0.656317055
v 3.90028882 1.6505872 -0.0540896542
v 3.45070934 1.68934906 -0.656316936
v 3.25767303 1.18061101 1.20303738
v 3.89437652 1.61305821 -0.157653183
v 3.68805718 1.54069948 -0.656316817
v 3.61928654 1.57020855 -0.656316698
v 2.7622664 0.300699353 1.1505332
v 2.96349669 1.56946039 -0.656317055
v 2.23436832 0.424743533 -0.0144225974
v 3.25767303 1.18061101 1.20303738
v 2.49553013 1.0002079 -0.656316936
v 3.70868063 1.13764012 -0.656316817
v 3.89437652 1.61305821 -0.157653183
v 3.77499413 0.733056664 -0.656316876
v 4.16165829 1.13030398 0.198261276
v 4.01306915 0.535532057 -0.656316817
v 3.77499413 0.733056664 -0.656316876
v 2.7622664 0.300699353 1.1505332
v 3.60936666 -0.28039971 -0.143169343
v 4.16165829 1.13030398 0.198261276
v 3.60936666 -0.28039971 -0.143169343
v 4.01306915 0.535532057 -0.656316817
v 3.70872521 -0.188752577 -0.656316757
v 2.7622664 0.300699353 1.1505332
v 4.09613323 1.4471935 0.479384601
v -2.31978798 2.26812553 -0.656317294
v -2.9273479 2.43639636 -0.652554393
v -2.92597866 2.44092631 -0.656317294
v -2.23957324 1.98192215 -0.454914689
v -0.846388817 2.72046947 1.556283
v -1.90199423 3.62926269 2.10618711
v -2.01981401 3.38164186 2.10699844
v -2.01981401 3.38164186 2.10699844
v -2.23957324 1.98192215 -0.454914689
v -1.15774083 2.0870595 1.18850708
v -2.01981401 3.38164186 2.10699844
v -1.15774083 2.0870595 1.18850708
v -1.20470345 1.74515438 0.56437099
v -2.23957324 1.98192215 -0.454914689
v -0.806971192 1.83001733 -0.643524766
v -0.41174385 4.93130541 -0.656317115
v -1.58126247 5.21046591 -0.0860741735
v -0.193961427 3.60999227 1.29943788
v -0.934009314 5.21273136 -0.656317174
v -1.58126247 5.21046591 -0.0860741735
v -1.07985985 5.19867992 -0.656317234
v -1.54866016 5.34595108 -0.656317294
v -0.835931778 1.85484302 -0.656317174
v -0.806971192 1.83001733 -0.643524766
v -2.9273479 2.43639636 -0.652554393
v -2.01981401 3.38164186 2.10699844
v -1.90199423 3.62926269 2.10618711
v -1.58126247 5.21046591 -0.0860741735
v -1.54866016 5.34595108 -0.656317294
v -1.86004305 4.81440544 -0.656317294
v -0.193961427 3.60999227 1.29943788
v -2.9273479 2.43639636 -0.652554393
v -1.20470345 1.74515438 0.56437099
v -0.193961427 3.60999227 1.29943788
v -0.846388817 2.72046947 1.556283
v -1.20470345 1.74515438 0.56437099
v -1.15774083 2.0870595 1.18850708
v -0.806971192 1.83001733 -0.643524766
v 0.149634436 3.26032567 -0.656317174
v -0.793673873 1.84431756 -0.656317234
v -1.90199423 3.62926269 2.10618711
v 0.767621696 4.26989794 -0.656317055
v -1.58126247 5.21046591 -0.0860741735
v -0.934009314 5.21273136 -0.656317174
v -1.07985985 5.19867992 -0.656317234
v 0.36461398 -0.267645717 -0.143096685
v -2.93213916 0.0253573451 3.41974711
v -3.4856174 -0.96144551 2.13974953
v -1.28635347 2.71067476 3.13140845
v -2.93213916 0.0253573451 3.41974711
v 0.36461398 -0.267645717 -0.143096685
v 0.049670428 -0.494979292 -0.656317055
v 0.36461398 -0.267645717 -0.143096685
v 0.14671284 -0.548991024 -0.512507498
v 0.0564192981 -0.585337222 -0.656317115
v -4.31749201 1.46752262 3.70657563
v -5.0560813 1.52043402 -0.656317472
v -4.18506479 0.573204339 3.27942824
v -5.02398014 1.37940216 -0.656317532
v -1.28635347 2.71067476 3.13140845
v -2.14330029 2.62603593 3.41459012
v -3.23755193 1.9970367 4.20365334
v -2.93213916 0.0253573451 3.41974711
v -4.31749201 1.46752262 3.70657563
v -4.18506479 0.573204339 3.27942824
v -3.51260948 -0.263543606 3.23815584
v -0.113142669 -0.730741978 -0.656317115
v -0.0473710373 -0.700431645 -0.656317115
v -3.23755193 1.9970367 4.20365334
v -3.4856174 -0.96144551 2.13974953
v -3.51350594 -0.415994555 -0.656317472
v -1.82361639 -0.414406955 -0.656317234
v -3.51260948 -0.263543606 3.23815584
v -3.23755193 1.9970367 4.20365334
v -4.18506479 0.573204339 3.27942824
v -5.02398014 1.37940216 -0.656317532
v -4.63893652 0.660809517 -0.656317234
v -3.4856174 -0.96144551 2.13974953
v -3.51260948 -0.263543606 3.23815584
v -4.31749201 1.46752262 3.70657563
v -3.23755193 1.9970367 4.20365334
v -2.14330029 2.62603593 3.41459012
v -3.72267365 3.74040794 -0.656317532
v -4.16286087 3.53285146 -0.656317592
v -1.04177654 1.81157756 0.403541744
v -0.31648615 2.20942688 0.96367079
v -0.754445314 2.21112657 0.484140456
v 1.42307937 0.513002217 1.49059284
v -0.279437065 0.0122412294 1.30362833
v 1.44657862 -0.215807751 1.12988234
v 0.990964234 2.47975087 0.576001287
v -0.31648615 2.20942688 0.96367079
v 1.42307937 0.513002217 1.49059284
v -0.500120699 0.161909983 1.2301203
v -0.179826692 0.621421814 -0.656317174
v 0.00747295609 0.153998449 -0.656317174
v -0.847667992 1.16164768 1.03170848
v -0.847667992 1.16164768 1.03170848
v -0.500120699 0.161909983 1.2301203
v -0.279437065 0.0122412294 1.30362833
v 1.83082509 2.31549287 -0.656316876
v 1.15985477 2.46485305 0.604080498
v 1.73348403 2.01361632 0.764899909
v 2.08572936 2.1336472 -0.656316876
v -0.279437065 0.0122412294 1.30362833
v 1.67636561 -0.347403437 0.147119418
v 1.44657862 -0.215807751 1.12988234
v -0.31648615 2.20942688 0.96367079
v 0.07995601 2.63467193 0.121136218
v -0.754445314 2.21112657 0.484140456
v -0.847667992 1.16164768 1.03170848
v -0.847667992 1.16164768 1.03170848
v 1.73348403 2.01361632 0.764899909
v 1.15985477 2.46485305 0.604080498
v -0.500120699 0.161909983 1.2301203
v 0.00747295609 0.153998449 -0.656317174
v 0.633653581 -0.301370531 -0.656317174
v -0.437748581 1.11727834 -0.656317115
v -1.04177654 1.81157756 0.403541744
v 0.662950039 -0.31992209 -0.656317055
v 0.988760293 -0.358013123 -0.656317055
v 0.07995601 2.63467193 0.121136218
v 0.961043715 2.45301628 -0.656317115
v 0.412831485 2.01902771 -0.656317174
v -1.04177654 1.81157756 0.403541744
v -0.754445314 2.21112657 0.484140456
v 1.73348403 2.01361632 0.764899909
v 1.42307937 0.513002217 1.49059284
v 1.67636561 -0.347403437 0.147119418
v 1.44657862 -0.215807751 1.12988234
v 1.90479279 -0.00939971488 -0.656316936
v 1.90435183 -0.0143640889 -0.656316996
v 1.15985477 2.46485305 0.604080498
v 1.75343227 2.32316494 -0.656316936
v 0.990964234 2.47975087 0.576001287
v 1.83082509 2.31549287 -0.656316876
v 0.990964234 2.47975087 0.576001287
v -2.90057564 -2.90324402 -0.285274029
v -2.63732219 -3.18385172 0.543850541
v -1.6951443 -2.14508367 1.0774889
v -2.74122357 -3.5036068 -0.406032979
v -2.63732219 -3.18385172 0.543850541
v -2.90057564 -2.90324402 -0.285274029
v -0.69030267 -2.27681684 -0.0472065397
v -0.736948788 -1.91761982 0.26746878
v -1.6951443 -2.14508367 1.0774889
v -2.74122357 -3.5036068 -0.406032979
v -1.42472696 -3.80530047 -0.429386675
v -2.63732219 -3.18385172 0.543850541
v -0.69030267 -2.27681684 -0.0472065397
v -0.938549221 -1.67421365 -0.329675376
v -0.736948788 -1.91761982 0.26746878
v -1.94160807 -1.7630142 -0.656317353
v -0.938549221 -1.67421365 -0.329675376
v -1.18014514 -1.63503444 -0.656317294
v -1.6951443 -2.14508367 1.0774889
v -0.948287189 -1.71560943 -0.445599198
v -1.03751099 -1.73958826 -0.656317294
v -1.06555831 -1.7249831 -0.656317055
v -2.32169509 -3.08584094 1.01871848
v -1.94160807 -1.7630142 -0.656317353
v -2.90057564 -2.90324402 -0.285274029
v -1.6951443 -2.14508367 1.0774889
v -2.72518802 -2.5828054 -0.656317294
v -1.04154193 -1.91008258 -0.656317174
v -0.948287189 -1.71560943 -0.445599198
v -0.986280322 -2.53858376 -0.656316996
v -0.69030267 -2.27681684 -0.0472065397
v -0.82757926 -2.69165277 -0.656317174
v -0.986280322 -2.53858376 -0.656316996
v -2.32169509 -3.08584094 1.01871848
v -1.42472696 -3.80530047 -0.429386675
v -1.37788284 -3.76816654 -0.656317234
v -0.82757926 -2.69165277 -0.656317174
v -1.42472696 -3.80530047 -0.429386675
v -0.69030267 -2.27681684 -0.0472065397
v -2.32169509 -3.08584094 1.01871848
v -0.736948788 -1.91761982 0.26746878
v 4.35020256 0.106870182 -0.430322349
v 3.24330568 -0.0218238737 1.70353782
v 3.55680299 -1.21391582 -0.0100229848
v 2.38036036 0.558635414 1.26055264
v 2.44197392 0.501407862 1.32287765
v 2.41781116 0.643581927 1.22934484
v 3.80744624 1.20895088 -0.656316817
v 3.5182128 1.66366136 -0.0695610344
v 4.19470978 1.0091449 -0.072406441
v 3.57879663 1.4298842 -0.656316876
v 2.60403299 -0.501578689 1.2502135
v 1.85625625 -0.127330139 0.132983252
v 3.55680299 -1.21391582 -0.0100229848
v 2.60403299 -0.501578689 1.2502135
v 3.24330568 -0.0218238737 1.70353782
v 2.69882703 0.0960227028 1.51484561
v 1.94689417 0.158999056 -0.656316996
v 1.85625625 -0.127330139 0.132983252
v 2.4547925 0.820153654 1.06043971
v 1.86806703 0.0154486243 -0.656316996
v 2.44197392 0.501407862 1.32287765
v 2.4547925 0.820153654 1.06043971
v 3.24330568 -0.0218238737 1.70353782
v 4.19470978 1.0091449 -0.072406441
v 4.37715673 0.723937571 0.058231879
v 3.1300838 -0.838385999 1.17178094
v 3.5182128 1.66366136 -0.0695610344
v 3.57879663 1.4298842 -0.656316876
v 3.53123951 1.41839826 -0.656316876
v 1.80279744 -0.161767527 -0.656316936
v 2.0813663 -0.339005738 -0.656316936
v 3.1300838 -0.838385999 1.17178094
v 3.1300838 -0.838385999 1.17178094
v 4.19470978 1.0091449 -0.072406441
v 4.37715673 0.723937571 0.058231879
v 4.35020256 0.106870182 -0.430322349
v 2.38036036 0.558635414 1.26055264
v 2.41781116 0.643581927 1.22934484
v 2.44197392 0.501407862 1.32287765
v 2.38036036 0.558635414 1.26055264
v 1.85625625 -0.127330139 0.132983252
v 2.60403299 -0.501578689 1.2502135
v 2.41781116 0.643581927 1.22934484
v 2.44197392 0.501407862 1.32287765
v 2.4547925 0.820153654 1.06043971
v 2.69882703 0.0960227028 1.51484561
v 2.69882703 0.0960227028 1.51484561
v 3.24330568 -0.0218238737 1.70353782
v 2.4547925 0.820153654 1.06043971
v 3.24330568 -0.0218238737 1.70353782
v 4.37715673 0.723937571 0.058231879
v 4.19470978 1.0091449 -0.072406441
v 4.19470978 1.0091449 -0.072406441
v 3.5182128 1.66366136 -0.0695610344
v 2.4547925 0.820153654 1.06043971
v 3.62281775 -0.0844844729 -0.656316876
v 3.55680299 -1.21391582 -0.0100229848
v 2.75359011 -0.763553798 -0.656316996
v 4.35020256 0.106870182 -0.430322349
v 4.00812674 0.217106193 -0.656316817
v -2.02192855 4.45379686 -0.656317294
v -2.92597866 2.44092631 -0.656317294
v 0.14671284 -0.548991024 -0.512507498
v -0.0327874087 -0.694836855 -0.656317115
v -0.712895274 -0.742578149 -0.656317055
v 3.21681166 1.21210551 -0.656316876
v -0.171195656 1.4082123 -0.656316936
v 0.0715958849 3.12506437 -0.656317055
v 4.14584637 0.323949814 -0.656316817
v 4.14584637 0.323949814 -0.656316817
v 3.90250969 0.956781566 -0.656316817
v -1.51854241 -3.76943707 -0.656317234
v -1.37788284 -3.76816654 -0.656317234
v -1.42472696 -3.80530047 -0.429386675
v -2.90057564 -2.90324402 -0.285274029
v -2.79957461 -3.07263041 -0.656317294
v -2.69385624 -3.5283649 -0.656317294
v 1.04872966 -2.88879609 -0.656317055
v -0.113142669 -0.730741978 -0.656317115
v -2.75437927 0.580787301 -0.656317294
v -2.82630038 0.570627213 -0.656317413
v 2.36871648 0.544897079 -0.656316936
v -0.0327874087 -0.694836855 -0.656317115
v 0.0564192981 -0.585337222 -0.656317115
v 0.14671284 -0.548991024 -0.512507498
v 0.988760293 -0.358013123 -0.656317055
v 1.90435183 -0.0143640889 -0.656316996
v 1.67636561 -0.347403437 0.147119418
v -2.29968429 3.84012985 -0.656317234
v -3.72267365 3.74040794 -0.656317532
v -2.14330029 2.62603593 3.41459012
v -1.76066375 0.727675438 -0.656317294
v -0.795175195 1.84887826 -0.656317174
v -1.58009696 -3.78249717 -0.656317234
v -2.69385624 -3.5283649 -0.656317294
v -1.28635347 2.71067476 3.13140845
v -2.10804605 3.84017062 -0.656317353
v 3.25516558 -0.255221754 -0.656316996
v 3.39176106 -0.215375349 -0.656316936
v 3.60936666 -0.28039971 -0.143169343
v 0.662950039 -0.31992209 -0.656317055
v -0.279437065 0.0122412294 1.30362833
v 0.633653581 -0.301370531 -0.656317174
v -0.500120699 0.161909983 1.2301203
v -1.03751099 -1.73958826 -0.656317294
v 3.45070934 1.68934906 -0.656316936
v 3.49527478 1.66176414 -0.656316936
v 3.90028882 1.6505872 -0.0540896542
v -3.17905354 -0.322564244 -0.656317353
v -2.27435255 -1.78251183 -0.656317472
v -3.07706165 -1.55883837 0.523216307
v -1.11492515 -1.6824888 -0.656317234
v 3.70872521 -0.188752577 -0.656316757
v 0.961043715 2.45301628 -0.656317115
v 0.07995601 2.63467193 0.121136218
v 1.6216687 2.33205152 -0.656316936
v 1.94689417 0.158999056 -0.656316996
v 2.4547925 0.820153654 1.06043971
v -1.02860618 -3.47119021 -0.656317174
v -4.48522663 0.372209698 -0.656317472
v -1.446859 -3.6213243 -0.656317234
v 2.08572936 2.1336472 -0.656316876
v 1.80279744 -0.161767527 -0.656316936
v -0.0492836833 3.97057748 -0.656317115
v -1.28635347 2.71067476 3.13140845
v 0.0715958849 3.12506437 -0.656317055
v 0.36461398 -0.267645717 -0.143096685
v 3.68805718 1.54069948 -0.656316817
v -0.795175195 1.84887826 -0.656317174
v -0.793673873 1.84431756 -0.656317234
v -0.806971192 1.83001733 -0.643524766
v -2.78964019 -2.65431452 -0.656317294
v 2.23436832 0.424743533 -0.0144225974
v 2.43049622 0.145579562 -0.656316936
v 2.52112055 -0.144603088 -0.656316876
v -4.16286087 3.53285146 -0.656317592
v -5.0560813 1.52043402 -0.656317472
v -4.31749201 1.46752262 3.70657563
v 3.80744624 1.20895088 -0.656316817
v -0.437748581 1.11727834 -0.656317115
v -0.0492836833 3.97057748 -0.656317115
v -1.76066375 0.727675438 -0.656317294
v 2.39358163 0.868516445 -0.656316936
v 2.39358163 0.868516445 -0.656316936
v -0.842042804 -0.94848299 -0.656317115
v 0.728558719 -4.64471674 -0.656317055
v 3.25516558 -0.255221754 -0.656316996
v 2.52112055 -0.144603088 -0.656316876
v 2.75359011 -0.763553798 -0.656316996
v -1.58009696 -3.78249717 -0.656317234
v -1.446859 -3.6213243 -0.656317234
v -1.21545148 -4.29003 -0.656317294
v -1.75658464 -3.38661432 0.341210902
v -1.74098325 -2.03603959 -0.656317294
v 0.767621696 4.26989794 -0.656317055
v -2.78964019 -2.65431452 -0.656317294
v -3.51350594 -0.415994555 -0.656317472
v -1.18014514 -1.63503444 -0.656317294
v -0.938549221 -1.67421365 -0.329675376
vt 0.149764344 0.83378762
vt 0.133834824 0.712980747
vt 0.169841304 0.738777101
vt 0.756527483 0.160317481
vt 0.741867185 3.30805779e-05
vt 0.861300051 0.0709525943
vt 0.895238101 0.110697389
vt 0.843277931 0.157852888
vt 0.870115161 0.0756984353
vt 0.873381197 0.159144223
vt 0.793429315 0.422624886
vt 0.876190424 0.442572057
vt 0.83616513 0.450658083
vt 0.953402221 0.236507952
vt 0.916466117 0.234655499
vt 0.915167511 0.207548678
vt 0.149764344 0.83378762
vt 0.0035279633 0.838095069
vt 0.0566872582 0.712265193
vt 0.76331985 0.73092097
vt 0.762319744 0.643791616
vt 0.799221098 0.725723565
vt 0.895238101 0.00181108713
vt 0.861300051 0.0709525943
vt 0.852404416 0.00883305073
vt 0.00100802362 0.803200841
vt 0.404368103 0.765912771
vt 0.45202288 0.67450279
vt 0.503392458 0.834920526
vt 0.83616513 0.450658083
vt 0.765599132 0.479365051
vt 0.793429315 0.422624886
vt 0.0566872582 0.712265193
vt 0.752236664 0.159294844
vt 0.852404416 0.00883305073
vt 0.756527483 0.160317481
vt 0.861300051 0.0709525943
vt 0.837666869 0.335267901
vt 0.876190424 0.320464849
vt 0.971428573 0.177734315
vt 0.915167511 0.164613366
vt 0.148496091 0.838095129
vt 0.799221098 0.725723565
vt 0.762319744 0.643791616
vt 0.893671572 0.734920561
vt 0.760990798 0.613323092
vt 0.785812676 0.613759935
vt 0.920634925 0.684039891
vt 0.870115161 0.0756984353
vt 0.765334845 0.734920561
vt 0.76331985 0.73092097
vt 0.799221098 0.725723565
vt 0.574468791 0.67450279
vt 0.575704753 0.696366072
vt 0.552103758 0.813596249
vt 0.404953212 0.770374119
vt 0.776703894 0.490993977
vt 0.8507936 0.600932837
vt 0.728063941 0.567610741
vt 0.0360029116 0.0126984119
vt 0.0312000215 0.00876998901
vt 0.0412698463 0.00876998901
vt 0.846211731 0.467538595
vt 0.842913926 0.456164718
vt 0.8507936 0.452363849
vt 0.415900737 0.580816269
vt 0.441269845 0.67417407
vt 0.323295474 0.653622508
vt 0.577159166 0.785119176
vt 0.627606928 0.8011868
vt 0.571815848 0.831834435
vt 0.936455429 0.00229853392
vt 0.961251616 0.029769659
vt 0.879162788 0.0819624662
vt 0.964977443 0.000711798668
vt 0.971428573 0.129602134
vt 0.922965407 0.131746054
vt 0.895758986 0.105696321
vt 0.552527428 0.88253957
vt 0.627606928 0.8011868
vt 0.691014707 0.88253957
vt 0.834888637 0.490390956
vt 0.809260249 0.612698376
vt 0.433740288 0.704744756
vt 0.422026128 0.704761803
vt 0.3786259 0.576886177
vt 0.615189016 0.758169711
vt 0.846211731 0.467538595
vt 0.834888637 0.490390956
vt 0.776703894 0.490993977
vt 0.892409801 0.0990495682
vt 0.887513995 0.0961177945
vt 0.892409801 0.0990495682
vt 0.961251616 0.029769659
vt 0.0555390157 0.0158730149
vt 0.0428094305 0.0143579841
vt 0.0730158612 0.0143579841
vt 0.552424669 0.861025631
vt 0.571815848 0.831834435
vt 0.704761863 0.861962557
vt 0.712084174 0.79268086
vt 0.662403941 0.825396836
vt 0.669199765 0.810861051
vt 0.823809445 0.825396836
vt 0.250488371 0.656558275
vt 0.323295474 0.653622508
vt 0.257439315 0.661496043
vt 0.356726229 0.704761803
vt 0.252855003 0.659497082
vt 0.9414891 0.924066961
vt 0.919153094 0.877540708
vt 0.971428514 0.851679683
vt 0.904568553 0.934364319
vt 0.919153094 0.877540708
vt 0.9414891 0.924066961
vt 0.146616608 0.928977132
vt 0.124731362 0.948192477
vt 0.0629980341 0.922388017
vt 0.75595367 0.861095667
vt 0.775507152 0.938757002
vt 0.697879195 0.878534675
vt 0.146616608 0.928977132
vt 0.153496921 0.965079308
vt 0.124731362 0.948192477
vt 0.313243479 0.872500062
vt 0.240192667 0.851755559
vt 0.290935278 0.84729594
vt 0.20666337 0.942857087
vt 0.24586226 0.847532153
vt 0.280781001 0.835812747
vt 0.283769876 0.839192033
vt 0.920494854 0.851768494
vt 0.313243479 0.872500062
vt 0.31726101 0.942857087
vt 0.20666337 0.942857087
vt 0.336234659 0.89845258
vt 0.192294389 0.934064567
vt 0.160332903 0.963256538
vt 0.196770936 0.906939924
vt 0.0952380747 0.0777778029
vt 0.0816320479 0.0197434425
vt 0.0952380747 0.0131349564
vt 0.0629980341 0.861723423
vt 0.168141976 0.834308445
vt 0.146616608 0.928977132
vt 0.168141976 0.834308445
vt 0.203174561 0.894354343
vt 0.202513069 0.844444335
vt 0.672503889 0.90285641
vt 0.204921544 0.866634905
vt 0.000403387356 0.245346189
vt 0.000561595021 0.285700619
vt 0.000155129892 0.285714269
vt 0.0222222283 0.234390497
vt 0.973471522 0.304891706
vt 0.881201446 0.326541305
vt 0.883479714 0.308411121
vt 0.587586462 0.199999928
vt 0.577441633 0.0104399323
vt 0.644147396 0.125070512
vt 0.883479714 0.308411121
vt 0.977777839 0.253053784
vt 0.642117202 0.0789003372
vt 0.577441633 0.0104399323
vt 0.674603224 0.000749468803
vt 0.650287807 0.594415069
vt 0.598668456 0.664445937
vt 0.520675361 0.563695431
vt 0.644430757 0.627871692
vt 0.598668456 0.664445937
vt 0.642715991 0.637686312
vt 0.63736856 0.668253899
vt 0.000459647796 0.146592557
vt 0.00184638496 0.144308388
vt 0.758487523 0.761904657
vt 0.579301417 0.733371675
vt 0.579360366 0.718635678
vt 0.720981061 0.601629019
vt 0.758730114 0.588721097
vt 0.758053362 0.619525135
vt 0.977777839 0.374603152
vt 0.533726335 0.000749468803
vt 0.642117202 0.0789003372
vt 0.131495878 0.575170636
vt 0.196947157 0.556615889
vt 0.252380967 0.624668956
vt 0.236497849 0.581602812
vt 0.230945349 0.708655179
vt 0.130743518 0.711111009
vt 0.229780287 0.70956248
vt 0.446702212 0.668253899
vt 0.663492024 0.518996119
vt 0.598668456 0.664445937
vt 0.644430757 0.627871692
vt 0.642715991 0.637686312
vt 0.266666621 0.425609112
vt 0.0420727581 0.668253958
vt 0.000391126116 0.57045567
vt 0.0866247788 0.109870493
vt 0.270627081 0.0572965145
vt 0.288344234 0.356454134
vt 0.304178596 0.383185685
vt 0.288344234 0.356454134
vt 0.30773899 0.375887513
vt 0.310317427 0.383333325
vt 0.568253934 0.547069013
vt 0.288419813 0.484112382
vt 0.557755232 0.480483711
vt 0.291069299 0.47463882
vt 0.13333331 0.000836968422
vt 0.0800237283 0.0142857432
vt 0.0075922804 0.000836968422
vt 0.000614099263 0.142138243
vt 0.0813763589 0.0323585868
vt 0.0825396925 0.097200036
vt 0.00135734014 0.65263629
vt 0.232259378 0.385614157
vt 0.236874923 0.385977983
vt 0.136661306 2.08616257e-05
vt 0.000391126116 0.57045567
vt 0.00328223524 0.390402853
vt 0.117887616 0.390004516
vt 0.04314759 0.158730149
vt 0.000614099263 0.000545978546
vt 0.557755232 0.480483711
vt 0.291069299 0.47463882
vt 0.303398848 0.422556818
vt 0.510894179 0.350729644
vt 0.568253934 0.415233076
vt 0.536507905 0.317695379
vt 0.458328485 0.346031725
vt 0.384886593 0.287016153
vt 0.505663812 0.0180993676
vt 0.536507845 0.020291388
vt 0.577285886 0.471489549
vt 0.627821505 0.508552194
vt 0.594353318 0.500760317
vt 0.761288881 0.411158085
vt 0.649108887 0.365727663
vt 0.765079319 0.358549535
vt 0.710284233 0.529860854
vt 0.627821505 0.508552194
vt 0.761288881 0.411158085
vt 0.33908543 0.898412645
vt 0.454321444 0.830961287
vt 0.466231376 0.862634063
vt 0.326963753 0.826850533
vt 0.600352407 0.43620801
vt 0.632595122 0.373628318
vt 0.649108887 0.365727663
vt 0.638085604 0.208956778
vt 0.552351058 0.253673971
vt 0.541436732 0.217099607
vt 0.6380952 0.192608714
vt 0.641752183 0.235383391
vt 0.756975949 0.339390278
vt 0.687880695 0.342857063
vt 0.527883649 0.355105281
vt 0.585175872 0.326036215
vt 0.560490727 0.384801805
vt 0.600352407 0.43620801
vt 0.600352407 0.43620801
vt 0.765079319 0.505126834
vt 0.72196126 0.530158639
vt 0.33908543 0.898412645
vt 0.466231376 0.862634063
vt 0.484126955 0.898412645
vt 0.44084698 0.796704769
vt 0.351233304 0.769590974
vt 0.78940767 0.25942564
vt 0.795947611 0.280332804
vt 0.585175872 0.326036215
vt 0.638069093 0.267231226
vt 0.638076305 0.306646943
vt 0.565981865 0.406349182
vt 0.560490727 0.384801805
vt 0.186305672 0.732626677
vt 0.289761126 0.681828201
vt 0.346031696 0.775577903
vt 0.338772386 0.706947803
vt 0.321618319 0.831745923
vt 0.321956396 0.831745505
vt 0.552351058 0.253673971
vt 0.638084292 0.214165568
vt 0.554257929 0.26505065
vt 0.638085604 0.208956778
vt 0.554257929 0.26505065
vt 0.0413913019 0.923104286
vt 0.0103919655 0.873620152
vt 0.0603174791 0.84068644
vt 0.00107480609 0.938157439
vt 0.0103919655 0.873620152
vt 0.0413913019 0.923104286
vt 0.874028325 0.256274223
vt 0.84944278 0.277494192
vt 0.780092597 0.251396418
vt 0.523944199 0.87182647
vt 0.57111609 0.94603169
vt 0.468634576 0.911301792
vt 0.874028325 0.256274223
vt 0.881310761 0.298412681
vt 0.84944278 0.277494192
vt 0.840338707 0.813248038
vt 0.805117965 0.876037896
vt 0.801928401 0.848741412
vt 0.909523785 0.909850121
vt 0.800408483 0.869653106
vt 0.795217454 0.854936719
vt 0.796559513 0.853697538
vt 0.00745202648 0.845059514
vt 0.840338707 0.813248038
vt 0.909523785 0.783630311
vt 0.909523785 0.909850121
vt 0.882455826 0.774297118
vt 0.90242815 0.285038471
vt 0.88894695 0.296615958
vt 0.909579575 0.242932141
vt 0.0990751833 0.0120857954
vt 0.107936502 0.0541552901
vt 0.0990751982 0.058730185
vt 0.780092597 0.186220586
vt 0.898210883 0.153988004
vt 0.913371861 0.158674836
vt 0.9142856 0.233224094
vt 0.898210883 0.153988004
vt 0.874028325 0.256274223
vt 0.45016852 0.94603169
vt 0.823553562 0.91428566
vt 0.676276624 0.0846911669
vt 0.742857218 0.231746018
vt 0.616409123 0.165264726
vt 0.073015891 0.0208941698
vt 0.069385469 0.0253968835
vt 0.069385469 0.0163962245
vt 0.882924139 0.604113936
vt 0.9155761 0.575376809
vt 0.928473711 0.615872979
vt 0.87850219 0.590445399
vt 0.961140811 0.669957995
vt 0.99999994 0.745230675
vt 0.888053715 0.754866242
vt 0.315242738 0.323809505
vt 0.343794107 0.271610439
vt 0.356191814 0.30866313
vt 0.714285672 0.950487673
vt 0.656930745 0.952399731
vt 0.619340599 0.885745704
vt 0.710953414 0.958191216
vt 0.384404153 0.323809505
vt 0.936507761 0.474603117
vt 0.870751381 0.474603117
vt 0.898831367 0.337967396
vt 0.728004515 0.0927301049
vt 0.678562939 0.229136288
vt 0.9155761 0.575376809
vt 0.87850219 0.590445399
vt 0.877489209 0.587321162
vt 0.996542335 0.798395574
vt 0.978414655 0.798412681
vt 0.926202595 0.675212145
vt 0.28617993 0.293105245
vt 0.742857158 0.0796878338
vt 0.728004515 0.0927301049
vt 0.676276624 0.0846911669
vt 0.600684643 0.89727056
vt 0.60462749 0.893130779
vt 0.595806897 0.900793016
vt 0.600684643 0.89727056
vt 0.656930745 0.952399731
vt 0.58091718 0.968253851
vt 0.0897936895 0.0597195625
vt 0.0904761925 0.0708105564
vt 0.0846640244 0.0437639952
vt 0.0846640319 0.0984126925
vt 0.356191814 0.30866313
vt 0.343794107 0.271610439
vt 0.403174579 0.322696805
vt 0.742857218 0.231746018
vt 0.728004515 0.0927301049
vt 0.742857158 0.0796878338
vt 0.263492048 0.542857111
vt 0.218106955 0.534344018
vt 0.263492048 0.432506204
vt 0.372519046 0.955438972
vt 0.442857176 0.901755571
vt 0.442857176 0.977777719
vt 0.336386561 0.917380393
vt 0.341312379 0.945554852
vt 0.758156955 0.641111076
vt 0.758730114 0.761595249
vt 0.250710458 0.397441864
vt 0.237892568 0.386044502
vt 0.191527426 0.385614157
vt 0.870580077 0.566026986
vt 0.638089001 0.34940362
vt 0.0579795316 0.383333325
vt 0.330203652 0.941991866
vt 0.684333205 0.0687445402
vt 0.724626899 0.0533773303
vt 0.58110708 0.933688521
vt 0.585714221 0.942048252
vt 0.57111609 0.94603169
vt 0.0413913019 0.923104286
vt 0.0329302624 0.950398207
vt 0.00153339491 0.955555439
vt 0.943349242 0.132873952
vt 0.232259378 0.385614157
vt 0.838472784 0.458304226
vt 0.842913926 0.456164718
vt 0.851764381 0.508048356
vt 0.0666666701 0.0174275041
vt 0.0588458739 0.0222222209
vt 0.0517513007 0.0174275041
vt 0.795947611 0.280332804
vt 0.809523761 0.342857063
vt 0.756975949 0.339390278
vt 0.408895284 0.0112028718
vt 0.505663812 0.0180993676
vt 0.384886593 0.287016153
vt 0.251487821 0.658902943
vt 0.000155113346 0.143913925
vt 0.579197586 0.92989862
vt 0.540464222 0.86648643
vt 0.327853531 0.263644159
vt 0.395932138 0.010278523
vt 0.804138243 0.909045696
vt 0.805536211 0.918420732
vt 0.775507152 0.938757002
vt 0.78940767 0.25942564
vt 0.641752183 0.235383391
vt 0.7886585 0.25767225
vt 0.640742242 0.220961869
vt 0.900876343 0.296532273
vt 0.290935278 0.84729594
vt 0.289027601 0.84513855
vt 0.240192667 0.851755559
vt 0.712084174 0.79268086
vt 0.807204604 0.736160517
vt 0.823809445 0.825396836
vt 0.798858404 0.851575494
vt 0.809523761 0.939682424
vt 0.638069093 0.267231226
vt 0.585175872 0.326036215
vt 0.638082147 0.223055243
vt 0.842318237 0.478946567
vt 0.965079308 0.478946567
vt 0.872944415 0.615314722
vt 0.30835554 0.401655793
vt 0.902077913 0.615839958
vt 0.17567873 0.831745923
vt 0.70700568 0.968253851
vt 0.000586749928 0.380755186
vt 0.0866247788 0.109870493
vt 0.0579795316 0.383333325
vt 0.288344234 0.356454134
vt 0.188766599 0.961232126
vt 0.0190476347 0.00634920597
vt 0.0188205745 0.00611644983
vt 0.0190476347 0.00487160683
vt 0.0603174791 0.94695282
vt 0.9414891 0.924066961
vt 0.922960103 0.969845831
vt 0.902406871 0.971428514
vt 0.243473813 0.596031725
vt 0.288419813 0.484112382
vt 0.568253934 0.547069013
vt 0.740666211 0.0472181439
vt 0.6380952 0.368980706
vt 0.256000102 0.000305354595
vt 0.777079582 0.487881064
vt 0.971428514 0.967922032
vt 0.341269851 0.904135823
vt 0.356726229 0.704761803
vt 0.579365015 0.779779673
vt 0.804138243 0.909045696
vt 0.79295814 0.861095667
vt 0.934658945 0.798412681
vt 0.579197586 0.92989862
vt 0.792191148 0.350149155
vt 0.837666869 0.335267901
vt 0.793429315 0.422624886
vt 0.971428573 0.000356435776
vt 0.060385 0.711111009
vt 0.885935426 0.771079004
vt 0.3189767 0.335071921
vt 0.801928401 0.848741412
vt 0.805117965 0.876037896
vn -0.312491387 -0.196929023 0.929283679
vn -0.517664671 -0.161607996 0.840182185
vn -0.469538838 -0.0774689615 0.879506588
vn 0.845065475 0.213107824 0.490356416
vn 0.83000809 0.120396413 0.544602096
vn 0.817379534 0.241318181 0.523121595
vn 0.781673729 0.623554766 -0.0128743146
vn 0.856720865 0.515714467 -0.00824386068
vn 0.785255671 0.60914588 -0.110971831
vn 0.821133375 0.569192648 -0.04194846
vn -0.842138052 -0.537145317 -0.0477327034
vn -0.827536464 -0.530906737 0.182541043
vn -0.812443197 -0.580010474 0.059361279
vn 0.617956877 -0.115788534 -0.777639031
vn 0.524782002 0.155146763 -0.836978793
vn 0.71263504 0.169373959 -0.680781782
vn 0.00636363775 0.086246267 0.99625355
vn -0.361609787 0.312421262 0.878425419
vn -0.3445777 0.105480582 0.932812929
vn 0.51756835 0.757564127 -0.39776817
vn 0.0576426722 0.986236632 -0.154966608
vn 0.624569595 0.780082047 -0.0372128226
vn 0.923463464 -0.0876948014 -0.373530269
vn 0.946173429 -0.112297252 -0.303554267
vn 0.937088311 -0.0489312708 -0.345646203
vn -0.253968865 0.391144514 0.884593666
vn 0.193917602 -0.814249635 0.547168732
vn 0.156795084 -0.934069276 0.320827067
vn 0.0029954575 -0.927224755 0.374493361
vn -0.871743917 -0.0568147264 0.486656636
vn -0.866925061 -0.218692839 0.447900027
vn -0.805032432 -0.0993535519 0.584851801
vn -0.392861813 -0.360133737 0.846146226
vn 0.881894469 0.1508535 0.446660221
vn 0.778089225 0.219122872 0.588695467
vn 0.84272927 0.529603958 -0.0965771526
vn 0.82041198 0.568571568 -0.0604196824
vn -0.773131847 -0.633889437 -0.0212421604
vn -0.895077586 -0.435270965 0.0968259797
vn 0.803731859 -0.119450822 -0.582877934
vn 0.536592305 -0.346193463 -0.769557416
vn -0.177417159 0.346692353 0.921046972
vn -0.569165051 0.679561496 -0.462868571
vn -0.585458517 0.638052106 -0.500127912
vn -0.533845603 0.728710234 -0.428940773
vn -0.881327331 0.348781675 -0.318768501
vn -0.430651397 0.7921229 -0.432528377
vn -0.593624234 0.725600064 -0.348015547
vn 0.957121849 -0.123963743 -0.261821777
vn -0.356549859 0.499601424 0.789474905
vn 0.51756835 0.757564127 -0.39776817
vn 0.624569595 0.780082047 -0.0372128226
vn -0.0404691547 -0.93667841 0.347844362
vn 0.0720343292 -0.964722872 0.253220886
vn 0.0671549141 -0.941947758 0.328975141
vn 0.0482186414 -0.966311097 0.252819598
vn 0.29549861 0.717932522 0.630280554
vn 0.318327427 0.695310652 0.644368529
vn 0.408051789 0.746103346 0.526140153
vn -0.624724984 -0.26266548 0.735340416
vn -0.676018238 -0.312984586 0.667113125
vn -0.571031153 -0.32139647 0.755399048
vn -0.754025638 0.584279418 -0.300105125
vn -0.804186583 0.557351828 -0.206501663
vn -0.733932853 0.643633664 -0.216975778
vn 0.705056548 -0.65534997 0.270945936
vn 0.762532175 -0.617565095 0.192764819
vn 0.794973016 -0.54734087 0.261602461
vn 0.185214669 -0.167075381 0.96839118
vn 0.128166795 -0.282953203 0.95053184
vn 0.13267757 -0.18412149 0.97390759
vn -0.456963301 -0.884935021 -0.0898583159
vn -0.443145454 -0.892760277 -0.0812479109
vn -0.556882203 -0.821223557 -0.124395229
vn -0.387124926 -0.912303925 -0.133550629
vn 0.0583082587 -0.877133667 0.476693422
vn 0.110069923 -0.900102675 0.421544731
vn 0.110245071 -0.898936093 0.4239811
vn -0.796012044 0.266045779 0.543676913
vn -0.669626057 0.521544695 0.528764606
vn -0.806312025 0.45341748 0.3798334
vn 0.348632574 0.737512589 0.578385949
vn 0.308219373 0.79694438 0.519500256
vn 0.730091631 -0.642683387 0.232215434
vn 0.743923306 -0.611121118 0.270386606
vn 0.735903502 -0.655254662 0.17055054
vn 0.0492965356 -0.198861524 0.978786945
vn -0.0996342748 0.930877805 -0.351481736
vn -0.115813389 0.88030237 -0.460059762
vn -0.19391951 0.86125356 -0.469720602
vn -0.6677531 -0.740926027 -0.0716545582
vn -0.407978952 -0.899854064 -0.154323921
vn 0.15444921 -0.88604337 0.437118351
vn 0.155646831 -0.874284685 0.459782839
vn -0.74998641 0.449860871 0.484918296
vn -0.78703922 0.331992567 0.519952059
vn -0.796012044 0.266045779 0.543676913
vn -0.78703922 0.331992567 0.519952059
vn -0.734536767 0.399214119 0.548711002
vn -0.776335776 0.316791505 0.544927478
vn -0.751939952 0.441984296 0.489117891
vn -0.806312025 0.45341748 0.3798334
vn -0.842857122 0.427435666 0.326941282
vn -0.796012044 0.266045779 0.543676913
vn 0.705342352 0.427068025 -0.565778315
vn 0.614324987 0.412007868 -0.672944486
vn 0.641358197 0.441194504 -0.627699912
vn 0.698425591 0.443518698 -0.561687469
vn 0.645579457 0.421900958 -0.636574149
vn -0.851606607 0.450959027 0.267211795
vn -0.708590508 0.393631935 0.585622072
vn -0.599362373 0.682623744 0.418078512
vn -0.928314269 -0.0856167376 -0.361804307
vn -0.917348802 -0.358886838 0.172253802
vn -0.812623382 -0.328454375 -0.48141557
vn 0.745504022 -0.426063299 0.512536645
vn 0.769103885 -0.438882768 0.464608699
vn 0.664445877 -0.590595067 0.457940042
vn -0.303232253 -0.937938273 0.168291464
vn -0.0450812951 -0.950434148 0.307640314
vn -0.136207372 -0.97114712 0.19575724
vn 0.943795621 0.191114977 -0.269675434
vn 0.920411468 0.367918909 -0.132206187
vn 0.908976138 0.355990738 -0.216870785
vn -0.153075024 0.966841936 0.20441322
vn -0.0249097273 0.975759029 0.217425197
vn -0.164609462 0.95470649 0.247869551
vn -0.162999809 0.853760242 0.49449411
vn 0.554583967 0.751809299 -0.356678307
vn 0.290637881 0.865775168 -0.407385409
vn 0.560321033 0.74256587 -0.36692819
vn -0.788140535 0.562524676 0.24980095
vn -0.650644779 0.617475688 0.442023784
vn -0.851606607 0.450959027 0.267211795
vn -0.599362373 0.682623744 0.418078512
vn -0.822047472 0.543643534 0.169380173
vn 0.797501445 0.124956138 -0.590235114
vn 0.843266308 0.298668355 -0.446877062
vn 0.929776371 0.190036967 -0.315280646
vn 0.801128149 0.272027105 -0.533099592
vn 0.161323592 0.579666257 -0.798725128
vn 0.857732475 0.238129377 -0.455619901
vn 0.797076225 -0.405525476 0.44745779
vn 0.85231185 -0.310560077 0.42085278
vn 0.733561397 -0.449605644 0.509649336
vn 0.852530003 -0.310590446 0.420388103
vn 0.674284101 -0.722669959 0.151950464
vn 0.738773704 -0.653960168 0.162940443
vn -0.129956305 -0.977710903 0.164902627
vn -0.228710264 0.955716789 0.185194433
vn -0.146755129 -0.595030129 -0.790191114
vn -0.111310735 -0.500591695 -0.858497441
vn -0.0441422015 -0.647511363 -0.760776222
vn -0.271283865 -0.641240716 -0.71778512
vn 0.225024819 -0.236690819 0.945167363
vn 0.3128286 -0.0773279965 0.946656525
vn 0.357474595 -0.42095232 0.833673298
vn -0.370313644 -0.734606922 0.568524778
vn -0.573965728 -0.722156227 0.386074841
vn -0.618379533 -0.666059971 0.417097837
vn 0.357474595 -0.42095232 0.833673298
vn 0.115121111 -0.485016674 0.866894484
vn -0.141412377 -0.973183215 -0.181430116
vn -0.0724601597 -0.993094146 -0.092268385
vn -0.153492317 -0.984361649 -0.0864411965
vn 0.436341941 0.806548595 0.398854554
vn 0.273193836 0.832949996 0.481206238
vn 0.376655608 0.706471205 0.599190235
vn 0.410552323 0.721281648 0.557852626
vn 0.26836139 0.954120517 0.132802397
vn 0.23811987 0.91268152 0.332131863
vn 0.241149306 0.945426106 0.219127044
vn -0.0882237554 -0.568508327 -0.817933321
vn -0.0677662492 -0.633034229 -0.77115202
vn -0.886546731 0.406558484 0.2207831
vn -0.888779104 0.457910717 0.0197350532
vn -0.899131417 0.422789574 0.113189094
vn -0.843821585 0.526828885 0.102061167
vn -0.806892812 0.56245178 0.180476844
vn -0.94250083 0.327155232 0.0682766214
vn 0.398820788 -0.0596027598 0.915089965
vn -0.53129226 -0.712477446 0.45837155
vn -0.626750171 -0.635085583 0.451498121
vn 0.803563833 -0.551653743 0.22352457
vn 0.788217366 -0.574865639 0.219642907
vn 0.8508389 -0.499847203 0.16194424
vn 0.843092918 -0.495276302 0.209513336
vn 0.831507266 -0.49368614 0.254695058
vn 0.861089885 -0.464388639 0.207044348
vn 0.783080518 -0.555179954 0.280285954
vn 0.390772939 0.775841296 0.495345026
vn 0.483313233 0.719947159 0.49808082
vn 0.26830399 0.954179347 0.132494718
vn -0.248271689 0.839524388 -0.483280331
vn 0.353883684 0.928987622 0.108390287
vn 0.537282228 -0.774568498 0.333723485
vn 0.344102532 -0.785198271 0.514837086
vn 0.39828968 -0.824637294 0.401669919
vn 0.457718194 -0.21914196 0.861667514
vn 0.633953869 -0.322727442 0.702815413
vn 0.566790104 -0.29447031 0.769438922
vn 0.806983054 0.077121906 -0.585517287
vn 0.883488238 -0.00684227049 -0.468403339
vn 0.784601212 0.0906495452 -0.613337994
vn 0.84076941 0.153145239 -0.519281566
vn -0.972463548 -0.217492908 0.0837342218
vn -0.942463815 -0.293643296 0.159798414
vn -0.933338523 -0.326829016 0.14853321
vn -0.936137974 -0.341260314 0.0847768337
vn 0.145398602 0.601179898 0.785774827
vn 0.183862373 0.583079517 0.791336179
vn 0.257783085 0.6907866 0.675545573
vn -0.228969827 -0.289056093 0.929526329
vn -0.225006402 -0.477333307 0.84942621
vn -0.245984212 -0.401989937 0.881983995
vn 0.270308912 -0.841323018 0.468090355
vn 0.322480589 -0.861423194 0.392372727
vn 0.446972519 -0.777381539 0.442598701
vn 0.556537986 -0.345879138 0.755402625
vn -0.129140288 -0.971134126 -0.200552553
vn -0.0259311441 -0.990518987 -0.13490583
vn -0.122678429 -0.943432808 -0.308033407
vn -0.168562159 -0.176519439 0.969756484
vn -0.225200683 -0.419038326 0.879597247
vn -0.933338523 -0.326829016 0.14853321
vn -0.936137974 -0.341260314 0.0847768337
vn -0.889297128 -0.438854188 0.128675878
vn -0.796144962 -0.585594833 0.152420461
vn -0.779366791 -0.544210553 0.310519725
vn -0.297200352 0.911269605 0.285060734
vn -0.40563333 0.913931966 -0.0137777552
vn -0.173235953 0.939811885 0.294521362
vn -0.299638659 0.890329182 0.342827559
vn -0.340467989 0.863602281 0.371850371
vn -0.658799469 0.361877352 0.659566462
vn -0.731714487 0.342041105 0.589577615
vn -0.708552837 0.34602043 0.614998162
vn -0.00256883726 -0.476381183 0.879235208
vn 0.1235504 -0.41742 0.900275528
vn -0.00944845937 -0.40739432 0.913203597
vn -0.105859704 0.590011597 0.800424933
vn -0.164444014 0.467182398 0.868734002
vn 0.146659195 0.160709396 0.976044834
vn -0.897414804 -0.34920758 -0.269630998
vn -0.853132308 -0.472286671 -0.221609071
vn -0.915122807 -0.375538498 -0.146701172
vn -0.86282295 -0.431318223 -0.263630629
vn -0.187397763 -0.0645788237 0.980158985
vn -0.202275604 0.102752604 0.973923206
vn -0.0365155712 -0.13745676 0.989834428
vn 0.667119026 0.726301551 0.16564545
vn 0.624001682 0.754032373 0.205078393
vn 0.570839405 0.811668396 0.123841964
vn 0.495709121 0.838801205 0.225133523
vn -0.478044182 -0.871411264 -0.110073872
vn -0.131834596 -0.981651664 0.137766764
vn -0.142237529 -0.988019407 0.0598844141
vn -0.295098573 0.799293399 0.52349484
vn -0.153366551 0.962099671 0.225483671
vn -0.123851031 0.90673846 0.403095871
vn -0.781058848 0.285763592 0.555235147
vn -0.187397763 -0.0645788237 0.980158985
vn -0.139779985 0.441896766 0.886108875
vn -0.083651185 0.262402922 0.961325765
vn -0.593374968 -0.802605152 -0.0610821918
vn -0.605820179 -0.791024446 -0.0852187425
vn -0.508144736 -0.857561946 -0.0798527822
vn -0.849115908 -0.487076133 -0.204350457
vn -0.852882087 -0.467092782 -0.233273581
vn -0.183036938 -0.982268691 -0.0405656844
vn -0.123071685 -0.981657624 0.145608336
vn -0.487421244 0.612792075 -0.62201798
vn -0.483096063 0.653297365 -0.582941413
vn -0.56065315 0.444079161 -0.698900402
vn -0.600570738 0.568123996 -0.562627673
vn -0.488782942 0.549422443 -0.677662313
vn 0.954122663 -0.171910375 0.245146528
vn 0.95438391 -0.1078749 0.27841416
vn 0.96485436 -0.124764316 0.231278896
vn 0.976703048 -0.0365884863 0.21145311
vn 0.9743734 -0.0225917809 0.223799407
vn 0.960005939 -0.121522769 0.252231389
vn 0.159532696 0.982053995 -0.100593954
vn -0.0093175238 0.99445796 -0.104721062
vn 0.223022789 0.973597169 -0.0486757383
vn 0.0417241566 0.993202806 -0.108660981
vn -0.192639977 0.906530797 0.375621706
vn -0.815544307 0.513308048 0.267212033
vn -0.677209973 0.445458651 0.585622072
vn -0.546701252 0.725484848 0.418078303
vn -0.932116091 -0.016040504 -0.361804098
vn -0.941591978 -0.289366901 0.172253788
vn -0.834886134 -0.266841084 -0.481415689
vn 0.711597919 -0.480557323 0.512535989
vn 0.734173894 -0.49510479 0.464607298
vn 0.618477106 -0.638574719 0.457939416
vn -0.372442424 -0.912668884 0.16829136
vn -0.115946397 -0.944411933 0.307640225
vn -0.208364323 -0.958260596 0.195757121
vn 0.955447733 0.120049156 -0.269643933
vn 0.945322156 0.298138559 -0.132209688
vn 0.933025837 0.287105322 -0.216871753
vn -0.0804310143 0.975574791 0.20441319
vn 0.0480420217 0.974893928 0.217425138
vn -0.092839621 0.964334726 0.247869521
vn -0.098774761 0.863550305 0.494493991
vn 0.609189689 0.708285093 -0.35667932
vn 0.35449183 0.84164834 -0.407386273
vn 0.614219487 0.698640585 -0.366927445
vn -0.743922949 0.619821727 0.249799341
vn -0.602706373 0.664349437 0.442023724
vn -0.815544307 0.513308048 0.267212033
vn -0.546701252 0.725484848 0.418078303
vn -0.779144764 0.603525996 0.169380888
vn 0.804606855 0.0650409013 -0.590234935
vn 0.863218725 0.234846622 -0.446878523
vn 0.941373289 0.12006022 -0.315280557
vn 0.819208145 0.211429834 -0.533099651
vn 0.204168573 0.56599772 -0.798725009
vn 0.873122513 0.173398972 -0.455620289
vn 0.764560103 -0.463928312 0.447457582
vn 0.826734543 -0.37335366 0.420852602
vn 0.687864125 -0.707313955 0.162941635
vn 0.618422508 -0.771015167 0.151951373
vn 0.826949477 -0.373400122 0.420389116
vn 0.69792968 -0.503140867 0.50965029
vn -0.202620864 -0.965273082 0.164902419
vn -0.156686693 0.970130026 0.185194045
vn 0.798702121 -0.358323246 0.483403921
vn 0.773222685 -0.399397314 0.492552906
vn 0.822067857 -0.44612655 0.353801608
vn -0.245562106 0.404621273 0.88089782
vn -0.3061046 0.46493113 0.830746055
vn -0.297451794 0.341917455 0.891411781
vn 0.719749093 0.64420414 -0.258770913
vn 0.681459904 0.6965096 -0.224692494
vn 0.864827812 0.373078853 -0.335983455
vn 0.690905988 0.704322159 -0.163031369
vn -0.565726399 -0.813076913 0.137329504
vn -0.530592561 -0.846423626 0.0451505519
vn -0.451793909 -0.886603296 0.0990802944
vn -0.5111323 -0.421263307 0.749186933
vn -0.380482256 -0.450937003 0.807396591
vn -0.613681018 -0.231923014 0.754723251
vn -0.781958282 0.623274982 0.0083428314
vn -0.874551833 0.469765186 0.120331496
vn -0.738010168 0.671965003 0.0616755858
vn -0.922733426 0.382327706 0.0488740355
vn -0.826777935 -0.178513959 0.533451974
vn 0.200351208 0.720068991 0.664349318
vn 0.495531142 0.688627422 0.529378176
vn 0.522391915 0.659863949 0.540079951
vn 0.817825854 -0.390140563 0.423026264
vn 0.855673909 -0.351813644 0.379538149
vn -0.595108867 0.776605904 -0.206709459
vn -0.198934674 0.903110802 -0.380546659
vn -0.384380519 0.828421235 -0.407394022
vn -0.555351377 -0.826523662 0.0918870643
vn -0.527925253 -0.83987695 0.126102239
vn -0.57228142 -0.819405258 0.0326978639
vn -0.224166915 -0.462064683 0.858047426
vn 0.864827812 0.373078853 -0.335983455
vn 0.821220815 0.3110829 -0.478355318
vn 0.794838309 0.386865914 -0.467511296
vn -0.745504677 0.627783477 0.223854303
vn -0.941457927 0.336929798 0.0116279423
vn -0.826777935 -0.178513959 0.533451974
vn -0.816647112 -0.258349597 0.516084373
vn -0.823962748 -0.215669245 0.523996532
vn -0.5111323 -0.421263307 0.749186933
vn 0.427722692 0.658360422 0.619366407
vn 0.310881346 0.673728704 0.670404613
vn 0.340167671 0.641097724 0.687953293
vn 0.350271493 0.6356709 0.687918842
vn -0.20058991 0.533810377 0.821468294
vn -0.212095216 0.616120458 0.758558631
vn -0.187977314 0.50910145 0.839928746
vn 0.495531142 0.688627422 0.529378176
vn 0.43225953 0.689824343 0.580770254
vn 0.522391915 0.659863949 0.540079951
vn 0.522391915 0.659863949 0.540079951
vn 0.53619343 0.233629838 0.811118841
vn 0.200351208 0.720068991 0.664349318
vn 0.430245072 -0.422920465 -0.797513306
vn 0.398607552 -0.393631905 -0.828351259
vn 0.447813123 -0.496455967 -0.743636191
vn 0.431110114 -0.505114973 -0.747664988
vn 0.410691112 -0.428724289 -0.804691434
vn -0.925291777 0.335170478 0.177470967
vn -0.875086665 0.460530341 0.148779303
vn 0.231809497 -0.79702872 0.557682395
vn 0.264064074 -0.883328557 0.38729924
vn 0.00790126994 -0.989967763 -0.141072676
vn -0.560603857 0.762410343 -0.323193431
vn -0.599415839 0.431811899 -0.673972547
vn 0.845674813 -0.147589937 -0.512885451
vn 0.353781343 -0.524791837 -0.774230182
vn 0.864818513 0.335413694 -0.37361303
vn 0.796371996 0.369678497 -0.478674531
vn 0.0245017726 -0.998941541 -0.0389302671
vn -0.0480804965 -0.913348019 -0.404331207
vn -0.115946397 -0.944411933 0.307640225
vn -0.834886134 -0.266841084 -0.481415689
vn -0.658733368 -0.245655611 -0.71114254
vn -0.625454307 -0.353157312 -0.695763409
vn 0.66187942 -0.158598706 -0.732640624
vn -0.0178108495 -0.999025285 -0.040389169
vn -0.188534066 0.86655134 -0.462107956
vn -0.103504524 0.912117481 -0.396646678
vn -0.660134792 0.747721434 -0.0716566145
vn 0.780816078 -0.549283803 -0.297679991
vn 0.739780903 -0.622852445 -0.254517406
vn 0.692026913 -0.628947973 -0.354292274
vn 0.372790128 -0.896211743 -0.240482822
vn 0.310848325 -0.911019742 -0.270954549
vn 0.346057415 -0.880664229 -0.323534846
vn -0.103553422 0.957982719 0.267480254
vn -0.299638659 0.890329182 0.342827559
vn -0.173235953 0.939811885 0.294521362
vn 0.724007785 0.347806692 -0.595687151
vn -0.160481781 -0.586121202 -0.794171035
vn -0.100176923 -0.986640513 0.128472209
vn -0.422874361 -0.901111901 0.0957832783
vn -0.0293925889 0.965248227 0.259676397
vn -0.0774277374 0.939868152 0.332645088
vn -0.0262012072 -0.991366923 0.128472477
vn 0.0990491882 -0.99432075 -0.0389305949
vn -0.0450812951 -0.950434148 0.307640314
vn -0.183036938 -0.982268691 -0.0405656844
vn -0.478044182 -0.871411264 -0.110073872
vn -0.508144736 -0.857561946 -0.0798527822
vn -0.593374968 -0.802605152 -0.0610821918
vn 0.881061196 0.178786799 -0.437911749
vn 0.521268845 0.780038834 -0.346148044
vn 0.480889589 0.800315022 -0.358107626
vn 0.476352304 0.791441143 -0.383026987
vn -0.748977065 -0.515024662 -0.416872829
vn -0.788325012 -0.423701227 -0.44611758
vn -0.755239427 -0.455165416 -0.471633196
vn 0.539324343 0.762160182 -0.358107686
vn 0.0202757567 -0.914387763 -0.404331475
vn 0.150060996 0.98867619 -0.00101938099
vn 0.225833684 0.973588586 -0.0335329175
vn 0.0739397854 0.987993062 -0.135656416
vn -0.781958282 0.623274982 0.0083428314
vn -0.738010168 0.671965003 0.0616755858
vn -0.538894892 0.662006974 -0.520902038
vn -0.809269965 -0.586581111 -0.0316958725
vn -0.512606263 0.784412801 -0.349186599
vn 0.909556329 -0.166205019 0.38089785
vn -0.923300922 0.369531721 0.104698539
vn 0.937273204 0.112484843 0.329948813
vn 0.859409571 0.435983241 0.267083883
vn 0.927856863 0.160103187 0.336821616
vn 0.932031333 0.154346794 0.327863961
vn 0.865246296 0.244094074 -0.437911898
vn -0.88950032 0.0278133079 -0.45608741
vn -0.298494548 -0.5572083 -0.774867773
vn -0.159969985 -0.500305295 -0.850943208
vn -0.919258296 -0.389205784 0.0590163022
vn -0.812623382 -0.328454375 -0.48141557
vn -0.638545156 -0.294171423 -0.711142242
vn -0.597329676 -0.398887038 -0.695763171
vn -0.911789477 0.384329289 0.144675657
vn -0.864735723 0.435138613 0.25077191
vn -0.895528793 0.419802874 0.147627383
vn 0.719749093 0.64420414 -0.258770913
vn -0.507827163 0.565335751 -0.650005519
vn -0.101491593 0.938202381 0.330871373
vn -0.153336421 0.920876741 -0.358432442
vn -0.887620091 -0.456779778 0.059016481
vn -0.751199305 0.554564476 0.357991427
vn 0.699505687 -0.672861874 0.240725368
vn 0.106882289 -0.954031348 0.280000478
vn -0.0262012072 -0.991366923 0.128472477
vn -0.354386508 -0.93018055 0.095783636
vn -0.591559827 -0.800304055 0.0978278071
vn -0.100176923 -0.986640513 0.128472209
vn -0.938216031 -0.289140671 -0.190127417
vn -0.773131847 -0.633889437 -0.0212421604
vn -0.842138052 -0.537145317 -0.0477327034
vn -0.458267689 -0.886178672 -0.068397209
vn 0.79261148 -0.548721135 0.265842497
vn -0.707677901 0.609123945 0.357994407
vn -0.609449744 -0.783166051 -0.123377569
vn 0.578076422 0.738924026 -0.346148938
vn 0.534136713 0.753649533 -0.383027881
f 1/1/1 2/2/2 3/3/3
f 4/4/4 5/5/5 6/6/6
f 7/7/7 8/8/8 9/9/9
f 8/8/8 7/7/7 10/10/10
f 11/11/11 12/12/12 13/13/13
f 14/14/14 15/15/15 16/16/16
f 17/17/17 18/18/18 19/19/19
f 20/20/20 21/21/21 22/22/22
f 23/23/23 24/24/24 25/25/25
f 18/18/18 26/26/26 19/19/19
f 27/27/27 28/28/28 29/29/29
f 30/30/30 31/31/31 32/32/32
f 1/1/1 33/33/33 2/2/2
f 34/34/34 5/5/5 4/4/4
f 5/5/5 35/35/35 6/6/6
f 8/8/8 36/36/36 37/37/37
f 37/37/37 9/9/9 8/8/8
f 38/38/38 12/12/12 11/11/11
f 12/12/12 38/38/38 39/39/39
f 40/40/40 16/16/16 41/41/41
f 16/16/16 40/40/40 14/14/14
f 17/17/17 42/42/42 18/18/18
f 43/43/43 44/44/44 45/45/45
f 44/44/44 46/46/46 47/47/47
f 45/45/45 44/44/44 48/48/48
f 23/23/23 49/49/49 24/24/24
f 50/50/50 51/51/51 52/52/52
f 28/28/28 53/53/53 54/54/54
f 55/55/55 29/29/29 28/28/28
f 29/29/29 56/56/56 27/27/27
f 57/57/57 58/58/58 59/59/59
f 60/60/60 61/61/61 62/62/62
f 63/63/63 64/64/64 65/65/65
f 66/66/66 67/67/67 68/68/68
f 69/69/69 70/70/70 71/71/71
f 72/72/72 73/73/73 74/74/74
f 73/73/73 72/72/72 75/75/75
f 76/76/76 77/77/77 78/78/78
f 79/79/79 80/80/80 81/81/81
f 82/82/82 58/58/58 57/57/57
f 58/58/58 83/83/83 59/59/59
f 67/67/67 84/84/84 85/85/85
f 68/68/68 86/86/86 66/66/66
f 69/69/69 87/87/87 70/70/70
f 88/88/88 89/89/89 90/90/90
f 73/73/73 91/91/91 74/74/74
f 91/91/91 92/92/92 74/74/74
f 78/78/78 93/93/93 94/94/94
f 94/94/94 76/76/76 78/78/78
f 95/95/95 96/96/96 97/97/97
f 98/98/98 99/99/99 79/79/79
f 99/99/99 80/80/80 79/79/79
f 80/80/80 100/100/100 81/81/81
f 101/101/101 102/102/102 103/103/103
f 104/104/104 102/102/102 101/101/101
f 105/105/105 106/106/106 107/107/107
f 106/106/106 108/108/108 107/107/107
f 105/105/105 107/107/107 109/109/109
f 110/110/110 111/111/111 112/112/112
f 113/113/113 114/114/114 115/115/115
f 116/116/116 117/117/117 118/118/118
f 119/119/119 120/120/120 121/121/121
f 122/122/122 123/123/123 124/124/124
f 125/125/125 126/126/126 127/127/127
f 126/126/126 125/125/125 128/128/128
f 129/129/129 130/130/130 131/131/131
f 132/132/132 112/112/112 111/111/111
f 133/133/133 134/134/134 135/135/135
f 134/134/134 133/133/133 136/136/136
f 122/122/122 137/137/137 138/138/138
f 137/137/137 122/122/122 139/139/139
f 140/140/140 141/141/141 142/142/142
f 143/143/143 144/144/144 116/116/116
f 145/145/145 146/146/146 147/147/147
f 146/146/146 148/148/148 147/147/147
f 143/143/143 116/116/116 118/118/118
f 120/120/120 149/149/149 121/121/121
f 122/122/122 138/138/138 123/123/123
f 128/128/128 150/150/150 126/126/126
f 151/151/151 152/152/152 153/153/153
f 152/152/152 151/151/151 154/154/154
f 155/155/155 156/156/156 157/157/157
f 158/158/158 159/159/159 160/160/160
f 155/155/155 161/161/161 162/162/162
f 163/163/163 164/164/164 165/165/165
f 166/166/166 167/167/167 168/168/168
f 167/167/167 166/166/166 169/169/169
f 170/170/170 171/171/171 172/172/172
f 154/154/154 173/173/173 174/174/174
f 173/173/173 154/154/154 151/151/151
f 175/175/175 176/176/176 177/177/177
f 177/177/177 178/178/178 175/175/175
f 178/178/178 179/179/179 180/180/180
f 155/155/155 181/181/181 156/156/156
f 182/182/182 159/159/159 158/158/158
f 159/159/159 183/183/183 160/160/160
f 184/184/184 185/185/185 186/186/186
f 185/185/185 187/187/187 186/186/186
f 186/186/186 188/188/188 184/184/184
f 189/189/189 188/188/188 190/190/190
f 184/184/184 188/188/188 189/189/189
f 167/167/167 191/191/191 168/168/168
f 168/168/168 192/192/192 166/166/166
f 193/193/193 194/194/194 195/195/195
f 196/196/196 197/197/197 198/198/198
f 199/199/199 200/200/200 201/201/201
f 202/202/202 203/203/203 204/204/204
f 204/204/204 205/205/205 202/202/202
f 206/206/206 207/207/207 208/208/208
f 208/208/208 207/207/207 209/209/209
f 210/210/210 211/211/211 212/212/212
f 213/213/213 214/214/214 215/215/215
f 197/197/197 216/216/216 198/198/198
f 217/217/217 196/196/196 198/198/198
f 196/196/196 217/217/217 218/218/218
f 199/199/199 219/219/219 200/200/200
f 220/220/220 221/221/221 222/222/222
f 215/215/215 223/223/223 213/213/213
f 213/213/213 224/224/224 214/214/214
f 225/225/225 226/226/226 227/227/227
f 228/228/228 229/229/229 225/225/225
f 230/230/230 231/231/231 232/232/232
f 230/230/230 233/233/233 234/234/234
f 233/233/233 230/230/230 232/232/232
f 235/235/235 236/236/236 237/237/237
f 238/238/238 239/239/239 240/240/240
f 241/241/241 242/242/242 243/243/243
f 244/244/244 245/245/245 246/246/246
f 245/245/245 244/244/244 247/247/247
f 248/248/248 249/249/249 250/250/250
f 251/251/251 252/252/252 253/253/253
f 253/253/253 254/254/254 251/251/251
f 255/255/255 256/256/256 257/257/257
f 258/258/258 259/259/259 260/260/260
f 235/235/235 261/261/261 236/236/236
f 250/250/250 243/243/243 262/262/262
f 243/243/243 263/263/263 241/241/241
f 262/262/262 243/243/243 242/242/242
f 263/263/263 264/264/264 241/241/241
f 265/265/265 266/266/266 267/267/267
f 247/247/247 268/268/268 245/245/245
f 268/268/268 247/247/247 269/269/269
f 256/256/256 270/270/270 271/271/271
f 270/270/270 256/256/256 255/255/255
f 272/272/272 273/273/273 274/274/274
f 275/275/275 276/276/276 272/272/272
f 277/277/277 278/278/278 279/279/279
f 278/278/278 280/280/280 279/279/279
f 281/281/281 277/277/277 279/279/279
f 279/279/279 282/282/282 281/281/281
f 283/283/283 284/284/284 285/285/285
f 284/284/284 283/283/283 286/286/286
f 258/258/258 287/287/287 259/259/259
f 288/288/288 289/289/289 290/290/290
f 291/291/291 292/292/292 293/293/293
f 294/294/294 295/295/295 296/296/296
f 297/297/297 298/298/298 299/299/299
f 300/300/300 301/301/301 302/302/302
f 303/303/303 304/304/304 305/305/305
f 304/304/304 303/303/303 306/306/306
f 307/307/307 308/308/308 309/309/309
f 310/310/310 290/290/290 289/289/289
f 311/311/311 312/312/312 313/313/313
f 312/312/312 311/311/311 314/314/314
f 300/300/300 315/315/315 316/316/316
f 315/315/315 300/300/300 317/317/317
f 318/318/318 319/319/319 320/320/320
f 321/321/321 322/322/322 294/294/294
f 323/323/323 324/324/324 325/325/325
f 326/326/326 325/325/325 324/324/324
f 321/321/321 294/294/294 296/296/296
f 298/298/298 327/327/327 299/299/299
f 300/300/300 316/316/316 301/301/301
f 306/306/306 328/328/328 304/304/304
f 329/329/329 330/330/330 331/331/331
f 332/332/332 333/333/333 334/334/334
f 335/335/335 336/336/336 337/337/337
f 336/336/336 335/335/335 338/338/338
f 339/339/339 340/340/340 341/341/341
f 342/342/342 343/343/343 344/344/344
f 345/345/345 346/346/346 347/347/347
f 346/346/346 345/345/345 348/348/348
f 342/342/342 344/344/344 349/349/349
f 350/350/350 351/351/351 352/352/352
f 353/353/353 330/330/330 329/329/329
f 330/330/330 354/354/354 331/331/331
f 355/355/355 356/356/356 357/357/357
f 340/340/340 358/358/358 359/359/359
f 341/341/341 360/360/360 339/339/339
f 342/342/342 361/361/361 343/343/343
f 362/362/362 363/363/363 364/364/364
f 346/346/346 365/365/365 347/347/347
f 365/365/365 366/366/366 347/347/347
f 367/367/367 368/368/368 369/369/369
f 369/369/369 370/370/370 367/367/367
f 371/371/371 372/372/372 373/373/373
f 372/372/372 374/374/374 373/373/373
f 375/375/375 376/376/376 377/377/377
f 378/378/378 379/379/379 380/380/380
f 381/381/381 382/382/382 383/383/383
f 384/384/384 385/385/385 386/386/386
f 385/385/385 384/384/384 387/387/387
f 387/387/387 384/384/384 388/388/388
f 175/175/175 178/178/178 389/389/389
f 175/175/175 389/389/389 390/390/390
f 391/391/391 218/218/218 392/392/392
f 196/196/196 218/218/218 391/391/391
f 180/180/180 389/389/389 178/178/178
f 222/222/222 393/393/393 220/220/220
f 357/357/357 394/394/394 355/355/355
f 272/272/272 395/395/395 275/275/275
f 395/395/395 272/272/272 274/274/274
f 202/202/202 396/396/396 203/203/203
f 388/388/388 397/397/397 387/387/387
f 362/362/362 364/364/364 398/398/398
f 362/362/362 398/398/398 399/399/399
f 400/400/400 401/401/401 402/402/402
f 291/291/291 403/403/403 404/404/404
f 291/291/291 404/404/404 405/405/405
f 41/41/41 406/406/406 40/40/40
f 393/393/393 407/407/407 220/220/220
f 408/408/408 409/409/409 88/88/88
f 394/394/394 410/410/410 355/355/355
f 411/411/411 412/412/412 413/413/413
f 414/414/414 415/415/415 416/416/416
f 417/417/417 418/418/418 419/419/419
f 109/109/109 420/420/420 105/105/105
f 173/173/173 421/421/421 174/174/174
f 297/297/297 422/422/422 298/298/298
f 422/422/422 297/297/297 423/423/423
f 424/424/424 417/417/417 419/419/419
f 417/417/417 424/424/424 425/425/425
f 426/426/426 427/427/427 428/428/428
f 429/429/429 430/430/430 431/431/431
f 432/432/432 431/431/431 430/430/430
f 315/315/315 433/433/433 316/316/316
f 434/434/434 129/129/129 435/435/435
f 129/129/129 434/434/434 436/436/436
f 437/437/437 438/438/438 439/439/439
f 309/309/309 440/440/440 307/307/307
f 427/427/427 441/441/441 428/428/428
f 285/285/285 442/442/442 443/443/443
f 442/442/442 285/285/285 444/444/444
f 410/410/410 445/445/445 446/446/446
f 410/410/410 446/446/446 355/355/355
f 44/44/44 447/447/447 48/48/48
f 447/447/447 44/44/44 47/47/47
f 225/225/225 227/227/227 228/228/228
f 228/228/228 227/227/227 448/448/448
f 447/447/447 449/449/449 48/48/48
f 281/281/281 450/450/450 277/277/277
f 348/348/348 451/451/451 346/346/346
f 452/452/452 453/453/453 454/454/454
f 454/454/454 453/453/453 455/455/455
f 137/137/137 456/456/456 138/138/138
f 457/457/457 458/458/458 459/459/459
f 460/460/460 404/404/404 403/403/403
f 461/461/461 462/462/462 113/113/113
f 113/113/113 462/462/462 463/463/463
f 464/464/464 465/465/465 466/466/466
f 399/399/399 467/467/467 362/362/362
f 395/395/395 468/468/468 275/275/275
f 469/469/469 425/425/425 424/424/424
f 88/88/88 90/90/90 470/470/470
f 88/88/88 470/470/470 408/408/408
f 471/471/471 462/462/462 461/461/461
f 136/136/136 472/472/472 134/134/134
f 67/67/67 473/473/473 68/68/68
f 473/473/473 67/67/67 85/85/85
f 28/28/28 474/474/474 55/55/55
f 474/474/474 28/28/28 54/54/54
f 119/119/119 475/475/475 120/120/120
f 475/475/475 119/119/119 476/476/476
f 340/340/340 477/477/477 341/341/341
f 477/477/477 340/340/340 359/359/359
f 478/478/478 400/400/400 402/402/402
f 479/479/479 480/480/480 481/481/481
f 75/75/75 482/482/482 73/73/73
f 189/189/189 483/483/483 184/184/184
f 314/314/314 484/484/484 312/312/312
f 284/284/284 444/444/444 285/285/285
f 448/448/448 485/485/485 228/228/228
f 131/131/131 435/435/435 129/129/129
f 486/486/486 307/307/307 440/440/440
f 307/307/307 486/486/486 487/487/487
