# Extracted from the Cocos Creator 3.8.3 playable build
# Geometry-only OBJ preview for Unity; rig and animation stay in the raw assets.
o GoldMine_big
v 4.11835146 -4.45667505 1.34568441
v 1.16504228 -6.18708467 4.79994678
v 1.36491108 -7.31326199 3.5309763
v 0.88300097 -3.05239153 4.48876619
v 1.16504228 -6.18708467 4.79994678
v 4.11835146 -4.45667505 1.34568441
v 4.11835146 -4.45667505 1.34568441
v 4.12361145 -4.66284752 1.1332227
v 4.08149767 -4.605165 1.13322282
v -0.81831336 -5.86330414 5.0067811
v -1.21468449 -6.23147202 1.13322234
v -0.159442097 -6.50091934 4.60786438
v -1.03018403 -6.389606 1.13322234
v 0.88300097 -3.05239153 4.48876619
v 0.237303764 -3.63316941 4.7485466
v -0.292025089 -4.7899971 5.52133989
v 1.16504228 -6.18708467 4.79994678
v -0.81831336 -5.86330414 5.0067811
v -0.159442097 -6.50091934 4.60786438
v 0.881320834 -6.76710939 4.60900593
v 3.73563623 -5.36157131 1.13322258
v 4.0978384 -4.70299339 1.1332227
v -0.292025089 -4.7899971 5.52133989
v 1.36491108 -7.31326199 3.5309763
v 1.16190839 -6.96372223 1.13322234
v 2.24826145 -6.24811125 1.13322258
v 0.881320834 -6.76710939 4.60900593
v -0.292025089 -4.7899971 5.52133989
v -0.159442097 -6.50091934 4.60786438
v -1.03018403 -6.389606 1.13322234
v -0.387049198 -6.691401 1.13322318
v 1.36491108 -7.31326199 3.5309763
v 0.881320834 -6.76710939 4.60900593
v -0.81831336 -5.86330414 5.0067811
v -0.292025089 -4.7899971 5.52133989
v 0.237303764 -3.63316941 4.7485466
v -1.64430261 -4.34437084 1.1332233
v -1.30541301 -3.69481206 1.13322282
v 4.80176163 0.752780199 2.58260489
v 4.76268959 0.682352424 2.64945555
v 4.89017248 0.732531309 2.5456481
v 3.81091905 0.319510281 2.65115881
v 3.94728136 1.10119379 1.50319862
v 3.22132683 -0.786551774 1.45432925
v 3.81091905 0.319510281 2.65115881
v 4.44068193 -0.199011117 3.07409048
v 4.4321804 0.353498608 2.87257099
v 4.76268959 0.682352424 2.64945555
v 4.44068193 -0.199011117 3.07409048
v 5.92344093 -0.291633159 1.49946892
v 5.05844688 0.728029072 2.36471224
v 4.44068193 -0.199011117 3.07409048
v 3.58331871 -0.265382886 2.60198736
v 3.22132683 -0.786551774 1.45432925
v 3.58331871 -0.265382886 2.60198736
v 3.58331871 -0.265382886 2.60198736
v 3.94728136 1.10119379 1.50319862
v 4.80176163 0.752780199 2.58260489
v 5.05844688 0.728029072 2.36471224
v 4.89017248 0.732531309 2.5456481
v 4.80176163 0.752780199 2.58260489
v 3.94728136 1.10119379 1.50319862
v 4.89017248 0.732531309 2.5456481
v 4.76268959 0.682352424 2.64945555
v 5.05844688 0.728029072 2.36471224
v 4.4321804 0.353498608 2.87257099
v 4.4321804 0.353498608 2.87257099
v 4.44068193 -0.199011117 3.07409048
v 5.05844688 0.728029072 2.36471224
v 3.22132683 -0.786551774 1.45432925
v 3.33022261 -0.381910741 1.13322258
v 4.12044334 -1.11548769 1.13322258
v 5.82007408 0.782519341 1.68727684
v 4.54570532 1.0735786 1.13322258
v 4.42122507 1.08975101 1.1332227
v 5.82007408 0.782519341 1.68727684
v 3.98773623 1.10066509 1.13322282
v 5.43094397 -1.05098069 1.29349685
v 5.92344093 -0.291633159 1.49946892
v 5.28534889 -1.19700766 1.38905263
v 4.44068193 -0.199011117 3.07409048
v 3.90036988 1.11392033 1.1332227
v 3.33022261 -0.381910741 1.13322258
v -4.44565773 -5.03489447 3.90271258
v -4.83499575 -2.5194993 2.26162839
v -5.48973989 -3.25271749 2.64808369
v -1.13766503 -4.71753311 1.98884487
v -4.39108181 -5.13030052 3.88985252
v -3.62545133 -6.88361311 1.16694975
v -4.44565773 -5.03489447 3.90271258
v -1.1308763 -4.65828657 2.07523155
v -2.29117012 -1.08446562 1.55402756
v -2.63221288 -3.50930405 1.75168216
v -1.51259899 -4.75409031 1.13322282
v -2.39901471 -3.97747803 1.13322282
v -1.13766503 -4.71753311 1.98884487
v -1.1308763 -4.65828657 2.07523155
v -2.63221288 -3.50930405 1.75168216
v -2.29117012 -1.08446562 1.55402756
v -4.44565773 -5.03489447 3.90271258
v -5.48973989 -3.25271749 2.64808369
v -4.84128332 -7.09249067 2.0019784
v -2.29117012 -1.08446562 1.55402756
v -3.81282711 -1.19835603 1.13322294
v -5.04791784 -1.59206724 1.13322306
v -2.29117012 -1.08446562 1.55402756
v -1.1308763 -4.65828657 2.07523155
v -4.84128332 -7.09249067 2.0019784
v -3.62545133 -6.88361311 1.16694975
v -3.62542892 -6.87700844 1.13322282
v -3.57621765 -6.82094145 1.13322258
v -4.39108181 -5.13030052 3.88985252
v -2.39901471 -3.97747803 1.13322282
v -2.2068665 -2.12137699 1.13322282
v -2.63221288 -3.50930405 1.75168216
v -2.29117012 -1.08446562 1.55402756
v -2.29117012 -1.08446562 1.55402756
v -2.2068665 -2.12137699 1.13322282
v -3.81282711 -1.19835603 1.13322294
v -1.1308763 -4.65828657 2.07523155
v -1.13766503 -4.71753311 1.98884487
v -2.63221288 -3.50930405 1.75168216
v -6.03721905 -3.49815774 1.13322318
v -5.97190285 -3.79599428 1.13322294
v -4.39108181 -5.13030052 3.88985252
v -7.77125549 -0.082931608 1.1332221
v -6.85672808 -1.54553306 6.45216656
v -6.45336342 2.1599679 8.48939228
v -7.77309036 -0.230366841 1.13322425
v -6.25875187 0.116624892 8.28234386
v -6.99905777 -2.46503472 1.1332233
v -6.53979969 -3.75353122 1.28276408
v -1.58685255 3.14918375 7.53374052
v 0.825231194 5.81703424 1.28276491
v -1.9577105 6.33776188 1.24059474
v -6.52612877 3.48440981 5.1350832
v -5.30684471 3.36671853 6.88806438
v -4.86791039 4.21873474 4.34615803
v -6.45336342 2.1599679 8.48939228
v 3.40220189 3.23800135 1.69250393
v 0.825231194 5.81703424 1.28276491
v -1.58685255 3.14918375 7.53374052
v -7.06079292 3.20093751 1.13322353
v -6.45336342 2.1599679 8.48939228
v -6.52612877 3.48440981 5.1350832
v -7.05917263 3.36895418 1.13322306
v -6.45336342 2.1599679 8.48939228
v -4.45780563 3.21653366 8.21982098
v -5.30684471 3.36671853 6.88806438
v -5.30684471 3.36671853 6.88806438
v -4.45780563 3.21653366 8.21982098
v -1.58685255 3.14918375 7.53374052
v -6.85672808 -1.54553306 6.45216656
v -5.20532417 -0.0407412052 8.45033741
v -6.25875187 0.116624892 8.28234386
v -1.58685255 3.14918375 7.53374052
v -2.02057552 -1.24885583 7.38539171
v 0.662977695 0.494480133 4.60847759
v 2.5921886 -2.43652058 1.28276443
v 0.662977695 0.494480133 4.60847759
v 0.00536710024 -1.61925137 4.89274359
v 2.49335027 -2.72376919 1.28276432
v 3.40220189 3.23800135 1.69250393
v -1.58685255 3.14918375 7.53374052
v 0.662977695 0.494480133 4.60847759
v -2.02057552 -1.24885583 7.38539171
v 0.00536710024 -1.61925137 4.89274359
v 0.662977695 0.494480133 4.60847759
v -1.58685255 3.14918375 7.53374052
v -2.92246008 6.37557793 1.28276467
v -5.30684471 3.36671853 6.88806438
v -1.9577105 6.33776188 1.24059474
v -2.14408278 -2.82612634 4.65153074
v -6.85672808 -1.54553306 6.45216656
v -6.53979969 -3.75353122 1.28276408
v -2.28391647 -4.31462288 1.28276455
v -2.28391647 -4.31462288 1.28276455
v 2.3704071 -2.83803439 1.28276443
v -2.14408278 -2.82612634 4.65153074
v -2.14408278 -2.82612634 4.65153074
v 0.00536710024 -1.61925137 4.89274359
v -2.02057552 -1.24885583 7.38539171
v 2.5921886 -2.43652058 1.28276443
v 3.40220189 3.23800135 1.69250393
v 0.662977695 0.494480133 4.60847759
v -5.01619673 5.31377077 1.13322318
v -4.86791039 4.21873474 4.34615803
v -4.92239094 5.4060092 1.17632914
v -6.41160059 3.68866897 1.13322353
v -4.86791039 4.21873474 4.34615803
v -2.92246008 6.37557793 1.28276467
v -4.92239094 5.4060092 1.17632914
v -5.30684471 3.36671853 6.88806438
v 0.60506618 7.89469719 2.9106307
v 1.40282905 9.05855083 2.40901184
v 1.14621258 9.15424919 2.4227283
v -0.525725842 8.02284718 1.13322377
v -0.151278496 7.9210124 2.66434526
v 1.14621258 9.15424919 2.4227283
v -0.779588044 7.79507351 1.1332233
v 1.14621258 9.15424919 2.4227283
v -0.151278496 7.9210124 2.66434526
v -0.863762259 7.28911924 1.1332233
v -0.810855925 6.52445221 1.58730102
v -0.648652434 7.5789566 2.28451991
v -0.847630143 7.7331481 1.13322377
v 1.50437653 7.2142663 2.80510521
v 2.0735271 6.35638142 1.1332233
v 2.12216306 7.38112116 1.1332233
v -0.810855925 6.52445221 1.58730102
v -0.863762259 7.28911924 1.1332233
v -0.621329844 6.72013664 1.13322353
v 1.40282905 9.05855083 2.40901184
v 2.03499413 8.01569748 1.13322341
v 0.240370631 8.56820869 1.13322341
v 1.50437653 7.2142663 2.80510521
v 1.50437653 7.2142663 2.80510521
v 0.60506618 7.89469719 2.9106307
v -0.648652434 7.5789566 2.28451991
v -0.151278496 7.9210124 2.66434526
v -0.810855925 6.52445221 1.58730102
v 0.0740563273 5.23910952 1.13322353
v 0.361600161 5.07000065 1.13322341
v 1.83792579 4.97804546 1.53305054
v 2.00778556 5.3100276 1.1332233
v 2.15076089 2.55493832 1.29741609
v -1.13582778 3.57681704 5.06723976
v -1.78779578 2.3331964 3.95181131
v 0.608080328 6.26616573 4.20243025
v -1.13582778 3.57681704 5.06723976
v 2.15076089 2.55493832 1.29741609
v 2.15076089 2.55493832 1.29741609
v 2.02293682 2.37319279 1.13322306
v 2.02714372 2.44313717 1.13322282
v -2.5580554 5.14716339 5.15878487
v -3.84844971 4.42171144 1.13322377
v -2.44974732 4.14201498 4.87665272
v -3.79996157 4.18888903 1.13322353
v 0.608080328 6.26616573 4.20243025
v -0.278237879 6.24764872 4.54815054
v -1.39611292 5.76414919 5.52690029
v -1.13582778 3.57681704 5.06723976
v -2.5580554 5.14716339 5.15878487
v -2.44974732 4.14201498 4.87665272
v -1.75641656 3.25646329 4.95853472
v 1.3331182 2.02046728 1.13322282
v 1.97549939 2.35228229 1.13322294
v -1.39611292 5.76414919 5.52690029
v -1.78779578 2.3331964 3.95181131
v -1.93296087 2.38144946 1.13322294
v -0.297649741 2.35094547 1.13322306
v -1.75641656 3.25646329 4.95853472
v -1.39611292 5.76414919 5.52690029
v -2.44974732 4.14201498 4.87665272
v -3.79996157 4.18888903 1.13322353
v -3.48270106 3.49700499 1.1332233
v -1.78779578 2.3331964 3.95181131
v -1.75641656 3.25646329 4.95853472
v -2.5580554 5.14716339 5.15878487
v -1.39611292 5.76414919 5.52690029
v -0.278237879 6.24764872 4.54815054
v -1.72146678 6.59067774 1.13322306
v -2.57277179 6.24210691 1.13322377
v -4.31875515 -4.41574621 1.13322294
v -3.62777901 -3.47770071 2.68120933
v -4.8714819 -4.95210171 3.03184986
v -4.45360804 -4.57820749 1.13322294
v -4.8714819 -4.95210171 3.03184986
v -3.62777901 -3.47770071 2.68120933
v -5.11181545 -3.02671885 4.79456997
v -6.37597942 -4.74291945 1.96247268
v -4.8714819 -4.95210171 3.03184986
v -6.81031561 -3.80866098 4.3503499
v -5.36498737 -2.81827617 1.13322318
v -7.24977398 -1.67554355 2.89287138
v -4.36360979 -2.35727 1.39511979
v -6.17361736 -3.00179505 1.13322306
v -3.62777901 -3.47770071 2.68120933
v -4.36360979 -2.35727 1.39511979
v -5.33324909 -1.51222837 3.78299665
v -4.8714819 -4.95210171 3.03184986
v -5.11181545 -3.02671885 4.79456997
v -6.81031561 -3.80866098 4.3503499
v -6.37597942 -4.74291945 1.96247268
v -6.81031561 -3.80866098 4.3503499
v -7.24977398 -1.67554355 2.89287138
v -4.36360979 -2.35727 1.39511979
v -7.24977398 -1.67554355 2.89287138
v -5.33324909 -1.51222837 3.78299665
v -5.11181545 -3.02671885 4.79456997
v -6.81031561 -3.80866098 4.3503499
v -5.11181545 -3.02671885 4.79456997
v -6.76485205 -1.62757099 4.81458759
v -6.76485205 -1.62757099 4.81458759
v -6.76485205 -1.62757099 4.81458759
v -6.76485205 -1.62757099 4.81458759
v -2.520293 5.826437 3.55793667
v -2.3385334 5.02392101 4.95167112
v -2.69397736 4.22288465 3.89543581
v -2.3385334 5.02392101 4.95167112
v -2.520293 5.826437 3.55793667
v -3.20757818 6.18237495 4.97938347
v -2.520293 5.826437 3.55793667
v -2.69397736 4.22288465 3.89543581
v -4.31801891 4.79705906 3.27034283
v -2.520293 5.826437 3.55793667
v -4.31801891 4.79705906 3.27034283
v -4.10013294 6.0973177 3.94027543
v -2.520293 5.826437 3.55793667
v -4.10013294 6.0973177 3.94027543
v -3.20757818 6.18237495 4.97938347
v -2.3385334 5.02392101 4.95167112
v -3.20757818 6.18237495 4.97938347
v -4.3413415 4.70959091 6.19539261
v -2.69397736 4.22288465 3.89543581
v -2.3385334 5.02392101 4.95167112
v -4.02392578 3.49854922 5.52545977
v -4.31801891 4.79705906 3.27034283
v -2.69397736 4.22288465 3.89543581
v -5.59956884 3.8076036 4.44357443
v -4.10013294 6.0973177 3.94027543
v -4.31801891 4.79705906 3.27034283
v -5.59956884 3.8076036 4.44357443
v -3.20757818 6.18237495 4.97938347
v -4.10013294 6.0973177 3.94027543
v -4.89478016 5.46219921 5.57029963
v -2.3385334 5.02392101 4.95167112
v -4.3413415 4.70959091 6.19539261
v -4.02392578 3.49854922 5.52545977
v -2.69397736 4.22288465 3.89543581
v -4.02392578 3.49854922 5.52545977
v -5.59956884 3.8076036 4.44357443
v -4.10013294 6.0973177 3.94027543
v -5.59956884 3.8076036 4.44357443
v -4.89478016 5.46219921 5.57029963
v -3.20757818 6.18237495 4.97938347
v -4.89478016 5.46219921 5.57029963
v -4.3413415 4.70959091 6.19539261
v -5.60376596 3.76942945 5.90779877
v -5.60376596 3.76942945 5.90779877
v -5.60376596 3.76942945 5.90779877
v -4.3413415 4.70959091 6.19539261
v -4.89478016 5.46219921 5.57029963
v -5.60376596 3.76942945 5.90779877
v -2.02057552 -1.24885583 7.38539171
v 2.49335027 -2.72376919 1.28276432
v 2.3704071 -2.83803439 1.28276443
v -2.14408278 -2.82612634 4.65153074
v -5.20532417 -0.0407412052 8.45033741
v -2.02057552 -1.24885583 7.38539171
v -1.58685255 3.14918375 7.53374052
v -6.45336342 2.1599679 8.48939228
v -4.45780563 3.21653366 8.21982098
v -6.25875187 0.116624892 8.28234386
v 5.65244722 4.39609671 2.58260489
v 5.58129263 4.35836458 2.64945579
v 5.71551704 4.3309145 2.54564857
v 4.58561516 4.57318592 2.65115881
v 5.12615347 5.15408278 1.50319886
v 3.48827696 3.96751165 1.45432973
v 4.58561516 4.57318592 2.65115881
v 5.14607859 3.34843516 2.54900241
v 5.12492371 4.26291943 2.87257123
v 4.58561516 4.57318592 2.65115881
v 5.12492371 4.26291943 2.87257123
v 5.58129263 4.35836458 2.64945579
v 5.14607859 3.34843516 2.54900241
v 6.02321053 2.90898561 1.49946916
v 5.85411787 4.23538446 2.36471224
v 5.14607859 3.34843516 2.54900241
v 4.39119577 3.7602973 2.07689881
v 3.48827696 3.96751165 1.45432973
v 3.48827696 3.96751165 1.45432973
v 4.39119577 3.7602973 2.07689881
v 4.58561516 4.57318592 2.65115881
v 4.39119577 3.7602973 2.07689881
v 5.12615347 5.15408278 1.50319886
v 5.65244722 4.39609671 2.58260489
v 5.85411787 4.23538446 2.36471224
v 5.71551704 4.3309145 2.54564857
v 5.65244722 4.39609671 2.58260489
v 5.12615347 5.15408278 1.50319886
v 5.71551704 4.3309145 2.54564857
v 5.58129263 4.35836458 2.64945579
v 5.85411787 4.23538446 2.36471224
v 5.12492371 4.26291943 2.87257123
v 5.12492371 4.26291943 2.87257123
v 5.14607859 3.34843516 2.54900241
v 5.85411787 4.23538446 2.36471224
v 3.48827696 3.96751165 1.45432973
v 3.80019999 4.24732685 1.13322294
v 4.06260729 3.20151401 1.13322282
v 6.5222702 3.86576486 1.68727708
v 5.6127286 4.80462742 1.13322282
v 6.5222702 3.86576486 1.68727708
v 5.51720047 4.88606071 1.13322282
v 5.43904114 4.9596529 1.13322282
v 5.15977859 5.13158083 1.13322282
v 5.1963172 2.54100251 1.29349709
v 5.14607859 3.34843516 2.54900241
v 4.9946456 2.49798512 1.38905287
v 6.02321053 2.90898561 1.49946916
v 5.09376907 5.19033146 1.13322282
v 3.80019999 4.24732685 1.13322294
v 4.56175852 -3.44396257 2.58260489
v 4.58204317 -3.52190709 2.64945555
v 4.63974237 -3.39764667 2.5456481
v 4.14313602 -4.44108152 2.65115833
v 3.70273852 -3.78102636 1.50319862
v 4.47908497 -5.64861202 1.45432913
v 4.14313602 -4.44108152 2.65115833
v 4.95676804 -4.38218117 3.07409048
v 4.56954098 -3.98798108 2.87257099
v 4.58204317 -3.52190709 2.64945555
v 4.95676804 -4.38218117 3.07409048
v 6.09429455 -3.42657232 1.4994688
v 4.76469231 -3.28484654 2.364712
v 4.95676804 -4.38218117 3.07409048
v 4.38174152 -5.02157307 2.60198712
v 4.47908497 -5.64861202 1.45432913
v 4.38174152 -5.02157307 2.60198712
v 4.38174152 -5.02157307 2.60198712
v 3.70273852 -3.78102636 1.50319862
v 4.56175852 -3.44396257 2.58260489
v 4.76469231 -3.28484654 2.364712
v 4.63974237 -3.39764667 2.5456481
v 4.56175852 -3.44396257 2.58260489
v 3.70273852 -3.78102636 1.50319862
v 4.63974237 -3.39764667 2.5456481
v 4.58204317 -3.52190709 2.64945555
v 4.76469231 -3.28484654 2.364712
v 4.56954098 -3.98798108 2.87257099
v 4.56954098 -3.98798108 2.87257099
v 4.95676804 -4.38218117 3.07409048
v 4.76469231 -3.28484654 2.364712
v 4.47908497 -5.64861202 1.45432913
v 4.27884912 -5.28051138 1.13322258
v 5.3569932 -5.26665926 1.13322246
v 5.27859354 -2.72008872 1.6872766
v 4.1550951 -3.38828182 1.13322234
v 5.27859354 -2.72008872 1.6872766
v 4.0538063 -3.46242738 1.13322234
v 3.7323966 -3.75350642 1.13322246
v 6.26141644 -4.31608486 1.29349697
v 6.09429455 -3.42657232 1.4994688
v 6.25670719 -4.52223969 1.38905239
v 4.95676804 -4.38218117 3.07409048
v 3.65999269 -3.80416536 1.13322234
v 4.27884912 -5.28051138 1.13322258
v 0.619747877 4.9402318 1.13322341
v 1.06922519 5.05998039 1.13322341
v 1.83792579 4.97804546 1.53305054
v -7.24977398 -1.67554355 2.89287138
v -6.11868238 -3.42826128 1.13322306
v -6.37597942 -4.74291945 1.96247268
v -6.17361736 -3.00179505 1.13322306
v 0.124013156 8.60730839 1.13322318
v 0.117798433 -6.92985344 1.13322222
v 1.16190839 -6.96372223 1.13322234
v 3.77605104 -4.06890345 1.13322258
v 3.28308845 -5.72252417 1.13322246
v 3.73563623 -5.36157131 1.13322258
v 0.0430296361 5.64053869 1.1332233
v 0.0740563273 5.23910952 1.13322353
v -0.810855925 6.52445221 1.58730102
v -3.62545133 -6.88361311 1.16694975
v -4.84128332 -7.09249067 2.0019784
v -3.9091897 -6.8848033 1.13322282
v -5.36945391 -6.92703676 1.1332227
v -0.5412184 6.64221764 1.13322294
v -1.72146678 6.59067774 1.13322306
v -0.278237879 6.24764872 4.54815054
v 5.09376907 5.19033146 1.13322282
v -3.24770927 3.0743804 1.13322353
v 5.14607859 3.34843516 2.54900241
v 3.48827696 3.96751165 1.45432973
v 4.06260729 3.20151401 1.13322282
v 4.41848755 2.88355875 1.1332227
v -0.847630143 7.7331481 1.13322377
v -0.648652434 7.5789566 2.28451991
v 5.71887398 -5.03113127 1.13322234
v 5.3569932 -5.26665926 1.13322246
v -7.06079292 3.20093751 1.13322353
v -7.77125549 -0.082931608 1.1332221
v -6.45336342 2.1599679 8.48939228
v 1.06922519 5.05998039 1.13322341
v 2.00778556 5.3100276 1.1332233
v 1.83792579 4.97804546 1.53305054
v 3.90036988 1.11392033 1.1332227
v -3.62542892 -6.87700844 1.13322282
v 4.12361145 -4.66284752 1.1332227
v -3.62777901 -3.47770071 2.68120933
v -4.31875515 -4.41574621 1.13322294
v -4.38925838 -3.58771849 1.13322294
v -4.36360979 -2.35727 1.39511979
v 3.65999269 -3.80416536 1.13322234
v 4.9946456 2.49798512 1.38905287
v 4.6491456 2.64720297 1.13322282
v -5.4839201 -6.49140263 1.13322282
v -5.36945391 -6.92703676 1.1332227
v 0.608080328 6.26616573 4.20243025
v -0.163048804 6.63334131 1.13322353
v -4.79487228 -4.57848406 1.13322282
v -4.45360804 -4.57820749 1.13322294
v -4.8714819 -4.95210171 3.03184986
v -6.37597942 -4.74291945 1.96247268
v -1.64430261 -4.34437084 1.1332233
v -1.21468449 -6.23147202 1.13322234
v -0.81831336 -5.86330414 5.0067811
v 5.28534889 -1.19700766 1.38905263
v 4.91436529 -1.26031768 1.13322282
v 4.99709606 -1.21091878 1.13322258
v 5.43094397 -1.05098069 1.29349685
v 0.608080328 6.26616573 4.20243025
v 2.15076089 2.55493832 1.29741609
v 2.10887432 3.04634809 1.13322282
v 1.43773818 6.69201231 1.13322341
v 4.12044334 -1.11548769 1.13322258
v 4.54492331 -1.194538 1.13322246
v -0.370888591 -2.87327433 1.13322258
v 0.237303764 -3.63316941 4.7485466
v -0.150962457 -2.70541835 1.13322282
v 0.88300097 -3.05239153 4.48876619
v 4.9946456 2.49798512 1.38905287
v 4.6491456 2.64720297 1.13322282
v 4.74543047 2.64350033 1.1332227
v 5.1963172 2.54100251 1.29349709
v -4.86791039 4.21873474 4.34615803
v -6.41160059 3.68866897 1.13322353
v -6.52612877 3.48440981 5.1350832
v -7.05917263 3.36895418 1.13322306
v -1.13766503 -4.71753311 1.98884487
v -1.51259899 -4.75409031 1.13322282
v 2.02293682 2.37319279 1.13322306
v 5.28534889 -1.19700766 1.38905263
v 4.91436529 -1.26031768 1.13322282
v 0.780956805 2.01721382 1.13322294
v -1.30541301 -3.69481206 1.13322282
v 2.10887432 3.04634809 1.13322282
v 0.124013156 8.60730839 1.13322318
v 1.14621258 9.15424919 2.4227283
v -4.38925838 -3.58771849 1.13322294
v -5.36498737 -2.81827617 1.13322318
v -4.36360979 -2.35727 1.39511979
v 2.03499413 8.01569748 1.13322341
v 1.40282905 9.05855083 2.40901184
v 6.25670719 -4.52223969 1.38905239
v 6.03174925 -4.82395267 1.13322246
v 6.05758286 -4.73112345 1.13322246
v 6.26141644 -4.31608486 1.29349697
v 1.22568452 -1.87450731 1.13322258
v 0.619747877 4.9402318 1.13322341
v 1.83792579 4.97804546 1.53305054
v 1.43773818 6.69201231 1.13322341
v -3.24770927 3.0743804 1.13322353
v -5.1877532 -1.67193174 1.1332233
v -6.03721905 -3.49815774 1.13322318
v -5.48973989 -3.25271749 2.64808369
v 1.3331182 2.02046728 1.13322282
v 0.88300097 -3.05239153 4.48876619
v 4.11835146 -4.45667505 1.34568441
v 3.77605104 -4.06890345 1.13322258
v 1.70446074 -2.28645825 1.13322282
v 1.22568452 -1.87450731 1.13322258
v 0.0430296361 5.64053869 1.1332233
v -2.57277179 6.24210691 1.13322377
v -3.84844971 4.42171144 1.13322377
v -2.5580554 5.14716339 5.15878487
v 6.25670719 -4.52223969 1.38905239
v 6.03174925 -4.82395267 1.13322246
v -6.11868238 -3.42826128 1.13322306
v -4.79487228 -4.57848406 1.13322282
v -6.37597942 -4.74291945 1.96247268
v -4.83499575 -2.5194993 2.26162839
v -5.1877532 -1.67193174 1.1332233
v -5.48973989 -3.25271749 2.64808369
v -5.04791784 -1.59206724 1.13322306
vt 0.864113986 0.340421736
vt 0.810262501 0.164273679
vt 0.834894955 0.155311942
vt 0.761886358 0.177564859
vt 0.810262501 0.164273679
vt 0.864113986 0.340421736
vt 0.864113986 0.340421736
vt 0.87726438 0.343884766
vt 0.87434417 0.34643811
vt 0.792171359 0.142296016
vt 0.8370713 0
vt 0.806515694 0.144048989
vt 0.847001076 0.00517624617
vt 0.761886358 0.177564859
vt 0.770221353 0.164412379
vt 0.787733436 0.155498028
vt 0.810262501 0.164273679
vt 0.792171359 0.142296016
vt 0.806515694 0.144048989
vt 0.815533459 0.15582788
vt 0.905472875 0.310578465
vt 0.879167199 0.342178822
vt 0.787733436 0.155498028
vt 0.834894955 0.155311942
vt 0.92713052 0.122226536
vt 0.929563761 0.211937428
vt 0.815533459 0.15582788
vt 0.787733436 0.155498028
vt 0.806515694 0.144048989
vt 0.847001076 0.00517624617
vt 0.880881608 0.0254560709
vt 0.834894955 0.155311942
vt 0.815533459 0.15582788
vt 0.792171359 0.142296016
vt 0.787733436 0.155498028
vt 0.770221353 0.164412379
vt 0.691369176 0.00616490841
vt 0.665211916 0.0371116996
vt 0.921105444 0.455832541
vt 0.919158995 0.452019691
vt 0.924553573 0.455161095
vt 0.896732569 0.445492864
vt 0.88572973 0.499648094
vt 0.871031582 0.42280221
vt 0.896732569 0.445492864
vt 0.909264326 0.429708123
vt 0.910821497 0.44251138
vt 0.919158995 0.452019691
vt 0.909264326 0.429708123
vt 0.988546491 0.38888675
vt 0.934721529 0.457440257
vt 0.909264326 0.429708123
vt 0.893134058 0.433863997
vt 0.871031582 0.42280221
vt 0.893134058 0.433863997
vt 0.893134058 0.433863997
vt 0.88572973 0.499648094
vt 0.921105444 0.455832541
vt 0.934721529 0.457440257
vt 0.924553573 0.455161095
vt 0.921105444 0.455832541
vt 0.88572973 0.499648094
vt 0.924553573 0.455161095
vt 0.919158995 0.452019691
vt 0.934721529 0.457440257
vt 0.910821497 0.44251138
vt 0.910821497 0.44251138
vt 0.909264326 0.429708123
vt 0.934721529 0.457440257
vt 0.871031582 0.42280221
vt 0.855399311 0.435152888
vt 0.864261448 0.374084115
vt 0.988546491 0.464907169
vt 0.910727441 0.528188884
vt 0.903780162 0.528797925
vt 0.988546491 0.464907169
vt 0.875962436 0.516137302
vt 0.932510316 0.364492774
vt 0.988546491 0.38888675
vt 0.921381891 0.369288266
vt 0.909264326 0.429708123
vt 0.871840537 0.51280719
vt 0.855399311 0.435152888
vt 0.446036845 0.825858951
vt 0.53310746 0.775270641
vt 0.524818778 0.816009581
vt 0.374420643 0.739539862
vt 0.442378849 0.826662064
vt 0.336670965 0.895026565
vt 0.446036845 0.825858951
vt 0.378640831 0.739370942
vt 0.483763158 0.685235679
vt 0.40019539 0.677474558
vt 0.334509462 0.727858782
vt 0.361107379 0.658289611
vt 0.374420643 0.739539862
vt 0.378640831 0.739370942
vt 0.40019539 0.677474558
vt 0.483763158 0.685235679
vt 0.446036845 0.825858951
vt 0.524818778 0.816009581
vt 0.409008533 0.910062671
vt 0.483763158 0.685235679
vt 0.542023718 0.682359219
vt 0.591066897 0.740080416
vt 0.483763158 0.685235679
vt 0.378640831 0.739370942
vt 0.409008533 0.910062671
vt 0.336670965 0.895026565
vt 0.335039586 0.895440519
vt 0.334509462 0.891486943
vt 0.442378849 0.826662064
vt 0.361107379 0.658289611
vt 0.458838612 0.65237689
vt 0.40019539 0.677474558
vt 0.483763158 0.685235679
vt 0.483763158 0.685235679
vt 0.458838612 0.65237689
vt 0.542023718 0.682359219
vt 0.378640831 0.739370942
vt 0.374420643 0.739539862
vt 0.40019539 0.677474558
vt 0.57823199 0.861060083
vt 0.568986654 0.873224795
vt 0.442378849 0.826662064
vt 2.3599771e-08 0.272039771
vt 0.237577111 0.262298465
vt 0.253627658 0.330086708
vt 0.00168700633 0.26524049
vt 0.260745317 0.301757574
vt 0.0499135666 0.131267726
vt 0.0930732116 0.0690385699
vt 0.335812628 0.369137108
vt 0.458142132 0.635852635
vt 0.298660338 0.652376831
vt 0.199716955 0.393197417
vt 0.256328732 0.374142408
vt 0.228743345 0.45877862
vt 0.253627658 0.330086708
vt 0.626645088 0.497305751
vt 0.458142132 0.635852635
vt 0.335812628 0.369137108
vt 0.0437215045 0.453179479
vt 0.253627658 0.330086708
vt 0.199716955 0.393197417
vt 0.0467377268 0.459853411
vt 0.253627658 0.330086708
vt 0.281177878 0.351652145
vt 0.256328732 0.374142408
vt 0.256328732 0.374142408
vt 0.281177878 0.351652145
vt 0.335812628 0.369137108
vt 0.237577111 0.262298465
vt 0.279598892 0.300141811
vt 0.260745317 0.301757574
vt 0.335812628 0.369137108
vt 0.338149041 0.271426558
vt 0.464376688 0.312383771
vt 0.626645088 0.139407396
vt 0.464376688 0.312383771
vt 0.427064508 0.236127079
vt 0.619749188 0.125596464
vt 0.626645088 0.497305751
vt 0.335812628 0.369137108
vt 0.464376688 0.312383771
vt 0.338149041 0.271426558
vt 0.427064508 0.236127079
vt 0.464376688 0.312383771
vt 0.335812628 0.369137108
vt 0.252009988 0.646910548
vt 0.256328732 0.374142408
vt 0.298660338 0.652376831
vt 0.351970702 0.177324057
vt 0.237577111 0.262298465
vt 0.0930732116 0.0690385699
vt 0.348097324 0
vt 0.348097324 0
vt 0.614023864 0.119459808
vt 0.351970702 0.177324057
vt 0.351970702 0.177324057
vt 0.427064508 0.236127079
vt 0.338149041 0.271426558
vt 0.626645088 0.139407396
vt 0.626645088 0.497305751
vt 0.464376688 0.312383771
vt 0.142832369 0.583846927
vt 0.228743345 0.45877862
vt 0.148310065 0.586858928
vt 0.0645297319 0.489529967
vt 0.228743345 0.45877862
vt 0.252009988 0.646910548
vt 0.148310065 0.586858928
vt 0.256328732 0.374142408
vt 0.721583664 0.851535141
vt 0.735594451 0.872200787
vt 0.729972064 0.871843874
vt 0.657687902 0.903055012
vt 0.706066489 0.855867505
vt 0.729972064 0.871843874
vt 0.643829167 0.890577137
vt 0.729972064 0.871843874
vt 0.706066489 0.855867505
vt 0.627334058 0.859032035
vt 0.65711844 0.812569201
vt 0.688298821 0.84942621
vt 0.640355766 0.886415839
vt 0.740715325 0.83202678
vt 0.818422675 0.788712084
vt 0.818422675 0.853652179
vt 0.65711844 0.812569201
vt 0.627334058 0.859032035
vt 0.626645088 0.814361989
vt 0.735594451 0.872200787
vt 0.80754894 0.890526235
vt 0.702206492 0.910330355
vt 0.740715325 0.83202678
vt 0.740715325 0.83202678
vt 0.721583664 0.851535141
vt 0.688298821 0.84942621
vt 0.706066489 0.855867505
vt 0.65711844 0.812569201
vt 0.673628747 0.724692166
vt 0.688682735 0.716975272
vt 0.759273171 0.751763701
vt 0.780720472 0.744576454
vt 0.317227095 0.682320893
vt 0.186698437 0.805267036
vt 0.162708461 0.779580653
vt 0.230957985 0.858284533
vt 0.186698437 0.805267036
vt 0.317227095 0.682320893
vt 0.317227095 0.682320893
vt 0.315543145 0.670934141
vt 0.318366349 0.672852755
vt 0.16882886 0.839600325
vt 6.95799317e-05 0.844982743
vt 0.163693354 0.820502043
vt -9.25569665e-09 0.834071934
vt 0.230957985 0.858284533
vt 0.209351599 0.8549335
vt 0.188223481 0.837809265
vt 0.186698437 0.805267036
vt 0.16882886 0.839600325
vt 0.163693354 0.820502043
vt 0.173515707 0.803189993
vt 0.281508476 0.65237689
vt 0.313440442 0.669543624
vt 0.188223481 0.837809265
vt 0.162708461 0.779580653
vt 0.0899695307 0.692215204
vt 0.192648739 0.659725964
vt 0.173515707 0.803189993
vt 0.188223481 0.837809265
vt 0.163693354 0.820502043
vt -9.25569665e-09 0.834071934
vt 0.00396930287 0.792873621
vt 0.162708461 0.779580653
vt 0.173515707 0.803189993
vt 0.16882886 0.839600325
vt 0.188223481 0.837809265
vt 0.209351599 0.8549335
vt 0.135358617 0.999066234
vt 0.083577536 0.98954463
vt 0.694117069 0.357165933
vt 0.74884212 0.565211415
vt 0.744648635 0.566163123
vt 0.669844568 0.375049114
vt 0.622330964 0.559951305
vt 0.622565746 0.569361746
vt 0.616844833 0.563293934
vt 0.615635574 0.549470782
vt 0.622330964 0.559951305
vt 0.616094768 0.561679721
vt 0.855399311 0.716209054
vt 0.746630847 0.569717407
vt 0.769696116 0.573830247
vt 0.755085289 0.716728151
vt 0.622565746 0.569361746
vt 0.595077932 0.61040324
vt 0.615376115 0.564397693
vt 0.611497819 0.597704351
vt 0.612984002 0.570863247
vt 0.62032795 0.572105348
vt 0.615635574 0.549470782
vt 0.616094768 0.561679721
vt 0.61384815 0.562673271
vt 0.595077932 0.61040324
vt 0.61384815 0.562673271
vt 0.615376115 0.564397693
vt 0.616844833 0.563293934
vt 0.62032795 0.572105348
vt 0.612984002 0.570863247
vt 0.617318749 0.566704512
vt 0.615438938 0.563003719
vt 0.615438938 0.563003719
vt 0.615438938 0.563003719
vt 0.657700479 0.732863486
vt 0.628789008 0.708328962
vt 0.657700479 0.694257081
vt 0.628789008 0.708328962
vt 0.657700479 0.732863486
vt 0.628225744 0.732460439
vt 0.609205365 0.710433781
vt 0.580185592 0.702136934
vt 0.586298823 0.667118907
vt 0.609205365 0.710433781
vt 0.586298823 0.667118907
vt 0.620357633 0.67347306
vt 0.587155938 0.632526517
vt 0.580185592 0.600038946
vt 0.610686421 0.610217154
vt 0.657571554 0.6150828
vt 0.628225744 0.612707794
vt 0.628225744 0.569158077
vt 0.680598438 0.600287259
vt 0.657571554 0.6150828
vt 0.660594106 0.561481357
vt 0.670038939 0.686254978
vt 0.628225744 0.694257081
vt 0.673394322 0.641352654
vt 0.620357633 0.67347306
vt 0.586298823 0.667118907
vt 0.580185592 0.632526517
vt 0.610686421 0.610217154
vt 0.580185592 0.600038946
vt 0.60858506 0.565112889
vt 0.657571554 0.6150828
vt 0.628225744 0.569158077
vt 0.660594106 0.561481357
vt 0.628225744 0.694257081
vt 0.628225982 0.642235518
vt 0.673394322 0.641352654
vt 0.580185592 0.600038946
vt 0.580185592 0.545566797
vt 0.60858506 0.565112889
vt 0.610686421 0.610217154
vt 0.60858506 0.565112889
vt 0.628225744 0.564470172
vt 0.635466278 0.533154249
vt 0.654614508 0.6150828
vt 0.611581922 0.533154249
vt 0.628225744 0.564470172
vt 0.60858506 0.565112889
vt 0.611581922 0.533154249
vt 0.338149041 0.271426558
vt 0.619749188 0.125596464
vt 0.614023864 0.119459808
vt 0.351970702 0.177324057
vt 0.279598892 0.300141811
vt 0.338149041 0.271426558
vt 0.335812628 0.369137108
vt 0.253627658 0.330086708
vt 0.281177878 0.351652145
vt 0.260745317 0.301757574
vt 0.922237933 0.627849102
vt 0.920727313 0.624070823
vt 0.925524235 0.627536118
vt 0.900237262 0.614952564
vt 0.886268258 0.666541576
vt 0.87053138 0.592123568
vt 0.900237262 0.614952564
vt 0.923181117 0.591418743
vt 0.914062977 0.613925636
vt 0.900237262 0.614952564
vt 0.914062977 0.613925636
vt 0.920727313 0.624070823
vt 0.923181117 0.591418743
vt 0.984079897 0.567878544
vt 0.934745014 0.630579889
vt 0.923181117 0.591418743
vt 0.896755338 0.595607996
vt 0.87053138 0.592123568
vt 0.87053138 0.592123568
vt 0.896755338 0.595607996
vt 0.900237262 0.614952564
vt 0.896755338 0.595607996
vt 0.886268258 0.666541576
vt 0.922237933 0.627849102
vt 0.934745014 0.630579889
vt 0.925524235 0.627536118
vt 0.922237933 0.627849102
vt 0.886268258 0.666541576
vt 0.925524235 0.627536118
vt 0.920727313 0.624070823
vt 0.934745014 0.630579889
vt 0.914062977 0.613925636
vt 0.914062977 0.613925636
vt 0.923181117 0.591418743
vt 0.934745014 0.630579889
vt 0.87053138 0.592123568
vt 0.855399251 0.603726745
vt 0.865408421 0.548388064
vt 0.984079897 0.638598084
vt 0.908481479 0.695117176
vt 0.984079897 0.638598084
vt 0.901936352 0.695301592
vt 0.895943105 0.692753971
vt 0.876803994 0.682349324
vt 0.935118198 0.534772038
vt 0.923181117 0.591418743
vt 0.924473166 0.540019274
vt 0.984079897 0.567878544
vt 0.872858942 0.679151058
vt 0.855399251 0.603726745
vt 0.884128809 0.815394819
vt 0.882182419 0.81158185
vt 0.887576997 0.814723313
vt 0.859755993 0.805055082
vt 0.848753095 0.859210312
vt 0.834055007 0.782364488
vt 0.859755993 0.805055082
vt 0.872287691 0.789270401
vt 0.873844922 0.802073598
vt 0.882182419 0.81158185
vt 0.872287691 0.789270401
vt 0.951569855 0.748448968
vt 0.897744954 0.817002475
vt 0.872287691 0.789270401
vt 0.856157422 0.793426216
vt 0.834055007 0.782364488
vt 0.856157422 0.793426216
vt 0.856157422 0.793426216
vt 0.848753095 0.859210312
vt 0.884128809 0.815394819
vt 0.897744954 0.817002475
vt 0.887576997 0.814723313
vt 0.884128809 0.815394819
vt 0.848753095 0.859210312
vt 0.887576997 0.814723313
vt 0.882182419 0.81158185
vt 0.897744954 0.817002475
vt 0.873844922 0.802073598
vt 0.873844922 0.802073598
vt 0.872287691 0.789270401
vt 0.897744954 0.817002475
vt 0.834055007 0.782364488
vt 0.818422675 0.794715106
vt 0.827284873 0.733646274
vt 0.951569855 0.824469328
vt 0.873750865 0.887751102
vt 0.951569855 0.824469328
vt 0.866803586 0.888360083
vt 0.83898592 0.87569952
vt 0.895533741 0.724054873
vt 0.951569855 0.748448968
vt 0.884405255 0.728850365
vt 0.872287691 0.789270401
vt 0.834863901 0.872369468
vt 0.818422675 0.794715106
vt 0.708079815 0.716728032
vt 0.735864341 0.723022819
vt 0.759273171 0.751763701
vt 0.746630847 0.569717407
vt 0.731053829 0.681880951
vt 0.740557075 0.570104599
vt 0.755085289 0.716728151
vt 0.697711825 0.909293175
vt 0.89870137 0.0546588302
vt 0.92713052 0.122226536
vt 0.841748834 0.357165813
vt 0.91299659 0.280276895
vt 0.905472875 0.310578465
vt 0.656445324 0.742063463
vt 0.673628747 0.724692166
vt 0.65711844 0.812569201
vt 0.336670965 0.895026565
vt 0.409008533 0.910062671
vt 0.34318915 0.908057988
vt 0.418511599 0.958459139
vt 0.207752272 1
vt 0.135358617 0.999066234
vt 0.209351599 0.8549335
vt 0.872858942 0.679151058
vt 0.0173474811 0.768087626
vt 0.923181117 0.591418743
vt 0.87053138 0.592123568
vt 0.865408421 0.548388064
vt 0.886256397 0.535394609
vt 0.640355766 0.886415839
vt 0.688298821 0.84942621
vt 0.844929516 0.721598923
vt 0.827284873 0.733646274
vt 0.0437215045 0.453179479
vt 2.3599771e-08 0.272039771
vt 0.253627658 0.330086708
vt 0.735864341 0.723022819
vt 0.780720472 0.744576454
vt 0.759273171 0.751763701
vt 0.871840537 0.51280719
vt 0.335039586 0.895440519
vt 0.87726438 0.343884766
vt 0.74884212 0.565211415
vt 0.694117069 0.357165933
vt 0.855399311 0.414398193
vt 0.769696116 0.573830247
vt 0.834863901 0.872369468
vt 0.924473166 0.540019274
vt 0.904600978 0.529972076
vt 0.446197599 0.958273292
vt 0.418511599 0.958459139
vt 0.230957985 0.858284533
vt 0.228109375 0.995796204
vt 0.626645088 0.406632543
vt 0.669844568 0.375049114
vt 0.744648635 0.566163123
vt 0.740557075 0.570104599
vt 0.691369176 0.00616490841
vt 0.8370713 0
vt 0.792171359 0.142296016
vt 0.921381891 0.369288266
vt 0.90247196 0.357961655
vt 0.907648146 0.357165813
vt 0.932510316 0.364492774
vt 0.230957985 0.858284533
vt 0.317227095 0.682320893
vt 0.334509432 0.695166469
vt 0.334509432 0.952514768
vt 0.864261448 0.374084115
vt 0.881906092 0.362036765
vt 0.630016744 0.107395291
vt 0.770221353 0.164412379
vt 0.626645088 0.12170738
vt 0.761886358 0.177564859
vt 0.924473166 0.540019274
vt 0.904600978 0.529972076
vt 0.909829199 0.528797984
vt 0.935118198 0.534772038
vt 0.228743345 0.45877862
vt 0.0645297319 0.489529967
vt 0.199716955 0.393197417
vt 0.0467377268 0.459853411
vt 0.374420643 0.739539862
vt 0.334509462 0.727858782
vt 0.315543145 0.670934141
vt 0.921381891 0.369288266
vt 0.90247196 0.357961655
vt 0.254184276 0.654383659
vt 0.665211916 0.0371116996
vt 0.334509432 0.695166469
vt 0.697711825 0.909293175
vt 0.729972064 0.871843874
vt 0.855399311 0.414398193
vt 0.855399311 0.716209054
vt 0.769696116 0.573830247
vt 0.80754894 0.890526235
vt 0.735594451 0.872200787
vt 0.884405255 0.728850365
vt 0.865495324 0.717523813
vt 0.870671451 0.716727972
vt 0.895533741 0.724054873
vt 0.626645088 0.240429282
vt 0.708079815 0.716728032
vt 0.759273171 0.751763701
vt 0.334509432 0.952514768
vt 0.0173474811 0.768087626
vt 0.593844295 0.747430623
vt 0.57823199 0.861060083
vt 0.524818778 0.816009581
vt 0.281508476 0.65237689
vt 0.761886358 0.177564859
vt 0.864113986 0.340421736
vt 0.841748834 0.357165813
vt 0.648273051 0.271201015
vt 0.626645088 0.240429282
vt 0.656445324 0.742063463
vt 0.083577536 0.98954463
vt 6.95799317e-05 0.844982743
vt 0.16882886 0.839600325
vt 0.884405255 0.728850365
vt 0.865495324 0.717523813
vt 0.731053829 0.681880951
vt 0.626645088 0.406632543
vt 0.740557075 0.570104599
vt 0.53310746 0.775270641
vt 0.593844295 0.747430623
vt 0.524818778 0.816009581
vt 0.591066897 0.740080416
vn 0.708607912 -0.471305698 0.525114954
vn 0.726713777 -0.474111944 0.497096449
vn 0.803907514 -0.389505982 0.449464083
vn 0.58022362 0.0162915885 0.814294279
vn 0.675070405 0.147104174 0.722938657
vn 0.630723953 0.167683542 0.757673681
vn 0.764300406 0.363897502 -0.532375395
vn 0.629808366 0.610847592 -0.479798764
vn 0.624943078 0.590625644 -0.510497332
vn -0.644866824 -0.762657702 0.0499979481
vn -0.574817479 -0.804880083 0.147488281
vn -0.547073126 -0.827303648 0.127591506
vn -0.305174053 -0.95158267 0.0368671194
vn -0.356648684 0.511080503 0.78204751
vn -0.268591136 0.56567198 0.779662848
vn -0.202927217 0.682956815 0.701705456
vn -0.0496202372 -0.367797762 0.928580999
vn 0.0839493573 -0.518321037 0.851055682
vn 0.0256271157 -0.463202536 0.885881841
vn 0.703047633 -0.506791115 0.498885363
vn 0.818002641 -0.384647757 0.427688837
vn 0.816621184 -0.370109767 0.442886859
vn 0.600609601 0.0680110008 0.796644568
vn 0.513985276 -0.827718437 -0.225169793
vn 0.589318454 -0.790724456 -0.165706351
vn 0.585205495 -0.761909544 -0.277539998
vn -0.070744738 -0.21367535 0.974339843
vn -0.0171724949 -0.517688394 0.855396986
vn -0.547073126 -0.827303648 0.127591506
vn -0.305174053 -0.95158267 0.0368671194
vn -0.15559116 -0.98775202 -0.0117211044
vn -0.361367702 -0.919876218 0.1524508
vn -0.292808652 -0.899401724 0.324560791
vn -0.817204595 0.50619179 0.275583804
vn -0.864233911 0.502516389 -0.0240190215
vn -0.71956867 0.646751583 0.252850682
vn -0.979207516 -0.0229178667 -0.201562792
vn -0.95383358 0.298042417 0.0370463133
vn 0.406346977 0.342605203 0.847055912
vn 0.449488759 0.412935913 0.792113364
vn 0.335268527 0.381014705 0.861639619
vn -0.899494827 0.392989844 0.19096604
vn -0.931479335 0.349279881 0.101733632
vn -0.950862706 0.265657157 0.159017146
vn -0.463352919 0.432893515 0.773244679
vn -0.461802125 0.300366223 0.834577084
vn -0.298852086 0.571649373 0.764136434
vn -0.305270374 0.785925627 0.537708998
vn 0.796073735 -0.105284758 0.595971465
vn 0.812697053 0.108719856 0.572454095
vn 0.665453672 0.152987361 0.730592966
vn -0.199019596 -0.82619369 0.527062774
vn -0.143625468 -0.899994135 0.411560833
vn -0.244488835 -0.886675715 0.392468333
vn -0.91425091 0.395693153 0.087019071
vn -0.437402785 0.146210983 0.887299895
vn 0.17052564 0.967315853 0.187673301
vn 0.47736308 0.861873209 0.171169862
vn 0.293495536 0.940220237 0.172760785
vn 0.138728112 0.990104616 -0.0211533457
vn -0.382392108 0.759487271 0.526265442
vn -0.341645002 0.775447607 0.530998826
vn 0.772781372 -0.271442682 0.573696792
vn 0.767607868 -0.152729169 0.622456431
vn 0.74289304 -0.187580436 0.642591178
vn 0.739621222 -0.198604524 0.643052578
vn 0.537546694 0.323304713 0.778792441
vn 0.611280084 0.349734157 0.709945619
vn 0.517250001 0.306402028 0.799105883
vn -0.360850811 -0.489079624 -0.794095576
vn -0.446275353 -0.555825233 -0.70135355
vn -0.501620948 -0.420837581 -0.75582546
vn 0.585136235 -0.299431324 0.75362891
vn 0.103975274 0.960221827 0.259158492
vn 0.140540525 0.977522254 0.157158524
vn 0.0798572153 0.971869886 0.221566409
vn 0.113101758 0.990125299 0.0828242153
vn 0.666024148 -0.41595149 0.619189918
vn 0.479435086 -0.518215954 0.708233178
vn 0.710714936 -0.431311846 0.555746675
vn 0.558787644 -0.655692637 0.507763267
vn -0.926521122 0.353031069 0.130105853
vn -0.8949669 0.419090718 0.152960926
vn 0.0116349682 0.690214753 0.72351104
vn -0.271733433 0.57961762 0.768247545
vn -0.126526549 0.503975749 0.854399979
vn 0.403792799 -0.570991874 0.71478641
vn 0.411044508 -0.796907187 0.442697823
vn 0.482265353 -0.660047531 0.575983882
vn 0.556810141 0.00865538418 0.830594778
vn 0.32480678 0.546999335 0.771551788
vn 0.369716227 0.143162474 0.918049157
vn 0.821790516 0.455941796 -0.341726989
vn 0.414785475 0.860619783 -0.295442939
vn 0.625972271 0.753963053 -0.199244648
vn 0.480429232 0.631721199 -0.608371615
vn -0.114535376 0.0921910256 -0.989132166
vn 0.347122282 0.141301751 -0.927113712
vn 0.182437733 -0.2456747 -0.952029645
vn -0.914725542 -0.135642454 0.380628735
vn -0.926014066 -0.211661473 0.312565893
vn -0.834605992 -0.141449198 0.532376647
vn -0.316338897 0.638310134 0.701776266
vn -0.378706515 0.672901332 0.635440946
vn -0.387972623 0.662397385 0.640864074
vn -0.316338897 0.638310134 0.701776266
vn 0.100448042 -0.773942292 0.625238776
vn 0.59096384 -0.633616745 0.499290973
vn 0.720514357 -0.658435702 -0.217535198
vn 0.768038273 -0.627573013 -0.127551898
vn 0.741579831 -0.629931629 -0.230749905
vn 0.603478611 0.175472513 0.777832091
vn 0.851762176 0.220898464 0.475084305
vn 0.870352447 -0.021901371 0.491941988
vn 0.990766644 -0.0931903124 0.0984734595
vn 0.873175204 -0.24706322 0.420148522
vn 0.228679791 0.232874185 -0.945238113
vn 0.0812858045 0.455389857 -0.886573553
vn 0.322826922 0.387692928 -0.863409996
vn 0.545005798 0.432521105 -0.718257844
vn 0.480429232 0.631721199 -0.608371615
vn 0.821790516 0.455941796 -0.341726989
vn -0.887753069 -0.28682664 0.360034794
vn -0.890377462 -0.28642875 0.353817046
vn -0.721265495 -0.299814641 0.624409497
vn -0.977267027 -0.14369534 0.15588741
vn -0.977267027 -0.14369534 0.15588741
vn -0.977267027 -0.14369534 0.15588741
vn -0.977267027 -0.14369534 0.15588741
vn -0.977267027 -0.14369534 0.15588741
vn -0.977267027 -0.14369534 0.15588741
vn -0.977267027 -0.14369534 0.15588741
vn 0.35721463 0.892104983 0.276670218
vn -0.0532305241 0.949168563 0.310234547
vn 0.46598947 0.787023067 0.404287636
vn -0.182688728 0.859928608 0.47660014
vn -0.370777011 0.928720772 0.00144878775
vn -0.37908563 0.777814806 0.501296461
vn -0.480484426 0.872663677 0.0871364176
vn 0.390798718 0.743995845 0.541983724
vn 0.52584368 0.659534931 0.537123859
vn 0.593483031 0.663484573 0.455594063
vn -0.974765778 0.167947426 0.147055209
vn -0.977405369 0.199331567 0.0703251362
vn -0.983016431 0.173284665 0.0604239963
vn -0.970622241 0.211511597 0.114696458
vn -0.388998181 0.859588981 0.331341594
vn -0.430818975 0.833929598 0.344900668
vn -0.449404836 0.809109271 0.378652304
vn 0.153943479 0.977024853 0.147390068
vn 0.130173534 0.990837097 0.0360105261
vn 0.0549368151 0.998183966 0.0247154608
vn -0.411209553 -0.812901795 0.412428558
vn -0.312360197 -0.684784889 0.658407748
vn 0.184432223 -0.812378168 0.553196609
vn 0.686027586 -0.0933181345 0.7215662
vn 0.685929477 -0.0949400663 0.721447885
vn 0.729239881 -0.179602414 0.660266638
vn 0.715477407 -0.262306303 0.647524178
vn 0.65523231 -0.304076076 0.691526175
vn 0.655036509 -0.302254379 0.692509651
vn 0.733358204 -0.327897877 0.595540822
vn 0.698614776 -0.0796282589 0.711053312
vn 0.698569894 -0.0790650249 0.711160243
vn 0.751568735 -0.15852657 0.640323102
vn 0.760902524 -0.241663426 0.602184236
vn 0.717546403 -0.356373101 0.5984357
vn 0.714268267 -0.358613133 0.601013541
vn -0.349408805 0.779470861 0.519941092
vn -0.248541191 0.72558403 0.641681552
vn -0.309730619 0.782717824 0.539833128
vn 0.154486388 0.696316838 0.700911522
vn -0.108586229 -0.91308099 0.393054932
vn -0.108586229 -0.91308099 0.393054932
vn -0.108586229 -0.91308099 0.393054932
vn -0.108586229 -0.91308099 0.393054932
vn 0.279930174 -0.882362187 0.378254086
vn 0.341228813 -0.828135908 0.444695204
vn 0.339563161 -0.828050911 0.446126223
vn 0.35423857 -0.837741077 0.41557762
vn 0.474876672 -0.727033854 0.495896995
vn 0.374938786 -0.839776099 0.392679363
vn 0.834973931 -0.151386917 0.529056311
vn 0.736958623 -0.211336002 0.642050743
vn 0.749945223 -0.232934713 0.619131446
vn -0.738037109 0.674709201 0.00828161836
vn -0.647060752 0.596618295 0.474719852
vn -0.600678146 0.790330648 0.120677918
vn -0.69774574 0.554116488 0.453988522
vn -0.686423838 0.726672649 0.0277317464
vn -0.546789467 0.661414266 0.513373733
vn -0.198666006 0.879092753 0.43327564
vn -0.481604695 0.874412596 -0.0588180795
vn 0.0755678117 0.35263443 0.932704926
vn 0.125091717 0.297681361 0.946434319
vn -0.0862522498 0.186392203 0.978681982
vn -0.75249505 0.625426114 0.206381544
vn -0.637240767 0.752281904 0.167320907
vn -0.761104167 0.646671295 0.050367415
vn -0.691529691 0.680985928 0.240924641
vn -0.0862522498 0.186392203 0.978681982
vn -0.213529125 0.456306458 0.863822758
vn -0.976426303 -0.0306201726 0.213668346
vn -0.955254674 0.154854804 0.252008975
vn -0.995305002 0.0225485638 0.0941251591
vn -0.978032351 -0.0411464795 0.204352006
vn 0.944901168 -0.00141787156 0.327352881
vn 0.937724292 0.0393191688 0.345148236
vn 0.924379706 0.148537442 0.351367205
vn -0.769910634 -0.285529912 -0.570710301
vn -0.740057409 -0.47229737 -0.478800625
vn -0.722223103 -0.483783692 -0.494314939
vn 0.283533424 0.752205253 -0.594807506
vn 0.174706489 0.826750517 -0.534753501
vn 0.187938035 0.821104348 -0.538950086
vn 0.27058059 0.265561163 0.925345063
vn -0.317503005 -0.466960609 0.825311899
vn -0.340013772 -0.522095561 0.782180786
vn -0.243014455 -0.564258158 0.789022624
vn -0.282310307 -0.540769577 0.792381942
vn -0.203914821 -0.601255238 0.772600114
vn -0.160041332 -0.556991637 0.814952195
vn -0.162272066 -0.549366415 0.819673419
vn 0.964871049 0.0281956811 0.261206567
vn 0.928892493 0.0668458864 0.364266962
vn 0.312191248 -0.722357988 0.617037714
vn 0.322523564 -0.739677072 0.590640604
vn 0.431472838 -0.728228748 0.532460451
vn 0.52885294 -0.222102031 0.819136918
vn 0.676377237 -0.192076877 0.711069763
vn 0.656539381 -0.144037396 0.74041152
vn 0.764035583 -0.184055507 -0.618363261
vn 0.814926863 0.0729018152 -0.574960411
vn 0.825208485 0.060591355 -0.561568856
vn -0.94472903 -0.214278147 0.248136699
vn -0.898782015 -0.276299745 0.340366215
vn -0.893970311 -0.309589058 0.323993474
vn -0.860317111 -0.360187083 0.360721111
vn 0.0872471035 0.730921507 0.676861644
vn 0.189590409 0.719049394 0.668598175
vn 0.30718267 0.758481503 0.574756145
vn -0.194315627 -0.118188947 0.97379297
vn -0.186131582 -0.32829535 0.926054597
vn -0.196064487 -0.244691893 0.949570656
vn 0.284072906 -0.750316381 0.596932113
vn 0.442501992 -0.732118428 0.517875075
vn 0.45309943 -0.716015458 0.531058073
vn 0.574843049 -0.196649581 0.794282258
vn -0.257173806 -0.963174582 -0.0784632564
vn -0.207964391 -0.978130639 -0.00335101015
vn -0.0893699676 -0.991948545 -0.089727737
vn -0.113835752 0.0212247223 0.993272901
vn -0.265085369 -0.265207738 0.927035391
vn -0.893970311 -0.309589058 0.323993474
vn -0.860317111 -0.360187083 0.360721111
vn -0.814746559 -0.451523006 0.363751322
vn -0.8073349 -0.436781973 0.396776885
vn -0.754578471 -0.471591711 0.456303179
vn -0.317414343 0.934118867 0.16331014
vn -0.379138499 0.915739179 -0.132950753
vn -0.154812396 0.980069697 0.124485262
vn -0.309311926 0.928794205 0.204126
vn -0.366444856 0.879538894 0.303528249
vn 0.76872772 -0.638092995 0.0435326323
vn 0.76872772 -0.638092995 0.0435326323
vn 0.76872772 -0.638092995 0.0435326323
vn 0.76872772 -0.638092995 0.0435326323
vn 0.686883986 -0.442254156 0.576716304
vn 0.686883986 -0.442254156 0.576716304
vn 0.686883986 -0.442254156 0.576716304
vn -0.331516594 -0.897499323 0.290846705
vn -0.331516594 -0.897499323 0.290846705
vn -0.331516594 -0.897499323 0.290846705
vn -0.166944996 0.735599637 -0.656523168
vn -0.0496197492 0.952972293 -0.298967868
vn -0.0722112283 0.847962022 -0.525115073
vn -0.166944996 0.735599637 -0.656523168
vn 0.795473099 0.558738828 0.234592289
vn 0.777830541 0.621090233 0.0960555673
vn 0.677654266 0.536876798 0.502541482
vn 0.111904159 -0.663386941 0.739861667
vn 0.111904159 -0.663386941 0.739861667
vn 0.111904159 -0.663386941 0.739861667
vn -0.942631364 -0.184043542 -0.27852121
vn -0.98404026 -0.172272682 0.0445747264
vn -0.989595354 -0.136328056 -0.0459963419
vn -0.0722112283 0.847962022 -0.525115073
vn -0.0496197492 0.952972293 -0.298967868
vn 0.0027734926 0.982501268 -0.186235517
vn 0.667957366 0.478413373 0.570047021
vn -0.159556612 -0.202333331 0.966231287
vn -0.159556612 -0.202333331 0.966231287
vn -0.159556612 -0.202333331 0.966231287
vn -0.968919873 -0.0320135467 0.245294407
vn -0.083104521 0.996533155 -0.00390644558
vn 0.463857442 0.537958324 0.703872919
vn 0.965841234 -0.149204478 -0.211869746
vn 0.965841234 -0.149204478 -0.211869746
vn 0.965841234 -0.149204478 -0.211869746
vn 0.780723274 0.580124378 0.232221693
vn 0.780723274 0.580124378 0.232221693
vn 0.780723274 0.580124378 0.232221693
vn 0.279047698 -0.226624489 -0.933152556
vn 0.279047698 -0.226624489 -0.933152556
vn 0.279047698 -0.226624489 -0.933152556
vn -0.130302995 0.471274823 -0.872307956
vn -0.130302995 0.471274823 -0.872307956
vn -0.130302995 0.471274823 -0.872307956
vn 0.122423746 0.97508806 -0.18497473
vn 0.122423746 0.97508806 -0.18497473
vn 0.122423746 0.97508806 -0.18497473
vn 0.46120137 0.326243371 0.825141549
vn 0.46120137 0.326243371 0.825141549
vn 0.46120137 0.326243371 0.825141549
vn 0.695004463 -0.665920496 0.271143556
vn 0.695004463 -0.665920496 0.271143556
vn 0.695004463 -0.665920496 0.271143556
vn -0.0154015999 -0.755993485 -0.654397905
vn 0.0249557365 -0.856056452 -0.516279578
vn -0.0535725355 -0.946499825 -0.318226546
vn -0.81561178 0.45575586 -0.356460571
vn -0.76725632 0.390638858 -0.508644164
vn -0.880099833 0.436058968 -0.187821671
vn -0.323656529 0.924283922 0.202350423
vn -0.323656529 0.924283922 0.202350423
vn -0.323656529 0.924283922 0.202350423
vn 0.536991477 -0.296202898 0.789875925
vn 0.352923185 -0.38038522 0.854840517
vn 0.362104595 -0.376744807 0.852609873
vn 0.0249557365 -0.856056452 -0.516279578
vn -0.0173200741 -0.967772007 -0.251231581
vn -0.0535725355 -0.946499825 -0.318226546
vn -0.81561178 0.45575586 -0.356460571
vn -0.880099833 0.436058968 -0.187821671
vn -0.872298241 0.468011945 -0.141635925
vn -0.00251555652 0.637831151 0.770172179
vn -0.00251555652 0.637831151 0.770172179
vn -0.00251555652 0.637831151 0.770172179
vn 0.135838747 -0.452073634 0.881576598
vn -0.175083756 -0.984205842 -0.0261618365
vn -0.921809554 0.387571007 0.0074622375
vn -0.449127525 0.351851165 0.821270525
vn -0.449127525 0.351851165 0.821270525
vn -0.449127525 0.351851165 0.821270525
vn 0.227515548 -0.733928442 0.63998884
vn 0.40131253 -0.811983287 0.423829347
vn 0.43253684 -0.801921308 0.412109345
vn -0.0990905464 -0.66288358 0.742136419
vn 0.680286765 -0.204914197 0.703718841
vn 0.588702857 -0.0606847815 0.80606848
vn 0.348525882 0.118168786 0.929820299
vn 0.168148085 -0.0147281755 0.985651731
vn 0.167178065 -0.0473567694 0.984788656
vn 0.202615559 -0.0153140621 0.979138613
vn 0.527436733 0.0656344891 0.847055197
vn 0.601950049 0.101066373 0.792112231
vn 0.488798171 0.136589468 0.861637831
vn -0.554749072 0.807258248 0.201463521
vn -0.590365887 0.800698638 0.101734564
vn -0.644632876 0.74426043 0.17471379
vn -0.620468318 -0.351108432 0.701243222
vn -0.627842784 -0.236520201 0.74153322
vn -0.522315204 -0.291427523 0.801409304
vn 0.20398365 0.769356608 0.60537678
vn 0.17828761 0.749891877 0.637083709
vn 0.172648013 0.825263798 0.537710488
vn 0.639933527 -0.509824812 0.57494688
vn 0.745892584 -0.342997849 0.570961237
vn 0.596868098 -0.241660088 0.765080869
vn -0.515083611 -0.113960832 0.84953022
vn -0.607135713 -0.21296379 0.765527606
vn -0.657845557 -0.156203836 0.736776471
vn -0.619456947 -0.428884774 0.657518685
vn -0.609066784 -0.309637725 0.730179429
vn -0.565017164 -0.308992475 0.76503545
vn -0.581390083 -0.336740583 0.740669608
vn 0.669672549 0.717061579 0.193291187
vn 0.870112062 0.462176442 0.171167016
vn 0.758606017 0.627984464 0.173644751
vn 0.656168938 0.754317284 -0.0211643875
vn 0.0935796276 0.84515208 0.526270807
vn 0.136445552 0.836315215 0.530998468
vn 0.499779671 -0.648914516 0.57369858
vn 0.560171187 -0.546587467 0.62245512
vn 0.520450592 -0.562324524 0.642590344
vn 0.511696398 -0.569782376 0.643051147
vn 0.598833978 -0.278643221 0.75083673
vn 0.678006053 -0.196611404 0.708273768
vn 0.57609874 -0.273814172 0.770153165
vn -0.56920433 -0.213184223 -0.794077396
vn -0.677171469 -0.222581625 -0.701353073
vn -0.649960101 -0.0792486593 -0.755825043
vn 0.327222496 -0.570060015 0.753629267
vn 0.610743165 0.74821794 0.259157926
vn 0.596877396 0.771132946 0.221565887
vn 0.67470777 0.730791986 0.103501156
vn 0.657544494 0.733890951 0.17040956
vn 0.634822726 0.767778277 0.086698927
vn 0.354817778 -0.749501288 0.55888474
vn 0.117919654 -0.879760444 0.460561126
vn 0.379477143 -0.784649432 0.490226895
vn 0.132566631 -0.751670301 0.646078765
vn -0.584164023 0.801139474 0.130106911
vn -0.521692812 0.839308739 0.152961969
vn 0.0579423048 0.528333664 0.847057343
vn 0.040672116 0.609014153 0.792115808
vn -0.0200168639 0.507121146 0.861642241
vn -0.922360063 -0.335833311 0.190965578
vn -0.915371954 -0.389543593 0.101733834
vn -0.871755362 -0.463422805 0.159003079
vn -0.634078562 -0.00612746645 0.773244381
vn -0.541550279 -0.101019233 0.834576786
vn -0.610666633 0.207801431 0.764136732
vn -0.763103962 0.358522147 0.537712038
vn 0.64904058 0.472826481 0.595970988
vn 0.513475537 0.639248848 0.572454333
vn 0.376327276 0.56974715 0.730592847
vn 0.425727904 -0.735500216 0.527062774
vn 0.516739726 -0.750731766 0.411560357
vn 0.434600055 -0.810570955 0.392552614
vn -0.934909523 -0.344052225 0.0870182291
vn -0.417566478 -0.19581084 0.887297273
vn -0.543691754 0.81803292 0.187673464
vn -0.248787045 0.953312933 0.171170741
vn -0.435962677 0.883227229 0.172760189
vn -0.582422674 0.812611222 -0.0211407244
vn -0.800712645 0.286175132 0.526272714
vn -0.782214582 0.325852513 0.530999422
vn 0.74677074 0.336455852 0.573699296
vn 0.66115272 0.418838531 0.622455955
vn 0.66729337 0.376558512 0.642591119
vn 0.67252934 0.3663176 0.643051803
vn 0.166241571 0.604853332 0.778791487
vn 0.201402083 0.67484498 0.709944725
vn 0.16320309 0.578615546 0.799104989
vn 0.076002121 -0.603045464 -0.794077933
vn 0.0601379462 -0.710184455 -0.70144242
vn -0.0729600787 -0.650695145 -0.755825758
vn 0.630208135 0.18676129 0.753629923
vn -0.586987913 0.76699549 0.259158671
vn -0.61248523 0.758795261 0.221566528
vn -0.57244432 0.804741383 0.157158837
vn -0.60099858 0.794946969 0.0828257427
vn 0.769143701 0.158178955 0.619190872
vn 0.704570234 -0.0445619449 0.708233595
vn 0.812098384 0.177879691 0.555747211
vn 0.856847465 -0.089376606 0.507763922
vn -0.914369106 -0.383407831 0.13010639
vn -0.937083244 -0.313811749 0.152961463
vn 0.332597524 -0.757187665 -0.562179506
vn 0.363644302 -0.753190577 -0.548148513
vn 0.0939084366 -0.782730818 -0.615234673
vn -0.989595354 -0.136328056 -0.0459963419
vn -0.883437693 -0.113797508 -0.454519391
vn -0.942631364 -0.184043542 -0.27852121
vn -0.883437693 -0.113797508 -0.454519391
vn -0.793494821 0.5728423 0.205469236
vn -0.0557873957 -0.973898292 -0.220022932
vn 0.207451373 -0.791900575 -0.574332118
vn 0.534745097 0.668142736 -0.517332673
vn 0.673499763 -0.729663134 -0.118278816
vn 0.591734469 -0.806071162 0.00997985527
vn -0.48369354 -0.182227105 -0.856057107
vn -0.593253016 0.110264264 -0.797428727
vn -0.400705814 -0.135671332 -0.906105936
vn -0.00112106465 -0.984354258 -0.176197201
vn -0.0267056897 -0.953534603 -0.300097436
vn 0.0926755518 -0.974844038 -0.202707633
vn 0.141758665 -0.96958077 -0.199543685
vn -0.127305552 0.985139132 0.115300328
vn -0.309311926 0.928794205 0.204126
vn -0.154812396 0.980069697 0.124485262
vn 0.685588121 0.72461772 0.0699862614
vn -0.818500638 -0.423547804 0.388154566
vn -0.587980151 -0.559375525 0.584275961
vn -0.647760391 -0.591890931 0.479657769
vn -0.608496904 -0.670731783 0.424087673
vn -0.566786766 -0.652283311 0.5032686
vn -0.643001676 0.710725844 0.285337865
vn -0.594715059 0.776024163 0.210001141
vn 0.566691995 -0.727359951 0.387049973
vn 0.5040977 -0.785966873 0.357968658
vn -0.980056822 0.167355046 0.107149497
vn -0.954842448 0.289943129 -0.0648774207
vn -0.973353028 0.21924831 0.067187883
vn 0.363644302 -0.753190577 -0.548148513
vn 0.167988777 -0.868541539 -0.466277897
vn 0.0939084366 -0.782730818 -0.615234673
vn 0.179591104 0.981248975 0.0699821189
vn 0.0265913885 -0.998251021 -0.0527985394
vn 0.690941632 -0.449753761 0.56596911
vn 0.892564893 0.0759982914 -0.444468319
vn 0.892564893 0.0759982914 -0.444468319
vn 0.892564893 0.0759982914 -0.444468319
vn 0.892564893 0.0759982914 -0.444468319
vn -0.546724796 0.834382355 0.0699845552
vn -0.637377858 -0.563007116 0.526091695
vn -0.667139173 -0.525889516 0.527603507
vn -0.836353362 -0.304887772 0.455583721
vn -0.799298465 -0.237732083 0.551910818
vn 0.0480908714 0.998445928 -0.0281587765
vn -0.158738494 0.980327308 0.117305659
vn 0.000794556225 -0.981188774 -0.193049312
vn 0.000794556225 -0.981188774 -0.193049312
vn 0.000794556225 -0.981188774 -0.193049312
vn 0.000794556225 -0.981188774 -0.193049312
vn -0.943858802 -0.304751307 0.12750414
vn -0.785846055 -0.599534154 -0.1516736
vn -0.980858505 -0.190985054 0.0379664712
vn 0.437441498 -0.752436042 -0.492427737
vn 0.47806561 -0.745661914 -0.464157015
vn 0.469694346 -0.761850595 -0.446061701
vn 0.380352169 -0.818487108 -0.430594057
vn 0.980362952 0.0592816845 0.188080341
vn 0.927485824 0.287600279 0.238864288
vn 0.915258765 0.292237163 0.277306467
vn 0.893433213 0.151407316 0.422910154
vn -0.177060798 -0.916739941 0.358102381
vn -0.0913354829 -0.917524099 0.387049645
vn -0.840639293 0.535448313 -0.0813675821
vn -0.71956867 0.646751583 0.252850682
vn -0.797319829 0.586567521 -0.142196164
vn -0.550473034 0.827433884 0.111052781
vn -0.0436007529 -0.869264185 -0.492421299
vn -0.00585364364 -0.885737002 -0.464150429
vn -0.0216981769 -0.894742429 -0.446055084
vn -0.127472371 -0.89350158 -0.4305875
vn -0.379965454 0.924213767 -0.0381488279
vn -0.459095418 0.88818568 -0.0189141072
vn -0.345449299 0.937875986 -0.032458242
vn -0.369866282 0.927753806 -0.0497189499
vn 0.472188294 -0.820457935 -0.322315007
vn 0.696131408 -0.699994862 -0.159399867
vn 0.309992969 -0.690522254 0.653516114
vn -0.186268732 -0.869625151 0.457226366
vn -0.231341019 -0.856247604 0.461867303
vn 0.030978173 -0.998575687 0.0434403941
vn -0.95383358 0.298042417 0.0370463133
vn 0.831636012 -0.256086469 -0.492748737
vn 0.311462522 0.815211833 -0.488283426
vn 0.454296559 0.703786373 -0.546167791
vn 0.159556106 0.202333406 -0.966231346
vn 0.159556106 0.202333406 -0.966231346
vn 0.159556106 0.202333406 -0.966231346
vn 0.862830758 0.213448465 0.458216786
vn 0.927593529 0.0523727238 0.369901747
vn 0.835709631 -0.243127391 -0.492421001
vn 0.860452831 -0.210203528 -0.46415019
vn 0.865556598 -0.227699265 -0.446054846
vn 0.839926898 -0.330328941 -0.430587411
vn -0.624885321 0.74363935 0.237737268
vn -0.072127685 -0.492058516 0.867569029
vn -0.28246069 -0.393871993 0.874688864
vn -0.186245173 0.974358499 0.126246855
vn -0.414904267 -0.909821987 0.00885351934
vn -0.912068665 0.32498461 0.250031739
vn -0.793494761 0.430026889 0.430631101
vn -0.861812472 0.470962793 0.188344032
vn -0.0319332853 -0.988335788 0.148904502
vn 0.715019822 0.666247606 0.211803168
vn 0.539576232 0.798486888 0.266975611
vn 0.521781683 0.793455184 0.313324988
vn 0.618872285 0.719264507 0.31568259
vn 0.45819813 0.886255622 0.0678626224
vn -0.846807659 -0.316503346 -0.427483618
vn -0.854648292 0.49206087 0.165688023
vn -0.763013422 0.583884537 0.277289748
vn -0.808082283 0.584787488 0.0708990395
vn 0.464916378 -0.758153439 0.457226336
vn 0.423053682 -0.779553831 0.461867243
vn -0.381180942 -0.438707054 -0.813779712
vn -0.381180942 -0.438707054 -0.813779712
vn -0.381180942 -0.438707054 -0.813779712
vn -0.271733433 0.57961762 0.768247545
vn -0.398458838 0.593915761 0.698923945
vn -0.126526549 0.503975749 0.854399979
vn -0.387972623 0.662397385 0.640864074
f 1/1/1 2/2/2 3/3/3
f 4/4/4 5/5/5 6/6/6
f 7/7/7 8/8/8 9/9/9
f 10/10/10 11/11/11 12/12/12
f 12/12/12 11/11/11 13/13/13
f 14/14/14 15/15/15 16/16/16
f 17/17/17 18/18/18 19/19/19
f 2/2/2 20/20/20 3/3/3
f 21/21/21 1/1/1 3/3/3
f 1/1/1 21/21/21 22/22/22
f 4/4/4 23/23/23 5/5/5
f 24/24/24 25/25/25 26/26/26
f 19/19/19 27/27/27 17/17/17
f 17/17/17 28/28/28 18/18/18
f 29/29/29 30/30/30 31/31/31
f 32/32/32 33/33/33 29/29/29
f 34/34/34 35/35/35 36/36/36
f 37/37/37 34/34/34 36/36/36
f 36/36/36 38/38/38 37/37/37
f 39/39/39 40/40/40 41/41/41
f 42/42/42 43/43/43 44/44/44
f 45/45/45 46/46/46 47/47/47
f 45/45/45 47/47/47 48/48/48
f 49/49/49 50/50/50 51/51/51
f 52/52/52 53/53/53 54/54/54
f 44/44/44 55/55/55 42/42/42
f 45/45/45 56/56/56 46/46/46
f 57/57/57 58/58/58 59/59/59
f 58/58/58 60/60/60 59/59/59
f 48/48/48 61/61/61 62/62/62
f 62/62/62 45/45/45 48/48/48
f 63/63/63 64/64/64 65/65/65
f 64/64/64 66/66/66 65/65/65
f 67/67/67 68/68/68 69/69/69
f 70/70/70 71/71/71 72/72/72
f 50/50/50 73/73/73 51/51/51
f 59/59/59 74/74/74 75/75/75
f 74/74/74 59/59/59 76/76/76
f 59/59/59 75/75/75 57/57/57
f 57/57/57 75/75/75 77/77/77
f 78/78/78 79/79/79 80/80/80
f 79/79/79 81/81/81 80/80/80
f 82/82/82 83/83/83 43/43/43
f 44/44/44 43/43/43 83/83/83
f 84/84/84 85/85/85 86/86/86
f 87/87/87 88/88/88 89/89/89
f 90/90/90 91/91/91 92/92/92
f 93/93/93 94/94/94 95/95/95
f 94/94/94 93/93/93 96/96/96
f 97/97/97 98/98/98 99/99/99
f 100/100/100 101/101/101 102/102/102
f 85/85/85 103/103/103 104/104/104
f 85/85/85 104/104/104 105/105/105
f 84/84/84 106/106/106 85/85/85
f 107/107/107 88/88/88 87/87/87
f 88/88/88 108/108/108 89/89/89
f 109/109/109 110/110/110 111/111/111
f 90/90/90 112/112/112 91/91/91
f 113/113/113 114/114/114 115/115/115
f 116/116/116 115/115/115 114/114/114
f 117/117/117 118/118/118 119/119/119
f 120/120/120 121/121/121 122/122/122
f 101/101/101 123/123/123 124/124/124
f 102/102/102 125/125/125 100/100/100
f 126/126/126 127/127/127 128/128/128
f 127/127/127 126/126/126 129/129/129
f 128/128/128 127/127/127 130/130/130
f 131/131/131 127/127/127 129/129/129
f 127/127/127 131/131/131 132/132/132
f 133/133/133 134/134/134 135/135/135
f 136/136/136 137/137/137 138/138/138
f 137/137/137 136/136/136 139/139/139
f 140/140/140 141/141/141 142/142/142
f 143/143/143 144/144/144 145/145/145
f 145/145/145 146/146/146 143/143/143
f 147/147/147 148/148/148 149/149/149
f 150/150/150 151/151/151 152/152/152
f 153/153/153 154/154/154 155/155/155
f 156/156/156 157/157/157 158/158/158
f 159/159/159 160/160/160 161/161/161
f 161/161/161 162/162/162 159/159/159
f 163/163/163 164/164/164 165/165/165
f 166/166/166 167/167/167 168/168/168
f 169/169/169 170/170/170 171/171/171
f 170/170/170 169/169/169 172/172/172
f 173/173/173 174/174/174 175/175/175
f 173/173/173 175/175/175 176/176/176
f 177/177/177 178/178/178 179/179/179
f 180/180/180 181/181/181 182/182/182
f 183/183/183 184/184/184 185/185/185
f 186/186/186 187/187/187 188/188/188
f 187/187/187 186/186/186 189/189/189
f 190/190/190 191/191/191 192/192/192
f 193/193/193 191/191/191 190/190/190
f 194/194/194 195/195/195 196/196/196
f 197/197/197 198/198/198 199/199/199
f 198/198/198 197/197/197 200/200/200
f 194/194/194 201/201/201 202/202/202
f 203/203/203 204/204/204 205/205/205
f 205/205/205 206/206/206 203/203/203
f 207/207/207 208/208/208 209/209/209
f 210/210/210 211/211/211 212/212/212
f 213/213/213 214/214/214 215/215/215
f 194/194/194 216/216/216 195/195/195
f 217/217/217 218/218/218 219/219/219
f 218/218/218 220/220/220 219/219/219
f 219/219/219 221/221/221 217/217/217
f 217/217/217 222/222/222 223/223/223
f 222/222/222 217/217/217 221/221/221
f 224/224/224 208/208/208 207/207/207
f 208/208/208 224/224/224 225/225/225
f 226/226/226 227/227/227 228/228/228
f 229/229/229 230/230/230 231/231/231
f 232/232/232 233/233/233 234/234/234
f 235/235/235 236/236/236 237/237/237
f 237/237/237 236/236/236 238/238/238
f 239/239/239 240/240/240 241/241/241
f 242/242/242 243/243/243 244/244/244
f 227/227/227 245/245/245 228/228/228
f 246/246/246 226/226/226 228/228/228
f 226/226/226 246/246/246 247/247/247
f 229/229/229 248/248/248 230/230/230
f 249/249/249 250/250/250 251/251/251
f 244/244/244 252/252/252 242/242/242
f 242/242/242 253/253/253 243/243/243
f 254/254/254 255/255/255 256/256/256
f 257/257/257 258/258/258 254/254/254
f 259/259/259 260/260/260 261/261/261
f 259/259/259 262/262/262 263/263/263
f 262/262/262 259/259/259 261/261/261
f 264/264/264 265/265/265 266/266/266
f 266/266/266 267/267/267 264/264/264
f 268/268/268 269/269/269 270/270/270
f 271/271/271 272/272/272 273/273/273
f 274/274/274 275/275/275 276/276/276
f 275/275/275 274/274/274 277/277/277
f 278/278/278 279/279/279 280/280/280
f 281/281/281 282/282/282 283/283/283
f 284/284/284 285/285/285 286/286/286
f 287/287/287 288/288/288 289/289/289
f 278/278/278 280/280/280 290/290/290
f 291/291/291 292/292/292 293/293/293
f 286/286/286 285/285/285 294/294/294
f 289/289/289 288/288/288 295/295/295
f 290/290/290 280/280/280 296/296/296
f 297/297/297 298/298/298 299/299/299
f 300/300/300 301/301/301 302/302/302
f 303/303/303 304/304/304 305/305/305
f 306/306/306 307/307/307 308/308/308
f 309/309/309 310/310/310 311/311/311
f 312/312/312 313/313/313 314/314/314
f 315/315/315 316/316/316 317/317/317
f 318/318/318 319/319/319 320/320/320
f 321/321/321 322/322/322 323/323/323
f 324/324/324 325/325/325 326/326/326
f 327/327/327 328/328/328 329/329/329
f 330/330/330 331/331/331 332/332/332
f 333/333/333 334/334/334 335/335/335
f 336/336/336 337/337/337 338/338/338
f 329/329/329 328/328/328 339/339/339
f 332/332/332 331/331/331 340/340/340
f 335/335/335 334/334/334 341/341/341
f 342/342/342 343/343/343 344/344/344
f 345/345/345 154/154/154 153/153/153
f 346/346/346 181/181/181 347/347/347
f 180/180/180 347/347/347 181/181/181
f 348/348/348 345/345/345 153/153/153
f 349/349/349 350/350/350 351/351/351
f 352/352/352 349/349/349 353/353/353
f 353/353/353 349/349/349 351/351/351
f 349/349/349 352/352/352 354/354/354
f 355/355/355 356/356/356 357/357/357
f 358/358/358 359/359/359 360/360/360
f 361/361/361 362/362/362 363/363/363
f 364/364/364 365/365/365 366/366/366
f 367/367/367 368/368/368 369/369/369
f 370/370/370 371/371/371 372/372/372
f 373/373/373 374/374/374 375/375/375
f 361/361/361 376/376/376 362/362/362
f 377/377/377 378/378/378 379/379/379
f 378/378/378 380/380/380 379/379/379
f 366/366/366 381/381/381 382/382/382
f 382/382/382 364/364/364 366/366/366
f 383/383/383 384/384/384 385/385/385
f 384/384/384 386/386/386 385/385/385
f 387/387/387 388/388/388 389/389/389
f 390/390/390 391/391/391 392/392/392
f 368/368/368 393/393/393 369/369/369
f 394/394/394 379/379/379 395/395/395
f 379/379/379 394/394/394 396/396/396
f 379/379/379 396/396/396 377/377/377
f 377/377/377 396/396/396 397/397/397
f 377/377/377 397/397/397 398/398/398
f 399/399/399 400/400/400 401/401/401
f 400/400/400 399/399/399 402/402/402
f 403/403/403 404/404/404 359/359/359
f 360/360/360 359/359/359 404/404/404
f 405/405/405 406/406/406 407/407/407
f 408/408/408 409/409/409 410/410/410
f 411/411/411 412/412/412 413/413/413
f 411/411/411 413/413/413 414/414/414
f 415/415/415 416/416/416 417/417/417
f 418/418/418 419/419/419 420/420/420
f 410/410/410 421/421/421 408/408/408
f 411/411/411 422/422/422 412/412/412
f 423/423/423 424/424/424 425/425/425
f 424/424/424 426/426/426 425/425/425
f 414/414/414 427/427/427 428/428/428
f 428/428/428 411/411/411 414/414/414
f 429/429/429 430/430/430 431/431/431
f 430/430/430 432/432/432 431/431/431
f 433/433/433 434/434/434 435/435/435
f 436/436/436 437/437/437 438/438/438
f 416/416/416 439/439/439 417/417/417
f 440/440/440 425/425/425 441/441/441
f 425/425/425 440/440/440 442/442/442
f 425/425/425 442/442/442 423/423/423
f 423/423/423 442/442/442 443/443/443
f 444/444/444 445/445/445 446/446/446
f 445/445/445 447/447/447 446/446/446
f 448/448/448 449/449/449 409/409/409
f 410/410/410 409/409/409 449/449/449
f 450/450/450 451/451/451 452/452/452
f 453/453/453 454/454/454 455/455/455
f 454/454/454 453/453/453 456/456/456
f 457/457/457 197/197/197 199/199/199
f 458/458/458 459/459/459 32/32/32
f 9/9/9 460/460/460 7/7/7
f 461/461/461 462/462/462 24/24/24
f 463/463/463 464/464/464 465/465/465
f 466/466/466 467/467/467 468/468/468
f 469/469/469 468/468/468 467/467/467
f 470/470/470 471/471/471 472/472/472
f 398/398/398 473/473/473 377/377/377
f 254/254/254 256/256/256 257/257/257
f 257/257/257 256/256/256 474/474/474
f 475/475/475 476/476/476 477/477/477
f 475/475/475 477/477/477 478/478/478
f 479/479/479 480/480/480 200/200/200
f 198/198/198 200/200/200 480/480/480
f 481/481/481 418/418/418 482/482/482
f 482/482/482 418/418/418 420/420/420
f 483/483/483 484/484/484 485/485/485
f 486/486/486 487/487/487 488/488/488
f 77/77/77 489/489/489 57/57/57
f 468/468/468 490/490/490 466/466/466
f 22/22/22 491/491/491 1/1/1
f 492/492/492 493/493/493 494/494/494
f 494/494/494 495/495/495 492/492/492
f 443/443/443 496/496/496 423/423/423
f 497/497/497 475/475/475 478/478/478
f 497/497/497 478/478/478 498/498/498
f 102/102/102 101/101/101 499/499/499
f 102/102/102 499/499/499 500/500/500
f 501/501/501 470/470/470 472/472/472
f 470/470/470 501/501/501 502/502/502
f 503/503/503 504/504/504 505/505/505
f 503/503/503 505/505/505 506/506/506
f 507/507/507 508/508/508 509/509/509
f 510/510/510 511/511/511 512/512/512
f 512/512/512 513/513/513 510/510/510
f 514/514/514 515/515/515 516/516/516
f 514/514/514 516/516/516 517/517/517
f 52/52/52 518/518/518 519/519/519
f 518/518/518 52/52/52 54/54/54
f 520/520/520 521/521/521 522/522/522
f 523/523/523 522/522/522 521/521/521
f 524/524/524 525/525/525 526/526/526
f 526/526/526 527/527/527 524/524/524
f 528/528/528 529/529/529 530/530/530
f 529/529/529 531/531/531 530/530/530
f 532/532/532 109/109/109 111/111/111
f 532/532/532 111/111/111 533/533/533
f 247/247/247 534/534/534 226/226/226
f 535/535/535 52/52/52 519/519/519
f 535/535/535 519/519/519 536/536/536
f 251/251/251 537/537/537 249/249/249
f 520/520/520 538/538/538 521/521/521
f 234/234/234 539/539/539 232/232/232
f 124/124/124 499/499/499 101/101/101
f 540/540/540 541/541/541 215/215/215
f 213/213/213 215/215/215 541/541/541
f 32/32/32 29/29/29 31/31/31
f 32/32/32 31/31/31 458/458/458
f 542/542/542 543/543/543 544/544/544
f 207/207/207 545/545/545 546/546/546
f 545/545/545 207/207/207 209/209/209
f 547/547/547 548/548/548 549/549/549
f 549/549/549 550/550/550 547/547/547
f 551/551/551 522/522/522 523/523/523
f 552/552/552 217/217/217 223/223/223
f 217/217/217 552/552/552 553/553/553
f 554/554/554 502/502/502 501/501/501
f 555/555/555 250/250/250 249/249/249
f 556/556/556 557/557/557 558/558/558
f 537/537/537 559/559/559 249/249/249
f 560/560/560 561/561/561 562/562/562
f 560/560/560 562/562/562 563/563/563
f 560/560/560 563/563/563 564/564/564
f 212/212/212 565/565/565 210/210/210
f 566/566/566 567/567/567 568/568/568
f 26/26/26 461/461/461 24/24/24
f 569/569/569 418/418/418 481/481/481
f 569/569/569 481/481/481 570/570/570
f 571/571/571 572/572/572 573/573/573
f 574/574/574 575/575/575 576/576/576
f 575/575/575 574/574/574 577/577/577
