# Extracted from the Cocos Creator 3.8.3 playable build
# Geometry-only OBJ preview for Unity; rig and animation stay in the raw assets.
o gong
v 0.406317443 0 3.68483946e-08
v 0.406317443 1.06240189 1.96185695e-07
v 0.346120894 0 0.0571786948
v 0.346120894 1.06240189 0.0485444814
v 0.281839281 0 3.68483946e-08
v 0.281839281 1.06240189 1.96335066e-07
v 0.406317443 -1.05379057 -1.22488942e-07
v 0.346120894 -1.05379057 0.048544161
v 0.281839281 -1.05379057 -1.22638269e-07
v 0.346120894 0 -0.057178624
v 0.346120894 1.06240189 -0.0485440865
v 0.346120894 -1.05379057 -0.0485444069
v -0.249808341 0.826348424 0.114934884
v -0.435773611 0 0.143857911
v -0.0864392072 0.738581657 1.57210181e-07
v -0.211116016 0 3.68483946e-08
v 0.580649078 1.0493257 2.07833637e-07
v 0.327979416 1.10119617 0.124752469
v 0.327979416 1.10119617 0.124752469
v 0.0917974859 1.15273845 2.24708174e-07
v -0.249808341 0.826348424 0.114934884
v -0.442893654 0.901622117 1.83791173e-07
v 0.633381009 1.32339275 2.53678735e-07
v 0.367913187 1.32339251 0.182892412
v 0.367913187 1.32339251 0.182892412
v 0.147254631 1.32339251 2.53529294e-07
v 0.633381009 1.32339275 2.53678735e-07
v 0.147254631 1.32339251 2.53529294e-07
v 0.367913187 1.32339251 0.182892412
v -0.435773611 0 0.143857911
v -0.633381665 0 3.68483946e-08
v -0.249808341 -0.826348245 0.114934616
v -0.0864392072 -0.73858124 -8.35132923e-08
v 0.327979416 -1.10119498 0.124752119
v 0.580649078 -1.04932535 -1.34136855e-07
v -0.442893654 -0.901620924 -1.10094341e-07
v 0.0917974859 -1.15273774 -1.51011378e-07
v -0.249808341 -0.826348245 0.114934616
v 0.327979416 -1.10119498 0.124752119
v 0.633381009 -1.32339227 -1.79981811e-07
v 0.367913187 -1.32339227 0.18289201
v 0.147254631 -1.32339227 -1.79683141e-07
v 0.367913187 -1.32339227 0.18289201
v 0.633381009 -1.32339227 -1.79981811e-07
v 0.367913187 -1.32339227 0.18289201
v 0.147254631 -1.32339227 -1.79683141e-07
v -0.249808341 0.826348424 -0.114934534
v -0.0864392072 0.738581657 1.57210181e-07
v -0.435773611 0 -0.143857837
v -0.211116016 0 3.68483946e-08
v 0.327979416 1.10119617 -0.124752052
v 0.580649078 1.0493257 2.07833637e-07
v -0.442893654 0.901622117 1.83791173e-07
v 0.0917974859 1.15273845 2.24708174e-07
v -0.249808341 0.826348424 -0.114934534
v 0.327979416 1.10119617 -0.124752052
v 0.633381009 1.32339275 2.53678735e-07
v 0.367913187 1.32339251 -0.18289192
v 0.147254631 1.32339251 2.53529294e-07
v 0.367913187 1.32339251 -0.18289192
v 0.367913187 1.32339251 -0.18289192
v -0.633381665 0 3.68483946e-08
v -0.435773611 0 -0.143857837
v -0.249808341 -0.826348245 -0.114934802
v -0.0864392072 -0.73858124 -8.35132923e-08
v 0.580649078 -1.04932535 -1.34136855e-07
v 0.327979416 -1.10119498 -0.124752387
v 0.327979416 -1.10119498 -0.124752387
v 0.0917974859 -1.15273774 -1.51011378e-07
v -0.249808341 -0.826348245 -0.114934802
v -0.442893654 -0.901620924 -1.10094341e-07
v 0.633381009 -1.32339227 -1.79981811e-07
v 0.367913187 -1.32339227 -0.182892337
v 0.367913187 -1.32339227 -0.182892337
v 0.147254631 -1.32339227 -1.79683141e-07
v 0.367913187 -1.32339227 -0.182892337
vt 0.859300017 0.195630014
vt 0.940900028 0.195630014
vt 0.859300017 0.202309966
vt 0.940900028 0.202309966
vt 0.859300017 0.209249973
vt 0.940900028 0.209249973
vt 0.777689993 0.195630014
vt 0.777689993 0.202309966
vt 0.777689993 0.209249973
vt 0.859300017 0.202309966
vt 0.940900028 0.202309966
vt 0.777689993 0.202309966
vt 0.909850001 0.154434979
vt 0.826080024 0.157279968
vt 0.902769983 0.127210021
vt 0.826080024 0.127210021
vt 0.956920028 0.0797500014
vt 0.956920028 0.113870025
vt 0.956920028 0.113870025
vt 0.956920028 0.139940023
vt 0.909850001 0.154434979
vt 0.912370026 0.180450022
vt 0.98672998 0.0797500014
vt 0.975665033 0.113139987
vt 0.975665033 0.113139987
vt 0.98672998 0.139940023
vt 0.98672998 0.0797500014
vt 0.98672998 0.139940023
vt 0.975665033 0.113139987
vt 0.826080024 0.157279968
vt 0.826080024 0.180450022
vt 0.742310047 0.154434979
vt 0.749390006 0.127210021
vt 0.695240021 0.113870025
vt 0.695240021 0.0797500014
vt 0.739790022 0.180450022
vt 0.695240021 0.139940023
vt 0.742310047 0.154434979
vt 0.695240021 0.113870025
vt 0.665430009 0.0797500014
vt 0.676490009 0.113139987
vt 0.665430009 0.139940023
vt 0.676490009 0.113139987
vt 0.665430009 0.0797500014
vt 0.676490009 0.113139987
vt 0.665430009 0.139940023
vt 0.909850001 0.154434979
vt 0.902769983 0.127210021
vt 0.826080024 0.157279968
vt 0.826080024 0.127210021
vt 0.956920028 0.113870025
vt 0.956920028 0.0797500014
vt 0.912370026 0.180450022
vt 0.956920028 0.139940023
vt 0.909850001 0.154434979
vt 0.956920028 0.113870025
vt 0.98672998 0.0797500014
vt 0.975665033 0.113139987
vt 0.98672998 0.139940023
vt 0.975665033 0.113139987
vt 0.975665033 0.113139987
vt 0.826080024 0.180450022
vt 0.826080024 0.157279968
vt 0.742310047 0.154434979
vt 0.749390006 0.127210021
vt 0.695240021 0.0797500014
vt 0.695240021 0.113870025
vt 0.695240021 0.113870025
vt 0.695240021 0.139940023
vt 0.742310047 0.154434979
vt 0.739790022 0.180450022
vt 0.665430009 0.0797500014
vt 0.676490009 0.113139987
vt 0.676490009 0.113139987
vt 0.665430009 0.139940023
vt 0.676490009 0.113139987
vn 1 -7.57230794e-08 2.40211993e-08
vn 0.999989331 0.00462740194 0
vn -5.33548446e-05 -1.04208681e-07 1
vn 5.51331541e-05 0.00406343257 0.999991834
vn -1 3.75331304e-08 0
vn -0.999987781 0.00494128559 9.56942259e-08
vn 0.999989212 -0.00466536731 -4.82382028e-08
vn 5.57864005e-05 -0.00409696391 0.999991596
vn -0.999987602 -0.00498158811 -9.64761995e-08
vn -5.333437e-05 1.89303108e-07 -1
vn 5.50926379e-05 0.00406356575 -0.999991834
vn 5.57864114e-05 -0.00409650803 -0.999991596
vn -0.103342384 0.10636235 0.988942623
vn -0.101518728 -2.49981014e-07 0.994833708
vn 0.430966705 -0.315221369 0.845519483
vn 0.540418148 -1.86420237e-07 0.84139657
vn 0.392601699 -0.372624904 0.840841591
vn 0.130813435 -0.283809662 0.949915767
vn 0.130813435 -0.283809662 0.949915767
vn -0.349447459 0.449622124 0.822025836
vn -0.103342384 0.10636235 0.988942623
vn -0.473430783 0.25006479 0.844589174
vn 0.486970067 -0.190785259 0.85232687
vn 0.11724703 -0.134717733 0.983922899
vn 0.11724703 -0.134717733 0.983922899
vn -0.557552457 0.0125414068 0.830047011
vn -5.22053824e-07 1 0
vn -5.22053824e-07 1 0
vn -5.2205354e-07 1 0
vn -0.101518728 -2.49981014e-07 0.994833708
vn -0.534618676 -2.16876003e-07 0.845093429
vn -0.103342175 -0.1063632 0.988942564
vn 0.430966854 0.31522119 0.845519423
vn 0.130813256 0.28380987 0.949915767
vn 0.392602265 0.372624516 0.840841532
vn -0.4734312 -0.250065029 0.844588876
vn -0.349447638 -0.449622303 0.822025716
vn -0.103342175 -0.1063632 0.988942564
vn 0.130813256 0.28380987 0.949915767
vn 0.486970514 0.190784708 0.85232681
vn 0.117246121 0.134717181 0.983923078
vn -0.557552934 -0.0125413751 0.830046773
vn 0.117246121 0.134717181 0.983923078
vn 0 -1 -7.50507919e-14
vn 0 -1 7.59599118e-07
vn 0 -1 0
vn -0.103342324 0.106362633 -0.988942623
vn 0.430966824 -0.31522119 -0.845519543
vn -0.101518713 2.62076867e-07 -0.994833708
vn 0.540418148 1.83149709e-07 -0.84139657
vn 0.130813524 -0.283809543 -0.949915826
vn 0.392601758 -0.372624576 -0.840841711
vn -0.473430842 0.250065148 -0.844589055
vn -0.34944737 0.449622363 -0.822025836
vn -0.103342324 0.106362633 -0.988942623
vn 0.130813524 -0.283809543 -0.949915826
vn 0.486970097 -0.19078438 -0.852327168
vn 0.117246889 -0.134716913 -0.983923137
vn -0.557552278 0.0125417057 -0.83004719
vn 0.117246889 -0.134716913 -0.983923137
vn -5.22053995e-07 1 0
vn -0.534618616 2.74709578e-07 -0.845093429
vn -0.101518713 2.62076867e-07 -0.994833708
vn -0.103342138 -0.106362678 -0.988942623
vn 0.430966944 0.315221369 -0.845519423
vn 0.392602235 0.372624576 -0.840841532
vn 0.130813271 0.283810079 -0.949915648
vn 0.130813271 0.283810079 -0.949915648
vn -0.349447578 -0.449621916 -0.822025895
vn -0.103342138 -0.106362678 -0.988942623
vn -0.4734312 -0.250064403 -0.844589055
vn 0.486970454 0.190784723 -0.85232681
vn 0.117246091 0.134717211 -0.983923078
vn 0.117246091 0.134717211 -0.983923078
vn -0.557552993 -0.0125413788 -0.830046713
vn 0 -1 -7.59599629e-07
f 1/1/1 2/2/2 3/3/3
f 3/3/3 2/2/2 4/4/4
f 3/3/3 4/4/4 5/5/5
f 5/5/5 4/4/4 6/6/6
f 1/1/1 3/3/3 7/7/7
f 7/7/7 3/3/3 8/8/8
f 3/3/3 5/5/5 8/8/8
f 8/8/8 5/5/5 9/9/9
f 1/1/1 10/10/10 2/2/2
f 2/2/2 10/10/10 11/11/11
f 10/10/10 5/5/5 11/11/11
f 11/11/11 5/5/5 6/6/6
f 1/1/1 7/7/7 10/10/10
f 10/10/10 7/7/7 12/12/12
f 10/10/10 12/12/12 5/5/5
f 5/5/5 12/12/12 9/9/9
f 13/13/13 14/14/14 15/15/15
f 15/15/15 14/14/14 16/16/16
f 17/17/17 18/18/18 15/15/15
f 15/15/15 18/18/18 13/13/13
f 19/19/19 20/20/20 21/21/21
f 21/21/21 20/20/20 22/22/22
f 23/23/23 24/24/24 17/17/17
f 17/17/17 24/24/24 18/18/18
f 25/25/25 26/26/26 19/19/19
f 19/19/19 26/26/26 20/20/20
f 27/27/27 28/28/28 29/29/29
f 21/21/21 22/22/22 30/30/30
f 30/30/30 22/22/22 31/31/31
f 32/32/32 33/33/33 14/14/14
f 14/14/14 33/33/33 16/16/16
f 32/32/32 34/34/34 33/33/33
f 33/33/33 34/34/34 35/35/35
f 36/36/36 37/37/37 38/38/38
f 38/38/38 37/37/37 39/39/39
f 40/40/40 35/35/35 41/41/41
f 41/41/41 35/35/35 34/34/34
f 37/37/37 42/42/42 39/39/39
f 39/39/39 42/42/42 43/43/43
f 44/44/44 45/45/45 46/46/46
f 38/38/38 30/30/30 36/36/36
f 36/36/36 30/30/30 31/31/31
f 47/47/47 48/48/48 49/49/49
f 49/49/49 48/48/48 50/50/50
f 47/47/47 51/51/51 48/48/48
f 48/48/48 51/51/51 52/52/52
f 53/53/53 54/54/54 55/55/55
f 55/55/55 54/54/54 56/56/56
f 57/57/57 52/52/52 58/58/58
f 58/58/58 52/52/52 51/51/51
f 54/54/54 59/59/59 56/56/56
f 56/56/56 59/59/59 60/60/60
f 27/27/27 61/61/61 28/28/28
f 62/62/62 53/53/53 63/63/63
f 63/63/63 53/53/53 55/55/55
f 64/64/64 49/49/49 65/65/65
f 65/65/65 49/49/49 50/50/50
f 66/66/66 67/67/67 65/65/65
f 65/65/65 67/67/67 64/64/64
f 68/68/68 69/69/69 70/70/70
f 70/70/70 69/69/69 71/71/71
f 72/72/72 73/73/73 66/66/66
f 66/66/66 73/73/73 67/67/67
f 74/74/74 75/75/75 68/68/68
f 68/68/68 75/75/75 69/69/69
f 44/44/44 46/46/46 76/76/76
f 70/70/70 71/71/71 63/63/63
f 63/63/63 71/71/71 62/62/62
