# Extracted from the Cocos Creator 3.8.3 playable build
# Geometry-only OBJ preview for Unity; rig and animation stay in the raw assets.
o mesh_c0a09025
v -0.383109033 2.01055312 1.29536712
v -0.339975297 1.67531931 1.16747248
v -0.28523016 1.22588468 1.80702758
v -0.00286971522 1.11855972 1.59563172
v 4.9423727e-07 0.067337431 1.85472059
v -0.126443371 2.15771818 1.41934073
v 0.00672575412 1.26053238 1.97805536
v 4.9423727e-07 0.067337431 1.85472059
v -0.118150018 1.78680587 0.962079227
v -0.126443371 2.15771818 1.41934073
v -0.118150018 1.78680587 0.962079227
v -0.383109033 2.01055312 1.29536712
v 0.136384636 2.06552172 1.26020098
v 0.280954868 1.26903987 1.77953196
v 0.14738597 1.72688794 1.13448143
v 0.136384636 2.06552172 1.26020098
v -0.301229328 0.4481861 0.771709979
v -0.419092923 -1.22823787 0.716929555
v -0.75673008 0.372501552 1.11831689
v -0.676208198 -1.43870115 0.998170674
v -0.506564677 -2.15811872 1.87260461
v -0.0138113648 -2.19975066 1.75602138
v -0.421367288 -2.76031733 1.65792513
v -0.0137768621 -2.7605145 1.52164233
v -0.352330506 1.37891853 0.229745194
v -0.676265717 1.48516655 0.485004634
v -0.126195088 1.54513454 0.6290676
v -0.626078427 0.798825145 1.82100749
v -0.660705447 0.217274636 1.95786262
v -0.564891517 0.620896876 2.01007462
v -0.440303475 1.16972733 1.17004895
v -0.645004809 0.891721487 0.788882494
v -0.661111236 0.986656487 1.43505692
v -0.75673008 0.372501552 1.11831689
v -0.676265717 1.48516655 0.485004634
v -0.645004809 0.891721487 0.788882494
v -0.505334556 1.6512351 0.883973658
v -0.440303475 1.16972733 1.17004895
v -0.352330506 1.37891853 0.229745194
v -0.126195088 1.54513454 0.6290676
v -0.347059876 0.769616067 0.633015513
v -0.12511459 1.0120219 0.930937409
v -0.676265717 1.48516655 0.485004634
v -0.645004809 0.891721487 0.788882494
v -0.0744942427 -2.25291586 0.4179793
v -0.29035446 -2.50820112 0.644699633
v -0.636890829 -2.2773757 0.446900666
v -0.00638843002 0.508097947 0.717388511
v 0.0169434752 -1.47532403 0.788380325
v -0.181329533 -1.62083828 0.835491598
v -0.347059876 0.769616067 0.633015513
v -0.645004809 0.891721487 0.788882494
v 0.0169434752 -1.47532403 0.788380325
v -0.00547296088 -1.75670421 1.04464328
v -0.181329533 -1.62083828 0.835491598
v -0.47188285 -1.74245465 1.16701341
v -0.787150919 -1.1162014 1.09541953
v -0.676208198 -1.43870115 0.998170674
v -0.543354988 -1.80682838 1.59188211
v -0.126195088 1.54513454 0.6290676
v -0.12511459 1.0120219 0.930937409
v 0.000106709449 0.245007008 2.17914867
v 2.70192118e-06 0.690151989 2.2108376
v -0.0138113648 -2.19975066 1.75602138
v -0.506564677 -2.15811872 1.87260461
v -0.543354988 -1.80682838 1.59188211
v -0.0177833699 1.15966403 1.53647721
v 1.81639882e-06 1.03188586 1.86892891
v -0.12511459 1.0120219 0.930937409
v -0.12511459 1.0120219 0.930937409
v -0.0744942427 -2.25291586 0.4179793
v -0.636890829 -2.2773757 0.446900666
v -0.368640333 -1.97713006 0.180060327
v -0.482768476 -2.65730453 2.32441044
v -0.565263629 -2.15898681 2.537992
v -0.0137810884 -3.31096315 2.06928921
v -0.0137767307 -2.90403318 2.51848722
v -0.415842205 -3.06552076 1.94683647
v -0.29035446 -2.50820112 0.644699633
v -0.0744942427 -2.25291586 0.4179793
v -0.365408897 -2.16856742 0.885543525
v -0.122594982 -1.84972334 0.628844082
v -0.0744942427 -2.25291586 0.4179793
v -0.368640333 -1.97713006 0.180060327
v -0.122594982 -1.84972334 0.628844082
v -0.365859926 -1.65482283 0.43116188
v -0.636890829 -2.2773757 0.446900666
v -0.643139541 -1.91325986 0.667699516
v -0.636890829 -2.2773757 0.446900666
v -0.643139541 -1.91325986 0.667699516
v -0.433350682 -2.04153991 2.85847616
v -0.530976117 -2.33233857 3.21581078
v -0.272423267 -2.2982378 2.9450388
v -0.59578532 -2.25544238 2.88875246
v -0.643139541 -1.91325986 0.667699516
v -0.365408897 -2.16856742 0.885543525
v -0.365859926 -1.65482283 0.43116188
v -0.643139541 -1.91325986 0.667699516
v -0.122594982 -1.84972334 0.628844082
v -0.122594982 -1.84972334 0.628844082
v -0.12511459 1.0120219 0.930937409
v -0.00638843002 0.508097947 0.717388511
v -0.59578532 -2.25544238 2.88875246
v -0.565263629 -2.15898681 2.537992
v -0.272423267 -2.2982378 2.9450388
v -0.565263629 -2.15898681 2.537992
v -0.673835218 -1.06907952 1.38854134
v -0.543354988 -1.80682838 1.59188211
v -0.565263629 -2.15898681 2.537992
v -0.660372615 -1.99416375 2.58152437
v -0.593614221 -1.02826416 2.07142544
v -0.717211366 -1.73584318 1.70380509
v -0.809056759 -1.10469806 1.4283452
v -0.318833619 -2.05773807 3.06502986
v 0.0102542909 -0.985572636 2.26103735
v 0.0102542909 -0.985572636 2.26103735
v -0.613095462 -0.993474007 1.96068418
v -0.673835218 -1.06907952 1.38854134
v -0.543354988 -1.80682838 1.59188211
v -0.565263629 -2.15898681 2.537992
v -0.433350682 -2.04153991 2.85847616
v -0.272423267 -2.2982378 2.9450388
v -0.272423267 -2.2982378 2.9450388
v -0.249252111 -2.2878108 3.07415318
v -0.0137712425 -2.40101528 3.14561772
v -0.0171156954 -2.05032611 3.10163927
v -0.547955513 -2.68122792 2.44929314
v -0.0137772793 -2.99237418 2.6962204
v -0.562963068 -2.36787868 2.77710414
v -0.482768476 -2.65730453 2.32441044
v -0.0137767307 -2.90403318 2.51848722
v -0.565263629 -2.15898681 2.537992
v -0.75673008 0.372501552 1.11831689
v -0.787150919 -1.1162014 1.09541953
v -0.660705447 0.217274636 1.95786262
v -0.613095462 -0.993474007 1.96068418
v 0.000106709449 0.245007008 2.17914867
v 0.0102542909 -0.985572636 2.26103735
v -0.0137768621 -2.7605145 1.52164233
v -0.415842205 -3.06552076 1.94683647
v -0.421367288 -2.76031733 1.65792513
v -0.0137810884 -3.31096315 2.06928921
v -0.613095462 -0.993474007 1.96068418
v -0.126195088 1.54513454 0.6290676
v -0.676265717 1.48516655 0.485004634
v -0.505334556 1.6512351 0.883973658
v -0.272423267 -2.2982378 2.9450388
v -0.530976117 -2.33233857 3.21581078
v 0.703876793 -1.24808478 0.936947525
v 0.458182514 -0.921774507 0.790057063
v 0.753206134 0.424089193 1.11858749
v 0.288761109 0.535880864 0.778778851
v 0.478416085 -2.17308855 1.87093103
v 0.393813968 -2.76032472 1.65792406
v 0.261896729 1.79024947 0.618871152
v 0.0348342583 1.70484459 1.04239452
v 0.585238278 1.73545969 0.890584946
v 0.618909776 0.795201778 1.83098674
v 0.561449647 0.574067533 2.04006648
v 0.664803386 0.207033977 1.95288265
v 0.36952439 1.18054283 1.31264329
v 0.646499693 0.994490266 1.45406795
v 0.593023837 1.0289551 0.887942612
v 0.753206134 0.424089193 1.11858749
v 0.413380802 1.6501075 1.31384897
v 0.36952439 1.18054283 1.31264329
v 0.585238278 1.73545969 0.890584946
v 0.593023837 1.0289551 0.887942612
v 0.305109233 0.924319685 0.708849907
v 0.0665145889 1.06078005 1.04625809
v 0.261896729 1.79024947 0.618871152
v 0.0348342583 1.70484459 1.04239452
v 0.585238278 1.73545969 0.890584946
v 0.593023837 1.0289551 0.887942612
v 0.105722882 -1.31221604 -0.00420895312
v 0.665272057 -1.29187775 -0.00235437066
v 0.349108875 -1.62389863 -0.038019862
v 0.200709134 -1.23205316 0.716546714
v 0.593023837 1.0289551 0.887942612
v 0.305109233 0.924319685 0.708849907
v 0.200709134 -1.23205316 0.716546714
v 0.476279676 -1.61642849 0.928395987
v 0.816949844 -1.04106081 1.14424753
v 0.546355844 -1.82337987 1.57356918
v 0.703876793 -1.24808478 0.936947525
v 0.0665145889 1.06078005 1.04625809
v 0.0348342583 1.70484459 1.04239452
v 0.546355844 -1.82337987 1.57356918
v 0.478416085 -2.17308855 1.87093103
v 0.0665145889 1.06078005 1.04625809
v 0.0665145889 1.06078005 1.04625809
v 0.105722882 -1.31221604 -0.00420895312
v 0.365173787 -0.925302505 0.0345809944
v 0.665272057 -1.29187775 -0.00235437066
v 0.531154037 -2.17143512 2.53899574
v 0.455218911 -2.65731311 2.32440901
v 0.388284147 -3.06552815 1.9468354
v 0.349108875 -1.62389863 -0.038019862
v 0.381439924 -1.58257031 0.384815782
v 0.105722882 -1.31221604 -0.00420895312
v 0.140806228 -1.23332286 0.396214217
v 0.105722882 -1.31221604 -0.00420895312
v 0.140806228 -1.23332286 0.396214217
v 0.365173787 -0.925302505 0.0345809944
v 0.395199984 -0.896445572 0.429674625
v 0.667236686 -1.25405443 0.416706264
v 0.665272057 -1.29187775 -0.00235437066
v 0.667236686 -1.25405443 0.416706264
v 0.665272057 -1.29187775 -0.00235437066
v 0.400375575 -2.0510056 2.85923934
v 0.233308122 -2.30397964 2.94550157
v 0.489728332 -2.34392691 3.2167449
v 0.557817757 -2.26853943 2.88980818
v 0.381439924 -1.58257031 0.384815782
v 0.667236686 -1.25405443 0.416706264
v 0.667236686 -1.25405443 0.416706264
v 0.395199984 -0.896445572 0.429674625
v 0.140806228 -1.23332286 0.396214217
v 0.140806228 -1.23332286 0.396214217
v 0.0665145889 1.06078005 1.04625809
v 0.557817757 -2.26853943 2.88980818
v 0.233308122 -2.30397964 2.94550157
v 0.531154037 -2.17143512 2.53899574
v 0.531154037 -2.17143512 2.53899574
v 0.694982231 -1.07204425 1.41393876
v 0.546355844 -1.82337987 1.57356918
v 0.531154037 -2.17143512 2.53899574
v 0.630286038 -2.00886512 2.58247042
v 0.715415418 -1.75920713 1.69066024
v 0.612775683 -1.04204774 2.06250429
v 0.827195346 -1.11840653 1.44200742
v 0.284533143 -2.06458831 3.06558228
v 0.633433163 -1.0066942 1.95194149
v 0.694982231 -1.07204425 1.41393876
v 0.546355844 -1.82337987 1.57356918
v 0.531154037 -2.17143512 2.53899574
v 0.400375575 -2.0510056 2.85923934
v 0.233308122 -2.30397964 2.94550157
v 0.233308122 -2.30397964 2.94550157
v 0.221711457 -2.28781509 3.07415247
v 0.53542012 -2.36788869 2.77710271
v 0.520405948 -2.6812377 2.44929171
v 0.455218911 -2.65731311 2.32440901
v 0.531154037 -2.17143512 2.53899574
v 0.633433163 -1.0066942 1.95194149
v 0.816949844 -1.04106081 1.14424753
v 0.664803386 0.207033977 1.95288265
v 0.753206134 0.424089193 1.11858749
v 0.393813968 -2.76032472 1.65792406
v 0.388284147 -3.06552815 1.9468354
v 0.633433163 -1.0066942 1.95194149
v 0.0348342583 1.70484459 1.04239452
v 0.413380802 1.6501075 1.31384897
v 0.585238278 1.73545969 0.890584946
v 0.233308122 -2.30397964 2.94550157
v 0.489728332 -2.34392691 3.2167449
vt 0.891201675 0.611975908
vt 0.937791884 0.602402449
vt 0.931352794 0.498087406
vt 0.981180489 0.504028201
vt 0.954366565 0.460006595
vt 0.846718609 0.622226954
vt 0.889849603 0.46484828
vt 0.954366565 0.460006595
vt 0.960080445 0.650595605
vt 0.846718609 0.622226954
vt 0.960080445 0.650595605
vt 0.891201675 0.611975908
vt 0.891201675 0.611975908
vt 0.931352794 0.498087406
vt 0.937791884 0.602402449
vt 0.891201675 0.611975908
vt 0.684160233 0.293469548
vt 0.558027864 0.348925471
vt 0.713691235 0.362257242
vt 0.524967372 0.412001908
vt 0.45476079 0.600461364
vt 0.398027807 0.566604674
vt 0.379511893 0.633949578
vt 0.335623115 0.618554711
vt 0.966488659 0.338713408
vt 0.920127511 0.350504935
vt 0.963642716 0.395169616
vt 0.805936038 0.411168933
vt 0.746608496 0.460374177
vt 0.801174521 0.441182971
vt 0.820707679 0.309446692
vt 0.757599354 0.288253546
vt 0.806017101 0.362200797
vt 0.713691235 0.362257242
vt 0.781369805 0.22246635
vt 0.757599354 0.288253546
vt 0.828359425 0.225820899
vt 0.820707679 0.309446692
vt 0.741234601 0.209877968
vt 0.713944614 0.194886923
vt 0.718770027 0.267212868
vt 0.696314573 0.247022867
vt 0.781369805 0.22246635
vt 0.757599354 0.288253546
vt 0.531173587 0.223355055
vt 0.562308669 0.198932767
vt 0.525100887 0.173744857
vt 0.679002404 0.254479289
vt 0.570231795 0.256554663
vt 0.550621748 0.275066137
vt 0.718770027 0.267212868
vt 0.757599354 0.288253546
vt 0.397425711 0.429842353
vt 0.413409501 0.463796675
vt 0.420155108 0.427623153
vt 0.465219945 0.443448901
vt 0.564504564 0.425803781
vt 0.524967372 0.412001908
vt 0.479864389 0.529476047
vt 0.892453432 0.223474026
vt 0.893910944 0.29577142
vt 0.791506946 0.529326797
vt 0.854178905 0.487417102
vt 0.398027807 0.566604674
vt 0.45476079 0.600461364
vt 0.479864389 0.529476047
vt 0.883020818 0.372540236
vt 0.881840885 0.423291743
vt 0.893910944 0.29577142
vt 0.696314573 0.247022867
vt 0.531173587 0.223355055
vt 0.525100887 0.173744857
vt 0.488845438 0.204680324
vt 0.441275448 0.665421784
vt 0.510461807 0.663219213
vt 0.34102723 0.72423023
vt 0.40807429 0.762500107
vt 0.37558049 0.669941187
vt 0.390801907 0.352433026
vt 0.370174766 0.37155968
vt 0.427030146 0.391793549
vt 0.401181579 0.405125558
vt 0.467947721 0.248862028
vt 0.472152233 0.297996879
vt 0.515575886 0.263742685
vt 0.515154243 0.321256101
vt 0.437547952 0.328485489
vt 0.476646692 0.364579141
vt 0.437547952 0.328485489
vt 0.476646692 0.364579141
vt 0.771485448 0.672059834
vt 0.738990664 0.623554826
vt 0.803853989 0.583590746
vt 0.738990664 0.623554826
vt 0.476646692 0.364579141
vt 0.427030146 0.391793549
vt 0.515154243 0.321256101
vt 0.476646692 0.364579141
vt 0.515575886 0.263742685
vt 0.401181579 0.405125558
vt 0.893910944 0.29577142
vt 0.943196535 0.294936717
vt 0.738990664 0.623554826
vt 0.803853989 0.583590746
vt 0.803853989 0.583590746
vt 0.803853989 0.583590746
vt 0.567980111 0.467827439
vt 0.479864389 0.529476047
vt 0.510461807 0.663219213
vt 0.528154254 0.652572393
vt 0.608269632 0.550042093
vt 0.504638672 0.544720829
vt 0.561857879 0.483971119
vt 0.558222175 0.718358397
vt 0.666153073 0.596264839
vt 0.666153073 0.596264839
vt 0.610476851 0.530183017
vt 0.567980111 0.467827439
vt 0.479864389 0.529476047
vt 0.510461807 0.663219213
vt 0.53505528 0.697431803
vt 0.533690453 0.721417367
vt 0.533690453 0.721417367
vt 0.532621086 0.746541321
vt 0.528975964 0.772495627
vt 0.580121636 0.736580253
vt 0.450188428 0.695290744
vt 0.432030886 0.770934045
vt 0.499133319 0.699578822
vt 0.441275448 0.665421784
vt 0.40807429 0.762500107
vt 0.510461807 0.663219213
vt 0.713691235 0.362257242
vt 0.564504564 0.425803781
vt 0.746608496 0.460374177
vt 0.610476851 0.530183017
vt 0.791506946 0.529326797
vt 0.666153073 0.596264839
vt 0.335623115 0.618554711
vt 0.37558049 0.669941187
vt 0.379511893 0.633949578
vt 0.34102723 0.72423023
vt 0.610476851 0.530183017
vt 0.963642716 0.395169616
vt 0.920127511 0.350504935
vt 0.91112721 0.403715849
vt 0.533690453 0.721417367
vt 0.738990664 0.623554826
vt 0.524967372 0.412001908
vt 0.558027864 0.348925471
vt 0.713691235 0.362257242
vt 0.684160233 0.293469548
vt 0.45476079 0.600461364
vt 0.379511893 0.633949578
vt 0.966488659 0.338713408
vt 0.963642716 0.395169616
vt 0.920127511 0.350504935
vt 0.805936038 0.411168933
vt 0.801174521 0.441182971
vt 0.746608496 0.460374177
vt 0.820707679 0.309446692
vt 0.806017101 0.362200797
vt 0.757599354 0.288253546
vt 0.713691235 0.362257242
vt 0.828359425 0.225820899
vt 0.820707679 0.309446692
vt 0.781369805 0.22246635
vt 0.757599354 0.288253546
vt 0.718770027 0.267212868
vt 0.696314573 0.247022867
vt 0.741234601 0.209877968
vt 0.713944614 0.194886923
vt 0.781369805 0.22246635
vt 0.757599354 0.288253546
vt 0.531173587 0.223355055
vt 0.525100887 0.173744857
vt 0.562308669 0.198932767
vt 0.550621748 0.275066137
vt 0.757599354 0.288253546
vt 0.718770027 0.267212868
vt 0.420155108 0.427623153
vt 0.465219945 0.443448901
vt 0.564504564 0.425803781
vt 0.479864389 0.529476047
vt 0.524967372 0.412001908
vt 0.893910944 0.29577142
vt 0.892453432 0.223474026
vt 0.479864389 0.529476047
vt 0.45476079 0.600461364
vt 0.893910944 0.29577142
vt 0.696314573 0.247022867
vt 0.531173587 0.223355055
vt 0.488845438 0.204680324
vt 0.525100887 0.173744857
vt 0.510461807 0.663219213
vt 0.441275448 0.665421784
vt 0.37558049 0.669941187
vt 0.390801907 0.352433026
vt 0.427030146 0.391793549
vt 0.370174766 0.37155968
vt 0.401181579 0.405125558
vt 0.467947721 0.248862028
vt 0.515575886 0.263742685
vt 0.472152233 0.297996879
vt 0.515154243 0.321256101
vt 0.476646692 0.364579141
vt 0.437547952 0.328485489
vt 0.476646692 0.364579141
vt 0.437547952 0.328485489
vt 0.771485448 0.672059834
vt 0.803853989 0.583590746
vt 0.738990664 0.623554826
vt 0.738990664 0.623554826
vt 0.427030146 0.391793549
vt 0.476646692 0.364579141
vt 0.476646692 0.364579141
vt 0.515154243 0.321256101
vt 0.515575886 0.263742685
vt 0.401181579 0.405125558
vt 0.893910944 0.29577142
vt 0.738990664 0.623554826
vt 0.803853989 0.583590746
vt 0.803853989 0.583590746
vt 0.803853989 0.583590746
vt 0.567980111 0.467827439
vt 0.479864389 0.529476047
vt 0.510461807 0.663219213
vt 0.528154254 0.652572393
vt 0.504638672 0.544720829
vt 0.608269632 0.550042093
vt 0.561857879 0.483971119
vt 0.558222175 0.718358397
vt 0.610476851 0.530183017
vt 0.567980111 0.467827439
vt 0.479864389 0.529476047
vt 0.510461807 0.663219213
vt 0.53505528 0.697431803
vt 0.533690453 0.721417367
vt 0.533690453 0.721417367
vt 0.532621086 0.746541321
vt 0.499133319 0.699578822
vt 0.450188428 0.695290744
vt 0.441275448 0.665421784
vt 0.510461807 0.663219213
vt 0.610476851 0.530183017
vt 0.564504564 0.425803781
vt 0.746608496 0.460374177
vt 0.713691235 0.362257242
vt 0.379511893 0.633949578
vt 0.37558049 0.669941187
vt 0.610476851 0.530183017
vt 0.963642716 0.395169616
vt 0.91112721 0.403715849
vt 0.920127511 0.350504935
vt 0.533690453 0.721417367
vt 0.738990664 0.623554826
vn -0.723217964 0.335865885 0.603448331
vn -0.786973178 -0.410520315 -0.460593343
vn -0.858959079 0.0457746834 0.509994149
vn 0.0207514651 -0.480402589 -0.876802504
vn -0.0112462528 -0.986240566 0.164933234
vn 0.00223633018 0.543118834 0.839652836
vn 0.0468504913 0.2956388 0.954150319
vn -0.0112462528 -0.986240566 0.164933234
vn -0.00979546085 -0.474997818 -0.879932523
vn -0.123834513 0.769545197 -0.626470447
vn -0.123834506 0.769545138 -0.626470387
vn -0.138222754 0.767940223 -0.62542963
vn 0.708700061 0.490116149 0.507474601
vn 0.887933373 0.173791826 0.425876319
vn 0.788174391 -0.239226177 -0.567055643
vn -0.10942018 0.770988047 -0.627379239
vn -0.432692438 -0.0404390059 -0.90063417
vn -0.455063581 0.105870314 -0.884142876
vn -0.961128771 0.0300531555 -0.274459958
vn -0.855816603 -0.0294914432 -0.516437948
vn -0.847898722 -0.0862974301 -0.523087502
vn 0.00865955651 -0.314548582 -0.949201882
vn -0.816738069 0.116070263 -0.565213919
vn 0.000492355844 0.345662326 -0.938358903
vn -4.87951002e-06 0.923215926 -0.384281576
vn -4.8122356e-06 0.923216105 -0.384281188
vn -4.80619747e-06 0.923216045 -0.384281129
vn -0.666202903 0.594033182 0.450886011
vn -0.835417032 0.00667772209 0.549575925
vn -0.406214088 0.289994866 0.866540909
vn -0.50795275 0.763572395 0.398674339
vn -0.940666735 -0.0729117319 -0.331406116
vn -0.734597325 0.663455129 0.142106161
vn -0.961128771 0.0300531555 -0.274459958
vn -0.965598881 -0.18248646 -0.185249746
vn -0.940666735 -0.0729117319 -0.331406116
vn -0.396039069 0.416980416 0.818095505
vn -0.50795275 0.763572395 0.398674339
vn 0.259107918 -0.503650069 -0.824135721
vn 0.997000456 0.0493623503 0.0596097596
vn 0.0285051949 -0.38126412 -0.924026608
vn 0.936704159 0.329797566 -0.117553584
vn -0.965598881 -0.18248646 -0.185249746
vn -0.940666735 -0.0729117319 -0.331406116
vn -0.00999082439 -0.659267128 -0.751842439
vn -0.00999079179 -0.659267664 -0.751841962
vn -0.00999082625 -0.659267128 -0.751842439
vn -0.0708134696 0.0493221655 -0.996269464
vn -0.0985442996 -0.186344638 -0.977529824
vn 0.598926902 -0.187735781 -0.778486907
vn 0.0285051949 -0.38126412 -0.924026608
vn -0.940666735 -0.0729117319 -0.331406116
vn -0.0985442996 -0.186344638 -0.977529824
vn 0.0732316598 -0.859894276 -0.505192101
vn 0.598926902 -0.187735781 -0.778486907
vn -0.470415443 -0.882241189 -0.0189673305
vn -0.999105453 -0.0251923706 0.0339656696
vn -0.855816603 -0.0294914432 -0.516437948
vn -0.500129163 -0.774704695 -0.386915147
vn 0.997000456 0.0493623503 0.0596097596
vn 0.936704159 0.329797566 -0.117553584
vn -0.00397076877 -0.000736694143 0.999991775
vn -0.00599351618 0.320628375 0.947186112
vn 0.00865955651 -0.314548582 -0.949201882
vn -0.847898722 -0.0862974301 -0.523087502
vn -0.500129163 -0.774704695 -0.386915147
vn -0.00756328693 0.960882425 0.276853204
vn 0.00670897122 0.826471567 0.562938452
vn 0.936704159 0.329797566 -0.117553584
vn 0.936704159 0.329797566 -0.117553584
vn -0.00999082439 -0.659267128 -0.751842439
vn -0.00999082625 -0.659267128 -0.751842439
vn -0.00999085046 -0.659266591 -0.751842797
vn -0.925657928 -0.333660513 0.178404495
vn -0.987067699 -0.134477675 -0.087252371
vn -5.96716973e-06 -0.738380194 0.674384713
vn -5.9224808e-06 -0.738380194 0.674384654
vn -0.846108854 -0.434093177 0.309294283
vn 0.194637582 -0.480913341 0.854890943
vn 0.985426605 0.0316640548 0.167128429
vn 0.0326485448 -0.519756913 0.853690088
vn 0.991102099 0.124317862 0.0475576557
vn 0.985426605 0.0316640548 0.167128429
vn -0.0852242038 0.572983027 -0.815124094
vn 0.991102099 0.124317862 0.0475576557
vn -0.157789513 0.575333714 -0.802554369
vn -0.983599067 -0.133486003 0.121302806
vn -0.997069657 -0.046115987 -0.0610370077
vn -0.983599067 -0.133486003 0.121302806
vn -0.997069657 -0.046115987 -0.0610370077
vn -0.369400412 0.806555569 0.461531788
vn -0.0255414005 -0.323105454 0.946018219
vn 0.596673369 -0.674146473 0.435324609
vn -0.832582712 -0.547062874 -0.0867661014
vn -0.997069657 -0.046115987 -0.0610370077
vn 0.0326485448 -0.519756913 0.853690088
vn -0.157789513 0.575333714 -0.802554369
vn -0.997069657 -0.046115987 -0.0610370077
vn 0.991102099 0.124317862 0.0475576557
vn 0.991102099 0.124317862 0.0475576557
vn 0.936704159 0.329797566 -0.117553584
vn -0.0708134696 0.0493221655 -0.996269464
vn -0.832582712 -0.547062874 -0.0867661014
vn -0.840905964 -0.498651266 -0.210295334
vn 0.596673369 -0.674146473 0.435324609
vn -0.840905964 -0.498651266 -0.210295334
vn -0.847778976 -0.36351192 0.386173338
vn -0.500129163 -0.774704695 -0.386915147
vn -0.987067699 -0.134477675 -0.087252371
vn -0.763323843 0.315294355 0.563849509
vn -0.797685266 0.367837638 0.477905661
vn -0.991214454 -0.131973118 -0.00877517276
vn -0.997094512 0.0498373806 -0.057609193
vn -0.4051238 0.506943405 0.760843635
vn 0.0155831631 0.610299706 0.792017341
vn 0.0155831631 0.610299706 0.792017341
vn -0.45423764 0.8882038 0.0690082908
vn -0.628090262 0.0027984539 -0.778135478
vn -0.64172852 -0.578939617 -0.503004372
vn -0.730641067 -0.672085464 -0.120269194
vn -0.678044379 -0.639349222 0.362613589
vn -0.604908109 0.63125968 0.485383809
vn -0.604908109 0.63125968 0.485383809
vn -0.419053733 -0.0647415295 0.905650258
vn 8.26526884e-05 -0.561346889 0.827580631
vn 0.00313274353 0.485953748 0.873978972
vn -0.730542123 -0.579129517 0.361824781
vn -5.99105942e-06 -0.780054629 0.625711501
vn -0.718206704 -0.366537273 0.591463864
vn -0.766032696 -0.543718874 -0.34287557
vn -9.28513327e-06 -0.912495077 -0.409087688
vn -0.974551022 0.223541453 -0.0167225637
vn -0.961128771 0.0300531555 -0.274459958
vn -0.999105453 -0.0251923706 0.0339656696
vn -0.835417032 0.00667772209 0.549575925
vn -0.844687581 0.00495792087 0.535236657
vn -0.00397076877 -0.000736694143 0.999991775
vn 0.0102100112 0.0272997059 0.999575138
vn -7.26279131e-06 -0.699823141 -0.71431607
vn -0.215225771 -0.685665965 -0.695370376
vn -0.235597566 -0.670352459 -0.703648627
vn -7.46963588e-06 -0.705299854 -0.708909154
vn -0.844687581 0.00495792087 0.535236657
vn -4.80619747e-06 0.923216045 -0.384281129
vn -4.8122356e-06 0.923216105 -0.384281188
vn -4.74304716e-06 0.923216224 -0.384280771
vn -0.604908109 0.63125968 0.485383809
vn -0.0255414005 -0.323105454 0.946018219
vn 0.881232321 -0.131344289 -0.454068631
vn 0.560108423 0.200840712 -0.803704917
vn 0.952199221 0.0655983761 -0.298351377
vn 0.319193989 0.0273907669 -0.94729352
vn 0.844410419 -0.117507644 -0.522650063
vn 0.815657079 0.117837779 -0.56640774
vn -4.69878751e-06 0.980268359 0.197671026
vn -4.64487766e-06 0.9802683 0.197671339
vn -4.64931736e-06 0.9802683 0.197671309
vn 0.652491212 0.598364532 0.464989394
vn 0.404389501 0.253906965 0.878635585
vn 0.83256489 0.0185890235 0.553615451
vn 0.529782176 0.525724471 0.665540814
vn 0.741575897 0.649509907 0.167934731
vn 0.88426286 0.0732849613 -0.461203188
vn 0.952199221 0.0655983761 -0.298351377
vn 0.369220257 -0.0198466703 0.929129899
vn 0.529782176 0.525724471 0.665540814
vn 0.93396014 -0.034617234 -0.355696559
vn 0.88426286 0.0732849613 -0.461203188
vn -0.00112088909 -0.0374227948 -0.99929893
vn -0.958043218 0.185117885 -0.218825206
vn -0.251687974 -0.0758649036 -0.964830339
vn -0.997174084 -0.0569808707 -0.0489588566
vn 0.93396014 -0.034617234 -0.355696559
vn 0.88426286 0.0732849613 -0.461203188
vn -0.000460956653 0.103380069 -0.994641781
vn -0.000449252577 0.103061095 -0.994674981
vn -0.000607636815 0.107376903 -0.994218171
vn -0.355578184 -0.117769934 -0.927197099
vn 0.88426286 0.0732849613 -0.461203188
vn -0.00112088909 -0.0374227948 -0.99929893
vn -0.355578184 -0.117769934 -0.927197099
vn 0.420509875 -0.818294764 -0.391873986
vn 0.998831809 -0.0192565918 0.0443196259
vn 0.444509715 -0.796066105 -0.410718799
vn 0.881232321 -0.131344289 -0.454068631
vn -0.958043218 0.185117885 -0.218825206
vn -0.997174084 -0.0569808707 -0.0489588566
vn 0.444509715 -0.796066105 -0.410718799
vn 0.844410419 -0.117507644 -0.522650063
vn -0.958043218 0.185117885 -0.218825206
vn -0.958043218 0.185117885 -0.218825206
vn -0.000460956653 0.103380069 -0.994641781
vn -0.000336145778 0.099977985 -0.994989574
vn -0.000449252577 0.103061095 -0.994674981
vn 0.986343622 -0.145325333 -0.0775036663
vn 0.923862815 -0.335834742 0.183555186
vn 0.843688548 -0.436792523 0.312092781
vn -0.023127364 -0.989511192 0.142593279
vn 0.0312443227 -0.996782005 0.0738205835
vn -0.98873955 -0.110978544 0.100389101
vn -0.992929935 0.00462663686 0.118611723
vn -0.98873955 -0.110978544 0.100389101
vn -0.992929935 0.00462663686 0.118611723
vn -0.0178072285 0.996798217 -0.077949658
vn 0.0883357674 0.996002376 -0.0132711958
vn 0.995575368 -0.0404817909 -0.0847996771
vn 0.993497491 -0.111108392 -0.0248485319
vn 0.995575368 -0.0404817909 -0.0847996771
vn 0.993497491 -0.111108392 -0.0248485319
vn 0.387043118 0.797446549 0.462900192
vn -0.613369465 -0.660365939 0.433237404
vn 0.0163038168 -0.324248999 0.945831239
vn 0.820285797 -0.5658952 -0.0830294192
vn 0.0312443227 -0.996782005 0.0738205835
vn 0.995575368 -0.0404817909 -0.0847996771
vn 0.995575368 -0.0404817909 -0.0847996771
vn 0.0883357674 0.996002376 -0.0132711958
vn -0.992929935 0.00462663686 0.118611723
vn -0.992929935 0.00462663686 0.118611723
vn -0.958043218 0.185117885 -0.218825206
vn 0.820285797 -0.5658952 -0.0830294192
vn -0.613369465 -0.660365939 0.433237404
vn 0.830695212 -0.517104506 -0.206272632
vn 0.830695212 -0.517104506 -0.206272632
vn 0.876250565 -0.320948929 0.359411538
vn 0.444509715 -0.796066105 -0.410718799
vn 0.986343622 -0.145325333 -0.0775036663
vn 0.770139098 0.285742819 0.570295334
vn 0.986049294 -0.166403681 0.00408442179
vn 0.811676979 0.331046015 0.481236964
vn 0.999088943 0.0176753886 -0.0388443209
vn 0.417946666 0.492168695 0.763603747
vn 0.501656473 0.86010319 0.0925385728
vn 0.63346684 0.0414735824 -0.772657573
vn 0.635986567 -0.588969707 -0.498633862
vn 0.715100884 -0.692343354 -0.0963918716
vn 0.660994887 -0.655664086 0.364952534
vn 0.572717309 0.682619452 0.453900546
vn 0.572717309 0.682619452 0.453900546
vn 0.424678266 -0.0397418514 0.904471576
vn 0.716166854 -0.362257123 0.596552372
vn 0.728955567 -0.579991639 0.363638908
vn 0.761161208 -0.545260727 -0.351175755
vn 0.965808153 0.257339716 -0.0314765647
vn 0.830918252 0.0207853764 0.556006074
vn 0.998831809 -0.0192565918 0.0443196259
vn 0.83256489 0.0185890235 0.553615451
vn 0.952199221 0.0655983761 -0.298351377
vn 0.23558408 -0.670356393 -0.703649461
vn 0.215211272 -0.68566972 -0.695371211
vn 0.830918252 0.0207853764 0.556006074
vn -4.64487766e-06 0.9802683 0.197671339
vn -4.59844159e-06 0.9802683 0.197671682
vn -4.64931736e-06 0.9802683 0.197671309
vn 0.572717309 0.682619452 0.453900546
vn 0.0163038168 -0.324248999 0.945831239
f 1/1/1 2/2/2 3/3/3
f 3/3/3 4/4/4 5/5/5
f 1/1/1 3/3/3 6/6/6
f 6/6/6 3/3/3 7/7/7
f 7/7/7 3/3/3 8/8/8
f 2/2/2 9/9/9 4/4/4
f 2/2/2 1/1/1 9/9/9
f 2/2/2 4/4/4 3/3/3
f 10/10/10 11/11/11 12/12/12
f 13/13/13 14/14/14 15/15/15
f 14/14/14 5/5/5 4/4/4
f 7/7/7 14/14/14 6/6/6
f 6/6/6 14/14/14 13/13/13
f 7/7/7 8/8/8 14/14/14
f 15/15/15 4/4/4 9/9/9
f 15/15/15 9/9/9 13/13/13
f 15/15/15 14/14/14 4/4/4
f 10/10/10 16/16/16 11/11/11
f 17/17/17 18/18/18 19/19/19
f 19/19/19 18/18/18 20/20/20
f 21/21/21 22/22/22 23/23/23
f 23/23/23 22/22/22 24/24/24
f 25/25/25 26/26/26 27/27/27
f 28/28/28 29/29/29 30/30/30
f 31/31/31 32/32/32 33/33/33
f 33/33/33 32/32/32 34/34/34
f 35/35/35 36/36/36 37/37/37
f 37/37/37 36/36/36 38/38/38
f 39/39/39 40/40/40 41/41/41
f 41/41/41 40/40/40 42/42/42
f 43/43/43 39/39/39 44/44/44
f 44/44/44 39/39/39 41/41/41
f 45/45/45 46/46/46 47/47/47
f 48/48/48 49/49/49 17/17/17
f 17/17/17 49/49/49 50/50/50
f 51/51/51 17/17/17 52/52/52
f 52/52/52 17/17/17 19/19/19
f 53/53/53 54/54/54 55/55/55
f 55/55/55 54/54/54 56/56/56
f 57/57/57 58/58/58 59/59/59
f 56/56/56 59/59/59 58/58/58
f 37/37/37 38/38/38 60/60/60
f 60/60/60 38/38/38 61/61/61
f 29/29/29 62/62/62 30/30/30
f 30/30/30 62/62/62 63/63/63
f 64/64/64 65/65/65 66/66/66
f 34/34/34 29/29/29 28/28/28
f 33/33/33 28/28/28 67/67/67
f 67/67/67 28/28/28 68/68/68
f 69/69/69 31/31/31 67/67/67
f 67/67/67 31/31/31 33/33/33
f 17/17/17 51/51/51 48/48/48
f 48/48/48 51/51/51 70/70/70
f 19/19/19 20/20/20 57/57/57
f 56/56/56 54/54/54 59/59/59
f 59/59/59 54/54/54 64/64/64
f 71/71/71 72/72/72 73/73/73
f 21/21/21 74/74/74 75/75/75
f 76/76/76 77/77/77 78/78/78
f 78/78/78 77/77/77 74/74/74
f 79/79/79 80/80/80 81/81/81
f 81/81/81 80/80/80 82/82/82
f 83/83/83 84/84/84 85/85/85
f 85/85/85 84/84/84 86/86/86
f 87/87/87 88/88/88 84/84/84
f 84/84/84 88/88/88 86/86/86
f 79/79/79 81/81/81 89/89/89
f 89/89/89 81/81/81 90/90/90
f 34/34/34 28/28/28 33/33/33
f 91/91/91 92/92/92 93/93/93
f 91/91/91 94/94/94 92/92/92
f 58/58/58 95/95/95 56/56/56
f 56/56/56 95/95/95 96/96/96
f 18/18/18 97/97/97 20/20/20
f 20/20/20 97/97/97 98/98/98
f 18/18/18 50/50/50 97/97/97
f 97/97/97 50/50/50 99/99/99
f 56/56/56 96/96/96 55/55/55
f 55/55/55 96/96/96 100/100/100
f 101/101/101 67/67/67 102/102/102
f 103/103/103 104/104/104 105/105/105
f 106/106/106 94/94/94 91/91/91
f 107/107/107 57/57/57 108/108/108
f 66/66/66 65/65/65 109/109/109
f 110/110/110 111/111/111 112/112/112
f 112/112/112 111/111/111 113/113/113
f 114/114/114 115/115/115 110/110/110
f 110/110/110 115/115/115 111/111/111
f 111/111/111 116/116/116 117/117/117
f 118/118/118 113/113/113 117/117/117
f 117/117/117 113/113/113 111/111/111
f 119/119/119 112/112/112 118/118/118
f 118/118/118 112/112/112 113/113/113
f 119/119/119 120/120/120 112/112/112
f 112/112/112 120/120/120 110/110/110
f 121/121/121 122/122/122 114/114/114
f 123/123/123 124/124/124 114/114/114
f 125/125/125 126/126/126 124/124/124
f 124/124/124 126/126/126 114/114/114
f 127/127/127 128/128/128 129/129/129
f 129/129/129 128/128/128 125/125/125
f 130/130/130 131/131/131 127/127/127
f 127/127/127 131/131/131 128/128/128
f 130/130/130 127/127/127 132/132/132
f 132/132/132 127/127/127 129/129/129
f 124/124/124 129/129/129 125/125/125
f 133/133/133 134/134/134 135/135/135
f 135/135/135 134/134/134 136/136/136
f 135/135/135 136/136/136 137/137/137
f 137/137/137 136/136/136 138/138/138
f 63/63/63 68/68/68 30/30/30
f 30/30/30 68/68/68 28/28/28
f 21/21/21 23/23/23 74/74/74
f 74/74/74 23/23/23 78/78/78
f 139/139/139 140/140/140 141/141/141
f 142/142/142 140/140/140 139/139/139
f 115/115/115 114/114/114 126/126/126
f 134/134/134 107/107/107 143/143/143
f 17/17/17 50/50/50 18/18/18
f 144/144/144 145/145/145 146/146/146
f 121/121/121 110/110/110 120/120/120
f 121/121/121 114/114/114 110/110/110
f 132/132/132 129/129/129 147/147/147
f 147/147/147 129/129/129 124/124/124
f 103/103/103 105/105/105 148/148/148
f 149/149/149 150/150/150 151/151/151
f 151/151/151 150/150/150 152/152/152
f 153/153/153 154/154/154 22/22/22
f 22/22/22 154/154/154 24/24/24
f 155/155/155 156/156/156 157/157/157
f 158/158/158 159/159/159 160/160/160
f 161/161/161 162/162/162 163/163/163
f 163/163/163 162/162/162 164/164/164
f 165/165/165 166/166/166 167/167/167
f 167/167/167 166/166/166 168/168/168
f 169/169/169 170/170/170 171/171/171
f 171/171/171 170/170/170 172/172/172
f 173/173/173 174/174/174 171/171/171
f 171/171/171 174/174/174 169/169/169
f 175/175/175 176/176/176 177/177/177
f 152/152/152 178/178/178 48/48/48
f 48/48/48 178/178/178 49/49/49
f 151/151/151 152/152/152 179/179/179
f 179/179/179 152/152/152 180/180/180
f 181/181/181 182/182/182 53/53/53
f 53/53/53 182/182/182 54/54/54
f 183/183/183 184/184/184 185/185/185
f 182/182/182 185/185/185 184/184/184
f 186/186/186 166/166/166 187/187/187
f 187/187/187 166/166/166 165/165/165
f 63/63/63 62/62/62 159/159/159
f 159/159/159 62/62/62 160/160/160
f 64/64/64 188/188/188 189/189/189
f 164/164/164 158/158/158 160/160/160
f 67/67/67 68/68/68 162/162/162
f 162/162/162 68/68/68 158/158/158
f 190/190/190 67/67/67 161/161/161
f 161/161/161 67/67/67 162/162/162
f 191/191/191 180/180/180 48/48/48
f 48/48/48 180/180/180 152/152/152
f 151/151/151 183/183/183 149/149/149
f 64/64/64 54/54/54 184/184/184
f 184/184/184 54/54/54 182/182/182
f 192/192/192 193/193/193 194/194/194
f 153/153/153 195/195/195 196/196/196
f 196/196/196 77/77/77 197/197/197
f 197/197/197 77/77/77 76/76/76
f 198/198/198 199/199/199 200/200/200
f 200/200/200 199/199/199 201/201/201
f 202/202/202 203/203/203 204/204/204
f 204/204/204 203/203/203 205/205/205
f 205/205/205 206/206/206 204/204/204
f 204/204/204 206/206/206 207/207/207
f 208/208/208 199/199/199 209/209/209
f 209/209/209 199/199/199 198/198/198
f 164/164/164 162/162/162 158/158/158
f 210/210/210 211/211/211 212/212/212
f 210/210/210 212/212/212 213/213/213
f 214/214/214 215/215/215 182/182/182
f 182/182/182 215/215/215 185/185/185
f 149/149/149 216/216/216 150/150/150
f 150/150/150 216/216/216 217/217/217
f 150/150/150 217/217/217 178/178/178
f 178/178/178 217/217/217 218/218/218
f 219/219/219 214/214/214 181/181/181
f 181/181/181 214/214/214 182/182/182
f 220/220/220 102/102/102 67/67/67
f 221/221/221 222/222/222 223/223/223
f 224/224/224 210/210/210 213/213/213
f 225/225/225 226/226/226 183/183/183
f 188/188/188 227/227/227 189/189/189
f 228/228/228 229/229/229 230/230/230
f 230/230/230 229/229/229 231/231/231
f 232/232/232 228/228/228 115/115/115
f 115/115/115 228/228/228 230/230/230
f 230/230/230 233/233/233 116/116/116
f 230/230/230 231/231/231 233/233/233
f 233/233/233 231/231/231 234/234/234
f 231/231/231 229/229/229 234/234/234
f 234/234/234 229/229/229 235/235/235
f 235/235/235 229/229/229 236/236/236
f 236/236/236 229/229/229 228/228/228
f 237/237/237 232/232/232 238/238/238
f 239/239/239 232/232/232 240/240/240
f 232/232/232 126/126/126 240/240/240
f 240/240/240 126/126/126 125/125/125
f 125/125/125 128/128/128 241/241/241
f 241/241/241 128/128/128 242/242/242
f 128/128/128 131/131/131 242/242/242
f 242/242/242 131/131/131 243/243/243
f 241/241/241 242/242/242 244/244/244
f 244/244/244 242/242/242 243/243/243
f 240/240/240 125/125/125 241/241/241
f 245/245/245 246/246/246 247/247/247
f 247/247/247 246/246/246 248/248/248
f 137/137/137 138/138/138 247/247/247
f 247/247/247 138/138/138 245/245/245
f 159/159/159 158/158/158 63/63/63
f 63/63/63 158/158/158 68/68/68
f 197/197/197 154/154/154 196/196/196
f 196/196/196 154/154/154 153/153/153
f 139/139/139 249/249/249 250/250/250
f 142/142/142 139/139/139 250/250/250
f 115/115/115 126/126/126 232/232/232
f 246/246/246 251/251/251 225/225/225
f 152/152/152 150/150/150 178/178/178
f 252/252/252 253/253/253 254/254/254
f 237/237/237 236/236/236 228/228/228
f 237/237/237 228/228/228 232/232/232
f 240/240/240 241/241/241 255/255/255
f 255/255/255 241/241/241 244/244/244
f 221/221/221 256/256/256 222/222/222
