# Extracted from the Cocos Creator 3.8.3 playable build
# Geometry-only OBJ preview for Unity; rig and animation stay in the raw assets.
o mesh_605290f1
v 0.710252285 0.439778507 1.19587839
v 0.335542619 0.338729769 1.36103082
v 0.670638502 0.162115186 1.08465004
v 0.301611841 -0.0472253412 1.3054378
v 0.537410617 0.115698695 0.941107631
v 0.476768583 0.196193933 0.877634406
v 0.392219573 0.601166964 0.93975538
v 0.345731527 0.448053807 0.821556807
v -0.116083637 0.614372313 1.11445427
v 0.588759959 0.663513303 1.14095592
v 0.335542619 0.338729769 1.36103082
v 0.14344506 0.383159012 0.135143146
v -0.155779272 0.253446728 0.14772296
v 0.43946144 -0.175608307 1.02374756
v 0.453587979 -0.180440322 0.158477187
v 0.392957896 0.183544636 0.144940704
v 0.0441072136 -0.411973029 1.12274444
v 0.120261379 -0.545081258 0.149185523
v 0.14344506 0.383159012 0.135143146
v 0.392957896 0.183544636 0.144940704
v 0.453587979 -0.180440322 0.158477187
v 0.74478513 0.739560425 0.945834279
v 0.588759959 0.663513303 1.14095592
v 0.869027913 0.46537739 0.967321455
v 0.710252285 0.439778507 1.19587839
v 0.458244473 0.718391955 0.775012672
v 0.392219573 0.601166964 0.93975538
v 0.458244473 0.718391955 0.775012672
v 0.47013256 0.279687017 0.706492901
v 0.392219573 0.601166964 0.93975538
v 0.476768583 0.196193933 0.877634406
v 0.756132662 0.193280056 0.856330931
v 0.670638502 0.162115186 1.08465004
v 0.685049653 0.798360586 0.380986661
v 0.685049653 0.798360586 0.380986661
v 0.478279829 0.244931862 0.482462823
v 0.698277414 0.163790286 0.490959048
v 1.0796932 0.220159635 0.435048997
v 1.06133759 0.758177876 0.518217027
v 0.698363781 0.422141254 0.228546828
v 0.568407178 0.384419441 0.307830751
v 0.684768081 0.183569744 0.30415833
v 0.568407178 0.384419441 0.307830751
v 0.698363781 0.422141254 0.228546828
v 0.845461845 0.270178854 0.18927139
v 0.883284986 0.836803138 0.293237716
v 0.845461845 0.270178854 0.18927139
v 0.883284986 0.836803138 0.293237716
v 0.0134965573 -0.228525996 1.3079145
v -0.155779272 0.253446728 0.14772296
v 0.120261379 -0.545081258 0.149185523
v 0.710252285 0.439778507 1.19587839
v -0.0905109644 0.485429764 1.27618337
v 0.453286916 -0.0772892386 0.00700128637
v 0.261506081 -0.193834618 0.01358118
v 0.397613555 0.202882797 0.0115363188
v 0.0361521579 0.00538261002 0.0240230151
v 0.0948517323 0.333824813 0.0245801341
v -0.872071564 0.204044849 1.12575388
v -0.750868261 -0.0567366667 1.04239297
v -0.476540983 0.235064045 1.35540962
v -0.320378065 -0.141929746 1.3256129
v -0.585673273 0.0140220327 0.842069983
v -0.615362048 -0.0797921866 0.963916361
v -0.637599885 0.427364558 0.848715544
v -0.547949195 0.294324189 0.852882266
v -0.829450667 0.446074426 1.07347918
v -0.476540983 0.235064045 1.35540962
v -0.48918879 0.099850446 0.199388102
v -0.317025512 -0.500805974 0.212346151
v -0.420469075 -0.322192311 1.05188239
v -0.526217997 -0.207183301 0.216999754
v -0.48918879 0.099850446 0.199388102
v -0.317025512 -0.500805974 0.212346151
v -0.526217997 -0.207183301 0.216999754
v -0.872071564 0.204044849 1.12575388
v -0.829450667 0.446074426 1.07347918
v -1.03234279 0.177240998 0.873622715
v -0.947281241 0.443268716 0.77486676
v -0.659817338 0.411839604 0.625748754
v -0.637599885 0.427364558 0.848715544
v -0.637599885 0.427364558 0.848715544
v -0.585673273 0.0140220327 0.842069983
v -0.659817338 0.411839604 0.625748754
v -0.610625923 -0.0187636986 0.690405786
v -0.882492483 -0.0937513113 0.851522148
v -0.750868261 -0.0567366667 1.04239297
v -0.724848568 0.312425315 0.216283113
v -0.724848568 0.312425315 0.216283113
v -0.607428253 -0.183862403 0.53131485
v -0.835449755 -0.239176854 0.530050993
v -1.1957947 -0.176367298 0.395932525
v -1.11760664 0.353091657 0.294557154
v -0.655290186 -0.108464755 0.307483375
v -0.767912984 -0.0910934135 0.1997246
v -0.795632064 -0.287823409 0.352522582
v -0.767912984 -0.0910934135 0.1997246
v -0.655290186 -0.108464755 0.307483375
v -0.927473903 -0.235045522 0.190180644
v -0.903409004 0.332851619 0.0891064629
v -0.903409004 0.332851619 0.0891064629
v -0.927473903 -0.235045522 0.190180644
v -0.872071564 0.204044849 1.12575388
v -0.112026297 -0.177303374 0.0209729876
v -0.28553769 -0.423216432 0.0221787281
v -0.509465456 -0.0686195493 0.0277929399
v -0.499119014 -0.354111463 0.0258566421
v -0.244848013 0.128739417 0.0250230469
v 0.418699384 -0.120822571 0.178477123
v 0.453286916 -0.0772892386 0.00700128637
v 0.366808832 0.12584947 0.169639274
v 0.397613555 0.202882797 0.0115363188
v 0.366808832 0.12584947 0.169639274
v 0.0971189067 0.242434576 0.15959549
v 0.0948517323 0.333824813 0.0245801341
v 0.0480109155 -0.0461558811 0.167187184
v 0.0971189067 0.242434576 0.15959549
v 0.0361521579 0.00538261002 0.0240230151
v 0.0948517323 0.333824813 0.0245801341
v 0.24965848 -0.222423494 0.177544251
v 0.0480109155 -0.0461558811 0.167187184
v 0.261506081 -0.193834618 0.01358118
v 0.0361521579 0.00538261002 0.0240230151
v 0.24965848 -0.222423494 0.177544251
v 0.418699384 -0.120822571 0.178477123
v -0.331982762 -0.435035437 0.23340103
v -0.466136307 -0.228738517 0.236004621
v -0.499119014 -0.354111463 0.0258566421
v -0.509465456 -0.0686195493 0.0277929399
v -0.143309623 -0.391542077 0.212077901
v -0.331982762 -0.435035437 0.23340103
v -0.28553769 -0.423216432 0.0221787281
v -0.123873323 -0.133102313 0.196346566
v -0.143309623 -0.391542077 0.212077901
v -0.112026297 -0.177303374 0.0209729876
v -0.357760608 0.0341672674 0.211182967
v -0.123873323 -0.133102313 0.196346566
v -0.244848013 0.128739417 0.0250230469
v -0.112026297 -0.177303374 0.0209729876
v -0.466136307 -0.228738517 0.236004621
v -0.357760608 0.0341672674 0.211182967
v -0.244848013 0.128739417 0.0250230469
v 0.301611841 -0.0472253412 1.3054378
v -0.0480895713 0.148749173 1.38286984
v 0.0134965573 -0.228525996 1.3079145
v 0.335542619 0.338729769 1.36103082
v 0.301611841 -0.0472253412 1.3054378
v -0.0905109644 0.485429764 1.27618337
v 0.335542619 0.338729769 1.36103082
v -0.320378065 -0.141929746 1.3256129
v -0.476540983 0.235064045 1.35540962
v 0.0134965573 -0.228525996 1.3079145
v -0.320378065 -0.141929746 1.3256129
v -0.476540983 0.235064045 1.35540962
v -0.0905109644 0.485429764 1.27618337
v -0.0999745801 1.02131999 2.34694076
v 0.294332087 0.646935403 2.57771945
v 0.583420873 1.13393295 1.93683255
v -0.0877330154 0.313581258 2.74427962
v 0.594139457 -0.0876934975 2.32470536
v 0.812500417 0.511422932 2.26588917
v -0.0977715403 1.31284237 1.80456114
v -0.0749281496 0.96778518 1.11623895
v 0.606893837 0.812939346 1.18033659
v 0.841471136 0.085875921 1.37525356
v 0.755361378 -0.327256233 1.47002959
v 0.58400631 -0.30105412 1.49675596
v 0.294332087 0.646935403 2.57771945
v -0.0999745801 1.02131999 2.34694076
v 0.287824273 0.756493449 2.75732112
v -0.106482439 1.13087809 2.52654314
v -0.0877330154 0.313581258 2.74427962
v -0.0942408517 0.423139244 2.92388105
v -0.0722986236 -0.159483254 2.63081527
v -0.772429049 1.09591818 1.91089272
v -0.481224328 0.625190675 2.56288171
v -0.729525864 -0.124805875 2.29938149
v -0.978690326 0.461202234 2.23162055
v -0.748956025 0.774924576 1.15439677
v -0.949719608 0.0356552489 1.34098506
v -0.844292045 -0.372106671 1.43942547
v -0.675820351 -0.336376607 1.47265327
v -0.481224328 0.625190675 2.56288171
v -0.487732202 0.734748662 2.74248314
v -0.0487349443 -0.611256957 2.06123734
v 0.594139457 -0.0876934975 2.32470536
v -0.0722986236 -0.159483254 2.63081527
v -0.0323138498 -0.766690075 1.43070757
v -0.0353472121 -0.578930438 1.31409585
v 0.445425332 -0.653789759 1.45534861
v 0.58400631 -0.30105412 1.49675596
v -0.729525864 -0.124805875 2.29938149
v -0.675820351 -0.336376607 1.47265327
v -0.51621896 -0.68075192 1.43695068
v 0.606893837 0.812939346 1.18033659
v 0.841471136 0.085875921 1.37525356
v -0.0511313528 0.0849160478 1.16618001
v -0.0749281496 0.96778518 1.11623895
v 0.606893837 0.812939346 1.18033659
v -0.106482439 1.13087809 2.52654314
v -0.487732202 0.734748662 2.74248314
v 0.287824273 0.756493449 2.75732112
v -0.0942408517 0.423139244 2.92388105
v -0.0749281496 0.96778518 1.11623895
v -0.748956025 0.774924576 1.15439677
v -0.748956025 0.774924576 1.15439677
v -0.949719608 0.0356552489 1.34098506
v 0.841471136 0.085875921 1.37525356
v 0.58400631 -0.30105412 1.49675596
v -0.949719608 0.0356552489 1.34098506
v -0.675820351 -0.336376607 1.47265327
v -0.844292045 -0.372106671 1.43942547
v -0.0353472121 -0.578930438 1.31409585
v -0.0353472121 -0.578930438 1.31409585
v 0.755361378 -0.327256233 1.47002959
v -0.130918473 1.23046052 3.65785718
v 0.2891666 1.35191953 3.53240871
v -0.149712831 2.16453218 3.2713356
v -0.136915267 2.56253934 2.01913381
v 0.426991135 2.08914781 1.88091564
v -0.105041295 1.62439489 1.72796321
v -0.0797828063 0.22887443 2.45286703
v -0.117597997 1.39146197 2.72565794
v 0.390830249 1.65390611 2.96006131
v -0.0797828063 0.22887443 2.45286703
v 0.390830249 1.65390611 2.96006131
v -0.136915267 2.56253934 2.01913381
v 0.426991135 2.08914781 1.88091564
v 0.426991135 2.08914781 1.88091564
v -0.105041295 1.62439489 1.72796321
v -0.0797828063 0.22887443 2.45286703
v -0.552045166 1.32833397 3.51631498
v -0.667726099 2.05845475 1.85997176
v -0.64851445 1.62476528 2.94017673
v -0.64851445 1.62476528 2.94017673
v -0.667726099 2.05845475 1.85997176
v -0.667726099 2.05845475 1.85997176
v 0.936525941 0.371257097 1.8157922
v 0.929313362 0.648764729 1.78609765
v 0.936091006 0.235734969 2.03713536
v -0.705314875 0.469975412 2.00020909
v 0.920453608 0.80501014 2.02020907
v -0.705314875 0.469975412 2.00020909
v 0.920183003 0.659472167 2.24764299
v -0.705314875 0.469975412 2.00020909
v 0.927231193 0.391980976 2.27124858
v -0.705314875 0.469975412 2.00020909
v -0.705314875 0.469975412 2.00020909
v -0.705314875 0.469975412 2.00020909
v -0.0427596904 -0.976024747 2.28348517
v 0.506184578 -0.715764165 2.1877327
v -0.0804964751 -0.05449415 2.9054482
v 0.4814381 0.0891502872 2.76686025
v 0.783658206 0.303713769 2.53204179
v 0.80717206 -0.391726643 2.04058099
v 0.912454367 0.0169991888 1.82365048
v 0.877061129 0.595760524 2.20850182
v 0.515029192 -0.449109674 2.00601578
v -0.0462994315 -0.753204107 2.14195943
v 0.515029192 -0.449109674 2.00601578
v 0.515029192 -0.449109674 2.00601578
v 0.732186854 0.00876464974 1.76504266
v 0.766426682 0.627961814 2.18160915
v 0.540375412 0.273284197 2.57350922
v 0.540375412 0.273284197 2.57350922
v -0.0816012472 0.0773417801 2.76998711
v 0.540375412 0.273284197 2.57350922
v -0.601359606 -0.746816993 2.16654348
v -0.643887997 0.0575988516 2.74533081
v -0.91417855 -0.43998915 2.00764847
v -0.94845432 0.255149513 2.49890351
v -1.03381956 -0.0375696421 1.78641486
v -1.04563344 0.541852772 2.17171741
v -0.618172944 -0.480881959 1.98433554
v -0.618172944 -0.480881959 1.98433554
v -0.618172944 -0.480881959 1.98433554
v -0.851268232 -0.0356316119 1.73474836
v -0.936032057 0.580228925 2.14903808
v -0.705610633 0.238349751 2.54967117
v -0.705610633 0.238349751 2.54967117
v -0.705610633 0.238349751 2.54967117
v -1.07737887 0.314792067 1.77726269
v -1.07781374 0.17926994 1.99860573
v -1.08459139 0.59229964 1.74756813
v -1.09345102 0.748545051 1.98167968
v 0.548105538 0.50511831 2.024189
v 0.548105538 0.50511831 2.024189
v -1.09372175 0.603007138 2.20911336
v 0.548105538 0.50511831 2.024189
v -1.08667362 0.335515916 2.23271918
v 0.548105538 0.50511831 2.024189
v 0.548105538 0.50511831 2.024189
v 0.548105538 0.50511831 2.024189
vt 0.447620779 0.369837821
vt 0.359836459 0.369837821
vt 0.447620779 0.296352029
vt 0.334812403 0.298875451
vt 0.442670196 0.232421517
vt 0.459326714 0.256898403
vt 0.489720911 0.256083012
vt 0.51737231 0.231301367
vt 0.648877978 0.306758761
vt 0.490232676 0.302499175
vt 0.564909875 0.395419478
vt 0.542557895 0.0495240092
vt 0.648877978 0.0495240092
vt 0.387402415 0.228380442
vt 0.388798654 0.0495240092
vt 0.478921324 0.0495240092
vt 0.275552601 0.226544857
vt 0.275552601 0.0495240092
vt 0.66922015 0.256313384
vt 0.657080948 0.226228833
vt 0.671211243 0.185753465
vt 0.0805098414 0.329627156
vt 0.0215091202 0.328597248
vt 0.0818471014 0.259452462
vt 0.0215091202 0.259371102
vt 0.081881322 0.388517439
vt 0.0215091202 0.388517439
vt 0.081881322 0.0152298212
vt 0.081881322 0.115478933
vt 0.0215091202 0.0152298212
vt 0.0215091202 0.115478933
vt 0.0818790868 0.18034184
vt 0.0215091202 0.18030417
vt 0.199332148 0.388517439
vt 0.20941028 0.0152298212
vt 0.148094818 0.115478933
vt 0.163869768 0.160694242
vt 0.180012941 0.216120601
vt 0.18421191 0.313657641
vt 0.233537465 0.127647877
vt 0.194411978 0.10076648
vt 0.191614836 0.145015121
vt 0.194411978 0.10076648
vt 0.233537465 0.127647877
vt 0.238133684 0.199606478
vt 0.238133684 0.347905159
vt 0.257037491 0.119786918
vt 0.257037491 0.0152298212
vt 0.275552601 0.287452102
vt 0.721285105 0.264867604
vt 0.720350564 0.169720113
vt 0.490232676 0.372161269
vt 0.648877978 0.367114782
vt 0.268122852 0.30499661
vt 0.304987282 0.304042518
vt 0.253213614 0.34948957
vt 0.320886225 0.350850344
vt 0.28572464 0.392885387
vt 0.447620779 0.369837821
vt 0.447620779 0.296352029
vt 0.359836459 0.369837821
vt 0.334812403 0.298875451
vt 0.459326714 0.256898403
vt 0.442670196 0.232421517
vt 0.489720911 0.256083012
vt 0.51737231 0.231301367
vt 0.490232676 0.302499175
vt 0.564909875 0.395419478
vt 0.542557895 0.0495240092
vt 0.388798654 0.0495240092
vt 0.387402415 0.228380442
vt 0.478921324 0.0495240092
vt 0.66922015 0.256313384
vt 0.671211243 0.185753465
vt 0.657080948 0.226228833
vt 0.0215091202 0.259371102
vt 0.0215091202 0.328597248
vt 0.0818471014 0.259452462
vt 0.0805098414 0.329627156
vt 0.081881322 0.388517439
vt 0.0215091202 0.388517439
vt 0.0215091202 0.0152298212
vt 0.0215091202 0.115478933
vt 0.081881322 0.0152298212
vt 0.081881322 0.115478933
vt 0.0818790868 0.18034184
vt 0.0215091202 0.18030417
vt 0.199332148 0.388517439
vt 0.20941028 0.0152298212
vt 0.148094818 0.115478933
vt 0.163869768 0.160694242
vt 0.180012941 0.216120601
vt 0.18421191 0.313657641
vt 0.194411978 0.10076648
vt 0.233537465 0.127647877
vt 0.191614836 0.145015121
vt 0.233537465 0.127647877
vt 0.194411978 0.10076648
vt 0.238133684 0.199606478
vt 0.238133684 0.347905159
vt 0.257037491 0.0152298212
vt 0.257037491 0.119786918
vt 0.490232676 0.372161269
vt 0.320886225 0.350850344
vt 0.304987282 0.304042518
vt 0.253213614 0.34948957
vt 0.268122852 0.30499661
vt 0.28572464 0.392885387
vt 0.640631318 0.425334811
vt 0.624972045 0.411328197
vt 0.681744874 0.425334811
vt 0.679790139 0.411328197
vt 0.681744874 0.425334811
vt 0.750073552 0.425334811
vt 0.770895004 0.411328256
vt 0.822882473 0.425334811
vt 0.750073552 0.425334811
vt 0.867973566 0.411328256
vt 0.770895004 0.411328256
vt 0.605762422 0.425334811
vt 0.562096 0.425334811
vt 0.578480184 0.411328197
vt 0.520258248 0.411328197
vt 0.605762422 0.425334811
vt 0.640631318 0.425334811
vt 0.640631318 0.425334811
vt 0.681744874 0.425334811
vt 0.624972045 0.411328197
vt 0.679790139 0.411328197
vt 0.605762422 0.425334811
vt 0.640631318 0.425334811
vt 0.578480184 0.411328197
vt 0.562096 0.425334811
vt 0.605762422 0.425334811
vt 0.520258248 0.411328197
vt 0.750073552 0.425334811
vt 0.822882473 0.425334811
vt 0.770895004 0.411328256
vt 0.867973566 0.411328256
vt 0.681744874 0.425334811
vt 0.750073552 0.425334811
vt 0.770895004 0.411328256
vt 0.428861469 0.817742705
vt 0.458104193 0.779743254
vt 0.411319673 0.780868769
vt 0.478043497 0.825410187
vt 0.428861469 0.817742705
vt 0.500627875 0.77872026
vt 0.478043497 0.825410187
vt 0.428861439 0.817742705
vt 0.478043556 0.825410247
vt 0.411319673 0.780868769
vt 0.428861439 0.817742705
vt 0.478043556 0.825410247
vt 0.500627875 0.7787202
vt 0.0697516203 0.820581913
vt 0.0697516203 0.697417676
vt 0.162248254 0.746504903
vt 0.0240615904 0.660861075
vt 0.125598475 0.60882324
vt 0.144920737 0.66635865
vt 0.161586896 0.820581913
vt 0.261774749 0.820581913
vt 0.26166302 0.738115788
vt 0.26585108 0.655017436
vt 0.267243534 0.611306131
vt 0.276642203 0.600830674
vt 0.236055955 0.576262951
vt 0.151895195 0.549577713
vt 0.231700093 0.552792192
vt 0.170326352 0.525684416
vt 0.295093954 0.542910576
vt 0.276367128 0.522632658
vt 0.0240615904 0.600830674
vt 0.162248254 0.746504903
vt 0.0697516203 0.697417676
vt 0.125598475 0.60882324
vt 0.144920737 0.66635865
vt 0.26166302 0.738115788
vt 0.26585108 0.655017376
vt 0.267243534 0.611306131
vt 0.276642203 0.600830674
vt 0.236055955 0.576262951
vt 0.231700093 0.552792192
vt 0.0111018904 0.509470344
vt 0.109683387 0.552690804
vt 0.0139546804 0.559271932
vt 0.0139546804 0.438403249
vt 0.0139546804 0.41854912
vt 0.0620989613 0.440216482
vt 0.089016214 0.42738086
vt 0.109683387 0.552690804
vt 0.089016214 0.42738086
vt 0.0620989613 0.440216482
vt 0.266167879 0.319650769
vt 0.253341615 0.362797022
vt 0.300061405 0.36042881
vt 0.299987555 0.309353709
vt 0.266167879 0.319650769
vt 0.170326352 0.525684416
vt 0.231700093 0.552792192
vt 0.231700093 0.552792192
vt 0.276367128 0.522632658
vt 0.300129831 0.309353709
vt 0.266280651 0.319552898
vt 0.266280651 0.319552898
vt 0.253329664 0.362661958
vt 0.253341615 0.362797022
vt 0.267922997 0.38734287
vt 0.253329664 0.362661958
vt 0.267839938 0.387249827
vt 0.256280363 0.387325346
vt 0.30011785 0.399534106
vt 0.299999475 0.399534106
vt 0.2563636 0.387451768
vt 0.296751231 0.89781177
vt 0.343867868 0.875966609
vt 0.375445813 0.983281314
vt 0.502760708 0.544680297
vt 0.537096202 0.494338751
vt 0.578448534 0.544481695
vt 0.350062996 0.810121357
vt 0.405881822 0.796305835
vt 0.399684638 0.877296686
vt 0.350062996 0.810121357
vt 0.399684638 0.877296686
vt 0.526192904 0.983281314
vt 0.526192904 0.88736999
vt 0.526192904 0.88736999
vt 0.526192904 0.796305835
vt 0.296751231 0.816188633
vt 0.343867868 0.875966609
vt 0.537096202 0.494338751
vt 0.399684638 0.877296686
vt 0.399684638 0.877296686
vt 0.526192904 0.88736999
vt 0.526192904 0.88736999
vt 0.739238977 0.886305571
vt 0.770120502 0.918920279
vt 0.696023464 0.886496663
vt 0.721874177 0.926128685
vt 0.749413431 0.9663921
vt 0.721874177 0.926128685
vt 0.704502046 0.965942264
vt 0.721874177 0.926128685
vt 0.675242662 0.934138596
vt 0.721874177 0.926128685
vt 0.721874177 0.926128685
vt 0.721874177 0.926128685
vt 0.0140800001 0.853590012
vt 0.0906900018 0.853590012
vt 0.0140800001 0.971969962
vt 0.0960600004 0.971970022
vt 0.153779998 0.971969962
vt 0.153779998 0.853590012
vt 0.208425 0.853590012
vt 0.208425 0.971969962
vt 0.122235 0.839439988
vt 0.0140800001 0.839439988
vt 0.122235 0.839439988
vt 0.122235 0.839439988
vt 0.220390007 0.839439988
vt 0.220390007 0.987089992
vt 0.124764994 0.987089992
vt 0.124764994 0.987089992
vt 0.0140800001 0.987089992
vt 0.124764994 0.987089992
vt 0.0906900018 0.853590012
vt 0.0960600004 0.971970022
vt 0.153779998 0.853590012
vt 0.153779998 0.971969962
vt 0.208425 0.853590012
vt 0.208425 0.971969962
vt 0.122235 0.839439988
vt 0.122235 0.839439988
vt 0.122235 0.839439988
vt 0.220390007 0.839439988
vt 0.220390007 0.987089992
vt 0.124764994 0.987089992
vt 0.124764994 0.987089992
vt 0.124764994 0.987089992
vt 0.739238977 0.886305571
vt 0.696023464 0.886496663
vt 0.770120502 0.918920279
vt 0.749413431 0.9663921
vt 0.721874177 0.926128685
vt 0.721874177 0.926128685
vt 0.704502046 0.965942264
vt 0.721874177 0.926128685
vt 0.675242662 0.934138596
vt 0.721874177 0.926128685
vt 0.721874177 0.926128685
vt 0.721874177 0.926128685
vn 0.656321585 -0.035899777 0.753626704
vn 0.252795339 0.136525989 0.957838774
vn 0.663999677 -0.475757837 0.57685256
vn 0.445168763 -0.422183782 0.789674342
vn 0.986016154 0.00710818591 -0.166498184
vn -0.382836401 -0.742193818 -0.550076962
vn -0.919932067 0.378960669 0.100567013
vn 0.204950213 0.925637126 -0.318105906
vn -0.224696845 0.971394837 -0.0768332854
vn 0.116189249 0.862394989 0.492721885
vn 0.252795339 0.136525989 0.957838774
vn 0.0666544214 0.721827209 -0.688856065
vn -0.220851526 0.610475957 -0.760620654
vn 0.698417366 -0.693636477 0.176299706
vn 0.673558235 -0.519664943 -0.525611758
vn 0.825224876 0.399939328 -0.398814023
vn 0.237842724 -0.936481237 0.257747561
vn 0.243105248 -0.883148551 -0.401183844
vn 0.0666544214 0.721827209 -0.688856065
vn 0.825224876 0.399939328 -0.398814023
vn 0.673558235 -0.519664943 -0.525611758
vn 0.314399421 0.823011041 0.473081231
vn 0.116189249 0.862394989 0.492721885
vn 0.85388577 -0.0248289034 0.519867837
vn 0.656321585 -0.035899777 0.753626704
vn -0.82951951 0.53946054 -0.144498289
vn -0.919932067 0.378960669 0.100567013
vn -0.82951951 0.53946054 -0.144498289
vn -0.939552128 -0.180116728 -0.291203767
vn -0.919932067 0.378960669 0.100567013
vn -0.382836401 -0.742193818 -0.550076962
vn 0.480655164 -0.838237524 0.257543355
vn 0.663999677 -0.475757837 0.57685256
vn -0.636208236 0.607817173 -0.475181341
vn -0.636208236 0.607817173 -0.475181341
vn -0.935838699 -0.0857609361 -0.341834813
vn -0.134360641 -0.981377184 -0.137281239
vn 0.929022193 -0.261474699 -0.261818498
vn 0.918142319 0.357860833 -0.170148194
vn -0.368163496 0.136220098 -0.9197281
vn -0.844143927 -0.0253649633 -0.535516262
vn -0.0713907629 -0.785819054 -0.614322066
vn -0.844143927 -0.0253649633 -0.535516262
vn -0.368163496 0.136220098 -0.9197281
vn 0.489843369 -0.132647127 -0.861660123
vn 0.480213672 0.482551247 -0.732488334
vn 0.489843369 -0.132647127 -0.861660123
vn 0.480213672 0.482551247 -0.732488334
vn 0.121384807 -0.627026677 0.769482434
vn -0.220851526 0.610475957 -0.760620654
vn 0.243105248 -0.883148551 -0.401183844
vn 0.656321585 -0.035899777 0.753626704
vn -0.0742748827 0.565888882 0.821128964
vn 0.510251045 -0.114111863 -0.852421463
vn -0.0966234133 -0.485001922 -0.869158804
vn 0.487363726 0.511056304 -0.708024085
vn -0.619498551 -0.137298957 -0.772897482
vn -0.268768877 0.87339282 -0.406138331
vn -0.688282013 -0.140704304 0.71166718
vn -0.515307009 -0.561536074 0.647407115
vn -0.366475582 0.104102947 0.924585402
vn -0.312780678 -0.497033566 0.809398413
vn 0.886986375 -0.421701252 -0.188210547
vn -0.923345208 -0.345062166 -0.168421432
vn 0.628012419 0.777582586 -0.0310734622
vn -0.497623444 0.778123438 -0.383268416
vn -0.469933897 0.812667131 0.344578564
vn -0.366475582 0.104102947 0.924585402
vn -0.515477419 0.502834082 -0.693859518
vn -0.319790155 -0.850260735 -0.4180803
vn -0.336444765 -0.908081651 0.249384746
vn -0.915012777 -0.296723306 -0.273325711
vn -0.515477419 0.502834082 -0.693859518
vn -0.319790155 -0.850260735 -0.4180803
vn -0.915012777 -0.296723306 -0.273325711
vn -0.688282013 -0.140704304 0.71166718
vn -0.469933897 0.812667131 0.344578564
vn -0.905721188 0.00409670966 0.423854083
vn -0.540331841 0.829128981 0.143480524
vn 0.802179396 0.563108027 -0.198538974
vn 0.628012419 0.777582586 -0.0310734622
vn 0.628012419 0.777582586 -0.0310734622
vn 0.886986375 -0.421701252 -0.188210547
vn 0.802179396 0.563108027 -0.198538974
vn 0.989315569 -0.131145254 -0.063684471
vn -0.394680738 -0.765406609 0.508310735
vn -0.515307009 -0.561536074 0.647407115
vn 0.767101347 0.405657589 -0.496988326
vn 0.767101347 0.405657589 -0.496988326
vn 0.978856206 -0.201350659 -0.0360333622
vn 0.0555507988 -0.971082032 0.232193619
vn -0.920819104 -0.25303939 -0.296754688
vn -0.837563097 0.325323313 -0.438922286
vn 0.895062089 -0.279361367 -0.347593457
vn 0.497673452 -0.227061361 -0.837116659
vn 0.0454799086 -0.955234528 -0.292332947
vn 0.497673452 -0.227061361 -0.837116659
vn 0.895062089 -0.279361367 -0.347593457
vn -0.388559431 -0.389619052 -0.834996223
vn -0.310937792 0.233718067 -0.921245575
vn -0.310937792 0.233718067 -0.921245575
vn -0.388559431 -0.389619052 -0.834996223
vn -0.688282013 -0.140704304 0.71166718
vn 0.657929242 0.0593136437 -0.75074023
vn 0.195302039 -0.49053812 -0.849252224
vn -0.710493445 0.289515018 -0.641389191
vn -0.551759481 -0.346532941 -0.758601606
vn 0.233551025 0.906440496 -0.351880074
vn 0.897914767 -0.432270795 0.0830119401
vn 0.510251045 -0.114111863 -0.852421463
vn 0.741902113 0.530759871 0.409725875
vn 0.487363726 0.511056304 -0.708024085
vn 0.741902113 0.530759871 0.409725875
vn -0.470544666 0.740016997 0.480585724
vn -0.268768877 0.87339282 -0.406138331
vn -0.893341243 -0.443237156 -0.0740415156
vn -0.470544666 0.740016997 0.480585724
vn -0.619498551 -0.137298957 -0.772897482
vn -0.268768877 0.87339282 -0.406138331
vn -0.174834862 -0.965486705 -0.193049446
vn -0.893341243 -0.443237156 -0.0740415156
vn -0.0966234133 -0.485001922 -0.869158804
vn -0.619498551 -0.137298957 -0.772897482
vn -0.174834862 -0.965486705 -0.193049446
vn 0.897914767 -0.432270795 0.0830119401
vn -0.486704737 -0.868561208 0.0933798924
vn -0.946293831 0.0117805293 0.323093116
vn -0.551759481 -0.346532941 -0.758601606
vn -0.710493445 0.289515018 -0.641389191
vn 0.697715163 -0.67922169 -0.227708966
vn -0.486704737 -0.868561208 0.0933798924
vn 0.195302039 -0.49053812 -0.849252224
vn 0.966078162 0.229603827 0.118215799
vn 0.697715163 -0.67922169 -0.227708966
vn 0.657929242 0.0593136437 -0.75074023
vn -0.263827682 0.865765393 0.425258934
vn 0.966078162 0.229603827 0.118215799
vn 0.233551025 0.906440496 -0.351880074
vn 0.657929242 0.0593136437 -0.75074023
vn -0.946293831 0.0117805293 0.323093116
vn -0.263827682 0.865765393 0.425258934
vn 0.233551025 0.906440496 -0.351880074
vn 0.445168763 -0.422183782 0.789674342
vn 0.00271351822 0.0329464413 0.999453425
vn 0.121384807 -0.627026677 0.769482434
vn 0.252795339 0.136525989 0.957838774
vn 0.445168763 -0.422183782 0.789674342
vn -0.0742748827 0.565888882 0.821128964
vn 0.252795339 0.136525989 0.957838774
vn -0.312780678 -0.497033566 0.809398413
vn -0.366475582 0.104102947 0.924585402
vn 0.121384807 -0.627026677 0.769482434
vn -0.312780678 -0.497033566 0.809398413
vn -0.366475582 0.104102947 0.924585402
vn -0.0742748827 0.565888882 0.821128964
vn -0.0333935879 0.911886394 0.409081936
vn 0.66323781 0.248278692 0.706026435
vn 0.712164462 0.698350847 -0.0716085956
vn -0.00731856981 -0.372264504 0.928097904
vn 0.764035285 -0.423449457 0.486765623
vn 0.961680591 0.143806428 0.233431295
vn -0.0230494048 0.974473357 -0.223316684
vn -0.00651843939 0.711770356 -0.702382088
vn 0.694043577 0.482564926 -0.53426075
vn 0.962292194 -0.0597185753 -0.265381426
vn 0.913665533 -0.378026694 0.149368957
vn 0.515473604 -0.531146765 -0.672435999
vn 0.66323781 0.248278692 0.706026435
vn -0.0333935879 0.911886394 0.409081936
vn 0.438542604 0.452360064 0.776563466
vn -0.0338622145 0.857891321 0.512714207
vn -0.00731856981 -0.372264504 0.928097904
vn -0.0203841832 0.0455237925 0.998755217
vn -4.88832848e-05 -0.562449574 0.826831639
vn -0.746904194 0.657441497 -0.0995231941
vn -0.702602208 0.20998387 0.679894805
vn -0.75716418 -0.466098964 0.457661599
vn -0.976443589 0.089467302 0.19635044
vn -0.699056566 0.443505675 -0.560912251
vn -0.946590126 -0.113237038 -0.30190143
vn -0.896099627 -0.428765148 0.114743173
vn -0.458838224 -0.55846411 -0.691075385
vn -0.702602208 0.20998387 0.679894805
vn -0.492550015 0.426254511 0.758750021
vn 0.0151484888 -0.872968912 0.487540513
vn 0.764035285 -0.423449457 0.486765623
vn -4.88832848e-05 -0.562449574 0.826831639
vn 0.0336496532 -0.890345156 -0.454041064
vn 0.0246273167 -0.211670116 -0.977030754
vn 0.592146456 -0.787346423 -0.171604693
vn 0.515473604 -0.531146765 -0.672435999
vn -0.75716418 -0.466098964 0.457661599
vn -0.458838224 -0.55846411 -0.691075385
vn -0.540124834 -0.819092751 -0.193266943
vn 0.694043577 0.482564926 -0.53426075
vn 0.962292194 -0.0597185753 -0.265381426
vn 0.0241642464 -0.192464009 -0.981006503
vn -0.00651843939 0.711770356 -0.702382088
vn 0.694043577 0.482564926 -0.53426075
vn -0.0338622145 0.857891321 0.512714207
vn -0.492550015 0.426254511 0.758750021
vn 0.438542604 0.452360064 0.776563466
vn -0.0203841832 0.0455237925 0.998755217
vn -0.00651843939 0.711770356 -0.702382088
vn -0.699056566 0.443505675 -0.560912251
vn -0.699056566 0.443505675 -0.560912251
vn -0.946590126 -0.113237038 -0.30190143
vn 0.962292194 -0.0597185753 -0.265381426
vn 0.515473604 -0.531146765 -0.672435999
vn -0.946590126 -0.113237038 -0.30190143
vn -0.458838224 -0.55846411 -0.691075385
vn -0.896099627 -0.428765148 0.114743173
vn 0.0246273167 -0.211670116 -0.977030754
vn 0.0246273167 -0.211670116 -0.977030754
vn 0.913665533 -0.378026694 0.149368957
vn -0.00450241147 -0.449094206 0.893473029
vn 0.821490943 -0.228128612 0.522599161
vn -0.0335688367 0.898207307 0.438288391
vn -0.0304403268 0.989557505 0.140887737
vn 0.974609315 0.182223201 -0.130120873
vn 0.0338934734 -0.848512173 -0.528089464
vn 0.0331577323 -0.926012576 -0.376033515
vn 0.0330857113 -0.680601001 -0.731906891
vn 0.990971148 0.127106816 0.0426618531
vn 0.0331577323 -0.926012576 -0.376033515
vn 0.990971148 0.127106816 0.0426618531
vn -0.0304403268 0.989557505 0.140887737
vn 0.974609315 0.182223201 -0.130120873
vn 0.974609315 0.182223201 -0.130120873
vn 0.0338934734 -0.848512173 -0.528089464
vn 0.0331577323 -0.926012576 -0.376033515
vn -0.826796353 -0.274342507 0.49106425
vn -0.977599382 0.127487943 -0.167470023
vn -0.997440159 0.0713563859 0.00462010503
vn -0.997440159 0.0713563859 0.00462010503
vn -0.977599382 0.127487943 -0.167470023
vn -0.977599382 0.127487943 -0.167470023
vn -0.0199915599 -0.520573974 -0.853582501
vn 0.227607951 0.425043613 -0.876089334
vn 0.250642538 -0.966832519 0.0491255447
vn -0.999140143 0.00168305496 -0.0414253473
vn 0.187462658 0.982049167 -0.020906724
vn -0.999140143 0.00168305496 -0.0414253473
vn -0.0817020908 0.518336713 0.851264775
vn -0.999140143 0.00168305496 -0.0414253473
vn 0.227820978 -0.427774161 0.874703825
vn -0.999140143 0.00168305496 -0.0414253473
vn -0.999140143 0.00168305496 -0.0414253473
vn -0.999140143 0.00168305496 -0.0414253473
vn 0.00819750782 -0.746431947 0.665411174
vn 0.517805815 -0.647264719 0.559397459
vn -0.00504656043 -0.434560806 0.900628388
vn 0.490539432 -0.335801184 0.804119706
vn 0.846055984 -0.13569276 0.515535235
vn 0.861756325 -0.422263771 0.281192541
vn 0.979594588 -0.0799495354 -0.184397236
vn 0.953896999 0.283261865 0.0992130637
vn 0.171052292 -0.541916847 -0.822840929
vn 0.0314241759 -0.552396834 -0.832988739
vn 0.171052292 -0.541916847 -0.822840929
vn 0.171052292 -0.541916847 -0.822840929
vn 0.294198304 -0.119017109 -0.948305011
vn 0.252871305 0.947196305 -0.197168395
vn 0.0112755056 0.7254408 0.688192248
vn 0.0112755056 0.7254408 0.688192248
vn -0.0334611312 0.721549928 0.691553473
vn 0.0112755056 0.7254408 0.688192248
vn -0.501740038 -0.675850332 0.539891899
vn -0.501335144 -0.363611042 0.785143316
vn -0.846869767 -0.470168054 0.248502463
vn -0.856213331 -0.183419466 0.482965857
vn -0.965814769 -0.13449508 -0.221614406
vn -0.971359253 0.229280531 0.0623823069
vn -0.108856991 -0.549764931 -0.828196049
vn -0.108856991 -0.549764931 -0.828196049
vn -0.108856991 -0.549764931 -0.828196049
vn -0.250613749 -0.134296685 -0.958726823
vn -0.297811836 0.931756616 -0.207696483
vn -0.0781838819 0.722932756 0.686480522
vn -0.0781838819 0.722932756 0.686480522
vn -0.0781838819 0.722932756 0.686480522
vn 0.081726715 -0.51772213 -0.851636469
vn -0.197790295 -0.979405403 0.0405461378
vn -0.217407316 0.412566364 -0.884603381
vn -0.241237447 0.970029533 -0.0291091576
vn 0.99832952 0.0576873161 -0.00320774666
vn 0.99832952 0.0576873161 -0.00320774666
vn 0.0199467074 0.52118659 0.853209555
vn 0.99832952 0.0576873161 -0.00320774666
vn -0.236767337 -0.440800041 0.86581552
vn 0.99832952 0.0576873161 -0.00320774666
vn 0.99832952 0.0576873161 -0.00320774666
vn 0.99832952 0.0576873161 -0.00320774666
f 1/1/1 2/2/2 3/3/3
f 3/3/3 2/2/2 4/4/4
f 3/3/3 5/5/5 6/6/6
f 7/7/7 6/6/6 8/8/8
f 5/5/5 8/8/8 6/6/6
f 8/8/8 9/9/9 10/10/10
f 9/9/9 11/11/11 10/10/10
f 12/12/12 13/13/13 8/8/8
f 8/8/8 13/13/13 9/9/9
f 5/5/5 14/14/14 15/15/15
f 16/16/16 12/12/12 8/8/8
f 17/17/17 18/18/18 14/14/14
f 14/14/14 18/18/18 15/15/15
f 19/19/19 20/20/20 21/21/21
f 22/22/22 23/23/23 24/24/24
f 24/24/24 23/23/23 25/25/25
f 26/26/26 27/27/27 22/22/22
f 22/22/22 27/27/27 23/23/23
f 28/28/28 29/29/29 30/30/30
f 30/30/30 29/29/29 31/31/31
f 29/29/29 32/32/32 31/31/31
f 31/31/31 32/32/32 33/33/33
f 32/32/32 24/24/24 33/33/33
f 33/33/33 24/24/24 25/25/25
f 34/34/34 26/26/26 22/22/22
f 35/35/35 36/36/36 28/28/28
f 28/28/28 36/36/36 29/29/29
f 32/32/32 29/29/29 37/37/37
f 24/24/24 32/32/32 38/38/38
f 22/22/22 24/24/24 39/39/39
f 32/32/32 37/37/37 38/38/38
f 35/35/35 40/40/40 41/41/41
f 36/36/36 35/35/35 41/41/41
f 42/42/42 43/43/43 44/44/44
f 45/45/45 37/37/37 40/40/40
f 46/46/46 39/39/39 45/45/45
f 45/45/45 39/39/39 38/38/38
f 39/39/39 46/46/46 22/22/22
f 45/45/45 38/38/38 37/37/37
f 43/43/43 42/42/42 36/36/36
f 36/36/36 42/42/42 37/37/37
f 37/37/37 42/42/42 40/40/40
f 47/47/47 40/40/40 48/48/48
f 48/48/48 40/40/40 35/35/35
f 14/14/14 4/4/4 17/17/17
f 17/17/17 4/4/4 49/49/49
f 38/38/38 39/39/39 24/24/24
f 37/37/37 29/29/29 36/36/36
f 34/34/34 22/22/22 46/46/46
f 5/5/5 15/15/15 16/16/16
f 19/19/19 21/21/21 50/50/50
f 50/50/50 21/21/21 51/51/51
f 16/16/16 8/8/8 5/5/5
f 3/3/3 14/14/14 5/5/5
f 3/3/3 4/4/4 14/14/14
f 10/10/10 7/7/7 8/8/8
f 11/11/11 52/52/52 10/10/10
f 9/9/9 53/53/53 11/11/11
f 54/54/54 55/55/55 56/56/56
f 56/56/56 55/55/55 57/57/57
f 56/56/56 57/57/57 58/58/58
f 59/59/59 60/60/60 61/61/61
f 61/61/61 60/60/60 62/62/62
f 60/60/60 63/63/63 64/64/64
f 65/65/65 66/66/66 63/63/63
f 64/64/64 63/63/63 66/66/66
f 66/66/66 67/67/67 9/9/9
f 9/9/9 67/67/67 68/68/68
f 9/9/9 13/13/13 66/66/66
f 66/66/66 13/13/13 69/69/69
f 64/64/64 70/70/70 71/71/71
f 72/72/72 66/66/66 69/69/69
f 71/71/71 70/70/70 17/17/17
f 17/17/17 70/70/70 18/18/18
f 73/73/73 74/74/74 75/75/75
f 76/76/76 77/77/77 78/78/78
f 78/78/78 77/77/77 79/79/79
f 80/80/80 79/79/79 81/81/81
f 81/81/81 79/79/79 77/77/77
f 82/82/82 83/83/83 84/84/84
f 84/84/84 83/83/83 85/85/85
f 85/85/85 83/83/83 86/86/86
f 86/86/86 83/83/83 87/87/87
f 86/86/86 87/87/87 78/78/78
f 78/78/78 87/87/87 76/76/76
f 88/88/88 79/79/79 80/80/80
f 84/84/84 85/85/85 89/89/89
f 89/89/89 85/85/85 90/90/90
f 86/86/86 91/91/91 85/85/85
f 78/78/78 92/92/92 86/86/86
f 79/79/79 93/93/93 78/78/78
f 86/86/86 92/92/92 91/91/91
f 89/89/89 94/94/94 95/95/95
f 90/90/90 94/94/94 89/89/89
f 96/96/96 97/97/97 98/98/98
f 99/99/99 95/95/95 91/91/91
f 100/100/100 99/99/99 93/93/93
f 93/93/93 99/99/99 92/92/92
f 93/93/93 79/79/79 100/100/100
f 99/99/99 91/91/91 92/92/92
f 91/91/91 96/96/96 90/90/90
f 90/90/90 96/96/96 98/98/98
f 91/91/91 95/95/95 96/96/96
f 89/89/89 95/95/95 101/101/101
f 101/101/101 95/95/95 102/102/102
f 71/71/71 17/17/17 62/62/62
f 62/62/62 17/17/17 49/49/49
f 92/92/92 78/78/78 93/93/93
f 91/91/91 90/90/90 85/85/85
f 88/88/88 100/100/100 79/79/79
f 64/64/64 72/72/72 70/70/70
f 51/51/51 74/74/74 50/50/50
f 50/50/50 74/74/74 73/73/73
f 72/72/72 64/64/64 66/66/66
f 60/60/60 64/64/64 71/71/71
f 60/60/60 71/71/71 62/62/62
f 67/67/67 66/66/66 65/65/65
f 68/68/68 67/67/67 103/103/103
f 9/9/9 68/68/68 53/53/53
f 104/104/104 105/105/105 106/106/106
f 106/106/106 105/105/105 107/107/107
f 106/106/106 108/108/108 104/104/104
f 109/109/109 110/110/110 111/111/111
f 111/111/111 110/110/110 112/112/112
f 113/113/113 112/112/112 114/114/114
f 114/114/114 112/112/112 115/115/115
f 116/116/116 117/117/117 118/118/118
f 118/118/118 117/117/117 119/119/119
f 120/120/120 121/121/121 122/122/122
f 122/122/122 121/121/121 123/123/123
f 124/124/124 122/122/122 125/125/125
f 125/125/125 122/122/122 110/110/110
f 126/126/126 127/127/127 128/128/128
f 128/128/128 127/127/127 129/129/129
f 130/130/130 131/131/131 132/132/132
f 132/132/132 131/131/131 128/128/128
f 133/133/133 134/134/134 135/135/135
f 135/135/135 134/134/134 132/132/132
f 136/136/136 137/137/137 138/138/138
f 138/138/138 137/137/137 139/139/139
f 140/140/140 141/141/141 129/129/129
f 129/129/129 141/141/141 142/142/142
f 143/143/143 144/144/144 145/145/145
f 146/146/146 144/144/144 147/147/147
f 148/148/148 144/144/144 149/149/149
f 150/150/150 144/144/144 151/151/151
f 152/152/152 144/144/144 153/153/153
f 154/154/154 144/144/144 155/155/155
f 156/156/156 157/157/157 158/158/158
f 157/157/157 159/159/159 160/160/160
f 157/157/157 160/160/160 161/161/161
f 157/157/157 161/161/161 158/158/158
f 162/162/162 158/158/158 163/163/163
f 163/163/163 158/158/158 164/164/164
f 161/161/161 160/160/160 165/165/165
f 165/165/165 160/160/160 166/166/166
f 158/158/158 161/161/161 164/164/164
f 164/164/164 161/161/161 165/165/165
f 166/166/166 160/160/160 167/167/167
f 168/168/168 169/169/169 170/170/170
f 170/170/170 169/169/169 171/171/171
f 172/172/172 168/168/168 173/173/173
f 173/173/173 168/168/168 170/170/170
f 156/156/156 158/158/158 162/162/162
f 160/160/160 159/159/159 174/174/174
f 156/156/156 175/175/175 176/176/176
f 176/176/176 177/177/177 159/159/159
f 176/176/176 178/178/178 177/177/177
f 176/176/176 175/175/175 178/178/178
f 162/162/162 163/163/163 175/175/175
f 175/175/175 163/163/163 179/179/179
f 178/178/178 180/180/180 177/177/177
f 177/177/177 180/180/180 181/181/181
f 175/175/175 179/179/179 178/178/178
f 178/178/178 179/179/179 180/180/180
f 181/181/181 182/182/182 177/177/177
f 183/183/183 184/184/184 169/169/169
f 169/169/169 184/184/184 171/171/171
f 172/172/172 173/173/173 183/183/183
f 183/183/183 173/173/173 184/184/184
f 156/156/156 162/162/162 175/175/175
f 177/177/177 174/174/174 159/159/159
f 185/185/185 186/186/186 187/187/187
f 188/188/188 189/189/189 190/190/190
f 190/190/190 189/189/189 191/191/191
f 190/190/190 185/185/185 188/188/188
f 186/186/186 185/185/185 190/190/190
f 186/186/186 190/190/190 191/191/191
f 185/185/185 187/187/187 192/192/192
f 193/193/193 189/189/189 194/194/194
f 194/194/194 189/189/189 188/188/188
f 194/194/194 188/188/188 185/185/185
f 192/192/192 194/194/194 185/185/185
f 192/192/192 193/193/193 194/194/194
f 195/195/195 196/196/196 197/197/197
f 198/198/198 199/199/199 197/197/197
f 200/200/200 201/201/201 202/202/202
f 202/202/202 201/201/201 203/203/203
f 204/204/204 197/197/197 205/205/205
f 206/206/206 197/197/197 207/207/207
f 197/197/197 208/208/208 209/209/209
f 210/210/210 211/211/211 212/212/212
f 213/213/213 197/197/197 209/209/209
f 211/211/211 197/197/197 214/214/214
f 197/197/197 211/211/211 210/210/210
f 209/209/209 208/208/208 215/215/215
f 216/216/216 217/217/217 218/218/218
f 219/219/219 220/220/220 221/221/221
f 222/222/222 223/223/223 224/224/224
f 225/225/225 224/224/224 217/217/217
f 218/218/218 226/226/226 227/227/227
f 227/227/227 226/226/226 228/228/228
f 224/224/224 223/223/223 229/229/229
f 229/229/229 223/223/223 230/230/230
f 231/231/231 217/217/217 216/216/216
f 218/218/218 217/217/217 226/226/226
f 216/216/216 218/218/218 232/232/232
f 219/219/219 221/221/221 233/233/233
f 222/222/222 234/234/234 223/223/223
f 225/225/225 232/232/232 234/234/234
f 218/218/218 227/227/227 235/235/235
f 235/235/235 227/227/227 236/236/236
f 234/234/234 237/237/237 223/223/223
f 223/223/223 237/237/237 230/230/230
f 231/231/231 216/216/216 232/232/232
f 218/218/218 235/235/235 232/232/232
f 238/238/238 239/239/239 240/240/240
f 239/239/239 241/241/241 242/242/242
f 243/243/243 244/244/244 242/242/242
f 245/245/245 246/246/246 244/244/244
f 246/246/246 247/247/247 240/240/240
f 248/248/248 238/238/238 240/240/240
f 249/249/249 239/239/239 238/238/238
f 242/242/242 246/246/246 239/239/239
f 239/239/239 246/246/246 240/240/240
f 246/246/246 242/242/242 244/244/244
f 250/250/250 251/251/251 252/252/252
f 252/252/252 251/251/251 253/253/253
f 254/254/254 253/253/253 255/255/255
f 255/255/255 253/253/253 251/251/251
f 255/255/255 256/256/256 254/254/254
f 254/254/254 256/256/256 257/257/257
f 258/258/258 251/251/251 259/259/259
f 259/259/259 251/251/251 250/250/250
f 255/255/255 251/251/251 260/260/260
f 261/261/261 262/262/262 255/255/255
f 255/255/255 262/262/262 256/256/256
f 257/257/257 256/256/256 263/263/263
f 263/263/263 256/256/256 262/262/262
f 257/257/257 263/263/263 254/254/254
f 254/254/254 263/263/263 264/264/264
f 253/253/253 254/254/254 265/265/265
f 252/252/252 253/253/253 266/266/266
f 266/266/266 253/253/253 267/267/267
f 250/250/250 252/252/252 268/268/268
f 268/268/268 252/252/252 269/269/269
f 268/268/268 269/269/269 270/270/270
f 270/270/270 269/269/269 271/271/271
f 270/270/270 271/271/271 272/272/272
f 272/272/272 271/271/271 273/273/273
f 274/274/274 259/259/259 268/268/268
f 268/268/268 259/259/259 250/250/250
f 270/270/270 275/275/275 268/268/268
f 276/276/276 270/270/270 277/277/277
f 277/277/277 270/270/270 272/272/272
f 277/277/277 272/272/272 278/278/278
f 278/278/278 272/272/272 273/273/273
f 279/279/279 278/278/278 271/271/271
f 271/271/271 278/278/278 273/273/273
f 269/269/269 280/280/280 271/271/271
f 281/281/281 269/269/269 266/266/266
f 266/266/266 269/269/269 252/252/252
f 282/282/282 283/283/283 284/284/284
f 284/284/284 285/285/285 286/286/286
f 287/287/287 285/285/285 288/288/288
f 289/289/289 288/288/288 290/290/290
f 290/290/290 283/283/283 291/291/291
f 292/292/292 283/283/283 282/282/282
f 293/293/293 282/282/282 284/284/284
f 283/283/283 290/290/290 284/284/284
f 284/284/284 290/290/290 285/285/285
f 290/290/290 288/288/288 285/285/285
