# Extracted from the Cocos Creator 3.8.3 playable build
# Geometry-only OBJ preview for Unity; rig and animation stay in the raw assets.
o mesh_f0848989
v 0.106163055 0.0580301285 1.69356441
v -0.114074662 0.058008194 1.69376421
v -0.11403653 -0.290026665 1.69376433
v 0.106201217 -0.29000473 1.69356453
v 0.106163055 0.0580301285 1.69356441
v -0.114967301 0.0580060147 -2.65312552
v -0.114074662 0.058008194 1.69376421
v 0.105270416 0.0580289029 -2.65326953
v -0.11403653 -0.290026665 1.69376433
v -0.11492154 -0.290028811 -2.54820085
v 0.106201217 -0.29000473 1.69356453
v 0.105316207 -0.290005922 -2.54834437
v -0.11492154 -0.290028811 -2.54820085
v -0.11403653 -0.290026665 1.69376433
v -0.114074662 0.058008194 1.69376421
v -0.114967301 0.0580060147 -2.65312552
v 0.106163055 0.0580301285 1.69356441
v 0.105316207 -0.290005922 -2.54834437
v 0.105270416 0.0580289029 -2.65326953
v 0.106201217 -0.29000473 1.69356453
v 0.106163032 0.590343535 1.93256843
v -0.114082322 0.590320647 1.93276823
v -0.11403653 0.242286757 1.93276823
v 0.106201194 0.242308691 1.93256843
v 0.106163032 0.590343535 1.93256843
v -0.114967331 0.590319335 -2.65312624
v -0.114082322 0.590320647 1.93276823
v 0.105270393 0.59034127 -2.65326977
v -0.11403653 0.242286757 1.93276823
v -0.11492154 0.242284447 -2.84211421
v 0.106201194 0.242308691 1.93256843
v 0.105316184 0.242306381 -2.84225726
v -0.11403653 0.242286757 1.93276823
v -0.114967331 0.590319335 -2.65312624
v -0.11492154 0.242284447 -2.84211421
v -0.114082322 0.590320647 1.93276823
v 0.106201194 0.242308691 1.93256843
v 0.105270393 0.59034127 -2.65326977
v 0.106163032 0.590343535 1.93256843
v 0.105316184 0.242306381 -2.84225726
v 0.14244087 -0.986938715 0.939505875
v 0.142440796 0.947161376 0.625803471
v 0.142440796 0.947163343 0.939504862
v 0.1424485 -0.986938775 0.625805438
v 0.1424485 -0.986938775 0.625805438
v 0.00527190417 0.947161317 0.468945473
v 0.142440796 0.947161376 0.625803471
v 0.00527198892 -0.986940742 0.468949109
v -0.131889343 0.947161376 0.625801086
v 0.00527198892 -0.986940742 0.468949109
v -0.131881639 -0.986940682 0.62580353
v 0.00527190417 0.947161317 0.468945473
v -0.131889343 0.947161436 0.939502239
v -0.131881639 -0.986940682 0.62580353
v -0.131889269 -0.986940622 0.939505398
v -0.131889343 0.947161376 0.625801086
v 0.00527198892 -0.986938655 1.09636307
v 0.00527190417 0.947161496 1.09636116
v -0.131889343 0.947161436 0.939502239
v -0.131889269 -0.986940622 0.939505398
v 0.00527190417 0.947161496 1.09636116
v 0.00527198892 -0.986938655 1.09636307
v 0.14244087 -0.986938715 0.939505875
v 0.142440796 0.947163343 0.939504862
v 0.106163077 -0.445378363 1.44050086
v -0.114074647 -0.445401251 1.4406997
v -0.1140365 -0.79343611 1.44070125
v 0.106201239 -0.793414176 1.44050145
v 0.106163077 -0.445378363 1.44050086
v -0.114967287 -0.445403427 -2.81879759
v -0.114074647 -0.445401251 1.4406997
v 0.105270438 -0.445380539 -2.81894207
v -0.1140365 -0.79343611 1.44070125
v -0.11492151 -0.793438256 -2.85193253
v 0.106201239 -0.793414176 1.44050145
v 0.105316229 -0.793417275 -2.85207605
v -0.1140365 -0.79343611 1.44070125
v -0.114967287 -0.445403427 -2.81879759
v -0.11492151 -0.793438256 -2.85193253
v -0.114074647 -0.445401251 1.4406997
v 0.106201239 -0.793414176 1.44050145
v 0.105270438 -0.445380539 -2.81894207
v 0.106163077 -0.445378363 1.44050086
v 0.105316229 -0.793417275 -2.85207605
v 0.14244087 -0.98693949 -1.84316707
v 0.142440796 0.947160602 -2.15686965
v 0.142440796 0.947162569 -1.84316826
v 0.1424485 -0.986939549 -2.15686774
v 0.1424485 -0.986939549 -2.15686774
v 0.00527190417 0.947160542 -2.31372738
v 0.142440796 0.947160602 -2.15686965
v 0.00527198892 -0.986941516 -2.31372404
v -0.131889343 0.947160602 -2.1568718
v 0.00527198892 -0.986941516 -2.31372404
v -0.131881639 -0.986941457 -2.15686965
v 0.00527190417 0.947160542 -2.31372738
v -0.131889343 0.947160661 -1.84317064
v -0.131881639 -0.986941457 -2.15686965
v -0.131889269 -0.986941397 -1.84316778
v -0.131889343 0.947160602 -2.1568718
v 0.00527198892 -0.98693943 -1.68630958
v 0.00527190417 0.947160721 -1.68631196
v -0.131889343 0.947160661 -1.84317064
v -0.131889269 -0.986941397 -1.84316778
v 0.00527190417 0.947160721 -1.68631196
v 0.00527198892 -0.98693943 -1.68630958
v 0.14244087 -0.98693949 -1.84316707
v 0.142440796 0.947162569 -1.84316826
v 0.233909681 -0.974929869 1.49331307
v -0.223174974 -0.974954665 1.49353147
v -0.223083407 -1.36744022 1.49353206
v 0.234001249 -1.36741447 1.49331319
v 0.232063368 -0.974932015 -2.85104895
v -0.223174974 -0.974954665 1.49353147
v 0.233909681 -0.974929869 1.49331307
v -0.225028917 -0.97495681 -2.85093069
v -0.223083407 -1.36744022 1.49353206
v 0.232154936 -1.36741769 -2.87821126
v 0.234001249 -1.36741447 1.49331319
v -0.22493735 -1.36744249 -2.878093
v -0.223083407 -1.36744022 1.49353206
v -0.225028917 -0.97495681 -2.85093069
v -0.22493735 -1.36744249 -2.878093
v -0.223174974 -0.974954665 1.49353147
v 0.234001249 -1.36741447 1.49331319
v 0.232063368 -0.974932015 -2.85104895
v 0.233909681 -0.974929869 1.49331307
v 0.232154936 -1.36741769 -2.87821126
v -0.372055054 1.04813194 1.81346059
v -0.340171814 1.04190886 -2.87455225
v -0.166778564 0.744409621 1.81376767
v -0.152427673 0.741691232 -2.8745513
v -0.166778564 0.744409621 1.81376767
v -0.152427673 0.741691232 -2.8745513
v 0.188735962 0.746816695 1.81397367
v 0.177429199 0.749043107 -2.8745513
v 0.188735962 0.746816695 1.81397367
v 0.177429199 0.749043107 -2.8745513
v 0.372055054 1.05586815 1.81387401
v 0.351905823 1.05967295 -2.87455225
v 0.372055054 1.05586815 1.81387401
v 0.351905823 1.05967295 -2.87455225
v 0.170631379 1.36325169 1.81356776
v 0.167610139 1.36362517 -2.87455297
v 0.0895233154 0.912977576 2.87821174
v 0.372055054 1.05586815 1.81387401
v 0.174346924 1.07120168 2.87813449
v 0.188735962 0.746816695 1.81397367
v 0.170631379 1.36325169 1.81356776
v -0.175292999 1.36272299 -2.87455297
v -0.19870761 1.36744213 1.81336176
v 0.167610139 1.36362517 -2.87455297
v -0.19870761 1.36744213 1.81336176
v -0.175292999 1.36272299 -2.87455297
v -0.372055054 1.04813194 1.81346059
v -0.340171814 1.04190886 -2.87455225
v -0.177124038 1.05692995 2.87791038
v 0.174346924 1.07120168 2.87813449
v 0.0737991184 1.23024309 2.87794566
v 0.0895233154 0.912977576 2.87821174
v -0.0956497192 0.913785338 2.87809873
v -0.0923004299 1.23105276 2.87783456
v -0.0923004299 1.23105276 2.87783456
v -0.372055054 1.04813194 1.81346059
v -0.177124038 1.05692995 2.87791038
v -0.19870761 1.36744213 1.81336176
v 0.372055054 1.05586815 1.81387401
v 0.0737991184 1.23024309 2.87794566
v 0.174346924 1.07120168 2.87813449
v 0.170631379 1.36325169 1.81356776
v -0.166778564 0.744409621 1.81376767
v 0.0895233154 0.912977576 2.87821174
v -0.0956497192 0.913785338 2.87809873
v 0.188735962 0.746816695 1.81397367
v 0.170631379 1.36325169 1.81356776
v -0.0923004299 1.23105276 2.87783456
v 0.0737991184 1.23024309 2.87794566
v -0.19870761 1.36744213 1.81336176
v -0.372055054 1.04813194 1.81346059
v -0.0956497192 0.913785338 2.87809873
v -0.177124038 1.05692995 2.87791038
v -0.166778564 0.744409621 1.81376767
vt 0.517333448 0.994916141
vt 0.517333448 0.969718456
vt 0.571682751 0.969718456
vt 0.571682751 0.994916141
vt 0.265019625 0.745450795
vt 0.279842883 0.504549205
vt 0.279842883 0.745450795
vt 0.265019625 0.504549205
vt 0.222768292 0.745450795
vt 0.222768292 0.504549205
vt 0.237591505 0.745450795
vt 0.237591505 0.504549205
vt 0.222768292 0.504549205
vt 0.222768292 0.745450795
vt 0.195340157 0.745450795
vt 0.195340157 0.504549205
vt 0.265019625 0.745450795
vt 0.237591505 0.504549205
vt 0.265019625 0.504549205
vt 0.237591505 0.745450795
vt 0.629477143 0.994742632
vt 0.629477143 0.969544947
vt 0.683826447 0.969544947
vt 0.683826447 0.994742632
vt 0.241900802 0.958937466
vt 0.254458785 0.75504607
vt 0.254458785 0.958937466
vt 0.241900802 0.75504607
vt 0.203671142 0.958937466
vt 0.203671142 0.75504607
vt 0.216229141 0.958937466
vt 0.216229141 0.75504607
vt 0.203671142 0.958937466
vt 0.177999496 0.75504607
vt 0.203671142 0.75504607
vt 0.177999496 0.958937466
vt 0.216229141 0.958937466
vt 0.241900802 0.75504607
vt 0.241900802 0.958937466
vt 0.216229141 0.75504607
vt 0.714502394 0.957798183
vt 0.706187963 0.758247912
vt 0.714502394 0.758247912
vt 0.706187963 0.957798183
vt 0.706187963 0.957798183
vt 0.697873175 0.758247912
vt 0.706187963 0.758247912
vt 0.697873175 0.957798183
vt 0.739446223 0.758247912
vt 0.747760653 0.957798183
vt 0.739446223 0.957798183
vt 0.747760653 0.758247912
vt 0.731131792 0.758247912
vt 0.739446223 0.957798183
vt 0.731131792 0.957798183
vt 0.739446223 0.758247912
vt 0.722816825 0.957798183
vt 0.722816825 0.758247912
vt 0.731131792 0.758247912
vt 0.731131792 0.957798183
vt 0.722816825 0.758247912
vt 0.722816825 0.957798183
vt 0.714502394 0.957798183
vt 0.714502394 0.758247912
vt 0.573196709 0.994742632
vt 0.573196709 0.969544947
vt 0.627546012 0.969544947
vt 0.627546012 0.994742632
vt 0.0796852931 0.741767406
vt 0.0951998457 0.507002234
vt 0.0951998457 0.741767406
vt 0.0796852931 0.507002234
vt 0.0356668159 0.741767406
vt 0.0356668159 0.507002234
vt 0.0511813685 0.741767406
vt 0.0511813685 0.507002234
vt 0.0356668159 0.741767406
vt 0.00716289273 0.507002234
vt 0.0356668159 0.507002234
vt 0.00716289273 0.741767406
vt 0.0511813685 0.741767406
vt 0.0796852931 0.507002234
vt 0.0796852931 0.741767406
vt 0.0511813685 0.507002234
vt 0.306263745 0.746341646
vt 0.296152145 0.503658354
vt 0.306263745 0.503658354
vt 0.296152145 0.746341646
vt 0.296152145 0.746341646
vt 0.286040068 0.503658354
vt 0.296152145 0.503658354
vt 0.286040068 0.746341646
vt 0.336599201 0.503658354
vt 0.34671092 0.746341646
vt 0.336599201 0.746341646
vt 0.34671092 0.503658354
vt 0.326487541 0.503658354
vt 0.336599201 0.746341646
vt 0.326487541 0.746341646
vt 0.336599201 0.503658354
vt 0.316375494 0.746341646
vt 0.316375494 0.503658354
vt 0.326487541 0.503658354
vt 0.326487541 0.746341646
vt 0.316375494 0.503658354
vt 0.316375494 0.746341646
vt 0.306263745 0.746341646
vt 0.306263745 0.503658354
vt 0.868581116 0.545886517
vt 0.868581116 0.512841105
vt 0.929570317 0.512841105
vt 0.929570317 0.545886517
vt 0.575074852 0.760638654
vt 0.589226127 0.958140433
vt 0.575074852 0.958140433
vt 0.589226127 0.760638654
vt 0.53492403 0.958140433
vt 0.549075425 0.760638654
vt 0.549075425 0.958140433
vt 0.53492403 0.760638654
vt 0.53492403 0.958140433
vt 0.508924782 0.760638654
vt 0.53492403 0.760638654
vt 0.508924782 0.958140433
vt 0.549075425 0.958140433
vt 0.575074852 0.760638654
vt 0.575074852 0.958140433
vt 0.549075425 0.760638654
vt 0.306154519 0.96269244
vt 0.306154519 0.752919793
vt 0.321565568 0.96269244
vt 0.321565568 0.752919793
vt 0.321565568 0.96269244
vt 0.321565568 0.752919793
vt 0.337063849 0.96269244
vt 0.337063849 0.752919793
vt 0.337063849 0.96269244
vt 0.337063849 0.752919793
vt 0.352418303 0.96269244
vt 0.352418303 0.752919793
vt 0.352418303 0.96269244
vt 0.352418303 0.752919793
vt 0.367833823 0.96269244
vt 0.367833823 0.752919793
vt 0.337063849 0.997080207
vt 0.352418303 0.96269244
vt 0.352418303 0.997080207
vt 0.337063849 0.96269244
vt 0.275253743 0.96269244
vt 0.29078263 0.752919793
vt 0.29078263 0.96269244
vt 0.275253743 0.752919793
vt 0.29078263 0.96269244
vt 0.29078263 0.752919793
vt 0.306154519 0.96269244
vt 0.306154519 0.752919793
vt 0.429625958 0.531477392
vt 0.482651025 0.531080186
vt 0.469574124 0.554163277
vt 0.469578385 0.508474171
vt 0.442507863 0.508474171
vt 0.442361683 0.554163277
vt 0.29078263 0.997080207
vt 0.306154519 0.96269244
vt 0.306154519 0.997080207
vt 0.29078263 0.96269244
vt 0.352418303 0.96269244
vt 0.367833823 0.997080207
vt 0.352418303 0.997080207
vt 0.367833823 0.96269244
vt 0.321565568 0.96269244
vt 0.337063849 0.997080207
vt 0.321565568 0.997080207
vt 0.337063849 0.96269244
vt 0.275253743 0.96269244
vt 0.29078263 0.997080207
vt 0.275253743 0.997080207
vt 0.29078263 0.96269244
vt 0.306154519 0.96269244
vt 0.321565568 0.997080207
vt 0.306154519 0.997080207
vt 0.321565568 0.96269244
vn 0.000907687296 4.41953745e-07 0.999999642
vn 0.000907687296 4.41953745e-07 0.999999642
vn 0.000907687296 4.41953745e-07 0.999999642
vn 0.000907687296 4.41953745e-07 0.999999642
vn -0.000101760095 1 -3.70644443e-07
vn -0.000101760095 1 -3.70644443e-07
vn -0.000101760095 1 -3.70644443e-07
vn -0.000101760095 1 -3.70644443e-07
vn 0.000101760081 -1 3.66852873e-07
vn 0.000101760081 -1 3.66852873e-07
vn 0.000101760081 -1 3.66852873e-07
vn 0.000101760081 -1 3.66852873e-07
vn -1 -8.93106262e-05 0.000206971628
vn -1 -8.93106262e-05 0.000206971628
vn -1 -8.93106262e-05 0.000206971628
vn -1 -8.93106262e-05 0.000206971628
vn 1 8.94114928e-05 -0.000206974306
vn 1 8.94114928e-05 -0.000206974306
vn 1 8.94114928e-05 -0.000206974306
vn 1 8.94114928e-05 -0.000206974306
vn 0.00090757641 1.09413605e-07 0.999999583
vn 0.00090757641 1.09413605e-07 0.999999583
vn 0.00090757641 1.09413605e-07 0.999999583
vn 0.00090757641 1.09413605e-07 0.999999583
vn -0.000101758327 1 -3.68841199e-07
vn -0.000101758327 1 -3.68841199e-07
vn -0.000101758327 1 -3.68841199e-07
vn -0.000101758327 1 -3.68841199e-07
vn 9.95950541e-05 -1 4.60523268e-07
vn 9.95950541e-05 -1 4.60523268e-07
vn 9.95950541e-05 -1 4.60523268e-07
vn 9.95950541e-05 -1 4.60523268e-07
vn -1 -0.000182882577 0.000189088998
vn -1 -0.000182882577 0.000189088998
vn -1 -0.000182882577 0.000189088998
vn -1 -0.000182882577 0.000189088998
vn 1 0.000172163214 -0.000189906365
vn 1 0.000172163214 -0.000189906365
vn 1 0.000172163214 -0.000189906365
vn 1 0.000172163214 -0.000189906365
vn 1 2.00905924e-06 1.21602925e-05
vn 1 2.00905924e-06 1.21602925e-05
vn 1 2.00905924e-06 1.21602925e-05
vn 1 2.00905924e-06 1.21602925e-05
vn 0.75276047 5.58261206e-07 -0.658294439
vn 0.75276047 5.58261206e-07 -0.658294439
vn 0.75276047 5.58261206e-07 -0.658294439
vn 0.75276047 5.58261206e-07 -0.658294439
vn -0.752792358 -2.54917472e-06 -0.658257961
vn -0.752792358 -2.54917472e-06 -0.658257961
vn -0.752792358 -2.54917472e-06 -0.658257961
vn -0.752792358 -2.54917472e-06 -0.658257961
vn -1 -2.00679119e-06 -1.2160277e-05
vn -1 -2.00679119e-06 -1.2160277e-05
vn -1 -2.00679119e-06 -1.2160277e-05
vn -1 -2.00679119e-06 -1.2160277e-05
vn -0.752790093 8.31466707e-07 0.658260643
vn -0.752790093 8.31466707e-07 0.658260643
vn -0.752790093 8.31466707e-07 0.658260643
vn -0.752790093 8.31466707e-07 0.658260643
vn 0.752768755 5.26826682e-07 0.658285022
vn 0.752768755 5.26826682e-07 0.658285022
vn 0.752768755 5.26826682e-07 0.658285022
vn 0.752768755 5.26826682e-07 0.658285022
vn 0.000905292458 3.18190087e-06 0.999999583
vn 0.000905292458 3.18190087e-06 0.999999583
vn 0.000905292458 3.18190087e-06 0.999999583
vn 0.000905292458 3.18190087e-06 0.999999583
vn -0.000103925282 1 -4.84476345e-07
vn -0.000103925282 1 -4.84476345e-07
vn -0.000103925282 1 -4.84476345e-07
vn -0.000103925282 1 -4.84476345e-07
vn 9.74300492e-05 -1 5.98950464e-07
vn 9.74300492e-05 -1 5.98950464e-07
vn 9.74300492e-05 -1 5.98950464e-07
vn 9.74300492e-05 -1 5.98950464e-07
vn -1 -0.000130425979 0.00020786043
vn -1 -0.000130425979 0.00020786043
vn -1 -0.000130425979 0.00020786043
vn -1 -0.000130425979 0.00020786043
vn 1 0.00013052726 -0.000207863122
vn 1 0.00013052726 -0.000207863122
vn 1 0.00013052726 -0.000207863122
vn 1 0.00013052726 -0.000207863122
vn 1 2.00734553e-06 1.21602943e-05
vn 1 2.00734553e-06 1.21602943e-05
vn 1 2.00734553e-06 1.21602943e-05
vn 1 2.00734553e-06 1.21602943e-05
vn 0.752760589 6.19066782e-07 -0.658294439
vn 0.752760589 6.19066782e-07 -0.658294439
vn 0.752760589 6.19066782e-07 -0.658294439
vn 0.752760589 6.19066782e-07 -0.658294439
vn -0.75279212 -2.44702323e-06 -0.658258319
vn -0.75279212 -2.44702323e-06 -0.658258319
vn -0.75279212 -2.44702323e-06 -0.658258319
vn -0.75279212 -2.44702323e-06 -0.658258319
vn -1 -2.0095456e-06 -1.21602689e-05
vn -1 -2.0095456e-06 -1.21602689e-05
vn -1 -2.0095456e-06 -1.21602689e-05
vn -1 -2.0095456e-06 -1.21602689e-05
vn -0.752790093 8.6312474e-07 0.658260643
vn -0.752790093 8.6312474e-07 0.658260643
vn -0.752790093 8.6312474e-07 0.658260643
vn -0.752790093 8.6312474e-07 0.658260643
vn 0.752769113 6.38554638e-07 0.658284605
vn 0.752769113 6.38554638e-07 0.658284605
vn 0.752769113 6.38554638e-07 0.658284605
vn 0.752769113 6.38554638e-07 0.658284605
vn 0.000478522474 1.02278034e-06 0.99999994
vn 0.000478522474 1.02278034e-06 0.99999994
vn 0.000478522474 1.02278034e-06 0.99999994
vn 0.000478522474 1.02278034e-06 0.99999994
vn -5.42468551e-05 1 -4.80251515e-07
vn -5.42468551e-05 1 -4.80251515e-07
vn -5.42468551e-05 1 -4.80251515e-07
vn -5.42468551e-05 1 -4.80251515e-07
vn 5.52901074e-05 -0.99999994 5.965843e-07
vn 5.52901074e-05 -0.99999994 5.965843e-07
vn 5.52901074e-05 -0.99999994 5.965843e-07
vn 5.52901074e-05 -0.99999994 5.965843e-07
vn -0.999999821 -0.000248075405 0.000425407285
vn -0.999999821 -0.000248075405 0.000425407285
vn -0.999999821 -0.000248075405 0.000425407285
vn -0.999999821 -0.000248075405 0.000425407285
vn 0.999999881 0.000247976888 -0.00042366641
vn 0.999999881 0.000247976888 -0.00042366641
vn 0.999999881 0.000247976888 -0.00042366641
vn 0.999999881 0.000247976888 -0.00042366641
vn -0.838145614 -0.545434475 -0.00361271761
vn -0.838145614 -0.545434475 -0.00361271761
vn -0.838145614 -0.545434475 -0.00361271761
vn -0.838145614 -0.545434475 -0.00361271761
vn 0.0142374588 -0.999898672 5.70703887e-05
vn 0.0142374588 -0.999898672 5.70703887e-05
vn 0.0142374588 -0.999898672 5.70703887e-05
vn 0.0142374588 -0.999898672 5.70703887e-05
vn 0.86600697 -0.500021398 -0.00322673121
vn 0.86600697 -0.500021398 -0.00322673121
vn 0.86600697 -0.500021398 -0.00322673121
vn 0.86600697 -0.500021398 -0.00322673121
vn 0.845729828 0.533608198 -0.00185210677
vn 0.845729828 0.533608198 -0.00185210677
vn 0.845729828 0.533608198 -0.00185210677
vn 0.845729828 0.533608198 -0.00185210677
vn 0.856009722 -0.491154015 0.161291599
vn 0.856009722 -0.491154015 0.161291599
vn 0.856009722 -0.491154015 0.161291599
vn 0.856009722 -0.491154015 0.161291599
vn 0.00461686635 0.999989271 -0.000453446613
vn 0.00461686635 0.999989271 -0.000453446613
vn 0.00461686635 0.999989271 -0.000453446613
vn 0.00461686635 0.999989271 -0.000453446613
vn -0.884151995 0.467163742 -0.00575980404
vn -0.884151995 0.467163742 -0.00575980404
vn -0.884151995 0.467163742 -0.00575980404
vn -0.884151995 0.467163742 -0.00575980404
vn -0.000658925157 0.000823622395 0.999999404
vn -0.000658925157 0.000823622395 0.999999404
vn -0.000658925157 0.000823622395 0.999999404
vn -0.000658925157 0.000823622395 0.999999404
vn -0.000658925157 0.000823622395 0.999999404
vn -0.000658925157 0.000823622395 0.999999404
vn -0.87580806 0.45828864 0.151432529
vn -0.87580806 0.45828864 0.151432529
vn -0.87580806 0.45828864 0.151432529
vn -0.87580806 0.45828864 0.151432529
vn 0.830533803 0.537855446 0.144654945
vn 0.830533803 0.537855446 0.144654945
vn 0.830533803 0.537855446 0.144654945
vn 0.830533803 0.537855446 0.144654945
vn 0.00282982248 -0.98779285 0.15574789
vn 0.00282982248 -0.98779285 0.15574789
vn 0.00282982248 -0.98779285 0.15574789
vn 0.00282982248 -0.98779285 0.15574789
vn 0.00918981154 0.992051303 0.125498936
vn 0.00918981154 0.992051303 0.125498936
vn 0.00918981154 0.992051303 0.125498936
vn 0.00918981154 0.992051303 0.125498936
vn -0.83234024 -0.533940971 0.148717374
vn -0.83234024 -0.533940971 0.148717374
vn -0.83234024 -0.533940971 0.148717374
vn -0.83234024 -0.533940971 0.148717374
f 1/1/1 2/2/2 3/3/3
f 1/1/1 3/3/3 4/4/4
f 5/5/5 6/6/6 7/7/7
f 6/6/6 5/5/5 8/8/8
f 9/9/9 10/10/10 11/11/11
f 11/11/11 10/10/10 12/12/12
f 13/13/13 14/14/14 15/15/15
f 15/15/15 16/16/16 13/13/13
f 17/17/17 18/18/18 19/19/19
f 18/18/18 17/17/17 20/20/20
f 21/21/21 22/22/22 23/23/23
f 21/21/21 23/23/23 24/24/24
f 25/25/25 26/26/26 27/27/27
f 26/26/26 25/25/25 28/28/28
f 29/29/29 30/30/30 31/31/31
f 31/31/31 30/30/30 32/32/32
f 33/33/33 34/34/34 35/35/35
f 34/34/34 33/33/33 36/36/36
f 37/37/37 38/38/38 39/39/39
f 37/37/37 40/40/40 38/38/38
f 41/41/41 42/42/42 43/43/43
f 42/42/42 41/41/41 44/44/44
f 45/45/45 46/46/46 47/47/47
f 46/46/46 45/45/45 48/48/48
f 49/49/49 50/50/50 51/51/51
f 50/50/50 49/49/49 52/52/52
f 53/53/53 54/54/54 55/55/55
f 54/54/54 53/53/53 56/56/56
f 57/57/57 58/58/58 59/59/59
f 57/57/57 59/59/59 60/60/60
f 61/61/61 62/62/62 63/63/63
f 61/61/61 63/63/63 64/64/64
f 65/65/65 66/66/66 67/67/67
f 65/65/65 67/67/67 68/68/68
f 69/69/69 70/70/70 71/71/71
f 70/70/70 69/69/69 72/72/72
f 73/73/73 74/74/74 75/75/75
f 75/75/75 74/74/74 76/76/76
f 77/77/77 78/78/78 79/79/79
f 78/78/78 77/77/77 80/80/80
f 81/81/81 82/82/82 83/83/83
f 82/82/82 81/81/81 84/84/84
f 85/85/85 86/86/86 87/87/87
f 86/86/86 85/85/85 88/88/88
f 89/89/89 90/90/90 91/91/91
f 90/90/90 89/89/89 92/92/92
f 93/93/93 94/94/94 95/95/95
f 94/94/94 93/93/93 96/96/96
f 97/97/97 98/98/98 99/99/99
f 98/98/98 97/97/97 100/100/100
f 101/101/101 102/102/102 103/103/103
f 101/101/101 103/103/103 104/104/104
f 105/105/105 106/106/106 107/107/107
f 105/105/105 107/107/107 108/108/108
f 109/109/109 110/110/110 111/111/111
f 109/109/109 111/111/111 112/112/112
f 113/113/113 114/114/114 115/115/115
f 114/114/114 113/113/113 116/116/116
f 117/117/117 118/118/118 119/119/119
f 118/118/118 117/117/117 120/120/120
f 121/121/121 122/122/122 123/123/123
f 122/122/122 121/121/121 124/124/124
f 125/125/125 126/126/126 127/127/127
f 126/126/126 125/125/125 128/128/128
f 129/129/129 130/130/130 131/131/131
f 131/131/131 130/130/130 132/132/132
f 133/133/133 134/134/134 135/135/135
f 135/135/135 134/134/134 136/136/136
f 137/137/137 138/138/138 139/139/139
f 139/139/139 138/138/138 140/140/140
f 141/141/141 142/142/142 143/143/143
f 143/143/143 142/142/142 144/144/144
f 145/145/145 146/146/146 147/147/147
f 146/146/146 145/145/145 148/148/148
f 149/149/149 150/150/150 151/151/151
f 150/150/150 149/149/149 152/152/152
f 153/153/153 154/154/154 155/155/155
f 155/155/155 154/154/154 156/156/156
f 157/157/157 158/158/158 159/159/159
f 158/158/158 157/157/157 160/160/160
f 157/157/157 161/161/161 160/160/160
f 157/157/157 159/159/159 162/162/162
f 163/163/163 164/164/164 165/165/165
f 164/164/164 163/163/163 166/166/166
f 167/167/167 168/168/168 169/169/169
f 168/168/168 167/167/167 170/170/170
f 171/171/171 172/172/172 173/173/173
f 172/172/172 171/171/171 174/174/174
f 175/175/175 176/176/176 177/177/177
f 176/176/176 175/175/175 178/178/178
f 179/179/179 180/180/180 181/181/181
f 180/180/180 179/179/179 182/182/182
