# Extracted from the Cocos Creator 3.8.3 playable build
# Geometry-only OBJ preview for Unity; rig and animation stay in the raw assets.
o mesh_8a713780
v -0.0254141428 -0.171723038 0.884266138
v 0.0174163729 -0.141552776 0.882081807
v -0.0189021565 -0.129753962 0.911331594
v 0.0280117076 -0.167100251 0.812496781
v 0.00715367077 -0.201088846 0.83228147
v -0.0216776431 -0.162906498 0.804183781
v 0.0941172019 -0.171259195 0.668116391
v -0.0189359859 -0.170283943 0.658694148
v 0.0798620209 -0.139628515 0.644069254
v -0.0156479459 -0.13646324 0.640603483
v -0.022496108 -0.183045745 0.707678139
v 0.143633455 -0.109553896 0.657622516
v 0.196375504 -0.0232647564 0.681799769
v 0.224139899 -0.0490933657 0.707691014
v 0.231313571 -0.0178753473 0.732302845
v 0.214326382 -0.0670785233 0.749393523
v 0.241023481 0.0912011638 0.79263252
v 0.239634827 0.0437887833 0.746069551
v 0.223452792 0.0838259682 0.719452202
v 0.239500403 0.0177519154 0.760390818
v 0.243281379 0.0434306562 0.864734948
v 0.308388025 0.0592328161 0.82311368
v 0.284394115 0.0597559027 0.856164396
v 0.286895335 0.0766270012 0.85788852
v 0.24035424 0.0888512209 0.860627353
v 0.306968749 0.0780485123 0.818598032
v 0.28850174 0.0596908256 0.763071716
v 0.291887343 0.0394248515 0.766772747
v 0.241225451 0.0312322974 0.81313014
v 0.0938836336 -0.177181989 0.704466462
v 0.178101778 -0.123598695 0.687067449
v 0.203812405 -0.100094281 0.737433851
v -0.0301967002 -0.20783633 0.831252873
v 0.160462663 -0.0771777853 0.99477458
v 0.153323025 -0.115844131 0.870512664
v 0.18406637 -0.0382671133 0.993903339
v 0.0941924676 -0.168938845 0.765274644
v -0.0223834887 -0.172937423 0.766914129
v 0.213132039 0.182161197 0.758330762
v 0.217994049 0.201318547 0.8217327
v 0.0534136146 0.268556148 0.805690885
v 0.0516574383 0.245080486 0.744011283
v 0.153782949 -0.148055717 0.75470078
v 0.0920682698 -0.139680848 0.880572259
v 0.0209646355 -0.0946751311 0.988273382
v -0.0127694709 -0.0744993165 1.03534722
v 0.0365049392 -0.117720179 0.621881485
v -0.062977992 -0.085653238 0.619004905
v 0.0687739998 0.163925141 0.657210052
v 0.197002634 0.0377298668 0.661238909
v 0.197391182 0.00171118346 0.657322168
v 0.134572729 -0.0748978406 0.647354245
v 0.219393566 -0.0305205788 0.842060804
v -0.0554512255 -0.128948852 0.880069554
v -0.0702617615 -0.15010187 0.809782922
v -0.0631137416 -0.188934669 0.830341041
v -0.119100921 -0.0989493951 0.641581476
v -0.126090676 -0.133169785 0.662035227
v -0.172191083 -0.0177351236 0.651630402
v -0.209488928 0.0259115025 0.695716202
v -0.169147387 0.0663207546 0.672953725
v -0.204559162 0.0872313082 0.75977391
v -0.20424667 0.108285733 0.800828397
v -0.204322785 0.0945201069 0.748134494
v -0.1828302 0.164515227 0.780927658
v -0.161453471 0.154948205 0.709330022
v -0.194942713 0.118957758 0.734068513
v -0.207076252 0.0579531081 0.720196903
v -0.20485121 0.120944247 0.852359593
v -0.237577543 0.150041446 0.841749907
v -0.258547455 0.157295763 0.807457566
v -0.234359607 0.166788578 0.843493879
v -0.18663317 0.162707329 0.848835945
v -0.250655353 0.174500868 0.803199053
v -0.236473963 0.150495976 0.748574376
v -0.246658474 0.13257724 0.751900613
v -0.129806831 -0.1384902 0.698289156
v -0.190093786 -0.0599118359 0.676899612
v -0.20599176 0.0430583656 0.830313623
v -0.208530962 0.00606318656 0.737716198
v -0.209083557 -0.0286755767 0.726031542
v -0.124231115 0.240514964 0.749014318
v -0.130589023 -0.130058333 0.759067237
v -0.125771135 0.260779679 0.812239408
v 0.0534136146 0.268556148 0.805690885
v 0.0516574383 0.245080486 0.744011283
v -0.17905584 -0.0904845297 0.745509326
v -0.174017653 -0.0592239425 0.861473083
v -0.124949455 -0.10214325 0.874579191
v -0.119611308 -0.0770184249 0.942093432
v -0.174104154 -0.0377666056 0.928657949
v -0.0512123816 -0.0813334063 0.989234746
v -0.13532272 -0.00388623565 0.621040881
v 0.0687739998 0.163925141 0.657210052
v -0.0740421861 0.190515399 0.658026695
v -0.111211762 0.158073366 0.65827322
v -0.131570429 0.101658054 0.648789883
v 0.0915040001 -0.0984330326 0.984459639
v 0.236652553 0.0109148258 0.771958172
v 0.236559153 -0.0271350686 0.84456116
v 0.263622105 0.0202026647 0.820355892
v 0.26461646 0.0361914635 0.875050306
v 0.263922215 0.218163699 0.953874111
v 0.265487432 0.0947469845 0.870407522
v 0.258017302 0.20771575 0.835851014
v 0.149683878 -0.0512636639 1.11853802
v 0.165117636 -0.0841253921 1.0659703
v 0.214199439 0.122163132 1.09156525
v 0.264158726 0.0964503959 0.992216289
v -0.00762710208 -0.0291180648 1.13338137
v 0.0255079046 0.158347532 1.10770667
v 0.23427327 0.226016685 1.04327893
v 0.184646621 0.272982478 1.03778696
v 0.202617645 0.278345555 0.937327802
v 0.0593678132 0.325153053 0.926375926
v 0.184646621 0.272982478 1.03778696
v 0.0545758717 0.31475544 1.03477478
v -0.0174381565 -0.0939562395 1.08253908
v 0.0915970951 -0.0969588235 1.07508433
v 0.199424952 0.262768865 0.822170615
v 0.0594303161 0.305331826 0.813767135
v 0.229453266 0.00742328307 0.985460877
v -0.213521212 0.179074839 0.979025066
v -0.208815232 0.176787376 0.857309401
v -0.227898672 0.121382177 0.861449122
v -0.18493779 -0.0235762261 1.05630338
v -0.163229749 0.187447131 1.08114243
v -0.162210017 0.00268469029 1.10992503
v -0.170391962 0.293287158 0.941880405
v -0.144663289 0.291561425 1.0328145
v -0.0819331855 0.31909284 1.03042531
v -0.0916509628 0.329245269 0.929201424
v -0.0819331855 0.31909284 1.03042531
v -0.109801494 -0.0585900396 1.06913269
v -0.0877056867 0.312433898 0.814241469
v -0.162020922 0.280369848 0.824251533
v -0.210401222 0.083504878 0.973313868
v -0.221133024 0.0520319678 0.831921756
v -0.22939913 0.105480909 0.806740999
v -0.22380361 0.0338408314 0.783143997
v -0.231968611 0.0855743363 0.76418066
v 0.236559153 -0.0271350686 0.84456116
v 0.219393566 -0.0305205788 0.842060804
v 0.23557882 -0.0456186049 0.795830011
v 0.214326382 -0.0670785233 0.749393523
v 0.231313571 -0.0178753473 0.732302845
v 0.235766426 -0.0650359914 0.752120137
v 0.258755207 -0.0241127051 0.740864575
v 0.241225451 0.0312322974 0.81313014
v 0.243281379 0.0434306562 0.864734948
v 0.263622105 0.0202026647 0.820355892
v 0.26461646 0.0361914635 0.875050306
v 0.265487432 0.0947469845 0.870407522
v 0.24035424 0.0888512209 0.860627353
v 0.258017302 0.20771575 0.835851014
v 0.217994049 0.201318547 0.8217327
v 0.165117636 -0.0841253921 1.0659703
v 0.0885661393 -0.102832332 1.06378984
v 0.150513008 -0.0884481817 1.04047406
v 0.199424952 0.262768865 0.822170615
v -0.18663317 0.162707329 0.848835945
v -0.20485121 0.120944247 0.852359593
v -0.208815232 0.176787376 0.857309401
v -0.227898672 0.121382177 0.861449122
v -0.20599176 0.0430583656 0.830313623
v -0.194531575 0.0664316043 0.962989569
v -0.221133024 0.0520319678 0.831921756
v -0.210401222 0.083504878 0.973313868
v 0.0594303161 0.305331826 0.813767135
v 0.0534136146 0.268556148 0.805690885
v -0.0877056867 0.312433898 0.814241469
v -0.194531575 0.0664316043 0.962989569
v -0.171933785 -0.00102237344 0.994833291
v -0.210401222 0.083504878 0.973313868
v -0.18493779 -0.0235762261 1.05630338
v -0.22939913 0.105480909 0.806740999
v -0.20424667 0.108285733 0.800828397
v -0.231968611 0.0855743363 0.76418066
v -0.204559162 0.0872313082 0.75977391
v -0.23543644 0.0613678917 0.727217913
v -0.207076252 0.0579531081 0.720196903
v -0.228155091 0.0152086103 0.739308774
v -0.208530962 0.00606318656 0.737716198
v 0.209351093 -0.00342797441 0.974143147
v 0.229453266 0.00742328307 0.985460877
v -0.22380361 0.0338408314 0.783143997
v -0.208530962 0.00606318656 0.737716198
v 0.261637807 0.000194920518 0.777811408
v 0.23557882 -0.0456186049 0.795830011
v 0.236652553 0.0109148258 0.771958172
v 0.261637807 0.000194920518 0.777811408
v -0.125771135 0.260779679 0.812239408
v -0.162020922 0.280369848 0.824251533
v -0.0174381565 -0.0939562395 1.08253908
v 0.0915970951 -0.0969588235 1.07508433
v 0.235766426 -0.0650359914 0.752120137
v 0.258755207 -0.0241127051 0.740864575
v -0.23543644 0.0613678917 0.727217913
v -0.207076252 0.0579531081 0.720196903
v -0.23543644 0.0613678917 0.727217913
v -0.228155091 0.0152086103 0.739308774
v -0.228155091 0.0152086103 0.739308774
v 0.18406637 -0.0382671133 0.993903339
v -0.0166492909 -0.0930900201 1.05939853
v -0.0174381565 -0.0939562395 1.08253908
v -0.109801494 -0.0585900396 1.06913269
v -0.0166492909 -0.0930900201 1.05939853
v -0.0512123816 -0.0813334063 0.989234746
v -0.0127694709 -0.0744993165 1.03534722
v -0.244622603 -0.0363810472 0.991446137
v -0.270633966 -0.0626316741 0.945297837
v -0.211893186 -0.123489909 1.02100575
v -0.217293099 -0.0250075832 1.06395376
v -0.18493779 -0.0235762261 1.05630338
v -0.171933785 -0.00102237344 0.994833291
v -0.109801494 -0.0585900396 1.06913269
v -0.13739565 -0.0931049809 1.09279895
v -0.102886349 -0.144063264 1.05736685
v -0.150427714 -0.142223462 0.989336014
v -0.229964212 0.00269619259 0.965819657
v -0.284240842 0.0386838429 0.930954695
v -0.229964212 0.00269619259 0.965819657
v -0.174104154 -0.0377666056 0.928657949
v -0.284240842 0.0386838429 0.930954695
v 0.0885661393 -0.102832332 1.06378984
v 0.107462279 -0.135304376 1.03769648
v 0.150513008 -0.0884481817 1.04047406
v 0.18406637 -0.0382671133 0.993903339
v 0.172650486 -0.0940138325 1.01911151
v 0.160462663 -0.0771777853 0.99477458
v -0.0166492909 -0.0930900201 1.05939853
v -0.0127694709 -0.0744993165 1.03534722
v 0.0319233313 -0.139104545 1.04379916
v 0.0209646355 -0.0946751311 0.988273382
v 0.107462279 -0.135304376 1.03769648
v 0.0915040001 -0.0984330326 0.984459639
v 0.0319233313 -0.139104545 1.04379916
v 0.172650486 -0.0940138325 1.01911151
v 0.18406637 -0.0382671133 0.993903339
v -0.199103862 -0.106495053 0.951623678
v -0.174104154 -0.0377666056 0.928657949
v -0.270633966 -0.0626316741 0.945297837
v -0.284240842 0.0386838429 0.930954695
v -0.199103862 -0.106495053 0.951623678
v -0.119611308 -0.0770184249 0.942093432
v -0.119611308 -0.0770184249 0.942093432
v -0.171933785 -0.00102237344 0.994833291
v -0.194531575 0.0664316043 0.962989569
v -0.171933785 -0.00102237344 0.994833291
v 0.0593678132 0.325153053 0.926375926
v 0.0545758717 0.31475544 1.03477478
v 0.0594303161 0.305331826 0.813767135
v 0.0534136146 0.268556148 0.805690885
v 0.0594303161 0.305331826 0.813767135
v 0.0545758717 0.31475544 1.03477478
v 0.209351093 -0.00342797441 0.974143147
v -0.0166492909 -0.0930900201 1.05939853
v -0.146091864 -0.0757012665 0.56417191
v -0.0319267251 -0.184210271 0.569780409
v -0.062977992 -0.085653238 0.619004905
v 0.0365049392 -0.117720179 0.621881485
v 0.134572729 -0.0748978406 0.647354245
v 0.225531116 -0.162157342 0.590569735
v 0.197391182 0.00171118346 0.657322168
v 0.197002634 0.0377298668 0.661238909
v 0.151313365 0.128098145 0.606581151
v 0.0687739998 0.163925141 0.657210052
v -0.172286719 -0.104540318 0.481484473
v -0.049557656 -0.207272962 0.465072662
v 0.26997894 -0.0836439133 0.584186077
v 0.264024913 -0.0649793595 0.507699907
v 0.161317348 0.136760369 0.528988183
v 0.236256838 -0.0988538116 0.422318906
v 0.130477697 0.125126392 0.432114631
v -0.00670843245 -0.2160483 0.217248619
v 0.0104237078 -0.218175709 0.128153771
v 0.131479353 -0.160276562 0.230927467
v 0.151724637 -0.178113624 0.157179207
v 0.227780715 -0.0624941438 0.173768044
v 0.109181859 0.140975058 0.208856642
v 0.2095045 -0.0629929304 0.237083167
v 0.149931461 -0.217882022 0.57881552
v 0.294914901 -0.221165821 0.449066877
v 0.225541249 -0.275916457 0.442597449
v 0.297402292 -0.239215463 0.414296985
v 0.211791456 -0.257336229 0.497199237
v 0.155197918 -0.251741529 0.459069818
v 0.156764135 -0.260060042 0.434371471
v 0.119119063 -0.224959955 0.409181654
v 0.119074494 -0.212946102 0.381227642
v 0.143792883 -0.14133817 0.363183707
v 0.198672384 -0.0889572054 0.345762253
v 0.195855647 -0.112127617 0.306398153
v 0.143792883 -0.14133817 0.363183707
v 0.14240931 -0.158065423 0.337870538
v 0.27410078 -0.107143 0.366914868
v 0.272473812 -0.134601116 0.324184597
v 0.328518629 -0.162086383 0.414497644
v 0.32920897 -0.188535452 0.367255121
v -0.137072742 -0.118891001 0.0985431001
v -0.158021435 -0.110074982 0.215908945
v 0.114299908 0.139539301 0.172444344
v 0.227780715 -0.0624941438 0.173768044
v -0.0223253127 0.0223073475 0.132297039
v 0.151724637 -0.178113624 0.157179207
v 0.0104237078 -0.218175709 0.128153771
v -0.137072742 -0.118891001 0.0985431001
v 0.115112424 0.127793178 0.351054043
v 0.21465233 -0.0574829131 0.342992246
v -0.172695443 -0.109821029 0.366696358
v -0.0068270145 -0.214089572 0.35405007
v 0.0688797906 -0.21551086 0.471069336
v 0.140806839 -0.155869991 0.430601656
v 0.138418451 -0.151182294 0.344067901
v 0.149931461 -0.217882022 0.57881552
v 0.225531116 -0.162157342 0.590569735
v 0.284970015 -0.208811834 0.487247646
v 0.0967646688 -0.236143187 0.52793175
v 0.0688797906 -0.21551086 0.471069336
v 0.140806839 -0.155869991 0.430601656
v 0.14256686 -0.137536094 0.38399902
v 0.14256686 -0.137536094 0.38399902
v 0.140806839 -0.155869991 0.430601656
v 0.203442201 -0.0898023322 0.390990257
v 0.236256838 -0.0988538116 0.422318906
v 0.272261202 -0.0950511545 0.408130974
v 0.264024913 -0.0649793595 0.507699907
v 0.32052955 -0.148792267 0.464528114
v 0.26997894 -0.0836439133 0.584186077
v 0.0967646688 -0.236143187 0.52793175
v 0.257305324 -0.198771581 0.260787398
v 0.313062042 -0.25194779 0.297890842
v 0.271046132 -0.251030058 0.192192435
v 0.313623548 -0.304270267 0.205213755
v 0.178767622 -0.173569545 0.247261003
v 0.200851679 -0.217597097 0.19448553
v 0.12871027 -0.211259782 0.286424696
v 0.120708652 -0.245310202 0.228951484
v 0.12871027 -0.211259782 0.286424696
v 0.120708652 -0.245310202 0.228951484
v 0.101292685 -0.257258832 0.328759044
v 0.0661791116 -0.306170315 0.267997473
v 0.14088054 -0.308035165 0.365979403
v 0.10362269 -0.376797199 0.286308557
v 0.213217065 -0.331996977 0.376982689
v 0.189849064 -0.409837872 0.28990832
v 0.282843918 -0.303866029 0.344792515
v 0.272075295 -0.368156165 0.253387153
v 0.113407925 -0.399447292 0.252971292
v 0.206205741 -0.46271351 0.221173435
v 0.309703141 -0.328007847 0.152988508
v 0.248079166 -0.296172082 0.0789734349
v 0.205565631 -0.246474624 0.122765183
v 0.205565631 -0.246474624 0.122765183
v 0.130618989 -0.364882231 0.151205525
v 0.143028453 -0.316911757 0.177953795
v 0.109355763 -0.295659631 0.165418386
v 0.143028453 -0.316911757 0.177953795
v 0.0971975327 -0.33605805 0.137483448
v 0.130618989 -0.364882231 0.151205525
v 0.0504439883 -0.336565167 0.179050252
v 0.0844905376 -0.28350994 0.185922518
v 0.138565361 -0.319087029 0.200599492
v 0.0775926933 -0.384908617 0.206482366
v 0.120224424 -0.42434141 0.14933835
v 0.113941602 -0.372310787 0.206914216
v 0.138565361 -0.319087029 0.200599492
v 0.143028453 -0.316911757 0.177953795
v 0.14240931 -0.158065423 0.337870538
v 0.114299908 0.139539301 0.172444344
v -0.168819919 -0.110716663 0.285822898
v 0.00225738017 -0.207699448 0.27578944
v 0.1402172 -0.14366588 0.273459613
v 0.212510332 -0.0455967784 0.276079774
v 0.105789326 0.134495765 0.286711037
v 0.191058502 -0.14935194 0.0186013356
v 0.166371673 -0.158157393 0.111669108
v 0.092220448 -0.223911434 0.018715959
v 0.0682934523 -0.20630765 0.0939462483
v 0.00837036502 -0.176572517 0.017054148
v -0.000682535057 -0.148350164 0.0868807286
v 0.0194571242 -0.0535993651 0.0151298624
v 0.0263067931 -0.0372936614 0.0974640921
v 0.216395333 -0.0294381399 0.0168569814
v 0.213091299 -0.0585726053 0.124570489
v 0.11693918 0.0297376364 0.014985336
v 0.124732584 0.0196042545 0.115813039
v 0.191058502 -0.14935194 0.0186013356
v 0.092220448 -0.223911434 0.018715959
v 0.107293032 -0.102610826 0.016956104
v 0.00837036502 -0.176572517 0.017054148
v 0.0194571242 -0.0535993651 0.0151298624
v 0.11693918 0.0297376364 0.014985336
v 0.216395333 -0.0294381399 0.0168569814
v 0.0194571242 -0.0535993651 0.0151298624
v 0.0263067931 -0.0372936614 0.0974640921
v -0.13532272 -0.00388623565 0.621040881
v -0.208877623 0.0575257018 0.569398463
v -0.131570429 0.101658054 0.648789883
v -0.111211762 0.158073366 0.65827322
v -0.119774923 0.281264007 0.624429107
v -0.0740421861 0.190515399 0.658026695
v -0.239578009 0.0385731272 0.471790463
v -0.0235554911 0.302462667 0.615179896
v 0.000171325824 0.310200453 0.522359908
v -0.0529289506 0.286275715 0.44081673
v -0.18379201 0.188444197 0.225549161
v -0.192611963 0.182731792 0.138435185
v -0.244788915 0.0514433384 0.22954753
v -0.235079721 0.0466848463 0.115136996
v -0.0838417038 0.264210194 0.156816527
v -0.0880067125 0.257303983 0.237031966
v -0.183973178 0.218586728 0.605032206
v -0.17131488 0.381455153 0.509404302
v -0.188159823 0.391527176 0.484917402
v -0.229732797 0.328489989 0.475267857
v -0.214988202 0.303713977 0.517677486
v -0.207783371 0.250385791 0.467735767
v -0.218512058 0.268843293 0.434511364
v -0.167261258 0.215310723 0.415325522
v -0.171537116 0.237885311 0.384112686
v -0.0974520668 0.249252841 0.3871997
v -0.113772258 0.260424137 0.366751134
v -0.0650915727 0.317095578 0.35541901
v -0.0974520668 0.249252841 0.3871997
v -0.0362628028 0.295679033 0.396278769
v -0.0534517132 0.367374331 0.433888018
v -0.0820060596 0.385399699 0.395837277
v -0.108036622 0.414153576 0.491077453
v -0.13472876 0.430687785 0.453163475
v -0.0838417038 0.264210194 0.156816527
v -0.192611963 0.182731792 0.138435185
v -0.235079721 0.0466848463 0.115136996
v -0.0481113531 0.260871917 0.357777476
v -0.243885547 0.0730697885 0.367421269
v -0.213301867 0.152624756 0.46686253
v -0.142455831 0.212195083 0.443740308
v -0.154718325 0.203953415 0.360571295
v -0.161188319 0.366532326 0.534863889
v -0.119774923 0.281264007 0.624429107
v -0.183973178 0.218586728 0.605032206
v -0.211672202 0.188582256 0.537808537
v -0.213301867 0.152624756 0.46686253
v -0.0909843221 0.235679924 0.404835343
v -0.142455831 0.212195083 0.443740308
v -0.0280946586 0.282588065 0.418779492
v -0.0529289506 0.286275715 0.44081673
v -0.0909843221 0.235679924 0.404835343
v -0.142455831 0.212195083 0.443740308
v -0.0399217457 0.349158823 0.467041969
v 0.000171325824 0.310200453 0.522359908
v -0.0948944241 0.394883543 0.526545286
v -0.0235554911 0.302462667 0.615179896
v -0.211672202 0.188582256 0.537808537
v -0.149054572 0.399764001 0.329289705
v -0.205528021 0.434680343 0.26434201
v -0.199280083 0.443828493 0.382373452
v -0.259691209 0.471307099 0.289392918
v -0.126564905 0.327839792 0.293628424
v -0.175021574 0.365559876 0.2456664
v -0.167882815 0.269648761 0.31500414
v -0.205151245 0.278757066 0.259025902
v -0.263062298 0.215276405 0.286851734
v -0.205151245 0.278757066 0.259025902
v -0.215038136 0.232334539 0.348005056
v -0.167882815 0.269648761 0.31500414
v -0.332555503 0.246113673 0.321266204
v -0.263697326 0.262047231 0.394980073
v -0.285275042 0.327788204 0.428001016
v -0.363714218 0.328643322 0.344697446
v -0.253279895 0.402776361 0.418370694
v -0.322394133 0.418082684 0.328245461
v -0.421437263 0.356664985 0.291354537
v -0.356162518 0.261747688 0.293862641
v -0.291933894 0.476407796 0.23759082
v -0.212480336 0.383978039 0.178003877
v -0.263983101 0.43502447 0.148745164
v -0.212480336 0.383978039 0.178003877
v -0.279193312 0.309134394 0.22210218
v -0.328481138 0.301306874 0.196854681
v -0.328481138 0.301306874 0.196854681
v -0.279193312 0.309134394 0.22210218
v -0.300905824 0.272730291 0.173763677
v -0.258214116 0.280420005 0.19977735
v -0.244072676 0.252595276 0.211938456
v -0.297966957 0.218101725 0.202709079
v -0.279398978 0.298625857 0.243502319
v -0.34408316 0.236652955 0.239564657
v -0.387098104 0.291142464 0.195462644
v -0.331991673 0.272684932 0.247499019
v -0.279398978 0.298625857 0.243502319
v -0.279193312 0.309134394 0.22210218
v -0.113772258 0.260424137 0.366751134
v -0.246437162 0.0699937493 0.292795479
v -0.167455569 0.199884236 0.294490427
v -0.0616298653 0.260683268 0.294804454
v -0.170648783 0.186871558 0.101420894
v -0.20430477 0.0802722499 0.0846635997
v -0.193343222 0.158213168 0.167832911
v -0.214301765 0.0583526567 0.156448662
v -0.136945337 0.0173805412 0.0859494954
v -0.146075234 0.00155557017 0.158180028
v -0.0458451509 0.0491124615 0.162267894
v -0.0307155531 0.0595771745 0.104439989
v -0.0786237419 0.247729659 0.120267257
v -0.115790009 0.226831049 0.182055086
v 0.011556129 0.167684853 0.12253622
v -0.0156924203 0.151727304 0.174247935
v -0.169405863 0.201644048 0.0179256629
v -0.102712959 0.132724866 0.0154146217
v -0.216095209 0.0870448649 0.0140223121
v -0.148802638 0.0181974936 0.0115065398
v -0.0327785388 0.0604592785 0.0126805287
v 0.0227416437 0.175997138 0.0167251788
v -0.059998136 0.256886065 0.0195399001
v -0.0458451509 0.0491124615 0.162267894
v -0.0307155531 0.0595771745 0.104439989
v -0.0166492909 -0.0930900201 1.05939853
v -0.0337541439 -0.128250033 0.154995501
v 0.0210274365 -0.196513519 0.169931144
v 0.0155244451 -0.0293565243 0.147703782
v 0.117360637 0.00135261239 0.165255576
v 0.0155244451 -0.0293565243 0.147703782
v 0.188704103 -0.0970843211 0.195836157
v 0.119673543 -0.174389467 0.189187363
v -0.148802638 0.0181974936 0.0115065398
v -0.216095209 0.0870448649 0.0140223121
v -0.0327785388 0.0604592785 0.0126805287
v 0.0227416437 0.175997138 0.0167251788
v -0.0327785388 0.0604592785 0.0126805287
v -0.059998136 0.256886065 0.0195399001
v -0.169405863 0.201644048 0.0179256629
vt 0.502523541 0.8551085
vt 0.534360468 0.861288726
vt 0.502523541 0.885581195
vt 0.540333509 0.803303242
vt 0.521037877 0.817202747
vt 0.502523541 0.790427566
vt 0.580600262 0.69857496
vt 0.502523541 0.69031471
vt 0.59037137 0.672504187
vt 0.502523541 0.665047586
vt 0.502523541 0.72626555
vt 0.65045023 0.680477619
vt 0.718355596 0.674242258
vt 0.702182531 0.707578599
vt 0.723136961 0.719343066
vt 0.695501685 0.748647153
vt 0.79963851 0.757465243
vt 0.762996912 0.720735013
vt 0.797183335 0.696558058
vt 0.736860693 0.732816458
vt 0.74401027 0.824700117
vt 0.752705157 0.786201954
vt 0.759342015 0.80658567
vt 0.769760191 0.802688897
vt 0.792173684 0.8137182
vt 0.762894809 0.782107294
vt 0.766484797 0.748112857
vt 0.757213771 0.752434313
vt 0.720643461 0.777894557
vt 0.580071151 0.724669576
vt 0.644078195 0.707217932
vt 0.672458589 0.740814328
vt 0.502523541 0.818695843
vt 0.647656679 0.94319731
vt 0.635362089 0.846840143
vt 0.681708455 0.945598543
vt 0.582742393 0.768447042
vt 0.502523541 0.768145084
vt 0.857946932 0.736327767
vt 0.864804208 0.785430074
vt 0.976820052 0.781005621
vt 0.976820052 0.731454551
vt 0.625004709 0.757862508
vt 0.587655425 0.856575668
vt 0.532310843 0.946894646
vt 0.502523541 0.983565152
vt 0.604926765 0.64853555
vt 0.502523541 0.64853555
vt 0.976820052 0.64853555
vt 0.843924582 0.64853555
vt 0.789741755 0.64853555
vt 0.71854037 0.64853555
vt 0.714913487 0.82815665
vt 0.470012367 0.861643553
vt 0.464316547 0.803707361
vt 0.483845711 0.817420542
vt 0.414976865 0.672540963
vt 0.424652517 0.698689818
vt 0.355068922 0.680217445
vt 0.303384006 0.706895888
vt 0.287102461 0.673999071
vt 0.277694404 0.738512158
vt 0.284918427 0.777917266
vt 0.268781364 0.732720137
vt 0.205934897 0.757507026
vt 0.208427861 0.696575701
vt 0.242615148 0.720729113
vt 0.282499075 0.71890533
vt 0.261484444 0.824766636
vt 0.246160939 0.806649506
vt 0.252836525 0.786254346
vt 0.235735163 0.802763164
vt 0.213270441 0.813850164
vt 0.242651954 0.782157421
vt 0.239111051 0.748130381
vt 0.248390093 0.752427459
vt 0.425093889 0.724848568
vt 0.361448348 0.706846058
vt 0.289213598 0.823896766
vt 0.309973598 0.747107148
vt 0.333175451 0.739910066
vt 0.147707596 0.736165524
vt 0.422174424 0.768807411
vt 0.140336439 0.786296666
vt 0.0287650637 0.779049993
vt 0.0287650637 0.731461465
vt 0.380082607 0.757719696
vt 0.367656231 0.846598446
vt 0.415303409 0.857508719
vt 0.414902985 0.910469353
vt 0.357704282 0.898987651
vt 0.471813321 0.949368834
vt 0.400489479 0.64853555
vt 0.0287650637 0.64853555
vt 0.161678657 0.64853555
vt 0.215784505 0.64853555
vt 0.286939323 0.64853555
vt 0.590936244 0.937999904
vt 0.727948725 0.738598287
vt 0.93286705 0.424402952
vt 0.938204825 0.448324084
vt 0.914227784 0.451487541
vt 0.857983887 0.524608254
vt 0.910777688 0.479665041
vt 0.907019496 0.53220588
vt 0.801088691 0.392024875
vt 0.822242796 0.375802279
vt 0.812007844 0.472274184
vt 0.860165834 0.4689852
vt 0.73256433 0.382753253
vt 0.73256433 0.45991993
vt 0.816730738 0.525963128
vt 0.786919773 0.525963128
vt 0.855684459 0.560771585
vt 0.856390297 0.625114977
vt 0.812861085 0.559834659
vt 0.807734132 0.625114977
vt 0.73256433 0.346747816
vt 0.786949813 0.364367902
vt 0.90469557 0.563046992
vt 0.906402111 0.625114977
vt 0.86319685 0.426681757
vt 0.604519546 0.470257044
vt 0.553350687 0.481320739
vt 0.55001086 0.45362556
vt 0.638707936 0.376285315
vt 0.652759552 0.471803546
vt 0.662038982 0.38934958
vt 0.607063055 0.525394738
vt 0.648257017 0.525963068
vt 0.678121328 0.525963068
vt 0.608550131 0.561454892
vt 0.652590573 0.560280323
vt 0.68462652 0.356010318
vt 0.560005367 0.563970745
vt 0.557712317 0.533272862
vt 0.600036621 0.428623438
vt 0.531047463 0.426492631
vt 0.525973022 0.45043993
vt 0.506495118 0.42646414
vt 0.506590188 0.449363232
vt 0.93286705 0.424402952
vt 0.933969319 0.417081237
vt 0.957401454 0.424538255
vt 0.983915746 0.417081237
vt 0.983915746 0.457946062
vt 0.977296591 0.42539537
vt 0.975778282 0.44829154
vt 0.941499174 0.457946062
vt 0.923390687 0.457946062
vt 0.938204825 0.448324084
vt 0.914227784 0.451487541
vt 0.910777688 0.479665041
vt 0.923390687 0.479815543
vt 0.907019496 0.53220588
vt 0.923390687 0.540449619
vt 0.822242796 0.375802279
vt 0.787662923 0.353539944
vt 0.827448249 0.366573274
vt 0.90469557 0.563046992
vt 0.541137576 0.481977582
vt 0.541137576 0.460276365
vt 0.553350687 0.481320739
vt 0.55001086 0.45362556
vt 0.529914558 0.419049978
vt 0.594453871 0.419049978
vt 0.531047463 0.426492631
vt 0.600036621 0.428623438
vt 0.558282435 0.625845075
vt 0.541137576 0.625845075
vt 0.560005367 0.563970745
vt 0.594453871 0.419049978
vt 0.609082401 0.385626912
vt 0.600036621 0.428623438
vt 0.638707936 0.376285315
vt 0.525973022 0.45043993
vt 0.522650242 0.460276365
vt 0.506590188 0.449363232
vt 0.504243433 0.460276365
vt 0.489224494 0.449442387
vt 0.480072826 0.460276365
vt 0.485444039 0.42810154
vt 0.480072826 0.419049978
vt 0.868565381 0.417081237
vt 0.86319685 0.426681757
vt 0.506495118 0.42646414
vt 0.480072826 0.419049978
vt 0.95762676 0.447152376
vt 0.957401454 0.424538255
vt 0.959801972 0.457946062
vt 0.95762676 0.447152376
vt 0.541137576 0.541461706
vt 0.557712317 0.533272862
vt 0.73256433 0.346747816
vt 0.786949813 0.364367902
vt 0.977296591 0.42539537
vt 0.975778282 0.44829154
vt 0.489224494 0.449442387
vt 0.480072826 0.460276365
vt 0.489224494 0.449442387
vt 0.485444039 0.42810154
vt 0.485444039 0.42810154
vt 0.857083261 0.395864129
vt 0.73256433 0.33710748
vt 0.73256433 0.346747816
vt 0.68462652 0.356010318
vt 0.259979963 0.610211372
vt 0.280726016 0.542021632
vt 0.280193895 0.595899284
vt 0.100510299 0.505707383
vt 0.125306517 0.47339803
vt 0.162298933 0.522212744
vt 0.108135462 0.560656786
vt 0.104794845 0.579427898
vt 0.0591245741 0.550510406
vt 0.174404055 0.620074928
vt 0.172267944 0.590671659
vt 0.214204341 0.566291571
vt 0.206103891 0.514687061
vt 0.0660946965 0.496782422
vt 0.0675923675 0.436410666
vt 0.0660946965 0.496782422
vt 0.0149884969 0.528172314
vt 0.0675923675 0.436410666
vt 0.439937592 0.597722411
vt 0.433447599 0.55866468
vt 0.483802289 0.550853431
vt 0.515419841 0.491328597
vt 0.479259253 0.525306284
vt 0.473576844 0.498983204
vt 0.347064435 0.619817019
vt 0.3291592 0.599433541
vt 0.385068357 0.579916239
vt 0.345013946 0.543453276
vt 0.433447599 0.55866468
vt 0.405512869 0.509537101
vt 0.385068357 0.579916239
vt 0.479259253 0.525306284
vt 0.515419841 0.491328597
vt 0.179455429 0.479161978
vt 0.185996413 0.42748034
vt 0.125306517 0.47339803
vt 0.0675923675 0.436410666
vt 0.179455429 0.479161978
vt 0.241842702 0.472776532
vt 0.241842702 0.472776532
vt 0.0591245741 0.550510406
vt 0.280056119 0.925164104
vt 0.33128041 0.949333012
vt 0.608643115 0.625845075
vt 0.655311167 0.625845075
vt 0.558282435 0.625845075
vt 0.923390687 0.625114977
vt 0.906402111 0.625114977
vt 0.73256433 0.525963128
vt 0.714694262 0.933442295
vt 0.347064435 0.619817019
vt 0.0201434828 0.341784775
vt 0.13192299 0.341784775
vt 0.0201434828 0.393537283
vt 0.13192299 0.393537283
vt 0.235143349 0.393537283
vt 0.278356284 0.355580091
vt 0.303265184 0.393537283
vt 0.348529518 0.393537283
vt 0.464169055 0.34629637
vt 0.464169055 0.393537283
vt 0.0201434828 0.263428688
vt 0.13192299 0.263428688
vt 0.31880182 0.34629637
vt 0.31892994 0.296315193
vt 0.464169055 0.296315193
vt 0.319526106 0.236955523
vt 0.464169055 0.236955523
vt 0.13192299 0.0846760273
vt 0.13192299 0.0190722346
vt 0.238657296 0.0846760273
vt 0.238657296 0.0189979672
vt 0.319526106 0.0198853016
vt 0.464169055 0.0846760273
vt 0.319526106 0.0846760273
vt 0.230944738 0.341784775
vt 0.678364933 0.0790643692
vt 0.728566587 0.0954278111
vt 0.677948892 0.0949242711
vt 0.729209602 0.0646334887
vt 0.770455539 0.0667130947
vt 0.771644711 0.0981377363
vt 0.8133564 0.0684249997
vt 0.815245986 0.100940943
vt 0.858156145 0.0850733519
vt 0.534908473 0.0827915668
vt 0.534247637 0.104185998
vt 0.4893381 0.0811862946
vt 0.4893381 0.103182733
vt 0.581202924 0.0823494792
vt 0.58066684 0.10294652
vt 0.633733153 0.0806574821
vt 0.632751763 0.100548744
vt 0.0201434828 0.0195333958
vt 0.0201434828 0.0846760273
vt 0.537443161 0.29872632
vt 0.57834518 0.307608664
vt 0.536935091 0.336017847
vt 0.583264709 0.333652496
vt 0.572715163 0.360271573
vt 0.536435246 0.372697949
vt 0.464169055 0.182082474
vt 0.319526106 0.182082474
vt 0.0201434828 0.182082474
vt 0.13192299 0.182082474
vt 0.19693242 0.263428688
vt 0.238657296 0.23832041
vt 0.238657296 0.182082474
vt 0.726101816 0.0150125027
vt 0.677567422 0.0150125027
vt 0.67845279 0.065177381
vt 0.767503738 0.0150125027
vt 0.807858586 0.0150125027
vt 0.858156145 0.0150125027
vt 0.858156145 0.0697779655
vt 0.4893381 0.0657510161
vt 0.4893381 0.0150125027
vt 0.535934985 0.0663211346
vt 0.541588962 0.0150125027
vt 0.581798255 0.0664718151
vt 0.587213337 0.0150125027
vt 0.634499431 0.0652550459
vt 0.632086396 0.0150125027
vt 0.204369441 0.306659579
vt 0.57947135 0.146796703
vt 0.630586684 0.142461538
vt 0.587921262 0.197135031
vt 0.625328362 0.200027883
vt 0.531595469 0.149595022
vt 0.544846058 0.19679749
vt 0.4893381 0.15025866
vt 0.4893381 0.193775773
vt 0.858156145 0.155554295
vt 0.858156145 0.204074025
vt 0.816153049 0.151759148
vt 0.810400248 0.197165608
vt 0.771475255 0.147514641
vt 0.768793106 0.20547235
vt 0.725315809 0.142393887
vt 0.725443125 0.198357463
vt 0.676473856 0.14021796
vt 0.673078179 0.195187211
vt 0.758964956 0.226591945
vt 0.714993477 0.232715249
vt 0.628599465 0.230290592
vt 0.607385635 0.276212156
vt 0.563842058 0.245141566
vt 0.609170556 0.319487154
vt 0.697777987 0.310976088
vt 0.672640204 0.334886491
vt 0.833039522 0.256552756
vt 0.837077498 0.274559736
vt 0.806669891 0.265422642
vt 0.785439909 0.284369588
vt 0.805852473 0.241547108
vt 0.835277736 0.235888839
vt 0.858156145 0.266151428
vt 0.780467391 0.242045045
vt 0.730656624 0.292276919
vt 0.767958999 0.254261017
vt 0.4893381 0.243030608
vt 0.500560522 0.251834452
vt 0.858156145 0.107082367
vt 0.464169055 0.0198853016
vt 0.0201434828 0.131958008
vt 0.13192299 0.131958008
vt 0.238657296 0.131958008
vt 0.319526106 0.131958008
vt 0.464169055 0.131958008
vt 0.884130955 0.209277272
vt 0.931913495 0.209277272
vt 0.884130955 0.269684792
vt 0.931913435 0.269684792
vt 0.884131014 0.318493485
vt 0.931913495 0.318493485
vt 0.884131014 0.380491436
vt 0.931913495 0.380491436
vt 0.884130955 0.149237037
vt 0.931913495 0.149237037
vt 0.884130955 0.0856053829
vt 0.931913495 0.0856053829
vt 0.717552781 0.621028066
vt 0.677341342 0.595122933
vt 0.723342419 0.584416807
vt 0.683336556 0.558401287
vt 0.72941345 0.546026111
vt 0.772627056 0.570269942
vt 0.764419138 0.614228845
vt 0.884130955 0.0227896571
vt 0.931913435 0.0227896571
vt 0.13192299 0.393537283
vt 0.13192299 0.341784775
vt 0.235143349 0.393537283
vt 0.303265184 0.393537283
vt 0.278356284 0.355580091
vt 0.348529518 0.393537283
vt 0.13192299 0.263428688
vt 0.31880182 0.34629637
vt 0.31892994 0.296315193
vt 0.319526106 0.236955523
vt 0.238657296 0.0846760273
vt 0.238657296 0.0189979672
vt 0.13192299 0.0846760273
vt 0.13192299 0.0190722346
vt 0.319526106 0.0198853016
vt 0.319526106 0.0846760273
vt 0.230944738 0.341784775
vt 0.678364933 0.0790643692
vt 0.677948892 0.0949242711
vt 0.728566587 0.0954278111
vt 0.729209602 0.0646334887
vt 0.770455539 0.0667130947
vt 0.771644711 0.0981377363
vt 0.8133564 0.0684249997
vt 0.815245986 0.100940943
vt 0.858156145 0.0850733519
vt 0.4893381 0.103182733
vt 0.534247637 0.104185998
vt 0.4893381 0.0811862946
vt 0.534908473 0.0827915668
vt 0.581202924 0.0823494792
vt 0.58066684 0.10294652
vt 0.633733153 0.0806574821
vt 0.632751763 0.100548744
vt 0.57834518 0.307608664
vt 0.583264709 0.333652496
vt 0.572715163 0.360271573
vt 0.319526106 0.182082474
vt 0.13192299 0.182082474
vt 0.19693242 0.263428688
vt 0.238657296 0.23832041
vt 0.238657296 0.182082474
vt 0.67845279 0.065177381
vt 0.677567422 0.0150125027
vt 0.726101816 0.0150125027
vt 0.767503738 0.0150125027
vt 0.807858586 0.0150125027
vt 0.858156145 0.0697779655
vt 0.858156145 0.0150125027
vt 0.535934985 0.0663211346
vt 0.541588962 0.0150125027
vt 0.4893381 0.0657510161
vt 0.4893381 0.0150125027
vt 0.581798255 0.0664718151
vt 0.587213337 0.0150125027
vt 0.634499431 0.0652550459
vt 0.632086396 0.0150125027
vt 0.204369441 0.306659579
vt 0.57947135 0.146796703
vt 0.587921262 0.197135031
vt 0.630586684 0.142461538
vt 0.625328362 0.200027883
vt 0.531595469 0.149595022
vt 0.544846058 0.19679749
vt 0.4893381 0.15025866
vt 0.4893381 0.193775773
vt 0.810400248 0.197165608
vt 0.858156145 0.204074025
vt 0.816153049 0.151759148
vt 0.858156145 0.155554295
vt 0.768793106 0.20547235
vt 0.771475255 0.147514641
vt 0.725315809 0.142393887
vt 0.725443125 0.198357463
vt 0.676473856 0.14021796
vt 0.673078179 0.195187211
vt 0.714993477 0.232715249
vt 0.758964956 0.226591945
vt 0.628599465 0.230290592
vt 0.563842058 0.245141566
vt 0.607385635 0.276212156
vt 0.609170556 0.319487154
vt 0.672640204 0.334886491
vt 0.697777987 0.310976088
vt 0.785439909 0.284369588
vt 0.837077498 0.274559736
vt 0.806669891 0.265422642
vt 0.833039522 0.256552756
vt 0.835277736 0.235888839
vt 0.805852473 0.241547108
vt 0.858156145 0.266151428
vt 0.780467391 0.242045045
vt 0.730656624 0.292276919
vt 0.767958999 0.254261017
vt 0.4893381 0.243030608
vt 0.500560522 0.251834452
vt 0.858156145 0.107082367
vt 0.13192299 0.131958008
vt 0.238657296 0.131958008
vt 0.319526106 0.131958008
vt 0.931913495 0.209277272
vt 0.931913435 0.269684792
vt 0.975386024 0.209277272
vt 0.975386024 0.269684792
vt 0.931913495 0.318493485
vt 0.975386024 0.318493485
vt 0.975386024 0.380491436
vt 0.931913495 0.380491436
vt 0.931913495 0.149237037
vt 0.975386024 0.149237037
vt 0.931913495 0.0856053829
vt 0.975386024 0.0856053829
vt 0.717552781 0.621028066
vt 0.723342419 0.584416807
vt 0.677341342 0.595122933
vt 0.683336556 0.558401287
vt 0.72941345 0.546026111
vt 0.772627056 0.570269942
vt 0.764419138 0.614228845
vt 0.975386024 0.0227896571
vt 0.931913435 0.0227896571
vt 0.73256433 0.33710748
vt 0.975386024 0.318493485
vt 0.975386024 0.269684792
vt 0.975386024 0.380491436
vt 0.975386024 0.0856053829
vt 0.975386024 0.0227896571
vt 0.975386024 0.149237037
vt 0.975386024 0.209277272
vt 0.884131014 0.318493485
vt 0.884130955 0.269684792
vt 0.884131014 0.380491436
vt 0.884130955 0.0856053829
vt 0.884130955 0.0227896571
vt 0.884130955 0.149237037
vt 0.884130955 0.209277272
vn -0.132189855 -0.643915236 0.753590703
vn 0.238790244 -0.843117833 0.481800258
vn -0.164999515 -0.875266612 0.454624623
vn 0.160427988 -0.97429949 0.158124417
vn 0.575450838 -0.815930486 0.0558023155
vn -0.167907625 -0.982868075 -0.0760083422
vn 0.263270497 -0.739071608 -0.620049894
vn -0.114763908 -0.747491479 -0.654282629
vn 0.187782437 -0.486275136 -0.853389859
vn -0.102342531 -0.514712572 -0.851232588
vn -0.171481654 -0.984138668 0.0454428047
vn 0.452579618 -0.323266476 -0.831065774
vn 0.818633497 -0.191872239 -0.541317105
vn 0.825532436 -0.142146289 -0.546159923
vn 0.984102905 -0.138197094 -0.111548916
vn 0.942721665 -0.323592246 0.0810176134
vn 0.879838109 0.448993385 -0.155852005
vn 0.761336088 0.0883373246 -0.642311394
vn 0.873048842 0.166032404 -0.458496273
vn 0.787210166 -0.566772223 -0.243041784
vn 0.330227345 -0.648265362 0.686077297
vn 0.805168629 -0.573626399 0.150519922
vn 0.440094054 -0.26580748 0.857708275
vn 0.338454634 0.83607775 0.431766659
vn 0.814418316 0.565229595 0.131294072
vn 0.554129958 0.830612957 -0.0549728163
vn 0.528133392 0.42818585 -0.733302176
vn 0.659517467 -0.657638192 -0.364072531
vn 0.355876118 -0.909995377 0.212745205
vn 0.184682578 -0.982222915 0.0336205699
vn 0.648114324 -0.582919359 -0.490053982
vn 0.807112038 -0.582580328 0.0957623869
vn -0.167920455 -0.982892513 -0.0756646097
vn 0.608528435 -0.758901536 0.231865242
vn 0.612020612 -0.758015633 0.225483999
vn 0.826243997 -0.543072104 0.149644747
vn 0.211697936 -0.957245111 0.19714427
vn -0.172519743 -0.974623501 0.142639607
vn 0.560019732 0.631937027 -0.535755157
vn 0.686595261 0.686132133 -0.240436614
vn 0.16848132 0.928441644 -0.331074297
vn 0.214916781 0.812646627 -0.541679084
vn 0.519256711 -0.841565311 0.148796439
vn 0.242603451 -0.923536897 0.297023952
vn 0.0105117848 -0.918693721 0.394831032
vn -0.168949038 -0.89717406 0.408086807
vn -0.0251228884 -0.547291458 -0.836564898
vn -0.247250363 -0.400573671 -0.88227421
vn 0.310846448 0.66327548 -0.680764377
vn 0.54347986 0.493110538 -0.679317117
vn 0.894674003 -0.232195497 -0.381633103
vn 0.529662192 -0.18839097 -0.82702291
vn 0.810364723 -0.552194297 0.195934847
vn -0.533378899 -0.70955503 0.460476607
vn -0.486366004 -0.862423599 0.140262946
vn -0.818041742 -0.574897945 0.0173206329
vn -0.358986795 -0.368112326 -0.857683897
vn -0.435495228 -0.598421276 -0.672484756
vn -0.648827195 -0.074886024 -0.757241905
vn -0.843069255 0.149642065 -0.516567111
vn -0.687790096 0.290780842 -0.665125012
vn -0.999225795 0.0391157269 0.00420340244
vn -0.651524007 -0.73574394 0.184925258
vn -0.917553425 -0.271896303 -0.290117621
vn -0.666574478 0.717882514 -0.200806558
vn -0.692395389 0.473410666 -0.544491351
vn -0.648816645 0.355520189 -0.672786891
vn -0.965922892 0.199094594 -0.165390879
vn -0.564919174 -0.49342978 0.661357164
vn -0.549070239 -0.094711341 0.83039242
vn -0.957831562 -0.268679053 0.101834103
vn -0.0608193167 0.905140042 0.420740455
vn -0.583251357 0.80698514 0.0926972777
vn -0.239404544 0.967870831 -0.0768862367
vn -0.313677579 0.573794425 -0.756549001
vn -0.821473598 -0.40147233 -0.404970527
vn -0.50516504 -0.862899721 0.0145704504
vn -0.758736074 -0.374752283 -0.532804251
vn -0.959658921 -0.236284718 0.152395383
vn -0.999548614 0.0123617817 0.0273813289
vn -0.959730208 -0.276968926 0.0469704345
vn -0.285946697 0.847215176 -0.447728634
vn -0.530950487 -0.828789055 0.176635966
vn -0.399500728 0.875341833 -0.272352368
vn 0.16848132 0.928441644 -0.331074297
vn 0.214916781 0.812646627 -0.541679084
vn -0.778780937 -0.617043316 0.112950914
vn -0.811256588 -0.548056245 0.2037085
vn -0.56213671 -0.779964149 0.275060624
vn -0.505509317 -0.804057121 0.312973648
vn -0.885816276 -0.427303553 0.180945501
vn -0.336401016 -0.858409643 0.387255996
vn -0.552647948 -0.095960848 -0.827871859
vn 0.310846448 0.66327548 -0.680764377
vn -0.090177983 0.789150715 -0.607543409
vn -0.617832959 0.494226635 -0.611573815
vn -0.689201832 0.313337326 -0.653315127
vn 0.104857445 -0.924102068 0.367478073
vn 0.952640116 -0.298497379 0.0581049286
vn 0.880752504 -0.449073166 0.150360629
vn 0.886872888 -0.439932048 0.141124204
vn 0.932694674 -0.336473376 0.129870012
vn 0.913186133 0.386783421 0.128411829
vn 0.999843955 0.0142329456 -0.0104632275
vn 0.860367596 0.501074791 -0.0932282507
vn 0.399074495 -0.0787070915 0.913534284
vn 0.812520087 -0.32722047 0.482429236
vn 0.501352191 0.0627785102 0.862962842
vn 0.935228288 -0.123516798 0.331800938
vn -0.0253207665 0.0132011948 0.999592185
vn 0.00786255766 0.201820076 0.979391038
vn 0.711390615 0.375754684 0.593912363
vn 0.364509702 0.784519792 0.501658797
vn 0.459404171 0.887987614 -0.0206346773
vn 0.171197027 0.984473825 -0.0387676246
vn 0.364509702 0.784519792 0.501658797
vn 0.133562535 0.852780819 0.504901886
vn -0.129146814 -0.619322062 0.774442673
vn 0.0626505539 -0.728427291 0.682252526
vn 0.454129368 0.880117118 -0.138420984
vn 0.172817871 0.972564042 -0.155733943
vn 0.893369734 -0.379915357 0.239906028
vn -0.938785911 0.200631946 0.280049682
vn -0.934979022 0.348900944 -0.0638937801
vn -0.997059882 -0.00268293265 0.0765795708
vn -0.897296548 -0.041940216 0.439431369
vn -0.496675819 0.23540771 0.835401893
vn -0.451542795 0.0665548295 0.889763713
vn -0.735878348 0.672023118 0.0828723833
vn -0.574743152 0.598217905 0.558395624
vn -0.106371924 0.865968287 0.488655239
vn -0.132644713 0.990463495 -0.037250977
vn -0.106371924 0.865968287 0.488655239
vn -0.37448141 -0.714070916 0.591494977
vn -0.123791419 0.980174959 -0.154702112
vn -0.635967076 0.759896159 -0.134550333
vn -0.980553627 -0.0557832569 0.188156188
vn -0.987101376 -0.125989392 0.098779805
vn -0.98929441 -0.115410544 0.0893137679
vn -0.98607856 -0.109242223 0.125361025
vn -0.986377597 -0.109465949 0.122786649
vn 0.256997406 -0.935533702 0.242340833
vn 0.246943891 -0.93536514 0.253200948
vn 0.144211203 -0.922118962 0.359026074
vn 0.196384922 -0.769535005 -0.607658565
vn 0.346137673 0.196133286 -0.917453229
vn 0.182957768 -0.641996324 -0.744558334
vn 0.369992316 0.329616874 -0.86859566
vn 0.465906143 0.819093108 -0.334690928
vn 0.518749833 0.484338552 -0.704496026
vn 0.464190274 0.82690537 -0.317419231
vn 0.518541276 0.481092125 -0.706870019
vn 0.379273713 -0.206368536 -0.901977539
vn 0.380039066 -0.200780153 -0.902916193
vn 0.368094653 -0.190201506 -0.910126269
vn 0.284531236 -0.0872949287 -0.954684019
vn 0.535495877 -0.829030395 -0.161098048
vn 0.0838939473 -0.939685047 0.331593156
vn 0.488534898 -0.862247944 -0.133649588
vn 0.129551321 0.0572658665 -0.989917696
vn -0.376417875 -0.0699356198 -0.923806608
vn -0.287537992 0.623804569 -0.726766646
vn -0.377624542 -0.075448066 -0.922879875
vn -0.288304508 0.62065351 -0.729156852
vn -0.559758723 -0.795829415 0.230923444
vn -0.582193255 -0.786883235 0.204611406
vn -0.568688393 -0.792714417 0.219539031
vn -0.582193196 -0.786883175 0.204611376
vn 0.0621927343 0.204364255 -0.976917207
vn 0.0554898456 0.162707478 -0.985112727
vn -0.0491173789 0.0878267586 -0.994924128
vn -0.810639918 -0.460868329 -0.361196965
vn -0.810640037 -0.460868359 -0.361196965
vn -0.810639858 -0.460868299 -0.361196935
vn -0.810640037 -0.460868418 -0.361196995
vn -0.141992152 0.93175894 -0.334160924
vn -0.145303056 0.924815834 -0.351571679
vn -0.12528491 0.857065856 -0.499741793
vn -0.122638658 0.85443157 -0.504882514
vn -0.242826581 -0.293640494 -0.924559653
vn -0.242826581 -0.293640494 -0.924559653
vn -0.242826596 -0.293640494 -0.924559593
vn -0.242826581 -0.293640465 -0.924559653
vn 0.33923462 -0.931736588 0.129563719
vn 0.420344889 -0.905877292 0.0519272536
vn -0.464364827 -0.816854179 0.342219979
vn -0.40547058 -0.834200323 0.373769313
vn 0.884331226 -0.43304345 0.174446404
vn 0.883987248 -0.432708502 0.177002758
vn 0.429177761 0.758984864 -0.489640981
vn 0.43227461 0.760625243 -0.484342903
vn -0.245087922 0.00447862362 -0.969490409
vn -0.361249387 -0.0640463904 -0.930267155
vn -0.0863001794 -0.996135056 -0.0163423885
vn 0.099285841 -0.893476963 0.437996745
vn 0.880103886 -0.429095149 0.203210711
vn 0.880103827 -0.429095149 0.203210726
vn -0.0900866911 0.8196612 -0.565720677
vn -0.0900866836 0.81966114 -0.565720677
vn -0.982617795 -0.10689991 0.15177156
vn -0.982617855 -0.106899902 0.151771575
vn -0.3615596 -0.844593585 0.394887775
vn 0.655837834 -0.701613307 -0.278595448
vn -0.351234406 -0.935108185 -0.0469780192
vn -0.351234436 -0.935108244 -0.0469780192
vn -0.351234436 -0.935108244 -0.0469780192
vn 0.577579856 -0.808107615 0.115600936
vn 0.468601197 -0.760631204 -0.449280649
vn 0.617751598 -0.667257547 -0.416113138
vn -0.875290394 0.0324930958 0.482504725
vn -0.875891626 -0.296718776 0.3804892
vn -0.644887149 -0.656754136 0.390889645
vn -0.692260385 0.0925358906 0.715690494
vn 0.116570234 0.70334655 0.70122385
vn -0.0690648481 0.955649614 0.286293238
vn 0.1838011 0.451683551 0.87304014
vn -0.209648669 -0.299126089 0.930898011
vn 0.235350952 -0.918424249 0.317973107
vn 0.107940093 -0.919145226 -0.37884149
vn -0.287735254 0.776860893 0.560085416
vn 0.569262624 0.82125324 -0.0385112464
vn 0.493178606 0.850168109 -0.184360921
vn 0.4052867 0.855498731 -0.322280467
vn -0.722424626 0.160669833 0.672523439
vn 0.136842012 -0.489655823 0.861110628
vn 0.280298293 -0.514183342 0.810585201
vn 0.559871018 -0.346693963 0.752560854
vn 0.664026856 -0.416710526 -0.620822608
vn 0.361390471 -0.672298372 -0.646074295
vn 0.411515802 -0.656195462 -0.63250488
vn -0.73765415 -0.559698939 -0.377628654
vn -0.737654209 -0.55969888 -0.377628654
vn -0.280085087 -0.778892398 -0.561140656
vn -0.30923298 -0.772311807 -0.554895878
vn 0.0558411032 -0.794997871 -0.604036629
vn 0.0567716882 -0.796022058 -0.602599382
vn -0.041806493 -0.43139261 0.901195109
vn 0.685669363 -0.057846196 0.725611031
vn 0.706065476 0.166635305 0.688261747
vn -0.296585202 -0.831275761 -0.470125437
vn -0.0791111365 -0.241530657 -0.967163026
vn -0.118955478 -0.190328494 -0.974486828
vn -0.128656015 -0.155924737 -0.979354382
vn -0.0589286983 -0.297027707 -0.953048825
vn 0.00440200139 -0.318362951 -0.947958708
vn 0.323946506 -0.6506868 -0.686779022
vn 0.289311826 0.832821846 -0.471917927
vn -0.963323593 -0.232816964 0.133430824
vn -0.956007898 -0.242029354 0.165742755
vn 0.171197027 0.984473825 -0.0387676246
vn 0.133562535 0.852780819 0.504901886
vn 0.172817871 0.972564042 -0.155733943
vn 0.0554898456 0.162707478 -0.985112727
vn 0.0621927343 0.204364255 -0.976917207
vn 0.133562535 0.852780819 0.504901886
vn 0.840809166 -0.514146924 0.169389695
vn -0.0743981227 -0.389718294 0.917924047
vn -0.692315698 -0.530719519 0.488912761
vn -0.439379692 -0.70821023 0.552615345
vn -0.430838645 -0.489600062 0.758069754
vn -0.190669343 -0.495529145 0.847405493
vn 0.126501516 -0.386785716 0.913451791
vn 0.523597002 -0.461332262 0.716253102
vn 0.492416084 -0.254491061 0.832322538
vn 0.860165298 0.447882205 0.243961096
vn 0.756136835 0.589643657 0.283861846
vn 0.310522377 0.937483847 -0.157161906
vn -0.766295135 -0.594254494 0.244240507
vn -0.494068354 -0.859088838 0.133651704
vn 0.901473939 0.171372905 0.397461861
vn 0.860854983 0.502564251 -0.0797359124
vn 0.809503734 0.587059081 -0.00807882287
vn 0.907759726 0.30905059 -0.283654571
vn 0.77805388 0.590683877 -0.213833228
vn -0.268892705 -0.961740911 0.0524506196
vn -0.247963473 -0.967938244 0.0401213653
vn 0.513809204 -0.832296073 0.208046734
vn 0.504554331 -0.830735624 0.235166371
vn 0.64981395 -0.0327262171 -0.759388387
vn 0.714736521 0.699290693 -0.012007135
vn 0.982949972 -0.0402130969 0.179422468
vn 0.118856631 -0.718151569 0.685661137
vn 0.803162873 -0.504662514 0.316615224
vn 0.202200383 -0.812949181 0.546103179
vn 0.780563474 -0.533210576 0.326200932
vn 0.25622803 -0.832157552 0.491793692
vn -0.268779278 -0.956560493 0.112915508
vn -0.537790954 -0.693997204 0.478694856
vn -0.868514478 -0.397322267 -0.296340376
vn -0.977843642 0.0391641185 0.20564048
vn -0.775407016 0.608488739 -0.168776929
vn -0.140462831 0.928441465 -0.343898892
vn -0.106182054 0.759650648 -0.641604483
vn -0.775407016 0.608488739 -0.168776929
vn -0.809961855 0.516210914 -0.278366715
vn 0.580563724 0.759733975 -0.292830884
vn 0.590012729 0.571186066 -0.570641339
vn 0.973505735 0.228087604 -0.0162016526
vn 0.973390281 0.0931811631 -0.209352881
vn -0.731755555 -0.677432656 -0.0749586374
vn -0.754261255 -0.655022383 -0.0451186113
vn 0.335688293 0.26771611 -0.903128684
vn 0.64981395 -0.0327262171 -0.759388387
vn 0.15901342 0.104744315 -0.981704354
vn 0.180394739 0.0346216485 -0.982984781
vn 0.202967733 0.0444931053 -0.97817409
vn 0.168615296 0.0974478871 -0.980853021
vn 0.770459592 0.631925285 -0.0840380639
vn 0.985771537 0.120846428 -0.116835773
vn -0.770029485 -0.637086809 -0.0342759751
vn -0.109713584 -0.987775564 -0.110735461
vn 0.039791137 -0.972698092 -0.22863777
vn 0.333018899 -0.871730924 -0.359421015
vn 0.548268914 -0.820350945 -0.162559301
vn 0.118856631 -0.718151569 0.685661137
vn 0.523597002 -0.461332262 0.716253102
vn 0.683074474 -0.491771758 0.539972067
vn -0.214956522 -0.952381849 0.216246471
vn 0.039791137 -0.972698092 -0.22863777
vn 0.333018899 -0.871730924 -0.359421015
vn -0.733387649 0.672793746 0.0974222273
vn -0.733387649 0.672793746 0.0974222273
vn 0.333018899 -0.871730924 -0.359421015
vn -0.32018441 0.932274282 0.16836454
vn 0.907759726 0.30905059 -0.283654571
vn 0.601235569 0.794148147 -0.0885693729
vn 0.860854983 0.502564251 -0.0797359124
vn 0.953619957 0.0973555595 0.284834892
vn 0.901473939 0.171372905 0.397461861
vn -0.214956522 -0.952381849 0.216246471
vn 0.57877326 0.601442039 -0.550716877
vn 0.993013799 0.00285133044 -0.117963791
vn 0.615438521 0.691977561 -0.377362669
vn 0.999549508 0.0090763066 -0.0286072772
vn -0.223120674 0.742723346 -0.631331265
vn -0.056387905 0.821096301 -0.567997515
vn -0.793988824 0.547360897 -0.264533103
vn -0.692110896 0.587614298 -0.419156283
vn -0.793988824 0.547360897 -0.264533103
vn -0.692110896 0.587614298 -0.419156283
vn -0.952131689 0.092398122 0.291389674
vn -0.950328171 0.0783969834 0.301214606
vn -0.560650527 -0.522451222 0.642429531
vn -0.624072731 -0.521363795 0.58199054
vn 0.168021381 -0.765045643 0.621670306
vn 0.116052806 -0.764891982 0.633618236
vn 0.728651702 -0.582743168 0.359829277
vn 0.7509619 -0.590411603 0.295753777
vn -0.619340122 -0.743061423 0.253529936
vn 0.336740077 -0.846915662 -0.411509365
vn 0.572084606 -0.538601339 -0.618569136
vn 0.222944036 -0.295499563 -0.928964913
vn -0.215846196 0.691219747 -0.689656198
vn -0.215846196 0.691219747 -0.689656198
vn -0.578627169 0.0691139027 -0.812658489
vn -0.323410034 0.769486725 -0.550723255
vn 0.0791067928 0.728845358 -0.680093169
vn -0.323410034 0.769486725 -0.550723255
vn -0.274201244 -0.154008612 -0.949260294
vn -0.578627169 0.0691139027 -0.812658489
vn -0.976497829 -0.0923080519 -0.194759488
vn -0.630903184 0.722786546 -0.282029957
vn -0.321102679 0.682880104 -0.656176627
vn -0.765605748 -0.641553402 0.0475086644
vn 0.0403951332 -0.687528849 -0.725032628
vn -0.717341244 -0.685667753 -0.123617217
vn -0.321102679 0.682880104 -0.656176627
vn -0.323410034 0.769486725 -0.550723255
vn -0.809961855 0.516210914 -0.278366715
vn 0.335688293 0.26771611 -0.903128684
vn -0.754465818 -0.656044245 -0.019681517
vn -0.12976101 -0.991541386 0.00274770055
vn 0.603269637 -0.797390521 0.0153011922
vn 0.977266252 0.210566834 -0.0247455928
vn 0.734849274 0.676315725 -0.0509261303
vn 0.822065413 -0.555146635 0.126572758
vn 0.722958148 -0.672713757 0.157440975
vn 0.175447926 -0.964614928 0.196814686
vn 0.00699011236 -0.993216336 0.116071247
vn -0.901085556 -0.430983245 0.0479407646
vn -0.950824559 -0.262865245 -0.163812652
vn -0.852874994 0.521571398 -0.0238233935
vn -0.771811664 0.627158582 -0.104780741
vn 0.904058814 0.405148566 0.136133313
vn 0.942298472 0.222276166 0.250333279
vn 0.00533187948 0.995159328 0.098129943
vn 0.151129469 0.970671892 0.18696484
vn 0.0105350949 -0.0163120795 -0.999811471
vn 0.0108358925 -0.0158519782 -0.999815702
vn 0.0108544119 -0.0160832498 -0.999811709
vn 0.011129179 -0.0162104592 -0.999806643
vn 0.0117515046 -0.0161935817 -0.999799907
vn 0.0104894768 -0.0156526268 -0.999822438
vn 0.00981722586 -0.0159921292 -0.999823928
vn -0.852874994 0.521571398 -0.0238233935
vn -0.771811664 0.627158582 -0.104780741
vn -0.647943854 -0.338470757 0.682353616
vn -0.821604729 -0.215567976 0.527727246
vn -0.731495917 -0.0624402501 0.678980827
vn -0.577219367 0.178775683 0.796779215
vn -0.341768473 0.495577842 0.798496604
vn 0.170764148 0.285083205 0.94316864
vn -0.950404823 -0.250784069 0.183950782
vn 0.460814118 0.647009313 0.607477844
vn 0.709490895 0.704687834 -0.00615701173
vn 0.565823734 0.777465522 -0.27457422
vn -0.803743243 0.594913781 0.00861791149
vn -0.848808646 0.528647006 -0.00749938283
vn -0.990094125 -0.132142216 -0.047456786
vn -0.976185739 -0.205280393 -0.0701524094
vn 0.0160553455 0.672656894 -0.739780307
vn -0.00194408372 0.999616444 0.0276247859
vn -0.740053773 0.186396778 0.64620167
vn -0.41401881 0.71302098 0.56585288
vn -0.449894518 0.68106091 0.57771194
vn -0.764371097 0.0412284136 0.643457055
vn -0.848523259 0.227399498 0.477805078
vn -0.992493689 -0.109115347 -0.0552283786
vn -0.639224291 -0.678541005 0.361903846
vn -0.543457508 -0.668678999 -0.507466435
vn -0.0568033531 -0.983660698 -0.170836285
vn 0.437400162 -0.629776716 -0.641920865
vn 0.45386377 -0.665687203 -0.592341304
vn 0.751559854 0.0720630884 -0.655717075
vn 0.437400162 -0.629776716 -0.641920865
vn 0.860292912 -0.00120361522 -0.509798527
vn 0.783660471 0.602365553 -0.15176335
vn 0.633845747 0.687669098 -0.354049057
vn 0.361833364 0.900205195 0.242295891
vn 0.191773087 0.976133585 0.101913035
vn 0.0160553455 0.672656894 -0.739780307
vn 0.0852148235 0.128259078 -0.988072932
vn 0.0961741209 0.146301925 -0.984553874
vn 0.305155307 0.945345938 -0.114896521
vn -0.997704327 0.0671043918 -0.00912430696
vn -0.910669982 0.382752031 -0.155502379
vn -0.726741254 0.639039099 -0.251944542
vn -0.694571793 0.718306243 -0.0400762185
vn -0.382396579 0.593957007 0.707804918
vn -0.341768473 0.495577842 0.798496604
vn -0.740053773 0.186396778 0.64620167
vn -0.992015719 0.0507344157 0.115459189
vn -0.910669982 0.382752031 -0.155502379
vn 0.562196016 -0.826695859 0.0225745458
vn -0.726741254 0.639039099 -0.251944542
vn 0.94311893 -0.307023972 -0.127526
vn 0.565823734 0.777465522 -0.27457422
vn 0.562196016 -0.826695859 0.0225745458
vn -0.726741254 0.639039099 -0.251944542
vn 0.806339085 0.589551866 0.0473898835
vn 0.709490895 0.704687834 -0.00615701173
vn 0.243958667 0.811251938 0.531370282
vn 0.460814118 0.647009313 0.607477844
vn -0.992015719 0.0507344157 0.115459189
vn 0.631614864 0.69187212 -0.349822372
vn 0.673346877 0.693215847 -0.25701341
vn 0.0624474473 0.98146081 0.181204557
vn 0.0154840471 0.97413516 0.225434989
vn 0.731730223 -0.0297084656 -0.680946648
vn 0.793612182 0.0902182758 -0.601697981
vn 0.513534606 -0.67639941 -0.52798301
vn 0.551405787 -0.548065186 -0.62894851
vn 0.110058561 -0.992566943 0.0519403964
vn 0.551405787 -0.548065186 -0.62894851
vn 0.10626594 -0.991873264 0.0699649975
vn 0.513534606 -0.67639941 -0.52798301
vn -0.486832678 -0.749059677 0.449336886
vn -0.448292375 -0.697423279 0.559137404
vn -0.700739801 -0.00541314483 0.71339637
vn -0.71611613 -0.0274481997 0.69744122
vn -0.531629264 0.619763374 0.577290058
vn -0.561093152 0.657096684 0.503386974
vn -0.874160588 0.407289177 -0.264497429
vn -0.719950736 -0.676357627 0.155600086
vn -0.583919823 0.692544103 -0.423580199
vn 0.634846151 -0.0596164055 -0.770335138
vn -0.357855886 0.433562964 -0.827020168
vn 0.634846151 -0.0596164055 -0.770335138
vn 0.721538186 -0.178613797 -0.668939352
vn 0.0154699655 -0.375423521 -0.926724255
vn 0.0154699655 -0.375423521 -0.926724255
vn 0.721538186 -0.178613797 -0.668939352
vn -0.232492298 -0.0471512601 -0.97145468
vn 0.660854936 0.268485367 -0.700846791
vn 0.710591614 -0.528975308 -0.463944554
vn -0.0929255635 -0.909329772 -0.405566454
vn 0.634420872 -0.144313619 -0.75939703
vn -0.625582874 -0.776221216 -0.0782735795
vn -0.736415088 0.202389628 -0.645547271
vn -0.694160819 -0.679003596 -0.238945723
vn 0.634420872 -0.144313619 -0.75939703
vn 0.721538186 -0.178613797 -0.668939352
vn 0.45386377 -0.665687203 -0.592341304
vn -0.999838769 0.0159633569 0.00822415948
vn -0.731145501 0.679961562 0.0554856509
vn 0.261311591 0.964841068 -0.0282464828
vn -0.766990542 0.640849888 0.0322004892
vn -0.985674798 -0.16331172 -0.0421253331
vn -0.867671371 0.491505176 -0.0746263117
vn -0.929023862 -0.283127308 -0.238230079
vn -0.0542913228 -0.99357748 -0.0992790982
vn -0.122691736 -0.966885269 -0.223785073
vn 0.666293085 -0.74411267 0.0484764762
vn 0.740305245 -0.671451211 0.0331902243
vn 0.137275234 0.958781838 0.248782694
vn -0.174658746 0.940988064 0.289889306
vn 0.937960505 0.238405034 0.251779824
vn 0.842454672 0.238058254 0.483320147
vn -0.00210811105 0.0343729556 -0.999406874
vn -0.00196893862 0.034740109 -0.999394536
vn -0.00174060953 0.0347815305 -0.999393404
vn -0.00216245255 0.0349728577 -0.999385893
vn -0.0023059831 0.0355783179 -0.999364257
vn -0.00145899225 0.0344980918 -0.999403715
vn -0.0016145159 0.0337616354 -0.99942857
vn 0.666293085 -0.74411267 0.0484764762
vn 0.740305245 -0.671451211 0.0331902243
vn -0.090455249 -0.995083451 -0.0403319336
vn -0.913266182 -0.151733994 -0.378049791
vn -0.259300411 -0.96364063 -0.0644972622
vn -0.730989397 0.64051646 -0.235357672
vn 0.275599003 0.891997755 0.358308822
vn -0.730989397 0.64051646 -0.235357672
vn 0.920987308 -0.171383992 0.349871457
vn 0.51179862 -0.842134237 0.169917956
vn -0.139043018 -0.990172684 0.0150058083
vn -0.987964511 -0.105036512 0.113550156
vn 0.715479434 -0.698610246 -0.00573226484
vn 0.970727861 0.211759135 0.113337949
vn 0.715479434 -0.698610246 -0.00573226484
vn 0.217634559 0.965491772 0.143040791
vn -0.730930328 0.677119553 0.0851472244
f 1/1/1 2/2/2 3/3/3
f 4/4/4 2/2/2 5/5/5
f 5/5/5 6/6/6 4/4/4
f 7/7/7 8/8/8 9/9/9
f 9/9/9 8/8/8 10/10/10
f 7/7/7 11/11/11 8/8/8
f 12/12/12 13/13/13 14/14/14
f 15/15/15 16/16/16 14/14/14
f 17/17/17 18/18/18 19/19/19
f 20/20/20 15/15/15 18/18/18
f 18/18/18 15/15/15 14/14/14
f 21/21/21 22/22/22 23/23/23
f 24/24/24 25/25/25 23/23/23
f 23/23/23 25/25/25 21/21/21
f 17/17/17 25/25/25 26/26/26
f 26/26/26 25/25/25 24/24/24
f 27/27/27 17/17/17 26/26/26
f 27/27/27 18/18/18 17/17/17
f 27/27/27 28/28/28 18/18/18
f 18/18/18 28/28/28 20/20/20
f 28/28/28 22/22/22 20/20/20
f 20/20/20 22/22/22 29/29/29
f 26/26/26 24/24/24 22/22/22
f 22/22/22 24/24/24 23/23/23
f 28/28/28 27/27/27 22/22/22
f 22/22/22 27/27/27 26/26/26
f 30/30/30 11/11/11 7/7/7
f 31/31/31 30/30/30 7/7/7
f 31/31/31 7/7/7 12/12/12
f 12/12/12 7/7/7 9/9/9
f 14/14/14 16/16/16 32/32/32
f 6/6/6 5/5/5 33/33/33
f 34/34/34 35/35/35 36/36/36
f 30/30/30 37/37/37 11/11/11
f 11/11/11 37/37/37 38/38/38
f 19/19/19 18/18/18 13/13/13
f 39/39/39 40/40/40 17/17/17
f 17/17/17 40/40/40 25/25/25
f 40/40/40 39/39/39 41/41/41
f 41/41/41 39/39/39 42/42/42
f 43/43/43 37/37/37 30/30/30
f 32/32/32 43/43/43 31/31/31
f 31/31/31 14/14/14 32/32/32
f 32/32/32 35/35/35 43/43/43
f 43/43/43 30/30/30 31/31/31
f 43/43/43 35/35/35 37/37/37
f 37/37/37 35/35/35 44/44/44
f 34/34/34 44/44/44 35/35/35
f 44/44/44 3/3/3 2/2/2
f 4/4/4 44/44/44 2/2/2
f 3/3/3 45/45/45 46/46/46
f 9/9/9 10/10/10 47/47/47
f 47/47/47 10/10/10 48/48/48
f 42/42/42 39/39/39 49/49/49
f 49/49/49 39/39/39 50/50/50
f 39/39/39 19/19/19 50/50/50
f 50/50/50 19/19/19 51/51/51
f 19/19/19 13/13/13 51/51/51
f 51/51/51 13/13/13 52/52/52
f 13/13/13 12/12/12 52/52/52
f 37/37/37 4/4/4 38/38/38
f 38/38/38 4/4/4 6/6/6
f 52/52/52 12/12/12 47/47/47
f 47/47/47 12/12/12 9/9/9
f 53/53/53 35/35/35 32/32/32
f 5/5/5 1/1/1 33/33/33
f 5/5/5 2/2/2 1/1/1
f 37/37/37 44/44/44 4/4/4
f 12/12/12 14/14/14 31/31/31
f 13/13/13 18/18/18 14/14/14
f 1/1/1 3/3/3 54/54/54
f 55/55/55 56/56/56 54/54/54
f 56/56/56 55/55/55 6/6/6
f 57/57/57 10/10/10 58/58/58
f 58/58/58 10/10/10 8/8/8
f 58/58/58 8/8/8 11/11/11
f 59/59/59 60/60/60 61/61/61
f 62/62/62 63/63/63 64/64/64
f 65/65/65 66/66/66 67/67/67
f 60/60/60 68/68/68 67/67/67
f 67/67/67 68/68/68 64/64/64
f 69/69/69 70/70/70 71/71/71
f 72/72/72 70/70/70 73/73/73
f 73/73/73 70/70/70 69/69/69
f 72/72/72 73/73/73 74/74/74
f 74/74/74 73/73/73 65/65/65
f 75/75/75 74/74/74 65/65/65
f 75/75/75 65/65/65 67/67/67
f 64/64/64 76/76/76 67/67/67
f 67/67/67 76/76/76 75/75/75
f 76/76/76 64/64/64 71/71/71
f 71/71/71 63/63/63 69/69/69
f 74/74/74 71/71/71 72/72/72
f 72/72/72 71/71/71 70/70/70
f 74/74/74 75/75/75 71/71/71
f 71/71/71 75/75/75 76/76/76
f 77/77/77 58/58/58 11/11/11
f 78/78/78 58/58/58 77/77/77
f 59/59/59 57/57/57 78/78/78
f 78/78/78 57/57/57 58/58/58
f 79/79/79 80/80/80 81/81/81
f 6/6/6 33/33/33 56/56/56
f 65/65/65 82/82/82 66/66/66
f 77/77/77 11/11/11 83/83/83
f 83/83/83 11/11/11 38/38/38
f 66/66/66 61/61/61 67/67/67
f 84/84/84 85/85/85 82/82/82
f 82/82/82 85/85/85 86/86/86
f 87/87/87 77/77/77 83/83/83
f 81/81/81 78/78/78 87/87/87
f 78/78/78 81/81/81 60/60/60
f 81/81/81 87/87/87 88/88/88
f 87/87/87 78/78/78 77/77/77
f 87/87/87 83/83/83 88/88/88
f 88/88/88 83/83/83 89/89/89
f 90/90/90 91/91/91 89/89/89
f 89/89/89 91/91/91 88/88/88
f 89/89/89 54/54/54 3/3/3
f 55/55/55 54/54/54 89/89/89
f 92/92/92 3/3/3 46/46/46
f 93/93/93 48/48/48 57/57/57
f 57/57/57 48/48/48 10/10/10
f 94/94/94 95/95/95 86/86/86
f 86/86/86 95/95/95 82/82/82
f 82/82/82 95/95/95 66/66/66
f 66/66/66 95/95/95 96/96/96
f 96/96/96 97/97/97 66/66/66
f 66/66/66 97/97/97 61/61/61
f 61/61/61 97/97/97 59/59/59
f 83/83/83 38/38/38 55/55/55
f 55/55/55 38/38/38 6/6/6
f 97/97/97 93/93/93 59/59/59
f 93/93/93 57/57/57 59/59/59
f 79/79/79 81/81/81 88/88/88
f 56/56/56 33/33/33 1/1/1
f 56/56/56 1/1/1 54/54/54
f 83/83/83 55/55/55 89/89/89
f 73/73/73 84/84/84 65/65/65
f 65/65/65 84/84/84 82/82/82
f 59/59/59 78/78/78 60/60/60
f 61/61/61 60/60/60 67/67/67
f 39/39/39 17/17/17 19/19/19
f 44/44/44 98/98/98 45/45/45
f 34/34/34 98/98/98 44/44/44
f 68/68/68 62/62/62 64/64/64
f 32/32/32 16/16/16 53/53/53
f 20/20/20 99/99/99 15/15/15
f 29/29/29 99/99/99 20/20/20
f 80/80/80 68/68/68 60/60/60
f 60/60/60 81/81/81 80/80/80
f 29/29/29 22/22/22 21/21/21
f 64/64/64 63/63/63 71/71/71
f 100/100/100 101/101/101 102/102/102
f 103/103/103 104/104/104 105/105/105
f 106/106/106 107/107/107 108/108/108
f 108/108/108 107/107/107 109/109/109
f 110/110/110 106/106/106 111/111/111
f 111/111/111 106/106/106 108/108/108
f 108/108/108 109/109/109 112/112/112
f 112/112/112 109/109/109 103/103/103
f 113/113/113 111/111/111 112/112/112
f 114/114/114 115/115/115 116/116/116
f 116/116/116 115/115/115 117/117/117
f 106/106/106 118/118/118 119/119/119
f 114/114/114 120/120/120 115/115/115
f 115/115/115 120/120/120 121/121/121
f 122/122/122 109/109/109 107/107/107
f 123/123/123 124/124/124 125/125/125
f 123/123/123 126/126/126 127/127/127
f 127/127/127 126/126/126 128/128/128
f 110/110/110 111/111/111 128/128/128
f 128/128/128 111/111/111 127/127/127
f 129/129/129 123/123/123 130/130/130
f 130/130/130 123/123/123 127/127/127
f 111/111/111 131/131/131 130/130/130
f 129/129/129 130/130/130 132/132/132
f 132/132/132 130/130/130 133/133/133
f 128/128/128 134/134/134 118/118/118
f 135/135/135 136/136/136 132/132/132
f 132/132/132 136/136/136 129/129/129
f 137/137/137 126/126/126 123/123/123
f 138/138/138 139/139/139 140/140/140
f 140/140/140 139/139/139 141/141/141
f 142/142/142 143/143/143 144/144/144
f 145/145/145 146/146/146 147/147/147
f 147/147/147 146/146/146 148/148/148
f 149/149/149 150/150/150 151/151/151
f 151/151/151 150/150/150 152/152/152
f 153/153/153 154/154/154 155/155/155
f 155/155/155 154/154/154 156/156/156
f 157/157/157 158/158/158 159/159/159
f 155/155/155 156/156/156 160/160/160
f 161/161/161 162/162/162 163/163/163
f 163/163/163 162/162/162 164/164/164
f 165/165/165 166/166/166 167/167/167
f 167/167/167 166/166/166 168/168/168
f 169/169/169 170/170/170 171/171/171
f 172/172/172 173/173/173 174/174/174
f 174/174/174 173/173/173 175/175/175
f 176/176/176 177/177/177 178/178/178
f 178/178/178 177/177/177 179/179/179
f 180/180/180 181/181/181 182/182/182
f 182/182/182 181/181/181 183/183/183
f 110/110/110 118/118/118 106/106/106
f 128/128/128 118/118/118 110/110/110
f 143/143/143 142/142/142 184/184/184
f 184/184/184 142/142/142 185/185/185
f 186/186/186 187/187/187 165/165/165
f 188/188/188 101/101/101 189/189/189
f 189/189/189 101/101/101 100/100/100
f 190/190/190 149/149/149 191/191/191
f 191/191/191 149/149/149 151/151/151
f 123/123/123 125/125/125 137/137/137
f 177/177/177 176/176/176 162/162/162
f 162/162/162 176/176/176 164/164/164
f 109/109/109 102/102/102 104/104/104
f 152/152/152 150/150/150 153/153/153
f 153/153/153 150/150/150 154/154/154
f 129/129/129 124/124/124 123/123/123
f 192/192/192 161/161/161 193/193/193
f 193/193/193 161/161/161 163/163/163
f 194/194/194 158/158/158 195/195/195
f 144/144/144 145/145/145 147/147/147
f 196/196/196 197/197/197 189/189/189
f 189/189/189 197/197/197 188/188/188
f 146/146/146 190/190/190 148/148/148
f 148/148/148 190/190/190 191/191/191
f 178/178/178 179/179/179 198/198/198
f 198/198/198 179/179/179 199/199/199
f 141/141/141 200/200/200 140/140/140
f 140/140/140 200/200/200 201/201/201
f 187/187/187 186/186/186 202/202/202
f 109/109/109 104/104/104 103/103/103
f 136/136/136 124/124/124 129/129/129
f 144/144/144 143/143/143 145/145/145
f 186/186/186 165/165/165 167/167/167
f 185/185/185 203/203/203 184/184/184
f 157/157/157 159/159/159 203/203/203
f 126/126/126 134/134/134 128/128/128
f 204/204/204 205/205/205 206/206/206
f 207/207/207 208/208/208 209/209/209
f 210/210/210 211/211/211 212/212/212
f 213/213/213 214/214/214 215/215/215
f 216/216/216 217/217/217 207/207/207
f 212/212/212 213/213/213 210/210/210
f 212/212/212 218/218/218 217/217/217
f 218/218/218 219/219/219 208/208/208
f 210/210/210 213/213/213 220/220/220
f 217/217/217 213/213/213 212/212/212
f 221/221/221 222/222/222 223/223/223
f 217/217/217 214/214/214 213/213/213
f 210/210/210 220/220/220 224/224/224
f 218/218/218 208/208/208 207/207/207
f 217/217/217 218/218/218 207/207/207
f 225/225/225 226/226/226 227/227/227
f 228/228/228 229/229/229 230/230/230
f 231/231/231 232/232/232 233/233/233
f 233/233/233 232/232/232 234/234/234
f 235/235/235 236/236/236 230/230/230
f 235/235/235 230/230/230 229/229/229
f 237/237/237 226/226/226 225/225/225
f 234/234/234 236/236/236 233/233/233
f 233/233/233 236/236/236 235/235/235
f 226/226/226 238/238/238 227/227/227
f 227/227/227 238/238/238 239/239/239
f 212/212/212 211/211/211 240/240/240
f 210/210/210 224/224/224 211/211/211
f 241/241/241 242/242/242 243/243/243
f 244/244/244 242/242/242 241/241/241
f 245/245/245 244/244/244 241/241/241
f 212/212/212 219/219/219 218/218/218
f 240/240/240 219/219/219 212/212/212
f 246/246/246 219/219/219 240/240/240
f 247/247/247 223/223/223 222/222/222
f 248/248/248 91/91/91 249/249/249
f 89/89/89 92/92/92 90/90/90
f 89/89/89 3/3/3 92/92/92
f 208/208/208 219/219/219 246/246/246
f 79/79/79 91/91/91 248/248/248
f 79/79/79 88/88/88 91/91/91
f 122/122/122 102/102/102 109/109/109
f 137/137/137 125/125/125 138/138/138
f 138/138/138 125/125/125 139/139/139
f 100/100/100 102/102/102 122/122/122
f 103/103/103 114/114/114 112/112/112
f 112/112/112 114/114/114 116/116/116
f 120/120/120 114/114/114 105/105/105
f 105/105/105 114/114/114 103/103/103
f 132/132/132 133/133/133 250/250/250
f 250/250/250 133/133/133 251/251/251
f 252/252/252 135/135/135 250/250/250
f 250/250/250 135/135/135 132/132/132
f 171/171/171 192/192/192 193/193/193
f 160/160/160 253/253/253 254/254/254
f 160/160/160 156/156/156 253/253/253
f 171/171/171 170/170/170 192/192/192
f 255/255/255 111/111/111 113/113/113
f 255/255/255 131/131/131 111/111/111
f 111/111/111 130/130/130 127/127/127
f 112/112/112 111/111/111 108/108/108
f 216/216/216 214/214/214 217/217/217
f 220/220/220 213/213/213 215/215/215
f 157/157/157 203/203/203 185/185/185
f 36/36/36 35/35/35 53/53/53
f 36/36/36 53/53/53 256/256/256
f 237/237/237 225/225/225 257/257/257
f 258/258/258 259/259/259 260/260/260
f 260/260/260 259/259/259 261/261/261
f 262/262/262 263/263/263 264/264/264
f 265/265/265 266/266/266 267/267/267
f 258/258/258 268/268/268 259/259/259
f 259/259/259 268/268/268 269/269/269
f 270/270/270 271/271/271 266/266/266
f 266/266/266 271/271/271 272/272/272
f 273/273/273 274/274/274 271/271/271
f 275/275/275 276/276/276 277/277/277
f 277/277/277 276/276/276 278/278/278
f 279/279/279 280/280/280 281/281/281
f 261/261/261 282/282/282 262/262/262
f 283/283/283 284/284/284 285/285/285
f 286/286/286 287/287/287 284/284/284
f 284/284/284 287/287/287 288/288/288
f 287/287/287 289/289/289 288/288/288
f 288/288/288 289/289/289 290/290/290
f 289/289/289 291/291/291 290/290/290
f 292/292/292 293/293/293 294/294/294
f 294/294/294 293/293/293 295/295/295
f 296/296/296 297/297/297 292/292/292
f 292/292/292 297/297/297 293/293/293
f 298/298/298 299/299/299 296/296/296
f 296/296/296 299/299/299 297/297/297
f 283/283/283 285/285/285 298/298/298
f 298/298/298 285/285/285 299/299/299
f 276/276/276 275/275/275 300/300/300
f 300/300/300 275/275/275 301/301/301
f 263/263/263 265/265/265 264/264/264
f 302/302/302 303/303/303 304/304/304
f 305/305/305 306/306/306 304/304/304
f 303/303/303 305/305/305 304/304/304
f 306/306/306 307/307/307 304/304/304
f 308/308/308 274/274/274 309/309/309
f 309/309/309 274/274/274 273/273/273
f 269/269/269 310/310/310 311/311/311
f 311/311/311 312/312/312 269/269/269
f 313/313/313 312/312/312 314/314/314
f 314/314/314 312/312/312 311/311/311
f 315/315/315 286/286/286 316/316/316
f 316/316/316 286/286/286 317/317/317
f 315/315/315 318/318/318 286/286/286
f 286/286/286 318/318/318 287/287/287
f 318/318/318 319/319/319 287/287/287
f 287/287/287 319/319/319 289/289/289
f 319/319/319 320/320/320 289/289/289
f 289/289/289 320/320/320 321/321/321
f 322/322/322 323/323/323 324/324/324
f 324/324/324 323/323/323 325/325/325
f 324/324/324 325/325/325 326/326/326
f 326/326/326 325/325/325 327/327/327
f 326/326/326 327/327/327 328/328/328
f 328/328/328 327/327/327 329/329/329
f 329/329/329 316/316/316 328/328/328
f 328/328/328 316/316/316 317/317/317
f 269/269/269 312/312/312 330/330/330
f 270/270/270 265/265/265 263/263/263
f 330/330/330 282/282/282 259/259/259
f 269/269/269 330/330/330 259/259/259
f 270/270/270 266/266/266 265/265/265
f 259/259/259 282/282/282 261/261/261
f 282/282/282 263/263/263 262/262/262
f 281/281/281 277/277/277 279/279/279
f 279/279/279 277/277/277 278/278/278
f 313/313/313 314/314/314 273/273/273
f 273/273/273 314/314/314 309/309/309
f 331/331/331 332/332/332 333/333/333
f 333/333/333 332/332/332 334/334/334
f 335/335/335 331/331/331 336/336/336
f 336/336/336 331/331/331 333/333/333
f 337/337/337 335/335/335 338/338/338
f 338/338/338 335/335/335 336/336/336
f 339/339/339 340/340/340 341/341/341
f 341/341/341 340/340/340 342/342/342
f 341/341/341 342/342/342 343/343/343
f 343/343/343 342/342/342 344/344/344
f 345/345/345 343/343/343 346/346/346
f 346/346/346 343/343/343 344/344/344
f 347/347/347 345/345/345 348/348/348
f 348/348/348 345/345/345 346/346/346
f 347/347/347 348/348/348 332/332/332
f 332/332/332 348/348/348 334/334/334
f 346/346/346 349/349/349 350/350/350
f 350/350/350 351/351/351 348/348/348
f 348/348/348 351/351/351 334/334/334
f 352/352/352 353/353/353 333/333/333
f 333/333/333 353/353/353 336/336/336
f 354/354/354 355/355/355 356/356/356
f 357/357/357 358/358/358 359/359/359
f 359/359/359 358/358/358 360/360/360
f 361/361/361 342/342/342 362/362/362
f 362/362/362 342/342/342 340/340/340
f 363/363/363 362/362/362 340/340/340
f 361/361/361 362/362/362 359/359/359
f 359/359/359 362/362/362 357/357/357
f 362/362/362 363/363/363 357/357/357
f 357/357/357 363/363/363 358/358/358
f 361/361/361 359/359/359 364/364/364
f 364/364/364 359/359/359 360/360/360
f 365/365/365 349/349/349 366/366/366
f 350/350/350 348/348/348 346/346/346
f 352/352/352 351/351/351 365/365/365
f 365/365/365 351/351/351 350/350/350
f 352/352/352 333/333/333 351/351/351
f 365/365/365 350/350/350 349/349/349
f 361/361/361 364/364/364 342/342/342
f 342/342/342 364/364/364 344/344/344
f 333/333/333 334/334/334 351/351/351
f 346/346/346 344/344/344 349/349/349
f 366/366/366 349/349/349 344/344/344
f 366/366/366 360/360/360 365/365/365
f 360/360/360 366/366/366 364/364/364
f 365/365/365 355/355/355 352/352/352
f 352/352/352 355/355/355 354/354/354
f 338/338/338 336/336/336 367/367/367
f 368/368/368 367/367/367 353/353/353
f 353/353/353 367/367/367 336/336/336
f 289/289/289 321/321/321 291/291/291
f 324/324/324 292/292/292 322/322/322
f 322/322/322 292/292/292 294/294/294
f 326/326/326 296/296/296 324/324/324
f 324/324/324 296/296/296 292/292/292
f 328/328/328 298/298/298 326/326/326
f 326/326/326 298/298/298 296/296/296
f 317/317/317 283/283/283 328/328/328
f 328/328/328 283/283/283 298/298/298
f 317/317/317 286/286/286 283/283/283
f 299/299/299 285/285/285 332/332/332
f 332/332/332 285/285/285 347/347/347
f 299/299/299 332/332/332 297/297/297
f 297/297/297 332/332/332 331/331/331
f 297/297/297 331/331/331 293/293/293
f 293/293/293 331/331/331 335/335/335
f 293/293/293 335/335/335 295/295/295
f 295/295/295 335/335/335 337/337/337
f 369/369/369 339/339/339 290/290/290
f 290/290/290 339/339/339 341/341/341
f 288/288/288 290/290/290 343/343/343
f 343/343/343 290/290/290 341/341/341
f 284/284/284 288/288/288 345/345/345
f 345/345/345 288/288/288 343/343/343
f 285/285/285 284/284/284 347/347/347
f 347/347/347 284/284/284 345/345/345
f 290/290/290 291/291/291 369/369/369
f 283/283/283 286/286/286 284/284/284
f 370/370/370 280/280/280 279/279/279
f 271/271/271 274/274/274 272/272/272
f 366/366/366 344/344/344 364/364/364
f 310/310/310 371/371/371 311/311/311
f 311/311/311 371/371/371 372/372/372
f 311/311/311 372/372/372 314/314/314
f 314/314/314 372/372/372 373/373/373
f 314/314/314 373/373/373 309/309/309
f 309/309/309 373/373/373 374/374/374
f 375/375/375 308/308/308 374/374/374
f 374/374/374 308/308/308 309/309/309
f 371/371/371 301/301/301 372/372/372
f 372/372/372 301/301/301 275/275/275
f 373/373/373 372/372/372 277/277/277
f 277/277/277 372/372/372 275/275/275
f 374/374/374 373/373/373 281/281/281
f 281/281/281 373/373/373 277/277/277
f 281/281/281 280/280/280 374/374/374
f 374/374/374 280/280/280 375/375/375
f 269/269/269 268/268/268 310/310/310
f 376/376/376 377/377/377 378/378/378
f 378/378/378 377/377/377 379/379/379
f 378/378/378 379/379/379 380/380/380
f 380/380/380 379/379/379 381/381/381
f 380/380/380 381/381/381 382/382/382
f 382/382/382 381/381/381 383/383/383
f 384/384/384 385/385/385 376/376/376
f 376/376/376 385/385/385 377/377/377
f 386/386/386 387/387/387 384/384/384
f 384/384/384 387/387/387 385/385/385
f 388/388/388 389/389/389 390/390/390
f 389/389/389 391/391/391 390/390/390
f 391/391/391 392/392/392 390/390/390
f 392/392/392 393/393/393 390/390/390
f 393/393/393 394/394/394 390/390/390
f 394/394/394 388/388/388 390/390/390
f 395/395/395 396/396/396 386/386/386
f 386/386/386 396/396/396 387/387/387
f 260/260/260 397/397/397 258/258/258
f 258/258/258 397/397/397 398/398/398
f 399/399/399 400/400/400 401/401/401
f 402/402/402 267/267/267 266/266/266
f 398/398/398 403/403/403 258/258/258
f 258/258/258 403/403/403 268/268/268
f 404/404/404 266/266/266 405/405/405
f 405/405/405 266/266/266 272/272/272
f 406/406/406 405/405/405 274/274/274
f 407/407/407 408/408/408 409/409/409
f 409/409/409 408/408/408 410/410/410
f 411/411/411 412/412/412 280/280/280
f 397/397/397 399/399/399 413/413/413
f 414/414/414 415/415/415 416/416/416
f 417/417/417 416/416/416 418/418/418
f 418/418/418 416/416/416 419/419/419
f 418/418/418 419/419/419 420/420/420
f 420/420/420 419/419/419 421/421/421
f 420/420/420 421/421/421 422/422/422
f 423/423/423 424/424/424 425/425/425
f 425/425/425 424/424/424 426/426/426
f 426/426/426 424/424/424 427/427/427
f 427/427/427 424/424/424 428/428/428
f 427/427/427 428/428/428 429/429/429
f 429/429/429 428/428/428 430/430/430
f 429/429/429 430/430/430 414/414/414
f 414/414/414 430/430/430 415/415/415
f 300/300/300 301/301/301 410/410/410
f 410/410/410 301/301/301 409/409/409
f 401/401/401 400/400/400 402/402/402
f 302/302/302 304/304/304 431/431/431
f 432/432/432 304/304/304 433/433/433
f 431/431/431 304/304/304 432/432/432
f 433/433/433 304/304/304 307/307/307
f 406/406/406 274/274/274 434/434/434
f 434/434/434 274/274/274 308/308/308
f 403/403/403 435/435/435 310/310/310
f 435/435/435 403/403/403 436/436/436
f 437/437/437 438/438/438 436/436/436
f 436/436/436 438/438/438 435/435/435
f 439/439/439 417/417/417 440/440/440
f 440/440/440 417/417/417 441/441/441
f 418/418/418 442/442/442 417/417/417
f 417/417/417 442/442/442 441/441/441
f 420/420/420 443/443/443 418/418/418
f 418/418/418 443/443/443 442/442/442
f 444/444/444 445/445/445 420/420/420
f 420/420/420 445/445/445 443/443/443
f 446/446/446 447/447/447 448/448/448
f 448/448/448 447/447/447 449/449/449
f 446/446/446 450/450/450 447/447/447
f 447/447/447 450/450/450 451/451/451
f 450/450/450 452/452/452 451/451/451
f 451/451/451 452/452/452 453/453/453
f 439/439/439 440/440/440 452/452/452
f 452/452/452 440/440/440 453/453/453
f 403/403/403 454/454/454 436/436/436
f 404/404/404 401/401/401 402/402/402
f 454/454/454 398/398/398 413/413/413
f 403/403/403 398/398/398 454/454/454
f 404/404/404 402/402/402 266/266/266
f 398/398/398 397/397/397 413/413/413
f 413/413/413 399/399/399 401/401/401
f 412/412/412 411/411/411 407/407/407
f 407/407/407 411/411/411 408/408/408
f 406/406/406 434/434/434 437/437/437
f 437/437/437 434/434/434 438/438/438
f 455/455/455 456/456/456 457/457/457
f 457/457/457 456/456/456 458/458/458
f 459/459/459 460/460/460 455/455/455
f 455/455/455 460/460/460 456/456/456
f 461/461/461 462/462/462 459/459/459
f 459/459/459 462/462/462 460/460/460
f 463/463/463 464/464/464 465/465/465
f 465/465/465 464/464/464 466/466/466
f 467/467/467 463/463/463 468/468/468
f 468/468/468 463/463/463 465/465/465
f 469/469/469 470/470/470 468/468/468
f 468/468/468 470/470/470 467/467/467
f 471/471/471 472/472/472 469/469/469
f 469/469/469 472/472/472 470/470/470
f 458/458/458 472/472/472 457/457/457
f 457/457/457 472/472/472 471/471/471
f 470/470/470 473/473/473 474/474/474
f 473/473/473 472/472/472 475/475/475
f 472/472/472 458/458/458 475/475/475
f 460/460/460 476/476/476 456/456/456
f 456/456/456 476/476/476 477/477/477
f 478/478/478 479/479/479 480/480/480
f 481/481/481 482/482/482 483/483/483
f 483/483/483 482/482/482 484/484/484
f 464/464/464 463/463/463 485/485/485
f 485/485/485 463/463/463 486/486/486
f 487/487/487 464/464/464 485/485/485
f 486/486/486 483/483/483 485/485/485
f 485/485/485 483/483/483 484/484/484
f 485/485/485 484/484/484 487/487/487
f 487/487/487 484/484/484 482/482/482
f 481/481/481 483/483/483 488/488/488
f 488/488/488 483/483/483 486/486/486
f 489/489/489 490/490/490 474/474/474
f 473/473/473 470/470/470 472/472/472
f 477/477/477 489/489/489 475/475/475
f 475/475/475 489/489/489 473/473/473
f 477/477/477 475/475/475 456/456/456
f 489/489/489 474/474/474 473/473/473
f 467/467/467 488/488/488 463/463/463
f 463/463/463 488/488/488 486/486/486
f 456/456/456 475/475/475 458/458/458
f 470/470/470 474/474/474 467/467/467
f 490/490/490 467/467/467 474/474/474
f 490/490/490 489/489/489 481/481/481
f 481/481/481 488/488/488 490/490/490
f 478/478/478 480/480/480 477/477/477
f 477/477/477 480/480/480 489/489/489
f 462/462/462 491/491/491 460/460/460
f 492/492/492 476/476/476 491/491/491
f 476/476/476 460/460/460 491/491/491
f 420/420/420 422/422/422 444/444/444
f 425/425/425 426/426/426 448/448/448
f 448/448/448 426/426/426 446/446/446
f 446/446/446 426/426/426 450/450/450
f 450/450/450 426/426/426 427/427/427
f 427/427/427 429/429/429 450/450/450
f 450/450/450 429/429/429 452/452/452
f 429/429/429 414/414/414 452/452/452
f 452/452/452 414/414/414 439/439/439
f 439/439/439 414/414/414 417/417/417
f 430/430/430 457/457/457 415/415/415
f 415/415/415 457/457/457 471/471/471
f 428/428/428 455/455/455 430/430/430
f 430/430/430 455/455/455 457/457/457
f 459/459/459 455/455/455 424/424/424
f 424/424/424 455/455/455 428/428/428
f 461/461/461 459/459/459 423/423/423
f 423/423/423 459/459/459 424/424/424
f 465/465/465 466/466/466 421/421/421
f 421/421/421 466/466/466 493/493/493
f 468/468/468 465/465/465 419/419/419
f 419/419/419 465/465/465 421/421/421
f 416/416/416 469/469/469 419/419/419
f 419/419/419 469/469/469 468/468/468
f 415/415/415 471/471/471 416/416/416
f 416/416/416 471/471/471 469/469/469
f 421/421/421 493/493/493 422/422/422
f 414/414/414 416/416/416 417/417/417
f 370/370/370 411/411/411 280/280/280
f 405/405/405 272/272/272 274/274/274
f 490/490/490 488/488/488 467/467/467
f 435/435/435 494/494/494 310/310/310
f 310/310/310 494/494/494 371/371/371
f 438/438/438 495/495/495 435/435/435
f 435/435/435 495/495/495 494/494/494
f 434/434/434 496/496/496 438/438/438
f 438/438/438 496/496/496 495/495/495
f 496/496/496 434/434/434 375/375/375
f 375/375/375 434/434/434 308/308/308
f 494/494/494 409/409/409 371/371/371
f 371/371/371 409/409/409 301/301/301
f 495/495/495 407/407/407 494/494/494
f 494/494/494 407/407/407 409/409/409
f 496/496/496 412/412/412 495/495/495
f 495/495/495 412/412/412 407/407/407
f 412/412/412 496/496/496 280/280/280
f 280/280/280 496/496/496 375/375/375
f 403/403/403 310/310/310 268/268/268
f 497/497/497 498/498/498 499/499/499
f 499/499/499 498/498/498 500/500/500
f 498/498/498 501/501/501 500/500/500
f 500/500/500 501/501/501 502/502/502
f 502/502/502 501/501/501 503/503/503
f 503/503/503 501/501/501 504/504/504
f 505/505/505 497/497/497 506/506/506
f 506/506/506 497/497/497 499/499/499
f 507/507/507 505/505/505 508/508/508
f 508/508/508 505/505/505 506/506/506
f 509/509/509 510/510/510 511/511/511
f 511/511/511 510/510/510 512/512/512
f 512/512/512 510/510/510 513/513/513
f 513/513/513 510/510/510 514/514/514
f 514/514/514 510/510/510 515/515/515
f 515/515/515 510/510/510 509/509/509
f 516/516/516 517/517/517 508/508/508
f 508/508/508 517/517/517 507/507/507
f 44/44/44 45/45/45 3/3/3
f 194/194/194 518/518/518 158/158/158
f 195/195/195 158/158/158 157/157/157
f 106/106/106 119/119/119 107/107/107
f 519/519/519 381/381/381 520/520/520
f 520/520/520 381/381/381 379/379/379
f 521/521/521 383/383/383 519/519/519
f 519/519/519 383/383/383 381/381/381
f 387/387/387 396/396/396 522/522/522
f 522/522/522 396/396/396 523/523/523
f 387/387/387 522/522/522 385/385/385
f 385/385/385 522/522/522 524/524/524
f 385/385/385 524/524/524 377/377/377
f 377/377/377 524/524/524 525/525/525
f 520/520/520 379/379/379 525/525/525
f 525/525/525 379/379/379 377/377/377
f 501/501/501 498/498/498 526/526/526
f 526/526/526 498/498/498 527/527/527
f 504/504/504 501/501/501 528/528/528
f 528/528/528 501/501/501 526/526/526
f 507/507/507 517/517/517 529/529/529
f 529/529/529 517/517/517 530/530/530
f 505/505/505 507/507/507 531/531/531
f 531/531/531 507/507/507 529/529/529
f 497/497/497 505/505/505 532/532/532
f 532/532/532 505/505/505 531/531/531
f 498/498/498 497/497/497 527/527/527
f 527/527/527 497/497/497 532/532/532
