# Extracted from the Cocos Creator 3.8.3 playable build
# Geometry-only OBJ preview for Unity; rig and animation stay in the raw assets.
o Money_pile
v -1.69036686 1.69036686 0.137650609
v -1.69036686 -1.69036686 -0.137650609
v -1.69036686 -1.69036686 0.137650609
v -1.69036686 1.69036686 -0.137650609
v 1.69036686 1.69036686 0.137650609
v -1.69036686 1.69036686 -0.137650609
v -1.69036686 1.69036686 0.137650609
v 1.69036686 1.69036686 -0.137650609
v 1.69036686 -1.69036686 0.137650609
v 1.69036686 1.69036686 -0.137650609
v 1.69036686 1.69036686 0.137650609
v 1.69036686 -1.69036686 -0.137650609
v -1.69036686 -1.69036686 0.137650609
v 1.69036686 -1.69036686 -0.137650609
v 1.69036686 -1.69036686 0.137650609
v -1.69036686 -1.69036686 -0.137650609
v 1.69036686 -1.69036686 -0.137650609
v -1.69036686 -1.69036686 -0.137650609
v -1.69036686 1.69036686 -0.137650609
v 1.69036686 1.69036686 -0.137650609
v -1.69036686 1.69036686 0.137650609
v -1.69036686 -1.69036686 0.137650609
v 1.69036686 1.69036686 0.137650609
v 1.69036686 -1.69036686 0.137650609
vt 0.625 0.25
vt 0.375 0
vt 0.625 0
vt 0.375 0.25
vt 0.625 0.5
vt 0.375 0.25
vt 0.625 0.25
vt 0.375 0.5
vt 0.625 0.75
vt 0.375 0.5
vt 0.625 0.5
vt 0.375 0.75
vt 0.625 1
vt 0.375 0.75
vt 0.625 0.75
vt 0.375 1
vt 0.375 0.75
vt 0.125 0.75
vt 0.125 0.5
vt 0.375 0.5
vt 0.875 0.5
vt 0.875 0.75
vt 0.625 0.5
vt 0.625 0.75
vn -1 0 0
vn -1 0 0
vn -1 0 0
vn -1 0 0
vn 0 1 0
vn 0 1 0
vn 0 1 0
vn 0 1 0
vn 1 0 0
vn 1 0 0
vn 1 0 0
vn 1 0 0
vn 0 -1 0
vn 0 -1 0
vn 0 -1 0
vn 0 -1 0
vn 0 0 -1
vn 0 0 -1
vn 0 0 -1
vn 0 0 -1
vn 0 0 1
vn 0 0 1
vn 0 0 1
vn 0 0 1
f 1/1/1 2/2/2 3/3/3
f 2/2/2 1/1/1 4/4/4
f 5/5/5 6/6/6 7/7/7
f 6/6/6 5/5/5 8/8/8
f 9/9/9 10/10/10 11/11/11
f 10/10/10 9/9/9 12/12/12
f 13/13/13 14/14/14 15/15/15
f 14/14/14 13/13/13 16/16/16
f 17/17/17 18/18/18 19/19/19
f 17/17/17 19/19/19 20/20/20
f 21/21/21 22/22/22 23/23/23
f 23/23/23 22/22/22 24/24/24
