# Extracted from the Cocos Creator 3.8.3 playable build
# Geometry-only OBJ preview for Unity; rig and animation stay in the raw assets.
o NavLine
v -1.02298427 -0.381000012 0
v -0.00698423944 -0.381000012 0
v -0.00698423944 0.381000102 0
v -1.02298427 0.381000012 0
v -2.0389843 -0.381000012 0
v -2.0389843 0.381000012 0
v -3.05498433 -0.381000012 0
v -3.05498433 0.380999893 0
vt 0 0.333333373
vt 0 0
vt 1 0
vt 1 0.333333373
vt 0 0.666666687
vt 1 0.666666687
vt 0 1
vt 1 1
vn 0 0 1
vn 0 0 1
vn 0 0 1
vn 0 0 1
vn 0 0 1
vn 0 0 1
vn 0 0 1
vn 0 0 1
f 1/1/1 2/2/2 3/3/3
f 3/3/3 4/4/4 1/1/1
f 5/5/5 1/1/1 4/4/4
f 4/4/4 6/6/6 5/5/5
f 7/7/7 5/5/5 6/6/6
f 6/6/6 8/8/8 7/7/7
