# Extracted from the Cocos Creator 3.8.3 playable build
# Geometry-only OBJ preview for Unity; rig and animation stay in the raw assets.
o npc
v -0.114371717 0.507787526 -1.24938905
v -0.637678862 -0.170566306 -1.01769686
v -0.168514475 0.549282372 -1.25472724
v -0.716147363 -0.110428274 -1.02543366
v -0.168514475 0.549282372 -1.25472724
v -0.716147363 -0.110428274 -1.02543366
v -0.161047056 0.567457795 -1.1891861
v -0.705324948 -0.0840868354 -0.930445433
v -0.716147363 -0.110428274 -1.02543366
v -0.637678862 -0.170566306 -1.01769686
v -0.705324948 -0.0840868354 -0.930445433
v -0.626856387 -0.144224867 -0.92270869
v -0.161047056 0.567457795 -1.1891861
v -0.705324948 -0.0840868354 -0.930445433
v -0.106904298 0.525962949 -1.1838479
v -0.626856387 -0.144224867 -0.92270869
v -0.106904298 0.525962949 -1.1838479
v -0.626856387 -0.144224867 -0.92270869
v -0.114371717 0.507787526 -1.24938905
v -0.637678862 -0.170566306 -1.01769686
v -0.114371717 0.507787526 -1.24938905
v -0.168514475 0.549282372 -1.25472724
v -0.106904298 0.525962949 -1.1838479
v -0.161047056 0.567457795 -1.1891861
v -0.457403451 0.0176976621 -1.00095117
v -0.559504867 -0.109490812 -0.954047322
v -0.465292007 -0.00150276267 -1.07018852
v -0.567393422 -0.128691226 -1.02328479
v -0.544087112 0.099229753 -0.968556881
v -0.646188557 -0.0279587191 -0.921652973
v -0.486890972 0.0553947911 -0.962917507
v -0.588992357 -0.0717936754 -0.916013598
v -0.590898395 0.0947615504 -1.08257294
v -0.69299978 -0.0324269161 -1.03566909
v -0.583009839 0.113961972 -1.01333559
v -0.685111225 -0.0132264961 -0.966431618
v -0.69299978 -0.0324269161 -1.03566909
v -0.663512349 -0.070124045 -1.07370269
v -0.685111225 -0.0132264961 -0.966431618
v -0.606316149 -0.113959007 -1.06806338
v -0.567393422 -0.128691226 -1.02328479
v -0.559504867 -0.109490812 -0.954047322
v -0.588992357 -0.0717936754 -0.916013598
v -0.646188557 -0.0279587191 -0.921652973
v -0.504214704 0.0132294605 -1.11496723
v -0.606316149 -0.113959007 -1.06806338
v -0.561410904 0.0570644177 -1.12060654
v -0.663512349 -0.070124045 -1.07370269
v -0.465292007 -0.00150276267 -1.07018852
v -0.567393422 -0.128691226 -1.02328479
v -0.504214704 0.0132294605 -1.11496723
v -0.606316149 -0.113959007 -1.06806338
v -0.69299978 -0.0324269161 -1.03566909
v -0.590898395 0.0947615504 -1.08257294
v -0.663512349 -0.070124045 -1.07370269
v -0.561410904 0.0570644177 -1.12060654
v -0.646188557 -0.0279587191 -0.921652973
v -0.544087112 0.099229753 -0.968556881
v -0.685111225 -0.0132264961 -0.966431618
v -0.583009839 0.113961972 -1.01333559
v -0.559504867 -0.109490812 -0.954047322
v -0.457403451 0.0176976621 -1.00095117
v -0.588992357 -0.0717936754 -0.916013598
v -0.486890972 0.0553947911 -0.962917507
v -0.465292007 -0.00150276267 -1.07018852
v -0.504214704 0.0132294605 -1.11496723
v -0.457403451 0.0176976621 -1.00095117
v -0.561410904 0.0570644177 -1.12060654
v -0.590898395 0.0947615504 -1.08257294
v -0.583009839 0.113961972 -1.01333559
v -0.544087112 0.099229753 -0.968556881
v -0.486890972 0.0553947911 -0.962917507
v -0.526860654 -0.053753078 -0.853846252
v -0.360054851 -0.0318492651 -0.768285751
v -0.476416886 0.0433246791 -0.910956025
v -0.323910415 0.0377098024 -0.809206545
v -0.568223476 0.0626899898 -1.00132763
v -0.642466664 -0.0297952909 -0.967221439
v -0.476416886 0.0433246791 -0.910956025
v -0.526860654 -0.053753078 -0.853846252
v -0.595771253 -0.0894911736 -1.0274502
v -0.480165243 -0.113448963 -0.914075017
v -0.642466664 -0.0297952909 -0.967221439
v -0.526860654 -0.053753078 -0.853846252
v -0.290451795 -0.00506404275 -0.852362216
v -0.323910415 0.0377098024 -0.809206545
v -0.178957567 0.03572914 -0.774047196
v -0.1930262 0.0537146069 -0.755901158
v -0.526860654 -0.053753078 -0.853846252
v -0.480165243 -0.113448963 -0.914075017
v -0.360054851 -0.0318492651 -0.768285751
v -0.32659626 -0.0746231079 -0.811441422
v -0.429721475 -0.0163712017 -0.97118485
v -0.476416886 0.0433246791 -0.910956025
v -0.290451795 -0.00506404275 -0.852362216
v -0.323910415 0.0377098024 -0.809206545
v -0.480165243 -0.113448963 -0.914075017
v -0.429721475 -0.0163712017 -0.97118485
v -0.32659626 -0.0746231079 -0.811441422
v -0.290451795 -0.00506404275 -0.852362216
v -0.1930262 0.0537146069 -0.755901158
v -0.208224162 0.0244665537 -0.738694906
v -0.178957567 0.03572914 -0.774047196
v -0.194155529 0.00648108823 -0.756840944
v -0.32659626 -0.0746231079 -0.811441422
v -0.290451795 -0.00506404275 -0.852362216
v -0.194155529 0.00648108823 -0.756840944
v -0.178957567 0.03572914 -0.774047196
v -0.360054851 -0.0318492651 -0.768285751
v -0.208224162 0.0244665537 -0.738694906
v -0.323910415 0.0377098024 -0.809206545
v -0.1930262 0.0537146069 -0.755901158
v -0.360054851 -0.0318492651 -0.768285751
v -0.32659626 -0.0746231079 -0.811441422
v -0.208224162 0.0244665537 -0.738694906
v -0.194155529 0.00648108823 -0.756840944
v -0.480165243 -0.113448963 -0.914075017
v -0.595771253 -0.0894911736 -1.0274502
v -0.429721475 -0.0163712017 -0.97118485
v -0.521528065 0.00299411011 -1.06155646
v -0.429721475 -0.0163712017 -0.97118485
v -0.521528065 0.00299411011 -1.06155646
v -0.476416886 0.0433246791 -0.910956025
v -0.568223476 0.0626899898 -1.00132763
v -0.708857775 0.183412179 -1.25206959
v -0.775212288 0.125287607 -1.24590397
v -0.641087353 0.10565237 -1.10040128
v -0.733692765 0.0245327633 -1.0917964
v -0.641087353 0.10565237 -1.10040128
v -0.733692765 0.0245327633 -1.0917964
v -0.595771253 -0.0894911736 -1.0274502
v -0.642466664 -0.0297952909 -0.967221439
v -0.686997354 -0.0351631194 -1.15202522
v -0.733692765 0.0245327633 -1.0917964
v -0.675399244 0.140638351 -1.29522538
v -0.714830637 0.238556802 -1.39054286
v -0.708857775 0.183412179 -1.25206959
v -0.72889924 0.256542265 -1.37239683
v -0.733692765 0.0245327633 -1.0917964
v -0.775212288 0.125287607 -1.24590397
v -0.686997354 -0.0351631194 -1.15202522
v -0.741753697 0.0825137571 -1.28905952
v -0.594391942 0.0459564738 -1.16063011
v -0.675399244 0.140638351 -1.29522538
v -0.641087353 0.10565237 -1.10040128
v -0.708857775 0.183412179 -1.25206959
v -0.686997354 -0.0351631194 -1.15202522
v -0.741753697 0.0825137571 -1.28905952
v -0.594391942 0.0459564738 -1.16063011
v -0.675399244 0.140638351 -1.29522538
v -0.72889924 0.256542265 -1.37239683
v -0.714830637 0.238556802 -1.39054286
v -0.756799817 0.232102141 -1.36980414
v -0.742731154 0.214116678 -1.3879503
v -0.741753697 0.0825137571 -1.28905952
v -0.742731154 0.214116678 -1.3879503
v -0.675399244 0.140638351 -1.29522538
v -0.714830637 0.238556802 -1.39054286
v -0.72889924 0.256542265 -1.37239683
v -0.756799817 0.232102141 -1.36980414
v -0.708857775 0.183412179 -1.25206959
v -0.775212288 0.125287607 -1.24590397
v -0.775212288 0.125287607 -1.24590397
v -0.756799817 0.232102141 -1.36980414
v -0.741753697 0.0825137571 -1.28905952
v -0.742731154 0.214116678 -1.3879503
v -0.594391942 0.0459564738 -1.16063011
v -0.686997354 -0.0351631194 -1.15202522
v -0.594391942 0.0459564738 -1.16063011
v -0.641087353 0.10565237 -1.10040128
v -0.521528065 0.00299411011 -1.06155646
v -0.568223476 0.0626899898 -1.00132763
vt 0.85753566 0.923314154
vt 0.855680645 0.816227138
vt 0.865793049 0.923314154
vt 0.867648005 0.816227138
vt 0.869503021 0.923314154
vt 0.867648005 0.816227138
vt 0.87776041 0.923314154
vt 0.879615366 0.816227138
vt 0.437322855 0.585713863
vt 0.421078801 0.585713863
vt 0.437322855 0.56946981
vt 0.421078801 0.56946981
vt 0.881470382 0.923314154
vt 0.879615366 0.816227138
vt 0.889727771 0.923314154
vt 0.891582727 0.816227138
vt 0.893437743 0.923314154
vt 0.891582727 0.816227138
vt 0.901695132 0.923314154
vt 0.903550088 0.816227138
vt 0.903550088 0.928462803
vt 0.903550088 0.920205414
vt 0.911807477 0.928462803
vt 0.911807477 0.920205414
vt 0.564810991 0.329651117
vt 0.564810991 0.324534178
vt 0.566990495 0.329651117
vt 0.566990495 0.324534118
vt 0.559404671 0.339188576
vt 0.559404671 0.334071577
vt 0.561584175 0.339188576
vt 0.561584175 0.334071577
vt 0.564810991 0.334768176
vt 0.564810991 0.329651117
vt 0.566990495 0.334768176
vt 0.566990495 0.329651117
vt 0.562373936 0.340237141
vt 0.561070561 0.341540515
vt 0.562373936 0.338057637
vt 0.558891058 0.341540515
vt 0.557587683 0.340237141
vt 0.557587683 0.338057637
vt 0.558891058 0.336754203
vt 0.561070561 0.336754203
vt 0.566457033 0.336313844
vt 0.566457033 0.331196904
vt 0.568636537 0.336313844
vt 0.568636537 0.331196904
vt 0.565153658 0.336325169
vt 0.565153658 0.331208169
vt 0.566457033 0.336313844
vt 0.566457033 0.331196904
vt 0.569939911 0.331208169
vt 0.569939911 0.336325169
vt 0.568636537 0.331196904
vt 0.568636537 0.336313844
vt 0.559404671 0.334071577
vt 0.559404671 0.339188576
vt 0.558101296 0.334082842
vt 0.558101296 0.339199841
vt 0.562887549 0.334082842
vt 0.562887549 0.339199841
vt 0.561584175 0.334071577
vt 0.561584175 0.339188576
vt 0.563677371 0.341540515
vt 0.562373936 0.340237141
vt 0.565856874 0.341540515
vt 0.562373936 0.338057637
vt 0.563677371 0.336754203
vt 0.565856874 0.336754203
vt 0.567160249 0.338057637
vt 0.567160249 0.340237141
vt 0.238446221 0.268960178
vt 0.227551937 0.301390707
vt 0.211946934 0.272044003
vt 0.208564401 0.303600371
vt 0.208945334 0.251899242
vt 0.234778285 0.243624806
vt 0.211946934 0.272044003
vt 0.238446221 0.268960178
vt 0.386013478 0.315704107
vt 0.386013478 0.351408362
vt 0.364733458 0.315704107
vt 0.364733458 0.351408362
vt 0.404277325 0.247060061
vt 0.389029562 0.247060061
vt 0.39985916 0.221006632
vt 0.393447816 0.221006632
vt 0.364733458 0.351408362
vt 0.386013478 0.351408362
vt 0.367749631 0.387370408
vt 0.382997364 0.387370408
vt 0.407293439 0.285085201
vt 0.386013478 0.285085201
vt 0.404277325 0.247060061
vt 0.389029562 0.247060061
vt 0.199352652 0.333505332
vt 0.223490477 0.34486711
vt 0.199352652 0.367716789
vt 0.216648102 0.37585783
vt 0.199352622 0.329175949
vt 0.207336485 0.328246832
vt 0.200698137 0.333505332
vt 0.208681971 0.332576215
vt 0.199352652 0.367716789
vt 0.216648102 0.37585783
vt 0.209963694 0.399612248
vt 0.217236042 0.403035402
vt 0.227551937 0.301390707
vt 0.207336485 0.328246832
vt 0.208564401 0.303600371
vt 0.199352622 0.329175949
vt 0.367749631 0.387370408
vt 0.382997364 0.387370408
vt 0.372167826 0.410401642
vt 0.37857917 0.410401642
vt 0.261720926 0.221006632
vt 0.273871869 0.243624806
vt 0.238446221 0.233865619
vt 0.248038933 0.251899242
vt 0.407293439 0.285085201
vt 0.407293439 0.313511372
vt 0.386013478 0.285085201
vt 0.386013478 0.313511372
vt 0.405214161 0.303562045
vt 0.388983011 0.295922041
vt 0.411635458 0.274478436
vt 0.388983011 0.26381588
vt 0.199352622 0.233865619
vt 0.222627342 0.221006632
vt 0.386013478 0.315704107
vt 0.364733458 0.315704107
vt 0.386013478 0.279999912
vt 0.364733458 0.279999852
vt 0.404277325 0.379962623
vt 0.39985913 0.406016111
vt 0.389029562 0.379962623
vt 0.393447787 0.406016111
vt 0.364733458 0.279999852
vt 0.367749631 0.244037867
vt 0.386013478 0.279999912
vt 0.382997364 0.244037867
vt 0.407293439 0.341937482
vt 0.404277325 0.379962623
vt 0.386013478 0.341937482
vt 0.389029562 0.379962623
vt 0.277539849 0.268960178
vt 0.266645521 0.301390648
vt 0.251040518 0.272044063
vt 0.247658014 0.303600371
vt 0.239791721 0.333505273
vt 0.238446221 0.329175949
vt 0.247775555 0.332576215
vt 0.246430069 0.328246772
vt 0.266645521 0.301390648
vt 0.246430069 0.328246772
vt 0.247658014 0.303600371
vt 0.238446221 0.329175949
vt 0.405765921 0.32906723
vt 0.3989411 0.325854778
vt 0.405214161 0.303562045
vt 0.388983011 0.295922041
vt 0.367749631 0.244037867
vt 0.372167826 0.221006632
vt 0.382997364 0.244037867
vt 0.37857917 0.221006632
vt 0.251040518 0.272044063
vt 0.277539849 0.268960178
vt 0.424723983 0.274638772
vt 0.404753536 0.274638772
vt 0.424723983 0.247961879
vt 0.404753536 0.247961879
vn -0.0986979082 -0.252610058 -0.962521136
vn -0.0986979082 -0.252610058 -0.962521076
vn -0.0986979008 -0.252610058 -0.962521076
vn -0.0986979157 -0.252610087 -0.962521136
vn -0.78075099 0.619332731 -0.082794413
vn -0.78075099 0.61933279 -0.0827944204
vn -0.78075093 0.619332731 -0.0827944204
vn -0.78075099 0.61933279 -0.0827944279
vn -0.601621807 -0.749444664 0.276376486
vn -0.601621747 -0.749444723 0.276376516
vn -0.601621747 -0.749444664 0.276376486
vn -0.601621747 -0.749444723 0.276376516
vn 0.119541079 0.278573245 0.952946424
vn 0.119541071 0.278573215 0.952946365
vn 0.119541086 0.278573245 0.952946484
vn 0.119541064 0.278573215 0.952946365
vn 0.801592588 -0.593370318 0.0732196569
vn 0.801592529 -0.593370199 0.0732196346
vn 0.801592588 -0.593370318 0.0732196569
vn 0.801592469 -0.593370318 0.073219642
vn 0.601621211 0.749445081 -0.276376784
vn 0.601621211 0.749445021 -0.276376724
vn 0.601621151 0.749444962 -0.276376724
vn 0.601621211 0.749445021 -0.276376754
vn 0.791290522 -0.606442273 0.0780185163
vn 0.791290641 -0.606442392 0.0780185312
vn 0.791290581 -0.606442332 0.0780185163
vn 0.791290522 -0.606442273 0.0780185163
vn 0.109135628 0.265631706 0.957877457
vn 0.10913565 0.265631706 0.957877517
vn 0.109135628 0.265631706 0.957877457
vn 0.109135628 0.265631706 0.957877457
vn -0.791290998 0.606441796 -0.07801871
vn -0.791290998 0.606441796 -0.07801871
vn -0.791290939 0.606441796 -0.07801871
vn -0.791291058 0.606441796 -0.07801871
vn -0.601621568 -0.749444842 0.276376367
vn -0.601621568 -0.749444842 0.276376396
vn -0.601621509 -0.749444842 0.276376396
vn -0.601621509 -0.749444842 0.276376396
vn -0.601621568 -0.749444842 0.276376426
vn -0.601621568 -0.749444783 0.276376367
vn -0.601621568 -0.749444783 0.276376367
vn -0.601621628 -0.749444902 0.276376456
vn -0.109136619 -0.265631765 -0.957877398
vn -0.109136626 -0.265631795 -0.957877398
vn -0.109136626 -0.265631795 -0.957877398
vn -0.109136619 -0.265631765 -0.957877338
vn 0.482356697 -0.616649032 -0.622154355
vn 0.482356697 -0.616648972 -0.622154355
vn 0.482356697 -0.616649032 -0.622154355
vn 0.482356697 -0.616649032 -0.622154355
vn -0.636697173 0.240990102 -0.732489228
vn -0.636697173 0.240990102 -0.732489288
vn -0.636697173 0.240990087 -0.732489228
vn -0.636697233 0.240990117 -0.732489288
vn -0.482356161 0.616649628 0.622154176
vn -0.482356191 0.616649628 0.622154176
vn -0.482356191 0.616649628 0.622154176
vn -0.48235622 0.616649628 0.622154236
vn 0.636697173 -0.240989491 0.732489467
vn 0.636697114 -0.240989506 0.732489467
vn 0.636697114 -0.240989506 0.732489467
vn 0.636697173 -0.240989491 0.732489467
vn 0.601621866 0.749444723 -0.276376218
vn 0.601621866 0.749444723 -0.276376218
vn 0.601621807 0.749444664 -0.276376188
vn 0.601621807 0.749444664 -0.276376188
vn 0.601621866 0.749444723 -0.276376218
vn 0.601621866 0.749444723 -0.276376218
vn 0.601621807 0.749444723 -0.276376218
vn 0.601621807 0.749444783 -0.276376188
vn -0.422940671 0.612585962 0.667727232
vn -0.422940701 0.612586021 0.667727172
vn -0.422940671 0.612585962 0.667727172
vn -0.422940671 0.612585962 0.667727172
vn -0.48235625 0.616649508 0.622154176
vn -0.48235628 0.616649449 0.622154176
vn -0.482356489 0.616649568 0.622154057
vn -0.482356429 0.616649449 0.622153997
vn -0.51818037 -0.773511946 0.364922553
vn -0.518180311 -0.773511887 0.364922523
vn -0.518180311 -0.773511827 0.364922494
vn -0.518180311 -0.773511887 0.364922523
vn 0.162736982 0.76096046 -0.628057122
vn 0.162736997 0.76096046 -0.628057122
vn 0.162736967 0.7609604 -0.628057122
vn 0.162736997 0.760960579 -0.628057182
vn -0.207884684 -0.770534933 0.602544546
vn -0.207884684 -0.770534873 0.602544546
vn -0.207884684 -0.770534933 0.602544546
vn -0.207884699 -0.770534873 0.602544546
vn 0.362138063 0.787084162 -0.499354005
vn 0.362138122 0.787084222 -0.499354035
vn 0.362138093 0.787084222 -0.499354005
vn 0.362138093 0.787084222 -0.499354005
vn 0.539058566 -0.617245317 -0.573083103
vn 0.539058506 -0.617245317 -0.573083103
vn 0.539058506 -0.617245257 -0.573082983
vn 0.539058506 -0.617245257 -0.573083043
vn 0.774762988 -0.0310882125 0.631487012
vn 0.774762988 -0.0310882125 0.631487072
vn 0.774762988 -0.0310882125 0.631487072
vn 0.774762928 -0.0310882069 0.631487012
vn 0.591513634 -0.614476442 -0.52204442
vn 0.591513693 -0.614476442 -0.52204448
vn 0.591513634 -0.614476383 -0.52204442
vn 0.591513634 -0.614476383 -0.52204442
vn -0.362614691 0.605291426 0.708613396
vn -0.362614661 0.605291367 0.708613396
vn -0.362614721 0.605291426 0.708613396
vn -0.362614661 0.605291367 0.708613396
vn 0.102762066 -0.665504098 0.739286244
vn 0.102762058 -0.665504158 0.739286244
vn 0.102762058 -0.665504098 0.739286244
vn 0.102762051 -0.665504098 0.739286244
vn 0.482355982 -0.616649806 -0.622154057
vn 0.482356131 -0.616649687 -0.622154236
vn 0.482355982 -0.616649806 -0.622154057
vn 0.482356101 -0.616649628 -0.622154176
vn 0.520268738 0.773075223 -0.362870753
vn 0.520268679 0.773075163 -0.362870723
vn 0.520268679 0.773075163 -0.362870723
vn 0.520268738 0.773075223 -0.362870753
vn -0.514867663 0.647380412 0.561969757
vn -0.514867604 0.647380352 0.561969697
vn -0.514867663 0.647380412 0.561969697
vn -0.514867663 0.647380352 0.561969697
vn -0.482356161 0.616649449 0.622154295
vn -0.482356131 0.616649449 0.622154295
vn -0.675808489 -0.713849843 0.183578804
vn -0.675808489 -0.713849843 0.183578804
vn -0.675808489 -0.713849843 0.183578804
vn -0.675808489 -0.713849843 0.183578804
vn 0.850134373 0.500780523 0.16275841
vn 0.850134432 0.500780523 0.162758425
vn 0.850134313 0.500780523 0.16275841
vn 0.850134432 0.500780523 0.16275841
vn -0.837819159 -0.532104313 -0.12216378
vn -0.837819219 -0.532104373 -0.122163795
vn -0.837819099 -0.532104313 -0.122163773
vn -0.837819219 -0.532104433 -0.122163795
vn 0.775836229 0.630499661 -0.0234149117
vn 0.775836229 0.630499661 -0.0234149117
vn 0.775836229 0.630499721 -0.0234149136
vn 0.775836229 0.63049978 -0.0234149136
vn 0.447132736 -0.582451224 -0.678839326
vn 0.447132766 -0.582451224 -0.678839386
vn 0.447132796 -0.582451224 -0.678839386
vn 0.447132766 -0.582451224 -0.678839386
vn -0.451954007 0.433218926 -0.779781401
vn -0.451954007 0.433218956 -0.779781401
vn -0.451953977 0.433218896 -0.779781401
vn -0.451954007 0.433218926 -0.779781342
vn 0.410300821 -0.545888424 -0.730519712
vn 0.410300791 -0.545888424 -0.730519652
vn 0.410300791 -0.545888424 -0.730519652
vn 0.410300851 -0.545888484 -0.730519772
vn -0.543827176 0.673880994 0.500136435
vn -0.543827116 0.673880935 0.500136435
vn -0.543827176 0.673880935 0.500136375
vn -0.543827176 0.673880994 0.500136435
vn -0.874348104 -0.295669347 -0.384831071
vn -0.874348164 -0.295669347 -0.384831101
vn -0.874348104 -0.295669347 -0.384831101
vn -0.874348104 -0.295669347 -0.384831071
vn 0.482356191 -0.616649449 -0.622154355
vn 0.482356191 -0.616649449 -0.622154295
vn 0.674156427 0.714828789 -0.18583025
vn 0.674156427 0.714828789 -0.185830235
vn 0.674156427 0.714828789 -0.18583025
vn 0.674156427 0.714828789 -0.18583025
f 1/1/1 2/2/2 3/3/3
f 3/3/3 2/2/2 4/4/4
f 5/5/5 6/6/6 7/7/7
f 7/7/7 6/6/6 8/8/8
f 9/9/9 10/10/10 11/11/11
f 11/11/11 10/10/10 12/12/12
f 13/13/13 14/14/14 15/15/15
f 15/15/15 14/14/14 16/16/16
f 17/17/17 18/18/18 19/19/19
f 19/19/19 18/18/18 20/20/20
f 21/21/21 22/22/22 23/23/23
f 23/23/23 22/22/22 24/24/24
f 25/25/25 26/26/26 27/27/27
f 27/27/27 26/26/26 28/28/28
f 29/29/29 30/30/30 31/31/31
f 31/31/31 30/30/30 32/32/32
f 33/33/33 34/34/34 35/35/35
f 35/35/35 34/34/34 36/36/36
f 37/37/37 38/38/38 39/39/39
f 38/38/38 40/40/40 39/39/39
f 40/40/40 41/41/41 39/39/39
f 41/41/41 42/42/42 39/39/39
f 42/42/42 43/43/43 39/39/39
f 43/43/43 44/44/44 39/39/39
f 45/45/45 46/46/46 47/47/47
f 47/47/47 46/46/46 48/48/48
f 49/49/49 50/50/50 51/51/51
f 51/51/51 50/50/50 52/52/52
f 53/53/53 54/54/54 55/55/55
f 55/55/55 54/54/54 56/56/56
f 57/57/57 58/58/58 59/59/59
f 59/59/59 58/58/58 60/60/60
f 61/61/61 62/62/62 63/63/63
f 63/63/63 62/62/62 64/64/64
f 65/65/65 66/66/66 67/67/67
f 66/66/66 68/68/68 67/67/67
f 68/68/68 69/69/69 67/67/67
f 69/69/69 70/70/70 67/67/67
f 70/70/70 71/71/71 67/67/67
f 71/71/71 72/72/72 67/67/67
f 73/73/73 74/74/74 75/75/75
f 75/75/75 74/74/74 76/76/76
f 77/77/77 78/78/78 79/79/79
f 79/79/79 78/78/78 80/80/80
f 81/81/81 82/82/82 83/83/83
f 83/83/83 82/82/82 84/84/84
f 85/85/85 86/86/86 87/87/87
f 87/87/87 86/86/86 88/88/88
f 89/89/89 90/90/90 91/91/91
f 91/91/91 90/90/90 92/92/92
f 93/93/93 94/94/94 95/95/95
f 95/95/95 94/94/94 96/96/96
f 97/97/97 98/98/98 99/99/99
f 99/99/99 98/98/98 100/100/100
f 101/101/101 102/102/102 103/103/103
f 103/103/103 102/102/102 104/104/104
f 105/105/105 106/106/106 107/107/107
f 107/107/107 106/106/106 108/108/108
f 109/109/109 110/110/110 111/111/111
f 111/111/111 110/110/110 112/112/112
f 113/113/113 114/114/114 115/115/115
f 115/115/115 114/114/114 116/116/116
f 117/117/117 118/118/118 119/119/119
f 119/119/119 118/118/118 120/120/120
f 121/121/121 122/122/122 123/123/123
f 123/123/123 122/122/122 124/124/124
f 125/125/125 126/126/126 127/127/127
f 127/127/127 126/126/126 128/128/128
f 77/77/77 129/129/129 78/78/78
f 78/78/78 129/129/129 130/130/130
f 131/131/131 132/132/132 133/133/133
f 133/133/133 132/132/132 134/134/134
f 135/135/135 136/136/136 137/137/137
f 137/137/137 136/136/136 138/138/138
f 139/139/139 140/140/140 141/141/141
f 141/141/141 140/140/140 142/142/142
f 143/143/143 144/144/144 145/145/145
f 145/145/145 144/144/144 146/146/146
f 147/147/147 148/148/148 149/149/149
f 149/149/149 148/148/148 150/150/150
f 151/151/151 152/152/152 153/153/153
f 153/153/153 152/152/152 154/154/154
f 155/155/155 156/156/156 157/157/157
f 157/157/157 156/156/156 158/158/158
f 159/159/159 160/160/160 161/161/161
f 161/161/161 160/160/160 162/162/162
f 163/163/163 164/164/164 165/165/165
f 165/165/165 164/164/164 166/166/166
f 120/120/120 118/118/118 167/167/167
f 167/167/167 118/118/118 168/168/168
f 169/169/169 170/170/170 171/171/171
f 171/171/171 170/170/170 172/172/172
