# Extracted from the Cocos Creator 3.8.3 playable build
# Geometry-only OBJ preview for Unity; rig and animation stay in the raw assets.
o npc
v -0.85695821 -1.58826315 0.881651163
v -0.814449549 -1.55763018 0.879630208
v -0.850775719 -1.54651916 0.90913862
v -0.803857148 -1.58232546 0.809737682
v -0.824288309 -1.61673641 0.829235792
v -0.853618443 -1.57855773 0.8016541
v -0.738263905 -1.58426523 0.665077031
v -0.851356268 -1.58435929 0.656084895
v -0.752694309 -1.5526998 0.641692638
v -0.848457634 -1.55036652 0.638356566
v -0.854597747 -1.59767711 0.704942822
v -0.68905592 -1.52200234 0.655599833
v -0.637379766 -1.43531752 0.680158615
v -0.609356701 -1.46118879 0.705470741
v -0.602411151 -1.43016171 0.730387509
v -0.618825138 -1.47971678 0.747015059
v -0.593595326 -1.32163811 0.79184109
v -0.594673097 -1.36856461 0.744780421
v -0.611358225 -1.32838881 0.718684673
v -0.594484627 -1.39475226 0.758823454
v -0.590570211 -1.37014663 0.863420904
v -0.525789142 -1.35323024 0.821729541
v -0.549660861 -1.35330689 0.854872704
v -0.547326982 -1.33643007 0.856767476
v -0.593980789 -1.32471752 0.859809101
v -0.527419448 -1.33438337 0.817420244
v -0.545908093 -1.35233963 0.76177007
v -0.542299747 -1.37260771 0.76524204
v -0.592697263 -1.38181627 0.811696887
v -0.738297701 -1.59057629 0.701362491
v -0.65470314 -1.53594279 0.684224248
v -0.629043937 -1.51271057 0.73474288
v -0.861570776 -1.62385845 0.828273773
v -0.671644986 -1.49298072 0.992472351
v -0.678860068 -1.53039563 0.867832243
v -0.648446858 -1.45382106 0.991928816
v -0.737841725 -1.58297729 0.762253642
v -0.854363143 -1.58819854 0.764282465
v -0.62255311 -1.2306118 0.758615553
v -0.617646754 -1.21208048 0.822199762
v -0.782966495 -1.14637995 0.80748862
v -0.784709811 -1.16921389 0.745572865
v -0.678510368 -1.56136775 0.751682341
v -0.739827156 -1.55497026 0.877863884
v -0.810979128 -1.51185 0.986301959
v -0.844739377 -1.49252558 1.03371322
v -0.795638323 -1.53146982 0.620736361
v -0.895838857 -1.50085032 0.617696166
v -0.767380893 -1.24888754 0.657638848
v -0.637101352 -1.37338471 0.661055028
v -0.636147082 -1.40971398 0.656749845
v -0.697954237 -1.48696291 0.646838725
v -0.613781214 -1.44409573 0.840047717
v -0.887450218 -1.5457598 0.878022611
v -0.902310252 -1.56631649 0.807569623
v -0.894684076 -1.60528958 0.827685595
v -0.952316284 -1.51391017 0.64009124
v -0.958874106 -1.54839289 0.660219014
v -1.00630629 -1.43343711 0.650891244
v -1.0437777 -1.39054978 0.695904374
v -1.00413752 -1.3496356 0.673025787
v -1.03923547 -1.32986677 0.76059401
v -1.03898323 -1.30924785 0.801869333
v -1.03911865 -1.32245255 0.749032259
v -1.0182234 -1.25259149 0.782490432
v -0.997083008 -1.2611655 0.710627854
v -1.03004456 -1.29777098 0.735193133
v -1.0416019 -1.35874689 0.720716476
v -1.03952157 -1.29714489 0.853534579
v -1.07258606 -1.26827645 0.843357444
v -1.09376037 -1.26087534 0.8092224
v -1.0695343 -1.25151646 0.845268011
v -1.0217483 -1.25516045 0.850389242
v -1.08606231 -1.24354517 0.805118442
v -1.07184291 -1.26682007 0.750188529
v -1.08182955 -1.28487742 0.753361166
v -0.962396801 -1.55413663 0.696427643
v -1.02357137 -1.475963 0.676101446
v -1.0399437 -1.37479961 0.830663204
v -1.04245508 -1.41083252 0.737686396
v -1.04269433 -1.44544888 0.725633919
v -0.960532665 -1.17565477 0.7511729
v -0.963033855 -1.54635978 0.757294774
v -0.962040007 -1.15608037 0.814615965
v -0.782966495 -1.14637995 0.80748862
v -0.784709811 -1.16921389 0.745572865
v -1.01195717 -1.50714767 0.744339585
v -1.00679886 -1.47707117 0.860610783
v -0.957241416 -1.51961756 0.87307632
v -0.951904714 -1.49515808 0.940834463
v -1.00685 -1.45633149 0.928020656
v -0.883285582 -1.49926627 0.987673163
v -0.969573975 -1.41999996 0.619878471
v -0.767380893 -1.24888754 0.657638848
v -0.910796165 -1.22413445 0.658461809
v -0.947431564 -1.25707388 0.658397675
v -0.967343569 -1.31405926 0.648274601
v -0.740419805 -1.51483727 0.982186973
v -0.597217679 -1.40174103 0.770327687
v -0.596641958 -1.44055951 0.842520416
v -0.570160806 -1.39268982 0.818721473
v -0.569122434 -1.37727404 0.873579323
v -0.571390569 -1.19616699 0.954342306
v -0.568872511 -1.31866646 0.869558334
v -0.57763797 -1.20542002 0.836237192
v -0.682217717 -1.4684968 1.11654437
v -0.666646957 -1.50063646 1.06357217
v -0.619595766 -1.29413509 1.09118462
v -0.569753766 -1.31827211 0.99138242
v -0.839690685 -1.44813859 1.1322062
v -0.808587074 -1.26007783 1.1084106
v -0.600777447 -1.18957198 1.04393506
v -0.650905907 -1.14306629 1.03912866
v -0.633374631 -1.13644981 0.938666344
v -0.777139902 -1.09101272 0.928745687
v -0.650905907 -1.14306629 1.03912866
v -0.781410635 -1.10261118 1.03704453
v -0.849027216 -1.51253045 1.0807116
v -0.739996076 -1.51432574 1.07282114
v -0.636846185 -1.15083361 0.823362231
v -0.777299702 -1.10963225 0.815933645
v -0.603565693 -1.40757644 0.983806133
v -1.04830647 -1.24045694 0.980844378
v -1.04404175 -1.24140143 0.85909462
v -1.06253743 -1.29704189 0.862713695
v -1.01734197 -1.44361174 1.05584955
v -0.99771452 -1.23265111 1.0828582
v -0.994681478 -1.41768873 1.10966372
v -1.00649822 -1.12541628 0.944760859
v -0.980406344 -1.12784243 1.03557527
v -0.917972744 -1.09963977 1.03324759
v -0.928180873 -1.0885129 0.932174504
v -0.917972744 -1.09963977 1.03324759
v -0.941800535 -1.47798097 1.06802583
v -0.924501419 -1.10405946 0.817027807
v -0.998443663 -1.13699496 0.826970637
v -1.04422379 -1.33592343 0.974102318
v -1.0551703 -1.36600065 0.832423091
v -1.06408274 -1.31237531 0.807844996
v -1.05783951 -1.38369882 0.783464253
v -1.06660938 -1.33185387 0.765084445
v -0.596641958 -1.44055951 0.842520416
v -0.613781214 -1.44409573 0.840047717
v -0.597617805 -1.45853317 0.793598771
v -0.618825138 -1.47971678 0.747015059
v -0.602411151 -1.43016171 0.730387509
v -0.59739697 -1.47748184 0.749683797
v -0.574874222 -1.43620551 0.738780439
v -0.592697263 -1.38181627 0.811696887
v -0.590570211 -1.37014663 0.863420904
v -0.570160806 -1.39268982 0.818721473
v -0.569122434 -1.37727404 0.873579323
v -0.568872511 -1.31866646 0.869558334
v -0.593980789 -1.32471752 0.859809101
v -0.57763797 -1.20542002 0.836237192
v -0.617646754 -1.21208048 0.822199762
v -0.666646957 -1.50063646 1.06357217
v -0.743009388 -1.52010977 1.06147599
v -0.681303442 -1.50483871 1.03808558
v -0.636846185 -1.15083361 0.823362231
v -1.0217483 -1.25516045 0.850389242
v -1.03952157 -1.29714489 0.853534579
v -1.04404175 -1.24140143 0.85909462
v -1.06253743 -1.29704189 0.862713695
v -1.0399437 -1.37479961 0.830663204
v -1.02821863 -1.35272098 0.963537633
v -1.0551703 -1.36600065 0.832423091
v -1.04422379 -1.33592343 0.974102318
v -0.777299702 -1.10963225 0.815933645
v -0.782966495 -1.14637995 0.80748862
v -0.924501419 -1.10405946 0.817027807
v -1.02821863 -1.35272098 0.963537633
v -1.00480568 -1.42027235 0.994575799
v -1.04422379 -1.33592343 0.974102318
v -1.01734197 -1.44361174 1.05584955
v -1.06408274 -1.31237531 0.807844996
v -1.03898323 -1.30924785 0.801869333
v -1.06660938 -1.33185387 0.765084445
v -1.03923547 -1.32986677 0.76059401
v -1.06996882 -1.35570049 0.72787863
v -1.0416019 -1.35874689 0.720716476
v -1.06216609 -1.40190792 0.739449203
v -1.04245508 -1.41083252 0.737686396
v -0.623598039 -1.41851401 0.972447932
v -0.603565693 -1.40757644 0.983806133
v -1.05783951 -1.38369882 0.783464253
v -1.04245508 -1.41083252 0.737686396
v -0.572101176 -1.41226363 0.775973558
v -0.597617805 -1.45853317 0.793598771
v -0.597217679 -1.40174103 0.770327687
v -0.572101176 -1.41226363 0.775973558
v -0.962040007 -1.15608037 0.814615965
v -0.998443663 -1.13699496 0.826970637
v -0.849027216 -1.51253045 1.0807116
v -0.739996076 -1.51432574 1.07282114
v -0.59739697 -1.47748184 0.749683797
v -0.574874222 -1.43620551 0.738780439
v -1.06996882 -1.35570049 0.72787863
v -1.0416019 -1.35874689 0.720716476
v -1.06996882 -1.35570049 0.72787863
v -1.06216609 -1.40190792 0.739449203
v -1.06216609 -1.40190792 0.739449203
v -0.648446858 -1.45382106 0.991928816
v -0.848335624 -1.51141024 1.05757892
v -0.849027216 -1.51253045 1.0807116
v -0.941800535 -1.47798097 1.06802583
v -0.848335624 -1.51141024 1.05757892
v -0.883285582 -1.49926627 0.987673163
v -0.844739377 -1.49252558 1.03371322
v -1.07713878 -1.45634294 0.991081059
v -1.10305429 -1.48236907 0.944752038
v -1.04340112 -1.54341793 1.01958799
v -1.04965138 -1.44545877 1.063604
v -1.01734197 -1.44361174 1.05584955
v -1.00480568 -1.42027235 0.994575799
v -0.941800535 -1.47798097 1.06802583
v -0.968947053 -1.51302898 1.0914247
v -0.934050024 -1.56324816 1.05532312
v -0.981867194 -1.56117702 0.987492502
v -1.06298172 -1.4168458 0.965818763
v -1.11775887 -1.38105285 0.931541264
v -1.06298172 -1.4168458 0.965818763
v -1.00685 -1.45633149 0.928020656
v -1.11775887 -1.38105285 0.931541264
v -0.743009388 -1.52010977 1.06147599
v -0.723879457 -1.55210555 1.03496778
v -0.681303442 -1.50483871 1.03808558
v -0.648446858 -1.45382106 0.991928816
v -0.659191549 -1.50994766 1.01658285
v -0.671644986 -1.49298072 0.992472351
v -0.848335624 -1.51141024 1.05757892
v -0.844739377 -1.49252558 1.03371322
v -0.799351394 -1.55675137 1.04130936
v -0.810979128 -1.51185 0.986301959
v -0.723879457 -1.55210555 1.03496778
v -0.740419805 -1.51483727 0.982186973
v -0.799351394 -1.55675137 1.04130936
v -0.659191549 -1.50994766 1.01658285
v -0.648446858 -1.45382106 0.991928816
v -1.03105235 -1.5255549 0.950344265
v -1.00685 -1.45633149 0.928020656
v -1.10305429 -1.48236907 0.944752038
v -1.11775887 -1.38105285 0.931541264
v -1.03105235 -1.5255549 0.950344265
v -0.951904714 -1.49515808 0.940834463
v -0.951904714 -1.49515808 0.940834463
v -1.00480568 -1.42027235 0.994575799
v -1.02821863 -1.35272098 0.963537633
v -1.00480568 -1.42027235 0.994575799
v -0.777139902 -1.09101272 0.928745687
v -0.781410635 -1.10261118 1.03704453
v -0.777299702 -1.10963225 0.815933645
v -0.782966495 -1.14637995 0.80748862
v -0.777299702 -1.10963225 0.815933645
v -0.781410635 -1.10261118 1.03704453
v -0.623598039 -1.41851401 0.972447932
v -0.848335624 -1.51141024 1.05757892
v -0.978242218 -1.49316049 0.56361711
v -0.861764371 -1.5995363 0.569901526
v -0.895838857 -1.50085032 0.617696166
v -0.795638323 -1.53146982 0.620736361
v -0.697954237 -1.48696291 0.646838725
v -0.604848146 -1.57227027 0.590545118
v -0.636147082 -1.40971398 0.656749845
v -0.637101352 -1.37338471 0.661055028
v -0.685089946 -1.2832334 0.605723202
v -0.767380893 -1.24888754 0.657638848
v -1.00326836 -1.52335751 0.480907798
v -0.878473341 -1.62353098 0.464523464
v -0.561997354 -1.4928385 0.584350944
v -0.56827265 -1.47447562 0.508156717
v -0.675075054 -1.27475536 0.528104067
v -0.5951159 -1.50931656 0.422442883
v -0.705256879 -1.28769195 0.431275129
v -0.837035298 -1.63169801 0.218025893
v -0.82079488 -1.63527966 0.13026543
v -0.699901462 -1.57314098 0.230382755
v -0.680573821 -1.59353876 0.158165306
v -0.606056154 -1.47491193 0.173196599
v -0.727728188 -1.27218688 0.207638353
v -0.623757422 -1.47439981 0.235319033
v -0.679332495 -1.62950265 0.57889241
v -0.53497535 -1.62944591 0.447863936
v -0.603181243 -1.68554056 0.441514194
v -0.532380342 -1.64719355 0.412747294
v -0.617048621 -1.6674943 0.496696055
v -0.67390573 -1.66286027 0.459053576
v -0.672303677 -1.6710043 0.434284568
v -0.710792899 -1.63654268 0.409832984
v -0.711454093 -1.62419677 0.381882846
v -0.688296735 -1.55192804 0.364190966
v -0.634608805 -1.49835169 0.346735418
v -0.637527823 -1.52118957 0.307109803
v -0.688296735 -1.55192804 0.364190966
v -0.689703584 -1.56846297 0.338743657
v -0.558681667 -1.51524913 0.366954803
v -0.560304463 -1.54231334 0.32387051
v -0.502830267 -1.5694859 0.413492322
v -0.50207448 -1.59549177 0.365815878
v -0.968187928 -1.53790081 0.0988118723
v -0.990000308 -1.5281353 0.21600391
v -0.722891808 -1.27435517 0.171770096
v -0.606056154 -1.47491193 0.173196599
v -0.855044127 -1.39342332 0.132791281
v -0.680573821 -1.59353876 0.158165306
v -0.82079488 -1.63527966 0.13026543
v -0.968187928 -1.53790081 0.0988118723
v -0.720793962 -1.28537118 0.350276858
v -0.617439926 -1.46839821 0.341370851
v -1.00359833 -1.52883494 0.366110146
v -0.835617185 -1.62952542 0.352649063
v -0.760488868 -1.62880599 0.471873641
v -0.689406931 -1.56807184 0.430501431
v -0.691721082 -1.56361449 0.342408121
v -0.679332495 -1.62950265 0.57889241
v -0.604848146 -1.57227027 0.590545118
v -0.544936776 -1.61748183 0.486441761
v -0.732123196 -1.64890289 0.5282529
v -0.760488868 -1.62880599 0.471873641
v -0.689406931 -1.56807184 0.430501431
v -0.689309061 -1.5483911 0.385100037
v -0.689309061 -1.5483911 0.385100037
v -0.689406931 -1.56807184 0.430501431
v -0.629193604 -1.49967742 0.392163455
v -0.5951159 -1.50931656 0.422442883
v -0.560312271 -1.50357866 0.408447146
v -0.56827265 -1.47447562 0.508156717
v -0.510708392 -1.55664718 0.463958263
v -0.561997354 -1.4928385 0.584350944
v -0.732123196 -1.64890289 0.5282529
v -0.575161815 -1.60608816 0.259912789
v -0.517800987 -1.65839875 0.295811564
v -0.561539292 -1.65714169 0.190518677
v -0.517517686 -1.70934045 0.202318087
v -0.654324889 -1.58244562 0.247595116
v -0.632553935 -1.62546134 0.194179535
v -0.703114748 -1.6215589 0.287030429
v -0.711442113 -1.65550828 0.229566917
v -0.703114748 -1.6215589 0.287030429
v -0.711442113 -1.65550828 0.229566917
v -0.729013801 -1.66858912 0.329316705
v -0.763827324 -1.71817207 0.268871516
v -0.687854052 -1.71882915 0.365551203
v -0.724269569 -1.78803587 0.285913587
v -0.614898562 -1.74130976 0.375398219
v -0.637235701 -1.81884682 0.287828416
v -0.546315074 -1.71140254 0.342611074
v -0.55668211 -1.77472544 0.250473112
v -0.714336395 -1.81016898 0.252234519
v -0.620310545 -1.87058878 0.218257189
v -0.521717131 -1.73242331 0.149766043
v -0.585429549 -1.70155764 0.0771227255
v -0.628543794 -1.65347993 0.122129478
v -0.628543794 -1.65347993 0.122129478
v -0.699729621 -1.77418947 0.15058884
v -0.688187957 -1.72614348 0.177610204
v -0.722626686 -1.70567083 0.165837571
v -0.688187957 -1.72614348 0.177610204
v -0.734159231 -1.74616301 0.137729704
v -0.699729621 -1.77418947 0.15058884
v -0.780172408 -1.74834633 0.180048421
v -0.74744767 -1.69434524 0.186829239
v -0.692198336 -1.72868919 0.200318739
v -0.751243055 -1.79621291 0.206530094
v -0.708553851 -1.83386827 0.148265406
v -0.715265155 -1.78260767 0.206476301
v -0.692198336 -1.72868919 0.200318739
v -0.688187957 -1.72614348 0.177610204
v -0.689703584 -1.56846297 0.338743657
v -0.722891808 -1.27435517 0.171770096
v -1.00012863 -1.52931571 0.285249889
v -0.82706517 -1.62249517 0.273604542
v -0.690505683 -1.55552757 0.270848393
v -0.620298207 -1.45599163 0.273648113
v -0.730783165 -1.27838218 0.286012888
v -0.642849803 -1.56601274 0.0186011903
v -0.666693926 -1.57422221 0.112183444
v -0.741687834 -1.64057219 0.0187158529
v -0.764565289 -1.62359047 0.094844386
v -0.82553786 -1.59323311 0.0170540716
v -0.834227681 -1.56625581 0.0873856246
v -0.814451098 -1.47026014 0.015129772
v -0.808181584 -1.45461524 0.0971569195
v -0.617512941 -1.44609892 0.0168568194
v -0.620767474 -1.47386241 0.124348365
v -0.716969073 -1.38692319 0.0149852047
v -0.710041046 -1.39647293 0.115058802
v -0.642849803 -1.56601274 0.0186011903
v -0.741687834 -1.64057219 0.0187158529
v -0.726615191 -1.51927149 0.0169559848
v -0.82553786 -1.59323311 0.0170540716
v -0.814451098 -1.47026014 0.015129772
v -0.716969073 -1.38692319 0.0149852047
v -0.617512941 -1.44609892 0.0168568194
v -0.814451098 -1.47026014 0.015129772
v -0.808181584 -1.45461524 0.0971569195
v -0.969573975 -1.41999996 0.619878471
v -1.04362941 -1.36075222 0.567948937
v -0.967343569 -1.31405926 0.648274601
v -0.947431564 -1.25707388 0.658397675
v -0.956390798 -1.13385606 0.622624934
v -0.910796165 -1.22413445 0.658461809
v -1.0733906 -1.3818568 0.471333772
v -0.861714602 -1.11222398 0.613170862
v -0.838745534 -1.1045146 0.52021426
v -0.891793728 -1.13043916 0.440123409
v -1.02103961 -1.23023593 0.225187048
v -1.02775085 -1.23568821 0.137201935
v -1.07942855 -1.36841547 0.228654996
v -1.06835938 -1.37282526 0.113516487
v -0.922108829 -1.15275204 0.156477034
v -0.926863551 -1.15953171 0.237353548
v -1.02067351 -1.19751155 0.603194892
v -1.00819361 -1.03351831 0.508982778
v -1.02523029 -1.02341664 0.484791219
v -1.06642747 -1.08655906 0.474916607
v -1.05130756 -1.11147416 0.516752362
v -1.04402924 -1.1643101 0.466296554
v -1.05507815 -1.14570999 0.433509022
v -1.00378799 -1.19859767 0.413169324
v -1.00833893 -1.17583477 0.382387757
v -0.934434056 -1.16402709 0.384957045
v -0.950911522 -1.15281892 0.364669472
v -0.902966142 -1.09569037 0.353301078
v -0.934434056 -1.16402709 0.384957045
v -0.873554826 -1.11738384 0.394072652
v -0.891025066 -1.04612291 0.432350904
v -0.920091629 -1.02790689 0.394486368
v -0.945433795 -1.00026834 0.490441531
v -0.97256881 -0.983574331 0.452789992
v -0.922108829 -1.15275204 0.156477034
v -1.02775085 -1.23568821 0.137201935
v -1.06835938 -1.37282526 0.113516487
v -0.886751711 -1.15582347 0.357888252
v -1.07858264 -1.34758067 0.367586464
v -1.04934311 -1.26554966 0.465982884
v -0.979740977 -1.20578623 0.443169862
v -0.992162704 -1.21492684 0.360845059
v -0.997916996 -1.04851925 0.534119725
v -0.956390798 -1.13385606 0.622624934
v -1.02067351 -1.19751155 0.603194892
v -1.04835999 -1.22878647 0.535835922
v -1.04934311 -1.26554966 0.465982884
v -0.927788317 -1.17773128 0.402388573
v -0.979740977 -1.20578623 0.443169862
v -0.865153015 -1.13066876 0.416346699
v -0.891793728 -1.13043916 0.440123409
v -0.927788317 -1.17773128 0.402388573
v -0.979740977 -1.20578623 0.443169862
v -0.87709564 -1.06463766 0.46526289
v -0.838745534 -1.1045146 0.52021426
v -0.931966662 -1.01972985 0.525546432
v -0.861714602 -1.11222398 0.613170862
v -1.04835999 -1.22878647 0.535835922
v -0.988304019 -1.01358283 0.32844311
v -1.04669642 -0.978806794 0.264578879
v -1.03819454 -0.970494449 0.382682681
v -1.10094905 -0.943070948 0.291064203
v -0.965528905 -1.08498979 0.291926026
v -1.01575649 -1.0473851 0.244733557
v -1.00587487 -1.14379716 0.313504428
v -1.044384 -1.13467216 0.258064032
v -1.10108662 -1.19908726 0.286586314
v -1.044384 -1.13467216 0.258064032
v -1.05210435 -1.18187976 0.346929848
v -1.00587487 -1.14379716 0.313504428
v -1.17025518 -1.16938698 0.322621673
v -1.10038269 -1.15306711 0.394906312
v -1.12219095 -1.08783257 0.428777814
v -1.20196068 -1.08749032 0.34750545
v -1.09119689 -1.01241589 0.419205874
v -1.16214228 -0.997398794 0.33085537
v -1.261271 -1.05993235 0.2960127
v -1.19466496 -1.15393054 0.296109796
v -1.13476276 -0.938055336 0.240224853
v -1.05554092 -1.02893078 0.178017035
v -1.10847819 -0.978385806 0.150429472
v -1.05554092 -1.02893078 0.178017035
v -1.12003267 -1.10500014 0.223056674
v -1.1699183 -1.11333621 0.199024618
v -1.1699183 -1.11333621 0.199024618
v -1.12003267 -1.10500014 0.223056674
v -1.14250362 -1.14135087 0.175032347
v -1.09919 -1.13325822 0.200019762
v -1.08434486 -1.16097569 0.211614639
v -1.13809633 -1.19614267 0.203444228
v -1.11966336 -1.11568451 0.24443239
v -1.18358016 -1.17850924 0.241560549
v -1.22840226 -1.12429559 0.198960647
v -1.17175722 -1.14235878 0.249422714
v -1.11966336 -1.11568451 0.24443239
v -1.12003267 -1.10500014 0.223056674
v -0.950911522 -1.15281892 0.364669472
v -1.08155274 -1.35044074 0.293793112
v -1.00534534 -1.21895373 0.295816332
v -0.900827706 -1.15592575 0.295870245
v -1.00501311 -1.23059523 0.100827701
v -1.03747201 -1.33738244 0.083836183
v -1.02879071 -1.26051927 0.166371897
v -1.04782033 -1.36079264 0.154626369
v -0.96961844 -1.39961851 0.085564509
v -0.978586495 -1.41632485 0.157195464
v -0.879249454 -1.36687326 0.162577152
v -0.864088118 -1.35653055 0.104766272
v -0.913848221 -1.16898966 0.120292559
v -0.95272094 -1.19051743 0.181671068
v -0.823050618 -1.24816084 0.123154171
v -0.851166308 -1.26375449 0.175044909
v -1.00331783 -1.21501803 0.0179077387
v -0.936623871 -1.28393602 0.0153927719
v -1.05000544 -1.32961917 0.0140425134
v -0.982711792 -1.39846539 0.0115226312
v -0.86668843 -1.35620034 0.0126545653
v -0.811170101 -1.24066019 0.0166583825
v -0.893911123 -1.15977287 0.019478973
v -0.879249454 -1.36687326 0.162577152
v -0.864088118 -1.35653055 0.104766272
v -0.848335624 -1.51141024 1.05757892
v -0.866574287 -1.54640627 0.156336218
v -0.810512245 -1.61342752 0.172110006
v -0.819093227 -1.4470011 0.146599054
v -0.717763662 -1.4143635 0.162842751
v -0.819093227 -1.4470011 0.146599054
v -0.644585252 -1.51093781 0.194975957
v -0.71225816 -1.58940673 0.190275013
v -0.982711792 -1.39846539 0.0115226312
v -1.05000544 -1.32961917 0.0140425134
v -0.86668843 -1.35620034 0.0126545653
v -0.811170101 -1.24066019 0.0166583825
v -0.86668843 -1.35620034 0.0126545653
v -0.893911123 -1.15977287 0.019478973
v -1.00331783 -1.21501803 0.0179077387
vt 0.502523541 0.8551085
vt 0.534360468 0.861288726
vt 0.502523541 0.885581195
vt 0.540333509 0.803303242
vt 0.521037877 0.817202747
vt 0.502523541 0.790427566
vt 0.580600262 0.69857496
vt 0.502523541 0.69031471
vt 0.59037137 0.672504187
vt 0.502523541 0.665047586
vt 0.502523541 0.72626555
vt 0.65045023 0.680477619
vt 0.718355596 0.674242258
vt 0.702182531 0.707578599
vt 0.723136961 0.719343066
vt 0.695501685 0.748647153
vt 0.79963851 0.757465243
vt 0.762996912 0.720735013
vt 0.797183335 0.696558058
vt 0.736860693 0.732816458
vt 0.74401027 0.824700117
vt 0.752705157 0.786201954
vt 0.759342015 0.80658567
vt 0.769760191 0.802688897
vt 0.792173684 0.8137182
vt 0.762894809 0.782107294
vt 0.766484797 0.748112857
vt 0.757213771 0.752434313
vt 0.720643461 0.777894557
vt 0.580071151 0.724669576
vt 0.644078195 0.707217932
vt 0.672458589 0.740814328
vt 0.502523541 0.818695843
vt 0.647656679 0.94319731
vt 0.635362089 0.846840143
vt 0.681708455 0.945598543
vt 0.582742393 0.768447042
vt 0.502523541 0.768145084
vt 0.857946932 0.736327767
vt 0.864804208 0.785430074
vt 0.976820052 0.781005621
vt 0.976820052 0.731454551
vt 0.625004709 0.757862508
vt 0.587655425 0.856575668
vt 0.532310843 0.946894646
vt 0.502523541 0.983565152
vt 0.604926765 0.64853555
vt 0.502523541 0.64853555
vt 0.976820052 0.64853555
vt 0.843924582 0.64853555
vt 0.789741755 0.64853555
vt 0.71854037 0.64853555
vt 0.714913487 0.82815665
vt 0.470012367 0.861643553
vt 0.464316547 0.803707361
vt 0.483845711 0.817420542
vt 0.414976865 0.672540963
vt 0.424652517 0.698689818
vt 0.355068922 0.680217445
vt 0.303384006 0.706895888
vt 0.287102461 0.673999071
vt 0.277694404 0.738512158
vt 0.284918427 0.777917266
vt 0.268781364 0.732720137
vt 0.205934897 0.757507026
vt 0.208427861 0.696575701
vt 0.242615148 0.720729113
vt 0.282499075 0.71890533
vt 0.261484444 0.824766636
vt 0.246160939 0.806649506
vt 0.252836525 0.786254346
vt 0.235735163 0.802763164
vt 0.213270441 0.813850164
vt 0.242651954 0.782157421
vt 0.239111051 0.748130381
vt 0.248390093 0.752427459
vt 0.425093889 0.724848568
vt 0.361448348 0.706846058
vt 0.289213598 0.823896766
vt 0.309973598 0.747107148
vt 0.333175451 0.739910066
vt 0.147707596 0.736165524
vt 0.422174424 0.768807411
vt 0.140336439 0.786296666
vt 0.0287650637 0.779049993
vt 0.0287650637 0.731461465
vt 0.380082607 0.757719696
vt 0.367656231 0.846598446
vt 0.415303409 0.857508719
vt 0.414902985 0.910469353
vt 0.357704282 0.898987651
vt 0.471813321 0.949368834
vt 0.400489479 0.64853555
vt 0.0287650637 0.64853555
vt 0.161678657 0.64853555
vt 0.215784505 0.64853555
vt 0.286939323 0.64853555
vt 0.590936244 0.937999904
vt 0.727948725 0.738598287
vt 0.93286705 0.424402952
vt 0.938204825 0.448324084
vt 0.914227784 0.451487541
vt 0.857983887 0.524608254
vt 0.910777688 0.479665041
vt 0.907019496 0.53220588
vt 0.801088691 0.392024875
vt 0.822242796 0.375802279
vt 0.812007844 0.472274184
vt 0.860165834 0.4689852
vt 0.73256433 0.382753253
vt 0.73256433 0.45991993
vt 0.816730738 0.525963128
vt 0.786919773 0.525963128
vt 0.855684459 0.560771585
vt 0.856390297 0.625114977
vt 0.812861085 0.559834659
vt 0.807734132 0.625114977
vt 0.73256433 0.346747816
vt 0.786949813 0.364367902
vt 0.90469557 0.563046992
vt 0.906402111 0.625114977
vt 0.86319685 0.426681757
vt 0.604519546 0.470257044
vt 0.553350687 0.481320739
vt 0.55001086 0.45362556
vt 0.638707936 0.376285315
vt 0.652759552 0.471803546
vt 0.662038982 0.38934958
vt 0.607063055 0.525394738
vt 0.648257017 0.525963068
vt 0.678121328 0.525963068
vt 0.608550131 0.561454892
vt 0.652590573 0.560280323
vt 0.68462652 0.356010318
vt 0.560005367 0.563970745
vt 0.557712317 0.533272862
vt 0.600036621 0.428623438
vt 0.531047463 0.426492631
vt 0.525973022 0.45043993
vt 0.506495118 0.42646414
vt 0.506590188 0.449363232
vt 0.93286705 0.424402952
vt 0.933969319 0.417081237
vt 0.957401454 0.424538255
vt 0.983915746 0.417081237
vt 0.983915746 0.457946062
vt 0.977296591 0.42539537
vt 0.975778282 0.44829154
vt 0.941499174 0.457946062
vt 0.923390687 0.457946062
vt 0.938204825 0.448324084
vt 0.914227784 0.451487541
vt 0.910777688 0.479665041
vt 0.923390687 0.479815543
vt 0.907019496 0.53220588
vt 0.923390687 0.540449619
vt 0.822242796 0.375802279
vt 0.787662923 0.353539944
vt 0.827448249 0.366573274
vt 0.90469557 0.563046992
vt 0.541137576 0.481977582
vt 0.541137576 0.460276365
vt 0.553350687 0.481320739
vt 0.55001086 0.45362556
vt 0.529914558 0.419049978
vt 0.594453871 0.419049978
vt 0.531047463 0.426492631
vt 0.600036621 0.428623438
vt 0.558282435 0.625845075
vt 0.541137576 0.625845075
vt 0.560005367 0.563970745
vt 0.594453871 0.419049978
vt 0.609082401 0.385626912
vt 0.600036621 0.428623438
vt 0.638707936 0.376285315
vt 0.525973022 0.45043993
vt 0.522650242 0.460276365
vt 0.506590188 0.449363232
vt 0.504243433 0.460276365
vt 0.489224494 0.449442387
vt 0.480072826 0.460276365
vt 0.485444039 0.42810154
vt 0.480072826 0.419049978
vt 0.868565381 0.417081237
vt 0.86319685 0.426681757
vt 0.506495118 0.42646414
vt 0.480072826 0.419049978
vt 0.95762676 0.447152376
vt 0.957401454 0.424538255
vt 0.959801972 0.457946062
vt 0.95762676 0.447152376
vt 0.541137576 0.541461706
vt 0.557712317 0.533272862
vt 0.73256433 0.346747816
vt 0.786949813 0.364367902
vt 0.977296591 0.42539537
vt 0.975778282 0.44829154
vt 0.489224494 0.449442387
vt 0.480072826 0.460276365
vt 0.489224494 0.449442387
vt 0.485444039 0.42810154
vt 0.485444039 0.42810154
vt 0.857083261 0.395864129
vt 0.73256433 0.33710748
vt 0.73256433 0.346747816
vt 0.68462652 0.356010318
vt 0.259979963 0.610211372
vt 0.280726016 0.542021632
vt 0.280193895 0.595899284
vt 0.100510299 0.505707383
vt 0.125306517 0.47339803
vt 0.162298933 0.522212744
vt 0.108135462 0.560656786
vt 0.104794845 0.579427898
vt 0.0591245741 0.550510406
vt 0.174404055 0.620074928
vt 0.172267944 0.590671659
vt 0.214204341 0.566291571
vt 0.206103891 0.514687061
vt 0.0660946965 0.496782422
vt 0.0675923675 0.436410666
vt 0.0660946965 0.496782422
vt 0.0149884969 0.528172314
vt 0.0675923675 0.436410666
vt 0.439937592 0.597722411
vt 0.433447599 0.55866468
vt 0.483802289 0.550853431
vt 0.515419841 0.491328597
vt 0.479259253 0.525306284
vt 0.473576844 0.498983204
vt 0.347064435 0.619817019
vt 0.3291592 0.599433541
vt 0.385068357 0.579916239
vt 0.345013946 0.543453276
vt 0.433447599 0.55866468
vt 0.405512869 0.509537101
vt 0.385068357 0.579916239
vt 0.479259253 0.525306284
vt 0.515419841 0.491328597
vt 0.179455429 0.479161978
vt 0.185996413 0.42748034
vt 0.125306517 0.47339803
vt 0.0675923675 0.436410666
vt 0.179455429 0.479161978
vt 0.241842702 0.472776532
vt 0.241842702 0.472776532
vt 0.0591245741 0.550510406
vt 0.280056119 0.925164104
vt 0.33128041 0.949333012
vt 0.608643115 0.625845075
vt 0.655311167 0.625845075
vt 0.558282435 0.625845075
vt 0.923390687 0.625114977
vt 0.906402111 0.625114977
vt 0.73256433 0.525963128
vt 0.714694262 0.933442295
vt 0.347064435 0.619817019
vt 0.0201434828 0.341784775
vt 0.13192299 0.341784775
vt 0.0201434828 0.393537283
vt 0.13192299 0.393537283
vt 0.235143349 0.393537283
vt 0.278356284 0.355580091
vt 0.303265184 0.393537283
vt 0.348529518 0.393537283
vt 0.464169055 0.34629637
vt 0.464169055 0.393537283
vt 0.0201434828 0.263428688
vt 0.13192299 0.263428688
vt 0.31880182 0.34629637
vt 0.31892994 0.296315193
vt 0.464169055 0.296315193
vt 0.319526106 0.236955523
vt 0.464169055 0.236955523
vt 0.13192299 0.0846760273
vt 0.13192299 0.0190722346
vt 0.238657296 0.0846760273
vt 0.238657296 0.0189979672
vt 0.319526106 0.0198853016
vt 0.464169055 0.0846760273
vt 0.319526106 0.0846760273
vt 0.230944738 0.341784775
vt 0.678364933 0.0790643692
vt 0.728566587 0.0954278111
vt 0.677948892 0.0949242711
vt 0.729209602 0.0646334887
vt 0.770455539 0.0667130947
vt 0.771644711 0.0981377363
vt 0.8133564 0.0684249997
vt 0.815245986 0.100940943
vt 0.858156145 0.0850733519
vt 0.534908473 0.0827915668
vt 0.534247637 0.104185998
vt 0.4893381 0.0811862946
vt 0.4893381 0.103182733
vt 0.581202924 0.0823494792
vt 0.58066684 0.10294652
vt 0.633733153 0.0806574821
vt 0.632751763 0.100548744
vt 0.0201434828 0.0195333958
vt 0.0201434828 0.0846760273
vt 0.537443161 0.29872632
vt 0.57834518 0.307608664
vt 0.536935091 0.336017847
vt 0.583264709 0.333652496
vt 0.572715163 0.360271573
vt 0.536435246 0.372697949
vt 0.464169055 0.182082474
vt 0.319526106 0.182082474
vt 0.0201434828 0.182082474
vt 0.13192299 0.182082474
vt 0.19693242 0.263428688
vt 0.238657296 0.23832041
vt 0.238657296 0.182082474
vt 0.726101816 0.0150125027
vt 0.677567422 0.0150125027
vt 0.67845279 0.065177381
vt 0.767503738 0.0150125027
vt 0.807858586 0.0150125027
vt 0.858156145 0.0150125027
vt 0.858156145 0.0697779655
vt 0.4893381 0.0657510161
vt 0.4893381 0.0150125027
vt 0.535934985 0.0663211346
vt 0.541588962 0.0150125027
vt 0.581798255 0.0664718151
vt 0.587213337 0.0150125027
vt 0.634499431 0.0652550459
vt 0.632086396 0.0150125027
vt 0.204369441 0.306659579
vt 0.57947135 0.146796703
vt 0.630586684 0.142461538
vt 0.587921262 0.197135031
vt 0.625328362 0.200027883
vt 0.531595469 0.149595022
vt 0.544846058 0.19679749
vt 0.4893381 0.15025866
vt 0.4893381 0.193775773
vt 0.858156145 0.155554295
vt 0.858156145 0.204074025
vt 0.816153049 0.151759148
vt 0.810400248 0.197165608
vt 0.771475255 0.147514641
vt 0.768793106 0.20547235
vt 0.725315809 0.142393887
vt 0.725443125 0.198357463
vt 0.676473856 0.14021796
vt 0.673078179 0.195187211
vt 0.758964956 0.226591945
vt 0.714993477 0.232715249
vt 0.628599465 0.230290592
vt 0.607385635 0.276212156
vt 0.563842058 0.245141566
vt 0.609170556 0.319487154
vt 0.697777987 0.310976088
vt 0.672640204 0.334886491
vt 0.833039522 0.256552756
vt 0.837077498 0.274559736
vt 0.806669891 0.265422642
vt 0.785439909 0.284369588
vt 0.805852473 0.241547108
vt 0.835277736 0.235888839
vt 0.858156145 0.266151428
vt 0.780467391 0.242045045
vt 0.730656624 0.292276919
vt 0.767958999 0.254261017
vt 0.4893381 0.243030608
vt 0.500560522 0.251834452
vt 0.858156145 0.107082367
vt 0.464169055 0.0198853016
vt 0.0201434828 0.131958008
vt 0.13192299 0.131958008
vt 0.238657296 0.131958008
vt 0.319526106 0.131958008
vt 0.464169055 0.131958008
vt 0.884130955 0.209277272
vt 0.931913495 0.209277272
vt 0.884130955 0.269684792
vt 0.931913435 0.269684792
vt 0.884131014 0.318493485
vt 0.931913495 0.318493485
vt 0.884131014 0.380491436
vt 0.931913495 0.380491436
vt 0.884130955 0.149237037
vt 0.931913495 0.149237037
vt 0.884130955 0.0856053829
vt 0.931913495 0.0856053829
vt 0.717552781 0.621028066
vt 0.677341342 0.595122933
vt 0.723342419 0.584416807
vt 0.683336556 0.558401287
vt 0.72941345 0.546026111
vt 0.772627056 0.570269942
vt 0.764419138 0.614228845
vt 0.884130955 0.0227896571
vt 0.931913435 0.0227896571
vt 0.13192299 0.393537283
vt 0.13192299 0.341784775
vt 0.235143349 0.393537283
vt 0.303265184 0.393537283
vt 0.278356284 0.355580091
vt 0.348529518 0.393537283
vt 0.13192299 0.263428688
vt 0.31880182 0.34629637
vt 0.31892994 0.296315193
vt 0.319526106 0.236955523
vt 0.238657296 0.0846760273
vt 0.238657296 0.0189979672
vt 0.13192299 0.0846760273
vt 0.13192299 0.0190722346
vt 0.319526106 0.0198853016
vt 0.319526106 0.0846760273
vt 0.230944738 0.341784775
vt 0.678364933 0.0790643692
vt 0.677948892 0.0949242711
vt 0.728566587 0.0954278111
vt 0.729209602 0.0646334887
vt 0.770455539 0.0667130947
vt 0.771644711 0.0981377363
vt 0.8133564 0.0684249997
vt 0.815245986 0.100940943
vt 0.858156145 0.0850733519
vt 0.4893381 0.103182733
vt 0.534247637 0.104185998
vt 0.4893381 0.0811862946
vt 0.534908473 0.0827915668
vt 0.581202924 0.0823494792
vt 0.58066684 0.10294652
vt 0.633733153 0.0806574821
vt 0.632751763 0.100548744
vt 0.57834518 0.307608664
vt 0.583264709 0.333652496
vt 0.572715163 0.360271573
vt 0.319526106 0.182082474
vt 0.13192299 0.182082474
vt 0.19693242 0.263428688
vt 0.238657296 0.23832041
vt 0.238657296 0.182082474
vt 0.67845279 0.065177381
vt 0.677567422 0.0150125027
vt 0.726101816 0.0150125027
vt 0.767503738 0.0150125027
vt 0.807858586 0.0150125027
vt 0.858156145 0.0697779655
vt 0.858156145 0.0150125027
vt 0.535934985 0.0663211346
vt 0.541588962 0.0150125027
vt 0.4893381 0.0657510161
vt 0.4893381 0.0150125027
vt 0.581798255 0.0664718151
vt 0.587213337 0.0150125027
vt 0.634499431 0.0652550459
vt 0.632086396 0.0150125027
vt 0.204369441 0.306659579
vt 0.57947135 0.146796703
vt 0.587921262 0.197135031
vt 0.630586684 0.142461538
vt 0.625328362 0.200027883
vt 0.531595469 0.149595022
vt 0.544846058 0.19679749
vt 0.4893381 0.15025866
vt 0.4893381 0.193775773
vt 0.810400248 0.197165608
vt 0.858156145 0.204074025
vt 0.816153049 0.151759148
vt 0.858156145 0.155554295
vt 0.768793106 0.20547235
vt 0.771475255 0.147514641
vt 0.725315809 0.142393887
vt 0.725443125 0.198357463
vt 0.676473856 0.14021796
vt 0.673078179 0.195187211
vt 0.714993477 0.232715249
vt 0.758964956 0.226591945
vt 0.628599465 0.230290592
vt 0.563842058 0.245141566
vt 0.607385635 0.276212156
vt 0.609170556 0.319487154
vt 0.672640204 0.334886491
vt 0.697777987 0.310976088
vt 0.785439909 0.284369588
vt 0.837077498 0.274559736
vt 0.806669891 0.265422642
vt 0.833039522 0.256552756
vt 0.835277736 0.235888839
vt 0.805852473 0.241547108
vt 0.858156145 0.266151428
vt 0.780467391 0.242045045
vt 0.730656624 0.292276919
vt 0.767958999 0.254261017
vt 0.4893381 0.243030608
vt 0.500560522 0.251834452
vt 0.858156145 0.107082367
vt 0.13192299 0.131958008
vt 0.238657296 0.131958008
vt 0.319526106 0.131958008
vt 0.931913495 0.209277272
vt 0.931913435 0.269684792
vt 0.975386024 0.209277272
vt 0.975386024 0.269684792
vt 0.931913495 0.318493485
vt 0.975386024 0.318493485
vt 0.975386024 0.380491436
vt 0.931913495 0.380491436
vt 0.931913495 0.149237037
vt 0.975386024 0.149237037
vt 0.931913495 0.0856053829
vt 0.975386024 0.0856053829
vt 0.717552781 0.621028066
vt 0.723342419 0.584416807
vt 0.677341342 0.595122933
vt 0.683336556 0.558401287
vt 0.72941345 0.546026111
vt 0.772627056 0.570269942
vt 0.764419138 0.614228845
vt 0.975386024 0.0227896571
vt 0.931913435 0.0227896571
vt 0.73256433 0.33710748
vt 0.975386024 0.318493485
vt 0.975386024 0.269684792
vt 0.975386024 0.380491436
vt 0.975386024 0.0856053829
vt 0.975386024 0.0227896571
vt 0.975386024 0.149237037
vt 0.975386024 0.209277272
vt 0.884131014 0.318493485
vt 0.884130955 0.269684792
vt 0.884131014 0.380491436
vt 0.884130955 0.0856053829
vt 0.884130955 0.0227896571
vt 0.884130955 0.149237037
vt 0.884130955 0.209277272
vn -0.122670069 -0.653223157 0.747162282
vn 0.249302179 -0.845677614 0.471887469
vn -0.154236808 -0.881709993 0.445868313
vn 0.171060413 -0.974214137 0.147122905
vn 0.584033966 -0.810483098 0.0449603386
vn -0.158061773 -0.983688295 -0.0858710483
vn 0.268210113 -0.729369998 -0.62935102
vn -0.109519571 -0.741627932 -0.661810875
vn 0.19069761 -0.470655292 -0.861462831
vn -0.0974977091 -0.504451573 -0.857917666
vn -0.1611588 -0.986286998 0.0355770625
vn 0.449401647 -0.302071691 -0.840708554
vn 0.818116307 -0.175764382 -0.547533154
vn 0.824551761 -0.127973035 -0.551123619
vn 0.985041797 -0.126817226 -0.11666254
vn 0.946309328 -0.314663678 0.0740641728
vn 0.87455231 0.459736377 -0.154274985
vn 0.757747948 0.103035979 -0.644361436
vn 0.869622409 0.180865541 -0.459395885
vn 0.792075753 -0.555983126 -0.251989543
vn 0.339506358 -0.652072489 0.677891493
vn 0.811605215 -0.566834629 0.141405135
vn 0.446078122 -0.270344168 0.853187084
vn 0.331469685 0.834896505 0.439403832
vn 0.809047639 0.572194457 0.134296566
vn 0.545329213 0.836837232 -0.048160959
vn 0.520890653 0.44139877 -0.73064357
vn 0.664862216 -0.646873415 -0.373514533
vn 0.366043299 -0.908475459 0.201704443
vn 0.194919363 -0.98056221 0.022453703
vn 0.652180135 -0.571424365 -0.498131812
vn 0.813430846 -0.575186729 0.0865474939
vn -0.158077523 -0.983715832 -0.0855246335
vn 0.617194891 -0.754989386 0.221498132
vn 0.620653331 -0.753999949 0.215112954
vn 0.832360327 -0.536057651 0.140778124
vn 0.222299322 -0.957046092 0.186133698
vn -0.1619239 -0.97781688 0.13287124
vn 0.551915348 0.64348191 -0.530396402
vn 0.678589344 0.695698678 -0.235626683
vn 0.157629386 0.933606923 -0.321762353
vn 0.204851851 0.821386874 -0.532315075
vn 0.528463542 -0.837684155 0.13788265
vn 0.253237188 -0.924083948 0.286251247
vn 0.021482395 -0.922681868 0.384963244
vn -0.158139229 -0.90316093 0.399114341
vn -0.0159991048 -0.529306233 -0.848280013
vn -0.244110107 -0.397944301 -0.884336293
vn 0.300904691 0.675948739 -0.672718227
vn 0.535083234 0.507088065 -0.675683141
vn 0.89668113 -0.21858485 -0.384946108
vn 0.519501388 -0.15751338 -0.839826107
vn 0.816752613 -0.545835435 0.187026232
vn -0.524277091 -0.719890118 0.454853624
vn -0.476917267 -0.868849814 0.132853329
vn -0.812002778 -0.583480358 0.0142186796
vn -0.358771533 -0.366762549 -0.858352065
vn -0.432116657 -0.596520126 -0.676342368
vn -0.654842138 -0.0760870799 -0.751925886
vn -0.848808646 0.145285308 -0.508346438
vn -0.700495362 0.289680481 -0.652220428
vn -0.999552548 0.0287267845 0.00832659006
vn -0.643198967 -0.744367719 0.179476425
vn -0.915802896 -0.278272808 -0.289601922
vn -0.674785852 0.713019788 -0.190438196
vn -0.703542113 0.472434521 -0.530880511
vn -0.656918824 0.356098384 -0.664568782
vn -0.968546689 0.190840483 -0.159678057
vn -0.557277679 -0.506249785 0.658143342
vn -0.544891596 -0.109207153 0.831364512
vn -0.954616368 -0.279640585 0.102512218
vn -0.0685354695 0.899938166 0.430597454
vn -0.591176867 0.79987818 0.103463709
vn -0.249655411 0.96610564 -0.0656664222
vn -0.322458148 0.578529119 -0.74921608
vn -0.818832815 -0.405618697 -0.40618512
vn -0.496188104 -0.868184924 0.00723468419
vn -0.757452428 -0.378251225 -0.53215754
vn -0.95658493 -0.247804448 0.153421953
vn -0.999511182 0.00172955822 0.0312168486
vn -0.956639528 -0.287363797 0.0475701131
vn -0.295518517 0.850060701 -0.435965329
vn -0.521705449 -0.83606708 0.16975005
vn -0.409532368 0.874009848 -0.261514634
vn 0.157629386 0.933606923 -0.321762353
vn 0.204851851 0.821386874 -0.532315075
vn -0.771946132 -0.626230419 0.109245799
vn -0.804783583 -0.558552265 0.200854972
vn -0.55301702 -0.788616657 0.268804759
vn -0.496000051 -0.81252408 0.306249022
vn -0.880669951 -0.438341826 0.179657951
vn -0.326058656 -0.865911067 0.379320174
vn -0.555866897 -0.101356931 -0.82506901
vn 0.300904691 0.675948739 -0.672718227
vn -0.102841623 0.797380805 -0.594649017
vn -0.632755697 0.494202435 -0.59614116
vn -0.702983618 0.31202358 -0.639105082
vn 0.115776606 -0.92682296 0.357204467
vn 0.955879092 -0.2892313 0.0513870381
vn 0.885899544 -0.441513509 0.142294526
vn 0.891890645 -0.432211369 0.133133322
vn 0.936600506 -0.328170776 0.122814551
vn 0.909636378 0.394820124 0.12914592
vn 0.999596953 0.0246841367 -0.0140167605
vn 0.85479784 0.510909021 -0.0910645798
vn 0.403348386 -0.0842825919 0.911156654
vn 0.817683816 -0.323909253 0.475894958
vn 0.503969014 0.0587828197 0.861719012
vn 0.937710702 -0.117357783 0.326995164
vn -0.0216399767 0.00231103553 0.999763191
vn 0.00952099264 0.191467136 0.981452823
vn 0.709743142 0.376756966 0.595246971
vn 0.358319938 0.782869816 0.508646965
vn 0.450152099 0.89285928 -0.0128566278
vn 0.160894781 0.986548662 -0.0288899522
vn 0.358319938 0.782869816 0.508646965
vn 0.12669605 0.848700702 0.513473749
vn -0.119802266 -0.628823996 0.768262863
vn 0.0727567822 -0.734952211 0.674204528
vn 0.444512725 0.886186719 -0.130696595
vn 0.162195429 0.975901186 -0.145977974
vn 0.898145318 -0.373185396 0.232524559
vn -0.939727485 0.187923029 0.285652488
vn -0.938761294 0.339870721 -0.0567010231
vn -0.996679723 -0.0138098579 0.0802417099
vn -0.895133018 -0.0558877662 0.442281961
vn -0.495882511 0.221363515 0.839701533
vn -0.448805094 0.052418083 0.892090917
vn -0.742441416 0.663456976 0.0927657783
vn -0.578740358 0.586271167 0.56687361
vn -0.11342188 0.859578013 0.498258054
vn -0.142984509 0.989378452 -0.026186116
vn -0.11342188 0.859578013 0.498258054
vn -0.36484462 -0.72415328 0.585226834
vn -0.134476021 0.980431795 -0.143769607
vn -0.644271433 0.754665256 -0.124075659
vn -0.979201615 -0.0679195002 0.191183373
vn -0.985366821 -0.137234628 0.101088159
vn -0.987704992 -0.126577586 0.0917438269
vn -0.984415174 -0.120759517 0.127842978
vn -0.98472178 -0.120959058 0.125267446
vn 0.267548889 -0.935348213 0.231389895
vn 0.257535279 -0.935399234 0.242288783
vn 0.155072272 -0.924342692 0.348630577
vn 0.201982975 -0.760959625 -0.616557598
vn 0.340597004 0.209445059 -0.916584134
vn 0.186720431 -0.632119954 -0.752037048
vn 0.363260806 0.342641801 -0.866393745
vn 0.456162423 0.827379823 -0.327655882
vn 0.511037171 0.497140437 -0.701207697
vn 0.454431295 0.834990084 -0.310296148
vn 0.510853052 0.493917346 -0.703615427
vn 0.377934813 -0.192834347 -0.905527532
vn 0.378638923 -0.187228873 -0.906409383
vn 0.366558492 -0.176697582 -0.913462043
vn 0.281769693 -0.0741958991 -0.95660907
vn 0.543390214 -0.821687996 -0.171918496
vn 0.0948355272 -0.942237675 0.321238846
vn 0.49687919 -0.855678439 -0.144655928
vn 0.125166953 0.0691212192 -0.989724934
vn -0.379200548 -0.06399896 -0.923098564
vn -0.29671973 0.628488958 -0.718998611
vn -0.380346835 -0.0695329681 -0.92222631
vn -0.297463566 0.625352919 -0.72142154
vn -0.550645173 -0.803985953 0.224491701
vn -0.573270977 -0.794993162 0.198359191
vn -0.559649944 -0.800842404 0.213174224
vn -0.573270977 -0.794993043 0.198359162
vn 0.056351196 0.215355814 -0.974908531
vn 0.05005005 0.173723713 -0.98352176
vn -0.0538053103 0.0978738666 -0.993743241
vn -0.807221472 -0.465360224 -0.363088518
vn -0.807221472 -0.465360254 -0.363088518
vn -0.807221532 -0.465360284 -0.363088548
vn -0.807221472 -0.465360284 -0.363088548
vn -0.152858123 0.933740973 -0.32367
vn -0.156164423 0.926949143 -0.341142207
vn -0.136016667 0.860987782 -0.490101516
vn -0.133362979 0.85843575 -0.495280087
vn -0.243318886 -0.28629151 -0.926732481
vn -0.243318886 -0.28629154 -0.92673254
vn -0.2433189 -0.28629154 -0.926732481
vn -0.2433189 -0.28629151 -0.926732421
vn 0.349309564 -0.929502606 0.118354067
vn 0.429851681 -0.901981711 0.0407015085
vn -0.454614609 -0.825205684 0.33520329
vn -0.395425022 -0.842276454 0.366346061
vn 0.889405489 -0.425703496 0.166536286
vn 0.889067829 -0.425399214 0.169097364
vn 0.419465303 0.768545091 -0.483101636
vn 0.422565371 0.770160794 -0.477797806
vn -0.248815238 0.0122463703 -0.968473494
vn -0.364118725 -0.0578852072 -0.929552019
vn -0.0760945976 -0.996744514 -0.0266454164
vn 0.110155411 -0.897004664 0.428075075
vn 0.885247648 -0.422104478 0.195357084
vn 0.885247648 -0.422104478 0.195357099
vn -0.100686252 0.824652314 -0.556606531
vn -0.100686245 0.824652195 -0.556606531
vn -0.980878115 -0.118661381 0.154264361
vn -0.980878115 -0.118661374 0.154264376
vn -0.351329207 -0.852439106 0.387189031
vn 0.661964953 -0.691791654 -0.288490444
vn -0.341758907 -0.938138306 -0.0556524694
vn -0.341758907 -0.938138366 -0.0556524768
vn -0.341758907 -0.938138366 -0.0556524731
vn 0.586310804 -0.80327481 0.104829438
vn 0.474694759 -0.750924826 -0.4591043
vn 0.62299943 -0.656371593 -0.425497472
vn -0.873731017 0.0183070563 0.486064762
vn -0.871329546 -0.309790403 0.380545408
vn -0.63658905 -0.66750747 0.386248797
vn -0.690438628 0.0777569339 0.719199896
vn 0.11199455 0.69701916 0.70825249
vn -0.0778123811 0.951786757 0.296727449
vn 0.182467192 0.444256663 0.87712121
vn -0.20300211 -0.311157912 0.928423941
vn 0.246013612 -0.919268966 0.307281405
vn 0.115957856 -0.913899302 -0.389026791
vn -0.293581963 0.767845452 0.569405973
vn 0.560620248 0.827460051 -0.0318561234
vn 0.483687133 0.857134819 -0.177106336
vn 0.395219892 0.863021374 -0.314635098
vn -0.721468866 0.146031141 0.676873386
vn 0.145164639 -0.497342229 0.855323315
vn 0.288672447 -0.519846559 0.804007292
vn 0.566282392 -0.348865211 0.746737897
vn 0.665911674 -0.403195143 -0.627690554
vn 0.365827292 -0.661618829 -0.65454638
vn 0.415837109 -0.645142615 -0.640991807
vn -0.733284652 -0.563251376 -0.380842954
vn -0.733284712 -0.563251436 -0.380842954
vn -0.274184495 -0.775738478 -0.568377197
vn -0.303374946 -0.769526362 -0.561954618
vn 0.0617237203 -0.787911534 -0.612687111
vn 0.0626705289 -0.788941324 -0.611264288
vn -0.033919923 -0.441358864 0.896689415
vn 0.688992977 -0.0584600605 0.722406507
vn 0.706930578 0.166604742 0.687380433
vn -0.289795548 -0.829253614 -0.477867246
vn -0.0803090855 -0.232040703 -0.969385147
vn -0.12070699 -0.181178063 -0.976014614
vn -0.130780265 -0.146827027 -0.980478644
vn -0.0595017038 -0.287472725 -0.955938816
vn 0.00406538881 -0.308206588 -0.951310694
vn 0.328007698 -0.639961958 -0.694881022
vn 0.278915703 0.840737939 -0.464075178
vn -0.960357726 -0.244173169 0.134508729
vn -0.952823877 -0.253652483 0.166694656
vn 0.160894781 0.986548662 -0.0288899522
vn 0.12669605 0.848700702 0.513473749
vn 0.162195429 0.975901186 -0.145977974
vn 0.05005005 0.173723713 -0.98352176
vn 0.056351196 0.215355814 -0.974908531
vn 0.12669605 0.848700702 0.513473749
vn 0.846702933 -0.507193446 0.160775915
vn -0.0668743327 -0.400203586 0.913982987
vn -0.682194829 -0.541894555 0.49087742
vn -0.425947547 -0.714145243 0.55548656
vn -0.420995325 -0.490062356 0.763283551
vn -0.182253286 -0.491749644 0.85144943
vn 0.127851903 -0.383348405 0.914711893
vn 0.534814954 -0.452495992 0.713596821
vn 0.483022958 -0.248897001 0.839487433
vn 0.851244271 0.466067195 0.241173193
vn 0.745599627 0.604908049 0.279584587
vn 0.299976021 0.942399979 -0.147975177
vn -0.753391087 -0.610055685 0.245425865
vn -0.475260317 -0.869455278 0.134815514
vn 0.898610353 0.187674746 0.396582514
vn 0.851187885 0.518781722 -0.0796537995
vn 0.798748136 0.601575375 -0.0104103656
vn 0.909138143 0.314300179 -0.273282081
vn 0.767156601 0.604415059 -0.214832932
vn -0.259536177 -0.963363349 0.0676164851
vn -0.240586579 -0.968915761 0.0576209277
vn 0.529645085 -0.817631483 0.225731865
vn 0.5134269 -0.819249928 0.255386621
vn 0.641829014 -0.0286866818 -0.76631099
vn 0.700804055 0.713032305 -0.0214107316
vn 0.984281242 -0.0172695573 0.175761536
vn 0.135411203 -0.714902282 0.685987294
vn 0.815449595 -0.491262794 0.306109071
vn 0.224959865 -0.81319201 0.536760449
vn 0.794638932 -0.520344317 0.312715173
vn 0.277006119 -0.828212678 0.487166673
vn -0.247027636 -0.962679565 0.110568359
vn -0.517533839 -0.709492743 0.478308201
vn -0.86334765 -0.415545613 -0.286273926
vn -0.975830436 0.0184940957 0.217745274
vn -0.788410842 0.596163988 -0.151646703
vn -0.162181377 0.92946434 -0.331350505
vn -0.128318682 0.76379472 -0.632575691
vn -0.788410842 0.596163988 -0.151646703
vn -0.823275864 0.503030002 -0.263016343
vn 0.562618613 0.773953915 -0.29061234
vn 0.572244346 0.588332236 -0.571315646
vn 0.968947649 0.246276215 -0.0221052114
vn 0.969138563 0.114300758 -0.218416348
vn -0.723950088 -0.68613106 -0.0715565681
vn -0.747105479 -0.663353801 -0.042370379
vn 0.328475326 0.269272506 -0.905315518
vn 0.641829014 -0.0286866818 -0.76631099
vn 0.159457982 0.102437198 -0.981875598
vn 0.175005183 0.0277875569 -0.984175324
vn 0.203096703 0.0389783531 -0.978382587
vn 0.176294997 0.0924209356 -0.979989052
vn 0.758156419 0.646507502 -0.0850118175
vn 0.983474433 0.137186378 -0.118142962
vn -0.755174041 -0.654685378 -0.0331533067
vn -0.0848401487 -0.990168154 -0.111217052
vn 0.0671749637 -0.972611964 -0.222516552
vn 0.364573181 -0.870560944 -0.3304694
vn 0.564894319 -0.809072137 -0.162162542
vn 0.135411203 -0.714902282 0.685987294
vn 0.534814954 -0.452495992 0.713596821
vn 0.695728004 -0.480784863 0.533674538
vn -0.1940438 -0.956621706 0.217306003
vn 0.0671749637 -0.972611964 -0.222516552
vn 0.364573181 -0.870560944 -0.3304694
vn -0.741356313 0.657832861 0.132841259
vn -0.741356313 0.657832861 0.132841259
vn 0.364573181 -0.870560944 -0.3304694
vn -0.335402369 0.921004832 0.198129714
vn 0.909138143 0.314300179 -0.273282081
vn 0.584584475 0.806953192 -0.0841873884
vn 0.851187885 0.518781722 -0.0796537995
vn 0.953122079 0.111456111 0.281310886
vn 0.898610353 0.187674746 0.396582514
vn -0.1940438 -0.956621706 0.217306003
vn 0.558745801 0.618981242 -0.551964998
vn 0.991080105 0.0249093045 -0.130919486
vn 0.592386246 0.710695803 -0.379460245
vn 0.998475969 0.0334137715 -0.0439241007
vn -0.24676998 0.744324923 -0.620552123
vn -0.0850484371 0.825170994 -0.558443904
vn -0.809064388 0.53247714 -0.248763219
vn -0.712575018 0.574067652 -0.403340161
vn -0.809064388 0.53247714 -0.248763219
vn -0.712575018 0.574067652 -0.403340161
vn -0.950062633 0.0692487508 0.304278463
vn -0.947129369 0.0515677035 0.316681087
vn -0.54032445 -0.540513754 0.644898772
vn -0.601887405 -0.5420717 0.586421251
vn 0.193292692 -0.766863704 0.612011433
vn 0.144641206 -0.767876089 0.624055386
vn 0.745925844 -0.57017988 0.344222993
vn 0.769887924 -0.57439059 0.278115183
vn -0.594734192 -0.76218456 0.255667478
vn 0.352847964 -0.833187044 -0.425790727
vn 0.575821757 -0.516612887 -0.633672178
vn 0.215345517 -0.279785633 -0.935599506
vn -0.245259985 0.692507267 -0.678440332
vn -0.245259985 0.692507267 -0.678440332
vn -0.593985796 0.0613493137 -0.802132964
vn -0.352956355 0.765786767 -0.537580132
vn 0.0478997678 0.736648142 -0.674577653
vn -0.352956355 0.765786767 -0.537580132
vn -0.285728365 -0.152408183 -0.946113706
vn -0.593985796 0.0613493137 -0.802132964
vn -0.976745784 -0.117048033 -0.179631442
vn -0.654459417 0.707822204 -0.265839368
vn -0.348971307 0.680320501 -0.644502163
vn -0.747347713 -0.662259281 0.0537028126
vn 0.0467600934 -0.679010749 -0.732637584
vn -0.701026618 -0.70322907 -0.118450657
vn -0.348971307 0.680320501 -0.644502163
vn -0.352956355 0.765786767 -0.537580132
vn -0.823275864 0.503030002 -0.263016343
vn 0.328475326 0.269272506 -0.905315518
vn -0.741665781 -0.670552373 -0.0170711074
vn -0.107509919 -0.994196415 0.00388581725
vn 0.622172773 -0.78282547 0.00922722742
vn 0.971480846 0.234618708 -0.0343369953
vn 0.719739854 0.692109108 -0.054402113
vn 0.823084652 -0.554118395 0.124436177
vn 0.727765501 -0.667065144 0.159315497
vn 0.175633222 -0.965849221 0.190494865
vn 0.0153650232 -0.992797434 0.118815914
vn -0.901132405 -0.431160837 0.0453954488
vn -0.948046207 -0.277875632 -0.154898152
vn -0.854863107 0.518265367 -0.0246993657
vn -0.780169129 0.616653621 -0.105235234
vn 0.904977679 0.404142112 0.132983536
vn 0.941097617 0.228690103 0.249070495
vn 0.00338266324 0.995602667 0.0936158076
vn 0.141906887 0.972888827 0.182619512
vn 0.0105347289 -0.0163121447 -0.999811411
vn 0.0108354958 -0.0158520434 -0.999815702
vn 0.0108540496 -0.0160833225 -0.999811769
vn 0.0111288168 -0.0162105411 -0.999806702
vn 0.0117511591 -0.0161936525 -0.999799907
vn 0.0104891108 -0.0156527031 -0.999822497
vn 0.0098168673 -0.0159922112 -0.999823868
vn -0.854863107 0.518265367 -0.0246993657
vn -0.780169129 0.616653621 -0.105235234
vn -0.643178105 -0.344388634 0.683899283
vn -0.818367839 -0.225654423 0.528539598
vn -0.742336452 -0.0690890029 0.666455746
vn -0.607166648 0.180502638 0.773800611
vn -0.346211463 0.49225226 0.798639655
vn 0.169791445 0.304978728 0.937101305
vn -0.944916725 -0.269438148 0.185837448
vn 0.456558377 0.654130161 0.60304898
vn 0.705748498 0.708389938 -0.0101360464
vn 0.567242444 0.77124089 -0.288830966
vn -0.815927207 0.578152895 0.00142570981
vn -0.857229412 0.514538586 -0.0201963782
vn -0.988007903 -0.145099878 -0.0527863652
vn -0.972931087 -0.217181861 -0.078976877
vn 0.00564988144 0.678597987 -0.734488189
vn -0.0216823611 0.999444604 0.0253029522
vn -0.744481802 0.180475816 0.642787218
vn -0.414267123 0.705867469 0.574572921
vn -0.449041098 0.67361635 0.587029159
vn -0.757003248 0.0304567553 0.652700901
vn -0.84920305 0.222111911 0.479082853
vn -0.992415309 -0.108909957 -0.0570121706
vn -0.626645029 -0.688441098 0.365191489
vn -0.541968703 -0.649314225 -0.533536255
vn -0.0458395742 -0.983183682 -0.176772714
vn 0.437466443 -0.621178269 -0.650200546
vn 0.454674333 -0.656827748 -0.601538599
vn 0.745092392 0.0848091543 -0.661547184
vn 0.437466443 -0.621178269 -0.650200546
vn 0.857103229 0.0104173981 -0.515039384
vn 0.778419077 0.609058201 -0.152026087
vn 0.624494016 0.696046948 -0.354296148
vn 0.35893172 0.900192857 0.246618733
vn 0.185369894 0.976831436 0.106950462
vn 0.00564988144 0.678597987 -0.734488189
vn 0.0928480253 0.129266798 -0.987253428
vn 0.102862909 0.144312277 -0.984171271
vn 0.287977815 0.950619221 -0.115723312
vn -0.999052942 0.0431646593 -0.00547359092
vn -0.917332768 0.363002151 -0.163492844
vn -0.737309337 0.608496249 -0.293440282
vn -0.708585918 0.704539597 -0.0391122513
vn -0.384037644 0.587565124 0.712237477
vn -0.346211463 0.49225226 0.798639655
vn -0.744481802 0.180475816 0.642787218
vn -0.993047953 0.0439815372 0.109184772
vn -0.917332768 0.363002151 -0.163492844
vn 0.571265221 -0.820257008 -0.0288848355
vn -0.737309337 0.608496249 -0.293440282
vn 0.942068219 -0.297785044 -0.154374793
vn 0.567242444 0.77124089 -0.288830966
vn 0.571265221 -0.820257008 -0.0288848355
vn -0.737309337 0.608496249 -0.293440282
vn 0.816458881 0.575186551 0.0505496748
vn 0.705748498 0.708389938 -0.0101360464
vn 0.2502051 0.807188988 0.534643173
vn 0.456558377 0.654130161 0.60304898
vn -0.993047953 0.0439815372 0.109184772
vn 0.61887759 0.701144457 -0.354100257
vn 0.65814513 0.703774571 -0.267481238
vn 0.0569508262 0.980832994 0.186341479
vn 0.00909844693 0.972718179 0.231811702
vn 0.722312033 -0.0153600574 -0.691396654
vn 0.77827394 0.104467995 -0.619173706
vn 0.513221741 -0.666327894 -0.54093498
vn 0.544350564 -0.536117733 -0.645182312
vn 0.124991141 -0.991283715 0.0416396111
vn 0.544350564 -0.536117733 -0.645182312
vn 0.121446446 -0.990720689 0.0610196739
vn 0.513221741 -0.666327894 -0.54093498
vn -0.466707796 -0.759194076 0.453660816
vn -0.427639335 -0.707642794 0.562464535
vn -0.687370241 -0.0193372332 0.726049781
vn -0.700049996 -0.0424831063 0.712829053
vn -0.528163254 0.610327899 0.590375721
vn -0.558027148 0.646328628 0.520446837
vn -0.885469973 0.397489548 -0.240717694
vn -0.706371903 -0.687556982 0.168238178
vn -0.602750182 0.688147128 -0.403912932
vn 0.615578234 -0.0457648486 -0.786745846
vn -0.382955462 0.434772581 -0.81505692
vn 0.615578234 -0.0457648486 -0.786745846
vn 0.707547367 -0.161870793 -0.68787688
vn -0.00216142181 -0.367920429 -0.92985481
vn -0.00216142181 -0.367920429 -0.92985481
vn 0.707547367 -0.161870793 -0.68787688
vn -0.255318373 -0.0427588113 -0.96591115
vn 0.639315724 0.282670319 -0.715103447
vn 0.705246508 -0.515990436 -0.486190498
vn -0.0903317481 -0.907398522 -0.410448581
vn 0.617057681 -0.130213961 -0.776069641
vn -0.616536617 -0.784312487 -0.0688220337
vn -0.754339993 0.19689694 -0.626260936
vn -0.690335929 -0.686744034 -0.227637708
vn 0.617057681 -0.130213961 -0.776069641
vn 0.707547367 -0.161870793 -0.68787688
vn 0.454674333 -0.656827748 -0.601538599
vn -0.999918997 -0.00488818111 0.0117521454
vn -0.746236861 0.662948608 0.0602465346
vn 0.239187822 0.970642626 -0.0253408588
vn -0.771356463 0.635734499 0.0291669909
vn -0.98391813 -0.172470063 -0.0464681163
vn -0.874102652 0.477929771 -0.0867614821
vn -0.91892159 -0.300562978 -0.255431145
vn -0.0396568887 -0.993655622 -0.105241217
vn -0.100700304 -0.967161834 -0.233361319
vn 0.679046631 -0.732075036 0.0544218309
vn 0.747380257 -0.663413405 0.0361293703
vn 0.131342784 0.958835542 0.251761049
vn -0.192830548 0.938683748 0.285813153
vn 0.9342646 0.245656699 0.258461714
vn 0.83057189 0.253519416 0.495861113
vn -0.00239217584 0.0341558866 -0.999413669
vn -0.00225298526 0.0345229506 -0.999401331
vn -0.00202468061 0.0345643908 -0.999400437
vn -0.00244651199 0.0347556546 -0.999392807
vn -0.00259002228 0.0353611261 -0.999371171
vn -0.00174301572 0.0342808887 -0.999410748
vn -0.00189854729 0.0335444622 -0.999435365
vn 0.679046631 -0.732075036 0.0544218309
vn 0.747380257 -0.663413405 0.0361293703
vn -0.0803518146 -0.995481014 -0.0506065339
vn -0.914659262 -0.179119527 -0.36237371
vn -0.243590236 -0.968829811 -0.0450838357
vn -0.747536659 0.61993897 -0.238463134
vn 0.256085187 0.899298668 0.354517162
vn -0.747536659 0.61993897 -0.238463134
vn 0.921097934 -0.159298599 0.355250001
vn 0.522279739 -0.833686233 0.179419219
vn -0.138349906 -0.990268946 0.0150559619
vn -0.987404168 -0.104087561 0.11915876
vn 0.718425035 -0.695585191 -0.00516062696
vn 0.970042348 0.212926701 0.116962425
vn 0.718425035 -0.695585191 -0.00516062696
vn 0.219685897 0.964746177 0.144924179
vn -0.731774747 0.676015019 0.0866569728
f 1/1/1 2/2/2 3/3/3
f 4/4/4 2/2/2 5/5/5
f 5/5/5 6/6/6 4/4/4
f 7/7/7 8/8/8 9/9/9
f 9/9/9 8/8/8 10/10/10
f 7/7/7 11/11/11 8/8/8
f 12/12/12 13/13/13 14/14/14
f 15/15/15 16/16/16 14/14/14
f 17/17/17 18/18/18 19/19/19
f 20/20/20 15/15/15 18/18/18
f 18/18/18 15/15/15 14/14/14
f 21/21/21 22/22/22 23/23/23
f 24/24/24 25/25/25 23/23/23
f 23/23/23 25/25/25 21/21/21
f 17/17/17 25/25/25 26/26/26
f 26/26/26 25/25/25 24/24/24
f 27/27/27 17/17/17 26/26/26
f 27/27/27 18/18/18 17/17/17
f 27/27/27 28/28/28 18/18/18
f 18/18/18 28/28/28 20/20/20
f 28/28/28 22/22/22 20/20/20
f 20/20/20 22/22/22 29/29/29
f 26/26/26 24/24/24 22/22/22
f 22/22/22 24/24/24 23/23/23
f 28/28/28 27/27/27 22/22/22
f 22/22/22 27/27/27 26/26/26
f 30/30/30 11/11/11 7/7/7
f 31/31/31 30/30/30 7/7/7
f 31/31/31 7/7/7 12/12/12
f 12/12/12 7/7/7 9/9/9
f 14/14/14 16/16/16 32/32/32
f 6/6/6 5/5/5 33/33/33
f 34/34/34 35/35/35 36/36/36
f 30/30/30 37/37/37 11/11/11
f 11/11/11 37/37/37 38/38/38
f 19/19/19 18/18/18 13/13/13
f 39/39/39 40/40/40 17/17/17
f 17/17/17 40/40/40 25/25/25
f 40/40/40 39/39/39 41/41/41
f 41/41/41 39/39/39 42/42/42
f 43/43/43 37/37/37 30/30/30
f 32/32/32 43/43/43 31/31/31
f 31/31/31 14/14/14 32/32/32
f 32/32/32 35/35/35 43/43/43
f 43/43/43 30/30/30 31/31/31
f 43/43/43 35/35/35 37/37/37
f 37/37/37 35/35/35 44/44/44
f 34/34/34 44/44/44 35/35/35
f 44/44/44 3/3/3 2/2/2
f 4/4/4 44/44/44 2/2/2
f 3/3/3 45/45/45 46/46/46
f 9/9/9 10/10/10 47/47/47
f 47/47/47 10/10/10 48/48/48
f 42/42/42 39/39/39 49/49/49
f 49/49/49 39/39/39 50/50/50
f 39/39/39 19/19/19 50/50/50
f 50/50/50 19/19/19 51/51/51
f 19/19/19 13/13/13 51/51/51
f 51/51/51 13/13/13 52/52/52
f 13/13/13 12/12/12 52/52/52
f 37/37/37 4/4/4 38/38/38
f 38/38/38 4/4/4 6/6/6
f 52/52/52 12/12/12 47/47/47
f 47/47/47 12/12/12 9/9/9
f 53/53/53 35/35/35 32/32/32
f 5/5/5 1/1/1 33/33/33
f 5/5/5 2/2/2 1/1/1
f 37/37/37 44/44/44 4/4/4
f 12/12/12 14/14/14 31/31/31
f 13/13/13 18/18/18 14/14/14
f 1/1/1 3/3/3 54/54/54
f 55/55/55 56/56/56 54/54/54
f 56/56/56 55/55/55 6/6/6
f 57/57/57 10/10/10 58/58/58
f 58/58/58 10/10/10 8/8/8
f 58/58/58 8/8/8 11/11/11
f 59/59/59 60/60/60 61/61/61
f 62/62/62 63/63/63 64/64/64
f 65/65/65 66/66/66 67/67/67
f 60/60/60 68/68/68 67/67/67
f 67/67/67 68/68/68 64/64/64
f 69/69/69 70/70/70 71/71/71
f 72/72/72 70/70/70 73/73/73
f 73/73/73 70/70/70 69/69/69
f 72/72/72 73/73/73 74/74/74
f 74/74/74 73/73/73 65/65/65
f 75/75/75 74/74/74 65/65/65
f 75/75/75 65/65/65 67/67/67
f 64/64/64 76/76/76 67/67/67
f 67/67/67 76/76/76 75/75/75
f 76/76/76 64/64/64 71/71/71
f 71/71/71 63/63/63 69/69/69
f 74/74/74 71/71/71 72/72/72
f 72/72/72 71/71/71 70/70/70
f 74/74/74 75/75/75 71/71/71
f 71/71/71 75/75/75 76/76/76
f 77/77/77 58/58/58 11/11/11
f 78/78/78 58/58/58 77/77/77
f 59/59/59 57/57/57 78/78/78
f 78/78/78 57/57/57 58/58/58
f 79/79/79 80/80/80 81/81/81
f 6/6/6 33/33/33 56/56/56
f 65/65/65 82/82/82 66/66/66
f 77/77/77 11/11/11 83/83/83
f 83/83/83 11/11/11 38/38/38
f 66/66/66 61/61/61 67/67/67
f 84/84/84 85/85/85 82/82/82
f 82/82/82 85/85/85 86/86/86
f 87/87/87 77/77/77 83/83/83
f 81/81/81 78/78/78 87/87/87
f 78/78/78 81/81/81 60/60/60
f 81/81/81 87/87/87 88/88/88
f 87/87/87 78/78/78 77/77/77
f 87/87/87 83/83/83 88/88/88
f 88/88/88 83/83/83 89/89/89
f 90/90/90 91/91/91 89/89/89
f 89/89/89 91/91/91 88/88/88
f 89/89/89 54/54/54 3/3/3
f 55/55/55 54/54/54 89/89/89
f 92/92/92 3/3/3 46/46/46
f 93/93/93 48/48/48 57/57/57
f 57/57/57 48/48/48 10/10/10
f 94/94/94 95/95/95 86/86/86
f 86/86/86 95/95/95 82/82/82
f 82/82/82 95/95/95 66/66/66
f 66/66/66 95/95/95 96/96/96
f 96/96/96 97/97/97 66/66/66
f 66/66/66 97/97/97 61/61/61
f 61/61/61 97/97/97 59/59/59
f 83/83/83 38/38/38 55/55/55
f 55/55/55 38/38/38 6/6/6
f 97/97/97 93/93/93 59/59/59
f 93/93/93 57/57/57 59/59/59
f 79/79/79 81/81/81 88/88/88
f 56/56/56 33/33/33 1/1/1
f 56/56/56 1/1/1 54/54/54
f 83/83/83 55/55/55 89/89/89
f 73/73/73 84/84/84 65/65/65
f 65/65/65 84/84/84 82/82/82
f 59/59/59 78/78/78 60/60/60
f 61/61/61 60/60/60 67/67/67
f 39/39/39 17/17/17 19/19/19
f 44/44/44 98/98/98 45/45/45
f 34/34/34 98/98/98 44/44/44
f 68/68/68 62/62/62 64/64/64
f 32/32/32 16/16/16 53/53/53
f 20/20/20 99/99/99 15/15/15
f 29/29/29 99/99/99 20/20/20
f 80/80/80 68/68/68 60/60/60
f 60/60/60 81/81/81 80/80/80
f 29/29/29 22/22/22 21/21/21
f 64/64/64 63/63/63 71/71/71
f 100/100/100 101/101/101 102/102/102
f 103/103/103 104/104/104 105/105/105
f 106/106/106 107/107/107 108/108/108
f 108/108/108 107/107/107 109/109/109
f 110/110/110 106/106/106 111/111/111
f 111/111/111 106/106/106 108/108/108
f 108/108/108 109/109/109 112/112/112
f 112/112/112 109/109/109 103/103/103
f 113/113/113 111/111/111 112/112/112
f 114/114/114 115/115/115 116/116/116
f 116/116/116 115/115/115 117/117/117
f 106/106/106 118/118/118 119/119/119
f 114/114/114 120/120/120 115/115/115
f 115/115/115 120/120/120 121/121/121
f 122/122/122 109/109/109 107/107/107
f 123/123/123 124/124/124 125/125/125
f 123/123/123 126/126/126 127/127/127
f 127/127/127 126/126/126 128/128/128
f 110/110/110 111/111/111 128/128/128
f 128/128/128 111/111/111 127/127/127
f 129/129/129 123/123/123 130/130/130
f 130/130/130 123/123/123 127/127/127
f 111/111/111 131/131/131 130/130/130
f 129/129/129 130/130/130 132/132/132
f 132/132/132 130/130/130 133/133/133
f 128/128/128 134/134/134 118/118/118
f 135/135/135 136/136/136 132/132/132
f 132/132/132 136/136/136 129/129/129
f 137/137/137 126/126/126 123/123/123
f 138/138/138 139/139/139 140/140/140
f 140/140/140 139/139/139 141/141/141
f 142/142/142 143/143/143 144/144/144
f 145/145/145 146/146/146 147/147/147
f 147/147/147 146/146/146 148/148/148
f 149/149/149 150/150/150 151/151/151
f 151/151/151 150/150/150 152/152/152
f 153/153/153 154/154/154 155/155/155
f 155/155/155 154/154/154 156/156/156
f 157/157/157 158/158/158 159/159/159
f 155/155/155 156/156/156 160/160/160
f 161/161/161 162/162/162 163/163/163
f 163/163/163 162/162/162 164/164/164
f 165/165/165 166/166/166 167/167/167
f 167/167/167 166/166/166 168/168/168
f 169/169/169 170/170/170 171/171/171
f 172/172/172 173/173/173 174/174/174
f 174/174/174 173/173/173 175/175/175
f 176/176/176 177/177/177 178/178/178
f 178/178/178 177/177/177 179/179/179
f 180/180/180 181/181/181 182/182/182
f 182/182/182 181/181/181 183/183/183
f 110/110/110 118/118/118 106/106/106
f 128/128/128 118/118/118 110/110/110
f 143/143/143 142/142/142 184/184/184
f 184/184/184 142/142/142 185/185/185
f 186/186/186 187/187/187 165/165/165
f 188/188/188 101/101/101 189/189/189
f 189/189/189 101/101/101 100/100/100
f 190/190/190 149/149/149 191/191/191
f 191/191/191 149/149/149 151/151/151
f 123/123/123 125/125/125 137/137/137
f 177/177/177 176/176/176 162/162/162
f 162/162/162 176/176/176 164/164/164
f 109/109/109 102/102/102 104/104/104
f 152/152/152 150/150/150 153/153/153
f 153/153/153 150/150/150 154/154/154
f 129/129/129 124/124/124 123/123/123
f 192/192/192 161/161/161 193/193/193
f 193/193/193 161/161/161 163/163/163
f 194/194/194 158/158/158 195/195/195
f 144/144/144 145/145/145 147/147/147
f 196/196/196 197/197/197 189/189/189
f 189/189/189 197/197/197 188/188/188
f 146/146/146 190/190/190 148/148/148
f 148/148/148 190/190/190 191/191/191
f 178/178/178 179/179/179 198/198/198
f 198/198/198 179/179/179 199/199/199
f 141/141/141 200/200/200 140/140/140
f 140/140/140 200/200/200 201/201/201
f 187/187/187 186/186/186 202/202/202
f 109/109/109 104/104/104 103/103/103
f 136/136/136 124/124/124 129/129/129
f 144/144/144 143/143/143 145/145/145
f 186/186/186 165/165/165 167/167/167
f 185/185/185 203/203/203 184/184/184
f 157/157/157 159/159/159 203/203/203
f 126/126/126 134/134/134 128/128/128
f 204/204/204 205/205/205 206/206/206
f 207/207/207 208/208/208 209/209/209
f 210/210/210 211/211/211 212/212/212
f 213/213/213 214/214/214 215/215/215
f 216/216/216 217/217/217 207/207/207
f 212/212/212 213/213/213 210/210/210
f 212/212/212 218/218/218 217/217/217
f 218/218/218 219/219/219 208/208/208
f 210/210/210 213/213/213 220/220/220
f 217/217/217 213/213/213 212/212/212
f 221/221/221 222/222/222 223/223/223
f 217/217/217 214/214/214 213/213/213
f 210/210/210 220/220/220 224/224/224
f 218/218/218 208/208/208 207/207/207
f 217/217/217 218/218/218 207/207/207
f 225/225/225 226/226/226 227/227/227
f 228/228/228 229/229/229 230/230/230
f 231/231/231 232/232/232 233/233/233
f 233/233/233 232/232/232 234/234/234
f 235/235/235 236/236/236 230/230/230
f 235/235/235 230/230/230 229/229/229
f 237/237/237 226/226/226 225/225/225
f 234/234/234 236/236/236 233/233/233
f 233/233/233 236/236/236 235/235/235
f 226/226/226 238/238/238 227/227/227
f 227/227/227 238/238/238 239/239/239
f 212/212/212 211/211/211 240/240/240
f 210/210/210 224/224/224 211/211/211
f 241/241/241 242/242/242 243/243/243
f 244/244/244 242/242/242 241/241/241
f 245/245/245 244/244/244 241/241/241
f 212/212/212 219/219/219 218/218/218
f 240/240/240 219/219/219 212/212/212
f 246/246/246 219/219/219 240/240/240
f 247/247/247 223/223/223 222/222/222
f 248/248/248 91/91/91 249/249/249
f 89/89/89 92/92/92 90/90/90
f 89/89/89 3/3/3 92/92/92
f 208/208/208 219/219/219 246/246/246
f 79/79/79 91/91/91 248/248/248
f 79/79/79 88/88/88 91/91/91
f 122/122/122 102/102/102 109/109/109
f 137/137/137 125/125/125 138/138/138
f 138/138/138 125/125/125 139/139/139
f 100/100/100 102/102/102 122/122/122
f 103/103/103 114/114/114 112/112/112
f 112/112/112 114/114/114 116/116/116
f 120/120/120 114/114/114 105/105/105
f 105/105/105 114/114/114 103/103/103
f 132/132/132 133/133/133 250/250/250
f 250/250/250 133/133/133 251/251/251
f 252/252/252 135/135/135 250/250/250
f 250/250/250 135/135/135 132/132/132
f 171/171/171 192/192/192 193/193/193
f 160/160/160 253/253/253 254/254/254
f 160/160/160 156/156/156 253/253/253
f 171/171/171 170/170/170 192/192/192
f 255/255/255 111/111/111 113/113/113
f 255/255/255 131/131/131 111/111/111
f 111/111/111 130/130/130 127/127/127
f 112/112/112 111/111/111 108/108/108
f 216/216/216 214/214/214 217/217/217
f 220/220/220 213/213/213 215/215/215
f 157/157/157 203/203/203 185/185/185
f 36/36/36 35/35/35 53/53/53
f 36/36/36 53/53/53 256/256/256
f 237/237/237 225/225/225 257/257/257
f 258/258/258 259/259/259 260/260/260
f 260/260/260 259/259/259 261/261/261
f 262/262/262 263/263/263 264/264/264
f 265/265/265 266/266/266 267/267/267
f 258/258/258 268/268/268 259/259/259
f 259/259/259 268/268/268 269/269/269
f 270/270/270 271/271/271 266/266/266
f 266/266/266 271/271/271 272/272/272
f 273/273/273 274/274/274 271/271/271
f 275/275/275 276/276/276 277/277/277
f 277/277/277 276/276/276 278/278/278
f 279/279/279 280/280/280 281/281/281
f 261/261/261 282/282/282 262/262/262
f 283/283/283 284/284/284 285/285/285
f 286/286/286 287/287/287 284/284/284
f 284/284/284 287/287/287 288/288/288
f 287/287/287 289/289/289 288/288/288
f 288/288/288 289/289/289 290/290/290
f 289/289/289 291/291/291 290/290/290
f 292/292/292 293/293/293 294/294/294
f 294/294/294 293/293/293 295/295/295
f 296/296/296 297/297/297 292/292/292
f 292/292/292 297/297/297 293/293/293
f 298/298/298 299/299/299 296/296/296
f 296/296/296 299/299/299 297/297/297
f 283/283/283 285/285/285 298/298/298
f 298/298/298 285/285/285 299/299/299
f 276/276/276 275/275/275 300/300/300
f 300/300/300 275/275/275 301/301/301
f 263/263/263 265/265/265 264/264/264
f 302/302/302 303/303/303 304/304/304
f 305/305/305 306/306/306 304/304/304
f 303/303/303 305/305/305 304/304/304
f 306/306/306 307/307/307 304/304/304
f 308/308/308 274/274/274 309/309/309
f 309/309/309 274/274/274 273/273/273
f 269/269/269 310/310/310 311/311/311
f 311/311/311 312/312/312 269/269/269
f 313/313/313 312/312/312 314/314/314
f 314/314/314 312/312/312 311/311/311
f 315/315/315 286/286/286 316/316/316
f 316/316/316 286/286/286 317/317/317
f 315/315/315 318/318/318 286/286/286
f 286/286/286 318/318/318 287/287/287
f 318/318/318 319/319/319 287/287/287
f 287/287/287 319/319/319 289/289/289
f 319/319/319 320/320/320 289/289/289
f 289/289/289 320/320/320 321/321/321
f 322/322/322 323/323/323 324/324/324
f 324/324/324 323/323/323 325/325/325
f 324/324/324 325/325/325 326/326/326
f 326/326/326 325/325/325 327/327/327
f 326/326/326 327/327/327 328/328/328
f 328/328/328 327/327/327 329/329/329
f 329/329/329 316/316/316 328/328/328
f 328/328/328 316/316/316 317/317/317
f 269/269/269 312/312/312 330/330/330
f 270/270/270 265/265/265 263/263/263
f 330/330/330 282/282/282 259/259/259
f 269/269/269 330/330/330 259/259/259
f 270/270/270 266/266/266 265/265/265
f 259/259/259 282/282/282 261/261/261
f 282/282/282 263/263/263 262/262/262
f 281/281/281 277/277/277 279/279/279
f 279/279/279 277/277/277 278/278/278
f 313/313/313 314/314/314 273/273/273
f 273/273/273 314/314/314 309/309/309
f 331/331/331 332/332/332 333/333/333
f 333/333/333 332/332/332 334/334/334
f 335/335/335 331/331/331 336/336/336
f 336/336/336 331/331/331 333/333/333
f 337/337/337 335/335/335 338/338/338
f 338/338/338 335/335/335 336/336/336
f 339/339/339 340/340/340 341/341/341
f 341/341/341 340/340/340 342/342/342
f 341/341/341 342/342/342 343/343/343
f 343/343/343 342/342/342 344/344/344
f 345/345/345 343/343/343 346/346/346
f 346/346/346 343/343/343 344/344/344
f 347/347/347 345/345/345 348/348/348
f 348/348/348 345/345/345 346/346/346
f 347/347/347 348/348/348 332/332/332
f 332/332/332 348/348/348 334/334/334
f 346/346/346 349/349/349 350/350/350
f 350/350/350 351/351/351 348/348/348
f 348/348/348 351/351/351 334/334/334
f 352/352/352 353/353/353 333/333/333
f 333/333/333 353/353/353 336/336/336
f 354/354/354 355/355/355 356/356/356
f 357/357/357 358/358/358 359/359/359
f 359/359/359 358/358/358 360/360/360
f 361/361/361 342/342/342 362/362/362
f 362/362/362 342/342/342 340/340/340
f 363/363/363 362/362/362 340/340/340
f 361/361/361 362/362/362 359/359/359
f 359/359/359 362/362/362 357/357/357
f 362/362/362 363/363/363 357/357/357
f 357/357/357 363/363/363 358/358/358
f 361/361/361 359/359/359 364/364/364
f 364/364/364 359/359/359 360/360/360
f 365/365/365 349/349/349 366/366/366
f 350/350/350 348/348/348 346/346/346
f 352/352/352 351/351/351 365/365/365
f 365/365/365 351/351/351 350/350/350
f 352/352/352 333/333/333 351/351/351
f 365/365/365 350/350/350 349/349/349
f 361/361/361 364/364/364 342/342/342
f 342/342/342 364/364/364 344/344/344
f 333/333/333 334/334/334 351/351/351
f 346/346/346 344/344/344 349/349/349
f 366/366/366 349/349/349 344/344/344
f 366/366/366 360/360/360 365/365/365
f 360/360/360 366/366/366 364/364/364
f 365/365/365 355/355/355 352/352/352
f 352/352/352 355/355/355 354/354/354
f 338/338/338 336/336/336 367/367/367
f 368/368/368 367/367/367 353/353/353
f 353/353/353 367/367/367 336/336/336
f 289/289/289 321/321/321 291/291/291
f 324/324/324 292/292/292 322/322/322
f 322/322/322 292/292/292 294/294/294
f 326/326/326 296/296/296 324/324/324
f 324/324/324 296/296/296 292/292/292
f 328/328/328 298/298/298 326/326/326
f 326/326/326 298/298/298 296/296/296
f 317/317/317 283/283/283 328/328/328
f 328/328/328 283/283/283 298/298/298
f 317/317/317 286/286/286 283/283/283
f 299/299/299 285/285/285 332/332/332
f 332/332/332 285/285/285 347/347/347
f 299/299/299 332/332/332 297/297/297
f 297/297/297 332/332/332 331/331/331
f 297/297/297 331/331/331 293/293/293
f 293/293/293 331/331/331 335/335/335
f 293/293/293 335/335/335 295/295/295
f 295/295/295 335/335/335 337/337/337
f 369/369/369 339/339/339 290/290/290
f 290/290/290 339/339/339 341/341/341
f 288/288/288 290/290/290 343/343/343
f 343/343/343 290/290/290 341/341/341
f 284/284/284 288/288/288 345/345/345
f 345/345/345 288/288/288 343/343/343
f 285/285/285 284/284/284 347/347/347
f 347/347/347 284/284/284 345/345/345
f 290/290/290 291/291/291 369/369/369
f 283/283/283 286/286/286 284/284/284
f 370/370/370 280/280/280 279/279/279
f 271/271/271 274/274/274 272/272/272
f 366/366/366 344/344/344 364/364/364
f 310/310/310 371/371/371 311/311/311
f 311/311/311 371/371/371 372/372/372
f 311/311/311 372/372/372 314/314/314
f 314/314/314 372/372/372 373/373/373
f 314/314/314 373/373/373 309/309/309
f 309/309/309 373/373/373 374/374/374
f 375/375/375 308/308/308 374/374/374
f 374/374/374 308/308/308 309/309/309
f 371/371/371 301/301/301 372/372/372
f 372/372/372 301/301/301 275/275/275
f 373/373/373 372/372/372 277/277/277
f 277/277/277 372/372/372 275/275/275
f 374/374/374 373/373/373 281/281/281
f 281/281/281 373/373/373 277/277/277
f 281/281/281 280/280/280 374/374/374
f 374/374/374 280/280/280 375/375/375
f 269/269/269 268/268/268 310/310/310
f 376/376/376 377/377/377 378/378/378
f 378/378/378 377/377/377 379/379/379
f 378/378/378 379/379/379 380/380/380
f 380/380/380 379/379/379 381/381/381
f 380/380/380 381/381/381 382/382/382
f 382/382/382 381/381/381 383/383/383
f 384/384/384 385/385/385 376/376/376
f 376/376/376 385/385/385 377/377/377
f 386/386/386 387/387/387 384/384/384
f 384/384/384 387/387/387 385/385/385
f 388/388/388 389/389/389 390/390/390
f 389/389/389 391/391/391 390/390/390
f 391/391/391 392/392/392 390/390/390
f 392/392/392 393/393/393 390/390/390
f 393/393/393 394/394/394 390/390/390
f 394/394/394 388/388/388 390/390/390
f 395/395/395 396/396/396 386/386/386
f 386/386/386 396/396/396 387/387/387
f 260/260/260 397/397/397 258/258/258
f 258/258/258 397/397/397 398/398/398
f 399/399/399 400/400/400 401/401/401
f 402/402/402 267/267/267 266/266/266
f 398/398/398 403/403/403 258/258/258
f 258/258/258 403/403/403 268/268/268
f 404/404/404 266/266/266 405/405/405
f 405/405/405 266/266/266 272/272/272
f 406/406/406 405/405/405 274/274/274
f 407/407/407 408/408/408 409/409/409
f 409/409/409 408/408/408 410/410/410
f 411/411/411 412/412/412 280/280/280
f 397/397/397 399/399/399 413/413/413
f 414/414/414 415/415/415 416/416/416
f 417/417/417 416/416/416 418/418/418
f 418/418/418 416/416/416 419/419/419
f 418/418/418 419/419/419 420/420/420
f 420/420/420 419/419/419 421/421/421
f 420/420/420 421/421/421 422/422/422
f 423/423/423 424/424/424 425/425/425
f 425/425/425 424/424/424 426/426/426
f 426/426/426 424/424/424 427/427/427
f 427/427/427 424/424/424 428/428/428
f 427/427/427 428/428/428 429/429/429
f 429/429/429 428/428/428 430/430/430
f 429/429/429 430/430/430 414/414/414
f 414/414/414 430/430/430 415/415/415
f 300/300/300 301/301/301 410/410/410
f 410/410/410 301/301/301 409/409/409
f 401/401/401 400/400/400 402/402/402
f 302/302/302 304/304/304 431/431/431
f 432/432/432 304/304/304 433/433/433
f 431/431/431 304/304/304 432/432/432
f 433/433/433 304/304/304 307/307/307
f 406/406/406 274/274/274 434/434/434
f 434/434/434 274/274/274 308/308/308
f 403/403/403 435/435/435 310/310/310
f 435/435/435 403/403/403 436/436/436
f 437/437/437 438/438/438 436/436/436
f 436/436/436 438/438/438 435/435/435
f 439/439/439 417/417/417 440/440/440
f 440/440/440 417/417/417 441/441/441
f 418/418/418 442/442/442 417/417/417
f 417/417/417 442/442/442 441/441/441
f 420/420/420 443/443/443 418/418/418
f 418/418/418 443/443/443 442/442/442
f 444/444/444 445/445/445 420/420/420
f 420/420/420 445/445/445 443/443/443
f 446/446/446 447/447/447 448/448/448
f 448/448/448 447/447/447 449/449/449
f 446/446/446 450/450/450 447/447/447
f 447/447/447 450/450/450 451/451/451
f 450/450/450 452/452/452 451/451/451
f 451/451/451 452/452/452 453/453/453
f 439/439/439 440/440/440 452/452/452
f 452/452/452 440/440/440 453/453/453
f 403/403/403 454/454/454 436/436/436
f 404/404/404 401/401/401 402/402/402
f 454/454/454 398/398/398 413/413/413
f 403/403/403 398/398/398 454/454/454
f 404/404/404 402/402/402 266/266/266
f 398/398/398 397/397/397 413/413/413
f 413/413/413 399/399/399 401/401/401
f 412/412/412 411/411/411 407/407/407
f 407/407/407 411/411/411 408/408/408
f 406/406/406 434/434/434 437/437/437
f 437/437/437 434/434/434 438/438/438
f 455/455/455 456/456/456 457/457/457
f 457/457/457 456/456/456 458/458/458
f 459/459/459 460/460/460 455/455/455
f 455/455/455 460/460/460 456/456/456
f 461/461/461 462/462/462 459/459/459
f 459/459/459 462/462/462 460/460/460
f 463/463/463 464/464/464 465/465/465
f 465/465/465 464/464/464 466/466/466
f 467/467/467 463/463/463 468/468/468
f 468/468/468 463/463/463 465/465/465
f 469/469/469 470/470/470 468/468/468
f 468/468/468 470/470/470 467/467/467
f 471/471/471 472/472/472 469/469/469
f 469/469/469 472/472/472 470/470/470
f 458/458/458 472/472/472 457/457/457
f 457/457/457 472/472/472 471/471/471
f 470/470/470 473/473/473 474/474/474
f 473/473/473 472/472/472 475/475/475
f 472/472/472 458/458/458 475/475/475
f 460/460/460 476/476/476 456/456/456
f 456/456/456 476/476/476 477/477/477
f 478/478/478 479/479/479 480/480/480
f 481/481/481 482/482/482 483/483/483
f 483/483/483 482/482/482 484/484/484
f 464/464/464 463/463/463 485/485/485
f 485/485/485 463/463/463 486/486/486
f 487/487/487 464/464/464 485/485/485
f 486/486/486 483/483/483 485/485/485
f 485/485/485 483/483/483 484/484/484
f 485/485/485 484/484/484 487/487/487
f 487/487/487 484/484/484 482/482/482
f 481/481/481 483/483/483 488/488/488
f 488/488/488 483/483/483 486/486/486
f 489/489/489 490/490/490 474/474/474
f 473/473/473 470/470/470 472/472/472
f 477/477/477 489/489/489 475/475/475
f 475/475/475 489/489/489 473/473/473
f 477/477/477 475/475/475 456/456/456
f 489/489/489 474/474/474 473/473/473
f 467/467/467 488/488/488 463/463/463
f 463/463/463 488/488/488 486/486/486
f 456/456/456 475/475/475 458/458/458
f 470/470/470 474/474/474 467/467/467
f 490/490/490 467/467/467 474/474/474
f 490/490/490 489/489/489 481/481/481
f 481/481/481 488/488/488 490/490/490
f 478/478/478 480/480/480 477/477/477
f 477/477/477 480/480/480 489/489/489
f 462/462/462 491/491/491 460/460/460
f 492/492/492 476/476/476 491/491/491
f 476/476/476 460/460/460 491/491/491
f 420/420/420 422/422/422 444/444/444
f 425/425/425 426/426/426 448/448/448
f 448/448/448 426/426/426 446/446/446
f 446/446/446 426/426/426 450/450/450
f 450/450/450 426/426/426 427/427/427
f 427/427/427 429/429/429 450/450/450
f 450/450/450 429/429/429 452/452/452
f 429/429/429 414/414/414 452/452/452
f 452/452/452 414/414/414 439/439/439
f 439/439/439 414/414/414 417/417/417
f 430/430/430 457/457/457 415/415/415
f 415/415/415 457/457/457 471/471/471
f 428/428/428 455/455/455 430/430/430
f 430/430/430 455/455/455 457/457/457
f 459/459/459 455/455/455 424/424/424
f 424/424/424 455/455/455 428/428/428
f 461/461/461 459/459/459 423/423/423
f 423/423/423 459/459/459 424/424/424
f 465/465/465 466/466/466 421/421/421
f 421/421/421 466/466/466 493/493/493
f 468/468/468 465/465/465 419/419/419
f 419/419/419 465/465/465 421/421/421
f 416/416/416 469/469/469 419/419/419
f 419/419/419 469/469/469 468/468/468
f 415/415/415 471/471/471 416/416/416
f 416/416/416 471/471/471 469/469/469
f 421/421/421 493/493/493 422/422/422
f 414/414/414 416/416/416 417/417/417
f 370/370/370 411/411/411 280/280/280
f 405/405/405 272/272/272 274/274/274
f 490/490/490 488/488/488 467/467/467
f 435/435/435 494/494/494 310/310/310
f 310/310/310 494/494/494 371/371/371
f 438/438/438 495/495/495 435/435/435
f 435/435/435 495/495/495 494/494/494
f 434/434/434 496/496/496 438/438/438
f 438/438/438 496/496/496 495/495/495
f 496/496/496 434/434/434 375/375/375
f 375/375/375 434/434/434 308/308/308
f 494/494/494 409/409/409 371/371/371
f 371/371/371 409/409/409 301/301/301
f 495/495/495 407/407/407 494/494/494
f 494/494/494 407/407/407 409/409/409
f 496/496/496 412/412/412 495/495/495
f 495/495/495 412/412/412 407/407/407
f 412/412/412 496/496/496 280/280/280
f 280/280/280 496/496/496 375/375/375
f 403/403/403 310/310/310 268/268/268
f 497/497/497 498/498/498 499/499/499
f 499/499/499 498/498/498 500/500/500
f 498/498/498 501/501/501 500/500/500
f 500/500/500 501/501/501 502/502/502
f 502/502/502 501/501/501 503/503/503
f 503/503/503 501/501/501 504/504/504
f 505/505/505 497/497/497 506/506/506
f 506/506/506 497/497/497 499/499/499
f 507/507/507 505/505/505 508/508/508
f 508/508/508 505/505/505 506/506/506
f 509/509/509 510/510/510 511/511/511
f 511/511/511 510/510/510 512/512/512
f 512/512/512 510/510/510 513/513/513
f 513/513/513 510/510/510 514/514/514
f 514/514/514 510/510/510 515/515/515
f 515/515/515 510/510/510 509/509/509
f 516/516/516 517/517/517 508/508/508
f 508/508/508 517/517/517 507/507/507
f 44/44/44 45/45/45 3/3/3
f 194/194/194 518/518/518 158/158/158
f 195/195/195 158/158/158 157/157/157
f 106/106/106 119/119/119 107/107/107
f 519/519/519 381/381/381 520/520/520
f 520/520/520 381/381/381 379/379/379
f 521/521/521 383/383/383 519/519/519
f 519/519/519 383/383/383 381/381/381
f 387/387/387 396/396/396 522/522/522
f 522/522/522 396/396/396 523/523/523
f 387/387/387 522/522/522 385/385/385
f 385/385/385 522/522/522 524/524/524
f 385/385/385 524/524/524 377/377/377
f 377/377/377 524/524/524 525/525/525
f 520/520/520 379/379/379 525/525/525
f 525/525/525 379/379/379 377/377/377
f 501/501/501 498/498/498 526/526/526
f 526/526/526 498/498/498 527/527/527
f 504/504/504 501/501/501 528/528/528
f 528/528/528 501/501/501 526/526/526
f 507/507/507 517/517/517 529/529/529
f 529/529/529 517/517/517 530/530/530
f 505/505/505 507/507/507 531/531/531
f 531/531/531 507/507/507 529/529/529
f 497/497/497 505/505/505 532/532/532
f 532/532/532 505/505/505 531/531/531
f 498/498/498 497/497/497 527/527/527
f 527/527/527 497/497/497 532/532/532
