# Extracted from the Cocos Creator 3.8.3 playable build
# Geometry-only OBJ preview for Unity; rig and animation stay in the raw assets.
o player_soldier_cavalry
v -0.267452002 1.94111991 1.18336332
v -0.216199666 1.5746454 1.29533219
v -0.237094298 1.59186602 2.15457082
v 0.0743871331 1.38953173 2.01308107
v -0.0355649516 0.296305716 2.47522736
v -0.00378834875 2.15788007 1.21896136
v 0.0628375039 1.70141017 2.32966661
v -0.0355649516 0.296305716 2.47522736
v 0.0442809612 1.54740059 1.07121408
v -0.00378834875 2.15788007 1.21896136
v 0.0442809612 1.54740059 1.07121408
v -0.267452002 1.94111991 1.18336332
v 0.29049477 1.98842144 1.16944432
v 0.370716125 1.61052287 2.15250397
v 0.307236284 1.61902106 1.28227413
v 0.29049477 1.98842144 1.16944432
v -0.458356053 0.14094229 1.31921518
v -0.454094946 -1.09051013 1.39930248
v -0.888520956 0.331566304 1.68979275
v -0.746595979 -1.38581634 1.52607358
v -0.544647753 -2.2434628 2.40770936
v -0.0180642121 -2.25605416 2.26435399
v -0.466522515 -2.74140406 1.95464659
v -0.0310203526 -2.70974493 1.81069291
v -0.611646831 1.09920847 2.21025538
v -0.726456046 0.500620723 2.55215073
v -0.563570321 0.955958784 2.48428011
v -0.887718856 0.333345264 1.18702519
v -0.888520956 0.331566304 1.68979275
v -0.604267776 0.807068229 1.31222105
v -0.769586623 0.890906215 1.67573929
v -0.915447533 0.459663957 0.602750421
v -0.887718856 0.333345264 1.18702519
v -0.732581556 0.9219715 0.600342453
v -0.604267776 0.807068229 1.31222105
v -0.326981187 0.626593947 0.601878405
v -0.313626826 0.497691482 1.16385972
v -0.568904698 0.163877234 0.604288816
v -0.59492892 0.101603754 1.1146338
v -0.915447533 0.459663957 0.602750421
v -0.887718856 0.333345264 1.18702519
v -0.0817828253 0.23923108 1.21329713
v -0.060868483 -1.25599587 1.18613887
v -0.218489707 -1.41070187 1.31771827
v -0.59492892 0.101603754 1.1146338
v -0.887718856 0.333345264 1.18702519
v -0.060868483 -1.25599587 1.18613887
v -0.0808143765 -1.72817409 1.35605705
v -0.218489707 -1.41070187 1.31771827
v -0.543803632 -1.76287985 1.49934578
v -0.895197272 -1.10877669 1.6590023
v -0.746595979 -1.38581634 1.52607358
v -0.624118567 -1.87150252 2.05743027
v -0.326981187 0.626593947 0.601878405
v -0.313626826 0.497691482 1.16385972
v -0.0211491454 0.454512 2.77694201
v 0.0521744415 1.01664484 2.66398716
v -0.0180642121 -2.25605416 2.26435399
v -0.544647753 -2.2434628 2.40770936
v -0.624118567 -1.87150252 2.05743027
v 0.0839352608 1.27241278 1.72010815
v 0.0836354494 1.2720257 2.16695595
v -0.313626826 0.497691482 1.16385972
v -0.313626826 0.497691482 1.16385972
v -0.528509796 -2.81087971 2.67309451
v -0.600669205 -2.32113791 3.10941982
v -0.0355155803 -3.42551589 2.23219705
v -0.0290204138 -3.12302327 2.80569601
v -0.463156879 -3.13442016 2.1730442
v -0.348769605 -1.60134268 0.570812345
v -0.0993057489 -1.24848473 0.57029748
v -0.409527123 -1.53185701 0.935948133
v -0.154476598 -1.16026461 0.980230987
v -0.0993057489 -1.24848473 0.57029748
v -0.393443525 -0.843181729 0.562349558
v -0.154476598 -1.16026461 0.980230987
v -0.432606339 -0.819551229 1.04212105
v -0.70220542 -1.25752652 0.56275332
v -0.708956182 -1.20501304 1.01819968
v -0.70220542 -1.25752652 0.56275332
v -0.708956182 -1.20501304 1.01819968
v -0.460053533 -2.23679638 3.46829724
v -0.563550889 -2.57936811 3.81647611
v -0.289080769 -2.50724983 3.52932763
v -0.635498345 -2.45465517 3.47655225
v -0.409527123 -1.53185701 0.935948133
v -0.708956182 -1.20501304 1.01819968
v -0.708956182 -1.20501304 1.01819968
v -0.432606339 -0.819551229 1.04212105
v -0.154476598 -1.16026461 0.980230987
v -0.154476598 -1.16026461 0.980230987
v -0.313626826 0.497691482 1.16385972
v -0.0817828253 0.23923108 1.21329713
v -0.635498345 -2.45465517 3.47655225
v -0.600669205 -2.32113791 3.10941982
v -0.289080769 -2.50724983 3.52932763
v -0.600669205 -2.32113791 3.10941982
v -0.772926033 -1.18516779 2.0144546
v -0.624118567 -1.87150252 2.05743027
v -0.600669205 -2.32113791 3.10941982
v -0.706599951 -2.15388799 3.17842412
v -0.701527476 -1.05921245 2.69791985
v -0.809193552 -1.81728959 2.20327902
v -0.916343391 -1.24014509 2.04309702
v -0.335491598 -2.27990294 3.68666434
v -0.0591011271 -0.977967501 2.90576291
v -0.0591011271 -0.977967501 2.90576291
v -0.723178387 -1.02185321 2.58277512
v -0.772926033 -1.18516779 2.0144546
v -0.624118567 -1.87150252 2.05743027
v -0.600669205 -2.32113791 3.10941982
v -0.460053533 -2.23679638 3.46829724
v -0.289080769 -2.50724983 3.52932763
v -0.289080769 -2.50724983 3.52932763
v -0.27154848 -2.6294086 3.54660463
v -0.0207246467 -2.76817536 3.58909082
v -0.0127777597 -2.26901579 3.72598958
v -0.598062038 -2.86812496 2.79659581
v -0.0294081736 -3.26173949 2.96645045
v -0.609185219 -2.63023734 3.21956253
v -0.528509796 -2.81087971 2.67309451
v -0.0290204138 -3.12302327 2.80569601
v -0.600669205 -2.32113791 3.10941982
v -0.726456046 0.500620723 2.55215073
v -0.888520956 0.331566304 1.68979275
v -0.723178387 -1.02185321 2.58277512
v -0.895197272 -1.10877669 1.6590023
v -0.0211491454 0.454512 2.77694201
v -0.0591011271 -0.977967501 2.90576291
v -0.0310203526 -2.70974493 1.81069291
v -0.463156879 -3.13442016 2.1730442
v -0.466522515 -2.74140406 1.95464659
v -0.0355155803 -3.42551589 2.23219705
v -0.723178387 -1.02185321 2.58277512
v -0.289080769 -2.50724983 3.52932763
v -0.563550889 -2.57936811 3.81647611
v 0.643378735 -1.35253739 1.5284704
v 0.375213742 -1.03663492 1.4043566
v 0.751297534 0.167333007 1.73137915
v 0.249729171 -0.0438827015 1.44064796
v 0.508973658 -2.22917986 2.40425491
v 0.405498713 -2.75002003 1.94931495
v 0.716184437 0.935625374 2.21025324
v 0.6347785 0.808327258 2.48427796
v 0.680629611 0.376974046 2.55232811
v 0.724102557 0.525824487 1.59782624
v 0.751297534 0.167333007 1.73137915
v 0.476913095 0.382261992 1.29791391
v 0.645884871 -0.158817902 1.26655316
v 0.543872595 0.392082512 0.603268921
v 0.476913095 0.382261992 1.29791391
v 0.72772485 -0.0698336363 0.605671465
v 0.645884871 -0.158817902 1.26655316
v 0.381814003 -0.366359204 0.60721463
v 0.309544474 -0.333305389 1.26905036
v 0.138903484 0.0958401188 0.604810715
v 0.113448791 0.114296027 1.2487725
v 0.72772485 -0.0698336363 0.605671465
v 0.645884871 -0.158817902 1.26655316
v 0.124156818 -1.33547366 1.2999469
v 0.645884871 -0.158817902 1.26655316
v 0.309544474 -0.333305389 1.26905036
v 0.124156818 -1.33547366 1.2999469
v 0.419209063 -1.71202028 1.4771986
v 0.764279068 -1.10709035 1.66529202
v 0.543704033 -1.84379601 2.05648208
v 0.643378735 -1.35253739 1.5284704
v 0.113448791 0.114296027 1.2487725
v 0.138903484 0.0958401188 0.604810715
v 0.543704033 -1.84379601 2.05648208
v 0.508973658 -2.22917986 2.40425491
v 0.113448791 0.114296027 1.2487725
v 0.113448791 0.114296027 1.2487725
v 0.571988702 -2.30524111 3.10557508
v 0.474880487 -2.82079363 2.66695976
v 0.397038728 -3.1429193 2.16778517
v 0.266126156 -1.49771571 0.561434984
v 0.324443251 -1.44309151 0.924490333
v 0.0393035896 -1.12994349 0.567464113
v 0.0768745616 -1.06897783 0.977412164
v 0.0393035896 -1.12994349 0.567464113
v 0.0768745616 -1.06897783 0.977412164
v 0.358339429 -0.743984044 0.577585518
v 0.361948043 -0.761877179 1.05839097
v 0.639875531 -1.14133334 1.02986252
v 0.640484452 -1.17683625 0.570592761
v 0.639875531 -1.14133334 1.02986252
v 0.640484452 -1.17683625 0.570592761
v 0.431646407 -2.22470832 3.46537375
v 0.251983851 -2.51259589 3.52601957
v 0.528465688 -2.59015799 3.80979943
v 0.598701894 -2.4668498 3.4690063
v 0.324443251 -1.44309151 0.924490333
v 0.639875531 -1.14133334 1.02986252
v 0.639875531 -1.14133334 1.02986252
v 0.361948043 -0.761877179 1.05839097
v 0.0768745616 -1.06897783 0.977412164
v 0.0768745616 -1.06897783 0.977412164
v 0.113448791 0.114296027 1.2487725
v 0.598701894 -2.4668498 3.4690063
v 0.251983851 -2.51259589 3.52601957
v 0.571988702 -2.30524111 3.10557508
v 0.571988702 -2.30524111 3.10557508
v 0.654990435 -1.14313197 2.01255536
v 0.543704033 -1.84379601 2.05648208
v 0.571988702 -2.30524111 3.10557508
v 0.673818052 -2.13517475 3.17389822
v 0.721347809 -1.78383052 2.20205069
v 0.587393761 -1.01151311 2.69736433
v 0.801000118 -1.19150805 2.04179525
v 0.309830636 -2.27115488 3.68454862
v 0.606125057 -0.972659588 2.58220243
v 0.654990435 -1.14313197 2.01255536
v 0.543704033 -1.84379601 2.05648208
v 0.571988702 -2.30524111 3.10557508
v 0.431646407 -2.22470832 3.46537375
v 0.251983851 -2.51259589 3.52601957
v 0.251983851 -2.51259589 3.52601957
v 0.232253894 -2.63438654 3.5435245
v 0.565784574 -2.6418469 3.21237898
v 0.544792771 -2.87941694 2.78960848
v 0.474880487 -2.82079363 2.66695976
v 0.571988702 -2.30524111 3.10557508
v 0.680629611 0.376974046 2.55232811
v 0.606125057 -0.972659588 2.58220243
v 0.751297534 0.167333007 1.73137915
v 0.764279068 -1.10709035 1.66529202
v 0.405498713 -2.75002003 1.94931495
v 0.397038728 -3.1429193 2.16778517
v 0.606125057 -0.972659588 2.58220243
v 0.251983851 -2.51259589 3.52601957
v 0.528465688 -2.59015799 3.80979943
vt 0.891201675 0.611975908
vt 0.937791884 0.602402449
vt 0.931352794 0.498087406
vt 0.981180489 0.504028201
vt 0.954366565 0.460006595
vt 0.846718609 0.622226954
vt 0.889849603 0.46484828
vt 0.954366565 0.460006595
vt 0.960080445 0.650595605
vt 0.846718609 0.622226954
vt 0.960080445 0.650595605
vt 0.891201675 0.611975908
vt 0.891201675 0.611975908
vt 0.931352794 0.498087406
vt 0.937791884 0.602402449
vt 0.891201675 0.611975908
vt 0.684160233 0.293469548
vt 0.558027864 0.348925471
vt 0.713691235 0.362257242
vt 0.524967372 0.412001908
vt 0.45476079 0.600461364
vt 0.398027807 0.566604674
vt 0.379511893 0.633949578
vt 0.335623115 0.618554711
vt 0.805936038 0.411168933
vt 0.746608496 0.460374177
vt 0.801174521 0.441182971
vt 0.757599354 0.288253546
vt 0.713691235 0.362257242
vt 0.820707679 0.309446692
vt 0.806017101 0.362200797
vt 0.781369805 0.22246635
vt 0.757599354 0.288253546
vt 0.828359425 0.225820899
vt 0.820707679 0.309446692
vt 0.713944614 0.194886923
vt 0.696314573 0.247022867
vt 0.741234601 0.209877968
vt 0.718770027 0.267212868
vt 0.781369805 0.22246635
vt 0.757599354 0.288253546
vt 0.679002404 0.254479289
vt 0.570231795 0.256554663
vt 0.550621748 0.275066137
vt 0.718770027 0.267212868
vt 0.757599354 0.288253546
vt 0.397425711 0.429842353
vt 0.413409501 0.463796675
vt 0.420155108 0.427623153
vt 0.465219945 0.443448901
vt 0.564504564 0.425803781
vt 0.524967372 0.412001908
vt 0.479864389 0.529476047
vt 0.892453432 0.223474026
vt 0.893910944 0.29577142
vt 0.791506946 0.529326797
vt 0.854178905 0.487417102
vt 0.398027807 0.566604674
vt 0.45476079 0.600461364
vt 0.479864389 0.529476047
vt 0.883020818 0.372540236
vt 0.881840885 0.423291743
vt 0.893910944 0.29577142
vt 0.696314573 0.247022867
vt 0.441275448 0.665421784
vt 0.510461807 0.663219213
vt 0.34102723 0.72423023
vt 0.40807429 0.762500107
vt 0.37558049 0.669941187
vt 0.390801907 0.352433026
vt 0.370174766 0.37155968
vt 0.427030146 0.391793549
vt 0.401181579 0.405125558
vt 0.467947721 0.248862028
vt 0.472152233 0.297996879
vt 0.515575886 0.263742685
vt 0.515154243 0.321256101
vt 0.437547952 0.328485489
vt 0.476646692 0.364579141
vt 0.437547952 0.328485489
vt 0.476646692 0.364579141
vt 0.771485448 0.672059834
vt 0.738990664 0.623554826
vt 0.803853989 0.583590746
vt 0.738990664 0.623554826
vt 0.427030146 0.391793549
vt 0.476646692 0.364579141
vt 0.476646692 0.364579141
vt 0.515154243 0.321256101
vt 0.515575886 0.263742685
vt 0.401181579 0.405125558
vt 0.893910944 0.29577142
vt 0.943196535 0.294936717
vt 0.738990664 0.623554826
vt 0.803853989 0.583590746
vt 0.803853989 0.583590746
vt 0.803853989 0.583590746
vt 0.567980111 0.467827439
vt 0.479864389 0.529476047
vt 0.510461807 0.663219213
vt 0.528154254 0.652572393
vt 0.608269632 0.550042093
vt 0.504638672 0.544720829
vt 0.561857879 0.483971119
vt 0.558222175 0.718358397
vt 0.666153073 0.596264839
vt 0.666153073 0.596264839
vt 0.610476851 0.530183017
vt 0.567980111 0.467827439
vt 0.479864389 0.529476047
vt 0.510461807 0.663219213
vt 0.53505528 0.697431803
vt 0.533690453 0.721417367
vt 0.533690453 0.721417367
vt 0.532621086 0.746541321
vt 0.528975964 0.772495627
vt 0.580121636 0.736580253
vt 0.450188428 0.695290744
vt 0.432030886 0.770934045
vt 0.499133319 0.699578822
vt 0.441275448 0.665421784
vt 0.40807429 0.762500107
vt 0.510461807 0.663219213
vt 0.746608496 0.460374177
vt 0.713691235 0.362257242
vt 0.610476851 0.530183017
vt 0.564504564 0.425803781
vt 0.791506946 0.529326797
vt 0.666153073 0.596264839
vt 0.335623115 0.618554711
vt 0.37558049 0.669941187
vt 0.379511893 0.633949578
vt 0.34102723 0.72423023
vt 0.610476851 0.530183017
vt 0.533690453 0.721417367
vt 0.738990664 0.623554826
vt 0.524967372 0.412001908
vt 0.558027864 0.348925471
vt 0.713691235 0.362257242
vt 0.684160233 0.293469548
vt 0.45476079 0.600461364
vt 0.379511893 0.633949578
vt 0.805936038 0.411168933
vt 0.801174521 0.441182971
vt 0.746608496 0.460374177
vt 0.806017101 0.362200797
vt 0.713691235 0.362257242
vt 0.820707679 0.309446692
vt 0.757599354 0.288253546
vt 0.828359425 0.225820899
vt 0.820707679 0.309446692
vt 0.781369805 0.22246635
vt 0.757599354 0.288253546
vt 0.741234601 0.209877968
vt 0.718770027 0.267212868
vt 0.713944614 0.194886923
vt 0.696314573 0.247022867
vt 0.781369805 0.22246635
vt 0.757599354 0.288253546
vt 0.550621748 0.275066137
vt 0.757599354 0.288253546
vt 0.718770027 0.267212868
vt 0.420155108 0.427623153
vt 0.465219945 0.443448901
vt 0.564504564 0.425803781
vt 0.479864389 0.529476047
vt 0.524967372 0.412001908
vt 0.893910944 0.29577142
vt 0.892453432 0.223474026
vt 0.479864389 0.529476047
vt 0.45476079 0.600461364
vt 0.893910944 0.29577142
vt 0.696314573 0.247022867
vt 0.510461807 0.663219213
vt 0.441275448 0.665421784
vt 0.37558049 0.669941187
vt 0.390801907 0.352433026
vt 0.427030146 0.391793549
vt 0.370174766 0.37155968
vt 0.401181579 0.405125558
vt 0.467947721 0.248862028
vt 0.515575886 0.263742685
vt 0.472152233 0.297996879
vt 0.515154243 0.321256101
vt 0.476646692 0.364579141
vt 0.437547952 0.328485489
vt 0.476646692 0.364579141
vt 0.437547952 0.328485489
vt 0.771485448 0.672059834
vt 0.803853989 0.583590746
vt 0.738990664 0.623554826
vt 0.738990664 0.623554826
vt 0.427030146 0.391793549
vt 0.476646692 0.364579141
vt 0.476646692 0.364579141
vt 0.515154243 0.321256101
vt 0.515575886 0.263742685
vt 0.401181579 0.405125558
vt 0.893910944 0.29577142
vt 0.738990664 0.623554826
vt 0.803853989 0.583590746
vt 0.803853989 0.583590746
vt 0.803853989 0.583590746
vt 0.567980111 0.467827439
vt 0.479864389 0.529476047
vt 0.510461807 0.663219213
vt 0.528154254 0.652572393
vt 0.504638672 0.544720829
vt 0.608269632 0.550042093
vt 0.561857879 0.483971119
vt 0.558222175 0.718358397
vt 0.610476851 0.530183017
vt 0.567980111 0.467827439
vt 0.479864389 0.529476047
vt 0.510461807 0.663219213
vt 0.53505528 0.697431803
vt 0.533690453 0.721417367
vt 0.533690453 0.721417367
vt 0.532621086 0.746541321
vt 0.499133319 0.699578822
vt 0.450188428 0.695290744
vt 0.441275448 0.665421784
vt 0.510461807 0.663219213
vt 0.746608496 0.460374177
vt 0.610476851 0.530183017
vt 0.713691235 0.362257242
vt 0.564504564 0.425803781
vt 0.379511893 0.633949578
vt 0.37558049 0.669941187
vt 0.610476851 0.530183017
vt 0.533690453 0.721417367
vt 0.738990664 0.623554826
vn -0.747551799 0.622723579 0.231044829
vn -0.759234965 -0.621066332 -0.194522738
vn -0.859757125 0.360481352 0.361760557
vn 0.0577513836 -0.745655537 -0.66382426
vn -0.106082842 -0.78515327 0.610148191
vn -0.0437771194 0.931324303 0.361550242
vn 0.00200680085 0.682329655 0.731041908
vn -0.106082842 -0.78515327 0.610148191
vn 0.0679278821 -0.903274357 -0.42365244
vn -0.0438891463 0.231734902 -0.971788406
vn -0.0438891388 0.231734887 -0.971788466
vn -0.0583421551 0.230484888 -0.971325397
vn 0.656700969 0.726975739 0.200624526
vn 0.816041708 0.419775903 0.397321224
vn 0.839563489 -0.489064485 -0.236535802
vn -0.0294268969 0.232936084 -0.972046673
vn -0.493753105 -0.168640167 -0.853093445
vn -0.612891734 0.232464388 -0.755197883
vn -0.998272955 0.0259656087 -0.0526942909
vn -0.842804253 -0.180582449 -0.507021785
vn -0.884322941 -0.0115161808 -0.466733575
vn 0.0296234637 -0.151346937 -0.988036633
vn -0.785823107 0.365393698 -0.498968542
vn -0.00420488883 0.674484432 -0.738277078
vn -0.534716606 0.836569488 0.119287863
vn -0.780488551 0.0816578269 0.619814098
vn -0.345247418 0.554651141 0.757077515
vn -0.990378916 -0.136407316 0.0232951846
vn -0.998272955 0.0259656087 -0.0526942909
vn -0.394253254 0.852901757 -0.342232257
vn -0.614008844 0.731494188 -0.296494961
vn -0.995324314 0.0171096567 0.0950624943
vn -0.990378916 -0.136407316 0.0232951846
vn -0.339766204 0.914822519 0.21830903
vn -0.394253254 0.852901757 -0.342232257
vn 0.958756387 0.284117609 0.007958306
vn 0.741733551 0.412297726 -0.529000878
vn 0.2865327 -0.945235729 -0.156295881
vn 0.0120130014 -0.987047613 -0.159977704
vn -0.995324314 0.0171096567 0.0950624943
vn -0.990378916 -0.136407316 0.0232951846
vn 0.144310296 0.0535381623 -0.988083065
vn 0.0565495938 -0.0373632312 -0.997700393
vn 0.222339094 -0.331893981 -0.916739702
vn 0.0120130014 -0.987047613 -0.159977704
vn -0.990378916 -0.136407316 0.0232951846
vn 0.0565495938 -0.0373632312 -0.997700393
vn 0.0223857835 -0.790760279 -0.611716449
vn 0.222339094 -0.331893981 -0.916739702
vn -0.413944095 -0.809080124 -0.417180538
vn -0.998697042 -0.025574334 0.0441616066
vn -0.842804253 -0.180582449 -0.507021785
vn -0.418918312 -0.823115945 -0.383389711
vn 0.958756387 0.284117609 0.007958306
vn 0.741733551 0.412297726 -0.529000878
vn -0.0173381772 0.0897150934 0.995816588
vn 0.0632143393 0.558963001 0.826779544
vn 0.0296234637 -0.151346937 -0.988036633
vn -0.884322941 -0.0115161808 -0.466733575
vn -0.418918312 -0.823115945 -0.383389711
vn 0.169652179 0.873176455 -0.456925541
vn 0.169306353 0.98517561 0.0276484322
vn 0.741733551 0.412297726 -0.529000878
vn 0.741733551 0.412297726 -0.529000878
vn -0.928717792 -0.355904043 0.103998609
vn -0.989645422 -0.110776439 -0.0912711695
vn -0.00584539399 -0.882558167 0.470166922
vn -0.0058452771 -0.882558167 0.470166922
vn -0.842198551 -0.497980088 0.206681907
vn 0.0848095492 -0.972296357 0.217823431
vn 0.988063633 0.00840434711 0.153816774
vn -0.0646819174 -0.991057158 -0.116713196
vn 0.972391605 0.145197168 0.182680905
vn 0.988063633 0.00840434711 0.153816774
vn -0.0499532558 0.996373296 -0.0688823536
vn 0.972391605 0.145197168 0.182680905
vn -0.0698404089 0.976059854 0.205984429
vn -0.999077976 -0.0284383092 -0.0321657956
vn -0.995607376 0.0804237947 -0.0479384027
vn -0.999077976 -0.0284383092 -0.0321657956
vn -0.995607376 0.0804237947 -0.0479384027
vn -0.349997759 0.768658936 0.535411179
vn -0.0297936946 -0.495678514 0.867994964
vn 0.568394125 -0.751585424 0.334735066
vn -0.828641117 -0.54265815 -0.137389794
vn -0.0646819174 -0.991057158 -0.116713196
vn -0.995607376 0.0804237947 -0.0479384027
vn -0.995607376 0.0804237947 -0.0479384027
vn -0.0698404089 0.976059854 0.205984429
vn 0.972391605 0.145197168 0.182680905
vn 0.972391605 0.145197168 0.182680905
vn 0.741733551 0.412297726 -0.529000878
vn 0.144310296 0.0535381623 -0.988083065
vn -0.828641117 -0.54265815 -0.137389794
vn -0.811805844 -0.519796073 -0.266051412
vn 0.568394125 -0.751585424 0.334735066
vn -0.811805844 -0.519796073 -0.266051412
vn -0.922778785 -0.28851372 0.255419612
vn -0.418918312 -0.823115945 -0.383389711
vn -0.989645422 -0.110776439 -0.0912711695
vn -0.766055107 0.229468942 0.600419462
vn -0.794863939 0.303261608 0.525569975
vn -0.983520448 -0.180791125 -0.00143787428
vn -0.999695599 0.0245291665 0.00264628744
vn -0.412980437 0.366964459 0.833537161
vn -0.00824228674 0.532253265 0.846545041
vn -0.00824228674 0.532253265 0.846545041
vn -0.5892061 0.80793792 0.00851329416
vn -0.669240892 0.161343008 -0.725317121
vn -0.655791104 -0.563449204 -0.502457023
vn -0.705163658 -0.69364202 -0.146986604
vn -0.659251153 -0.699177444 0.276656598
vn -0.798828244 0.0879419893 0.59509635
vn -0.798828244 0.0879419893 0.59509635
vn -0.452248365 -0.294778645 0.841770053
vn -0.00233225711 -0.735355616 0.677677453
vn 0.00158914924 0.266928017 0.963715196
vn -0.74309355 -0.635842502 0.208605066
vn -0.00647683535 -0.910853267 0.412679553
vn -0.740588546 -0.49210006 0.457565635
vn -0.771579683 -0.418325365 -0.479237586
vn -0.0115381787 -0.782443702 -0.622614384
vn -0.965711892 0.149166882 0.212484524
vn -0.780488551 0.0816578269 0.619814098
vn -0.998272955 0.0259656087 -0.0526942909
vn -0.820530593 0.0256022345 0.571028948
vn -0.998697042 -0.025574334 0.0441616066
vn -0.0173381772 0.0897150934 0.995816588
vn -0.0249983314 0.0502133891 0.998425603
vn -0.0102391737 -0.500711918 -0.865553498
vn -0.225219592 -0.48957327 -0.842374206
vn -0.245450944 -0.472483248 -0.84647119
vn -0.0102810254 -0.507358849 -0.861673594
vn -0.820530593 0.0256022345 0.571028948
vn -0.798828244 0.0879419893 0.59509635
vn -0.0297936946 -0.495678514 0.867994964
vn 0.846819878 -0.180692807 -0.500246227
vn 0.533660173 0.35535568 -0.767417133
vn 0.994546533 -0.0137272105 -0.103386141
vn 0.554599047 -0.119845517 -0.823442161
vn 0.885859847 0.00211134856 -0.463948101
vn 0.790749729 0.33454451 -0.512635112
vn 0.73984921 0.672682524 0.0110120904
vn 0.461125016 0.466978729 0.754516125
vn 0.765928566 0.0294691231 0.642249942
vn 0.64313823 0.493359864 -0.585635781
vn 0.994546533 -0.0137272105 -0.103386141
vn 0.43077153 0.672327995 -0.60200578
vn 0.897189796 -0.39161852 0.204169795
vn 0.414890856 0.90621537 0.0814817101
vn 0.43077153 0.672327995 -0.60200578
vn 0.982813418 -0.14746502 0.111048862
vn 0.897189796 -0.39161852 0.204169795
vn -0.307746619 -0.951310158 -0.0173510555
vn -0.312902987 -0.930198848 0.19189015
vn -0.972739041 0.223316848 -0.062515974
vn -0.790783226 0.361023754 -0.494291157
vn 0.982813418 -0.14746502 0.111048862
vn 0.897189796 -0.39161852 0.204169795
vn -0.051016558 -0.256874442 -0.965097308
vn 0.897189796 -0.39161852 0.204169795
vn -0.312902987 -0.930198848 0.19189015
vn -0.051016558 -0.256874442 -0.965097308
vn 0.417721361 -0.780380785 -0.465311408
vn 0.998903394 -0.0434141085 0.0175300892
vn 0.449387223 -0.790549219 -0.416032583
vn 0.846819878 -0.180692807 -0.500246227
vn -0.790783226 0.361023754 -0.494291157
vn -0.972739041 0.223316848 -0.062515974
vn 0.449387223 -0.790549219 -0.416032583
vn 0.885859847 0.00211134856 -0.463948101
vn -0.790783226 0.361023754 -0.494291157
vn -0.790783226 0.361023754 -0.494291157
vn 0.988117278 -0.115579613 -0.101319566
vn 0.9231776 -0.374215364 0.0877836868
vn 0.83671397 -0.512855232 0.19206579
vn -0.139760718 -0.975852609 0.167864844
vn 0.0281791762 -0.986046433 -0.16406782
vn -0.990855336 0.0655137002 0.117955498
vn -0.96990335 0.183843762 0.159652442
vn -0.990855336 0.0655137002 0.117955498
vn -0.96990335 0.183843762 0.159652442
vn 0.132292435 0.991169393 -0.00905596931
vn 0.0964718238 0.960635006 0.260525405
vn 0.99910152 0.0421810001 -0.004122518
vn 0.997631371 -0.0676354095 0.0125393709
vn 0.99910152 0.0421810001 -0.004122518
vn 0.997631371 -0.0676354095 0.0125393709
vn 0.403781474 0.723035038 0.560518503
vn -0.62775135 -0.695909798 0.348766387
vn 0.0124967722 -0.404711753 0.914358974
vn 0.818570435 -0.550102115 -0.165317774
vn 0.0281791762 -0.986046433 -0.16406782
vn 0.99910152 0.0421810001 -0.004122518
vn 0.99910152 0.0421810001 -0.004122518
vn 0.0964718238 0.960635006 0.260525405
vn -0.96990335 0.183843762 0.159652442
vn -0.96990335 0.183843762 0.159652442
vn -0.790783226 0.361023754 -0.494291157
vn 0.818570435 -0.550102115 -0.165317774
vn -0.62775135 -0.695909798 0.348766387
vn 0.845493495 -0.462081224 -0.267622411
vn 0.845493495 -0.462081224 -0.267622411
vn 0.927894354 -0.262497693 0.264777422
vn 0.449387223 -0.790549219 -0.416032583
vn 0.988117278 -0.115579613 -0.101319566
vn 0.757819116 0.273524016 0.592363775
vn 0.991845548 -0.124614917 -0.0267114472
vn 0.78167057 0.348522961 0.5172261
vn 0.996939957 0.0759551972 -0.018481575
vn 0.402766228 0.386757195 0.829577088
vn 0.556458771 0.830859542 -0.00511011202
vn 0.663167775 0.190885842 -0.723720312
vn 0.677128851 -0.513148665 -0.527422965
vn 0.738390326 -0.652079225 -0.171965927
vn 0.678117931 -0.683866858 0.269225448
vn 0.802627921 0.0546516068 0.593971074
vn 0.802627921 0.0546516068 0.593971074
vn 0.459513009 -0.303391278 0.83474648
vn 0.741386175 -0.502441347 0.44485873
vn 0.737597167 -0.646235526 0.195780262
vn 0.769292533 -0.42872107 -0.473695308
vn 0.971045911 0.102241263 0.21590887
vn 0.765928566 0.0294691231 0.642249942
vn 0.813353181 0.00359943858 0.581759036
vn 0.994546533 -0.0137272105 -0.103386141
vn 0.998903394 -0.0434141085 0.0175300892
vn 0.22569944 -0.477138579 -0.849351883
vn 0.205186889 -0.49382633 -0.845005274
vn 0.813353181 0.00359943858 0.581759036
vn 0.802627921 0.0546516068 0.593971074
vn 0.0124967722 -0.404711753 0.914358974
f 1/1/1 2/2/2 3/3/3
f 3/3/3 4/4/4 5/5/5
f 1/1/1 3/3/3 6/6/6
f 6/6/6 3/3/3 7/7/7
f 7/7/7 3/3/3 8/8/8
f 2/2/2 9/9/9 4/4/4
f 2/2/2 1/1/1 9/9/9
f 2/2/2 4/4/4 3/3/3
f 10/10/10 11/11/11 12/12/12
f 13/13/13 14/14/14 15/15/15
f 14/14/14 5/5/5 4/4/4
f 7/7/7 14/14/14 6/6/6
f 6/6/6 14/14/14 13/13/13
f 7/7/7 8/8/8 14/14/14
f 15/15/15 4/4/4 9/9/9
f 15/15/15 9/9/9 13/13/13
f 15/15/15 14/14/14 4/4/4
f 10/10/10 16/16/16 11/11/11
f 17/17/17 18/18/18 19/19/19
f 19/19/19 18/18/18 20/20/20
f 21/21/21 22/22/22 23/23/23
f 23/23/23 22/22/22 24/24/24
f 25/25/25 26/26/26 27/27/27
f 28/28/28 29/29/29 30/30/30
f 30/30/30 29/29/29 31/31/31
f 32/32/32 33/33/33 34/34/34
f 34/34/34 33/33/33 35/35/35
f 36/36/36 37/37/37 38/38/38
f 38/38/38 37/37/37 39/39/39
f 40/40/40 38/38/38 41/41/41
f 41/41/41 38/38/38 39/39/39
f 42/42/42 43/43/43 17/17/17
f 17/17/17 43/43/43 44/44/44
f 45/45/45 17/17/17 46/46/46
f 46/46/46 17/17/17 19/19/19
f 47/47/47 48/48/48 49/49/49
f 49/49/49 48/48/48 50/50/50
f 51/51/51 52/52/52 53/53/53
f 50/50/50 53/53/53 52/52/52
f 34/34/34 35/35/35 54/54/54
f 54/54/54 35/35/35 55/55/55
f 26/26/26 56/56/56 27/27/27
f 27/27/27 56/56/56 57/57/57
f 58/58/58 59/59/59 60/60/60
f 29/29/29 26/26/26 25/25/25
f 31/31/31 25/25/25 61/61/61
f 61/61/61 25/25/25 62/62/62
f 30/30/30 31/31/31 63/63/63
f 63/63/63 31/31/31 61/61/61
f 42/42/42 17/17/17 64/64/64
f 64/64/64 17/17/17 45/45/45
f 19/19/19 20/20/20 51/51/51
f 50/50/50 48/48/48 53/53/53
f 53/53/53 48/48/48 58/58/58
f 21/21/21 65/65/65 66/66/66
f 67/67/67 68/68/68 69/69/69
f 69/69/69 68/68/68 65/65/65
f 70/70/70 71/71/71 72/72/72
f 72/72/72 71/71/71 73/73/73
f 74/74/74 75/75/75 76/76/76
f 76/76/76 75/75/75 77/77/77
f 78/78/78 79/79/79 75/75/75
f 75/75/75 79/79/79 77/77/77
f 70/70/70 72/72/72 80/80/80
f 80/80/80 72/72/72 81/81/81
f 29/29/29 25/25/25 31/31/31
f 82/82/82 83/83/83 84/84/84
f 82/82/82 85/85/85 83/83/83
f 50/50/50 52/52/52 86/86/86
f 86/86/86 52/52/52 87/87/87
f 20/20/20 18/18/18 88/88/88
f 88/88/88 18/18/18 89/89/89
f 44/44/44 90/90/90 18/18/18
f 18/18/18 90/90/90 89/89/89
f 50/50/50 86/86/86 49/49/49
f 49/49/49 86/86/86 91/91/91
f 92/92/92 61/61/61 93/93/93
f 94/94/94 95/95/95 96/96/96
f 97/97/97 85/85/85 82/82/82
f 98/98/98 51/51/51 99/99/99
f 60/60/60 59/59/59 100/100/100
f 101/101/101 102/102/102 103/103/103
f 103/103/103 102/102/102 104/104/104
f 105/105/105 106/106/106 101/101/101
f 101/101/101 106/106/106 102/102/102
f 102/102/102 107/107/107 108/108/108
f 109/109/109 104/104/104 108/108/108
f 108/108/108 104/104/104 102/102/102
f 110/110/110 103/103/103 109/109/109
f 109/109/109 103/103/103 104/104/104
f 110/110/110 111/111/111 103/103/103
f 103/103/103 111/111/111 101/101/101
f 112/112/112 113/113/113 105/105/105
f 114/114/114 115/115/115 105/105/105
f 116/116/116 117/117/117 115/115/115
f 115/115/115 117/117/117 105/105/105
f 118/118/118 119/119/119 120/120/120
f 120/120/120 119/119/119 116/116/116
f 121/121/121 122/122/122 118/118/118
f 118/118/118 122/122/122 119/119/119
f 123/123/123 121/121/121 120/120/120
f 120/120/120 121/121/121 118/118/118
f 115/115/115 120/120/120 116/116/116
f 124/124/124 125/125/125 126/126/126
f 126/126/126 125/125/125 127/127/127
f 124/124/124 126/126/126 128/128/128
f 128/128/128 126/126/126 129/129/129
f 57/57/57 62/62/62 27/27/27
f 27/27/27 62/62/62 25/25/25
f 21/21/21 23/23/23 65/65/65
f 65/65/65 23/23/23 69/69/69
f 130/130/130 131/131/131 132/132/132
f 133/133/133 131/131/131 130/130/130
f 106/106/106 105/105/105 117/117/117
f 127/127/127 98/98/98 134/134/134
f 17/17/17 44/44/44 18/18/18
f 112/112/112 101/101/101 111/111/111
f 112/112/112 105/105/105 101/101/101
f 123/123/123 120/120/120 135/135/135
f 135/135/135 120/120/120 115/115/115
f 94/94/94 96/96/96 136/136/136
f 137/137/137 138/138/138 139/139/139
f 139/139/139 138/138/138 140/140/140
f 141/141/141 142/142/142 22/22/22
f 22/22/22 142/142/142 24/24/24
f 143/143/143 144/144/144 145/145/145
f 146/146/146 147/147/147 148/148/148
f 148/148/148 147/147/147 149/149/149
f 150/150/150 151/151/151 152/152/152
f 152/152/152 151/151/151 153/153/153
f 154/154/154 155/155/155 156/156/156
f 156/156/156 155/155/155 157/157/157
f 158/158/158 159/159/159 154/154/154
f 154/154/154 159/159/159 155/155/155
f 160/160/160 43/43/43 140/140/140
f 140/140/140 43/43/43 42/42/42
f 139/139/139 140/140/140 161/161/161
f 161/161/161 140/140/140 162/162/162
f 47/47/47 163/163/163 48/48/48
f 48/48/48 163/163/163 164/164/164
f 165/165/165 166/166/166 167/167/167
f 164/164/164 167/167/167 166/166/166
f 168/168/168 151/151/151 169/169/169
f 169/169/169 151/151/151 150/150/150
f 57/57/57 56/56/56 144/144/144
f 144/144/144 56/56/56 145/145/145
f 58/58/58 170/170/170 171/171/171
f 147/147/147 143/143/143 145/145/145
f 62/62/62 143/143/143 61/61/61
f 61/61/61 143/143/143 146/146/146
f 61/61/61 146/146/146 172/172/172
f 172/172/172 146/146/146 148/148/148
f 42/42/42 173/173/173 140/140/140
f 140/140/140 173/173/173 162/162/162
f 139/139/139 165/165/165 137/137/137
f 58/58/58 48/48/48 166/166/166
f 166/166/166 48/48/48 164/164/164
f 141/141/141 174/174/174 175/175/175
f 175/175/175 68/68/68 176/176/176
f 176/176/176 68/68/68 67/67/67
f 177/177/177 178/178/178 179/179/179
f 179/179/179 178/178/178 180/180/180
f 181/181/181 182/182/182 183/183/183
f 183/183/183 182/182/182 184/184/184
f 184/184/184 185/185/185 183/183/183
f 183/183/183 185/185/185 186/186/186
f 187/187/187 178/178/178 188/188/188
f 188/188/188 178/178/178 177/177/177
f 147/147/147 146/146/146 143/143/143
f 189/189/189 190/190/190 191/191/191
f 189/189/189 191/191/191 192/192/192
f 164/164/164 193/193/193 167/167/167
f 167/167/167 193/193/193 194/194/194
f 137/137/137 195/195/195 138/138/138
f 138/138/138 195/195/195 196/196/196
f 196/196/196 197/197/197 138/138/138
f 138/138/138 197/197/197 160/160/160
f 198/198/198 193/193/193 163/163/163
f 163/163/163 193/193/193 164/164/164
f 199/199/199 93/93/93 61/61/61
f 200/200/200 201/201/201 202/202/202
f 203/203/203 189/189/189 192/192/192
f 204/204/204 205/205/205 165/165/165
f 170/170/170 206/206/206 171/171/171
f 207/207/207 208/208/208 209/209/209
f 209/209/209 208/208/208 210/210/210
f 211/211/211 207/207/207 106/106/106
f 106/106/106 207/207/207 209/209/209
f 209/209/209 212/212/212 107/107/107
f 209/209/209 210/210/210 212/212/212
f 212/212/212 210/210/210 213/213/213
f 210/210/210 208/208/208 213/213/213
f 213/213/213 208/208/208 214/214/214
f 214/214/214 208/208/208 215/215/215
f 215/215/215 208/208/208 207/207/207
f 216/216/216 211/211/211 217/217/217
f 218/218/218 211/211/211 219/219/219
f 211/211/211 117/117/117 219/219/219
f 219/219/219 117/117/117 116/116/116
f 116/116/116 119/119/119 220/220/220
f 220/220/220 119/119/119 221/221/221
f 119/119/119 122/122/122 221/221/221
f 221/221/221 122/122/122 222/222/222
f 223/223/223 220/220/220 222/222/222
f 222/222/222 220/220/220 221/221/221
f 219/219/219 116/116/116 220/220/220
f 224/224/224 225/225/225 226/226/226
f 226/226/226 225/225/225 227/227/227
f 129/129/129 225/225/225 128/128/128
f 128/128/128 225/225/225 224/224/224
f 57/57/57 144/144/144 62/62/62
f 62/62/62 144/144/144 143/143/143
f 176/176/176 142/142/142 175/175/175
f 175/175/175 142/142/142 141/141/141
f 130/130/130 228/228/228 229/229/229
f 133/133/133 130/130/130 229/229/229
f 106/106/106 117/117/117 211/211/211
f 227/227/227 230/230/230 204/204/204
f 140/140/140 138/138/138 160/160/160
f 216/216/216 215/215/215 207/207/207
f 216/216/216 207/207/207 211/211/211
f 219/219/219 220/220/220 231/231/231
f 231/231/231 220/220/220 223/223/223
f 200/200/200 232/232/232 201/201/201
