# Extracted from the Cocos Creator 3.8.3 playable build
# Geometry-only OBJ preview for Unity; rig and animation stay in the raw assets.
o player_soldier_cavalry
v -1.04733467 -2.40996861 2.31975794
v -0.834026694 -2.44617462 2.30762362
v -0.963021457 -2.59493518 2.41885519
v -0.963021457 -2.59493518 2.41885519
v -0.834026694 -2.44617462 2.30762362
v -0.822719991 -2.45206094 2.52394795
v -0.834026694 -2.44617462 2.30762362
v -1.04733467 -2.40996861 2.31975794
v -0.430678546 -1.06246948 2.1491704
v -0.987958789 -0.967878997 2.18087125
v -0.822719991 -2.45206094 2.52394795
v -0.834026694 -2.44617462 2.30762362
v -0.401139736 -1.07784784 2.71432948
v -0.430678546 -1.06246948 2.1491704
v -0.669427574 -0.87575978 2.45028996
v -0.430678546 -1.06246948 2.1491704
v -0.987958789 -0.967878997 2.18087125
v -0.669427574 -0.87575978 2.45028996
v -0.401139736 -1.07784784 2.71432948
v -0.430678546 -1.06246948 2.1491704
v -0.963021457 -2.59493518 2.41885519
v -0.822719991 -2.45206094 2.52394795
v -1.03602874 -2.41585469 2.53608155
v -0.669427574 -0.87575978 2.45028996
v -0.987958789 -0.967878997 2.18087125
v -0.958420098 -0.983257294 2.74602985
v -0.669427574 -0.87575978 2.45028996
v -0.958420098 -0.983257294 2.74602985
v -0.401139736 -1.07784784 2.71432948
v -1.04733467 -2.40996861 2.31975794
v -1.03602874 -2.41585469 2.53608155
v -0.987958789 -0.967878997 2.18087125
v -0.958420098 -0.983257294 2.74602985
v -1.03602874 -2.41585469 2.53608155
v -0.822719991 -2.45206094 2.52394795
v -0.958420098 -0.983257294 2.74602985
v -0.401139736 -1.07784784 2.71432948
v -1.03602874 -2.41585469 2.53608155
v -1.04733467 -2.40996861 2.31975794
v -0.963021457 -2.59493518 2.41885519
v -0.629696131 -0.178939641 2.39294195
v -0.483807296 -0.203702077 2.3846426
v -0.950678945 -2.52266121 2.42017698
v -0.483807296 -0.203702077 2.3846426
v -0.476074308 -0.207728073 2.53259468
v -0.950678945 -2.52266121 2.42017698
v -0.629696131 -0.178939641 2.39294195
v -0.950678945 -2.52266121 2.42017698
v -0.621963918 -0.182965368 2.54089332
v -0.621963918 -0.182965368 2.54089332
v -0.950678945 -2.52266121 2.42017698
v -0.476074308 -0.207728073 2.53259468
v -0.476074308 -0.207728073 2.53259468
v -0.483807296 -0.203702077 2.3846426
v -0.621963918 -0.182965368 2.54089332
v -0.629696131 -0.178939641 2.39294195
v 0.363671839 -1.42260754 3.21339154
v 0.37003082 -1.21967173 3.31923389
v 0.66381532 -1.49203348 3.21802783
v 0.518072188 -0.921663821 3.41878104
v 0.363671839 -1.42260754 3.21339154
v 0.327275038 -1.27411568 2.93993282
v 0.610926628 -1.14290595 2.99405408
v 0.327275038 -1.27411568 2.93993282
v 0.732519388 -1.25729072 2.79947233
v 0.610926628 -1.14290595 2.99405408
v 0.628339469 -0.778545141 2.89425826
v 0.628339469 -0.778545141 2.89425826
v 0.867797375 -1.41518903 3.04438376
v 0.129559904 -0.455219179 3.21436644
v 0.129559904 -0.455219179 3.21436644
v 0.867797375 -1.41518903 3.04438376
v 0.518072188 -0.921663821 3.41878104
v 0.129559904 -0.455219179 3.21436644
v 0.10838747 -0.680328906 2.13681269
v 0.628339469 -0.778545141 2.89425826
v 0.523300171 -0.755670011 2.21382475
v 0.610926628 -1.14290595 2.99405408
v 0.540839255 -1.38197243 2.17462039
v 0.500903428 -1.36156964 3.03101683
v 0.652975857 -1.04544902 2.22233105
v 0.628339469 -0.778545141 2.89425826
v 0.523300171 -0.755670011 2.21382475
v 0.500903428 -1.36156964 3.03101683
v 0.540839255 -1.38197243 2.17462039
v 0.03874911 -1.48590386 3.07424068
v -0.0670666695 -1.48865402 2.03047705
v 0.523300171 -0.755670011 2.21382475
v 0.540839255 -1.38197243 2.17462039
v 0.652975857 -1.04544902 2.22233105
v 0.59309411 -1.70556056 3.11590195
v 0.66381532 -1.49203348 3.21802783
v 0.764024854 -1.667377 2.87138963
v 0.867797375 -1.41518903 3.04438376
v 0.60674119 -1.46740997 2.65725923
v 0.764024854 -1.667377 2.87138963
v 0.732519388 -1.25729072 2.79947233
v 0.867797375 -1.41518903 3.04438376
v 0.732519388 -1.25729072 2.79947233
v 0.327275038 -1.27411568 2.93993282
v 0.60674119 -1.46740997 2.65725923
v 0.246439248 -1.39824641 2.90508223
v 0.327275038 -1.27411568 2.93993282
v 0.363671839 -1.42260754 3.21339154
v 0.246439248 -1.39824641 2.90508223
v 0.312186658 -1.57968199 3.17593265
v 0.363671839 -1.42260754 3.21339154
v 0.66381532 -1.49203348 3.21802783
v 0.312186658 -1.57968199 3.17593265
v 0.59309411 -1.70556056 3.11590195
v 0.360726535 -1.78307033 2.44473696
v 0.246439248 -1.39824641 2.90508223
v 0.039545238 -1.48542941 2.85411072
v 0.60674119 -1.46740997 2.65725923
v 0.360726535 -1.78307033 2.44473696
v 0.312186658 -1.57968199 3.17593265
v 0.0366208367 -1.6759578 2.99102497
v 0.246439248 -1.39824641 2.90508223
v 0.59309411 -1.70556056 3.11590195
v 0.105974987 -2.05628181 3.03924489
v 0.312186658 -1.57968199 3.17593265
v 0.764024854 -1.667377 2.87138963
v 0.509988487 -2.07795644 2.67452502
v 0.59309411 -1.70556056 3.11590195
v 0.312186658 -1.57968199 3.17593265
v 0.105974987 -2.05628181 3.03924489
v 0.0366208367 -1.6759578 2.99102497
v 0.360726535 -1.78307033 2.44473696
v 0.0175570324 -1.6484952 2.67803645
v 0.00849680509 -1.80177438 2.64608335
v 0.039545238 -1.48542941 2.85411072
v 0.0175570324 -1.6484952 2.67803645
v 0.360726535 -1.78307033 2.44473696
v -0.0916083008 -1.73215616 2.86505938
v 0.00849680509 -1.80177438 2.64608335
v 0.0175570324 -1.6484952 2.67803645
v -0.0895850137 -1.93272436 2.78574395
v 0.00849680509 -1.80177438 2.64608335
v 0.0366208367 -1.6759578 2.99102497
v 0.359198362 -2.00269866 2.42937398
v -0.0895850137 -1.93272436 2.78574395
v 0.509988487 -2.07795644 2.67452502
v 0.105974987 -2.05628181 3.03924489
v 0.509988487 -2.07795644 2.67452502
v 0.764024854 -1.667377 2.87138963
v 0.359198362 -2.00269866 2.42937398
v -0.0895850137 -1.93272436 2.78574395
v 0.0366208367 -1.6759578 2.99102497
v 0.105974987 -2.05628181 3.03924489
v 0.0366208367 -1.6759578 2.99102497
v -0.0916083008 -1.73215616 2.86505938
v 0.039545238 -1.48542941 2.85411072
v 0.0175570324 -1.6484952 2.67803645
v 0.0366208367 -1.6759578 2.99102497
v 0.00849680509 -1.80177438 2.64608335
v -0.0916083008 -1.73215616 2.86505938
v 0.360726535 -1.78307033 2.44473696
v 0.00849680509 -1.80177438 2.64608335
v 0.359198362 -2.00269866 2.42937398
v -0.0895850137 -1.93272436 2.78574395
v 0.500903428 -1.36156964 3.03101683
v 0.03874911 -1.48590386 3.07424068
v 0.37003082 -1.21967173 3.31923389
v 0.0493605547 -1.32648039 3.28521848
v 0.105974987 -2.05628181 3.03924489
v 0.59309411 -1.70556056 3.11590195
v 0.509988487 -2.07795644 2.67452502
v 0.0366208367 -1.6759578 2.99102497
v 0.039545238 -1.48542941 2.85411072
v 0.246439248 -1.39824641 2.90508223
v 0.360726535 -1.78307033 2.44473696
v 0.359198362 -2.00269866 2.42937398
v 0.764024854 -1.667377 2.87138963
v 0.610926628 -1.14290595 2.99405408
v 0.652975857 -1.04544902 2.22233105
v 0.540839255 -1.38197243 2.17462039
v -0.0670666695 -1.48865402 2.03047705
v 0.10838747 -0.680328906 2.13681269
v 0.610926628 -1.14290595 2.99405408
v 0.363671839 -1.42260754 3.21339154
v 0.610926628 -1.14290595 2.99405408
v 0.500903428 -1.36156964 3.03101683
v 0.363671839 -1.42260754 3.21339154
v 0.500903428 -1.36156964 3.03101683
v 0.37003082 -1.21967173 3.31923389
v 0.867797375 -1.41518903 3.04438376
v 0.628339469 -0.778545141 2.89425826
v 0.732519388 -1.25729072 2.79947233
v 0.518072188 -0.921663821 3.41878104
v 0.867797375 -1.41518903 3.04438376
v 0.66381532 -1.49203348 3.21802783
v 0.129559904 -0.455219179 3.21436644
v 0.518072188 -0.921663821 3.41878104
v 0.113330826 -0.606085777 3.35569692
v 0.827447951 -1.19720972 1.98526895
v 0.643982351 -1.22348261 1.85855615
v 0.813254058 -0.950001121 2.12775683
v 0.470271021 -0.981490433 1.90151024
v 0.562788546 -0.735901237 2.10753608
v -0.598772228 -0.611572504 3.09750938
v -0.346679628 -0.787706256 3.38795924
v -0.562768698 -0.878614247 3.01184893
v -0.247923002 -1.16370118 3.30802107
v -0.562768698 -0.878614247 3.01184893
v -0.460609108 -0.976976573 2.96460414
v -0.286455214 -0.88568157 2.86538482
v -0.460609108 -0.976976573 2.96460414
v -0.277368009 -0.650106132 2.94473052
v -0.286455214 -0.88568157 2.86538482
v -0.161588207 -0.52165848 2.92329836
v -0.277368009 -0.650106132 2.94473052
v 0.129559904 -0.455219179 3.21436644
v -0.421317428 -0.423258364 3.08212495
v 0.129559904 -0.455219179 3.21436644
v -0.346679628 -0.787706256 3.38795924
v -0.421317428 -0.423258364 3.08212495
v -0.283456802 -0.685878158 2.21341324
v 0.10838747 -0.680328906 2.13681269
v -0.277368009 -0.650106132 2.94473052
v 0.129559904 -0.455219179 3.21436644
v -0.460609108 -0.976976573 2.96460414
v -0.391697198 -1.28072309 3.01482058
v -0.441426486 -1.28179014 2.1927259
v -0.471709013 -0.93512851 2.23384404
v -0.283456802 -0.685878158 2.21341324
v -0.277368009 -0.650106132 2.94473052
v -0.0670666695 -1.48865402 2.03047705
v -0.441426486 -1.28179014 2.1927259
v 0.03874911 -1.48590386 3.07424068
v -0.391697198 -1.28072309 3.01482058
v -0.283456802 -0.685878158 2.21341324
v -0.471709013 -0.93512851 2.23384404
v -0.441426486 -1.28179014 2.1927259
v -0.729805112 -0.644809604 2.89919305
v -0.560382843 -0.420530379 2.81693721
v -0.598772228 -0.611572504 3.09750938
v -0.421317428 -0.423258364 3.08212495
v -0.273108274 -0.539606035 2.69169068
v -0.161588207 -0.52165848 2.92329836
v -0.560382843 -0.420530379 2.81693721
v -0.421317428 -0.423258364 3.08212495
v -0.161588207 -0.52165848 2.92329836
v -0.273108274 -0.539606035 2.69169068
v -0.286455214 -0.88568157 2.86538482
v -0.355025768 -0.960891247 2.74578691
v -0.658735275 -0.946961045 2.8807466
v -0.562768698 -0.878614247 3.01184893
v -0.355025768 -0.960891247 2.74578691
v -0.286455214 -0.88568157 2.86538482
v -0.658735275 -0.946961045 2.8807466
v -0.729805112 -0.644809604 2.89919305
v -0.562768698 -0.878614247 3.01184893
v -0.598772228 -0.611572504 3.09750938
v -0.364878267 -0.440764099 2.34543347
v -0.364878267 -0.440764099 2.34543347
v -0.382429451 -1.02229273 2.48983049
v -0.273108274 -0.539606035 2.69169068
v -0.355025768 -0.960891247 2.74578691
v -0.658735275 -0.946961045 2.8807466
v -0.355025768 -0.960891247 2.74578691
v -0.616442561 -1.01991975 2.47287798
v -0.729805112 -0.644809604 2.89919305
v -0.658735275 -0.946961045 2.8807466
v -0.943932414 -0.837254107 2.36721373
v -0.560382843 -0.420530379 2.81693721
v -0.729805112 -0.644809604 2.89919305
v -0.742963552 -0.335517585 2.43495631
v -0.658735275 -0.946961045 2.8807466
v -0.616442561 -1.01991975 2.47287798
v -0.943932414 -0.837254107 2.36721373
v -0.364878267 -0.440764099 2.34543347
v -0.495730877 -0.798506916 2.20453024
v -0.397252828 -0.873507798 2.30083466
v -0.382429451 -1.02229273 2.48983049
v -0.364878267 -0.440764099 2.34543347
v -0.397252828 -0.873507798 2.30083466
v -0.576767862 -1.02021432 2.28877425
v -0.397252828 -0.873507798 2.30083466
v -0.495730877 -0.798506916 2.20453024
v -0.682401359 -0.891449273 2.15172029
v -0.616442561 -1.01991975 2.47287798
v -0.495730877 -0.798506916 2.20453024
v -0.525506556 -0.341690183 2.23204088
v -0.742963552 -0.335517585 2.43495631
v -0.682401359 -0.891449273 2.15172029
v -0.943932414 -0.837254107 2.36721373
v -0.742963552 -0.335517585 2.43495631
v -0.525506556 -0.341690183 2.23204088
v -0.560382843 -0.420530379 2.81693721
v -0.682401359 -0.891449273 2.15172029
v -0.943932414 -0.837254107 2.36721373
v -0.616442561 -1.01991975 2.47287798
v -0.397252828 -0.873507798 2.30083466
v -0.576767862 -1.02021432 2.28877425
v -0.382429451 -1.02229273 2.48983049
v -0.616442561 -1.01991975 2.47287798
v -0.616442561 -1.01991975 2.47287798
v -0.576767862 -1.02021432 2.28877425
v -0.495730877 -0.798506916 2.20453024
v -0.682401359 -0.891449273 2.15172029
v -0.495730877 -0.798506916 2.20453024
v -0.525506556 -0.341690183 2.23204088
v -0.364878267 -0.440764099 2.34543347
v -0.391697198 -1.28072309 3.01482058
v -0.247923002 -1.16370118 3.30802107
v 0.03874911 -1.48590386 3.07424068
v 0.0493605547 -1.32648039 3.28521848
v -0.943932414 -0.837254107 2.36721373
v -0.742963552 -0.335517585 2.43495631
v -0.729805112 -0.644809604 2.89919305
v -0.616442561 -1.01991975 2.47287798
v -0.355025768 -0.960891247 2.74578691
v -0.382429451 -1.02229273 2.48983049
v -0.364878267 -0.440764099 2.34543347
v -0.560382843 -0.420530379 2.81693721
v -0.525506556 -0.341690183 2.23204088
v -0.460609108 -0.976976573 2.96460414
v -0.441426486 -1.28179014 2.1927259
v -0.471709013 -0.93512851 2.23384404
v -0.460609108 -0.976976573 2.96460414
v -0.562768698 -0.878614247 3.01184893
v -0.391697198 -1.28072309 3.01482058
v -0.460609108 -0.976976573 2.96460414
v -0.562768698 -0.878614247 3.01184893
v -0.247923002 -1.16370118 3.30802107
v -0.391697198 -1.28072309 3.01482058
v -0.421317428 -0.423258364 3.08212495
v -0.161588207 -0.52165848 2.92329836
v -0.277368009 -0.650106132 2.94473052
v -0.346679628 -0.787706256 3.38795924
v -0.598772228 -0.611572504 3.09750938
v -0.421317428 -0.423258364 3.08212495
v 0.129559904 -0.455219179 3.21436644
v 0.113330826 -0.606085777 3.35569692
v -0.346679628 -0.787706256 3.38795924
v -0.353784859 -0.915242851 1.92192864
v -0.600680768 -1.08695781 1.91020882
v -0.638298213 -0.769927025 2.18222117
v -0.749120593 -1.00026023 2.05462217
v -0.336018056 -0.65055424 2.1242764
v 0.538015783 -1.31509864 2.19778895
v 0.827447951 -1.19720972 1.98526895
v 0.603645742 -1.08137381 2.23196411
v 0.813254058 -0.950001121 2.12775683
v 0.417848766 -0.850771368 2.20859766
v 0.603645742 -1.08137381 2.23196411
v 0.562788546 -0.735901237 2.10753608
v 0.813254058 -0.950001121 2.12775683
v 0.255719036 -1.06520677 2.15117931
v 0.417848766 -0.850771368 2.20859766
v 0.470271021 -0.981490433 1.90151024
v 0.562788546 -0.735901237 2.10753608
v 0.255719036 -1.06520677 2.15117931
v 0.470271021 -0.981490433 1.90151024
v 0.346243769 -1.31517267 2.15659261
v 0.643982351 -1.22348261 1.85855615
v 0.346243769 -1.31517267 2.15659261
v 0.643982351 -1.22348261 1.85855615
v 0.538015783 -1.31509864 2.19778895
v 0.827447951 -1.19720972 1.98526895
v -0.425486773 -1.21784377 2.21490192
v -0.43457979 -0.979595363 2.2444725
v -0.749120593 -1.00026023 2.05462217
v -0.638298213 -0.769927025 2.18222117
v -0.245053664 -1.25889564 2.16994214
v -0.425486773 -1.21784377 2.21490192
v -0.600680768 -1.08695781 1.91020882
v -0.749120593 -1.00026023 2.05462217
v -0.106216893 -1.03946352 2.15597105
v -0.245053664 -1.25889564 2.16994214
v -0.353784859 -0.915242851 1.92192864
v -0.600680768 -1.08695781 1.91020882
v -0.106216893 -1.03946352 2.15597105
v -0.353784859 -0.915242851 1.92192864
v -0.206065357 -0.799365282 2.20939422
v -0.336018056 -0.65055424 2.1242764
v -0.206065357 -0.799365282 2.20939422
v -0.336018056 -0.65055424 2.1242764
v -0.43457979 -0.979595363 2.2444725
v -0.638298213 -0.769927025 2.18222117
v 0.37003082 -1.21967173 3.31923389
v 0.0493605547 -1.32648039 3.28521848
v 0.083969973 -0.914630413 3.42454529
v 0.518072188 -0.921663821 3.41878104
v 0.37003082 -1.21967173 3.31923389
v 0.083969973 -0.914630413 3.42454529
v 0.113330826 -0.606085777 3.35569692
v 0.518072188 -0.921663821 3.41878104
v 0.083969973 -0.914630413 3.42454529
v -0.247923002 -1.16370118 3.30802107
v -0.346679628 -0.787706256 3.38795924
v 0.083969973 -0.914630413 3.42454529
v 0.0493605547 -1.32648039 3.28521848
v -0.247923002 -1.16370118 3.30802107
v 0.083969973 -0.914630413 3.42454529
v -0.346679628 -0.787706256 3.38795924
v 0.113330826 -0.606085777 3.35569692
v 0.083969973 -0.914630413 3.42454529
v 0.119847409 0.0691251531 4.33240843
v 0.499079883 -0.309520036 4.58082533
v 0.798887134 0.117046803 3.90286398
v 0.499079883 -0.309520036 4.58082533
v 0.103910722 -0.60992223 4.77688885
v 0.754343331 -1.07453656 4.37305117
v 0.499079883 -0.309520036 4.58082533
v 0.754343331 -1.07453656 4.37305117
v 1.00237346 -0.493322462 4.26935673
v 0.499079883 -0.309520036 4.58082533
v 1.00237346 -0.493322462 4.26935673
v 0.798887134 0.117046803 3.90286398
v 0.125205263 0.322970152 3.77142715
v 0.798887134 0.117046803 3.90286398
v 0.114625163 -0.0683262572 3.10799003
v 0.788674772 -0.254893988 3.1697681
v 1.00237346 -0.493322462 4.26935673
v 0.754343331 -1.07453656 4.37305117
v 0.989192307 -0.978745461 3.40950108
v 0.883727729 -1.37934756 3.53388262
v 0.798887134 0.117046803 3.90286398
v 1.00237346 -0.493322462 4.26935673
v 0.788674772 -0.254893988 3.1697681
v 0.989192307 -0.978745461 3.40950108
v 0.883727729 -1.37934756 3.53388262
v 0.754343331 -1.07453656 4.37305117
v 0.714615762 -1.34224498 3.56195307
v 0.499079883 -0.309520036 4.58082533
v 0.119847409 0.0691251531 4.33240843
v 0.502315044 -0.187940016 4.75260925
v 0.123082601 0.190705329 4.50419378
v 0.103910722 -0.60992223 4.77688885
v 0.499079883 -0.309520036 4.58082533
v 0.107145891 -0.488342226 4.94867277
v 0.502315044 -0.187940016 4.75260925
v 0.119847409 0.0691251531 4.33240843
v 0.798887134 0.117046803 3.90286398
v 0.125205263 0.322970152 3.77142715
v 0.754343331 -1.07453656 4.37305117
v 0.103910722 -0.60992223 4.77688885
v 0.0920507014 -1.0896914 4.69575119
v 0.119847409 0.0691251531 4.33240843
v -0.557336271 0.150224581 3.90492392
v -0.276690215 -0.290542096 4.58200359
v -0.276690215 -0.290542096 4.58200359
v -0.569686711 -1.04214633 4.37506199
v 0.103910722 -0.60992223 4.77688885
v -0.276690215 -0.290542096 4.58200359
v -0.789310873 -0.449491829 4.27207804
v -0.569686711 -1.04214633 4.37506199
v -0.276690215 -0.290542096 4.58200359
v -0.557336271 0.150224581 3.90492392
v -0.789310873 -0.449491829 4.27207804
v 0.125205263 0.322970152 3.77142715
v 0.114625163 -0.0683262572 3.10799003
v -0.557336271 0.150224581 3.90492392
v -0.567548692 -0.22171621 3.17182803
v -0.789310873 -0.449491829 4.27207804
v -0.802491963 -0.934914827 3.41222262
v -0.569686711 -1.04214633 4.37506199
v -0.71636641 -1.34020388 3.53631282
v -0.557336271 0.150224581 3.90492392
v -0.567548692 -0.22171621 3.17182803
v -0.789310873 -0.449491829 4.27207804
v -0.802491963 -0.934914827 3.41222262
v -0.71636641 -1.34020388 3.53631282
v -0.545558035 -1.31141686 3.56386709
v -0.569686711 -1.04214633 4.37506199
v -0.276690215 -0.290542096 4.58200359
v -0.273455054 -0.168962076 4.75378752
v 0.119847409 0.0691251531 4.33240843
v 0.123082601 0.190705329 4.50419378
v 0.103910722 -0.60992223 4.77688885
v 0.107145891 -0.488342226 4.94867277
v -0.276690215 -0.290542096 4.58200359
v -0.273455054 -0.168962076 4.75378752
v 0.119847409 0.0691251531 4.33240843
v 0.125205263 0.322970152 3.77142715
v -0.557336271 0.150224581 3.90492392
v -0.569686711 -1.04214633 4.37506199
v 0.0920507014 -1.0896914 4.69575119
v 0.103910722 -0.60992223 4.77688885
v 0.0792550147 -1.57936096 4.15803957
v 0.754343331 -1.07453656 4.37305117
v 0.0920507014 -1.0896914 4.69575119
v 0.0734681264 -1.77750504 3.53941035
v 0.0776603743 -1.59812188 3.41031647
v 0.556888402 -1.68901634 3.54734612
v 0.714615762 -1.34224498 3.56195307
v 0.556888402 -1.68901634 3.54734612
v 0.0792550147 -1.57936096 4.15803957
v 0.0734681264 -1.77750504 3.53941035
v 0.754343331 -1.07453656 4.37305117
v 0.0792550147 -1.57936096 4.15803957
v 0.556888402 -1.68901634 3.54734612
v 0.754343331 -1.07453656 4.37305117
v 0.556888402 -1.68901634 3.54734612
v 0.714615762 -1.34224498 3.56195307
v 0.0792550147 -1.57936096 4.15803957
v 0.0920507014 -1.0896914 4.69575119
v -0.569686711 -1.04214633 4.37506199
v -0.545558035 -1.31141686 3.56386709
v 0.0776603743 -1.59812188 3.41031647
v -0.405020773 -1.66548479 3.54880738
v 0.0734681264 -1.77750504 3.53941035
v -0.405020773 -1.66548479 3.54880738
v 0.0734681264 -1.77750504 3.53941035
v 0.0792550147 -1.57936096 4.15803957
v -0.569686711 -1.04214633 4.37506199
v -0.405020773 -1.66548479 3.54880738
v 0.0792550147 -1.57936096 4.15803957
v -0.569686711 -1.04214633 4.37506199
v -0.545558035 -1.31141686 3.56386709
v -0.405020773 -1.66548479 3.54880738
v 0.788674772 -0.254893988 3.1697681
v 0.989192307 -0.978745461 3.40950108
v 0.0903988555 -0.95756346 3.19817686
v 0.114625163 -0.0683262572 3.10799003
v 0.788674772 -0.254893988 3.1697681
v 0.0903988555 -0.95756346 3.19817686
v 0.123082601 0.190705329 4.50419378
v -0.273455054 -0.168962076 4.75378752
v 0.502315044 -0.187940016 4.75260925
v 0.107145891 -0.488342226 4.94867277
v 0.114625163 -0.0683262572 3.10799003
v 0.0903988555 -0.95756346 3.19817686
v -0.567548692 -0.22171621 3.17182803
v -0.567548692 -0.22171621 3.17182803
v 0.0903988555 -0.95756346 3.19817686
v -0.802491963 -0.934914827 3.41222262
v 0.0903988555 -0.95756346 3.19817686
v 0.989192307 -0.978745461 3.40950108
v 0.714615762 -1.34224498 3.56195307
v -0.802491963 -0.934914827 3.41222262
v -0.545558035 -1.31141686 3.56386709
v -0.71636641 -1.34020388 3.53631282
v 0.0776603743 -1.59812188 3.41031647
v 0.0903988555 -0.95756346 3.19817686
v 0.714615762 -1.34224498 3.56195307
v -0.545558035 -1.31141686 3.56386709
v 0.0903988555 -0.95756346 3.19817686
v 0.0776603743 -1.59812188 3.41031647
v 0.0903988555 -0.95756346 3.19817686
v -0.545558035 -1.31141686 3.56386709
v -0.802491963 -0.934914827 3.41222262
v 0.714615762 -1.34224498 3.56195307
v 0.989192307 -0.978745461 3.40950108
v 0.883727729 -1.37934756 3.53388262
v 0.129107445 0.367316276 5.62631512
v 0.552069485 0.457333326 5.4850316
v 0.150579959 1.27293634 5.17727947
v 0.156264603 1.58456361 3.90078473
v 0.691420794 1.07335615 3.784729
v 0.132533967 0.628605664 3.67386532
v 0.100923352 -0.714340568 4.49184847
v 0.130050838 0.464310527 4.68520689
v 0.656606436 0.714248002 4.89158392
v 0.100923352 -0.714340568 4.49184847
v 0.656606436 0.714248002 4.89158392
v 0.552069485 0.457333326 5.4850316
v 0.150579959 1.27293634 5.17727947
v 0.656606436 0.714248002 4.89158392
v 0.156264603 1.58456361 3.90078473
v 0.691420794 1.07335615 3.784729
v 0.656606436 0.714248002 4.89158392
v 0.130050838 0.464310527 4.68520689
v 0.691420794 1.07335615 3.784729
v 0.132533967 0.628605664 3.67386532
v 0.100923352 -0.714340568 4.49184847
v 0.552069485 0.457333326 5.4850316
v 0.129107445 0.367316276 5.62631512
v 0.150579959 1.27293634 5.17727947
v 0.552069485 0.457333326 5.4850316
v 0.656606436 0.714248002 4.89158392
v 0.129107445 0.367316276 5.62631512
v 0.150579959 1.27293634 5.17727947
v -0.289374053 0.47791788 5.48630953
v -0.40359804 1.10014403 3.78639221
v 0.100923352 -0.714340568 4.49184847
v -0.383024633 0.739680827 4.8931632
v 0.130050838 0.464310527 4.68520689
v 0.100923352 -0.714340568 4.49184847
v -0.289374053 0.47791788 5.48630953
v -0.383024633 0.739680827 4.8931632
v 0.150579959 1.27293634 5.17727947
v 0.156264603 1.58456361 3.90078473
v -0.383024633 0.739680827 4.8931632
v -0.40359804 1.10014403 3.78639221
v -0.383024633 0.739680827 4.8931632
v -0.40359804 1.10014403 3.78639221
v 0.130050838 0.464310527 4.68520689
v 0.132533967 0.628605664 3.67386532
v 0.100923352 -0.714340568 4.49184847
v 0.129107445 0.367316276 5.62631512
v -0.289374053 0.47791788 5.48630953
v 0.150579959 1.27293634 5.17727947
v -0.383024633 0.739680827 4.8931632
v -0.289374053 0.47791788 5.48630953
v 1.10883653 -0.669898391 3.82765245
v 1.11548722 -0.395030141 3.77920198
v 1.10624766 -0.790008008 4.05770969
v 1.11548722 -0.395030141 3.77920198
v -0.521076024 -0.470992357 4.0355401
v 1.12003088 -0.223143592 4.00221252
v -0.521076024 -0.470992357 4.0355401
v 1.1172179 -0.352831095 4.23902607
v 1.12003088 -0.223143592 4.00221252
v -0.521076024 -0.470992357 4.0355401
v 1.11079133 -0.61812079 4.28072166
v 1.1172179 -0.352831095 4.23902607
v 1.11079133 -0.61812079 4.28072166
v -0.521076024 -0.470992357 4.0355401
v 1.10624766 -0.790008008 4.05770969
v -0.521076024 -0.470992357 4.0355401
v 1.10883653 -0.669898391 3.82765245
v 1.10624766 -0.790008008 4.05770969
v -0.521076024 -0.470992357 4.0355401
v 1.11548722 -0.395030141 3.77920198
v 1.10883653 -0.669898391 3.82765245
v 1.12003088 -0.223143592 4.00221252
v 1.11079133 -0.61812079 4.28072166
v 1.1172179 -0.352831095 4.23902607
v 0.0710968897 -1.9281491 4.40454626
v 0.630630732 -1.70476675 4.28099012
v 0.0954775885 -0.966181338 4.96267223
v 0.660927117 -0.862560987 4.80411434
v 0.968646526 -0.680812418 4.54957485
v 0.660927117 -0.862560987 4.80411434
v 0.944798648 -1.40798819 4.10643768
v 0.630630732 -1.70476675 4.28099012
v 0.944798648 -1.40798819 4.10643768
v 1.06645191 -1.02102101 3.86015201
v 0.968646526 -0.680812418 4.54957485
v 1.06996143 -0.416623592 4.20514345
v 0.649356842 -1.45179772 4.08134031
v 0.630630732 -1.70476675 4.28099012
v 0.076061964 -1.71548319 4.24821472
v 0.0710968897 -1.9281491 4.40454626
v 0.944798648 -1.40798819 4.10643768
v 0.630630732 -1.70476675 4.28099012
v 0.649356842 -1.45179772 4.08134031
v 0.649356842 -1.45179772 4.08134031
v 0.884739041 -1.02348804 3.80562258
v 0.944798648 -1.40798819 4.10643768
v 1.06645191 -1.02102101 3.86015201
v 1.06996143 -0.416623592 4.20514345
v 1.06645191 -1.02102101 3.86015201
v 0.960590661 -0.380410463 4.17818499
v 0.884739041 -1.02348804 3.80562258
v 1.06996143 -0.416623592 4.20514345
v 0.960590661 -0.380410463 4.17818499
v 0.968646526 -0.680812418 4.54957485
v 0.725089908 -0.695278227 4.59756422
v 0.660927117 -0.862560987 4.80411434
v 0.968646526 -0.680812418 4.54957485
v 0.725089908 -0.695278227 4.59756422
v 0.0954775885 -0.966181338 4.96267223
v 0.660927117 -0.862560987 4.80411434
v 0.0982504711 -0.84388566 4.81856203
v 0.725089908 -0.695278227 4.59756422
v 0.0710968897 -1.9281491 4.40454626
v 0.0954775885 -0.966181338 4.96267223
v -0.477218628 -1.67766511 4.28267241
v -0.464709014 -0.835024178 4.80582428
v -0.477218628 -1.67766511 4.28267241
v -0.464709014 -0.835024178 4.80582428
v -0.777026176 -1.36586666 4.10905313
v -0.763943136 -0.638427496 4.55220652
v -0.777026176 -1.36586666 4.10905313
v -0.763943136 -0.638427496 4.55220652
v -0.880358338 -0.973395526 3.86310863
v -0.853262842 -0.369575083 4.20806456
v -0.484157503 -1.42406821 4.08306217
v 0.076061964 -1.71548319 4.24821472
v -0.477218628 -1.67766511 4.28267241
v 0.0710968897 -1.9281491 4.40454626
v -0.777026176 -1.36586666 4.10905313
v -0.484157503 -1.42406821 4.08306217
v -0.477218628 -1.67766511 4.28267241
v -0.484157503 -1.42406821 4.08306217
v -0.777026176 -1.36586666 4.10905313
v -0.699152291 -0.984740794 3.80802822
v -0.880358338 -0.973395526 3.86310863
v -0.699152291 -0.984740794 3.80802822
v -0.880358338 -0.973395526 3.86310863
v -0.742337108 -0.338751107 4.18077135
v -0.853262842 -0.369575083 4.20806456
v -0.52123934 -0.664788902 4.59945679
v -0.742337108 -0.338751107 4.18077135
v -0.763943136 -0.638427496 4.55220652
v -0.853262842 -0.369575083 4.20806456
v -0.464709014 -0.835024178 4.80582428
v -0.52123934 -0.664788902 4.59945679
v -0.763943136 -0.638427496 4.55220652
v -0.52123934 -0.664788902 4.59945679
v -0.464709014 -0.835024178 4.80582428
v 0.0982504711 -0.84388566 4.81856203
v 0.0954775885 -0.966181338 4.96267223
v -0.905623019 -0.620617867 3.83071208
v -0.908211827 -0.740727544 4.06076908
v -0.898972392 -0.345749646 3.78226161
v -0.898972392 -0.345749646 3.78226161
v -0.89442867 -0.173863143 4.00527191
v 0.732689679 -0.501663625 4.03363562
v 0.732689679 -0.501663625 4.03363562
v -0.89442867 -0.173863143 4.00527191
v -0.897241652 -0.303550661 4.24208593
v 0.732689679 -0.501663625 4.03363562
v -0.897241652 -0.303550661 4.24208593
v -0.903668165 -0.568840325 4.28378153
v -0.903668165 -0.568840325 4.28378153
v -0.908211827 -0.740727544 4.06076908
v 0.732689679 -0.501663625 4.03363562
v 0.732689679 -0.501663625 4.03363562
v -0.908211827 -0.740727544 4.06076908
v -0.905623019 -0.620617867 3.83071208
v 0.732689679 -0.501663625 4.03363562
v -0.905623019 -0.620617867 3.83071208
v -0.898972392 -0.345749646 3.78226161
v -0.903668165 -0.568840325 4.28378153
v -0.89442867 -0.173863143 4.00527191
v -0.897241652 -0.303550661 4.24208593
vt 0.763718069 0.336521626
vt 0.814564347 0.336521626
vt 0.814724147 0.377803922
vt 0.814724147 0.377803922
vt 0.814564347 0.336521626
vt 0.865353227 0.336521626
vt 0.814564347 0.336521626
vt 0.763718069 0.336521626
vt 0.814564347 0.0465077162
vt 0.711369693 0.0465077162
vt 0.865353227 0.336521626
vt 0.814564347 0.336521626
vt 0.917824745 0.0465077162
vt 0.814564347 0.0465077162
vt 0.81464529 0.0285254717
vt 0.814564347 0.0465077162
vt 0.711369693 0.0465077162
vt 0.81464529 0.0285254717
vt 0.917824745 0.0465077162
vt 0.814564347 0.0465077162
vt 0.814724147 0.377803922
vt 0.865353227 0.336521626
vt 0.814564347 0.336521626
vt 0.81464529 0.0285254717
vt 0.711369693 0.0465077162
vt 0.814564347 0.0465077162
vt 0.81464529 0.0285254717
vt 0.814564347 0.0465077162
vt 0.917824745 0.0465077162
vt 0.763718069 0.336521626
vt 0.814564347 0.336521626
vt 0.711369693 0.0465077162
vt 0.814564347 0.0465077162
vt 0.814564347 0.336521626
vt 0.865353227 0.336521626
vt 0.814564347 0.0465077162
vt 0.917824745 0.0465077162
vt 0.814564347 0.336521626
vt 0.763718069 0.336521626
vt 0.814724147 0.377803922
vt 0.922785223 0.188215137
vt 0.952964902 0.188215137
vt 0.952964783 0.369746566
vt 0.952964902 0.188215137
vt 0.983144164 0.188215137
vt 0.952964783 0.369746566
vt 0.922785223 0.188215137
vt 0.952964783 0.369746566
vt 0.952964902 0.188215137
vt 0.952964902 0.188215137
vt 0.952964783 0.369746566
vt 0.983144164 0.188215137
vt 0.925826788 0.175552189
vt 0.954048276 0.147330701
vt 0.954048276 0.147330701
vt 0.982269645 0.175552189
vt 0.447620779 0.296352029
vt 0.334812403 0.298875451
vt 0.447620779 0.369837821
vt 0.359836459 0.369837821
vt 0.447620779 0.296352029
vt 0.459326714 0.256898403
vt 0.442670196 0.232421517
vt 0.459326714 0.256898403
vt 0.489720911 0.256083012
vt 0.442670196 0.232421517
vt 0.51737231 0.231301367
vt 0.51737231 0.231301367
vt 0.490232676 0.302499175
vt 0.648877978 0.306758761
vt 0.648877978 0.306758761
vt 0.490232676 0.302499175
vt 0.564909875 0.395419478
vt 0.648877978 0.306758761
vt 0.648877978 0.0495240092
vt 0.51737231 0.231301367
vt 0.542557895 0.0495240092
vt 0.442670196 0.232421517
vt 0.388798654 0.0495240092
vt 0.387402415 0.228380442
vt 0.478921324 0.0495240092
vt 0.51737231 0.231301367
vt 0.542557895 0.0495240092
vt 0.387402415 0.228380442
vt 0.388798654 0.0495240092
vt 0.275552601 0.226544857
vt 0.275552601 0.0495240092
vt 0.66922015 0.256313384
vt 0.671211243 0.185753465
vt 0.657080948 0.226228833
vt 0.0818471014 0.259452462
vt 0.0215091202 0.259371102
vt 0.0805098414 0.329627156
vt 0.0215091202 0.328597248
vt 0.081881322 0.388517439
vt 0.0805098414 0.329627156
vt 0.0215091202 0.388517439
vt 0.0215091202 0.328597248
vt 0.0215091202 0.0152298212
vt 0.0215091202 0.115478933
vt 0.081881322 0.0152298212
vt 0.081881322 0.115478933
vt 0.0215091202 0.115478933
vt 0.0215091202 0.18030417
vt 0.081881322 0.115478933
vt 0.0818790868 0.18034184
vt 0.0215091202 0.18030417
vt 0.0215091202 0.259371102
vt 0.0818790868 0.18034184
vt 0.0818471014 0.259452462
vt 0.199332148 0.388517439
vt 0.081881322 0.115478933
vt 0.148094818 0.115478933
vt 0.081881322 0.0152298212
vt 0.20941028 0.0152298212
vt 0.0818790868 0.18034184
vt 0.163869768 0.160694242
vt 0.081881322 0.115478933
vt 0.0818471014 0.259452462
vt 0.180012941 0.216120601
vt 0.0818790868 0.18034184
vt 0.0805098414 0.329627156
vt 0.18421191 0.313657641
vt 0.0818471014 0.259452462
vt 0.0818790868 0.18034184
vt 0.180012941 0.216120601
vt 0.163869768 0.160694242
vt 0.20941028 0.0152298212
vt 0.194411978 0.10076648
vt 0.233537465 0.127647877
vt 0.148094818 0.115478933
vt 0.194411978 0.10076648
vt 0.20941028 0.0152298212
vt 0.191614836 0.145015121
vt 0.233537465 0.127647877
vt 0.194411978 0.10076648
vt 0.238133684 0.199606478
vt 0.233537465 0.127647877
vt 0.163869768 0.160694242
vt 0.238133684 0.347905159
vt 0.238133684 0.199606478
vt 0.18421191 0.313657641
vt 0.180012941 0.216120601
vt 0.18421191 0.313657641
vt 0.0805098414 0.329627156
vt 0.238133684 0.347905159
vt 0.238133684 0.199606478
vt 0.163869768 0.160694242
vt 0.180012941 0.216120601
vt 0.163869768 0.160694242
vt 0.191614836 0.145015121
vt 0.148094818 0.115478933
vt 0.194411978 0.10076648
vt 0.163869768 0.160694242
vt 0.233537465 0.127647877
vt 0.191614836 0.145015121
vt 0.20941028 0.0152298212
vt 0.233537465 0.127647877
vt 0.257037491 0.0152298212
vt 0.257037491 0.119786918
vt 0.387402415 0.228380442
vt 0.275552601 0.226544857
vt 0.334812403 0.298875451
vt 0.275552601 0.287452102
vt 0.180012941 0.216120601
vt 0.0818471014 0.259452462
vt 0.18421191 0.313657641
vt 0.163869768 0.160694242
vt 0.148094818 0.115478933
vt 0.081881322 0.115478933
vt 0.199332148 0.388517439
vt 0.238133684 0.347905159
vt 0.0805098414 0.329627156
vt 0.442670196 0.232421517
vt 0.478921324 0.0495240092
vt 0.388798654 0.0495240092
vt 0.720350564 0.169720113
vt 0.721285105 0.264867604
vt 0.442670196 0.232421517
vt 0.447620779 0.296352029
vt 0.442670196 0.232421517
vt 0.387402415 0.228380442
vt 0.447620779 0.296352029
vt 0.387402415 0.228380442
vt 0.334812403 0.298875451
vt 0.490232676 0.302499175
vt 0.51737231 0.231301367
vt 0.489720911 0.256083012
vt 0.564909875 0.395419478
vt 0.490232676 0.302499175
vt 0.490232676 0.372161269
vt 0.648877978 0.306758761
vt 0.564909875 0.395419478
vt 0.648877978 0.367114782
vt 0.268122852 0.30499661
vt 0.304987282 0.304042518
vt 0.253213614 0.34948957
vt 0.320886225 0.350850344
vt 0.28572464 0.392885387
vt 0.447620779 0.369837821
vt 0.359836459 0.369837821
vt 0.447620779 0.296352029
vt 0.334812403 0.298875451
vt 0.447620779 0.296352029
vt 0.442670196 0.232421517
vt 0.459326714 0.256898403
vt 0.442670196 0.232421517
vt 0.51737231 0.231301367
vt 0.459326714 0.256898403
vt 0.489720911 0.256083012
vt 0.51737231 0.231301367
vt 0.648877978 0.306758761
vt 0.490232676 0.302499175
vt 0.648877978 0.306758761
vt 0.564909875 0.395419478
vt 0.490232676 0.302499175
vt 0.542557895 0.0495240092
vt 0.648877978 0.0495240092
vt 0.51737231 0.231301367
vt 0.648877978 0.306758761
vt 0.442670196 0.232421517
vt 0.387402415 0.228380442
vt 0.388798654 0.0495240092
vt 0.478921324 0.0495240092
vt 0.542557895 0.0495240092
vt 0.51737231 0.231301367
vt 0.275552601 0.0495240092
vt 0.388798654 0.0495240092
vt 0.275552601 0.226544857
vt 0.387402415 0.228380442
vt 0.66922015 0.256313384
vt 0.657080948 0.226228833
vt 0.671211243 0.185753465
vt 0.0818471014 0.259452462
vt 0.0805098414 0.329627156
vt 0.0215091202 0.259371102
vt 0.0215091202 0.328597248
vt 0.081881322 0.388517439
vt 0.0215091202 0.388517439
vt 0.0805098414 0.329627156
vt 0.0215091202 0.328597248
vt 0.0215091202 0.0152298212
vt 0.081881322 0.0152298212
vt 0.0215091202 0.115478933
vt 0.081881322 0.115478933
vt 0.0818790868 0.18034184
vt 0.0215091202 0.18030417
vt 0.081881322 0.115478933
vt 0.0215091202 0.115478933
vt 0.0818790868 0.18034184
vt 0.0818471014 0.259452462
vt 0.0215091202 0.18030417
vt 0.0215091202 0.259371102
vt 0.199332148 0.388517439
vt 0.20941028 0.0152298212
vt 0.148094818 0.115478933
vt 0.081881322 0.0152298212
vt 0.081881322 0.115478933
vt 0.0818790868 0.18034184
vt 0.081881322 0.115478933
vt 0.163869768 0.160694242
vt 0.0818471014 0.259452462
vt 0.0818790868 0.18034184
vt 0.180012941 0.216120601
vt 0.0805098414 0.329627156
vt 0.0818471014 0.259452462
vt 0.18421191 0.313657641
vt 0.0818790868 0.18034184
vt 0.163869768 0.160694242
vt 0.180012941 0.216120601
vt 0.20941028 0.0152298212
vt 0.233537465 0.127647877
vt 0.194411978 0.10076648
vt 0.148094818 0.115478933
vt 0.20941028 0.0152298212
vt 0.194411978 0.10076648
vt 0.191614836 0.145015121
vt 0.194411978 0.10076648
vt 0.233537465 0.127647877
vt 0.238133684 0.199606478
vt 0.163869768 0.160694242
vt 0.233537465 0.127647877
vt 0.238133684 0.347905159
vt 0.18421191 0.313657641
vt 0.238133684 0.199606478
vt 0.180012941 0.216120601
vt 0.18421191 0.313657641
vt 0.238133684 0.347905159
vt 0.0805098414 0.329627156
vt 0.238133684 0.199606478
vt 0.180012941 0.216120601
vt 0.163869768 0.160694242
vt 0.194411978 0.10076648
vt 0.191614836 0.145015121
vt 0.148094818 0.115478933
vt 0.163869768 0.160694242
vt 0.163869768 0.160694242
vt 0.191614836 0.145015121
vt 0.233537465 0.127647877
vt 0.257037491 0.119786918
vt 0.233537465 0.127647877
vt 0.257037491 0.0152298212
vt 0.20941028 0.0152298212
vt 0.387402415 0.228380442
vt 0.334812403 0.298875451
vt 0.275552601 0.226544857
vt 0.275552601 0.287452102
vt 0.180012941 0.216120601
vt 0.18421191 0.313657641
vt 0.0818471014 0.259452462
vt 0.163869768 0.160694242
vt 0.081881322 0.115478933
vt 0.148094818 0.115478933
vt 0.199332148 0.388517439
vt 0.0805098414 0.329627156
vt 0.238133684 0.347905159
vt 0.442670196 0.232421517
vt 0.388798654 0.0495240092
vt 0.478921324 0.0495240092
vt 0.442670196 0.232421517
vt 0.447620779 0.296352029
vt 0.387402415 0.228380442
vt 0.442670196 0.232421517
vt 0.447620779 0.296352029
vt 0.334812403 0.298875451
vt 0.387402415 0.228380442
vt 0.490232676 0.302499175
vt 0.489720911 0.256083012
vt 0.51737231 0.231301367
vt 0.564909875 0.395419478
vt 0.490232676 0.372161269
vt 0.490232676 0.302499175
vt 0.648877978 0.306758761
vt 0.648877978 0.367114782
vt 0.564909875 0.395419478
vt 0.320886225 0.350850344
vt 0.304987282 0.304042518
vt 0.253213614 0.34948957
vt 0.268122852 0.30499661
vt 0.28572464 0.392885387
vt 0.640631318 0.425334811
vt 0.624972045 0.411328197
vt 0.681744874 0.425334811
vt 0.679790139 0.411328197
vt 0.750073552 0.425334811
vt 0.681744874 0.425334811
vt 0.770895004 0.411328256
vt 0.679790139 0.411328197
vt 0.822882473 0.425334811
vt 0.750073552 0.425334811
vt 0.867973566 0.411328256
vt 0.770895004 0.411328256
vt 0.562096 0.425334811
vt 0.520258248 0.411328197
vt 0.605762422 0.425334811
vt 0.578480184 0.411328197
vt 0.605762422 0.425334811
vt 0.578480184 0.411328197
vt 0.640631318 0.425334811
vt 0.624972045 0.411328197
vt 0.640631318 0.425334811
vt 0.681744874 0.425334811
vt 0.624972045 0.411328197
vt 0.679790139 0.411328197
vt 0.605762422 0.425334811
vt 0.640631318 0.425334811
vt 0.578480184 0.411328197
vt 0.624972045 0.411328197
vt 0.562096 0.425334811
vt 0.605762422 0.425334811
vt 0.520258248 0.411328197
vt 0.578480184 0.411328197
vt 0.822882473 0.425334811
vt 0.867973566 0.411328256
vt 0.750073552 0.425334811
vt 0.770895004 0.411328256
vt 0.750073552 0.425334811
vt 0.770895004 0.411328256
vt 0.681744874 0.425334811
vt 0.679790139 0.411328197
vt 0.428861469 0.817742705
vt 0.411319673 0.780868769
vt 0.458104193 0.779743254
vt 0.478043497 0.825410187
vt 0.428861469 0.817742705
vt 0.458104193 0.779743254
vt 0.500627875 0.77872026
vt 0.478043497 0.825410187
vt 0.458104193 0.779743254
vt 0.428861439 0.817742705
vt 0.478043556 0.825410247
vt 0.458104163 0.779743254
vt 0.411319673 0.780868769
vt 0.428861439 0.817742705
vt 0.458104163 0.779743254
vt 0.478043556 0.825410247
vt 0.500627875 0.7787202
vt 0.458104163 0.779743254
vt 0.0697516203 0.820581913
vt 0.0697516203 0.697417676
vt 0.162248254 0.746504903
vt 0.0697516203 0.697417676
vt 0.0240615904 0.660861075
vt 0.125598475 0.60882324
vt 0.0697516203 0.697417676
vt 0.125598475 0.60882324
vt 0.144920737 0.66635865
vt 0.0697516203 0.697417676
vt 0.144920737 0.66635865
vt 0.162248254 0.746504903
vt 0.161586896 0.820581913
vt 0.162248254 0.746504903
vt 0.261774749 0.820581913
vt 0.26166302 0.738115788
vt 0.144920737 0.66635865
vt 0.125598475 0.60882324
vt 0.26585108 0.655017436
vt 0.267243534 0.611306131
vt 0.162248254 0.746504903
vt 0.144920737 0.66635865
vt 0.26166302 0.738115788
vt 0.26585108 0.655017436
vt 0.267243534 0.611306131
vt 0.125598475 0.60882324
vt 0.276642203 0.600830674
vt 0.236055955 0.576262951
vt 0.151895195 0.549577713
vt 0.231700093 0.552792192
vt 0.170326352 0.525684416
vt 0.295093954 0.542910576
vt 0.236055955 0.576262951
vt 0.276367128 0.522632658
vt 0.231700093 0.552792192
vt 0.0697516203 0.820581913
vt 0.162248254 0.746504903
vt 0.161586896 0.820581913
vt 0.125598475 0.60882324
vt 0.0240615904 0.660861075
vt 0.0240615904 0.600830674
vt 0.0697516203 0.820581913
vt 0.162248254 0.746504903
vt 0.0697516203 0.697417676
vt 0.0697516203 0.697417676
vt 0.125598475 0.60882324
vt 0.0240615904 0.660861075
vt 0.0697516203 0.697417676
vt 0.144920737 0.66635865
vt 0.125598475 0.60882324
vt 0.0697516203 0.697417676
vt 0.162248254 0.746504903
vt 0.144920737 0.66635865
vt 0.161586896 0.820581913
vt 0.261774749 0.820581913
vt 0.162248254 0.746504903
vt 0.26166302 0.738115788
vt 0.144920737 0.66635865
vt 0.26585108 0.655017376
vt 0.125598475 0.60882324
vt 0.267243534 0.611306131
vt 0.162248254 0.746504903
vt 0.26166302 0.738115788
vt 0.144920737 0.66635865
vt 0.26585108 0.655017376
vt 0.267243534 0.611306131
vt 0.276642203 0.600830674
vt 0.125598475 0.60882324
vt 0.236055955 0.576262951
vt 0.231700093 0.552792192
vt 0.151895195 0.549577713
vt 0.170326352 0.525684416
vt 0.295093954 0.542910576
vt 0.276367128 0.522632658
vt 0.236055955 0.576262951
vt 0.231700093 0.552792192
vt 0.0697516203 0.820581913
vt 0.161586896 0.820581913
vt 0.162248254 0.746504903
vt 0.125598475 0.60882324
vt 0.0240615904 0.600830674
vt 0.0240615904 0.660861075
vt 0.0111018904 0.509470344
vt 0.109683387 0.552690804
vt 0.0139546804 0.559271932
vt 0.0139546804 0.438403249
vt 0.0139546804 0.41854912
vt 0.0620989613 0.440216482
vt 0.089016214 0.42738086
vt 0.0620989613 0.440216482
vt 0.0111018904 0.509470344
vt 0.0139546804 0.438403249
vt 0.109683387 0.552690804
vt 0.0111018904 0.509470344
vt 0.0620989613 0.440216482
vt 0.109683387 0.552690804
vt 0.0620989613 0.440216482
vt 0.089016214 0.42738086
vt 0.0111018904 0.509470344
vt 0.0139546804 0.559271932
vt 0.109683387 0.552690804
vt 0.089016214 0.42738086
vt 0.0139546804 0.41854912
vt 0.0620989613 0.440216482
vt 0.0139546804 0.438403249
vt 0.0620989613 0.440216482
vt 0.0139546804 0.438403249
vt 0.0111018904 0.509470344
vt 0.109683387 0.552690804
vt 0.0620989613 0.440216482
vt 0.0111018904 0.509470344
vt 0.109683387 0.552690804
vt 0.089016214 0.42738086
vt 0.0620989613 0.440216482
vt 0.266167879 0.319650769
vt 0.253341615 0.362797022
vt 0.300061405 0.36042881
vt 0.299987555 0.309353709
vt 0.266167879 0.319650769
vt 0.300061405 0.36042881
vt 0.170326352 0.525684416
vt 0.231700093 0.552792192
vt 0.231700093 0.552792192
vt 0.276367128 0.522632658
vt 0.300129831 0.309353709
vt 0.300055921 0.36042881
vt 0.266280651 0.319552898
vt 0.266280651 0.319552898
vt 0.300055921 0.36042881
vt 0.253329664 0.362661958
vt 0.300061405 0.36042881
vt 0.253341615 0.362797022
vt 0.267922997 0.38734287
vt 0.253329664 0.362661958
vt 0.267839938 0.387249827
vt 0.256280363 0.387325346
vt 0.30011785 0.399534106
vt 0.300061405 0.36042881
vt 0.267922997 0.38734287
vt 0.267839938 0.387249827
vt 0.300055921 0.36042881
vt 0.299999475 0.399534106
vt 0.300055921 0.36042881
vt 0.267839938 0.387249827
vt 0.253329664 0.362661958
vt 0.267922997 0.38734287
vt 0.253341615 0.362797022
vt 0.2563636 0.387451768
vt 0.296751231 0.89781177
vt 0.343867868 0.875966609
vt 0.375445813 0.983281314
vt 0.502760708 0.544680297
vt 0.537096202 0.494338751
vt 0.578448534 0.544481695
vt 0.350062996 0.810121357
vt 0.405881822 0.796305835
vt 0.399684638 0.877296686
vt 0.350062996 0.810121357
vt 0.399684638 0.877296686
vt 0.343867868 0.875966609
vt 0.375445813 0.983281314
vt 0.399684638 0.877296686
vt 0.526192904 0.983281314
vt 0.526192904 0.88736999
vt 0.399684638 0.877296686
vt 0.405881822 0.796305835
vt 0.526192904 0.88736999
vt 0.526192904 0.796305835
vt 0.296751231 0.816188633
vt 0.343867868 0.875966609
vt 0.296751231 0.89781177
vt 0.375445813 0.983281314
vt 0.343867868 0.875966609
vt 0.399684638 0.877296686
vt 0.296751231 0.89781177
vt 0.375445813 0.983281314
vt 0.343867868 0.875966609
vt 0.537096202 0.494338751
vt 0.350062996 0.810121357
vt 0.399684638 0.877296686
vt 0.405881822 0.796305835
vt 0.350062996 0.810121357
vt 0.343867868 0.875966609
vt 0.399684638 0.877296686
vt 0.375445813 0.983281314
vt 0.526192904 0.983281314
vt 0.399684638 0.877296686
vt 0.526192904 0.88736999
vt 0.399684638 0.877296686
vt 0.526192904 0.88736999
vt 0.405881822 0.796305835
vt 0.526192904 0.796305835
vt 0.296751231 0.816188633
vt 0.296751231 0.89781177
vt 0.343867868 0.875966609
vt 0.375445813 0.983281314
vt 0.399684638 0.877296686
vt 0.343867868 0.875966609
vt 0.739238977 0.886305571
vt 0.770120502 0.918920279
vt 0.696023464 0.886496663
vt 0.770120502 0.918920279
vt 0.721874177 0.926128685
vt 0.749413431 0.9663921
vt 0.721874177 0.926128685
vt 0.704502046 0.965942264
vt 0.749413431 0.9663921
vt 0.721874177 0.926128685
vt 0.675242662 0.934138596
vt 0.704502046 0.965942264
vt 0.675242662 0.934138596
vt 0.721874177 0.926128685
vt 0.696023464 0.886496663
vt 0.721874177 0.926128685
vt 0.739238977 0.886305571
vt 0.696023464 0.886496663
vt 0.721874177 0.926128685
vt 0.770120502 0.918920279
vt 0.739238977 0.886305571
vt 0.749413431 0.9663921
vt 0.675242662 0.934138596
vt 0.704502046 0.965942264
vt 0.0140800001 0.853590012
vt 0.0906900018 0.853590012
vt 0.0140800001 0.971969962
vt 0.0960600004 0.971970022
vt 0.153779998 0.971969962
vt 0.0960600004 0.971970022
vt 0.153779998 0.853590012
vt 0.0906900018 0.853590012
vt 0.153779998 0.853590012
vt 0.208425 0.853590012
vt 0.153779998 0.971969962
vt 0.208425 0.971969962
vt 0.122235 0.839439988
vt 0.0906900018 0.853590012
vt 0.0140800001 0.839439988
vt 0.0140800001 0.853590012
vt 0.153779998 0.853590012
vt 0.0906900018 0.853590012
vt 0.122235 0.839439988
vt 0.122235 0.839439988
vt 0.220390007 0.839439988
vt 0.153779998 0.853590012
vt 0.208425 0.853590012
vt 0.208425 0.971969962
vt 0.208425 0.853590012
vt 0.220390007 0.987089992
vt 0.220390007 0.839439988
vt 0.208425 0.971969962
vt 0.220390007 0.987089992
vt 0.153779998 0.971969962
vt 0.124764994 0.987089992
vt 0.0960600004 0.971970022
vt 0.153779998 0.971969962
vt 0.124764994 0.987089992
vt 0.0140800001 0.971969962
vt 0.0960600004 0.971970022
vt 0.0140800001 0.987089992
vt 0.124764994 0.987089992
vt 0.0140800001 0.853590012
vt 0.0140800001 0.971969962
vt 0.0906900018 0.853590012
vt 0.0960600004 0.971970022
vt 0.0906900018 0.853590012
vt 0.0960600004 0.971970022
vt 0.153779998 0.853590012
vt 0.153779998 0.971969962
vt 0.153779998 0.853590012
vt 0.153779998 0.971969962
vt 0.208425 0.853590012
vt 0.208425 0.971969962
vt 0.122235 0.839439988
vt 0.0140800001 0.839439988
vt 0.0906900018 0.853590012
vt 0.0140800001 0.853590012
vt 0.153779998 0.853590012
vt 0.122235 0.839439988
vt 0.0906900018 0.853590012
vt 0.122235 0.839439988
vt 0.153779998 0.853590012
vt 0.220390007 0.839439988
vt 0.208425 0.853590012
vt 0.220390007 0.839439988
vt 0.208425 0.853590012
vt 0.220390007 0.987089992
vt 0.208425 0.971969962
vt 0.124764994 0.987089992
vt 0.220390007 0.987089992
vt 0.153779998 0.971969962
vt 0.208425 0.971969962
vt 0.0960600004 0.971970022
vt 0.124764994 0.987089992
vt 0.153779998 0.971969962
vt 0.124764994 0.987089992
vt 0.0960600004 0.971970022
vt 0.0140800001 0.987089992
vt 0.0140800001 0.971969962
vt 0.739238977 0.886305571
vt 0.696023464 0.886496663
vt 0.770120502 0.918920279
vt 0.770120502 0.918920279
vt 0.749413431 0.9663921
vt 0.721874177 0.926128685
vt 0.721874177 0.926128685
vt 0.749413431 0.9663921
vt 0.704502046 0.965942264
vt 0.721874177 0.926128685
vt 0.704502046 0.965942264
vt 0.675242662 0.934138596
vt 0.675242662 0.934138596
vt 0.696023464 0.886496663
vt 0.721874177 0.926128685
vt 0.721874177 0.926128685
vt 0.696023464 0.886496663
vt 0.739238977 0.886305571
vt 0.721874177 0.926128685
vt 0.739238977 0.886305571
vt 0.770120502 0.918920279
vt 0.675242662 0.934138596
vt 0.749413431 0.9663921
vt 0.704502046 0.965942264
vn -0.135591343 -0.515203536 -0.846274436
vn -0.135591328 -0.515203476 -0.846274376
vn -0.135591358 -0.515203536 -0.846274436
vn 0.732904851 -0.677959621 -0.0567549467
vn 0.732904911 -0.677959621 -0.0567549504
vn 0.732904971 -0.677959681 -0.0567549579
vn -0.0722212046 -0.0926685631 -0.993074358
vn -0.0722212121 -0.0926685631 -0.993074358
vn -0.0722212046 -0.0926685631 -0.993074358
vn -0.0722212121 -0.0926685631 -0.993074358
vn 0.956643403 -0.285475254 -0.0577683225
vn 0.956643462 -0.285475284 -0.05776833
vn 0.956643403 -0.285475284 -0.0577683225
vn 0.956643462 -0.285475284 -0.0577683263
vn 0.124546908 0.884470284 -0.449667007
vn 0.124546893 0.884470224 -0.449666947
vn 0.1245469 0.884470224 -0.449667007
vn 0.607999742 0.793871939 -0.0101763625
vn 0.607999802 0.793871999 -0.0101763634
vn 0.607999802 0.793871999 -0.0101763625
vn -0.0481550507 -0.560725033 0.826600552
vn -0.0481550545 -0.560725033 0.826600611
vn -0.0481550507 -0.560725033 0.826600552
vn -0.310234487 0.949729323 0.0420570895
vn -0.310234487 0.949729323 0.0420570895
vn -0.310234487 0.949729383 0.0420570858
vn 0.173218086 0.859131038 0.481548876
vn 0.173218101 0.859131038 0.481548846
vn 0.173218101 0.859130979 0.481548816
vn -0.997503757 0.0462131165 0.0533926189
vn -0.997503757 0.0462131202 0.0533926189
vn -0.997503638 0.0462131128 0.0533926114
vn -0.997503638 0.0462131165 0.0533926114
vn 0.0313587561 -0.146593481 0.988699734
vn 0.0313587487 -0.146593451 0.988699555
vn 0.0313587599 -0.146593466 0.988699675
vn 0.0313587561 -0.146593466 0.988699615
vn -0.916649163 -0.397969246 0.0370790958
vn -0.916649163 -0.397969246 0.0370790958
vn -0.916649103 -0.397969216 0.0370790884
vn -0.0574280657 -0.00373605452 -0.998342633
vn -0.0574280694 -0.00373605499 -0.998342693
vn -0.0574280657 -0.00373605476 -0.998342633
vn 0.978593707 -0.197884843 -0.0565324984
vn 0.978593767 -0.197884858 -0.0565325059
vn 0.978593707 -0.197884858 -0.0565325059
vn -0.98914355 0.136111096 0.0553978011
vn -0.989143491 0.136111081 0.0553978011
vn -0.98914355 0.136111096 0.0553978011
vn 0.0468753278 -0.0580366105 0.997213364
vn 0.0468753278 -0.0580366068 0.997213304
vn 0.0468753278 -0.0580366068 0.997213364
vn 0.168311223 0.985569179 0.0180211104
vn 0.168311223 0.985569119 0.0180211086
vn 0.168311223 0.985569179 0.0180211086
vn 0.168311238 0.985569179 0.0180211086
vn 0.0256970376 0.372440815 -0.927700043
vn 0.018241588 0.360776007 -0.932474077
vn 0.0256970376 0.372440815 -0.927700102
vn 0.00802772399 0.344679862 -0.938686013
vn 0.442663699 -0.761982918 -0.472684711
vn 0.442663729 -0.761982918 -0.472684681
vn 0.442663759 -0.761982918 -0.472684681
vn 0.683602035 -0.356603414 0.63680625
vn 0.683602035 -0.356603384 0.636806309
vn 0.683602035 -0.356603414 0.636806309
vn 0.683602095 -0.356603444 0.636806309
vn -0.664282501 -0.398916334 -0.632135034
vn -0.664282501 -0.398916304 -0.632134855
vn -0.664282501 -0.398916304 -0.632134914
vn -0.783068717 -0.616595507 0.0813229308
vn -0.783068657 -0.616595507 0.0813229308
vn -0.783068776 -0.616595507 0.0813229308
vn -0.366630167 -0.92091763 0.132261679
vn -0.366630226 -0.920917571 0.132261693
vn -0.366630167 -0.920917571 0.132261664
vn -0.366630167 -0.920917571 0.132261679
vn -0.895593584 0.441789418 -0.0522888936
vn -0.895593703 0.441789478 -0.0522888936
vn -0.895593643 0.441789478 -0.0522888973
vn -0.962664247 -0.26183328 0.0687095895
vn -0.998463273 -0.0532149747 -0.015470637
vn -0.906823695 -0.402089894 0.12646991
vn -0.210610911 0.97755897 -0.00460920064
vn -0.210610926 0.97755909 -0.0046092011
vn -0.210610941 0.97755909 -0.00460920157
vn -0.210610926 0.97755909 -0.00460920157
vn -0.208621949 -0.0757592246 0.975057721
vn -0.208610296 -0.07577952 0.975058496
vn -0.213630095 -0.0669899434 0.974615037
vn -0.694864869 0.540548623 -0.474309951
vn -0.694864929 0.540548623 -0.47431004
vn -0.694864869 0.540548623 -0.474309981
vn -0.694864869 0.540548623 -0.474309981
vn -0.790140688 0.0785680935 0.607869089
vn -0.806393921 0.0612933934 0.588193774
vn -0.830727935 0.033625342 0.555662155
vn -0.830727935 0.033625342 0.555662096
vn 0.331446499 -0.593428075 0.733475506
vn 0.331446528 -0.593428075 0.733475566
vn 0.331446499 -0.593428075 0.733475566
vn 0.331446499 -0.593428075 0.733475566
vn 0.876770616 -0.320327759 -0.358696699
vn 0.876770675 -0.320327818 -0.358696729
vn 0.876770675 -0.320327789 -0.358696699
vn 0.876770675 -0.320327789 -0.358696729
vn 0.0264090337 0.344711214 -0.938337207
vn 0.0264090318 0.344711214 -0.938337266
vn 0.0264090318 0.344711185 -0.938337207
vn 0.02640903 0.344711185 -0.938337266
vn -0.737871587 0.129042447 0.662490308
vn 0.25053522 -0.711255908 0.656770229
vn 0.25053525 -0.711255848 0.656770229
vn 0.25053522 -0.711255908 0.656770289
vn 0.25053522 -0.711255848 0.656770229
vn 0.578267992 -0.605953813 -0.546283901
vn 0.578267992 -0.605953813 -0.546283901
vn 0.578267992 -0.605953813 -0.54628396
vn -0.0678440407 0.302061975 -0.95087111
vn -0.0678440481 0.302061975 -0.95087105
vn -0.0678440481 0.302061975 -0.95087105
vn -0.689781785 0.612156391 -0.386607885
vn -0.689781785 0.612156391 -0.386607856
vn -0.689781845 0.612156391 -0.386607915
vn 0.558022678 -0.00345118949 -0.829818487
vn 0.558022678 -0.00345118972 -0.829818487
vn 0.558022738 -0.00345118972 -0.829818547
vn 0.493894547 -0.205330834 0.84493041
vn 0.493894577 -0.205330834 0.844930351
vn 0.493894547 -0.205330849 0.84493041
vn 0.160671711 -0.734079659 0.659781635
vn 0.160671711 -0.734079599 0.659781694
vn 0.160671711 -0.734079599 0.659781575
vn 0.881418705 -0.145759016 0.449283332
vn 0.881418645 -0.145759001 0.449283332
vn 0.881418645 -0.145758986 0.449283302
vn 0.850871503 -0.512086689 0.117408946
vn 0.850871503 -0.51208663 0.117408939
vn 0.850871503 -0.512086689 0.117408954
vn 0.264650226 0.944854498 0.192899629
vn 0.264650226 0.944854498 0.192899615
vn 0.264650226 0.944854498 0.192899629
vn 0.264650226 0.944854438 0.192899644
vn -0.797551692 0.225114584 0.559673667
vn -0.797551811 0.225114614 0.559673667
vn -0.797551692 0.225114599 0.559673667
vn 0.806504667 0.0726794675 -0.586743474
vn 0.806504726 0.0726794526 -0.586743474
vn 0.806504726 0.0726794675 -0.586743593
vn 0.877278745 -0.470542043 -0.0947212055
vn 0.877278745 -0.470542014 -0.0947212055
vn 0.877278745 -0.470542073 -0.0947212055
vn 0.877278805 -0.470542073 -0.0947212204
vn -0.0815686584 0.938449621 -0.335646629
vn -0.0815686733 0.938449681 -0.335646659
vn -0.0815686733 0.938449681 -0.335646629
vn 0.572304308 0.124752775 0.810496509
vn 0.572304308 0.124752782 0.810496569
vn 0.572304249 0.124752775 0.810496449
vn 0.572304249 0.124752775 0.810496449
vn -0.243571892 0.803265333 -0.543541729
vn -0.243571877 0.803265393 -0.54354167
vn -0.243571877 0.803265333 -0.54354167
vn -0.243571892 0.803265393 -0.54354167
vn -0.439162105 0.725710869 -0.529603899
vn -0.439162105 0.725710869 -0.529603899
vn -0.439162165 0.725710928 -0.529603958
vn 0.408141196 -0.536863804 -0.738375306
vn 0.408141226 -0.536863804 -0.738375366
vn 0.408141226 -0.536863744 -0.738375306
vn -0.720125198 -0.0434287451 0.692483842
vn -0.720125139 -0.0434287414 0.692483723
vn -0.720125198 -0.0434287451 0.692483842
vn -0.948159337 0.317584842 -0.0115565779
vn -0.948159397 0.317584872 -0.0115565779
vn -0.948159456 0.317584872 -0.0115565788
vn 0.00759464549 -0.112319365 0.993643105
vn -0.020902345 -0.10783378 0.993949175
vn -0.998166084 0.0339816213 -0.0500960872
vn -0.80527848 0.320910662 -0.49854064
vn -0.80527848 0.320910662 -0.49854067
vn -0.80527848 0.320910692 -0.49854064
vn 0.808651865 -0.291768491 0.510835767
vn 0.808651865 -0.291768521 0.510835826
vn 0.808651865 -0.291768521 0.510835826
vn -0.906248868 -0.262772679 0.331154972
vn -0.906248808 -0.26277265 0.331154943
vn -0.906248808 -0.26277265 0.331154972
vn -0.665158689 0.0908976048 -0.741148829
vn -0.665158629 0.0908976048 -0.741148829
vn -0.665158689 0.0908976123 -0.741148889
vn -0.369784057 -0.613710046 -0.697581351
vn -0.369784057 -0.613710046 -0.697581291
vn -0.369784057 -0.613710105 -0.697581351
vn 0.457819074 0.463450551 -0.758693159
vn 0.457819104 0.463450521 -0.758693159
vn 0.457796752 0.463573903 -0.75863117
vn 0.457796484 0.463575721 -0.758630335
vn 0.457745403 0.463858157 -0.758488476
vn 0.793093264 0.302373558 -0.528747022
vn 0.685527742 0.305536091 -0.660832345
vn 0.793093264 0.302373528 -0.528746903
vn 0.586746156 0.30178684 -0.751434326
vn 0.468661129 0.0635527298 0.881088912
vn 0.468661129 0.0635527223 0.881088972
vn 0.468661159 0.0635527372 0.881088912
vn -0.544999182 0.286432087 -0.787992716
vn -0.544999123 0.286432087 -0.787992716
vn -0.544999182 0.286432087 -0.787992716
vn -0.544999182 0.286432087 -0.787992716
vn -0.219070956 -0.603410184 0.766748965
vn -0.219070971 -0.603410244 0.766749024
vn -0.219070971 -0.603410244 0.766748965
vn 0.149565727 -0.617436945 -0.77227056
vn 0.149565712 -0.617436886 -0.772270441
vn 0.149565712 -0.617436945 -0.772270501
vn 0.209956899 -0.968140304 0.136464268
vn 0.209956929 -0.968140185 0.136464268
vn 0.209956914 -0.968140244 0.136464253
vn 0.209956929 -0.968140304 0.136464268
vn 0.975571692 0.211529806 -0.0592878908
vn 0.975571632 0.211529806 -0.0592878871
vn 0.975571692 0.211529791 -0.0592878871
vn 0.824440181 -0.565946996 0.00152634887
vn 0.798665226 -0.601344764 0.0227650832
vn 0.855906129 -0.516429603 -0.0269293226
vn 0.451371014 0.891463816 -0.039451696
vn 0.451370984 0.891463816 -0.039451696
vn 0.451370984 0.891463876 -0.0394516923
vn 0.451371014 0.891463876 -0.039451696
vn 0.258000672 -0.146375611 0.954992056
vn 0.230529547 -0.0947310179 0.968443155
vn 0.258074433 -0.146515921 0.954950631
vn 0.674470723 -0.649931431 -0.350254714
vn 0.674470723 -0.64993149 -0.350254744
vn 0.674470723 -0.64993149 -0.350254714
vn 0.674470663 -0.649931431 -0.350254685
vn -0.35019055 -0.935612321 0.0446783006
vn -0.285141289 -0.942796886 0.172709286
vn -0.328518659 -0.940289855 0.0890536979
vn -0.285141289 -0.942796886 0.172709301
vn -0.889142513 0.232209399 0.394340664
vn -0.889142454 0.23220937 0.394340664
vn -0.889142394 0.232209414 0.394340694
vn -0.889142394 0.23220937 0.394340664
vn -0.164702103 0.898679256 -0.406507999
vn -0.164702117 0.898679376 -0.406508029
vn -0.164702103 0.898679256 -0.406507999
vn -0.164702117 0.898679256 -0.406507999
vn 0.758594632 0.252558082 -0.600623488
vn 0.758594573 0.252558053 -0.600623488
vn 0.758594632 0.252558053 -0.600623548
vn 0.758594632 0.252558053 -0.600623488
vn -0.430715382 -0.891510248 -0.140334219
vn -0.970230341 0.135913298 0.200451225
vn -0.970230281 0.135913312 0.200451195
vn -0.970230341 0.135913312 0.20045121
vn -0.970230281 0.135913312 0.20045121
vn -0.0346516483 0.98315531 -0.179457709
vn -0.0346516408 0.983155251 -0.179457679
vn -0.0346516445 0.983155191 -0.179457679
vn 0.870657682 0.23129268 -0.434118509
vn 0.870657682 0.231292695 -0.434118509
vn 0.870657682 0.231292665 -0.434118539
vn 0.629691541 -0.638148665 -0.443006575
vn 0.629691601 -0.638148665 -0.443006635
vn 0.629691541 -0.638148725 -0.443006605
vn 0.509119987 0.8548522 -0.100122631
vn 0.509119987 0.8548522 -0.100122638
vn 0.509119928 0.85485214 -0.100122623
vn -0.706778824 -0.0200037081 0.707151711
vn -0.706778824 -0.0200037081 0.707151771
vn -0.706778884 -0.0200037099 0.707151771
vn -0.990174711 0.0611150749 0.125773907
vn -0.990174711 0.0611150786 0.125773907
vn -0.990174592 0.0611150749 0.125773892
vn -0.422797054 0.452814966 0.784984827
vn -0.422797084 0.452814966 0.784984887
vn -0.422797024 0.452814996 0.784984827
vn -0.496806741 0.765782058 0.40836373
vn -0.496806711 0.765781999 0.4083637
vn -0.496806741 0.765781999 0.40836367
vn 0.60333246 -0.308868289 0.735248446
vn 0.60333246 -0.308868259 0.735248446
vn 0.60333246 -0.308868289 0.735248446
vn 0.60333246 -0.308868229 0.735248446
vn -0.159500569 -0.977046072 -0.141210198
vn -0.159500584 -0.977046192 -0.141210198
vn -0.159500569 -0.977046192 -0.141210198
vn 0.402025402 0.875620663 0.267701328
vn 0.402025431 0.875620663 0.267701298
vn 0.402025431 0.875620723 0.267701298
vn -0.331645101 0.883916616 0.329701215
vn -0.331645131 0.883916616 0.329701215
vn -0.331645161 0.883916616 0.329701245
vn -0.331645101 0.883916557 0.329701185
vn 0.94197917 -0.267007887 0.203425407
vn 0.94197917 -0.267007917 0.203425378
vn 0.941979229 -0.267007887 0.203425378
vn -0.431392759 -0.0822230279 0.898409605
vn -0.431392699 -0.0822230279 0.898409545
vn -0.431392699 -0.0822230279 0.898409545
vn -0.431392699 -0.0822230205 0.898409545
vn 0.403287232 0.74467653 -0.531804621
vn 0.403287262 0.74467653 -0.531804681
vn 0.403287262 0.74467653 -0.531804621
vn 0.403287321 0.74467659 -0.531804681
vn 0.910659432 -0.331460834 -0.246643752
vn 0.910659373 -0.331460834 -0.246643737
vn 0.910659432 -0.331460863 -0.246643737
vn 0.0269407053 0.97140038 -0.235914052
vn 0.026940709 0.97140038 -0.235914066
vn 0.026940709 0.97140044 -0.235914066
vn -0.442843884 -0.884688377 -0.145656407
vn -0.442843795 -0.884688377 -0.145656392
vn -0.442843825 -0.884688377 -0.145656407
vn 0.996051371 0.0882048532 -0.0100783175
vn 0.996051431 0.0882048458 -0.0100783166
vn 0.996051311 0.0882048458 -0.0100783166
vn 0.870467544 -0.490489155 -0.0413106866
vn 0.600880206 0.261216283 0.755452871
vn 0.600880146 0.261216283 0.755452871
vn 0.600880206 0.261216313 0.755452931
vn 0.788077176 0.331443548 -0.518728733
vn 0.788077176 0.331443518 -0.518728793
vn 0.788077176 0.331443518 -0.518728673
vn -0.435298771 0.247960359 -0.865465641
vn -0.435298771 0.247960344 -0.865465581
vn -0.435298771 0.247960359 -0.865465522
vn 0.475118935 -0.506502569 -0.719525576
vn 0.475118965 -0.506502628 -0.719525635
vn 0.475118905 -0.506502569 -0.719525576
vn 0.21917294 -0.679496408 -0.700177073
vn 0.21917294 -0.679496348 -0.700177073
vn 0.21917294 -0.679496348 -0.700177073
vn -0.368509084 0.579857469 -0.726612985
vn -0.368578672 0.579745889 -0.726666689
vn -0.368510097 0.579855919 -0.7266137
vn -0.368578702 0.579745889 -0.726666629
vn -0.368351966 0.580109239 -0.72649163
vn 0.617617011 -0.328540415 0.714570045
vn 0.617617071 -0.328540444 0.714570105
vn 0.617617011 -0.328540415 0.714570105
vn 0.617617011 -0.328540385 0.714570045
vn 0.271860331 0.354395241 0.894704461
vn 0.271860331 0.354395211 0.894704401
vn 0.271860331 0.354395211 0.894704461
vn 0.271860301 0.354395211 0.894704342
vn -0.70177722 0.604414999 -0.377082527
vn -0.70177722 0.604414999 -0.377082527
vn -0.70177722 0.604414999 -0.377082527
vn -0.701777279 0.60441494 -0.377082527
vn -0.648870766 -0.29499343 -0.701388359
vn -0.648870766 -0.29499343 -0.701388299
vn -0.648870826 -0.29499346 -0.701388359
vn -0.648870826 -0.29499343 -0.701388299
vn 0.161640733 -0.96426338 -0.209925056
vn 0.161640719 -0.96426338 -0.209925056
vn 0.161640719 -0.96426332 -0.209925041
vn 0.161640719 -0.96426332 -0.209925041
vn -0.500209332 -0.175793961 0.847872019
vn -0.500209391 -0.175793976 0.847872019
vn -0.500209332 -0.175793961 0.847872078
vn -0.500209391 -0.175793976 0.847872078
vn -0.426859438 -0.893657386 -0.13844718
vn -0.426859409 -0.893657267 -0.138447165
vn -0.426859409 -0.893657327 -0.138447165
vn -0.426859379 -0.893657327 -0.138447165
vn 0.434235513 -0.432771623 -0.790030479
vn 0.434235513 -0.432771623 -0.790030539
vn 0.434235573 -0.432771653 -0.790030539
vn 0.434235513 -0.432771623 -0.790030479
vn 0.742735684 0.394798428 -0.540812254
vn 0.742735624 0.394798398 -0.540812254
vn 0.742735684 0.394798398 -0.540812254
vn 0.742735684 0.394798398 -0.540812254
vn -0.0348197371 0.352094024 0.935316682
vn -0.0348197445 0.352094084 0.935316741
vn -0.0348197371 0.352094024 0.935316682
vn -0.0348197408 0.352094054 0.935316741
vn -0.00643238705 0.320932835 -0.947080016
vn -0.00643238751 0.320932835 -0.947080076
vn -0.00643238751 0.320932865 -0.947080076
vn 0.00802772399 0.344679862 -0.938686013
vn 0.018241588 0.360776007 -0.932474077
vn -0.00739280134 0.320125699 -0.94734621
vn -0.0164672751 -0.216260388 -0.976196826
vn -0.0164672751 -0.216260374 -0.976196826
vn -0.0164672751 -0.216260388 -0.976196885
vn 0.586746156 0.30178684 -0.751434326
vn 0.685527742 0.305536091 -0.660832345
vn 0.153223723 0.243841559 -0.957634389
vn 0.0980690122 0.311505377 -0.945170343
vn 0.0980690196 0.311505377 -0.945170283
vn 0.0980690122 0.311505318 -0.945170283
vn 0.0182094816 -0.219396919 -0.975465655
vn 0.0182094816 -0.219396949 -0.975465715
vn 0.0182094816 -0.219396949 -0.975465775
vn 0.330160946 0.726251006 0.602953911
vn 0.330160946 0.726251006 0.602953792
vn 0.330160946 0.726250947 0.602953851
vn 0.487579137 -0.0735885352 0.869971931
vn 0.487579197 -0.0735885501 0.86997205
vn 0.487579137 -0.0735885352 0.86997205
vn 0.508255661 -0.0636683255 0.858849466
vn 0.508255661 -0.0636683404 0.858849525
vn 0.508255601 -0.063668333 0.858849466
vn 0.575005889 0.55347687 0.602521062
vn 0.575005829 0.55347687 0.602521062
vn 0.575005829 0.55347687 0.602521062
vn 0.308432341 0.832779765 -0.459725291
vn 0.308432311 0.832779765 -0.459725261
vn 0.308432341 0.832779765 -0.459725261
vn 0.30843237 0.832779825 -0.459725291
vn 0.93585676 -0.290672839 0.199202031
vn 0.93585676 -0.290672839 0.199202031
vn 0.93585676 -0.290672809 0.199202046
vn 0.93585676 -0.290672839 0.199202031
vn 0.963592708 0.229277298 -0.137553334
vn 0.963592768 0.229277328 -0.137553349
vn 0.963592827 0.229277357 -0.137553364
vn 0.963592768 0.229277328 -0.137553349
vn -0.152865514 -0.936199009 0.316486061
vn -0.152865529 -0.936199069 0.31648609
vn -0.152865529 -0.936199069 0.316486061
vn 0.766225576 0.517606616 -0.380764693
vn 0.766225636 0.517606616 -0.380764693
vn 0.766225636 0.517606616 -0.380764663
vn 0.766225636 0.517606616 -0.380764693
vn 0.67203486 -0.610358 0.419323653
vn 0.6720348 -0.610358 0.419323683
vn 0.67203486 -0.610358059 0.419323653
vn 0.67203474 -0.610358 0.419323623
vn 0.193785191 0.893099964 0.40598011
vn 0.193785176 0.893099844 0.40598008
vn 0.193785176 0.893099904 0.40598008
vn 0.435301691 -0.160573944 0.885849059
vn 0.435301602 -0.16057393 0.885848939
vn 0.435301691 -0.160573959 0.885849059
vn -0.29242292 0.741481423 0.603899062
vn -0.29242292 0.741481483 0.603899062
vn -0.292422891 0.741481423 0.603899062
vn -0.487949908 -0.0497232862 0.871454239
vn -0.487949908 -0.0497232862 0.871454298
vn -0.487949938 -0.0497232787 0.871454239
vn -0.508153379 -0.038802132 0.860392094
vn -0.508153379 -0.0388021357 0.860392034
vn -0.508153379 -0.0388021395 0.860392034
vn -0.545423448 0.580886364 0.604222059
vn -0.545423388 0.580886364 0.604222
vn -0.545423388 0.580886424 0.604222059
vn -0.268737823 0.846899152 -0.458848506
vn -0.268737823 0.846899092 -0.458848506
vn -0.268737823 0.846899092 -0.458848506
vn -0.268737823 0.846899092 -0.458848506
vn -0.948342681 -0.244575709 0.202061743
vn -0.948342621 -0.244575739 0.202061743
vn -0.948342621 -0.244575724 0.202061728
vn -0.948342621 -0.244575724 0.202061728
vn -0.951642156 0.276130527 -0.134644419
vn -0.951642096 0.276130497 -0.134644404
vn -0.951642156 0.276130527 -0.134644419
vn -0.951642215 0.276130527 -0.134644434
vn 0.10786359 -0.942577362 0.316090763
vn 0.107863598 -0.942577362 0.316090792
vn 0.107863598 -0.942577362 0.316090792
vn -0.741152108 0.554481983 -0.378475159
vn -0.741151989 0.554481924 -0.3784751
vn -0.741152048 0.554482043 -0.37847513
vn -0.741151989 0.554481983 -0.3784751
vn -0.699799001 -0.576798916 0.421407729
vn -0.699798882 -0.576798797 0.4214077
vn -0.699799001 -0.576798916 0.421407729
vn -0.699798882 -0.576798916 0.4214077
vn -0.14865014 0.901477039 0.406500012
vn -0.14865014 0.901477039 0.406500012
vn -0.14865014 0.901477039 0.406500041
vn -0.439941525 -0.13916263 0.887178183
vn -0.439941525 -0.13916263 0.887178183
vn -0.439941525 -0.13916263 0.887178183
vn 0.324359208 -0.703219354 0.632671714
vn 0.324359238 -0.703219354 0.632671773
vn 0.324359238 -0.703219414 0.632671773
vn 0.216818452 -0.270803243 -0.937899411
vn 0.216818437 -0.270803273 -0.937899411
vn 0.216818467 -0.270803273 -0.93789947
vn 0.216818437 -0.270803273 -0.937899411
vn 0.167043254 -0.939414442 0.299327731
vn 0.167043254 -0.939414442 0.299327731
vn 0.167043239 -0.939414442 0.299327731
vn 0.426532298 -0.771473229 0.472122163
vn 0.426532298 -0.771473229 0.472122192
vn 0.426532269 -0.771473169 0.472122163
vn 0.904855311 -0.415478915 0.0928120092
vn 0.904855371 -0.415478915 0.0928120092
vn 0.904855311 -0.415478915 0.0928120092
vn -0.356434196 -0.686564982 0.633705854
vn -0.356434226 -0.686565042 0.633705914
vn -0.356434226 -0.686565042 0.633705854
vn -0.232648 -0.259808391 -0.937216401
vn -0.232648 -0.259808421 -0.937216341
vn -0.232647985 -0.259808391 -0.937216341
vn -0.232647985 -0.259808362 -0.937216282
vn -0.211868837 -0.930145144 0.299902678
vn -0.211868823 -0.930145144 0.299902707
vn -0.211868823 -0.930145144 0.299902707
vn -0.462308496 -0.749729812 0.473472536
vn -0.462308437 -0.749729753 0.473472476
vn -0.462308437 -0.749729753 0.473472506
vn -0.923803508 -0.370742649 0.0955874547
vn -0.923803508 -0.370742649 0.0955874547
vn -0.923803449 -0.370742619 0.0955874547
vn 0.215810031 -0.252595425 -0.943197548
vn 0.215810031 -0.252595454 -0.943197548
vn 0.215810046 -0.252595395 -0.943197548
vn 0.0626481175 -0.102393799 -0.992769182
vn 0.062648125 -0.102393806 -0.992769182
vn 0.062648125 -0.102393813 -0.992769182
vn 0.0146616306 0.547369599 0.836762607
vn 0.0146616306 0.547369599 0.836762547
vn 0.0146616315 0.547369599 0.836762488
vn 0.0146616306 0.547369599 0.836762488
vn -0.0706836805 -0.0987440571 -0.992599249
vn -0.0706836879 -0.0987440646 -0.992599308
vn -0.0706836954 -0.0987440646 -0.992599368
vn -0.232016131 -0.241196796 -0.942333579
vn -0.232016101 -0.241196781 -0.942333639
vn -0.232016116 -0.241196766 -0.942333579
vn 0.187496752 -0.496974021 -0.84726721
vn 0.187496752 -0.496974051 -0.84726721
vn 0.187496752 -0.496974021 -0.84726721
vn 0.19500652 -0.249019757 -0.948663056
vn 0.195006505 -0.249019697 -0.948662996
vn 0.195006534 -0.249019757 -0.948663056
vn 0.333984345 -0.302312881 -0.892782986
vn 0.333984315 -0.302312911 -0.892782927
vn 0.333984315 -0.30231294 -0.892782986
vn -0.351911932 -0.287962288 -0.890637815
vn -0.351911962 -0.287962288 -0.890637815
vn -0.351911932 -0.287962288 -0.890637875
vn -0.215199247 -0.487644106 -0.846104324
vn -0.215199247 -0.487644136 -0.846104264
vn -0.215199277 -0.487644166 -0.846104324
vn -0.209824219 -0.239117473 -0.94804889
vn -0.209824219 -0.239117488 -0.94804889
vn -0.209824204 -0.239117473 -0.94804883
vn 0.20195584 0.431222886 0.879352391
vn 0.20195584 0.431222856 0.87935245
vn 0.20195587 0.431222916 0.87935245
vn 0.00416998984 0.230856389 -0.97297889
vn 0.00939795189 0.230725318 -0.972973585
vn 0.00416998938 0.230856359 -0.97297889
vn 0.299566686 0.14723824 -0.94264549
vn 0.299566716 0.147238269 -0.942645609
vn 0.299566746 0.147238269 -0.942645609
vn 0.931348205 -0.364072591 0.00644470612
vn 0.931348324 -0.364072621 0.00644470705
vn 0.931348264 -0.364072621 0.00644470751
vn 0.738466024 0.645700455 0.194264904
vn 0.738466024 0.645700455 0.194264904
vn 0.738466084 0.645700455 0.194264904
vn 0.738466024 0.645700395 0.194264889
vn 0.56783855 -0.801378548 -0.188020885
vn 0.56783849 -0.801378548 -0.18802087
vn 0.56783849 -0.801378548 -0.188020885
vn 0.56783849 -0.801378548 -0.1880209
vn 0.358376056 -0.680108488 0.639546037
vn 0.358376056 -0.680108488 0.639546037
vn 0.358376026 -0.680108428 0.639545977
vn 0.775578618 0.517944753 0.360847592
vn 0.775578618 0.517944813 0.360847533
vn 0.775578678 0.517944753 0.360847563
vn -0.177961096 0.440516651 0.879928887
vn -0.177961126 0.44051671 0.879928946
vn -0.177961096 0.440516651 0.879928887
vn -0.00105808605 0.230981141 -0.97295773
vn -0.294872791 0.161780089 -0.941741526
vn -0.29487282 0.161780119 -0.941741586
vn -0.29487282 0.161780104 -0.941741586
vn -0.948012233 -0.318098068 0.00929918978
vn -0.948012173 -0.318098068 0.00929918885
vn -0.948012114 -0.318098038 0.00929918792
vn -0.705416679 0.681022525 0.196457982
vn -0.70541656 0.681022465 0.196457967
vn -0.70541662 0.681022406 0.196457967
vn -0.705416679 0.681022465 0.196457952
vn -0.606912971 -0.772640049 -0.18623662
vn -0.606912971 -0.772640109 -0.18623662
vn -0.606912971 -0.77263999 -0.18623662
vn -0.606912911 -0.77263999 -0.18623662
vn -0.389258921 -0.661818981 0.640681684
vn -0.389258951 -0.661819041 0.640681803
vn -0.389258891 -0.661818981 0.640681744
vn -0.748224497 0.555223346 0.363162667
vn -0.748224497 0.555223405 0.363162696
vn -0.748224497 0.555223346 0.363162696
vn 0.999699771 -0.0244560372 -0.00151832681
vn 0.999699771 -0.0244561937 -0.00151844183
vn 0.999699712 -0.0244561899 -0.00151844067
vn -0.131037697 0.786499739 -0.603529096
vn -0.131037697 0.786499679 -0.603529036
vn -0.131037682 0.786499679 -0.603529036
vn -0.121907555 0.871157646 0.475629002
vn -0.121907555 0.871157587 0.475628972
vn -0.121907562 0.871157646 0.475629032
vn -0.132875517 0.157027677 0.978614569
vn -0.132875487 0.157027662 0.978614509
vn -0.132875502 0.157027692 0.978614509
vn -0.161164284 -0.780096769 0.604545414
vn -0.161164284 -0.780096769 0.604545474
vn -0.161164284 -0.78009671 0.604545474
vn -0.165007845 -0.873544455 -0.457922012
vn -0.16500783 -0.873544335 -0.457922012
vn -0.165007845 -0.873544395 -0.457922012
vn -0.144904763 -0.168358698 -0.975016952
vn -0.144904763 -0.168358684 -0.975016952
vn -0.144904748 -0.168358684 -0.975016952
vn 0.999699831 -0.0244561601 -0.00151843042
vn 0.999699712 -0.0244561601 -0.00151843124
vn 0.999699771 -0.0244555138 -0.00151814823
vn 0.343414366 -0.490429819 0.800965071
vn 0.343414366 -0.490429848 0.800965071
vn 0.343414336 -0.490429819 0.800965071
vn 0.343414366 -0.490429848 0.800965071
vn 0.706811309 -0.388406008 0.591234744
vn 0.706811249 -0.388405979 0.591234744
vn 0.706811249 -0.388405979 0.591234684
vn 0.706811368 -0.388406008 0.591234803
vn 0.967687309 -0.142861038 0.207778916
vn 0.967687309 -0.142861038 0.207778901
vn 0.967687249 -0.142861038 0.207778886
vn 0.967687309 -0.142861038 0.207778901
vn 0.0585378408 -0.60818702 -0.791632414
vn 0.0585378446 -0.60818702 -0.791632414
vn 0.0585378408 -0.60818702 -0.791632414
vn 0.0585378408 -0.60818702 -0.791632414
vn 0.157155439 -0.61896807 -0.769532681
vn 0.157155439 -0.618968129 -0.76953274
vn 0.157155439 -0.61896807 -0.769532681
vn 0.188333392 -0.586740613 -0.787569642
vn 0.188333392 -0.586740613 -0.787569642
vn 0.188333407 -0.586740613 -0.787569642
vn 0.188333407 -0.586740613 -0.787569642
vn 0.288294911 0.463588119 -0.837837756
vn 0.288294882 0.463588089 -0.837837815
vn 0.288294882 0.463588089 -0.837837756
vn 0.288294911 0.463588119 -0.837837815
vn 0.0850652084 0.775580883 0.625490427
vn 0.0850652084 0.775580883 0.625490427
vn 0.0850652009 0.775580883 0.625490427
vn 0.0850652009 0.775580883 0.625490367
vn 0.0813205093 0.762027919 0.642417669
vn 0.0813205168 0.762027979 0.642417669
vn 0.0813205093 0.762027919 0.642417669
vn 0.0418952629 0.766449332 0.64093709
vn 0.0418952629 0.766449273 0.64093703
vn 0.0418952666 0.766449273 0.64093703
vn 0.0418952666 0.766449273 0.64093703
vn -0.364549696 -0.473110944 0.802040935
vn -0.364549667 -0.473110884 0.802040875
vn -0.364549696 -0.473110914 0.802040875
vn -0.364549637 -0.473110884 0.802040875
vn -0.723161399 -0.353423089 0.593405306
vn -0.72316134 -0.353423059 0.593405247
vn -0.72316134 -0.353423059 0.593405306
vn -0.723161399 -0.353423029 0.593405187
vn -0.972880602 -0.0953869298 0.21072419
vn -0.972880602 -0.0953869298 0.21072416
vn -0.972880661 -0.0953869373 0.210724205
vn -0.972880542 -0.0953869298 0.210724175
vn -0.0906105563 -0.604538262 -0.791405857
vn -0.0906105563 -0.604538262 -0.791405797
vn -0.0906105638 -0.604538262 -0.791405857
vn -0.0906105489 -0.604538202 -0.791405797
vn -0.18956691 -0.610485852 -0.769006848
vn -0.189566925 -0.610485852 -0.769006848
vn -0.189566925 -0.610485792 -0.769006789
vn -0.219189629 -0.576771796 -0.786949933
vn -0.219189644 -0.576771736 -0.786949992
vn -0.219189629 -0.576771736 -0.786949933
vn -0.219189644 -0.576771796 -0.786949992
vn -0.267828017 0.477191955 -0.836992264
vn -0.267827988 0.477191925 -0.836992204
vn -0.267827988 0.477191895 -0.836992204
vn -0.267828017 0.477191955 -0.836992264
vn -0.0451374315 0.778766096 0.625688434
vn -0.045137424 0.778766096 0.625688374
vn -0.045137424 0.778766036 0.625688374
vn -0.0451374315 0.778766096 0.625688434
vn -0.0420079678 0.765045702 0.64260447
vn -0.0420079678 0.765045702 0.64260453
vn -0.0420079716 0.765045643 0.64260447
vn -0.00242147921 0.7675336 0.641004205
vn -0.00242147944 0.7675336 0.641004205
vn -0.00242147944 0.767533541 0.641004145
vn -0.00242147921 0.767533541 0.641004205
vn -0.999699771 0.02445646 0.00151868549
vn -0.999699712 0.0244558714 0.00151840306
vn -0.999699771 0.0244558658 0.00151840085
vn 0.167505875 0.779196501 -0.603982329
vn 0.16750586 0.779196441 -0.60398227
vn 0.16750586 0.779196501 -0.60398221
vn 0.165802673 0.864119411 0.475191593
vn 0.165802673 0.86411947 0.475191593
vn 0.165802658 0.864119411 0.475191534
vn 0.143365622 0.150269806 0.978194892
vn 0.143365622 0.150269806 0.978194892
vn 0.143365622 0.150269806 0.978194952
vn 0.124660656 -0.78708905 0.604111195
vn 0.124660663 -0.787089109 0.604111135
vn 0.124660663 -0.787089169 0.604111254
vn 0.120706208 -0.880533516 -0.45835647
vn 0.120706216 -0.880533516 -0.458356529
vn 0.120706216 -0.880533516 -0.458356529
vn 0.133538142 -0.175170407 -0.975439847
vn 0.133538127 -0.175170377 -0.975439787
vn 0.133538157 -0.175170407 -0.975439906
vn -0.999699652 0.0244558267 0.00151837198
vn -0.999699771 0.0244558267 0.00151837151
vn -0.999699771 0.0244557858 0.00151816511
f 1/1/1 2/2/2 3/3/3
f 4/4/4 5/5/5 6/6/6
f 7/7/7 8/8/8 9/9/9
f 9/9/9 8/8/8 10/10/10
f 11/11/11 12/12/12 13/13/13
f 13/13/13 12/12/12 14/14/14
f 15/15/15 16/16/16 17/17/17
f 18/18/18 19/19/19 20/20/20
f 21/21/21 22/22/22 23/23/23
f 24/24/24 25/25/25 26/26/26
f 27/27/27 28/28/28 29/29/29
f 30/30/30 31/31/31 32/32/32
f 32/32/32 31/31/31 33/33/33
f 34/34/34 35/35/35 36/36/36
f 36/36/36 35/35/35 37/37/37
f 38/38/38 39/39/39 40/40/40
f 41/41/41 42/42/42 43/43/43
f 44/44/44 45/45/45 46/46/46
f 47/47/47 48/48/48 49/49/49
f 50/50/50 51/51/51 52/52/52
f 53/53/53 54/54/54 55/55/55
f 55/55/55 54/54/54 56/56/56
f 57/57/57 58/58/58 59/59/59
f 59/59/59 58/58/58 60/60/60
f 61/61/61 62/62/62 63/63/63
f 64/64/64 65/65/65 66/66/66
f 66/66/66 65/65/65 67/67/67
f 68/68/68 69/69/69 70/70/70
f 71/71/71 72/72/72 73/73/73
f 74/74/74 75/75/75 76/76/76
f 76/76/76 75/75/75 77/77/77
f 78/78/78 79/79/79 80/80/80
f 81/81/81 82/82/82 83/83/83
f 84/84/84 85/85/85 86/86/86
f 86/86/86 85/85/85 87/87/87
f 88/88/88 89/89/89 90/90/90
f 91/91/91 92/92/92 93/93/93
f 93/93/93 92/92/92 94/94/94
f 95/95/95 96/96/96 97/97/97
f 97/97/97 96/96/96 98/98/98
f 99/99/99 100/100/100 101/101/101
f 101/101/101 100/100/100 102/102/102
f 103/103/103 104/104/104 105/105/105
f 105/105/105 104/104/104 106/106/106
f 107/107/107 108/108/108 109/109/109
f 109/109/109 108/108/108 110/110/110
f 111/111/111 96/96/96 95/95/95
f 112/112/112 113/113/113 114/114/114
f 114/114/114 113/113/113 115/115/115
f 116/116/116 117/117/117 118/118/118
f 119/119/119 120/120/120 121/121/121
f 122/122/122 123/123/123 124/124/124
f 125/125/125 126/126/126 127/127/127
f 128/128/128 129/129/129 130/130/130
f 131/131/131 132/132/132 133/133/133
f 134/134/134 135/135/135 136/136/136
f 137/137/137 138/138/138 139/139/139
f 140/140/140 141/141/141 142/142/142
f 142/142/142 141/141/141 143/143/143
f 144/144/144 145/145/145 146/146/146
f 147/147/147 148/148/148 149/149/149
f 150/150/150 151/151/151 152/152/152
f 152/152/152 151/151/151 153/153/153
f 154/154/154 155/155/155 156/156/156
f 157/157/157 158/158/158 159/159/159
f 159/159/159 158/158/158 160/160/160
f 161/161/161 162/162/162 163/163/163
f 163/163/163 162/162/162 164/164/164
f 165/165/165 166/166/166 167/167/167
f 168/168/168 169/169/169 170/170/170
f 171/171/171 172/172/172 173/173/173
f 174/174/174 175/175/175 176/176/176
f 177/177/177 89/89/89 178/178/178
f 178/178/178 89/89/89 88/88/88
f 81/81/81 179/179/179 82/82/82
f 180/180/180 181/181/181 182/182/182
f 183/183/183 184/184/184 185/185/185
f 186/186/186 187/187/187 188/188/188
f 189/189/189 190/190/190 191/191/191
f 192/192/192 193/193/193 194/194/194
f 195/195/195 196/196/196 197/197/197
f 197/197/197 196/196/196 198/198/198
f 197/197/197 198/198/198 199/199/199
f 200/200/200 201/201/201 202/202/202
f 202/202/202 201/201/201 203/203/203
f 204/204/204 205/205/205 206/206/206
f 207/207/207 208/208/208 209/209/209
f 209/209/209 208/208/208 210/210/210
f 211/211/211 212/212/212 213/213/213
f 214/214/214 215/215/215 216/216/216
f 217/217/217 218/218/218 219/219/219
f 219/219/219 218/218/218 220/220/220
f 221/221/221 222/222/222 223/223/223
f 224/224/224 225/225/225 226/226/226
f 227/227/227 228/228/228 229/229/229
f 229/229/229 228/228/228 230/230/230
f 231/231/231 232/232/232 233/233/233
f 234/234/234 235/235/235 236/236/236
f 236/236/236 235/235/235 237/237/237
f 238/238/238 239/239/239 240/240/240
f 240/240/240 239/239/239 241/241/241
f 242/242/242 243/243/243 244/244/244
f 244/244/244 243/243/243 245/245/245
f 246/246/246 247/247/247 248/248/248
f 248/248/248 247/247/247 249/249/249
f 250/250/250 251/251/251 252/252/252
f 252/252/252 251/251/251 253/253/253
f 254/254/254 238/238/238 240/240/240
f 255/255/255 256/256/256 257/257/257
f 257/257/257 256/256/256 258/258/258
f 259/259/259 260/260/260 261/261/261
f 262/262/262 263/263/263 264/264/264
f 265/265/265 266/266/266 267/267/267
f 268/268/268 269/269/269 270/270/270
f 271/271/271 272/272/272 273/273/273
f 274/274/274 275/275/275 276/276/276
f 277/277/277 278/278/278 279/279/279
f 280/280/280 281/281/281 282/282/282
f 283/283/283 284/284/284 285/285/285
f 285/285/285 284/284/284 286/286/286
f 287/287/287 288/288/288 289/289/289
f 290/290/290 291/291/291 292/292/292
f 293/293/293 294/294/294 295/295/295
f 295/295/295 294/294/294 296/296/296
f 297/297/297 298/298/298 299/299/299
f 300/300/300 301/301/301 302/302/302
f 302/302/302 301/301/301 303/303/303
f 304/304/304 305/305/305 306/306/306
f 306/306/306 305/305/305 307/307/307
f 308/308/308 309/309/309 310/310/310
f 311/311/311 312/312/312 313/313/313
f 314/314/314 315/315/315 316/316/316
f 317/317/317 318/318/318 319/319/319
f 231/231/231 233/233/233 178/178/178
f 178/178/178 233/233/233 177/177/177
f 224/224/224 226/226/226 320/320/320
f 321/321/321 322/322/322 323/323/323
f 324/324/324 325/325/325 326/326/326
f 327/327/327 328/328/328 329/329/329
f 330/330/330 331/331/331 332/332/332
f 333/333/333 334/334/334 335/335/335
f 336/336/336 337/337/337 338/338/338
f 338/338/338 337/337/337 339/339/339
f 338/338/338 340/340/340 336/336/336
f 341/341/341 342/342/342 343/343/343
f 343/343/343 342/342/342 344/344/344
f 345/345/345 346/346/346 347/347/347
f 347/347/347 346/346/346 348/348/348
f 349/349/349 350/350/350 351/351/351
f 351/351/351 350/350/350 352/352/352
f 353/353/353 354/354/354 355/355/355
f 355/355/355 354/354/354 356/356/356
f 357/357/357 358/358/358 359/359/359
f 359/359/359 358/358/358 360/360/360
f 361/361/361 362/362/362 363/363/363
f 363/363/363 362/362/362 364/364/364
f 365/365/365 366/366/366 367/367/367
f 367/367/367 366/366/366 368/368/368
f 369/369/369 370/370/370 371/371/371
f 371/371/371 370/370/370 372/372/372
f 373/373/373 374/374/374 375/375/375
f 375/375/375 374/374/374 376/376/376
f 377/377/377 378/378/378 379/379/379
f 379/379/379 378/378/378 380/380/380
f 381/381/381 382/382/382 383/383/383
f 384/384/384 385/385/385 386/386/386
f 387/387/387 388/388/388 389/389/389
f 390/390/390 391/391/391 392/392/392
f 393/393/393 394/394/394 395/395/395
f 396/396/396 397/397/397 398/398/398
f 399/399/399 400/400/400 401/401/401
f 402/402/402 403/403/403 404/404/404
f 405/405/405 406/406/406 407/407/407
f 408/408/408 409/409/409 410/410/410
f 411/411/411 412/412/412 413/413/413
f 413/413/413 412/412/412 414/414/414
f 415/415/415 416/416/416 417/417/417
f 417/417/417 416/416/416 418/418/418
f 419/419/419 420/420/420 421/421/421
f 421/421/421 420/420/420 422/422/422
f 423/423/423 424/424/424 425/425/425
f 426/426/426 427/427/427 428/428/428
f 428/428/428 427/427/427 429/429/429
f 430/430/430 431/431/431 432/432/432
f 432/432/432 431/431/431 433/433/433
f 434/434/434 435/435/435 436/436/436
f 437/437/437 438/438/438 439/439/439
f 440/440/440 441/441/441 442/442/442
f 443/443/443 444/444/444 445/445/445
f 446/446/446 447/447/447 448/448/448
f 449/449/449 450/450/450 451/451/451
f 452/452/452 453/453/453 454/454/454
f 454/454/454 453/453/453 455/455/455
f 456/456/456 457/457/457 458/458/458
f 458/458/458 457/457/457 459/459/459
f 460/460/460 461/461/461 462/462/462
f 462/462/462 461/461/461 463/463/463
f 464/464/464 465/465/465 466/466/466
f 467/467/467 468/468/468 469/469/469
f 469/469/469 468/468/468 470/470/470
f 471/471/471 472/472/472 473/473/473
f 473/473/473 472/472/472 474/474/474
f 475/475/475 476/476/476 477/477/477
f 478/478/478 479/479/479 480/480/480
f 481/481/481 482/482/482 483/483/483
f 484/484/484 485/485/485 486/486/486
f 486/486/486 485/485/485 487/487/487
f 488/488/488 489/489/489 490/490/490
f 491/491/491 492/492/492 493/493/493
f 494/494/494 495/495/495 496/496/496
f 497/497/497 498/498/498 499/499/499
f 500/500/500 501/501/501 502/502/502
f 502/502/502 501/501/501 503/503/503
f 504/504/504 505/505/505 506/506/506
f 507/507/507 508/508/508 509/509/509
f 510/510/510 511/511/511 512/512/512
f 513/513/513 514/514/514 515/515/515
f 516/516/516 517/517/517 518/518/518
f 519/519/519 520/520/520 521/521/521
f 521/521/521 520/520/520 522/522/522
f 523/523/523 524/524/524 525/525/525
f 526/526/526 527/527/527 528/528/528
f 529/529/529 530/530/530 531/531/531
f 532/532/532 533/533/533 534/534/534
f 535/535/535 536/536/536 537/537/537
f 538/538/538 539/539/539 540/540/540
f 541/541/541 542/542/542 543/543/543
f 544/544/544 545/545/545 546/546/546
f 547/547/547 548/548/548 549/549/549
f 550/550/550 551/551/551 552/552/552
f 553/553/553 554/554/554 555/555/555
f 556/556/556 557/557/557 558/558/558
f 559/559/559 560/560/560 561/561/561
f 561/561/561 560/560/560 562/562/562
f 563/563/563 564/564/564 565/565/565
f 565/565/565 564/564/564 566/566/566
f 567/567/567 568/568/568 569/569/569
f 570/570/570 571/571/571 572/572/572
f 573/573/573 574/574/574 575/575/575
f 550/550/550 552/552/552 576/576/576
f 577/577/577 578/578/578 579/579/579
f 580/580/580 581/581/581 582/582/582
f 583/583/583 584/584/584 585/585/585
f 585/585/585 584/584/584 586/586/586
f 587/587/587 588/588/588 589/589/589
f 589/589/589 588/588/588 590/590/590
f 591/591/591 592/592/592 593/593/593
f 594/594/594 595/595/595 596/596/596
f 597/597/597 598/598/598 599/599/599
f 600/600/600 601/601/601 602/602/602
f 603/603/603 604/604/604 605/605/605
f 606/606/606 607/607/607 608/608/608
f 609/609/609 610/610/610 611/611/611
f 612/612/612 613/613/613 614/614/614
f 615/615/615 616/616/616 617/617/617
f 618/618/618 619/619/619 598/598/598
f 598/598/598 619/619/619 599/599/599
f 619/619/619 618/618/618 620/620/620
f 621/621/621 622/622/622 623/623/623
f 623/623/623 622/622/622 624/624/624
f 625/625/625 626/626/626 627/627/627
f 627/627/627 626/626/626 628/628/628
f 629/629/629 630/630/630 631/631/631
f 631/631/631 630/630/630 632/632/632
f 633/633/633 634/634/634 635/635/635
f 635/635/635 634/634/634 636/636/636
f 637/637/637 638/638/638 639/639/639
f 640/640/640 641/641/641 642/642/642
f 642/642/642 641/641/641 643/643/643
f 644/644/644 645/645/645 646/646/646
f 646/646/646 645/645/645 647/647/647
f 648/648/648 649/649/649 650/650/650
f 650/650/650 649/649/649 651/651/651
f 652/652/652 653/653/653 654/654/654
f 655/655/655 656/656/656 657/657/657
f 657/657/657 656/656/656 658/658/658
f 659/659/659 660/660/660 661/661/661
f 661/661/661 660/660/660 662/662/662
f 663/663/663 664/664/664 665/665/665
f 665/665/665 664/664/664 666/666/666
f 667/667/667 668/668/668 669/669/669
f 669/669/669 668/668/668 670/670/670
f 671/671/671 672/672/672 673/673/673
f 673/673/673 672/672/672 674/674/674
f 675/675/675 676/676/676 677/677/677
f 678/678/678 679/679/679 680/680/680
f 680/680/680 679/679/679 681/681/681
f 682/682/682 683/683/683 684/684/684
f 684/684/684 683/683/683 685/685/685
f 686/686/686 687/687/687 688/688/688
f 688/688/688 687/687/687 689/689/689
f 690/690/690 691/691/691 692/692/692
f 693/693/693 694/694/694 695/695/695
f 695/695/695 694/694/694 696/696/696
f 697/697/697 698/698/698 699/699/699
f 700/700/700 701/701/701 702/702/702
f 703/703/703 704/704/704 705/705/705
f 706/706/706 707/707/707 708/708/708
f 709/709/709 710/710/710 711/711/711
f 712/712/712 713/713/713 714/714/714
f 715/715/715 716/716/716 717/717/717
f 698/698/698 718/718/718 699/699/699
f 699/699/699 718/718/718 719/719/719
f 718/718/718 720/720/720 719/719/719
