# Extracted from the Cocos Creator 3.8.3 playable build
# Geometry-only OBJ preview for Unity; rig and animation stay in the raw assets.
o stone_2
v -0.37561357 -0.0147557408 0.179663032
v 0.115643181 0.371405214 0.179663032
v -0.396227419 0.175736502 0.179663032
v 0.0156938061 0.482330799 0.179663032
v 0.19871527 -0.402125001 0.179663002
v 0.40313676 0.0268153846 0.0807187855
v 0.268144488 0.0324967057 0.179663032
v 0.231415421 -0.537457585 0.0807187855
v 0.0288907066 0.615496039 0.0807187855
v -0.500683308 0.221332535 -0.311714172
v -0.500683308 0.221332535 0.0807187855
v 0.0288907066 0.615496039 -0.311714172
v 0.0944781825 -0.590493083 0.0807187855
v -0.454782069 -0.202841431 -0.311714172
v 0.0947482958 -0.590683639 -0.311714172
v -0.454782069 -0.202841431 0.0807187855
v 0.259990066 0.35901776 0.0807187855
v 0.0288907066 0.615496039 -0.311714172
v 0.0288907066 0.615496039 0.0807187855
v 0.259990066 0.35901776 -0.311714172
v 0.40313676 0.0268153846 -0.311714172
v -0.454782069 -0.202841431 -0.311714172
v 0.259990066 0.35901776 -0.311714172
v 0.0947482958 -0.590683639 -0.311714172
v 0.231239796 -0.538034439 -0.311714172
v 0.259990066 0.35901776 -0.311714172
v -0.500683308 0.221332535 -0.311714172
v 0.0288907066 0.615496039 -0.311714172
v -0.454782069 -0.202841431 -0.311714172
v 0.40313676 0.0268153846 0.0807187855
v 0.259990066 0.35901776 -0.311714172
v 0.259990066 0.35901776 0.0807187855
v 0.40313676 0.0268153846 -0.311714172
v 0.259990066 0.35901776 0.0807187855
v 0.115643181 0.371405214 0.179663032
v 0.246461958 0.222529694 0.179663032
v -0.454782069 -0.202841431 0.0807187855
v -0.276247442 -0.188355058 0.179663032
v -0.37561357 -0.0147557408 0.179663032
v -0.500683308 0.221332535 0.0807187855
v 0.0156938061 0.482330799 0.179663032
v 0.0288907066 0.615496039 0.0807187855
v -0.396227419 0.175736502 0.179663032
v 0.246461958 0.222529694 0.179663032
v 0.268144488 0.0324967057 0.179663032
v 0.40313676 0.0268153846 0.0807187855
v 0.259990066 0.35901776 0.0807187855
v 0.0944781825 -0.590493083 0.0807187855
v -0.276247442 -0.188355058 0.179663032
v -0.454782069 -0.202841431 0.0807187855
v 0.078443788 -0.462234974 0.179663032
v -0.500683308 0.221332535 0.0807187855
v -0.454782069 -0.202841431 0.0807187855
v -0.37561357 -0.0147557408 0.179663032
v -0.396227419 0.175736502 0.179663032
v 0.115643181 0.371405214 0.179663032
v 0.0288907066 0.615496039 0.0807187855
v 0.0156938061 0.482330799 0.179663032
v 0.259990066 0.35901776 0.0807187855
v -0.276247442 -0.188355058 0.179663032
v 0.19871527 -0.402125001 0.179663002
v 0.268144488 0.0324967057 0.179663032
v 0.078443788 -0.462234974 0.179663032
v 0.246461958 0.222529694 0.179663032
v 0.246461958 0.222529694 0.179663032
v -0.37561357 -0.0147557408 0.179663032
v -0.276247442 -0.188355058 0.179663032
v 0.115643181 0.371405214 0.179663032
v -0.500683308 0.221332535 0.0807187855
v -0.454782069 -0.202841431 -0.311714172
v -0.454782069 -0.202841431 0.0807187855
v -0.500683308 0.221332535 -0.311714172
v 0.0944781825 -0.590493083 0.0807187855
v 0.231415421 -0.537457585 0.0807187855
v 0.078443788 -0.462234974 0.179663032
v 0.19871527 -0.402125001 0.179663002
v 0.231415421 -0.537457585 0.0807187855
v 0.0947482958 -0.590683639 -0.311714172
v 0.231239796 -0.538034439 -0.311714172
v 0.0944781825 -0.590493083 0.0807187855
v 0.231415421 -0.537457585 0.0807187855
v 0.40313676 0.0268153846 -0.311714172
v 0.40313676 0.0268153846 0.0807187855
v 0.231239796 -0.538034439 -0.311714172
vt 0.0418960489 0.638067484
vt 0.18574959 0.652738392
vt 0.0615168698 0.678196907
vt 0.1800033 0.687107325
vt 0.105951607 0.489864349
vt 0.196018696 0.548990667
vt 0.173457354 0.566854477
vt 0.0924465135 0.459238648
vt 0.623694181 0.734739721
vt 0.715315342 0.888867378
vt 0.623694181 0.888867378
vt 0.715315342 0.734739721
vt 0.887787402 0.271964312
vt 0.979373097 0.185075879
vt 0.979408443 0.272101402
vt 0.887752056 0.184981585
vt 0.219119161 0.63192445
vt 0.310740292 0.71145469
vt 0.219119146 0.71145469
vt 0.310740292 0.63192445
vt 0.350953758 0.496901691
vt 0.543644071 0.573482156
vt 0.331454873 0.579073071
vt 0.494788855 0.424241126
vt 0.461886644 0.415074944
vt 0.331454873 0.579073071
vt 0.493111819 0.659322739
vt 0.338984132 0.659322798
vt 0.543644071 0.573482156
vt 0.219119161 0.548594356
vt 0.310740292 0.63192445
vt 0.219119161 0.63192445
vt 0.310740292 0.548594356
vt 0.219119161 0.63192445
vt 0.196018681 0.652548611
vt 0.196018681 0.606803477
vt 5.39493294e-09 0.61103642
vt 0.0397487804 0.591416895
vt 0.0418960489 0.638067484
vt 0.043690227 0.700393736
vt 0.1800033 0.687107325
vt 0.196018696 0.711849093
vt 0.0615168698 0.678196907
vt 0.196018681 0.606803477
vt 0.196018696 0.566721678
vt 0.219119161 0.548594356
vt 0.219119161 0.63192445
vt 0.0591258034 0.465913475
vt 0.0397487804 0.591416895
vt 5.39493294e-09 0.61103642
vt 0.0750067756 0.493059874
vt 0.043690227 0.700393736
vt 5.39493294e-09 0.61103642
vt 0.0418960489 0.638067484
vt 0.0615168698 0.678196907
vt 0.196018681 0.652548611
vt 0.219119146 0.71145469
vt 0.196018681 0.686945021
vt 0.219119161 0.63192445
vt 0.0397487804 0.591416895
vt 0.105951607 0.489864349
vt 0.173457354 0.566854477
vt 0.0750067756 0.493059874
vt 0.192812517 0.607027113
vt 0.192812517 0.607027113
vt 0.0418960489 0.638067484
vt 0.0397487804 0.591416895
vt 0.18574959 0.652738392
vt 0.623694181 0.888867378
vt 0.715315342 0.93939966
vt 0.623694181 0.93939966
vt 0.715315342 0.888867378
vt 0.0591258034 0.465913475
vt 0.0924465135 0.459238648
vt 0.0750067756 0.493059874
vt 0.105951607 0.489864349
vt 0.887752056 0.306249022
vt 0.979408443 0.272101402
vt 0.979373336 0.306256533
vt 0.887787402 0.271964312
vt 0.219119176 0.459329844
vt 0.310740292 0.548594356
vt 0.219119161 0.548594356
vt 0.310740322 0.459238648
vn 0 0 0.99999994
vn 0 0 0.99999994
vn 0 0 0.99999994
vn 0 0 0.99999994
vn 0.690469384 -0.166691452 0.703893423
vn 0.690469384 -0.166691452 0.703893423
vn 0.690469384 -0.166691452 0.703893423
vn 0.690469384 -0.166691452 0.703893423
vn -0.597071111 0.802188337 0
vn -0.597071111 0.802188337 0
vn -0.597071111 0.802188337 0
vn -0.597071111 0.802188337 0
vn -0.576622069 -0.817010939 0
vn -0.576622069 -0.817010939 0
vn -0.576622069 -0.817010939 0
vn -0.576622069 -0.817010939 0
vn 0.74290663 0.66939491 0
vn 0.74290663 0.66939491 0
vn 0.74290663 0.66939491 0
vn 0.74290663 0.66939491 0
vn -4.4093329e-09 0 -1
vn -4.4093329e-09 0 -1
vn -4.4093329e-09 0 -1
vn -4.4093329e-09 0 -1
vn -4.4093329e-09 0 -1
vn -6.70145361e-09 0 -1
vn -6.70145361e-09 0 -1
vn -6.70145361e-09 0 -1
vn -6.70145361e-09 0 -1
vn 0.91836834 0.39572674 0
vn 0.91836834 0.39572674 0
vn 0.91836834 0.39572674 0
vn 0.91836834 0.39572674 0
vn 0.527665436 0.463666171 0.711746395
vn 0.527665436 0.463666171 0.711746395
vn 0.527665436 0.463666171 0.711746395
vn -0.452080607 -0.25876528 0.853618026
vn -0.452080607 -0.25876528 0.853618026
vn -0.452080607 -0.25876528 0.853618026
vn -0.422193259 0.567232847 0.70710659
vn -0.422193259 0.567232847 0.70710659
vn -0.422193259 0.567232847 0.70710659
vn -0.422193259 0.567232847 0.70710659
vn 0.70366776 0.22209318 0.674926817
vn 0.70366776 0.22209318 0.674926817
vn 0.70366776 0.22209318 0.674926817
vn 0.70366776 0.22209318 0.674926817
vn -0.403834373 -0.551820397 0.729665697
vn -0.403834373 -0.551820397 0.729665697
vn -0.403834373 -0.551820397 0.729665697
vn -0.403834373 -0.551820397 0.729665697
vn -0.70300287 -0.0760742724 0.70710659
vn -0.70300287 -0.0760742724 0.70710659
vn -0.70300287 -0.0760742724 0.70710659
vn -0.70300287 -0.0760742724 0.70710659
vn 0.52531451 0.473333865 0.707106471
vn 0.52531451 0.473333865 0.707106471
vn 0.52531451 0.473333865 0.707106471
vn 0.52531451 0.473333865 0.707106471
vn -3.88281158e-08 -1.47314436e-08 1
vn -3.88281158e-08 -1.47314436e-08 1
vn -3.88281158e-08 -1.47314436e-08 1
vn -3.88281158e-08 -1.47314436e-08 1
vn -3.88281158e-08 -1.47314436e-08 1
vn 1.16769641e-07 0 1
vn 1.16769641e-07 0 1
vn 1.16769641e-07 0 1
vn 1.16769641e-07 0 1
vn -0.994195879 -0.107585199 0
vn -0.994195879 -0.107585199 0
vn -0.994195879 -0.107585199 0
vn -0.994195879 -0.107585199 0
vn 0.243333608 -0.553160191 0.796745002
vn 0.243333608 -0.553160191 0.796745002
vn 0.243333608 -0.553160191 0.796745002
vn 0.243333608 -0.553160191 0.796745002
vn 0.360523105 -0.932749748 0.000955461815
vn 0.360523105 -0.932749748 0.000955461815
vn 0.360523105 -0.932749748 0.000955461815
vn 0.360523105 -0.932749748 0.000955461815
vn 0.956680417 -0.29114005 -8.96045123e-08
vn 0.956680417 -0.29114005 -8.96045123e-08
vn 0.956680417 -0.29114005 -8.96045123e-08
vn 0.956680417 -0.29114005 -8.96045123e-08
f 1/1/1 2/2/2 3/3/3
f 2/2/2 4/4/4 3/3/3
f 5/5/5 6/6/6 7/7/7
f 8/8/8 6/6/6 5/5/5
f 9/9/9 10/10/10 11/11/11
f 10/10/10 9/9/9 12/12/12
f 13/13/13 14/14/14 15/15/15
f 14/14/14 13/13/13 16/16/16
f 17/17/17 18/18/18 19/19/19
f 18/18/18 17/17/17 20/20/20
f 21/21/21 22/22/22 23/23/23
f 24/24/24 21/21/21 25/25/25
f 22/22/22 21/21/21 24/24/24
f 26/26/26 27/27/27 28/28/28
f 27/27/27 26/26/26 29/29/29
f 30/30/30 31/31/31 32/32/32
f 31/31/31 30/30/30 33/33/33
f 34/34/34 35/35/35 36/36/36
f 37/37/37 38/38/38 39/39/39
f 40/40/40 41/41/41 42/42/42
f 41/41/41 40/40/40 43/43/43
f 44/44/44 45/45/45 46/46/46
f 44/44/44 46/46/46 47/47/47
f 48/48/48 49/49/49 50/50/50
f 49/49/49 48/48/48 51/51/51
f 52/52/52 53/53/53 54/54/54
f 52/52/52 54/54/54 55/55/55
f 56/56/56 57/57/57 58/58/58
f 57/57/57 56/56/56 59/59/59
f 60/60/60 61/61/61 62/62/62
f 61/61/61 60/60/60 63/63/63
f 62/62/62 64/64/64 60/60/60
f 65/65/65 66/66/66 67/67/67
f 66/66/66 65/65/65 68/68/68
f 69/69/69 70/70/70 71/71/71
f 70/70/70 69/69/69 72/72/72
f 73/73/73 74/74/74 75/75/75
f 75/75/75 74/74/74 76/76/76
f 77/77/77 78/78/78 79/79/79
f 78/78/78 77/77/77 80/80/80
f 81/81/81 82/82/82 83/83/83
f 82/82/82 81/81/81 84/84/84
