# Extracted from the Cocos Creator 3.8.3 playable build
# Geometry-only OBJ preview for Unity; rig and animation stay in the raw assets.
o stone_1
v 0.746507764 1.06219304 0.185840741
v 0.206777453 1.09187329 -0.412159443
v 0.212570608 0.992724955 0.186295167
v 0.800946236 1.13711429 -0.412159443
v 0.804270029 -0.232041582 0.18625842
v 1.06996953 0.47085458 -0.412159443
v 0.974457026 0.441563547 0.18632926
v 0.873279095 -0.274153292 -0.412159443
v -0.0681367889 -0.567096949 0.186409011
v 0.511733413 -0.739497602 -0.412159443
v 0.485976398 -0.641699851 0.186333016
v -0.117700942 -0.654767334 -0.412159443
v -0.0808242485 -0.421603084 0.260866582
v 0.156793535 0.0722346455 0.260866582
v -0.36361438 -0.103572696 0.260866582
v -0.242381066 0.314113021 0.260866582
v -0.117700942 -0.654767334 -0.412159443
v 0.24780193 0.104852334 -0.412159443
v 0.511733413 -0.739497602 -0.412159443
v 0.873279095 -0.274153292 -0.412159443
v 0.25065726 0.909457505 0.260866582
v 0.224064678 0.207665384 0.260866582
v 0.607000887 0.958485186 0.260866582
v -0.170071155 0.446490586 0.260866582
v 0.212570608 0.992724955 0.186295167
v -0.378126204 0.484131217 -0.412159443
v -0.297376364 0.435497224 0.186560765
v 0.206777453 1.09187329 -0.412159443
v 1.06996953 0.47085458 -0.412159443
v 0.24780193 0.104852334 -0.412159443
v 0.800946236 1.13711429 -0.412159443
v 0.873279095 -0.274153292 -0.412159443
v -0.563254118 -0.153691113 -0.412159443
v -0.0681367889 -0.567096949 0.186409011
v -0.460357904 -0.125981122 0.186482295
v -0.117700942 -0.654767334 -0.412159443
v -0.378126204 0.484131217 -0.412159443
v 0.206777453 1.09187329 -0.412159443
v 0.24780193 0.104852334 -0.412159443
v 0.800946236 1.13711429 -0.412159443
v 0.746507764 1.06219304 0.185840741
v 1.06996953 0.47085458 -0.412159443
v 0.800946236 1.13711429 -0.412159443
v 0.974457026 0.441563547 0.18632926
v 0.485976398 -0.641699851 0.186333016
v 0.873279095 -0.274153292 -0.412159443
v 0.804270029 -0.232041582 0.18625842
v 0.511733413 -0.739497602 -0.412159443
v 0.24780193 0.104852334 -0.412159443
v -0.563254118 -0.153691113 -0.412159443
v -0.378126204 0.484131217 -0.412159443
v -0.117700942 -0.654767334 -0.412159443
v 0.727969289 0.864005983 0.260866582
v 0.353284687 0.129364982 0.260866582
v 0.883872986 0.433908522 0.260866582
v 0.747440338 -0.1094722 0.260866582
v 0.286268085 -0.0062200129 0.260866582
v 0.449864388 -0.549067736 0.260866582
v 0.684257865 -0.24738054 0.260866582
v 0.0509092584 -0.495363057 0.260866582
v -0.170071155 0.446490586 0.260866582
v -0.297376364 0.435497224 0.186560765
v -0.242381066 0.314113021 0.260866582
v 0.804270029 -0.232041582 0.18625842
v 0.747440338 -0.1094722 0.260866582
v 0.684257865 -0.24738054 0.260866582
v 0.746507764 1.06219304 0.185840741
v 0.607000887 0.958485186 0.260866582
v 0.727969289 0.864005983 0.260866582
v -0.0681367889 -0.567096949 0.186409011
v 0.0509092584 -0.495363057 0.260866582
v -0.0808242485 -0.421603084 0.260866582
v 0.353284687 0.129364982 0.260866582
v 0.156793535 0.0722346455 0.260866582
v 0.286268085 -0.0062200129 0.260866582
v 0.224064678 0.207665384 0.260866582
v 0.212570608 0.992724955 0.186295167
v -0.297376364 0.435497224 0.186560765
v -0.170071155 0.446490586 0.260866582
v 0.25065726 0.909457505 0.260866582
v 0.974457026 0.441563547 0.18632926
v 0.746507764 1.06219304 0.185840741
v 0.727969289 0.864005983 0.260866582
v 0.883872986 0.433908522 0.260866582
v 0.485976398 -0.641699851 0.186333016
v 0.804270029 -0.232041582 0.18625842
v 0.684257865 -0.24738054 0.260866582
v 0.449864388 -0.549067736 0.260866582
v -0.460357904 -0.125981122 0.186482295
v -0.0681367889 -0.567096949 0.186409011
v -0.0808242485 -0.421603084 0.260866582
v -0.36361438 -0.103572696 0.260866582
v -0.242381066 0.314113021 0.260866582
v -0.460357904 -0.125981122 0.186482295
v -0.36361438 -0.103572696 0.260866582
v -0.297376364 0.435497224 0.186560765
v 0.974457026 0.441563547 0.18632926
v 0.747440338 -0.1094722 0.260866582
v 0.804270029 -0.232041582 0.18625842
v 0.883872986 0.433908522 0.260866582
v 0.747440338 -0.1094722 0.260866582
v 0.286268085 -0.0062200129 0.260866582
v 0.684257865 -0.24738054 0.260866582
v 0.353284687 0.129364982 0.260866582
v 0.212570608 0.992724955 0.186295167
v 0.607000887 0.958485186 0.260866582
v 0.746507764 1.06219304 0.185840741
v 0.25065726 0.909457505 0.260866582
v 0.0509092584 -0.495363057 0.260866582
v 0.485976398 -0.641699851 0.186333016
v 0.449864388 -0.549067736 0.260866582
v -0.0681367889 -0.567096949 0.186409011
v 0.224064678 0.207665384 0.260866582
v -0.242381066 0.314113021 0.260866582
v 0.156793535 0.0722346455 0.260866582
v -0.170071155 0.446490586 0.260866582
v 0.727969289 0.864005983 0.260866582
v 0.607000887 0.958485186 0.260866582
v 0.286268085 -0.0062200129 0.260866582
v -0.0808242485 -0.421603084 0.260866582
v 0.0509092584 -0.495363057 0.260866582
v 0.156793535 0.0722346455 0.260866582
v -0.297376364 0.435497224 0.186560765
v -0.563254118 -0.153691113 -0.412159443
v -0.460357904 -0.125981122 0.186482295
v -0.378126204 0.484131217 -0.412159443
v -0.833135009 -0.36961782 0.0793494135
v -0.341878325 0.0165431947 0.0793494135
v -0.853748798 -0.179125592 0.0793494135
v -0.441827536 0.12746866 0.0793494135
v -0.912303448 -0.557703495 -0.0195948482
v -0.430533051 -0.823567867 -0.412027776
v -0.430533051 -0.823567867 -0.0195948482
v -0.912303448 -0.557703495 -0.412027776
v -0.42863068 0.260634005 -0.0195948482
v -0.958204746 -0.133529529 -0.412027776
v -0.958204746 -0.133529529 -0.0195948482
v -0.42863068 0.260634005 -0.412027776
v 0.0791589543 -0.319700181 -0.412027776
v -0.430533051 -0.823567867 -0.412027776
v -0.197531343 0.00415574759 -0.412027776
v -0.912303448 -0.557703495 -0.412027776
v -0.197531343 0.00415574759 -0.0195948482
v -0.42863068 0.260634005 -0.412027776
v -0.42863068 0.260634005 -0.0195948482
v -0.197531343 0.00415574759 -0.412027776
v -0.430533051 -0.823567867 -0.0195948482
v 0.0791589543 -0.319700181 -0.412027776
v 0.0791589543 -0.319700181 -0.0195948482
v -0.430533051 -0.823567867 -0.412027776
v -0.197531343 0.00415574759 -0.412027776
v -0.958204746 -0.133529529 -0.412027776
v -0.42863068 0.260634005 -0.412027776
v -0.912303448 -0.557703495 -0.412027776
v 0.0791589543 -0.319700181 -0.0195948482
v -0.197531343 0.00415574759 -0.412027776
v -0.197531343 0.00415574759 -0.0195948482
v 0.0791589543 -0.319700181 -0.412027776
v -0.447489828 -0.70119977 0.0793494135
v -0.211059541 -0.132332265 0.0793494135
v -0.733768821 -0.543217182 0.0793494135
v -0.0558333844 -0.314018786 0.0793494135
v -0.197531343 0.00415574759 -0.0195948482
v -0.341878325 0.0165431947 0.0793494135
v -0.211059541 -0.132332265 0.0793494135
v -0.912303448 -0.557703495 -0.0195948482
v -0.733768821 -0.543217182 0.0793494135
v -0.833135009 -0.36961782 0.0793494135
v -0.958204746 -0.133529529 -0.0195948482
v -0.441827536 0.12746866 0.0793494135
v -0.42863068 0.260634005 -0.0195948482
v -0.853748798 -0.179125592 0.0793494135
v 0.0791589543 -0.319700181 -0.0195948482
v -0.211059541 -0.132332265 0.0793494135
v -0.0558333844 -0.314018786 0.0793494135
v -0.197531343 0.00415574759 -0.0195948482
v -0.430533051 -0.823567867 -0.0195948482
v 0.0791589543 -0.319700181 -0.0195948482
v -0.0558333844 -0.314018786 0.0793494135
v -0.447489828 -0.70119977 0.0793494135
v -0.958204746 -0.133529529 -0.0195948482
v -0.912303448 -0.557703495 -0.0195948482
v -0.833135009 -0.36961782 0.0793494135
v -0.853748798 -0.179125592 0.0793494135
v -0.341878325 0.0165431947 0.0793494135
v -0.42863068 0.260634005 -0.0195948482
v -0.441827536 0.12746866 0.0793494135
v -0.197531343 0.00415574759 -0.0195948482
v -0.430533051 -0.823567867 -0.0195948482
v -0.733768821 -0.543217182 0.0793494135
v -0.912303448 -0.557703495 -0.0195948482
v -0.447489828 -0.70119977 0.0793494135
v -0.211059541 -0.132332265 0.0793494135
v -0.833135009 -0.36961782 0.0793494135
v -0.733768821 -0.543217182 0.0793494135
v -0.341878325 0.0165431947 0.0793494135
v -0.958204746 -0.133529529 -0.0195948482
v -0.912303448 -0.557703495 -0.412027776
v -0.912303448 -0.557703495 -0.0195948482
v -0.958204746 -0.133529529 -0.412027776
vt 0.771941602 0.403179109
vt 0.623694122 0.301169634
vt 0.764451861 0.28719914
vt 0.632675409 0.426481247
vt 0.764541328 0.596262217
vt 0.626443028 0.426481187
vt 0.767194152 0.442370534
vt 0.623694241 0.597749531
vt 0.772254646 0.573938251
vt 0.907959938 0.712301195
vt 0.767194033 0.696084678
vt 0.913728774 0.573552787
vt 0.520495057 0.382288933
vt 0.494958341 0.257008314
vt 0.602671504 0.32643944
vt 0.599117935 0.225021064
vt 0.201015547 0
vt 0.163779482 0.193255424
vt 0.0538805425 0.0183855295
vt -1.65154592e-08 0.144976914
vt 0.521584868 0.0622193813
vt 0.487478435 0.22253114
vt 0.443749815 0.0308227539
vt 0.59032321 0.190947652
vt 0.764451861 0.28719914
vt 0.624148309 0.111965775
vt 0.765361249 0.119040787
vt 0.623694122 0.301169634
vt -1.38051988e-08 0.324873328
vt 0.163779482 0.193255424
vt 0.10043475 0.459238529
vt -1.65154592e-08 0.144976914
vt 0.907999873 0.426481247
vt 0.772254646 0.573938251
vt 0.767194092 0.444468975
vt 0.913728774 0.573552787
vt 0.327677071 0.241568804
vt 0.231863216 0.413615704
vt 0.163779482 0.193255424
vt 0.10043475 0.459238529
vt 0.17863597 0.866810501
vt 0.319003314 0.711848855
vt 0.319003314 0.875545979
vt 0.178272367 0.717325568
vt 0.767194152 0.716860652
vt 0.623694241 0.597749531
vt 0.764541328 0.596262217
vt 0.626687706 0.734739721
vt 0.163779482 0.193255424
vt 0.331454903 0.0865569711
vt 0.327677071 0.241568804
vt 0.201015547 0
vt 0.410973758 0.0453085899
vt 0.453760087 0.232886016
vt 0.351103514 0.133745313
vt 0.350910157 0.264471054
vt 0.461173594 0.267383575
vt 0.393116206 0.380894363
vt 0.35732317 0.299275875
vt 0.48646754 0.391473234
vt 0.59032321 0.190947652
vt 0.618914008 0.201274872
vt 0.599117935 0.225021064
vt 0.331454873 0.289556146
vt 0.350910157 0.264471054
vt 0.35732317 0.299275875
vt 0.418524683 0
vt 0.443749815 0.0308227539
vt 0.410973758 0.0453085899
vt 0.509717345 0.415075004
vt 0.48646754 0.391473234
vt 0.520495057 0.382288933
vt 0.453760087 0.232886016
vt 0.494958341 0.257008314
vt 0.461173594 0.267383575
vt 0.487478435 0.22253114
vt 0.535376728 0.0461366773
vt 0.618914008 0.201274872
vt 0.59032321 0.190947652
vt 0.521584868 0.0622193813
vt 0.331454903 0.127440274
vt 0.418524683 0
vt 0.410973758 0.0453085899
vt 0.351103514 0.133745313
vt 0.380060405 0.400385201
vt 0.331454873 0.289556146
vt 0.35732317 0.299275875
vt 0.393116206 0.380894363
vt 0.623694181 0.337608933
vt 0.509717345 0.415075004
vt 0.520495057 0.382288933
vt 0.602671504 0.32643944
vt 0.599117935 0.225021064
vt 0.623694181 0.337608933
vt 0.602671504 0.32643944
vt 0.618914008 0.201274872
vt 0.331454903 0.127440274
vt 0.350910157 0.264471054
vt 0.331454873 0.289556146
vt 0.351103514 0.133745313
vt 0.350910157 0.264471054
vt 0.461173594 0.267383575
vt 0.35732317 0.299275875
vt 0.453760087 0.232886016
vt 0.535376728 0.0461366773
vt 0.443749815 0.0308227539
vt 0.418524683 0
vt 0.521584868 0.0622193813
vt 0.48646754 0.391473234
vt 0.380060405 0.400385201
vt 0.393116206 0.380894363
vt 0.509717345 0.415075004
vt 0.487478435 0.22253114
vt 0.599117935 0.225021064
vt 0.494958341 0.257008314
vt 0.59032321 0.190947652
vt 0.410973758 0.0453085899
vt 0.443749815 0.0308227539
vt 0.461173594 0.267383575
vt 0.520495057 0.382288933
vt 0.48646754 0.391473234
vt 0.494958341 0.257008314
vt 0.765361249 0.119040787
vt 0.631644309 0
vt 0.771941602 0.0204746723
vt 0.624148309 0.111965775
vt 0.117584296 0.857392728
vt 0.109604374 0.711848974
vt 0.154170081 0.831673324
vt 0.144461647 0.712283134
vt 0.797414064 0.0564197302
vt 0.888493419 0.184981585
vt 0.797414064 0.184882402
vt 0.888493419 0.0565189123
vt 0.974768937 0.865373671
vt 0.883579373 0.713338852
vt 0.974768937 0.712301254
vt 0.883579373 0.866411269
vt 0.33919242 0.868483961
vt 0.331454903 0.701333702
vt 0.438606054 0.871106386
vt 0.452860743 0.659322679
vt 0.863448501 0.264915586
vt 0.772047937 0.185449958
vt 0.863554657 0.184981644
vt 0.771941721 0.265383959
vt 0.792364001 0.712301314
vt 0.883579373 0.877472878
vt 0.792364001 0.875591934
vt 0.883579373 0.714182258
vt 0.438606054 0.871106386
vt 0.533605635 0.717652619
vt 0.519208193 0.871106386
vt 0.452860743 0.659322679
vt 0.863448501 0.363841832
vt 0.771941721 0.265383959
vt 0.863448501 0.264915586
vt 0.771941721 0.364310145
vt 2.051876e-09 0.84087193
vt 0.0633341223 0.711848974
vt 0.071824953 0.86671108
vt 0.00754803 0.712624252
vt 0.863448501 0.264915586
vt 0.88770628 0.243260682
vt 0.887674093 0.28921783
vt 0.0968058035 0.901180029
vt 0.071824953 0.86671108
vt 0.117584296 0.857392728
vt 0.974768937 0.712301254
vt 1 0.846907377
vt 0.974768937 0.865373671
vt 1 0.727842271
vt 0.863448501 0.363841832
vt 0.887674093 0.28921783
vt 0.887674093 0.344716489
vt 0.863448501 0.264915586
vt 0.792364001 0.712301314
vt 0.792364001 0.875591934
vt 0.767194152 0.859177649
vt 0.767194152 0.733702242
vt 0.178272352 0.843909919
vt 0.0968058035 0.901180029
vt 0.117584296 0.857392728
vt 0.154170081 0.831673324
vt 0.88770628 0.243260682
vt 0.863554657 0.184981644
vt 0.887752175 0.20868963
vt 0.863448501 0.264915586
vt 0.797414064 0.184882402
vt 0.771941721 0.0914821625
vt 0.797414064 0.0564197302
vt 0.771941721 0.167817593
vt 0.0633341223 0.711848974
vt 0.117584296 0.857392728
vt 0.071824953 0.86671108
vt 0.109604374 0.711848974
vt 0.788560867 0
vt 0.888493419 0.0565189123
vt 0.797414064 0.0564197302
vt 0.879640222 9.92417336e-05
vn -0.100120008 0.985181332 0.139261276
vn -0.100120008 0.985181332 0.139261276
vn -0.100120008 0.985181332 0.139261276
vn -0.100120008 0.985181332 0.139261276
vn 0.959345937 -0.248109713 0.134525165
vn 0.959345937 -0.248109713 0.134525165
vn 0.959345937 -0.248109713 0.134525165
vn 0.959345937 -0.248109713 0.134525165
vn -0.131811559 -0.979186952 0.154332995
vn -0.131811559 -0.979186952 0.154332995
vn -0.131811559 -0.979186952 0.154332995
vn -0.131811559 -0.979186952 0.154332995
vn 1.44926375e-07 0 1
vn 1.44926375e-07 0 1
vn 1.44926375e-07 0 1
vn 1.44926375e-07 0 1
vn 7.94991539e-09 0 -1
vn 7.94991539e-09 0 -1
vn 7.94991539e-09 0 -1
vn 7.94991539e-09 0 -1
vn -1.12096139e-07 0 1
vn -1.12096139e-07 0 1
vn -1.12096139e-07 0 1
vn -1.12096139e-07 0 1
vn -0.721916556 0.678495526 0.135942161
vn -0.721916556 0.678495526 0.135942161
vn -0.721916556 0.678495526 0.135942161
vn -0.721916556 0.678495526 0.135942161
vn -2.51120778e-08 0 -1
vn -2.51120778e-08 0 -1
vn -2.51120778e-08 0 -1
vn -2.51120778e-08 0 -1
vn -0.738002419 -0.656225979 0.157225281
vn -0.738002419 -0.656225979 0.157225281
vn -0.738002419 -0.656225979 0.157225281
vn -0.738002419 -0.656225979 0.157225281
vn 0 0 -1
vn 0 0 -1
vn 0 0 -1
vn 0 0 -1
vn 0.922746062 0.356402904 0.146686062
vn 0.922746062 0.356402904 0.146686062
vn 0.922746062 0.356402904 0.146686062
vn 0.922746062 0.356402904 0.146686062
vn 0.782651424 -0.608075142 0.133046091
vn 0.782651424 -0.608075142 0.133046091
vn 0.782651424 -0.608075142 0.133046091
vn 0.782651424 -0.608075142 0.133046091
vn -1.50358535e-08 0 -1
vn -1.50358535e-08 0 -1
vn -1.50358535e-08 0 -1
vn -1.50358535e-08 0 -1
vn -5.70438417e-08 0 1
vn -5.70438417e-08 0 1
vn -5.70438417e-08 0 1
vn -5.70438417e-08 0 1
vn -4.84583254e-08 0 1
vn -4.84583254e-08 0 1
vn -4.84583254e-08 0 1
vn -4.84583254e-08 0 1
vn -0.502312303 0.274383217 0.819997668
vn -0.502312303 0.274383217 0.819997668
vn -0.502312303 0.274383217 0.819997668
vn 0.534276307 -0.244777888 0.809093714
vn 0.534276307 -0.244777888 0.809093714
vn 0.534276307 -0.244777888 0.809093714
vn 0.251488388 0.32199809 0.912727177
vn 0.251488388 0.32199809 0.912727177
vn 0.251488388 0.32199809 0.912727177
vn -0.256421387 -0.457961947 0.851186693
vn -0.256421387 -0.457961947 0.851186693
vn -0.256421387 -0.457961947 0.851186693
vn -3.26921167e-07 0 1
vn -3.26921167e-07 0 1
vn -3.26921167e-07 0 1
vn -3.26921167e-07 0 1
vn -0.485195816 0.442817718 0.75398773
vn -0.485195816 0.442817718 0.75398773
vn -0.485195816 0.442817718 0.75398773
vn -0.485195816 0.442817718 0.75398773
vn 0.613759816 0.224571526 0.756879449
vn 0.613759816 0.224571526 0.756879449
vn 0.613759816 0.224571526 0.756879449
vn 0.613759816 0.224571526 0.756879449
vn 0.519580781 -0.403614759 0.753081024
vn 0.519580781 -0.403614759 0.753081024
vn 0.519580781 -0.403614759 0.753081024
vn 0.519580781 -0.403614759 0.753081024
vn -0.48510924 -0.431418657 0.760622799
vn -0.48510924 -0.431418657 0.760622799
vn -0.48510924 -0.431418657 0.760622799
vn -0.48510924 -0.431418657 0.760622799
vn -0.62534827 0.181454509 0.758955777
vn -0.62534827 0.181454509 0.758955777
vn -0.62534827 0.181454509 0.758955777
vn -0.62534827 0.181454509 0.758955777
vn 0.637321293 -0.16061683 0.753673613
vn 0.637321293 -0.16061683 0.753673613
vn 0.637321293 -0.16061683 0.753673613
vn 0.637321293 -0.16061683 0.753673613
vn 0 0 1
vn 0 0 1
vn 0 0 1
vn 0 0 1
vn -0.0861962885 0.650502145 0.754597306
vn -0.0861962885 0.650502145 0.754597306
vn -0.0861962885 0.650502145 0.754597306
vn -0.0861962885 0.650502145 0.754597306
vn -0.0867321789 -0.644696236 0.75950259
vn -0.0867321789 -0.644696236 0.75950259
vn -0.0867321789 -0.644696236 0.75950259
vn -0.0867321789 -0.644696236 0.75950259
vn 0 0 1
vn 0 0 1
vn 0 0 1
vn 0 0 1
vn 0 0 1
vn 0 0 1
vn 1.81303349e-07 0 1
vn 1.81303349e-07 0 1
vn 1.81303349e-07 0 1
vn 1.81303349e-07 0 1
vn -0.949435651 0.27557373 0.150435895
vn -0.949435651 0.27557373 0.150435895
vn -0.949435651 0.27557373 0.150435895
vn -0.949435651 0.27557373 0.150435895
vn -4.18860857e-08 0 1
vn -4.18860857e-08 0 1
vn -4.18860857e-08 0 1
vn -4.18860857e-08 0 1
vn -0.483160913 -0.875531495 0
vn -0.483160913 -0.875531495 0
vn -0.483160913 -0.875531495 0
vn -0.483160913 -0.875531495 0
vn -0.597071111 0.802188277 0
vn -0.597071111 0.802188277 0
vn -0.597071111 0.802188277 0
vn -0.597071111 0.802188277 0
vn 9.73675363e-09 0 -0.99999994
vn 9.73675363e-09 0 -0.99999994
vn 9.73675363e-09 0 -0.99999994
vn 9.73675363e-09 0 -0.99999994
vn 0.74290669 0.66939491 0
vn 0.74290669 0.66939491 0
vn 0.74290669 0.66939491 0
vn 0.74290669 0.66939491 0
vn 0.703031838 -0.711158335 0
vn 0.703031838 -0.711158335 0
vn 0.703031838 -0.711158335 0
vn 0.703031838 -0.711158335 0
vn -2.68058109e-08 0 -1
vn -2.68058109e-08 0 -1
vn -2.68058109e-08 0 -1
vn -2.68058109e-08 0 -1
vn 0.760300279 0.649571836 0
vn 0.760300279 0.649571836 0
vn 0.760300279 0.649571836 0
vn 0.760300279 0.649571836 0
vn 2.24776624e-08 0 1
vn 2.24776624e-08 0 1
vn 2.24776624e-08 0 1
vn 2.24776624e-08 0 1
vn 0.527664959 0.46366629 0.711746693
vn 0.527664959 0.46366629 0.711746693
vn 0.527664959 0.46366629 0.711746693
vn -0.452080518 -0.258765817 0.853617847
vn -0.452080518 -0.258765817 0.853617847
vn -0.452080518 -0.258765817 0.853617847
vn -0.42219314 0.567232788 0.707106769
vn -0.42219314 0.567232788 0.707106769
vn -0.42219314 0.567232788 0.707106769
vn -0.42219314 0.567232788 0.707106769
vn 0.53761363 0.45931676 0.707106531
vn 0.53761363 0.45931676 0.707106531
vn 0.53761363 0.45931676 0.707106531
vn 0.53761363 0.45931676 0.707106531
vn 0.497118294 -0.502864599 0.707107246
vn 0.497118294 -0.502864599 0.707107246
vn 0.497118294 -0.502864599 0.707107246
vn 0.497118294 -0.502864599 0.707107246
vn -0.70300287 -0.0760741904 0.70710659
vn -0.70300287 -0.0760741904 0.70710659
vn -0.70300287 -0.0760741904 0.70710659
vn -0.70300287 -0.0760741904 0.70710659
vn 0.525314331 0.473333746 0.707106709
vn 0.525314331 0.473333746 0.707106709
vn 0.525314331 0.473333746 0.707106709
vn 0.525314331 0.473333746 0.707106709
vn -0.341646314 -0.619094253 0.707106829
vn -0.341646314 -0.619094253 0.707106829
vn -0.341646314 -0.619094253 0.707106829
vn -0.341646314 -0.619094253 0.707106829
vn -1.16769641e-07 0 1
vn -1.16769641e-07 0 1
vn -1.16769641e-07 0 1
vn -1.16769641e-07 0 1
vn -0.994195879 -0.107585289 0
vn -0.994195879 -0.107585289 0
vn -0.994195879 -0.107585289 0
vn -0.994195879 -0.107585289 0
f 1/1/1 2/2/2 3/3/3
f 2/2/2 1/1/1 4/4/4
f 5/5/5 6/6/6 7/7/7
f 6/6/6 5/5/5 8/8/8
f 9/9/9 10/10/10 11/11/11
f 10/10/10 9/9/9 12/12/12
f 13/13/13 14/14/14 15/15/15
f 14/14/14 16/16/16 15/15/15
f 17/17/17 18/18/18 19/19/19
f 18/18/18 20/20/20 19/19/19
f 21/21/21 22/22/22 23/23/23
f 22/22/22 21/21/21 24/24/24
f 25/25/25 26/26/26 27/27/27
f 26/26/26 25/25/25 28/28/28
f 29/29/29 30/30/30 31/31/31
f 30/30/30 29/29/29 32/32/32
f 33/33/33 34/34/34 35/35/35
f 34/34/34 33/33/33 36/36/36
f 37/37/37 38/38/38 39/39/39
f 38/38/38 40/40/40 39/39/39
f 41/41/41 42/42/42 43/43/43
f 42/42/42 41/41/41 44/44/44
f 45/45/45 46/46/46 47/47/47
f 46/46/46 45/45/45 48/48/48
f 49/49/49 50/50/50 51/51/51
f 50/50/50 49/49/49 52/52/52
f 53/53/53 54/54/54 55/55/55
f 56/56/56 55/55/55 54/54/54
f 57/57/57 58/58/58 59/59/59
f 58/58/58 57/57/57 60/60/60
f 61/61/61 62/62/62 63/63/63
f 64/64/64 65/65/65 66/66/66
f 67/67/67 68/68/68 69/69/69
f 70/70/70 71/71/71 72/72/72
f 73/73/73 74/74/74 75/75/75
f 74/74/74 73/73/73 76/76/76
f 77/77/77 78/78/78 79/79/79
f 79/79/79 80/80/80 77/77/77
f 81/81/81 82/82/82 83/83/83
f 83/83/83 84/84/84 81/81/81
f 85/85/85 86/86/86 87/87/87
f 85/85/85 87/87/87 88/88/88
f 89/89/89 90/90/90 91/91/91
f 89/89/89 91/91/91 92/92/92
f 93/93/93 94/94/94 95/95/95
f 94/94/94 93/93/93 96/96/96
f 97/97/97 98/98/98 99/99/99
f 98/98/98 97/97/97 100/100/100
f 101/101/101 102/102/102 103/103/103
f 102/102/102 101/101/101 104/104/104
f 105/105/105 106/106/106 107/107/107
f 106/106/106 105/105/105 108/108/108
f 109/109/109 110/110/110 111/111/111
f 110/110/110 109/109/109 112/112/112
f 113/113/113 114/114/114 115/115/115
f 114/114/114 113/113/113 116/116/116
f 117/117/117 113/113/113 104/104/104
f 113/113/113 117/117/117 118/118/118
f 119/119/119 120/120/120 121/121/121
f 120/120/120 119/119/119 122/122/122
f 123/123/123 124/124/124 125/125/125
f 124/124/124 123/123/123 126/126/126
f 127/127/127 128/128/128 129/129/129
f 128/128/128 130/130/130 129/129/129
f 131/131/131 132/132/132 133/133/133
f 132/132/132 131/131/131 134/134/134
f 135/135/135 136/136/136 137/137/137
f 136/136/136 135/135/135 138/138/138
f 139/139/139 140/140/140 141/141/141
f 142/142/142 141/141/141 140/140/140
f 143/143/143 144/144/144 145/145/145
f 144/144/144 143/143/143 146/146/146
f 147/147/147 148/148/148 149/149/149
f 148/148/148 147/147/147 150/150/150
f 151/151/151 152/152/152 153/153/153
f 152/152/152 151/151/151 154/154/154
f 155/155/155 156/156/156 157/157/157
f 156/156/156 155/155/155 158/158/158
f 159/159/159 160/160/160 161/161/161
f 160/160/160 159/159/159 162/162/162
f 163/163/163 164/164/164 165/165/165
f 166/166/166 167/167/167 168/168/168
f 169/169/169 170/170/170 171/171/171
f 170/170/170 169/169/169 172/172/172
f 173/173/173 174/174/174 175/175/175
f 173/173/173 176/176/176 174/174/174
f 177/177/177 178/178/178 179/179/179
f 177/177/177 179/179/179 180/180/180
f 181/181/181 182/182/182 183/183/183
f 181/181/181 183/183/183 184/184/184
f 185/185/185 186/186/186 187/187/187
f 186/186/186 185/185/185 188/188/188
f 189/189/189 190/190/190 191/191/191
f 190/190/190 189/189/189 192/192/192
f 193/193/193 194/194/194 195/195/195
f 194/194/194 193/193/193 196/196/196
f 197/197/197 198/198/198 199/199/199
f 198/198/198 197/197/197 200/200/200
