# Extracted from the Cocos Creator 3.8.3 playable build
# Geometry-only OBJ preview for Unity; rig and animation stay in the raw assets.
o tree01
v 0.148109436 0.0992585123 -0.372428507
v 0.230480283 0.134741306 -4.50950909
v -0.131429195 0.357254505 -4.50999451
v -0.150602534 0.278414696 -0.372631878
v -0.0327632278 -0.201422334 -0.385086119
v -0.331699491 -0.0185375623 -0.385051697
v -0.35558176 -0.00501585007 -4.51342344
v -0.35558176 -0.00501585007 -4.51342344
v 0.00847055018 -0.228751659 -4.51292038
v -0.0327632278 -0.201422334 -0.385086119
v -0.150602534 0.278414696 -0.372631878
v -0.131429195 0.357254505 -4.50999451
v -0.35558176 -0.00501585007 -4.51342344
v -0.331699491 -0.0185375623 -0.385051697
v 0.00847055018 -0.228751659 -4.51292038
v 0.230480283 0.134741306 -4.50950909
v 0.148109436 0.0992585123 -0.372428507
v 0.148109436 0.0992585123 -0.372428507
v -0.0327632278 -0.201422334 -0.385086119
v 0.00847055018 -0.228751659 -4.51292038
v -0.959047198 0.490917683 1.88859689
v -0.345824003 0.622974873 2.78885555
v -0.453471243 0.994879246 1.846434
v 1.14164996 -0.218883947 0.011141561
v 0.525171757 -0.541305065 1.24771726
v 0.780958474 -0.886390209 -0.0281242207
v -0.169990197 -0.739227831 -0.608131886
v -0.661474705 -0.366216868 -0.613873184
v 0.00429769233 -0.0186998527 -0.820249736
v 0.49158448 -0.725188673 -0.449988693
v 0.141720057 0.104847431 4.09498835
v -0.0626721382 0.228773594 4.21113396
v -0.177021414 -0.263007641 4.58298159
v -0.346648574 0.20049715 4.2895155
v 1.14164996 -0.218883947 0.011141561
v 0.525550604 0.543021917 -0.379725695
v 0.764097929 0.883667231 0.219690055
v 0.752549589 -0.069400169 -0.408914596
v -0.301267028 1.13427842 -0.0613757744
v 0.764097929 0.883667231 0.219690055
v 0.525550604 0.543021917 -0.379725695
v -0.111197345 0.706207931 -0.572718978
v -0.664937735 0.377795964 -0.410742432
v -0.661474705 -0.366216868 -0.613873184
v -1.14164996 -0.256808519 -0.109535418
v -1.00242794 0.555072486 0.140530348
v 0.272779465 0.605024815 2.77891541
v -0.453471243 0.994879246 1.846434
v -0.345824003 0.622974873 2.78885555
v 0.540155351 0.933100224 1.84751499
v -0.589938879 -0.332761288 2.55136728
v -0.890523553 0.116234303 2.93131876
v -0.734134018 0.118711948 2.45772696
v -0.890523553 0.116234303 2.93131876
v -0.589938879 -0.332761288 2.55136728
v -0.7072047 -0.445806026 2.71154165
v -0.367120504 0.748550892 3.2582283
v -0.0626721382 0.228773594 4.21113396
v 0.116836682 0.698727131 3.29098034
v -0.346648574 0.20049715 4.2895155
v -0.890523553 0.116234303 2.93131876
v -0.546194315 -0.0246081352 4.07525635
v -0.367120504 0.748550892 3.2582283
v -0.346648574 0.20049715 4.2895155
v -1.14164996 -0.256808519 -0.109535418
v -0.713212848 -0.318105221 1.12421882
v -1.00242794 0.555072486 0.140530348
v -1.00242794 0.555072486 0.140530348
v -0.713212848 -0.318105221 1.12421882
v -0.753376484 0.372959614 1.26940095
v -0.753376484 0.372959614 1.26940095
v -0.713212848 -0.318105221 1.12421882
v -0.900652409 -0.468362331 1.51374519
v -0.959047198 0.490917683 1.88859689
v -0.346648574 0.20049715 4.2895155
v -0.546194315 -0.0246081352 4.07525635
v -0.177021414 -0.263007641 4.58298159
v -0.546194315 -0.0246081352 4.07525635
v -0.428843737 -0.365417004 3.89384985
v -0.177021414 -0.263007641 4.58298159
v -0.890523553 0.116234303 2.93131876
v -0.7072047 -0.445806026 2.71154165
v -0.245360523 -0.955941677 1.75729978
v -0.589938879 -0.332761288 2.55136728
v -0.900652409 -0.468362331 1.51374519
v -0.0994642079 -0.583678722 2.57289076
v 0.690187097 -0.709043026 1.76480377
v -0.0994642079 -0.583678722 2.57289076
v -0.245360523 -0.955941677 1.75729978
v 0.401039779 -0.363574505 2.68045473
v -0.345824003 0.622974873 2.78885555
v -0.959047198 0.490917683 1.88859689
v -0.734134018 0.118711948 2.45772696
v -0.900652409 -0.468362331 1.51374519
v -0.734134018 0.118711948 2.45772696
v -0.959047198 0.490917683 1.88859689
v -0.589938879 -0.332761288 2.55136728
v 0.533557415 0.167936802 2.80223942
v 0.507335603 -0.391662121 3.10535955
v 0.401039779 -0.363574505 2.68045473
v 0.640936971 0.188925266 3.03320408
v 0.272779465 0.605024815 2.77891541
v 0.116836682 0.698727131 3.29098034
v -1.00242794 0.555072486 0.140530348
v -0.753376484 0.372959614 1.26940095
v -0.301267028 1.13427842 -0.0613757744
v -0.223857909 0.832615376 1.35728967
v 0.764097929 0.883667231 0.219690055
v -0.301267028 1.13427842 -0.0613757744
v -0.223857909 0.832615376 1.35728967
v 0.451004565 0.723444462 1.39895856
v 0.737401485 0.210943699 1.30487382
v 0.764097929 0.883667231 0.219690055
v 0.451004565 0.723444462 1.39895856
v 1.14164996 -0.218883947 0.011141561
v 0.525171757 -0.541305065 1.24771726
v 1.14164996 -0.218883947 0.011141561
v 0.737401485 0.210943699 1.30487382
v 0.737401485 0.210943699 1.30487382
v 0.690187097 -0.709043026 1.76480377
v 0.525171757 -0.541305065 1.24771726
v 0.939087272 0.349264622 1.98266733
v 0.451004565 0.723444462 1.39895856
v 0.540155351 0.933100224 1.84751499
v -0.453471243 0.994879246 1.846434
v -0.753376484 0.372959614 1.26940095
v -0.959047198 0.490917683 1.88859689
v -0.223857909 0.832615376 1.35728967
v 0.540155351 0.933100224 1.84751499
v -0.223857909 0.832615376 1.35728967
v -0.453471243 0.994879246 1.846434
v 0.451004565 0.723444462 1.39895856
v -0.192159131 -1.13427842 0.120838277
v -1.14164996 -0.256808519 -0.109535418
v -0.661474705 -0.366216868 -0.613873184
v -0.169990197 -0.739227831 -0.608131886
v 0.49158448 -0.725188673 -0.449988693
v -0.192159131 -1.13427842 0.120838277
v -0.169990197 -0.739227831 -0.608131886
v 0.780958474 -0.886390209 -0.0281242207
v 0.780958474 -0.886390209 -0.0281242207
v 0.752549589 -0.069400169 -0.408914596
v 1.14164996 -0.218883947 0.011141561
v 0.49158448 -0.725188673 -0.449988693
v 0.752549589 -0.069400169 -0.408914596
v 0.49158448 -0.725188673 -0.449988693
v 0.00429769233 -0.0186998527 -0.820249736
v 0.525550604 0.543021917 -0.379725695
v 0.00429769233 -0.0186998527 -0.820249736
v -0.111197345 0.706207931 -0.572718978
v -0.664937735 0.377795964 -0.410742432
v -0.111197345 0.706207931 -0.572718978
v -0.661474705 -0.366216868 -0.613873184
v -0.301267028 1.13427842 -0.0613757744
v -0.301267028 1.13427842 -0.0613757744
v -0.664937735 0.377795964 -0.410742432
v -1.00242794 0.555072486 0.140530348
v 0.939087272 0.349264622 1.98266733
v 0.401039779 -0.363574505 2.68045473
v 0.690187097 -0.709043026 1.76480377
v 0.533557415 0.167936802 2.80223942
v 0.533557415 0.167936802 2.80223942
v 0.939087272 0.349264622 1.98266733
v 0.272779465 0.605024815 2.77891541
v 0.540155351 0.933100224 1.84751499
v -0.122641623 -0.757365704 2.94037247
v -0.7072047 -0.445806026 2.71154165
v -0.589938879 -0.332761288 2.55136728
v -0.122641623 -0.757365704 2.94037247
v -0.589938879 -0.332761288 2.55136728
v -0.0994642079 -0.583678722 2.57289076
v 0.401039779 -0.363574505 2.68045473
v -0.122641623 -0.757365704 2.94037247
v -0.0994642079 -0.583678722 2.57289076
v 0.507335603 -0.391662121 3.10535955
v -0.345824003 0.622974873 2.78885555
v 0.116836682 0.698727131 3.29098034
v 0.272779465 0.605024815 2.77891541
v 0.116836682 0.698727131 3.29098034
v -0.345824003 0.622974873 2.78885555
v -0.367120504 0.748550892 3.2582283
v -0.890523553 0.116234303 2.93131876
v -0.367120504 0.748550892 3.2582283
v -0.345824003 0.622974873 2.78885555
v -0.734134018 0.118711948 2.45772696
v 0.525171757 -0.541305065 1.24771726
v -0.192159131 -1.13427842 0.120838277
v 0.780958474 -0.886390209 -0.0281242207
v -0.142536342 -0.72335577 1.17950189
v -0.713212848 -0.318105221 1.12421882
v -0.192159131 -1.13427842 0.120838277
v -0.142536342 -0.72335577 1.17950189
v -1.14164996 -0.256808519 -0.109535418
v -0.245360523 -0.955941677 1.75729978
v 0.525171757 -0.541305065 1.24771726
v 0.690187097 -0.709043026 1.76480377
v -0.142536342 -0.72335577 1.17950189
v -0.245360523 -0.955941677 1.75729978
v -0.713212848 -0.318105221 1.12421882
v -0.142536342 -0.72335577 1.17950189
v -0.900652409 -0.468362331 1.51374519
v -0.122641623 -0.757365704 2.94037247
v -0.428843737 -0.365417004 3.89384985
v -0.7072047 -0.445806026 2.71154165
v -0.184322655 -0.427901745 4.02204752
v -0.177021414 -0.263007641 4.58298159
v 0.507335603 -0.391662121 3.10535955
v -0.184322655 -0.427901745 4.02204752
v -0.122641623 -0.757365704 2.94037247
v 0.0835907161 -0.286181927 4.09561729
v -0.177021414 -0.263007641 4.58298159
v 0.0835907161 -0.286181927 4.09561729
v 0.141720057 0.104847431 4.09498835
v -0.177021414 -0.263007641 4.58298159
v 0.0835907161 -0.286181927 4.09561729
v 0.507335603 -0.391662121 3.10535955
v 0.141720057 0.104847431 4.09498835
v 0.640936971 0.188925266 3.03320408
v 0.116836682 0.698727131 3.29098034
v 0.640936971 0.188925266 3.03320408
v -0.0626721382 0.228773594 4.21113396
vt 0.503217995 0.000748217106
vt 0.509379029 0.544965386
vt 0.453502953 0.544965386
vt 0.457406551 0.000713407993
vt 0.574127555 0.000772178173
vt 0.620218992 0.000713407993
vt 0.624465525 0.543687761
vt 0.624465525 0.543687761
vt 0.568264484 0.543687761
vt 0.574127555 0.000772178173
vt 0.561073542 0.000713348389
vt 0.566837668 0.544948876
vt 0.510805845 0.544948876
vt 0.515315831 0.00197672844
vt 0.452076226 0.544423044
vt 0.396057576 0.544965625
vt 0.396057576 0.000713407993
vt 0.396057576 0.000713407993
vt 0.442229897 0.00156509876
vt 0.452076226 0.544423044
vt 0.299254864 0.369744658
vt 0.378624439 0.253222883
vt 0.392122805 0.383922935
vt 0.000713389425 0.591388285
vt 0.0923006907 0.428937912
vt 0.075899519 0.589617133
vt 0.455668658 0.756345153
vt 0.442513645 0.677249968
vt 0.540758789 0.705131471
vt 0.516052186 0.810477853
vt 0.0795824006 0.758872271
vt 0.0484734289 0.754555762
vt 0.0472454578 0.674253583
vt 0.0127144409 0.739967406
vt 0.882621408 0.714852333
vt 0.748947978 0.749591827
vt 0.741767049 0.655253828
vt 0.829819322 0.771736264
vt 0.625892222 0.713627219
vt 0.741767049 0.655253828
vt 0.748947978 0.749591827
vt 0.677958131 0.786904454
vt 0.50399667 0.601718903
vt 0.442513645 0.677249968
vt 0.396057546 0.616728425
vt 0.476054996 0.546392381
vt 0.951907158 0.0885533094
vt 0.82995224 0.000713407993
vt 0.95473206 0.00892698765
vt 0.82995224 0.129218876
vt 0.712478161 0.0578125715
vt 0.77794081 0.000713407993
vt 0.767937005 0.0568926334
vt 0.621987879 0.546392381
vt 0.624213099 0.622176528
vt 0.599578917 0.622176528
vt 0.000713384652 0.888777018
vt 0.0484734289 0.754555762
vt 0.0634944588 0.888777018
vt 0.0127144409 0.739967406
vt 0.283249378 0.22614789
vt 0.315599948 0.0732913017
vt 0.39463079 0.195167661
vt 0.357697636 0.049513936
vt 0.625892282 0.987539709
vt 0.719220579 0.845160961
vt 0.719220579 0.999286592
vt 0.58732605 0.9577142
vt 0.54234463 0.811904609
vt 0.619231761 0.811904609
vt 0.298680425 0.446596205
vt 0.234882444 0.450313032
vt 0.208713382 0.397366285
vt 0.299254864 0.369744658
vt 0.357697636 0.049513936
vt 0.315599948 0.0732913017
vt 0.332784534 0.000713407993
vt 0.279064298 0.71839118
vt 0.244161859 0.756224036
vt 0.208713368 0.665600896
vt 0.35696274 0.853613734
vt 0.29812488 0.9063375
vt 0.631116211 0.171948135
vt 0.712478161 0.0578125715
vt 0.739830971 0.198753953
vt 0.642994106 0.0539836287
vt 0.0800396502 0.358156085
vt 0.172033772 0.258712053
vt 0.206654176 0.361155152
vt 0.100303471 0.244753659
vt 0.378624439 0.253222883
vt 0.299254864 0.369744658
vt 0.291521341 0.286935091
vt 0.739830971 0.198753953
vt 0.767937005 0.0568926334
vt 0.828525484 0.119920731
vt 0.712478161 0.0578125715
vt 0.850642681 0.296884656
vt 0.885710359 0.346572042
vt 0.82995224 0.352491617
vt 0.883983076 0.292609394
vt 0.82995224 0.233449817
vt 0.878682256 0.195078909
vt 0.279031336 0.597980142
vt 0.298680425 0.446596205
vt 0.39463079 0.633654177
vt 0.39117083 0.442850649
vt 0.540917873 0.971775413
vt 0.396057546 0.971775413
vt 0.440897733 0.811904728
vt 0.528178215 0.829129755
vt 0.824218333 0.554843128
vt 0.741767049 0.655253828
vt 0.749740303 0.531167328
vt 0.882621408 0.714852333
vt 0.0923006907 0.428937912
vt 0.000713389425 0.591388285
vt 0.0315040089 0.430354059
vt 0.824218333 0.554843128
vt 0.921508074 0.540628552
vt 0.883558929 0.600915074
vt 0.835968673 0.460988164
vt 0.749740303 0.531167328
vt 0.741795003 0.465476871
vt 0.392122805 0.383922935
vt 0.298680425 0.446596205
vt 0.299254864 0.369744658
vt 0.39117083 0.442850649
vt 0.741795003 0.465476871
vt 0.683378458 0.553919315
vt 0.655117154 0.495983601
vt 0.749740303 0.531167328
vt 0.625892282 0.382196605
vt 0.797693014 0.399793446
vt 0.747122645 0.457231998
vt 0.666648269 0.459561467
vt 0.103839904 0.648573279
vt 0.207286581 0.572364867
vt 0.18587406 0.672826827
vt 0.075899519 0.589617133
vt 0.921508074 0.760089576
vt 0.829819322 0.771736264
vt 0.882621408 0.714852333
vt 0.875536621 0.813375175
vt 0.598152101 0.769182324
vt 0.516052186 0.810477853
vt 0.540758789 0.705131471
vt 0.748947978 0.749591827
vt 0.758264005 0.843734205
vt 0.677958131 0.786904454
vt 0.50399667 0.601718903
vt 0.589003801 0.620944381
vt 0.442513645 0.677249968
vt 0.598152101 0.554863811
vt 0.39463079 0.633654177
vt 0.285588592 0.66417408
vt 0.279031336 0.597980142
vt 0.000713406946 0.342464805
vt 0.100303471 0.244753659
vt 0.0800396502 0.358156085
vt 0.0595461018 0.235213637
vt 0.990616679 0.133239388
vt 0.891662657 0.193652153
vt 0.951907158 0.0885533094
vt 0.82995224 0.129218876
vt 0.383731395 0.753981471
vt 0.39463076 0.821706176
vt 0.365219206 0.821706176
vt 0.625892282 0.0143461823
vt 0.712478161 0.0578125715
vt 0.642994106 0.0539836287
vt 0.100303471 0.244753659
vt 0.183132067 0.208478212
vt 0.172033772 0.258712053
vt 0.088776052 0.188230276
vt 0.150794566 0.7599805
vt 0.150794566 0.674253583
vt 0.190862253 0.723792255
vt 0.39463079 0.665600896
vt 0.39463079 0.752554715
vt 0.361679316 0.700705409
vt 0.283249378 0.22614789
vt 0.39463079 0.195167661
vt 0.378624439 0.253222883
vt 0.291521341 0.286935091
vt 0.0923006907 0.428937912
vt 0.207286581 0.572364867
vt 0.075899519 0.589617133
vt 0.182895795 0.439216614
vt 0.739431858 0.238691926
vt 0.625892282 0.382196605
vt 0.648037851 0.234342873
vt 0.797693014 0.399793446
vt 0.206654176 0.361155152
vt 0.0923006907 0.428937912
vt 0.0800396502 0.358156085
vt 0.182895795 0.439216614
vt 0.631116211 0.171948135
vt 0.739431858 0.238691926
vt 0.648037851 0.234342873
vt 0.739830971 0.198753953
vt 0.208713368 0.890038311
vt 0.244161859 0.756224036
vt 0.29812488 0.9063375
vt 0.211549968 0.742195189
vt 0.208713368 0.665600896
vt 0.088776052 0.188230276
vt 0.176222086 0.0718630552
vt 0.183132067 0.208478212
vt 0.136733666 0.0626217723
vt 0.168074384 0.000713407993
vt 0.0853453502 0.724989057
vt 0.0795824006 0.758872271
vt 0.0472454578 0.674253583
vt 0.972433865 0.273462653
vt 0.885710359 0.346572042
vt 0.974768698 0.23346585
vt 0.883983076 0.292609394
vt 0.0634944588 0.888777018
vt 0.149367794 0.879678369
vt 0.0484734289 0.754555762
vn -0.123542011 0.826633751 -0.549011886
vn -0.214030027 0.788101673 0.577136695
vn 0.798817039 0.159583956 0.580020905
vn 0.7901932 0.277472526 -0.546446562
vn -0.927936673 -0.167165458 -0.333150595
vn 0.142888099 -0.813770056 -0.563348413
vn -0.579201579 -0.345392287 0.738396704
vn 0.286579996 -0.877509177 0.384512216
vn -0.801336765 -0.203169763 0.562655747
vn -0.0809901357 -0.685560942 -0.723496377
vn -0.810546339 -0.125573367 -0.572054148
vn -0.799121141 -0.202612683 0.565997839
vn -0.195802122 0.799716949 0.567551136
vn -0.248990029 0.80222857 -0.542616904
vn 0.864339709 0.304178953 0.400489688
vn 0.164959401 -0.800922334 0.575597048
vn 0.701421857 -0.0780286789 -0.708462298
vn 0.189065874 -0.919020712 -0.34591186
vn 0.82950455 0.147777081 -0.538594782
vn 0.319879472 -0.58008647 0.749117374
vn -0.848256826 0.184129298 0.496544838
vn -0.357807159 0.744894624 0.563121557
vn -0.282327145 0.830605149 0.479985923
vn 0.907195866 -0.189697146 0.375513881
vn 0.605840385 -0.642168462 0.469656229
vn 0.589110076 -0.700868547 0.402159989
vn -0.21991846 -0.591832519 -0.775480568
vn -0.466528296 -0.327989995 -0.82144618
vn 0.0635815263 0.0410821736 -0.997130811
vn 0.299212009 -0.538716793 -0.787563682
vn 0.723737121 0.289129615 0.626584947
vn 0.489543408 0.657549024 0.572692335
vn -0.0507837385 -0.359840125 0.931630909
vn -0.318835199 0.642038643 0.697230637
vn 0.637282968 0.0345509537 -0.769854903
vn 0.415764481 0.568844914 -0.709616363
vn 0.521909595 0.528996229 -0.669158638
vn 0.649737775 -0.0862806588 -0.755245924
vn -0.131045163 0.625371814 -0.769244671
vn 0.521909595 0.528996229 -0.669158638
vn 0.415764481 0.568844914 -0.709616363
vn -0.159999505 0.567875803 -0.807413816
vn -0.6832093 0.369793862 -0.629664719
vn -0.466528296 -0.327989995 -0.82144618
vn -0.661550105 -0.0608034506 -0.747431993
vn -0.632196188 0.404037237 -0.661121607
vn 0.387432873 0.735213697 0.556198359
vn -0.282327145 0.830605149 0.479985923
vn -0.357807159 0.744894624 0.563121557
vn 0.351044714 0.78320682 0.51318115
vn -0.531918108 -0.444429398 -0.720795274
vn -0.81235075 0.449218124 -0.371872723
vn -0.896079659 0.151248619 -0.41733104
vn -0.81235075 0.449218124 -0.371872723
vn -0.531918108 -0.444429398 -0.720795274
vn -0.435122728 -0.369164169 -0.821210146
vn -0.498119682 0.696023285 0.517134905
vn 0.489543408 0.657549024 0.572692335
vn 0.451950043 0.689483821 0.565997601
vn -0.318835199 0.642038643 0.697230637
vn -0.937895119 -0.135246992 0.31946972
vn -0.890395641 -0.103103533 0.443356752
vn -0.498119682 0.696023285 0.517134905
vn -0.318835199 0.642038643 0.697230637
vn -0.864384711 -0.330814302 0.378683031
vn -0.831481218 -0.426696807 0.355765253
vn -0.828479946 0.414562732 0.376508564
vn -0.828479946 0.414562732 0.376508564
vn -0.831481218 -0.426696807 0.355765253
vn -0.874321699 0.38430196 0.296434671
vn -0.787454367 0.358588576 -0.501328111
vn -0.689002097 -0.363729179 -0.626878858
vn -0.675769269 -0.371117711 -0.636873305
vn -0.773094177 0.454927683 -0.442002535
vn -0.318835199 0.642038643 0.697230637
vn -0.890395641 -0.103103533 0.443356752
vn -0.0507837385 -0.359840125 0.931630909
vn -0.890395641 -0.103103533 0.443356752
vn -0.698661327 -0.636603594 0.326509058
vn -0.0507837385 -0.359840125 0.931630909
vn -0.937895119 -0.135246992 0.31946972
vn -0.73514998 -0.613799572 0.287758082
vn -0.292823941 -0.82035017 0.491202295
vn -0.713719606 -0.528847039 0.459265679
vn -0.794918537 -0.474920064 0.377564818
vn -0.0551490337 -0.837585032 0.543516219
vn 0.515173972 -0.667517245 0.537602663
vn -0.0551490337 -0.837585032 0.543516219
vn -0.292823941 -0.82035017 0.491202295
vn 0.612404048 -0.58015579 0.537010729
vn -0.357807159 0.744894624 0.563121557
vn -0.848256826 0.184129298 0.496544838
vn -0.87619561 -0.0188474692 0.481587231
vn -0.794918537 -0.474920064 0.377564818
vn -0.87619561 -0.0188474692 0.481587231
vn -0.848256826 0.184129298 0.496544838
vn -0.713719606 -0.528847039 0.459265679
vn 0.855158508 0.103989877 -0.507828712
vn 0.796009481 -0.502371132 -0.337627351
vn 0.740791202 -0.575523376 -0.346411705
vn 0.861839414 0.229510695 -0.4522807
vn 0.478881419 0.873298824 -0.0895651132
vn 0.308368534 0.938386977 -0.156008616
vn -0.828479946 0.414562732 0.376508564
vn -0.874321699 0.38430196 0.296434671
vn -0.237266362 0.926765442 0.291222215
vn -0.25229454 0.929108202 0.270380557
vn 0.612825572 0.728247285 0.306758285
vn -0.237266362 0.926765442 0.291222215
vn -0.25229454 0.929108202 0.270380557
vn 0.526586413 0.788710654 0.317241877
vn 0.916383505 0.113910235 0.383752048
vn 0.612825572 0.728247285 0.306758285
vn 0.526586413 0.788710654 0.317241877
vn 0.907195866 -0.189697146 0.375513881
vn 0.605840385 -0.642168462 0.469656229
vn 0.907195866 -0.189697146 0.375513881
vn 0.916383505 0.113910235 0.383752048
vn 0.898329198 0.129696041 -0.419742465
vn 0.68104583 -0.528860271 -0.506441891
vn 0.602112114 -0.600528061 -0.52614367
vn 0.885746241 0.195139647 -0.421158105
vn 0.49669528 0.675937295 -0.544428647
vn 0.514495552 0.67416656 -0.529899657
vn -0.345901281 0.786522448 -0.511600196
vn -0.787454367 0.358588576 -0.501328111
vn -0.773094177 0.454927683 -0.442002535
vn -0.173920557 0.836095393 -0.520284772
vn 0.514495552 0.67416656 -0.529899657
vn -0.173920557 0.836095393 -0.520284772
vn -0.345901281 0.786522448 -0.511600196
vn 0.49669528 0.675937295 -0.544428647
vn -0.175448626 -0.801707745 -0.571386337
vn -0.661550105 -0.0608034506 -0.747431993
vn -0.466528296 -0.327989995 -0.82144618
vn -0.21991846 -0.591832519 -0.775480568
vn 0.299212009 -0.538716793 -0.787563682
vn -0.175448626 -0.801707745 -0.571386337
vn -0.21991846 -0.591832519 -0.775480568
vn 0.435424566 -0.521575451 -0.733733296
vn 0.435424566 -0.521575451 -0.733733296
vn 0.649737775 -0.0862806588 -0.755245924
vn 0.637282968 0.0345509537 -0.769854903
vn 0.299212009 -0.538716793 -0.787563682
vn 0.649737775 -0.0862806588 -0.755245924
vn 0.299212009 -0.538716793 -0.787563682
vn 0.0635815263 0.0410821736 -0.997130811
vn 0.415764481 0.568844914 -0.709616363
vn 0.0635815263 0.0410821736 -0.997130811
vn -0.159999505 0.567875803 -0.807413816
vn -0.6832093 0.369793862 -0.629664719
vn -0.159999505 0.567875803 -0.807413816
vn -0.466528296 -0.327989995 -0.82144618
vn -0.131045163 0.625371814 -0.769244671
vn -0.131045163 0.625371814 -0.769244671
vn -0.6832093 0.369793862 -0.629664719
vn -0.632196188 0.404037237 -0.661121607
vn 0.813280344 0.150502041 0.562071383
vn 0.612404048 -0.58015579 0.537010729
vn 0.515173972 -0.667517245 0.537602663
vn 0.821194232 0.0612189099 0.567355514
vn 0.821194232 0.0612189099 0.567355514
vn 0.813280344 0.150502041 0.562071383
vn 0.387432873 0.735213697 0.556198359
vn 0.351044714 0.78320682 0.51318115
vn 0.243944317 -0.837206721 -0.489465177
vn -0.435122728 -0.369164169 -0.821210146
vn -0.531918108 -0.444429398 -0.720795274
vn 0.243944317 -0.837206721 -0.489465177
vn -0.531918108 -0.444429398 -0.720795274
vn 0.0197264161 -0.839668453 -0.542741001
vn 0.740791202 -0.575523376 -0.346411705
vn 0.243944317 -0.837206721 -0.489465177
vn 0.0197264161 -0.839668453 -0.542741001
vn 0.796009481 -0.502371132 -0.337627351
vn -0.370352685 0.871208847 -0.322232664
vn 0.308368534 0.938386977 -0.156008616
vn 0.478881419 0.873298824 -0.0895651132
vn 0.308368534 0.938386977 -0.156008616
vn -0.370352685 0.871208847 -0.322232664
vn -0.16202569 0.93315202 -0.320897311
vn -0.81235075 0.449218124 -0.371872723
vn -0.16202569 0.93315202 -0.320897311
vn -0.370352685 0.871208847 -0.322232664
vn -0.896079659 0.151248619 -0.41733104
vn 0.605840385 -0.642168462 0.469656229
vn -0.211711168 -0.881436288 0.422194958
vn 0.589110076 -0.700868547 0.402159989
vn -0.17517668 -0.86956054 0.461711735
vn -0.831481218 -0.426696807 0.355765253
vn -0.211711168 -0.881436288 0.422194958
vn -0.17517668 -0.86956054 0.461711735
vn -0.864384711 -0.330814302 0.378683031
vn -0.0293997228 -0.860277236 -0.508978128
vn 0.602112114 -0.600528061 -0.52614367
vn 0.68104583 -0.528860271 -0.506441891
vn -0.109130822 -0.859369278 -0.49957478
vn -0.0293997228 -0.860277236 -0.508978128
vn -0.689002097 -0.363729179 -0.626878858
vn -0.109130822 -0.859369278 -0.49957478
vn -0.675769269 -0.371117711 -0.636873305
vn -0.194532081 -0.931299746 0.307958066
vn -0.698661327 -0.636603594 0.326509058
vn -0.73514998 -0.613799572 0.287758082
vn 0.0888617262 -0.944111228 0.317423552
vn -0.0507837385 -0.359840125 0.931630909
vn 0.69244355 -0.529079854 0.490506291
vn 0.0888617262 -0.944111228 0.317423552
vn -0.194532081 -0.931299746 0.307958066
vn 0.660981894 -0.650364339 0.37433821
vn -0.0507837385 -0.359840125 0.931630909
vn 0.660981894 -0.650364339 0.37433821
vn 0.723737121 0.289129615 0.626584947
vn -0.0507837385 -0.359840125 0.931630909
vn 0.660981894 -0.650364339 0.37433821
vn 0.69244355 -0.529079854 0.490506291
vn 0.723737121 0.289129615 0.626584947
vn 0.835222363 0.117818438 0.537142813
vn 0.451950043 0.689483821 0.565997601
vn 0.835222363 0.117818438 0.537142813
vn 0.489543408 0.657549024 0.572692335
f 1/1/1 2/2/2 3/3/3
f 3/3/3 4/4/4 1/1/1
f 5/5/5 6/6/6 7/7/7
f 8/8/8 9/9/9 10/10/10
f 11/11/11 12/12/12 13/13/13
f 13/13/13 14/14/14 11/11/11
f 15/15/15 16/16/16 17/17/17
f 18/18/18 19/19/19 20/20/20
f 21/21/21 22/22/22 23/23/23
f 24/24/24 25/25/25 26/26/26
f 27/27/27 28/28/28 29/29/29
f 30/30/30 27/27/27 29/29/29
f 31/31/31 32/32/32 33/33/33
f 32/32/32 34/34/34 33/33/33
f 35/35/35 36/36/36 37/37/37
f 36/36/36 35/35/35 38/38/38
f 39/39/39 40/40/40 41/41/41
f 39/39/39 41/41/41 42/42/42
f 43/43/43 44/44/44 45/45/45
f 43/43/43 45/45/45 46/46/46
f 47/47/47 48/48/48 49/49/49
f 48/48/48 47/47/47 50/50/50
f 51/51/51 52/52/52 53/53/53
f 54/54/54 55/55/55 56/56/56
f 57/57/57 58/58/58 59/59/59
f 58/58/58 57/57/57 60/60/60
f 61/61/61 62/62/62 63/63/63
f 64/64/64 63/63/63 62/62/62
f 65/65/65 66/66/66 67/67/67
f 68/68/68 69/69/69 70/70/70
f 71/71/71 72/72/72 73/73/73
f 71/71/71 73/73/73 74/74/74
f 75/75/75 76/76/76 77/77/77
f 78/78/78 79/79/79 80/80/80
f 78/78/78 81/81/81 79/79/79
f 82/82/82 79/79/79 81/81/81
f 83/83/83 84/84/84 85/85/85
f 84/84/84 83/83/83 86/86/86
f 87/87/87 88/88/88 89/89/89
f 88/88/88 87/87/87 90/90/90
f 91/91/91 92/92/92 93/93/93
f 94/94/94 95/95/95 96/96/96
f 95/95/95 94/94/94 97/97/97
f 98/98/98 99/99/99 100/100/100
f 99/99/99 98/98/98 101/101/101
f 102/102/102 101/101/101 98/98/98
f 101/101/101 102/102/102 103/103/103
f 104/104/104 105/105/105 106/106/106
f 107/107/107 106/106/106 105/105/105
f 108/108/108 109/109/109 110/110/110
f 111/111/111 108/108/108 110/110/110
f 112/112/112 113/113/113 114/114/114
f 113/113/113 112/112/112 115/115/115
f 116/116/116 117/117/117 118/118/118
f 119/119/119 120/120/120 121/121/121
f 120/120/120 119/119/119 122/122/122
f 123/123/123 122/122/122 119/119/119
f 122/122/122 123/123/123 124/124/124
f 125/125/125 126/126/126 127/127/127
f 126/126/126 125/125/125 128/128/128
f 129/129/129 130/130/130 131/131/131
f 130/130/130 129/129/129 132/132/132
f 133/133/133 134/134/134 135/135/135
f 133/133/133 135/135/135 136/136/136
f 137/137/137 138/138/138 139/139/139
f 138/138/138 137/137/137 140/140/140
f 141/141/141 142/142/142 143/143/143
f 142/142/142 141/141/141 144/144/144
f 145/145/145 146/146/146 147/147/147
f 148/148/148 142/142/142 149/149/149
f 150/150/150 148/148/148 149/149/149
f 151/151/151 152/152/152 147/147/147
f 153/153/153 151/151/151 147/147/147
f 151/151/151 154/154/154 152/152/152
f 155/155/155 156/156/156 157/157/157
f 158/158/158 159/159/159 160/160/160
f 159/159/159 158/158/158 161/161/161
f 162/162/162 163/163/163 164/164/164
f 163/163/163 165/165/165 164/164/164
f 166/166/166 167/167/167 168/168/168
f 169/169/169 170/170/170 171/171/171
f 172/172/172 173/173/173 174/174/174
f 173/173/173 172/172/172 175/175/175
f 176/176/176 177/177/177 178/178/178
f 179/179/179 180/180/180 181/181/181
f 182/182/182 183/183/183 184/184/184
f 184/184/184 185/185/185 182/182/182
f 186/186/186 187/187/187 188/188/188
f 187/187/187 186/186/186 189/189/189
f 190/190/190 191/191/191 192/192/192
f 191/191/191 190/190/190 193/193/193
f 194/194/194 195/195/195 196/196/196
f 195/195/195 194/194/194 197/197/197
f 198/198/198 199/199/199 200/200/200
f 198/198/198 201/201/201 199/199/199
f 202/202/202 203/203/203 204/204/204
f 203/203/203 202/202/202 205/205/205
f 203/203/203 205/205/205 206/206/206
f 207/207/207 208/208/208 209/209/209
f 208/208/208 210/210/210 211/211/211
f 208/208/208 207/207/207 210/210/210
f 212/212/212 213/213/213 214/214/214
f 215/215/215 216/216/216 217/217/217
f 217/217/217 216/216/216 218/218/218
f 219/219/219 213/213/213 220/220/220
f 213/213/213 219/219/219 221/221/221
