# Extracted from the Cocos Creator 3.8.3 playable build
# Geometry-only OBJ preview for Unity; rig and animation stay in the raw assets.
o vfx_lvl_up
v 0.170441404 0 0.459827304
v 0.170441404 0 0
v 0.155705959 0.0693247616 0.459827304
v 0.155705959 0.0693247616 0
v 0.11404755 0.126662657 0.459827304
v 0.11404755 0.126662657 0
v 0.0526692867 0.162099406 0.459827304
v 0.0526692867 0.162099406 0
v 0.0526692867 0.162099406 0.459827304
v 0.0526692867 0.162099406 0
v -0.0178159848 0.169507712 0.459827304
v -0.0178159848 0.169507712 0
v -0.0852207094 0.147606581 0.459827304
v -0.0852207094 0.147606581 0
v -0.137889996 0.100182921 0.459827304
v -0.137889996 0.100182921 0
v -0.166716844 0.0354367457 0.459827304
v -0.166716844 0.0354367457 0
v -0.166716844 -0.0354367755 0.459827304
v -0.166716844 -0.0354367755 0
v -0.137889981 -0.100182965 0.459827304
v -0.137889981 -0.100182965 0
v -0.0852206796 -0.147606596 0.459827304
v -0.0852206796 -0.147606596 0
v -0.017815955 -0.169507712 0.459827304
v -0.017815955 -0.169507712 0
v 0.0526693091 -0.162099406 0.459827304
v 0.0526693091 -0.162099406 0
v 0.114047572 -0.126662627 0.459827304
v 0.114047572 -0.126662627 0
v 0.155705974 -0.0693247393 0.459827304
v 0.155705974 -0.0693247393 0
vt 0.75 1
vt 0.75 0
vt 0.816666663 1
vt 0.816666663 0
vt 0.883333325 1
vt 0.883333325 0
vt 0.949999988 1
vt 0.949999988 0
vt -0.0500000119 1
vt -0.0500000119 0
vt 0.0166666806 1
vt 0.0166666806 0
vt 0.0833333433 1
vt 0.0833333433 0
vt 0.150000066 1
vt 0.150000066 0
vt 0.216666698 1
vt 0.216666698 0
vt 0.283333361 1
vt 0.283333361 0
vt 0.350000024 1
vt 0.350000024 0
vt 0.416666687 1
vt 0.416666687 0
vt 0.483333349 1
vt 0.483333349 0
vt 0.550000012 1
vt 0.550000012 0
vt 0.616666675 1
vt 0.616666675 0
vt 0.683333337 1
vt 0.683333337 0
vn 1 1.06681355e-07 0
vn 1 1.06681355e-07 0
vn 0.91354543 0.406736672 0
vn 0.91354543 0.406736672 0
vn 0.669130564 0.74314481 0
vn 0.669130564 0.74314481 0
vn 0.309017003 0.95105654 0
vn 0.309017003 0.95105654 0
vn 0.309017003 0.95105654 0
vn 0.309017003 0.95105654 0
vn -0.104528442 0.994521856 0
vn -0.104528442 0.994521856 0
vn -0.500000179 0.866025269 0
vn -0.500000179 0.866025269 0
vn -0.809017122 0.587785125 0
vn -0.809017122 0.587785125 0
vn -0.978147626 0.207911626 0
vn -0.978147626 0.207911626 0
vn -0.978147626 -0.207911745 0
vn -0.978147626 -0.207911745 0
vn -0.809016943 -0.587785363 0
vn -0.809016943 -0.587785363 0
vn -0.49999997 -0.866025448 0
vn -0.49999997 -0.866025448 0
vn -0.10452839 -0.994521976 0
vn -0.10452839 -0.994521976 0
vn 0.309017211 -0.95105648 0
vn 0.309017211 -0.95105648 0
vn 0.669130743 -0.743144691 0
vn 0.669130743 -0.743144691 0
vn 0.913545489 -0.406736493 0
vn 0.913545489 -0.406736493 0
f 1/1/1 2/2/2 3/3/3
f 3/3/3 2/2/2 4/4/4
f 3/3/3 4/4/4 5/5/5
f 5/5/5 4/4/4 6/6/6
f 5/5/5 6/6/6 7/7/7
f 7/7/7 6/6/6 8/8/8
f 9/9/9 10/10/10 11/11/11
f 11/11/11 10/10/10 12/12/12
f 11/11/11 12/12/12 13/13/13
f 13/13/13 12/12/12 14/14/14
f 13/13/13 14/14/14 15/15/15
f 15/15/15 14/14/14 16/16/16
f 15/15/15 16/16/16 17/17/17
f 17/17/17 16/16/16 18/18/18
f 17/17/17 18/18/18 19/19/19
f 19/19/19 18/18/18 20/20/20
f 19/19/19 20/20/20 21/21/21
f 21/21/21 20/20/20 22/22/22
f 21/21/21 22/22/22 23/23/23
f 23/23/23 22/22/22 24/24/24
f 23/23/23 24/24/24 25/25/25
f 25/25/25 24/24/24 26/26/26
f 25/25/25 26/26/26 27/27/27
f 27/27/27 26/26/26 28/28/28
f 27/27/27 28/28/28 29/29/29
f 29/29/29 28/28/28 30/30/30
f 29/29/29 30/30/30 31/31/31
f 31/31/31 30/30/30 32/32/32
f 31/31/31 32/32/32 1/1/1
f 1/1/1 32/32/32 2/2/2
