# Extracted from the Cocos Creator 3.8.3 playable build
# Geometry-only OBJ preview for Unity; rig and animation stay in the raw assets.
o xiaowuqi
v -0.153892279 2.28201222 5.47851528e-07
v -0.000663280487 2.28201222 0.153230146
v -0.000663280487 2.44833302 5.92602305e-07
v -0.000663280487 2.44833302 5.92602305e-07
v -0.000663280487 2.28201222 0.153230146
v 0.152566671 2.28201222 5.47851528e-07
v -0.153892279 2.28201222 5.47851528e-07
v -0.400984168 0.853242278 2.07294477e-07
v -0.000663280487 2.28201222 0.153230146
v -0.000663280487 0.853242218 0.400321066
v -0.000663280487 2.28201222 0.153230146
v -0.000663280487 0.853242218 0.400321066
v 0.152566671 2.28201222 5.47851528e-07
v 0.399657726 0.853242278 2.07294477e-07
v -0.000663280487 0.703984797 1.71673051e-07
v -0.000663280487 0.853242218 0.400321066
v -0.400984168 0.853242278 2.07294477e-07
v -0.000663280487 0.703984797 1.71673051e-07
v 0.399657726 0.853242278 2.07294477e-07
v -0.000663280487 0.853242218 0.400321066
v -0.000663280487 2.44833302 5.92602305e-07
v 0.152566671 2.28201222 5.47851528e-07
v -0.000663280487 2.28201222 -0.153229088
v -0.000663280487 0.703984797 1.71673051e-07
v -0.400984168 0.853242278 2.07294477e-07
v -0.000663280487 0.853242338 -0.400320649
v -0.000663280487 0.703984797 1.71673051e-07
v -0.000663280487 0.853242338 -0.400320649
v 0.399657726 0.853242278 2.07294477e-07
v -0.000663280487 2.28201222 -0.153229088
v -0.400984168 0.853242278 2.07294477e-07
v -0.153892279 2.28201222 5.47851528e-07
v -0.000663280487 0.853242338 -0.400320649
v -0.000663280487 0.853242338 -0.400320649
v 0.152566671 2.28201222 5.47851528e-07
v 0.399657726 0.853242278 2.07294477e-07
v -0.000663280487 2.28201222 -0.153229088
v -0.000663280487 2.28201222 -0.153229088
v -0.153892279 2.28201222 5.47851528e-07
v -0.000663280487 2.44833302 5.92602305e-07
v -0.105461836 0.0115663987 6.54253496e-09
v -0.000663280487 0.0115662608 0.104799345
v -0.000663280487 2.37500072 3.07925802e-07
v -0.000663280487 0.0115662608 0.104799345
v 0.104136229 0.0115663987 6.54253585e-09
v -0.000663280487 2.37500072 3.07925802e-07
v -0.105461836 0.0115663987 6.54253496e-09
v -0.000663280487 2.37500072 3.07925802e-07
v -0.000663280487 0.0115664247 -0.104799315
v -0.000663280487 0.0115664247 -0.104799315
v -0.000663280487 2.37500072 3.07925802e-07
v 0.104136229 0.0115663987 6.54253585e-09
v -0.000663280487 0.0115664247 -0.104799315
v 0.104136229 0.0115663987 6.54253585e-09
v -0.105461836 0.0115663987 6.54253496e-09
v -0.000663280487 0.0115662608 0.104799345
vt 0.763718069 0.336521626
vt 0.814564347 0.336521626
vt 0.814724147 0.377803922
vt 0.814724147 0.377803922
vt 0.814564347 0.336521626
vt 0.865353227 0.336521626
vt 0.763718069 0.336521626
vt 0.711369693 0.0465077162
vt 0.814564347 0.336521626
vt 0.814564347 0.0465077162
vt 0.814564347 0.336521626
vt 0.814564347 0.0465077162
vt 0.865353227 0.336521626
vt 0.917824745 0.0465077162
vt 0.81464529 0.0285254717
vt 0.814564347 0.0465077162
vt 0.711369693 0.0465077162
vt 0.81464529 0.0285254717
vt 0.917824745 0.0465077162
vt 0.814564347 0.0465077162
vt 0.814724147 0.377803922
vt 0.865353227 0.336521626
vt 0.814564347 0.336521626
vt 0.81464529 0.0285254717
vt 0.711369693 0.0465077162
vt 0.814564347 0.0465077162
vt 0.81464529 0.0285254717
vt 0.814564347 0.0465077162
vt 0.917824745 0.0465077162
vt 0.814564347 0.336521626
vt 0.711369693 0.0465077162
vt 0.763718069 0.336521626
vt 0.814564347 0.0465077162
vt 0.814564347 0.0465077162
vt 0.865353227 0.336521626
vt 0.917824745 0.0465077162
vt 0.814564347 0.336521626
vt 0.814564347 0.336521626
vt 0.763718069 0.336521626
vt 0.814724147 0.377803922
vt 0.922785223 0.188215137
vt 0.952964902 0.188215137
vt 0.952964783 0.369746566
vt 0.952964902 0.188215137
vt 0.983144164 0.188215137
vt 0.952964783 0.369746566
vt 0.922785223 0.188215137
vt 0.952964783 0.369746566
vt 0.952964902 0.188215137
vt 0.952964902 0.188215137
vt 0.952964783 0.369746566
vt 0.983144164 0.188215137
vt 0.954048276 0.147330701
vt 0.925826788 0.175552189
vt 0.982269645 0.175552189
vt 0.954048276 0.147330701
vn -0.592477977 0.545841217 0.592475474
vn -0.592477977 0.545841217 0.592475474
vn -0.592477977 0.545841217 0.592475474
vn 0.592475593 0.545842409 0.592476726
vn 0.592475593 0.545842409 0.592476726
vn 0.592475593 0.545842409 0.592476726
vn -0.701878607 0.121382721 0.701877892
vn -0.701878607 0.121382721 0.701877892
vn -0.701878607 0.121382721 0.701877892
vn -0.701878607 0.121382721 0.701877892
vn 0.701878011 0.121382512 0.701878667
vn 0.701878011 0.121382512 0.701878667
vn 0.701878011 0.121382512 0.701878667
vn 0.701878011 0.121382512 0.701878667
vn -0.329805702 -0.884565771 0.329805434
vn -0.329805702 -0.884565771 0.329805434
vn -0.329805702 -0.884565771 0.329805434
vn 0.329805613 -0.884565771 0.329805434
vn 0.329805613 -0.884565771 0.329805434
vn 0.329805613 -0.884565771 0.329805434
vn 0.592475474 0.545842767 -0.592476666
vn 0.592475474 0.545842767 -0.592476666
vn 0.592475474 0.545842767 -0.592476666
vn -0.329805434 -0.884565711 -0.329805732
vn -0.329805434 -0.884565711 -0.329805732
vn -0.329805434 -0.884565711 -0.329805732
vn 0.329805344 -0.884565771 -0.329805732
vn 0.329805344 -0.884565771 -0.329805732
vn 0.329805344 -0.884565771 -0.329805732
vn -0.701878667 0.121383041 -0.701877832
vn -0.701878667 0.121383041 -0.701877832
vn -0.701878667 0.121383041 -0.701877832
vn -0.701878667 0.121383041 -0.701877832
vn 0.701878011 0.121382818 -0.701878548
vn 0.701878011 0.121382818 -0.701878548
vn 0.701878011 0.121382818 -0.701878548
vn 0.701878011 0.121382818 -0.701878548
vn -0.592478156 0.545841336 -0.592475116
vn -0.592478156 0.545841336 -0.592475116
vn -0.592478156 0.545841336 -0.592475116
vn -0.706762075 0.0313389041 0.70675683
vn -0.706762075 0.0313389041 0.70675683
vn -0.706762075 0.0313389041 0.70675683
vn 0.706758857 0.0313390419 0.706760049
vn 0.706758857 0.0313390419 0.706760049
vn 0.706758857 0.0313390419 0.706760049
vn -0.706762016 0.0313390754 -0.70675683
vn -0.706762016 0.0313390754 -0.70675683
vn -0.706762016 0.0313390754 -0.70675683
vn 0.706758857 0.031339217 -0.706760049
vn 0.706758857 0.031339217 -0.706760049
vn 0.706758857 0.031339217 -0.706760049
vn 0 -1 -7.82031577e-07
vn 0 -1 -7.82031577e-07
vn 0 -1 -7.82031577e-07
vn 0 -1 -7.82031577e-07
f 1/1/1 2/2/2 3/3/3
f 4/4/4 5/5/5 6/6/6
f 7/7/7 8/8/8 9/9/9
f 10/10/10 9/9/9 8/8/8
f 11/11/11 12/12/12 13/13/13
f 13/13/13 12/12/12 14/14/14
f 15/15/15 16/16/16 17/17/17
f 18/18/18 19/19/19 20/20/20
f 21/21/21 22/22/22 23/23/23
f 24/24/24 25/25/25 26/26/26
f 27/27/27 28/28/28 29/29/29
f 30/30/30 31/31/31 32/32/32
f 31/31/31 30/30/30 33/33/33
f 34/34/34 35/35/35 36/36/36
f 35/35/35 34/34/34 37/37/37
f 38/38/38 39/39/39 40/40/40
f 41/41/41 42/42/42 43/43/43
f 44/44/44 45/45/45 46/46/46
f 47/47/47 48/48/48 49/49/49
f 50/50/50 51/51/51 52/52/52
f 53/53/53 54/54/54 55/55/55
f 54/54/54 56/56/56 55/55/55
