# Extracted from the Cocos Creator 3.8.3 playable build
# Geometry-only OBJ preview for Unity; rig and animation stay in the raw assets.
o zhalan_6G
v -1.12998497 -0.0200342089 1.84028935
v -1.12998497 -0.0200337395 -2.47875452
v -1.2604624 0.204918116 1.84027648
v -1.2604624 0.204918593 -2.47875452
v -0.940593898 0.186852425 1.97047067
v -1.06050932 -0.0189547762 -2.47311902
v -1.06055653 -0.0190878138 1.97048974
v -0.940592945 0.186904997 -2.47311902
v -1.2604624 0.204918116 1.84027648
v -1.52226675 0.204968303 -2.47875452
v -1.52226722 0.204910845 1.8403151
v -1.2604624 0.204918593 -2.47875452
v -0.940269172 -0.225687653 1.97049356
v -0.940266788 -0.225623995 -2.47311902
v -0.700830638 -0.225656062 1.97048593
v -0.700829685 -0.225621462 -2.47311902
v -0.148665607 -0.232172757 1.84589505
v -0.212409198 -0.121479057 2.48391747
v -0.32891053 -0.121502303 2.48392892
v -0.395716846 -0.232205391 1.84590364
v -1.32783782 0.0879362673 2.49103856
v -1.51530373 -0.0200957283 2.49106526
v -1.45115149 -0.128687173 2.49107003
v -1.26531041 -0.0200376734 2.49104333
v -1.32775342 -0.128662616 2.49105859
v -1.45448601 0.0879045501 2.49105
v -0.519828975 -0.0190365538 1.84589887
v -0.389477432 -0.0189798102 2.48392415
v -0.332058609 0.0829846561 2.48390794
v -0.396052063 0.193451732 1.84587789
v -0.212489307 0.0830145851 2.48389649
v -0.1488778 0.193458527 1.84583879
v -0.332058609 0.0829846561 2.48390794
v -0.396052063 0.193451732 1.84587789
v -0.212409198 -0.121479057 2.48391747
v -0.0256940685 -0.0189216435 1.84585214
v -0.153455913 -0.0189249739 2.48390222
v -0.148665607 -0.232172757 1.84589505
v -0.700830638 -0.225656062 1.97048593
v -0.700829685 -0.225621462 -2.47311902
v -0.581649005 -0.0189764649 1.97044778
v -0.581649005 -0.0189759955 -2.47311902
v -0.981276691 -0.303227335 0.250132978
v -0.65539521 -0.303181678 0.249597967
v -0.981256187 -0.303182751 0.396392524
v -0.650133789 -0.303061634 0.396374643
v -0.976843536 0.261835188 0.249941379
v -1.14494145 -0.020427011 0.249787554
v -0.981980026 0.26166603 0.396065742
v -1.14494145 -0.0204291567 0.396238297
v -0.659807861 0.261834115 0.396048337
v -0.614633262 -0.020428203 0.455676526
v -0.491709888 -0.020428203 0.396202773
v -0.719407737 0.156790584 0.455673933
v -1.5723809 -0.324613243 0.621108472
v -1.61654866 -0.0155987889 0.682273388
v -1.75126898 -0.0155991614 0.62094903
v -1.50204217 -0.206559926 0.682275951
v -0.650133789 -0.303061634 0.396374643
v -0.916895092 -0.195161611 0.455679119
v -0.981256187 -0.303182751 0.396392524
v -0.713377655 -0.195082307 0.455679119
v -0.435668677 -0.312164456 0.594831169
v -0.477368057 -0.0204202086 0.652684689
v -0.60455817 -0.0204205662 0.594680786
v -0.369260967 -0.200708747 0.652687013
v -0.60455817 -0.0204184279 0.451765746
v -0.37584275 -0.200625896 0.393725574
v -0.435690612 -0.31221047 0.45210284
v -0.477726638 -0.0204185471 0.393727988
v -0.0986997485 0.270645082 0.451899558
v -0.369620979 0.162435144 0.393730164
v -0.431115806 0.270818532 0.451916248
v -0.159632862 0.162345737 0.393729925
v -0.396052063 0.193451732 1.84587789
v -0.519780338 -0.0188993439 -2.47841573
v -0.519828975 -0.0190365538 1.84589887
v -0.396051586 0.193505853 -2.47841573
v -1.52191222 -0.245943576 1.84034228
v -1.52191007 -0.245873958 -2.47875452
v -1.26023638 -0.245909005 1.84033322
v -1.26023567 -0.245871216 -2.47875452
v -0.212489307 0.0830145851 2.48389649
v -0.389477432 -0.0189798102 2.48392415
v -0.32891053 -0.121502303 2.48392892
v -0.153455913 -0.0189249739 2.48390222
v -0.212409198 -0.121479057 2.48391747
v -0.332058609 0.0829846561 2.48390794
v -0.32891053 -0.121502303 2.48392892
v -0.519828975 -0.0190365538 1.84589887
v -0.395716846 -0.232205391 1.84590364
v -0.389477432 -0.0189798102 2.48392415
v -1.06055653 -0.0190878138 1.97048974
v -0.934221923 -0.0190327391 2.55390573
v -0.878572643 0.079789497 2.55389047
v -0.940593898 0.186852425 1.97047067
v -0.762687862 0.0798184723 2.55388093
v -0.701037109 0.186859101 1.97043538
v -0.878572643 0.079789497 2.55389047
v -0.940593898 0.186852425 1.97047067
v -1.26531041 -0.0200376734 2.49104333
v -1.12998497 -0.0200342089 1.84028935
v -1.32783782 0.0879362673 2.49103856
v -1.2604624 0.204918116 1.84027648
v -0.1488778 0.193458527 1.84583879
v -0.396051586 0.193505853 -2.47841573
v -0.396052063 0.193451732 1.84587789
v -0.1488778 0.193459004 -2.47841573
v -0.0256940685 -0.0189216435 1.84585214
v -0.0256940685 -0.0189212784 -2.47841573
v -0.1488778 0.193458527 1.84583879
v -0.1488778 0.193459004 -2.47841573
v 0.069443047 -0.0204194933 0.594646215
v -0.0986997485 0.270645082 0.451899558
v -0.103999794 0.270817488 0.594496012
v 0.069443047 -0.0204195008 0.451731175
v -1.14494145 -0.020427011 0.249787554
v -0.981276691 -0.303227335 0.250132978
v -1.14494145 -0.0204291567 0.396238297
v -0.981256187 -0.303182751 0.396392524
v -0.659807861 0.261834115 0.396048337
v -0.976843536 0.261835188 0.249941379
v -0.981980026 0.26166603 0.396065742
v -0.659807861 0.261834115 0.249750167
v -1.22107852 0.292879075 0.620753586
v -1.1717087 -0.0155982003 0.682273149
v -1.03736889 -0.0155980811 0.62091279
v -1.28621352 0.178079695 0.682270765
v -0.103999794 0.270817488 0.594496012
v -0.0573889613 -0.02041962 0.652684212
v 0.069443047 -0.0204194933 0.594646215
v -0.165494621 0.162433952 0.652681828
v -1.14494145 -0.0204291567 0.396238297
v -0.922924697 0.156703919 0.45567441
v -0.981980026 0.26166603 0.396065742
v -1.02167046 -0.0204287991 0.455676526
v -1.75126898 -0.015596889 0.469854087
v -1.50901377 -0.20647195 0.408491313
v -1.57813132 -0.324479699 0.469676197
v -1.6169287 -0.0155970007 0.408493251
v -1.21546566 0.292696446 0.469994813
v -1.50242388 0.178080767 0.408496141
v -1.56755888 0.292880177 0.470012933
v -1.2800051 0.177986234 0.408495903
v -0.659807861 0.261834115 0.396048337
v -0.491709888 -0.020428203 0.396202773
v -0.491709888 -0.020428203 0.249752268
v -0.659807861 0.261834115 0.249750167
v 0.069443047 -0.0204194933 0.594646215
v -0.0940181538 -0.312039524 0.594814003
v -0.0940114781 -0.312062532 0.45191735
v 0.069443047 -0.0204195008 0.451731175
v -0.435690612 -0.31221047 0.45210284
v -0.0940181538 -0.312039524 0.594814003
v -0.435668677 -0.312164456 0.594831169
v -0.0940114781 -0.312062532 0.45191735
v -0.0940181538 -0.312039524 0.594814003
v -0.369260967 -0.200708747 0.652687013
v -0.435668677 -0.312164456 0.594831169
v -0.15927285 -0.200626969 0.652686536
v -0.491709888 -0.020428203 0.396202773
v -0.713377655 -0.195082307 0.455679119
v -0.650133789 -0.303061634 0.396374643
v -0.614633262 -0.020428203 0.455676526
v -1.21050656 -0.324480802 0.621090114
v -1.50204217 -0.206559926 0.682275951
v -1.5723809 -0.324613243 0.621108472
v -1.27962363 -0.206473142 0.682275474
v -1.03736889 -0.0155980811 0.469817132
v -1.2800051 0.177986234 0.408495903
v -1.21546566 0.292696446 0.469994813
v -1.17208922 -0.0155977234 0.408493251
v -1.57813132 -0.324479699 0.469676197
v -1.28659546 -0.206558734 0.408490598
v -1.21625698 -0.324612141 0.469658077
v -1.50901377 -0.20647195 0.408491313
v -0.650133789 -0.303061634 0.396374643
v -0.491709888 -0.020428203 0.249752268
v -0.491709888 -0.020428203 0.396202773
v -0.65539521 -0.303181678 0.249597967
v -0.431115806 0.270818532 0.451916248
v -0.60455817 -0.0204184279 0.451765746
v -0.436415374 0.270644128 0.594512463
v -0.60455817 -0.0204205662 0.594680786
v -1.03736889 -0.0155980811 0.62091279
v -1.27962363 -0.206473142 0.682275474
v -1.21050656 -0.324480802 0.621090114
v -1.1717087 -0.0155982003 0.682273149
v -0.981256187 -0.303182751 0.396392524
v -1.02167046 -0.0204287991 0.455676526
v -1.14494145 -0.0204291567 0.396238297
v -0.916895092 -0.195161611 0.455679119
v -0.60455817 -0.0204205662 0.594680786
v -0.375482738 0.162344664 0.652682304
v -0.436415374 0.270644128 0.594512463
v -0.477368057 -0.0204202086 0.652684689
v 0.069443047 -0.0204195008 0.451731175
v -0.159632862 0.162345737 0.393729925
v -0.0986997485 0.270645082 0.451899558
v -0.0577475429 -0.0204191506 0.393727511
v -0.435690612 -0.31221047 0.45210284
v -0.165854156 -0.200707704 0.393725097
v -0.0940114781 -0.312062532 0.45191735
v -0.37584275 -0.200625896 0.393725574
v -0.431115806 0.270818532 0.451916248
v -0.477726638 -0.0204185471 0.393727988
v -0.60455817 -0.0204184279 0.451765746
v -0.369620979 0.162435144 0.393730164
v -0.65539521 -0.303181678 0.249597967
v -0.614980876 -0.0204277188 0.190312847
v -0.491709888 -0.020428203 0.249752268
v -0.719756305 -0.195160657 0.190310672
v -0.0940114781 -0.312062532 0.45191735
v -0.0577475429 -0.0204191506 0.393727511
v 0.069443047 -0.0204195008 0.451731175
v -0.165854156 -0.200707704 0.393725097
v -0.976843536 0.261835188 0.249941379
v -1.02201807 -0.0204271302 0.190313563
v -1.14494145 -0.020427011 0.249787554
v -0.917244136 0.156791657 0.190315977
v -0.436415374 0.270644128 0.594512463
v -0.165494621 0.162433952 0.652681828
v -0.103999794 0.270817488 0.594496012
v -0.375482738 0.162344664 0.652682304
v -0.981276691 -0.303227335 0.250132978
v -0.719756305 -0.195160657 0.190310672
v -0.65539521 -0.303181678 0.249597967
v -0.923273742 -0.195081264 0.19031091
v -0.981980026 0.26166603 0.396065742
v -0.719407737 0.156790584 0.455673933
v -0.659807861 0.261834115 0.396048337
v -0.922924697 0.156703919 0.45567441
v -1.65337098 -0.0201558098 1.84033751
v -1.52191007 -0.245873958 -2.47875452
v -1.52191222 -0.245943576 1.84034228
v -1.65331995 -0.0200104937 -2.47875452
v -0.395716846 -0.232205391 1.84590364
v -0.395714939 -0.232139587 -2.47841573
v -0.148665607 -0.232172757 1.84589505
v -0.148664653 -0.232137114 -2.47841573
v -1.26023638 -0.245909005 1.84033322
v -1.32775342 -0.128662616 2.49105859
v -1.45115149 -0.128687173 2.49107003
v -1.52191222 -0.245943576 1.84034228
v -0.875521839 -0.118395947 2.55391049
v -1.06055653 -0.0190878138 1.97048974
v -0.940269172 -0.225687653 1.97049356
v -0.934221923 -0.0190327391 2.55390573
v -1.65337098 -0.0201558098 1.84033751
v -1.51530373 -0.0200957283 2.49106526
v -1.45448601 0.0879045501 2.49105
v -1.52226722 0.204910845 1.8403151
v -0.153455913 -0.0189249739 2.48390222
v -0.0256940685 -0.0189216435 1.84585214
v -0.212489307 0.0830145851 2.48389649
v -0.1488778 0.193458527 1.84583879
v -0.581649005 -0.0189764649 1.97044778
v -0.581649005 -0.0189759955 -2.47311902
v -0.701037109 0.186859101 1.97043538
v -0.701037109 0.186859459 -2.47311902
v -0.148665607 -0.232172757 1.84589505
v -0.148664653 -0.232137114 -2.47841573
v -0.0256940685 -0.0189216435 1.84585214
v -0.0256940685 -0.0189212784 -2.47841573
v -0.60455817 -0.0204184279 0.451765746
v -0.435690612 -0.31221047 0.45210284
v -0.60455817 -0.0204205662 0.594680786
v -0.435668677 -0.312164456 0.594831169
v 0.069443047 -0.0204194933 0.594646215
v -0.15927285 -0.200626969 0.652686536
v -0.0940181538 -0.312039524 0.594814003
v -0.0573889613 -0.02041962 0.652684212
v -1.56755888 0.292880177 0.470012933
v -1.6169287 -0.0155970007 0.408493251
v -1.75126898 -0.015596889 0.469854087
v -1.50242388 0.178080767 0.408496141
v -1.03736889 -0.0155980811 0.62091279
v -1.21546566 0.292696446 0.469994813
v -1.22107852 0.292879075 0.620753586
v -1.03736889 -0.0155980811 0.469817132
v -0.103999794 0.270817488 0.594496012
v -0.431115806 0.270818532 0.451916248
v -0.436415374 0.270644128 0.594512463
v -0.0986997485 0.270645082 0.451899558
v -1.57813132 -0.324479699 0.469676197
v -1.21625698 -0.324612141 0.469658077
v -1.5723809 -0.324613243 0.621108472
v -1.21050656 -0.324480802 0.621090114
v -1.75126898 -0.015596889 0.469854087
v -1.57813132 -0.324479699 0.469676197
v -1.75126898 -0.0155991614 0.62094903
v -1.5723809 -0.324613243 0.621108472
v -1.75126898 -0.0155991614 0.62094903
v -1.50863254 0.177985042 0.682271004
v -1.57317197 0.292695493 0.620771468
v -1.61654866 -0.0155987889 0.682273388
v -0.491709888 -0.020428203 0.249752268
v -0.713726223 0.156704992 0.1903155
v -0.659807861 0.261834115 0.249750167
v -0.614980876 -0.0204277188 0.190312847
v -0.659807861 0.261834115 0.249750167
v -0.917244136 0.156791657 0.190315977
v -0.976843536 0.261835188 0.249941379
v -0.713726223 0.156704992 0.1903155
v -1.14494145 -0.020427011 0.249787554
v -0.923273742 -0.195081264 0.19031091
v -0.981276691 -0.303227335 0.250132978
v -1.02201807 -0.0204271302 0.190313563
v -1.06055653 -0.0190878138 1.97048974
v -0.940266788 -0.225623995 -2.47311902
v -0.940269172 -0.225687653 1.97049356
v -1.06050932 -0.0189547762 -2.47311902
v -1.21625698 -0.324612141 0.469658077
v -1.17208922 -0.0155977234 0.408493251
v -1.03736889 -0.0155980811 0.469817132
v -1.28659546 -0.206558734 0.408490598
v -1.21050656 -0.324480802 0.621090114
v -1.03736889 -0.0155980811 0.469817132
v -1.03736889 -0.0155980811 0.62091279
v -1.21625698 -0.324612141 0.469658077
v -1.22107852 0.292879075 0.620753586
v -1.56755888 0.292880177 0.470012933
v -1.57317197 0.292695493 0.620771468
v -1.21546566 0.292696446 0.469994813
v -1.57317197 0.292695493 0.620771468
v -1.28621352 0.178079695 0.682270765
v -1.22107852 0.292879075 0.620753586
v -1.50863254 0.177985042 0.682271004
v -1.52226722 0.204910845 1.8403151
v -1.65331995 -0.0200104937 -2.47875452
v -1.65337098 -0.0201558098 1.84033751
v -1.52226675 0.204968303 -2.47875452
v -0.700830638 -0.225656062 1.97048593
v -0.762610137 -0.118373416 2.5539
v -0.875521839 -0.118395947 2.55391049
v -0.940269172 -0.225687653 1.97049356
v -1.45115149 -0.128687173 2.49107003
v -1.65337098 -0.0201558098 1.84033751
v -1.52191222 -0.245943576 1.84034228
v -1.51530373 -0.0200957283 2.49106526
v -0.705473602 -0.0189795718 2.55388474
v -0.581649005 -0.0189764649 1.97044778
v -0.762687862 0.0798184723 2.55388093
v -0.701037109 0.186859101 1.97043538
v -0.762610137 -0.118373416 2.5539
v -0.581649005 -0.0189764649 1.97044778
v -0.705473602 -0.0189795718 2.55388474
v -0.700830638 -0.225656062 1.97048593
v -0.701037109 0.186859101 1.97043538
v -0.940592945 0.186904997 -2.47311902
v -0.940593898 0.186852425 1.97047067
v -0.701037109 0.186859459 -2.47311902
v -1.26023638 -0.245909005 1.84033322
v -1.26023567 -0.245871216 -2.47875452
v -1.12998497 -0.0200342089 1.84028935
v -1.12998497 -0.0200337395 -2.47875452
v -0.519828975 -0.0190365538 1.84589887
v -0.395714939 -0.232139587 -2.47841573
v -0.395716846 -0.232205391 1.84590364
v -0.519780338 -0.0188993439 -2.47841573
v -1.32783782 0.0879362673 2.49103856
v -1.2604624 0.204918116 1.84027648
v -1.45448601 0.0879045501 2.49105
v -1.52226722 0.204910845 1.8403151
v -1.32775342 -0.128662616 2.49105859
v -1.12998497 -0.0200342089 1.84028935
v -1.26531041 -0.0200376734 2.49104333
v -1.26023638 -0.245909005 1.84033322
v -1.56755888 0.292880177 0.470012933
v -1.75126898 -0.015596889 0.469854087
v -1.57317197 0.292695493 0.620771468
v -1.75126898 -0.0155991614 0.62094903
v 0.423928052 -0.303061634 0.384571493
v 0.157166779 -0.19516173 0.443875968
v 0.0928056911 -0.303182751 0.384589374
v 0.360684216 -0.195082426 0.443875968
v -0.762687862 0.0798184723 2.55388093
v -0.934221923 -0.0190327391 2.55390573
v -0.875521839 -0.118395947 2.55391049
v -0.705473602 -0.0189795718 2.55388474
v -0.762610137 -0.118373416 2.5539
v -0.878572643 0.079789497 2.55389047
v 0.414253533 0.261833996 0.384245187
v 0.582351983 -0.020428203 0.384399384
v 0.582351983 -0.0204281956 0.237949118
v 0.414253533 0.261833996 0.237947255
v 0.0928056911 -0.303182751 0.384589374
v 0.052391354 -0.0204289183 0.443873376
v -0.0708796382 -0.0204292759 0.384434909
v 0.157166779 -0.19516173 0.443875968
v 0.582351983 -0.020428203 0.384399384
v 0.360684216 -0.195082426 0.443875968
v 0.423928052 -0.303061634 0.384571493
v 0.459428132 -0.0204283297 0.443873376
v 0.414253533 0.261833996 0.384245187
v 0.0972178578 0.261835068 0.238138229
v 0.0920818448 0.26166603 0.384262592
v 0.414253533 0.261833996 0.237947255
v 0.0972178578 0.261835068 0.238138229
v 0.0520437397 -0.0204272494 0.178510413
v -0.0708796382 -0.0204271227 0.237984166
v 0.156817734 0.156791538 0.178512827
v 0.0920818448 0.26166603 0.384262592
v 0.354654133 0.156790465 0.443870783
v 0.414253533 0.261833996 0.384245187
v 0.151137173 0.156703919 0.44387126
v -0.0708796382 -0.0204292759 0.384434909
v 0.151137173 0.156703919 0.44387126
v 0.0920818448 0.26166603 0.384262592
v 0.052391354 -0.0204289183 0.443873376
v 0.423928052 -0.303061634 0.384571493
v 0.582351983 -0.0204281956 0.237949118
v 0.582351983 -0.020428203 0.384399384
v 0.418666631 -0.303181797 0.237794578
v -0.0708796382 -0.0204271227 0.237984166
v 0.0927851871 -0.303227454 0.238329589
v -0.0708796382 -0.0204292759 0.384434909
v 0.0928056911 -0.303182751 0.384589374
v 0.133467495 0.186852306 1.95866704
v 0.0135524897 -0.0189548954 -2.47738814
v 0.0135052828 -0.0190878138 1.95868707
v 0.133468926 0.186904877 -2.47738814
v 0.133792698 -0.225687802 1.95869088
v 0.133795083 -0.225624114 -2.47738814
v 0.373231232 -0.225656092 1.95868325
v 0.373231709 -0.225621492 -2.47738814
v 0.0972178578 0.261835068 0.238138229
v -0.0708796382 -0.0204271227 0.237984166
v 0.0920818448 0.26166603 0.384262592
v -0.0708796382 -0.0204292759 0.384434909
v 0.414253533 0.261833996 0.384245187
v 0.459428132 -0.0204283297 0.443873376
v 0.582351983 -0.020428203 0.384399384
v 0.354654133 0.156790465 0.443870783
v 0.311374009 0.0798184723 2.54207826
v 0.373024285 0.186858982 1.95863175
v 0.195489228 0.0797893777 2.54208779
v 0.133467495 0.186852306 1.95866704
v 0.0927851871 -0.303227454 0.238329589
v 0.418666631 -0.303181797 0.237794578
v 0.0928056911 -0.303182751 0.384589374
v 0.423928052 -0.303061634 0.384571493
v 0.373231232 -0.225656092 1.95868325
v 0.373231709 -0.225621492 -2.47738814
v 0.492412865 -0.0189765915 1.95864415
v 0.492412865 -0.0189761147 -2.47738814
v 0.0135052828 -0.0190878138 1.95868707
v 0.139839947 -0.0190328658 2.54210305
v 0.195489228 0.0797893777 2.54208779
v 0.133467495 0.186852306 1.95866704
v 0.418666631 -0.303181797 0.237794578
v 0.459080517 -0.0204278454 0.178509697
v 0.582351983 -0.0204281956 0.237949118
v 0.354305089 -0.195160627 0.178507522
v 0.0927851871 -0.303227454 0.238329589
v 0.354305089 -0.195160627 0.178507522
v 0.418666631 -0.303181797 0.237794578
v 0.150788128 -0.195081383 0.17850776
v 0.198540032 -0.118396066 2.54210687
v 0.0135052828 -0.0190878138 1.95868707
v 0.133792698 -0.225687802 1.95869088
v 0.139839947 -0.0190328658 2.54210305
v 0.492412865 -0.0189765915 1.95864415
v 0.492412865 -0.0189761147 -2.47738814
v 0.373024285 0.186858982 1.95863175
v 0.373024285 0.186859339 -2.47738814
v 0.582351983 -0.0204281956 0.237949118
v 0.360335171 0.156704992 0.17851235
v 0.414253533 0.261833996 0.237947255
v 0.459080517 -0.0204278454 0.178509697
v 0.414253533 0.261833996 0.237947255
v 0.156817734 0.156791538 0.178512827
v 0.0972178578 0.261835068 0.238138229
v 0.360335171 0.156704992 0.17851235
v -0.0708796382 -0.0204271227 0.237984166
v 0.150788128 -0.195081383 0.17850776
v 0.0927851871 -0.303227454 0.238329589
v 0.0520437397 -0.0204272494 0.178510413
v 0.0135052828 -0.0190878138 1.95868707
v 0.133795083 -0.225624114 -2.47738814
v 0.133792698 -0.225687802 1.95869088
v 0.0135524897 -0.0189548954 -2.47738814
v 0.373231232 -0.225656092 1.95868325
v 0.311451733 -0.118373536 2.54209638
v 0.198540032 -0.118396066 2.54210687
v 0.133792698 -0.225687802 1.95869088
v 0.368587792 -0.018979691 2.54208207
v 0.492412865 -0.0189765915 1.95864415
v 0.311374009 0.0798184723 2.54207826
v 0.373024285 0.186858982 1.95863175
v 0.311451733 -0.118373536 2.54209638
v 0.492412865 -0.0189765915 1.95864415
v 0.368587792 -0.018979691 2.54208207
v 0.373231232 -0.225656092 1.95868325
v 0.373024285 0.186858982 1.95863175
v 0.133468926 0.186904877 -2.47738814
v 0.133467495 0.186852306 1.95866704
v 0.373024285 0.186859339 -2.47738814
v 0.311374009 0.0798184723 2.54207826
v 0.139839947 -0.0190328658 2.54210305
v 0.198540032 -0.118396066 2.54210687
v 0.368587792 -0.018979691 2.54208207
v 0.311451733 -0.118373536 2.54209638
v 0.195489228 0.0797893777 2.54208779
v 1.07851446 -0.0200343356 1.84028935
v 1.07851446 -0.0200338587 -2.47875452
v 0.948036969 0.204917997 1.84027648
v 0.948036969 0.204918474 -2.47875452
v 1.26790559 0.186852336 1.97047067
v 1.14799011 -0.0189548954 -2.47311902
v 1.1479429 -0.0190878138 1.97048974
v 1.26790655 0.186904877 -2.47311902
v 0.948036969 0.204917997 1.84027648
v 0.686232388 0.204968184 -2.47875452
v 0.686232388 0.204910725 1.8403151
v 0.948036969 0.204918474 -2.47875452
v 1.26823032 -0.225687772 1.97049356
v 1.2682327 -0.225624114 -2.47311902
v 1.50766885 -0.225656062 1.97048593
v 1.50766981 -0.225621492 -2.47311902
v 0.880661786 0.087936148 2.49103856
v 0.693195641 -0.020095855 2.49106526
v 0.757347882 -0.128687292 2.49107003
v 0.943188965 -0.0200376734 2.49104333
v 0.880745709 -0.128662616 2.49105859
v 0.75401336 0.0879045501 2.49105
v 1.50766885 -0.225656062 1.97048593
v 1.50766981 -0.225621492 -2.47311902
v 1.62685096 -0.0189765841 1.97044778
v 1.62685096 -0.0189761072 -2.47311902
v 1.2272228 -0.303227454 0.250132978
v 1.55310428 -0.303181797 0.249597967
v 1.2272433 -0.30318287 0.396392524
v 1.5583657 -0.303061754 0.396374643
v 1.23165596 0.261835068 0.249941379
v 1.06355798 -0.0204271302 0.249787554
v 1.22651947 0.26166591 0.396065742
v 1.06355798 -0.0204292759 0.396238297
v 1.54869163 0.261834115 0.396048337
v 1.59386623 -0.0204283223 0.455676526
v 1.7167896 -0.0204283223 0.396202773
v 1.48909175 0.156790465 0.455673933
v 0.63611871 -0.324613363 0.621108472
v 0.591950715 -0.0155989155 0.682273388
v 0.457230389 -0.0155992806 0.62094903
v 0.706456959 -0.206559956 0.682275951
v 1.5583657 -0.303061754 0.396374643
v 1.2916044 -0.19516173 0.455679119
v 1.2272433 -0.30318287 0.396392524
v 1.49512184 -0.195082456 0.455679119
v 0.686587155 -0.245943695 1.84034228
v 0.686589062 -0.245873928 -2.47875452
v 0.94826299 -0.245908976 1.84033322
v 0.948263943 -0.245871305 -2.47875452
v 1.1479429 -0.0190878138 1.97048974
v 1.27427757 -0.0190328509 2.55390573
v 1.32992685 0.0797893852 2.55389047
v 1.26790559 0.186852336 1.97047067
v 1.44581211 0.0798184574 2.55388093
v 1.50746238 0.186858982 1.97043538
v 1.32992685 0.0797893852 2.55389047
v 1.26790559 0.186852336 1.97047067
v 0.943188965 -0.0200376734 2.49104333
v 1.07851446 -0.0200343356 1.84028935
v 0.880661786 0.087936148 2.49103856
v 0.948036969 0.204917997 1.84027648
v 1.06355798 -0.0204271302 0.249787554
v 1.2272228 -0.303227454 0.250132978
v 1.06355798 -0.0204292759 0.396238297
v 1.2272433 -0.30318287 0.396392524
v 1.54869163 0.261834115 0.396048337
v 1.23165596 0.261835068 0.249941379
v 1.22651947 0.26166591 0.396065742
v 1.54869163 0.261834115 0.249750167
v 0.987420857 0.292878926 0.620753586
v 1.03679073 -0.0155983195 0.682273149
v 1.17113006 -0.0155982077 0.62091279
v 0.922285855 0.178079575 0.682270765
v 1.06355798 -0.0204292759 0.396238297
v 1.28557479 0.156703934 0.45567441
v 1.22651947 0.26166591 0.396065742
v 1.18682897 -0.0204289183 0.455676526
v 0.457230389 -0.0155970082 0.469854087
v 0.6994856 -0.206472069 0.408491313
v 0.630368054 -0.324479818 0.469676197
v 0.591570675 -0.0155971274 0.408493251
v 0.993033707 0.292696446 0.469994813
v 0.70607549 0.178080767 0.408496141
v 0.640940487 0.292880028 0.470012933
v 0.928494275 0.177986115 0.408495903
v 1.54869163 0.261834115 0.396048337
v 1.7167896 -0.0204283223 0.396202773
v 1.7167896 -0.020428203 0.249752268
v 1.54869163 0.261834115 0.249750167
v 1.7167896 -0.0204283223 0.396202773
v 1.49512184 -0.195082456 0.455679119
v 1.5583657 -0.303061754 0.396374643
v 1.59386623 -0.0204283223 0.455676526
v 0.997992814 -0.324480921 0.621090114
v 0.706456959 -0.206559956 0.682275951
v 0.63611871 -0.324613363 0.621108472
v 0.928875744 -0.206473261 0.682275474
v 1.17113006 -0.0155982003 0.469817132
v 0.928494275 0.177986115 0.408495903
v 0.993033707 0.292696446 0.469994813
v 1.03641021 -0.0155977234 0.408493251
v 0.630368054 -0.324479818 0.469676197
v 0.921903908 -0.206558824 0.408490598
v 0.992242634 -0.32461226 0.469658077
v 0.6994856 -0.206472069 0.408491313
v 1.5583657 -0.303061754 0.396374643
v 1.7167896 -0.020428203 0.249752268
v 1.7167896 -0.0204283223 0.396202773
v 1.55310428 -0.303181797 0.249597967
v 1.17113006 -0.0155982077 0.62091279
v 0.928875744 -0.206473261 0.682275474
v 0.997992814 -0.324480921 0.621090114
v 1.03679073 -0.0155983195 0.682273149
v 1.2272433 -0.30318287 0.396392524
v 1.18682897 -0.0204289183 0.455676526
v 1.06355798 -0.0204292759 0.396238297
v 1.2916044 -0.19516173 0.455679119
v 1.55310428 -0.303181797 0.249597967
v 1.59351861 -0.020427838 0.190312847
v 1.7167896 -0.020428203 0.249752268
v 1.48874319 -0.195160657 0.190310672
v 1.23165596 0.261835068 0.249941379
v 1.18648136 -0.0204272494 0.190313563
v 1.06355798 -0.0204271302 0.249787554
v 1.29125535 0.156791553 0.190315977
v 1.2272228 -0.303227454 0.250132978
v 1.48874319 -0.195160657 0.190310672
v 1.55310428 -0.303181797 0.249597967
v 1.28522575 -0.195081383 0.19031091
v 1.22651947 0.26166591 0.396065742
v 1.48909175 0.156790465 0.455673933
v 1.54869163 0.261834115 0.396048337
v 1.28557479 0.156703934 0.45567441
v 0.555128396 -0.0201559216 1.84033751
v 0.686589062 -0.245873928 -2.47875452
v 0.686587155 -0.245943695 1.84034228
v 0.555179417 -0.0200106129 -2.47875452
v 0.94826299 -0.245908976 1.84033322
v 0.880745709 -0.128662616 2.49105859
v 0.757347882 -0.128687292 2.49107003
v 0.686587155 -0.245943695 1.84034228
v 1.33297813 -0.118396066 2.55391049
v 1.1479429 -0.0190878138 1.97048974
v 1.26823032 -0.225687772 1.97049356
v 1.27427757 -0.0190328509 2.55390573
v 0.555128396 -0.0201559216 1.84033751
v 0.693195641 -0.020095855 2.49106526
v 0.75401336 0.0879045501 2.49105
v 0.686232388 0.204910725 1.8403151
v 1.62685096 -0.0189765841 1.97044778
v 1.62685096 -0.0189761072 -2.47311902
v 1.50746238 0.186858982 1.97043538
v 1.50746238 0.186859339 -2.47311902
v 0.640940487 0.292880028 0.470012933
v 0.591570675 -0.0155971274 0.408493251
v 0.457230389 -0.0155970082 0.469854087
v 0.70607549 0.178080767 0.408496141
v 1.17113006 -0.0155982077 0.62091279
v 0.993033707 0.292696446 0.469994813
v 0.987420857 0.292878926 0.620753586
v 1.17113006 -0.0155982003 0.469817132
v 0.630368054 -0.324479818 0.469676197
v 0.992242634 -0.32461226 0.469658077
v 0.63611871 -0.324613363 0.621108472
v 0.997992814 -0.324480921 0.621090114
v 0.457230389 -0.0155970082 0.469854087
v 0.630368054 -0.324479818 0.469676197
v 0.457230389 -0.0155992806 0.62094903
v 0.63611871 -0.324613363 0.621108472
v 0.457230389 -0.0155992806 0.62094903
v 0.69986707 0.177984923 0.682271004
v 0.63532716 0.292695373 0.620771468
v 0.591950715 -0.0155989155 0.682273388
v 1.7167896 -0.020428203 0.249752268
v 1.49477279 0.156704992 0.1903155
v 1.54869163 0.261834115 0.249750167
v 1.59351861 -0.020427838 0.190312847
v 1.54869163 0.261834115 0.249750167
v 1.29125535 0.156791553 0.190315977
v 1.23165596 0.261835068 0.249941379
v 1.49477279 0.156704992 0.1903155
v 1.06355798 -0.0204271302 0.249787554
v 1.28522575 -0.195081383 0.19031091
v 1.2272228 -0.303227454 0.250132978
v 1.18648136 -0.0204272494 0.190313563
v 1.1479429 -0.0190878138 1.97048974
v 1.2682327 -0.225624114 -2.47311902
v 1.26823032 -0.225687772 1.97049356
v 1.14799011 -0.0189548954 -2.47311902
v 0.992242634 -0.32461226 0.469658077
v 1.03641021 -0.0155977234 0.408493251
v 1.17113006 -0.0155982003 0.469817132
v 0.921903908 -0.206558824 0.408490598
v 0.997992814 -0.324480921 0.621090114
v 1.17113006 -0.0155982003 0.469817132
v 1.17113006 -0.0155982077 0.62091279
v 0.992242634 -0.32461226 0.469658077
v 0.987420857 0.292878926 0.620753586
v 0.640940487 0.292880028 0.470012933
v 0.63532716 0.292695373 0.620771468
v 0.993033707 0.292696446 0.469994813
v 0.63532716 0.292695373 0.620771468
v 0.922285855 0.178079575 0.682270765
v 0.987420857 0.292878926 0.620753586
v 0.69986707 0.177984923 0.682271004
v 0.686232388 0.204910725 1.8403151
v 0.555179417 -0.0200106129 -2.47875452
v 0.555128396 -0.0201559216 1.84033751
v 0.686232388 0.204968184 -2.47875452
v 1.50766885 -0.225656062 1.97048593
v 1.44588935 -0.118373536 2.5539
v 1.33297813 -0.118396066 2.55391049
v 1.26823032 -0.225687772 1.97049356
v 0.757347882 -0.128687292 2.49107003
v 0.555128396 -0.0201559216 1.84033751
v 0.686587155 -0.245943695 1.84034228
v 0.693195641 -0.020095855 2.49106526
v 1.50302589 -0.018979691 2.55388474
v 1.62685096 -0.0189765841 1.97044778
v 1.44581211 0.0798184574 2.55388093
v 1.50746238 0.186858982 1.97043538
v 1.44588935 -0.118373536 2.5539
v 1.62685096 -0.0189765841 1.97044778
v 1.50302589 -0.018979691 2.55388474
v 1.50766885 -0.225656062 1.97048593
v 1.50746238 0.186858982 1.97043538
v 1.26790655 0.186904877 -2.47311902
v 1.26790559 0.186852336 1.97047067
v 1.50746238 0.186859339 -2.47311902
v 0.94826299 -0.245908976 1.84033322
v 0.948263943 -0.245871305 -2.47875452
v 1.07851446 -0.0200343356 1.84028935
v 1.07851446 -0.0200338587 -2.47875452
v 0.880661786 0.087936148 2.49103856
v 0.948036969 0.204917997 1.84027648
v 0.75401336 0.0879045501 2.49105
v 0.686232388 0.204910725 1.8403151
v 0.880745709 -0.128662616 2.49105859
v 1.07851446 -0.0200343356 1.84028935
v 0.943188965 -0.0200376734 2.49104333
v 0.94826299 -0.245908976 1.84033322
v 0.640940487 0.292880028 0.470012933
v 0.457230389 -0.0155970082 0.469854087
v 0.63532716 0.292695373 0.620771468
v 0.457230389 -0.0155992806 0.62094903
v 1.44581211 0.0798184574 2.55388093
v 1.27427757 -0.0190328509 2.55390573
v 1.33297813 -0.118396066 2.55391049
v 1.50302589 -0.018979691 2.55388474
v 1.44588935 -0.118373536 2.5539
v 1.32992685 0.0797893852 2.55389047
vt 0.68974793 0.462836802
vt 0.68974793 0.248046994
vt 0.705319822 0.462836802
vt 0.705319822 0.248046994
vt 0.620066106 0.964789808
vt 0.635643303 0.75
vt 0.635643303 0.964789808
vt 0.620066106 0.75
vt 0.705319822 0.462836802
vt 0.72101444 0.248046994
vt 0.72101444 0.462836802
vt 0.705319822 0.248046994
vt 0.55755192 0.964789808
vt 0.55755192 0.75
vt 0.573183894 0.964789808
vt 0.573183894 0.75
vt 0.231229007 0.465508103
vt 0.231229007 0.50095588
vt 0.215597034 0.50095588
vt 0.215597034 0.465508103
vt 0.371590316 0.00463813543
vt 0.418906569 0.031283617
vt 0.403492987 0.0584914088
vt 0.356406569 0.0317518115
vt 0.371417999 0.0584914088
vt 0.403498024 0.00463813543
vt 0.293688416 0.465508103
vt 0.293688416 0.50095588
vt 0.278111219 0.50095588
vt 0.278111219 0.465508103
vt 0.262416631 0.50095588
vt 0.262416631 0.465508103
vt 0.278111219 0.50095588
vt 0.278111219 0.465508103
vt 0.231229007 0.50095588
vt 0.246844709 0.465508103
vt 0.246844709 0.50095588
vt 0.231229007 0.465508103
vt 0.573183894 0.964789808
vt 0.573183894 0.75
vt 0.588799596 0.964789808
vt 0.588799596 0.75
vt 0.413186133 0.373155475
vt 0.413186133 0.415012598
vt 0.405626863 0.373155475
vt 0.405626863 0.415012598
vt 0.413186133 0.289672315
vt 0.413186133 0.331347227
vt 0.405626863 0.289672315
vt 0.405626863 0.331347227
vt 0.405626863 0.49823302
vt 0.395204663 0.456588984
vt 0.405626863 0.456588984
vt 0.395204663 0.49823302
vt 0.515090048 0.875077546
vt 0.50499773 0.833220422
vt 0.515090048 0.833220422
vt 0.50499773 0.875077546
vt 0.405626863 0.415012598
vt 0.395204663 0.373155475
vt 0.405626863 0.373155475
vt 0.395204663 0.415012598
vt 0.517846584 0.374209106
vt 0.510088623 0.332400858
vt 0.517846584 0.332400858
vt 0.510088623 0.374209106
vt 0.523342013 0.332400858
vt 0.530927002 0.374209106
vt 0.523342013 0.374209106
vt 0.530927002 0.332400858
vt 0.523342013 0.249286652
vt 0.530927002 0.290725946
vt 0.523342013 0.290725946
vt 0.530927002 0.249286652
vt 0.278111219 0.465508103
vt 0.293688416 0.24926877
vt 0.293688416 0.465508103
vt 0.278111219 0.24926877
vt 0.658500195 0.462836802
vt 0.658500195 0.248046994
vt 0.674132228 0.462836802
vt 0.674132228 0.248046994
vt 0.975174785 0.0571367741
vt 0.928088307 0.0302166939
vt 0.943271995 0.00292009115
vt 0.990588307 0.0297453403
vt 0.975179791 0.00292009115
vt 0.943099618 0.0571367741
vt 0.215597034 0.50095588
vt 0.199938416 0.465508103
vt 0.215597034 0.465508103
vt 0.199938416 0.50095588
vt 0.635643303 0.964789808
vt 0.635643303 1
vt 0.620066106 1
vt 0.620066106 0.964789808
vt 0.604371548 1
vt 0.604371548 0.964789808
vt 0.620066106 1
vt 0.620066106 0.964789808
vt 0.68974793 0.498046994
vt 0.68974793 0.462836802
vt 0.705319822 0.498046994
vt 0.705319822 0.462836802
vt 0.262416631 0.465508103
vt 0.278111219 0.24926877
vt 0.278111219 0.465508103
vt 0.262416631 0.24926877
vt 0.246844709 0.465508103
vt 0.246844709 0.24926877
vt 0.262416631 0.465508103
vt 0.262416631 0.24926877
vt 0.517846584 0.457642615
vt 0.523342013 0.499286652
vt 0.517846584 0.499286652
vt 0.523342013 0.457642615
vt 0.413186133 0.331347227
vt 0.413186133 0.373155475
vt 0.405626863 0.331347227
vt 0.405626863 0.373155475
vt 0.405626863 0.24823302
vt 0.413186133 0.289672315
vt 0.405626863 0.289672315
vt 0.413186133 0.24823302
vt 0.515090048 1
vt 0.50499773 0.958560705
vt 0.515090048 0.958560705
vt 0.50499773 1
vt 0.517846584 0.499286652
vt 0.510088623 0.457642615
vt 0.517846584 0.457642615
vt 0.510088623 0.499286652
vt 0.405626863 0.331347227
vt 0.395204663 0.289672315
vt 0.405626863 0.289672315
vt 0.395204663 0.331347227
vt 0.522249937 0.833220422
vt 0.532111645 0.875077546
vt 0.522249937 0.875077546
vt 0.532111645 0.833220422
vt 0.522249937 0.75
vt 0.532111645 0.791644037
vt 0.522249937 0.791644037
vt 0.532111645 0.75
vt 0.405626863 0.49823302
vt 0.405626863 0.456588984
vt 0.413186133 0.456588984
vt 0.413186133 0.49823302
vt 0.517846584 0.457642615
vt 0.517846584 0.416066229
vt 0.523342013 0.416066229
vt 0.523342013 0.457642615
vt 0.523342013 0.374209106
vt 0.517846584 0.416066229
vt 0.517846584 0.374209106
vt 0.523342013 0.416066229
vt 0.517846584 0.416066229
vt 0.510088623 0.374209106
vt 0.517846584 0.374209106
vt 0.510088623 0.416066229
vt 0.405626863 0.456588984
vt 0.395204663 0.415012598
vt 0.405626863 0.415012598
vt 0.395204663 0.456588984
vt 0.515090048 0.916885793
vt 0.50499773 0.875077546
vt 0.515090048 0.875077546
vt 0.50499773 0.916885793
vt 0.522249937 0.958560705
vt 0.532111645 1
vt 0.522249937 1
vt 0.532111645 0.958560705
vt 0.522249937 0.875077546
vt 0.532111645 0.916885793
vt 0.522249937 0.916885793
vt 0.532111645 0.875077546
vt 0.405626863 0.415012598
vt 0.413186133 0.456588984
vt 0.405626863 0.456588984
vt 0.413186133 0.415012598
vt 0.523342013 0.290725946
vt 0.523342013 0.332400858
vt 0.517846584 0.290725946
vt 0.517846584 0.332400858
vt 0.515090048 0.958560705
vt 0.50499773 0.916885793
vt 0.515090048 0.916885793
vt 0.50499773 0.958560705
vt 0.405626863 0.373155475
vt 0.395204663 0.331347227
vt 0.405626863 0.331347227
vt 0.395204663 0.373155475
vt 0.517846584 0.332400858
vt 0.510088623 0.290725946
vt 0.517846584 0.290725946
vt 0.510088623 0.332400858
vt 0.523342013 0.457642615
vt 0.530927002 0.499286652
vt 0.523342013 0.499286652
vt 0.530927002 0.457642615
vt 0.523342013 0.374209106
vt 0.530927002 0.416066229
vt 0.523342013 0.416066229
vt 0.530927002 0.374209106
vt 0.523342013 0.290725946
vt 0.530927002 0.332400858
vt 0.523342013 0.332400858
vt 0.530927002 0.290725946
vt 0.413186133 0.415012598
vt 0.423547626 0.456588984
vt 0.413186133 0.456588984
vt 0.423547626 0.415012598
vt 0.523342013 0.416066229
vt 0.530927002 0.457642615
vt 0.523342013 0.457642615
vt 0.530927002 0.416066229
vt 0.413186133 0.289672315
vt 0.423547626 0.331347227
vt 0.413186133 0.331347227
vt 0.423547626 0.289672315
vt 0.517846584 0.290725946
vt 0.510088623 0.249286652
vt 0.517846584 0.249286652
vt 0.510088623 0.290725946
vt 0.413186133 0.373155475
vt 0.423547626 0.415012598
vt 0.413186133 0.415012598
vt 0.423547626 0.373155475
vt 0.405626863 0.289672315
vt 0.395204663 0.24823302
vt 0.405626863 0.24823302
vt 0.395204663 0.289672315
vt 0.642841578 0.462836802
vt 0.658500195 0.248046994
vt 0.658500195 0.462836802
vt 0.642841578 0.248046994
vt 0.215597034 0.465508103
vt 0.215597034 0.24926877
vt 0.231229007 0.465508103
vt 0.231229007 0.24926877
vt 0.674132228 0.462836802
vt 0.674132228 0.498046994
vt 0.658500195 0.498046994
vt 0.658500195 0.462836802
vt 0.55755192 1
vt 0.541893303 0.964789808
vt 0.55755192 0.964789808
vt 0.541893303 1
vt 0.736591578 0.462836802
vt 0.736591578 0.498046994
vt 0.72101444 0.498046994
vt 0.72101444 0.462836802
vt 0.246844709 0.50095588
vt 0.246844709 0.465508103
vt 0.262416631 0.50095588
vt 0.262416631 0.465508103
vt 0.588799596 0.964789808
vt 0.588799596 0.75
vt 0.604371548 0.964789808
vt 0.604371548 0.75
vt 0.231229007 0.465508103
vt 0.231229007 0.24926877
vt 0.246844709 0.465508103
vt 0.246844709 0.24926877
vt 0.523342013 0.332400858
vt 0.523342013 0.374209106
vt 0.517846584 0.332400858
vt 0.517846584 0.374209106
vt 0.517846584 0.457642615
vt 0.510088623 0.416066229
vt 0.517846584 0.416066229
vt 0.510088623 0.457642615
vt 0.522249937 0.791644037
vt 0.532111645 0.833220422
vt 0.522249937 0.833220422
vt 0.532111645 0.791644037
vt 0.515090048 0.958560705
vt 0.522249937 1
vt 0.515090048 1
vt 0.522249937 0.958560705
vt 0.517846584 0.249286652
vt 0.523342013 0.290725946
vt 0.517846584 0.290725946
vt 0.523342013 0.249286652
vt 0.522249937 0.875077546
vt 0.522249937 0.916885793
vt 0.515090048 0.875077546
vt 0.515090048 0.916885793
vt 0.522249937 0.833220422
vt 0.522249937 0.875077546
vt 0.515090048 0.833220422
vt 0.515090048 0.875077546
vt 0.515090048 0.833220422
vt 0.50499773 0.791644037
vt 0.515090048 0.791644037
vt 0.50499773 0.833220422
vt 0.413186133 0.456588984
vt 0.423547626 0.49823302
vt 0.413186133 0.49823302
vt 0.423547626 0.456588984
vt 0.413186133 0.24823302
vt 0.423547626 0.289672315
vt 0.413186133 0.289672315
vt 0.423547626 0.24823302
vt 0.413186133 0.331347227
vt 0.423547626 0.373155475
vt 0.413186133 0.373155475
vt 0.423547626 0.331347227
vt 0.541893303 0.964789808
vt 0.55755192 0.75
vt 0.55755192 0.964789808
vt 0.541893303 0.75
vt 0.522249937 0.916885793
vt 0.532111645 0.958560705
vt 0.522249937 0.958560705
vt 0.532111645 0.916885793
vt 0.515090048 0.916885793
vt 0.522249937 0.958560705
vt 0.515090048 0.958560705
vt 0.522249937 0.916885793
vt 0.515090048 0.75
vt 0.522249937 0.791644037
vt 0.515090048 0.791644037
vt 0.522249937 0.75
vt 0.515090048 0.791644037
vt 0.50499773 0.75
vt 0.515090048 0.75
vt 0.50499773 0.791644037
vt 0.72101444 0.462836802
vt 0.736591578 0.248046994
vt 0.736591578 0.462836802
vt 0.72101444 0.248046994
vt 0.573183894 0.964789808
vt 0.573183894 1
vt 0.55755192 1
vt 0.55755192 0.964789808
vt 0.658500195 0.498046994
vt 0.642841578 0.462836802
vt 0.658500195 0.462836802
vt 0.642841578 0.498046994
vt 0.588799596 1
vt 0.588799596 0.964789808
vt 0.604371548 1
vt 0.604371548 0.964789808
vt 0.573183894 1
vt 0.588799596 0.964789808
vt 0.588799596 1
vt 0.573183894 0.964789808
vt 0.604371548 0.964789808
vt 0.620066106 0.75
vt 0.620066106 0.964789808
vt 0.604371548 0.75
vt 0.674132228 0.462836802
vt 0.674132228 0.248046994
vt 0.68974793 0.462836802
vt 0.68974793 0.248046994
vt 0.199938416 0.465508103
vt 0.215597034 0.24926877
vt 0.215597034 0.465508103
vt 0.199938416 0.24926877
vt 0.705319822 0.498046994
vt 0.705319822 0.462836802
vt 0.72101444 0.498046994
vt 0.72101444 0.462836802
vt 0.674132228 0.498046994
vt 0.68974793 0.462836802
vt 0.68974793 0.498046994
vt 0.674132228 0.462836802
vt 0.522249937 0.791644037
vt 0.522249937 0.833220422
vt 0.515090048 0.791644037
vt 0.515090048 0.833220422
vt 0.92540741 0.416810513
vt 0.91391623 0.374953389
vt 0.92540741 0.374953389
vt 0.91391623 0.416810513
vt 0.903432846 0.558245361
vt 0.856346428 0.531505764
vt 0.871530175 0.504392087
vt 0.918846428 0.531037569
vt 0.903437853 0.504392087
vt 0.871357858 0.558245361
vt 0.92540741 0.500030994
vt 0.92540741 0.458386898
vt 0.933741987 0.458386898
vt 0.933741987 0.500030994
vt 0.92540741 0.374953389
vt 0.91391623 0.333145142
vt 0.92540741 0.333145142
vt 0.91391623 0.374953389
vt 0.92540741 0.458386898
vt 0.91391623 0.416810513
vt 0.92540741 0.416810513
vt 0.91391623 0.458386898
vt 0.92540741 0.250030994
vt 0.933741987 0.291470289
vt 0.92540741 0.291470289
vt 0.933741987 0.250030994
vt 0.933741987 0.291470289
vt 0.94516623 0.333145142
vt 0.933741987 0.333145142
vt 0.94516623 0.291470289
vt 0.92540741 0.291470289
vt 0.91391623 0.250030994
vt 0.92540741 0.250030994
vt 0.91391623 0.291470289
vt 0.92540741 0.333145142
vt 0.91391623 0.291470289
vt 0.92540741 0.291470289
vt 0.91391623 0.333145142
vt 0.92540741 0.416810513
vt 0.933741987 0.458386898
vt 0.92540741 0.458386898
vt 0.933741987 0.416810513
vt 0.933741987 0.333145142
vt 0.933741987 0.374953389
vt 0.92540741 0.333145142
vt 0.92540741 0.374953389
vt 0.720119834 0.705498159
vt 0.733711243 0.518089652
vt 0.733711243 0.705498159
vt 0.720119834 0.518089652
vt 0.665574908 0.705498159
vt 0.665574908 0.518089652
vt 0.67921406 0.705498159
vt 0.67921406 0.518089652
vt 0.933741987 0.291470289
vt 0.933741987 0.333145142
vt 0.92540741 0.291470289
vt 0.92540741 0.333145142
vt 0.92540741 0.500030994
vt 0.91391623 0.458386898
vt 0.92540741 0.458386898
vt 0.91391623 0.500030994
vt 0.706425965 0.736219764
vt 0.706425965 0.705498159
vt 0.720119834 0.736219764
vt 0.720119834 0.705498159
vt 0.933741987 0.374953389
vt 0.933741987 0.416810513
vt 0.92540741 0.374953389
vt 0.92540741 0.416810513
vt 0.67921406 0.705498159
vt 0.67921406 0.518089652
vt 0.692839086 0.705498159
vt 0.692839086 0.518089652
vt 0.733711243 0.705498159
vt 0.733711243 0.736219764
vt 0.720119834 0.736219764
vt 0.720119834 0.705498159
vt 0.933741987 0.416810513
vt 0.94516623 0.458386898
vt 0.933741987 0.458386898
vt 0.94516623 0.416810513
vt 0.933741987 0.374953389
vt 0.94516623 0.416810513
vt 0.933741987 0.416810513
vt 0.94516623 0.374953389
vt 0.665574908 0.736219764
vt 0.651912451 0.705498159
vt 0.665574908 0.705498159
vt 0.651912451 0.736219764
vt 0.692839086 0.705498159
vt 0.692839086 0.518089652
vt 0.706425965 0.705498159
vt 0.706425965 0.518089652
vt 0.933741987 0.458386898
vt 0.94516623 0.500030994
vt 0.933741987 0.500030994
vt 0.94516623 0.458386898
vt 0.933741987 0.250030994
vt 0.94516623 0.291470289
vt 0.933741987 0.291470289
vt 0.94516623 0.250030994
vt 0.933741987 0.333145142
vt 0.94516623 0.374953389
vt 0.933741987 0.374953389
vt 0.94516623 0.333145142
vt 0.651912451 0.705498159
vt 0.665574908 0.518089652
vt 0.665574908 0.705498159
vt 0.651912451 0.518089652
vt 0.67921406 0.705498159
vt 0.67921406 0.736219764
vt 0.665574908 0.736219764
vt 0.665574908 0.705498159
vt 0.692839086 0.736219764
vt 0.692839086 0.705498159
vt 0.706425965 0.736219764
vt 0.706425965 0.705498159
vt 0.67921406 0.736219764
vt 0.692839086 0.705498159
vt 0.692839086 0.736219764
vt 0.67921406 0.705498159
vt 0.706425965 0.705498159
vt 0.720119834 0.518089652
vt 0.720119834 0.705498159
vt 0.706425965 0.518089652
vt 0.484586418 0.558245361
vt 0.4375 0.531505764
vt 0.452683747 0.504392087
vt 0.5 0.531037569
vt 0.484591454 0.504392087
vt 0.45251143 0.558245361
vt 0.246125057 0.464789927
vt 0.246125057 0.250000119
vt 0.261696935 0.464789927
vt 0.261696935 0.250000119
vt 0.396433353 0.964789808
vt 0.41201055 0.75
vt 0.41201055 0.964789808
vt 0.396433353 0.75
vt 0.261696935 0.464789927
vt 0.277391583 0.250000119
vt 0.277391583 0.464789927
vt 0.261696935 0.250000119
vt 0.333919168 0.964789808
vt 0.333919168 0.75
vt 0.349551141 0.964789808
vt 0.349551141 0.75
vt 0.447762191 0.00463813543
vt 0.495078444 0.031283617
vt 0.479664862 0.0584914088
vt 0.432578444 0.0317518115
vt 0.447589874 0.0584914088
vt 0.479669899 0.00463813543
vt 0.349551141 0.964789808
vt 0.349551141 0.75
vt 0.365166843 0.964789808
vt 0.365166843 0.75
vt 0.945508122 0.874922454
vt 0.945508122 0.916779578
vt 0.937173545 0.874922454
vt 0.937173545 0.916779578
vt 0.945508122 0.791439295
vt 0.945508122 0.833114207
vt 0.937173545 0.791439295
vt 0.937173545 0.833114207
vt 0.937173545 1
vt 0.925682366 0.958355963
vt 0.937173545 0.958355963
vt 0.925682366 1
vt 0.517824709 0.875077546
vt 0.508843541 0.833220422
vt 0.517824709 0.833220422
vt 0.508843541 0.875077546
vt 0.937173545 0.916779578
vt 0.925682366 0.874922454
vt 0.937173545 0.874922454
vt 0.925682366 0.916779578
vt 0.214877352 0.464789927
vt 0.214877352 0.250000119
vt 0.230509356 0.464789927
vt 0.230509356 0.250000119
vt 0.41201055 0.964789808
vt 0.41201055 1
vt 0.396433353 1
vt 0.396433353 0.964789808
vt 0.380738795 1
vt 0.380738795 0.964789808
vt 0.396433353 1
vt 0.396433353 0.964789808
vt 0.246125057 0.500000119
vt 0.246125057 0.464789927
vt 0.261696935 0.500000119
vt 0.261696935 0.464789927
vt 0.945508122 0.833114207
vt 0.945508122 0.874922454
vt 0.937173545 0.833114207
vt 0.937173545 0.874922454
vt 0.937173545 0.75
vt 0.945508122 0.791439295
vt 0.937173545 0.791439295
vt 0.945508122 0.75
vt 0.517824709 1
vt 0.508843541 0.958560705
vt 0.517824709 0.958560705
vt 0.508843541 1
vt 0.937173545 0.833114207
vt 0.925682366 0.791439295
vt 0.937173545 0.791439295
vt 0.925682366 0.833114207
vt 0.524196327 0.833220422
vt 0.532972336 0.875077546
vt 0.524196327 0.875077546
vt 0.532972336 0.833220422
vt 0.524196327 0.75
vt 0.532972336 0.791644037
vt 0.524196327 0.791644037
vt 0.532972336 0.75
vt 0.937173545 1
vt 0.937173545 0.958355963
vt 0.945508122 0.958355963
vt 0.945508122 1
vt 0.937173545 0.958355963
vt 0.925682366 0.916779578
vt 0.937173545 0.916779578
vt 0.925682366 0.958355963
vt 0.517824709 0.916885793
vt 0.508843541 0.875077546
vt 0.517824709 0.875077546
vt 0.508843541 0.916885793
vt 0.524196327 0.958560705
vt 0.532972336 1
vt 0.524196327 1
vt 0.532972336 0.958560705
vt 0.524196327 0.875077546
vt 0.532972336 0.916885793
vt 0.524196327 0.916885793
vt 0.532972336 0.875077546
vt 0.937173545 0.916779578
vt 0.945508122 0.958355963
vt 0.937173545 0.958355963
vt 0.945508122 0.916779578
vt 0.517824709 0.958560705
vt 0.508843541 0.916885793
vt 0.517824709 0.916885793
vt 0.508843541 0.958560705
vt 0.937173545 0.874922454
vt 0.925682366 0.833114207
vt 0.937173545 0.833114207
vt 0.925682366 0.874922454
vt 0.945508122 0.916779578
vt 0.956932366 0.958355963
vt 0.945508122 0.958355963
vt 0.956932366 0.916779578
vt 0.945508122 0.791439295
vt 0.956932366 0.833114207
vt 0.945508122 0.833114207
vt 0.956932366 0.791439295
vt 0.945508122 0.874922454
vt 0.956932366 0.916779578
vt 0.945508122 0.916779578
vt 0.956932366 0.874922454
vt 0.937173545 0.791439295
vt 0.925682366 0.75
vt 0.937173545 0.75
vt 0.925682366 0.791439295
vt 0.199218735 0.464789927
vt 0.214877352 0.250000119
vt 0.214877352 0.464789927
vt 0.199218735 0.250000119
vt 0.230509356 0.464789927
vt 0.230509356 0.500000119
vt 0.214877352 0.500000119
vt 0.214877352 0.464789927
vt 0.333919168 1
vt 0.31826055 0.964789808
vt 0.333919168 0.964789808
vt 0.31826055 1
vt 0.29296875 0.464789927
vt 0.29296875 0.500000119
vt 0.277391583 0.500000119
vt 0.277391583 0.464789927
vt 0.365166843 0.964789808
vt 0.365166843 0.75
vt 0.380738795 0.964789808
vt 0.380738795 0.75
vt 0.524196327 0.791644037
vt 0.532972336 0.833220422
vt 0.524196327 0.833220422
vt 0.532972336 0.791644037
vt 0.517824709 0.958560705
vt 0.524196327 1
vt 0.517824709 1
vt 0.524196327 0.958560705
vt 0.524196327 0.875077546
vt 0.524196327 0.916885793
vt 0.517824709 0.875077546
vt 0.517824709 0.916885793
vt 0.524196327 0.833220422
vt 0.524196327 0.875077546
vt 0.517824709 0.833220422
vt 0.517824709 0.875077546
vt 0.517824709 0.833220422
vt 0.508843541 0.791644037
vt 0.517824709 0.791644037
vt 0.508843541 0.833220422
vt 0.945508122 0.958355963
vt 0.956932366 1
vt 0.945508122 1
vt 0.956932366 0.958355963
vt 0.945508122 0.75
vt 0.956932366 0.791439295
vt 0.945508122 0.791439295
vt 0.956932366 0.75
vt 0.945508122 0.833114207
vt 0.956932366 0.874922454
vt 0.945508122 0.874922454
vt 0.956932366 0.833114207
vt 0.31826055 0.964789808
vt 0.333919168 0.75
vt 0.333919168 0.964789808
vt 0.31826055 0.75
vt 0.524196327 0.916885793
vt 0.532972336 0.958560705
vt 0.524196327 0.958560705
vt 0.532972336 0.916885793
vt 0.517824709 0.916885793
vt 0.524196327 0.958560705
vt 0.517824709 0.958560705
vt 0.524196327 0.916885793
vt 0.517824709 0.75
vt 0.524196327 0.791644037
vt 0.517824709 0.791644037
vt 0.524196327 0.75
vt 0.517824709 0.791644037
vt 0.508843541 0.75
vt 0.517824709 0.75
vt 0.508843541 0.791644037
vt 0.277391583 0.464789927
vt 0.29296875 0.250000119
vt 0.29296875 0.464789927
vt 0.277391583 0.250000119
vt 0.349551141 0.964789808
vt 0.349551141 1
vt 0.333919168 1
vt 0.333919168 0.964789808
vt 0.214877352 0.500000119
vt 0.199218735 0.464789927
vt 0.214877352 0.464789927
vt 0.199218735 0.500000119
vt 0.365166843 1
vt 0.365166843 0.964789808
vt 0.380738795 1
vt 0.380738795 0.964789808
vt 0.349551141 1
vt 0.365166843 0.964789808
vt 0.365166843 1
vt 0.349551141 0.964789808
vt 0.380738795 0.964789808
vt 0.396433353 0.75
vt 0.396433353 0.964789808
vt 0.380738795 0.75
vt 0.230509356 0.464789927
vt 0.230509356 0.250000119
vt 0.246125057 0.464789927
vt 0.246125057 0.250000119
vt 0.261696935 0.500000119
vt 0.261696935 0.464789927
vt 0.277391583 0.500000119
vt 0.277391583 0.464789927
vt 0.230509356 0.500000119
vt 0.246125057 0.464789927
vt 0.246125057 0.500000119
vt 0.230509356 0.464789927
vt 0.524196327 0.791644037
vt 0.524196327 0.833220422
vt 0.517824709 0.791644037
vt 0.517824709 0.833220422
vt 0.904450953 0.558245361
vt 0.857364535 0.531505764
vt 0.872548282 0.504392087
vt 0.919864535 0.531037569
vt 0.90445596 0.504392087
vt 0.872375965 0.558245361
vn 0.865022957 0.50173229 5.47260655e-08
vn 0.865022957 0.50173229 5.47260655e-08
vn 0.865022957 0.50173229 5.47260655e-08
vn 0.865022957 0.50173229 5.47260655e-08
vn -0.864087045 0.50334239 5.82973553e-06
vn -0.864087045 0.50334239 5.82973553e-06
vn -0.864087045 0.50334239 5.82973553e-06
vn -0.864087045 0.50334239 5.82973553e-06
vn 8.10504062e-05 0.99999994 6.70438158e-06
vn 8.10504062e-05 0.99999994 6.70438158e-06
vn 8.10504062e-05 0.99999994 6.70438158e-06
vn 8.10504062e-05 0.99999994 6.70438158e-06
vn 7.12576948e-05 -1 -1.10571627e-05
vn 7.12576948e-05 -1 -1.10571627e-05
vn 7.12576948e-05 -1 -1.10571627e-05
vn 7.12576948e-05 -1 -1.10571627e-05
vn 6.24933746e-05 -0.989596665 0.143869549
vn -0.000128885193 -0.989596367 0.14387171
vn 0.000456338283 -0.989596367 0.143870682
vn 0.00026621006 -0.989596546 0.14387016
vn 8.95251651e-05 9.31669638e-05 0.99999994
vn 8.95251651e-05 9.31669638e-05 0.99999994
vn 8.95251651e-05 9.31669638e-05 0.99999994
vn 8.95251651e-05 9.31669638e-05 0.99999994
vn 8.95251651e-05 9.31669638e-05 0.99999994
vn 8.95251651e-05 9.31669638e-05 0.99999994
vn -0.86169529 0.485444933 0.147731453
vn -0.861620009 0.485594422 0.147678733
vn -0.855297625 0.497738928 0.143951312
vn -0.855204284 0.497898877 0.143952712
vn -0.000355787342 0.989643574 0.143546402
vn -0.000178900489 0.989643455 0.143547654
vn 0.000216239569 0.989643157 0.143549681
vn 2.4321489e-05 0.989643753 0.143545866
vn 0.858108938 -0.493010968 0.14348945
vn 0.857474983 -0.494049072 0.143708855
vn 0.8577739 -0.493593812 0.143489242
vn 0.857575476 -0.49387157 0.143719077
vn 0.866271257 -0.499573916 -1.87742785e-06
vn 0.866271257 -0.499573916 -1.87742785e-06
vn 0.866271257 -0.499573916 -1.87742785e-06
vn 0.866271257 -0.499573916 -1.87742785e-06
vn 0.000254308659 -0.999999702 0.000557294756
vn 0.000254308659 -0.999999702 0.000557294756
vn 0.000254308659 -0.999999702 0.000557294756
vn 0.000254308659 -0.999999702 0.000557294756
vn -0.86580646 0.500378907 -0.000376301818
vn -0.865912139 0.50019604 0.000507558871
vn -0.865799606 0.500390828 -0.000395168638
vn -0.86594826 0.500132978 0.000799006782
vn 0.25718534 0.153416246 0.95410645
vn 0.255502403 0.15111348 0.954925716
vn 0.257138252 0.153382301 0.95412457
vn 0.255479276 0.151095062 0.954934835
vn -0.265657753 -0.15436247 0.951629162
vn -0.272830337 -0.163037986 0.948146701
vn -0.266391098 -0.153257042 0.951602876
vn -0.272640586 -0.163507611 0.948120415
vn 0.000124454498 -0.290427923 0.956896782
vn 0.000128306448 -0.2904284 0.956896663
vn 0.000132817906 -0.290467918 0.956884623
vn 0.000114471848 -0.290467322 0.956884801
vn -0.247770891 -0.143178403 0.958180308
vn -0.254590571 -0.152663037 0.954922795
vn -0.247754723 -0.14314419 0.958189607
vn -0.254560053 -0.152618885 0.954937994
vn -0.255760312 -0.143040925 -0.956099391
vn -0.25243482 -0.14272429 -0.957030058
vn -0.25590077 -0.143063247 -0.956058443
vn -0.252467692 -0.142733961 -0.957019985
vn 0.000129118562 0.299492151 -0.954098821
vn 0.000125780702 0.299492151 -0.954098761
vn 0.000126774947 0.299491823 -0.95409888
vn 0.000118762902 0.299491763 -0.954098821
vn -0.864087462 0.503341675 6.22817925e-06
vn -0.864087462 0.503341675 6.22817925e-06
vn -0.864087462 0.503341675 6.22817925e-06
vn -0.864087462 0.503341675 6.22817925e-06
vn 7.12952969e-05 -0.99999994 -1.24330327e-05
vn 7.12952969e-05 -0.99999994 -1.24330327e-05
vn 7.12952969e-05 -0.99999994 -1.24330327e-05
vn 7.12952969e-05 -0.99999994 -1.24330327e-05
vn 9.54986026e-05 0.000103366074 1
vn 9.54986026e-05 0.000103366074 1
vn 9.54986026e-05 0.000103366074 1
vn 9.54986026e-05 0.000103366074 1
vn 9.54986026e-05 0.000103366074 1
vn 9.54986026e-05 0.000103366074 1
vn -0.851677835 -0.502756536 0.14792186
vn -0.854811251 -0.497886389 0.146311313
vn -0.851599097 -0.502888918 0.147924796
vn -0.854683459 -0.498102814 0.146320999
vn -0.858953595 0.4837282 0.167945951
vn -0.858948588 0.483736992 0.167946383
vn -0.852381945 0.496495128 0.164127305
vn -0.852413774 0.496425599 0.164172083
vn -6.99859811e-05 0.986540198 0.16351907
vn -7.63774151e-05 0.98653996 0.163520649
vn -7.52732667e-05 0.9865399 0.163521081
vn -7.52443448e-05 0.986540139 0.163519502
vn 0.85647577 0.497085512 0.139123112
vn 0.856633663 0.496816903 0.139110148
vn 0.856966853 0.496241927 0.139110014
vn 0.856805146 0.496519148 0.139117613
vn 8.10250276e-05 1 6.31193507e-06
vn 8.10250276e-05 1 6.31193507e-06
vn 8.10250276e-05 1 6.31193507e-06
vn 8.10250276e-05 1 6.31193507e-06
vn 0.86502558 0.501727879 4.9123706e-08
vn 0.86502558 0.501727879 4.9123706e-08
vn 0.86502558 0.501727879 4.9123706e-08
vn 0.86502558 0.501727879 4.9123706e-08
vn 0.859184384 0.511666358 -5.34795254e-06
vn 0.859182477 0.511669517 -4.26081533e-06
vn 0.859178543 0.511676073 2.02283263e-06
vn 0.859180629 0.511672616 4.89875674e-07
vn -0.865476727 -0.500949144 0.00013324352
vn -0.865476727 -0.500949144 0.00013324352
vn -0.865476727 -0.500949144 0.00013324352
vn -0.865476727 -0.500949144 0.00013324352
vn -0.000476000772 0.999999881 0.000145331986
vn -0.00047607132 0.999999881 0.000145366561
vn -0.000476147194 0.999999881 0.000145690021
vn -0.000476200541 0.999999881 0.000145717524
vn 0.275101423 0.164767802 0.94719094
vn 0.274113834 0.161849931 0.947980046
vn 0.275692374 0.163373232 0.947260737
vn 0.273770332 0.162290543 0.948004007
vn 0.256960034 0.153121844 0.954214454
vn 0.255366862 0.15092884 0.954991162
vn 0.25718978 0.153431132 0.954102874
vn 0.255418688 0.150983512 0.954968691
vn -0.254775286 0.147490263 0.955686152
vn -0.266899347 0.148795366 0.952168345
vn -0.254824817 0.147483349 0.955674052
vn -0.266873121 0.148776188 0.952178657
vn -0.274538517 -0.15283443 -0.949352443
vn -0.270873964 -0.153367475 -0.950318694
vn -0.273997843 -0.153985873 -0.949322641
vn -0.271090567 -0.152875066 -0.950336218
vn 0.000840447843 0.320953757 -0.9470945
vn -0.000154219568 0.320953071 -0.947095037
vn -0.000568059157 0.320954204 -0.94709456
vn 0.000417510979 0.320952654 -0.947095156
vn 0.859179556 0.511674225 0
vn 0.859179556 0.511674225 0
vn 0.859179556 0.511674225 0
vn 0.859179556 0.511674225 0
vn 0.872322142 -0.488931566 5.97284379e-05
vn 0.872322142 -0.488931566 5.97284379e-05
vn 0.872322142 -0.488931566 5.97284379e-05
vn 0.872322142 -0.488931566 5.97284379e-05
vn 0.000399395911 -0.999999881 0.00024162425
vn 0.000399395911 -0.999999881 0.00024162425
vn 0.000399395911 -0.999999881 0.00024162425
vn 0.000399395911 -0.999999881 0.00024162425
vn 0.000127263367 -0.290471166 0.956883609
vn 0.000120818615 -0.290471584 0.956883609
vn 0.000135928698 -0.290466547 0.956885099
vn 0.000128915359 -0.29046616 0.956885219
vn 0.255640149 -0.143038869 0.956131756
vn 0.252495706 -0.142716691 0.957014978
vn 0.2557621 -0.143022418 0.956101537
vn 0.252517849 -0.142729864 0.957007229
vn 0.000801123679 -0.311603338 0.950211942
vn -0.000148996711 -0.311603129 0.9502123
vn -0.00054535555 -0.31159991 0.950213253
vn 0.000419522432 -0.311598063 0.950213969
vn 0.273780763 0.157515496 -0.948806167
vn 0.285295039 0.159612179 -0.945055962
vn 0.273143172 0.15880236 -0.948775351
vn 0.285595 0.159169763 -0.945039988
vn -0.000800698996 -0.311601281 -0.950212538
vn 0.000149026513 -0.311601013 -0.950212955
vn 0.000545509567 -0.311598033 -0.95021379
vn -0.000419419084 -0.311596215 -0.950214505
vn 0.872250319 -0.489059299 0.000642383064
vn 0.872321367 -0.488933086 0.00010425318
vn 0.872257471 -0.489046454 0.000679578632
vn 0.87232399 -0.488928318 0.000100847334
vn -0.865871608 0.500266075 0.000164186582
vn -0.865869224 0.500270188 0.000170942832
vn -0.865868986 0.500270665 0.000171631764
vn -0.865870416 0.500268161 0.000164985657
vn 0.274395972 -0.152811617 0.949397385
vn 0.270874977 -0.15336816 0.950318217
vn 0.273750961 -0.153963923 0.949397385
vn 0.271202564 -0.152865142 0.950305939
vn -0.247737527 -0.14311412 0.958198607
vn -0.254536361 -0.152597129 0.954947829
vn -0.247767076 -0.143182516 0.958180666
vn -0.254561067 -0.15261206 0.954938889
vn -0.254770398 0.147506952 0.9556849
vn -0.266880214 0.148782834 0.952175677
vn -0.254776955 0.14746584 0.95568949
vn -0.266846091 0.148786619 0.952184677
vn 0.254767865 0.14750585 -0.955685675
vn 0.266877681 0.148781836 -0.952176452
vn 0.254814148 0.147487357 -0.955676317
vn 0.266792655 0.148782402 -0.952200294
vn -0.000121757388 -0.290723979 -0.956806898
vn -0.000134952366 -0.290725112 -0.9568066
vn -0.000140515389 -0.290617824 -0.956839144
vn -0.000136279763 -0.290708065 -0.956811786
vn -0.257288486 0.153555512 -0.954056323
vn -0.255367666 0.150929302 -0.954990983
vn -0.257366836 0.15367274 -0.954016328
vn -0.2554726 0.151073009 -0.95494014
vn 0.247742474 -0.143118143 -0.95819664
vn 0.254568815 -0.152645782 -0.954931378
vn 0.24779506 -0.143237948 -0.958165169
vn 0.254566342 -0.152616173 -0.954936802
vn 0.247321919 -0.14252232 -0.95839417
vn 0.254570603 -0.152638942 -0.954932034
vn 0.247305974 -0.142542973 -0.958395243
vn 0.254569829 -0.152631283 -0.954933524
vn -0.257147729 0.153391495 -0.954120576
vn -0.255439311 0.151042044 -0.954953969
vn -0.257348061 0.153658181 -0.954023659
vn -0.255430251 0.150999755 -0.954963148
vn -0.000129647553 0.299491763 0.95409888
vn -0.000125661492 0.299491823 0.954098821
vn -0.000126594838 0.299491197 0.954099119
vn -0.000118914999 0.299491137 0.954099119
vn -5.58122993e-05 -0.290299386 -0.956935823
vn -1.42008066e-05 -0.29017812 -0.956972539
vn -5.71595592e-05 -0.290288508 -0.956939101
vn -9.54252318e-05 -0.290361553 -0.956916988
vn -0.000122331083 0.299490929 0.954099238
vn -0.000130258501 0.299490899 0.954099178
vn -0.000127649793 0.299490511 0.954099298
vn -0.000134951377 0.299490452 0.954099298
vn -0.864273787 -0.503021777 -1.78353057e-05
vn -0.864273787 -0.503021777 -1.78353057e-05
vn -0.864273787 -0.503021777 -1.78353057e-05
vn -0.864273787 -0.503021777 -1.78353057e-05
vn 7.10522727e-05 -1 -1.17269074e-05
vn 7.10522727e-05 -1 -1.17269074e-05
vn 7.10522727e-05 -1 -1.17269074e-05
vn 7.10522727e-05 -1 -1.17269074e-05
vn -1.04955398e-05 -0.990233719 0.139417812
vn -0.000331901276 -0.990233064 0.139421701
vn 0.000664112624 -0.990233123 0.139420316
vn 0.000339668477 -0.990233541 0.139418662
vn -0.848680377 -0.501402318 0.168337286
vn -0.851950049 -0.496348351 0.166791946
vn -0.848724425 -0.501317561 0.168367535
vn -0.852057636 -0.496188194 0.166718677
vn -0.862227738 0.485840827 0.143254757
vn -0.862080634 0.486118585 0.143197507
vn -0.855919659 0.497933149 0.139513493
vn -0.855841637 0.49806577 0.139518902
vn 0.856025636 0.496591777 0.143584892
vn 0.856117427 0.496436119 0.143576413
vn 0.856314301 0.496096551 0.143575683
vn 0.856217861 0.496261209 0.143581599
vn 0.865024686 0.501729131 4.66823913e-08
vn 0.865024686 0.501729131 4.66823913e-08
vn 0.865024686 0.501729131 4.66823913e-08
vn 0.865024686 0.501729131 4.66823913e-08
vn 0.866270363 -0.499575377 -1.9835129e-06
vn 0.866270363 -0.499575377 -1.9835129e-06
vn 0.866270363 -0.499575377 -1.9835129e-06
vn 0.866270363 -0.499575377 -1.9835129e-06
vn -0.865477562 -0.500947714 0.000143421435
vn -0.865477562 -0.500947714 0.000143421435
vn -0.865477562 -0.500947714 0.000143421435
vn -0.865477562 -0.500947714 0.000143421435
vn 0.255494744 -0.143010139 0.95617497
vn 0.252583742 -0.142730355 0.956989825
vn 0.25576216 -0.143027499 0.956100881
vn 0.25248009 -0.142719656 0.957018733
vn -0.275335789 0.165084779 -0.947067738
vn -0.274029523 0.161724955 -0.948025823
vn -0.276117921 0.163989902 -0.947030246
vn -0.273769796 0.162291169 -0.948004127
vn 0.859179735 0.511673033 -0.000914717093
vn 0.859172285 0.511685491 -0.000909421011
vn 0.859167039 0.511694252 -0.000888781622
vn 0.859176993 0.511677682 -0.000896286219
vn -0.000478763162 0.999999881 3.40508268e-05
vn -0.000429496489 0.999999881 -0.000206028795
vn -0.000478226313 0.999999881 3.41674386e-05
vn -0.000429053383 0.999999881 -0.00020573067
vn 0.000230670208 -0.999999881 0.000236266016
vn -3.98322375e-10 -0.99999994 -7.26752432e-06
vn 0.000231168291 -0.999999881 0.000236158172
vn -3.98322375e-10 -0.99999994 -7.26752432e-06
vn -0.865447998 -0.500998676 -0.000474095345
vn -0.865450442 -0.500994563 -0.000454497524
vn -0.865456939 -0.500983357 -0.000459755334
vn -0.865439236 -0.501013994 -0.000467497855
vn -0.273730755 0.15751785 0.948820114
vn -0.285238206 0.159625068 0.945070863
vn -0.273133039 0.158827275 0.94877398
vn -0.285548747 0.159165382 0.945054591
vn 0.254768074 0.147518873 -0.955683768
vn 0.266772419 0.14891234 -0.95218569
vn 0.254768133 0.147502616 -0.955686331
vn 0.266756207 0.148892641 -0.952193379
vn 6.20782375e-05 0.299367845 -0.954137802
vn 7.45356083e-05 0.299358428 -0.954140782
vn -8.06487515e-06 0.299171329 -0.954199553
vn 0.000105130479 0.299456835 -0.954109967
vn -0.255778491 -0.143070489 -0.956090093
vn -0.252495974 -0.142748743 -0.95701021
vn -0.255923897 -0.143089801 -0.95604831
vn -0.252470613 -0.142736703 -0.957018733
vn -0.86427319 -0.503022611 -1.59553947e-05
vn -0.86427319 -0.503022611 -1.59553947e-05
vn -0.86427319 -0.503022611 -1.59553947e-05
vn -0.86427319 -0.503022611 -1.59553947e-05
vn 0.265644014 -0.154384285 -0.951629519
vn 0.272859693 -0.16307725 -0.948131561
vn 0.266390145 -0.153256685 -0.951603234
vn 0.272639811 -0.163507089 -0.948120832
vn 0.872319818 -0.488934785 0.00103507214
vn 0.872321844 -0.488931239 0.00103335828
vn 0.872325718 -0.488924265 0.00104254484
vn 0.872355938 -0.4888708 0.000709589571
vn -0.000300522894 0.99999994 -0.000142558638
vn -0.000300673331 0.99999994 -0.000142255187
vn -0.000300422049 0.99999994 -0.000141926343
vn -0.000300218788 0.99999994 -0.000142336707
vn -0.000840894878 0.320956647 0.947093427
vn 0.000154100358 0.320955962 0.947094023
vn 0.000567814626 0.320957065 0.947093487
vn -0.000417760079 0.320955515 0.947094142
vn -0.864088058 0.503340662 6.66389815e-06
vn -0.864088058 0.503340662 6.66389815e-06
vn -0.864088058 0.503340662 6.66389815e-06
vn -0.864088058 0.503340662 6.66389815e-06
vn 0.000160808908 -0.986483157 0.163862348
vn 0.000161019707 -0.986483097 0.163862869
vn 0.000155782443 -0.986483216 0.163862184
vn 0.000160600714 -0.986483097 0.16386272
vn -0.8523435 -0.502931714 0.143423259
vn -0.855265915 -0.498401999 0.141829595
vn -0.852183938 -0.503206372 0.143407822
vn -0.855118871 -0.498658299 0.141815439
vn 0.853490293 0.494791925 0.163509384
vn 0.853489637 0.494794667 0.163504779
vn 0.85348928 0.49479574 0.163503483
vn 0.853489101 0.494794309 0.163508087
vn 0.854829729 -0.492413074 0.163693115
vn 0.854832828 -0.492406845 0.163695648
vn 0.8548311 -0.492406785 0.163704649
vn 0.854831278 -0.492407441 0.163702145
vn 8.11133723e-05 1 5.95634538e-06
vn 8.11133723e-05 1 5.95634538e-06
vn 8.11133723e-05 1 5.95634538e-06
vn 8.11133723e-05 1 5.95634538e-06
vn 0.866269469 -0.499577016 -2.14205807e-06
vn 0.866269469 -0.499577016 -2.14205807e-06
vn 0.866269469 -0.499577016 -2.14205807e-06
vn 0.866269469 -0.499577016 -2.14205807e-06
vn -0.864273429 -0.503022254 -1.68576535e-05
vn -0.864273429 -0.503022254 -1.68576535e-05
vn -0.864273429 -0.503022254 -1.68576535e-05
vn -0.864273429 -0.503022254 -1.68576535e-05
vn -0.000555751845 0.990274012 0.13912876
vn -0.000248860946 0.990274072 0.139129683
vn 0.000418474112 0.990280211 0.139085919
vn 9.65730287e-05 0.990274429 0.13912718
vn 0.85831362 -0.493857056 0.139293998
vn 0.857986748 -0.494423836 0.139296994
vn 0.857999265 -0.494436473 0.13917473
vn 0.858163774 -0.494125962 0.139264017
vn -0.865865707 0.500275493 0.00106363371
vn -0.865872681 0.500263393 0.00107640389
vn -0.865869582 0.500268757 0.00107932498
vn -0.865869284 0.500269234 0.00106059387
vn 0.000124506652 -0.29042843 0.956896782
vn 0.000128403306 -0.290428966 0.956896603
vn 0.000132997608 -0.290468514 0.956884623
vn 0.000114528848 -0.290467948 0.956884801
vn 9.1150614e-05 9.9348581e-05 1
vn 9.1150614e-05 9.9348581e-05 1
vn 9.1150614e-05 9.9348581e-05 1
vn 9.1150614e-05 9.9348581e-05 1
vn 9.1150614e-05 9.9348581e-05 1
vn 9.1150614e-05 9.9348581e-05 1
vn 0.859178782 0.511675477 3.87343881e-08
vn 0.859178782 0.511675477 3.87343881e-08
vn 0.859178782 0.511675477 3.87343881e-08
vn 0.859178782 0.511675477 3.87343881e-08
vn -0.247738421 -0.143114418 0.958198309
vn -0.254537344 -0.152597278 0.954947531
vn -0.24776803 -0.14318274 0.958180368
vn -0.25456208 -0.152612343 0.954938531
vn 0.255640626 -0.143038601 0.956131697
vn 0.252496153 -0.142716497 0.957014978
vn 0.255762696 -0.143022045 0.956101477
vn 0.252518356 -0.142729774 0.95700711
vn -0.00047581477 0.999999821 0.000144854712
vn -0.000475885783 0.999999821 0.000144889505
vn -0.000475962501 0.999999821 0.000145213242
vn -0.000476014393 0.999999821 0.00014523993
vn -0.25714609 0.153391272 -0.954121053
vn -0.25543797 0.151041329 -0.954954386
vn -0.25734663 0.153657556 -0.954024136
vn -0.255428791 0.150999218 -0.954963565
vn -0.000122122467 0.299490869 0.954099178
vn -0.000129885972 0.299490899 0.954099178
vn -0.000126808867 0.299490452 0.954099298
vn -0.000134828064 0.299490392 0.954099298
vn -0.254776418 0.147490129 0.955685973
vn -0.26690042 0.148795277 0.952168167
vn -0.254825771 0.147483259 0.955673933
vn -0.266874075 0.148776025 0.952178538
vn 0.872250497 -0.48905915 0.000642613391
vn 0.872321546 -0.488932937 0.000104490042
vn 0.87225765 -0.489046305 0.000679814257
vn 0.872324169 -0.488928169 0.00010108389
vn -0.865476489 -0.500949442 0.000133477137
vn -0.865476489 -0.500949442 0.000133477137
vn -0.865476489 -0.500949442 0.000133477137
vn -0.865476489 -0.500949442 0.000133477137
vn -0.864087403 0.503341794 5.78677736e-06
vn -0.864087403 0.503341794 5.78677736e-06
vn -0.864087403 0.503341794 5.78677736e-06
vn -0.864087403 0.503341794 5.78677736e-06
vn 7.16934082e-05 -1 -1.10794581e-05
vn 7.16934082e-05 -1 -1.10794581e-05
vn 7.16934082e-05 -1 -1.10794581e-05
vn 7.16934082e-05 -1 -1.10794581e-05
vn -0.865806639 0.500378549 -0.000375074334
vn -0.865912318 0.500195682 0.000508755329
vn -0.865799785 0.50039047 -0.000393965223
vn -0.865948498 0.50013262 0.000800218433
vn 0.257186353 0.153415978 0.954106331
vn 0.255502999 0.151113868 0.954925537
vn 0.257138848 0.153382331 0.95412451
vn 0.255479753 0.151095152 0.954934835
vn -7.04801641e-05 0.986540258 0.163518712
vn -7.68620448e-05 0.98654002 0.163520291
vn -7.57631424e-05 0.98653996 0.163520724
vn -7.57214148e-05 0.986540198 0.163519144
vn 0.000254309591 -0.999999821 0.000558075146
vn 0.000254309591 -0.999999821 0.000558075146
vn 0.000254309591 -0.999999821 0.000558075146
vn 0.000254309591 -0.999999821 0.000558075146
vn 0.866270781 -0.49957478 -1.92813764e-06
vn 0.866270781 -0.49957478 -1.92813764e-06
vn 0.866270781 -0.49957478 -1.92813764e-06
vn 0.866270781 -0.49957478 -1.92813764e-06
vn -0.858953476 0.48372817 0.167946175
vn -0.858948469 0.483736992 0.167946592
vn -0.852381825 0.496495128 0.164127514
vn -0.852413714 0.496425539 0.164172292
vn 0.247740448 -0.143116742 -0.958197355
vn 0.254566848 -0.152644217 -0.954932094
vn 0.247793108 -0.143236592 -0.958165824
vn 0.254564524 -0.152614683 -0.954937458
vn -5.56707382e-05 -0.290297747 -0.956936419
vn -1.43870711e-05 -0.290176511 -0.956973195
vn -5.75646263e-05 -0.290286779 -0.956939697
vn -9.53945419e-05 -0.290359825 -0.956917584
vn -0.848679781 -0.501403093 0.16833736
vn -0.851949453 -0.496349156 0.16679202
vn -0.848723829 -0.501318336 0.168367609
vn -0.852057099 -0.496188998 0.166718751
vn 0.865023911 0.501730561 4.76439368e-08
vn 0.865023911 0.501730561 4.76439368e-08
vn 0.865023911 0.501730561 4.76439368e-08
vn 0.865023911 0.501730561 4.76439368e-08
vn 0.254767686 0.147519171 -0.955683768
vn 0.266771913 0.148912847 -0.952185631
vn 0.254767835 0.147503302 -0.955686152
vn 0.266755998 0.148893207 -0.952193201
vn 6.23613596e-05 0.299369097 -0.954137444
vn 7.5109303e-05 0.299359679 -0.954140365
vn -7.1198956e-06 0.299172401 -0.954199135
vn 0.000105478692 0.299457908 -0.95410955
vn -0.255776942 -0.143069804 -0.956090569
vn -0.252494484 -0.142747864 -0.957010746
vn -0.255922407 -0.143089011 -0.956048787
vn -0.252469122 -0.142735898 -0.95701915
vn -0.86427331 -0.503022432 -1.59780975e-05
vn -0.86427331 -0.503022432 -1.59780975e-05
vn -0.86427331 -0.503022432 -1.59780975e-05
vn -0.86427331 -0.503022432 -1.59780975e-05
vn 0.000161239645 -0.986483157 0.163862646
vn 0.000161451797 -0.986483097 0.163863167
vn 0.000156207941 -0.986483216 0.163862482
vn 0.000161030257 -0.986483097 0.163863018
vn 0.853490353 0.494791865 0.163509056
vn 0.853489697 0.494794607 0.163504422
vn 0.853489339 0.49479568 0.16350311
vn 0.853489161 0.49479425 0.163507745
vn 0.854831994 -0.49240917 0.163693413
vn 0.854833305 -0.49240607 0.163695931
vn 0.854831636 -0.492405981 0.163704962
vn 0.854831696 -0.492406696 0.163702458
vn 8.1113445e-05 1 5.9664676e-06
vn 8.1113445e-05 1 5.9664676e-06
vn 8.1113445e-05 1 5.9664676e-06
vn 8.1113445e-05 1 5.9664676e-06
vn 9.11507159e-05 9.45573775e-05 1
vn 9.11507159e-05 9.45573775e-05 1
vn 9.11507159e-05 9.45573775e-05 1
vn 9.11507159e-05 9.45573775e-05 1
vn 9.11507159e-05 9.45573775e-05 1
vn 9.11507159e-05 9.45573775e-05 1
vn 0.865022361 0.501733363 5.55552084e-08
vn 0.865022361 0.501733363 5.55552084e-08
vn 0.865022361 0.501733363 5.55552084e-08
vn 0.865022361 0.501733363 5.55552084e-08
vn -0.864087045 0.503342509 5.82182065e-06
vn -0.864087045 0.503342509 5.82182065e-06
vn -0.864087045 0.503342509 5.82182065e-06
vn -0.864087045 0.503342509 5.82182065e-06
vn 8.10504935e-05 1 6.7076835e-06
vn 8.10504935e-05 1 6.7076835e-06
vn 8.10504935e-05 1 6.7076835e-06
vn 8.10504935e-05 1 6.7076835e-06
vn 7.16933573e-05 -1 -1.10571655e-05
vn 7.16933573e-05 -1 -1.10571655e-05
vn 7.16933573e-05 -1 -1.10571655e-05
vn 7.16933573e-05 -1 -1.10571655e-05
vn 8.87913557e-05 9.31668692e-05 0.99999994
vn 8.87913557e-05 9.31668692e-05 0.99999994
vn 8.87913557e-05 9.31668692e-05 0.99999994
vn 8.87913557e-05 9.31668692e-05 0.99999994
vn 8.87913557e-05 9.31668692e-05 0.99999994
vn 8.87913557e-05 9.31668692e-05 0.99999994
vn 0.866270185 -0.499575824 -1.87742637e-06
vn 0.866270185 -0.499575824 -1.87742637e-06
vn 0.866270185 -0.499575824 -1.87742637e-06
vn 0.866270185 -0.499575824 -1.87742637e-06
vn 0.000254308601 -0.999999762 0.000557309133
vn 0.000254308601 -0.999999762 0.000557309133
vn 0.000254308601 -0.999999762 0.000557309133
vn 0.000254308601 -0.999999762 0.000557309133
vn -0.865806222 0.500379384 -0.000376256183
vn -0.865911901 0.500196517 0.000507598917
vn -0.865799367 0.500391304 -0.000395123119
vn -0.865948021 0.500133455 0.000799047761
vn 0.257185072 0.153416082 0.95410651
vn 0.255502045 0.151113391 0.954925835
vn 0.257137954 0.153382257 0.954124629
vn 0.255478978 0.151094943 0.954934895
vn -0.265658617 -0.15436241 0.951628923
vn -0.272830933 -0.163038313 0.948146462
vn -0.266391635 -0.153257281 0.951602697
vn -0.272641182 -0.163507774 0.948120236
vn 0.00012447685 -0.290428013 0.956896901
vn 0.000128336251 -0.290428579 0.956896722
vn 0.00013285724 -0.290468097 0.956884742
vn 0.000114513103 -0.290467501 0.956884861
vn 7.13520931e-05 -1 -1.24395992e-05
vn 7.13520931e-05 -1 -1.24395992e-05
vn 7.13520931e-05 -1 -1.24395992e-05
vn 7.13520931e-05 -1 -1.24395992e-05
vn -0.858953238 0.483728617 0.167945981
vn -0.858948231 0.483737409 0.167946413
vn -0.852381587 0.496495545 0.164127335
vn -0.852413416 0.496426016 0.164172113
vn -7.03665428e-05 0.986540198 0.16351898
vn -7.67464808e-05 0.98653996 0.16352056
vn -7.56412046e-05 0.9865399 0.163520992
vn -7.56117515e-05 0.986540139 0.163519412
vn 0.85647583 0.497085482 0.139122993
vn 0.856633723 0.496816844 0.139109999
vn 0.856966972 0.496241927 0.13910985
vn 0.856805146 0.496519119 0.139117479
vn -0.865476727 -0.500949144 0.00013328252
vn -0.865476727 -0.500949144 0.00013328252
vn -0.865476727 -0.500949144 0.00013328252
vn -0.865476727 -0.500949144 0.00013328252
vn -0.000476373738 0.999999821 0.000145172584
vn -0.000476444315 0.999999821 0.00014520713
vn -0.000476520188 0.999999821 0.000145530619
vn -0.000476573565 0.999999821 0.000145558093
vn 0.275102198 0.164767966 0.947190702
vn 0.274114639 0.16184999 0.947979867
vn 0.275693148 0.163373455 0.947260499
vn 0.273771167 0.162290692 0.948003769
vn -0.254775554 0.147490308 0.955686212
vn -0.266899586 0.148795456 0.952168405
vn -0.254824966 0.147483572 0.955674112
vn -0.26687336 0.148776233 0.952178717
vn -0.274538755 -0.152834415 -0.949352443
vn -0.270874202 -0.15336746 -0.950318694
vn -0.273998082 -0.153985858 -0.949322581
vn -0.271090806 -0.152875051 -0.950336218
vn 0.000840388238 0.320953876 -0.9470945
vn -0.000154383481 0.32095319 -0.947095096
vn -0.000568024523 0.320954382 -0.94709456
vn 0.000417367148 0.320952833 -0.947095156
vn 0.859179735 0.511673927 2.32406052e-07
vn 0.859179735 0.511673927 2.32406052e-07
vn 0.859179735 0.511673927 2.32406052e-07
vn 0.859179735 0.511673927 2.32406052e-07
vn 0.25564009 -0.143038988 0.956131816
vn 0.252495617 -0.14271681 0.957015097
vn 0.255761981 -0.143022597 0.956101596
vn 0.25251779 -0.142729998 0.95700717
vn 0.000801086426 -0.31160304 0.950212002
vn -0.000149182975 -0.311602831 0.950212359
vn -0.000545850722 -0.311599612 0.950213253
vn 0.000419544231 -0.311597764 0.950214028
vn 0.273781538 0.157515779 -0.948805749
vn 0.285295844 0.159612328 -0.945055604
vn 0.273143888 0.15880245 -0.948775053
vn 0.285595655 0.159169912 -0.94503969
vn -0.000800721347 -0.311601102 -0.950212538
vn 0.000148877501 -0.311600924 -0.950212955
vn 0.000545331277 -0.311597914 -0.95021379
vn -0.00041946338 -0.311596066 -0.950214505
vn 0.872250438 -0.489058971 0.000642185681
vn 0.872321546 -0.488932759 0.00010406255
vn 0.87225765 -0.489046127 0.000679384917
vn 0.872324169 -0.48892799 0.000100651756
vn 0.274396807 -0.152811676 0.949397206
vn 0.270875812 -0.153368205 0.950318098
vn 0.273751736 -0.153963953 0.949397206
vn 0.271203309 -0.152865097 0.95030582
vn -0.247737467 -0.143114433 0.958198488
vn -0.254536361 -0.152597427 0.95494771
vn -0.247767016 -0.143182799 0.958180606
vn -0.254561037 -0.152612358 0.954938769
vn 0.247742683 -0.14311783 -0.95819664
vn 0.254568934 -0.152645588 -0.954931378
vn 0.24779506 -0.143237919 -0.958165169
vn 0.25456658 -0.152615935 -0.954936802
vn -0.25714767 0.153391793 -0.954120517
vn -0.255439341 0.151042402 -0.954953909
vn -0.257348061 0.153658494 -0.95402354
vn -0.255430281 0.151000068 -0.954963088
vn -5.57154417e-05 -0.290299416 -0.956935883
vn -1.40741467e-05 -0.29017818 -0.956972659
vn -5.69585391e-05 -0.290288478 -0.956939101
vn -9.53803974e-05 -0.290361583 -0.956917048
vn -0.000122077763 0.299491107 0.954099059
vn -0.00013011694 0.299491107 0.954099059
vn -0.00012742079 0.299490601 0.954099238
vn -0.000134835529 0.299490571 0.954099238
vn -0.864273787 -0.503021717 -1.78204573e-05
vn -0.864273787 -0.503021717 -1.78204573e-05
vn -0.864273787 -0.503021717 -1.78204573e-05
vn -0.864273787 -0.503021717 -1.78204573e-05
vn -9.79891047e-06 -0.990233779 0.139417738
vn -0.00033118829 -0.990233123 0.139421612
vn 0.000664816471 -0.990233183 0.139420241
vn 0.000340374187 -0.9902336 0.139418572
vn -0.848679364 -0.501403809 0.168337554
vn -0.851949036 -0.496349871 0.166792199
vn -0.848723412 -0.501319051 0.168367788
vn -0.852056682 -0.496189713 0.166718915
vn -0.862227738 0.485840976 0.143254533
vn -0.862080634 0.486118764 0.143197298
vn -0.855919659 0.497933328 0.139513269
vn -0.855841577 0.498065948 0.139518708
vn 0.865023732 0.50173068 4.7563141e-08
vn 0.865023732 0.50173068 4.7563141e-08
vn 0.865023732 0.50173068 4.7563141e-08
vn 0.865023732 0.50173068 4.7563141e-08
vn -0.275335997 0.165084705 -0.947067797
vn -0.274029702 0.161724836 -0.948025823
vn -0.276118129 0.163989693 -0.947030246
vn -0.273769975 0.16229102 -0.948004127
vn 0.859180272 0.511672378 -0.000914465345
vn 0.859172821 0.511684895 -0.000909168855
vn 0.859167635 0.511693597 -0.000888522714
vn 0.85917753 0.511677027 -0.000896031037
vn 0.000230670397 -0.999999881 0.000236227585
vn -3.98322375e-10 -0.99999994 -7.30576357e-06
vn 0.000231168378 -0.999999881 0.000236119857
vn -3.98322375e-10 -0.99999994 -7.30576357e-06
vn -0.865447938 -0.500998616 -0.000473402441
vn -0.865450382 -0.500994503 -0.000453812303
vn -0.865456879 -0.500983298 -0.000459073606
vn -0.865439177 -0.501013935 -0.000466804951
vn -0.273730397 0.157517463 0.948820293
vn -0.285237819 0.1596248 0.945071042
vn -0.273132443 0.158827156 0.948774219
vn -0.285548389 0.159164935 0.945054829
vn 0.254767239 0.147518516 -0.955684006
vn 0.266771436 0.148912191 -0.952185988
vn 0.254766732 0.147502765 -0.955686569
vn 0.266755253 0.148892105 -0.952193677
vn 6.12586737e-05 0.299367785 -0.954137802
vn 7.44536519e-05 0.299358338 -0.954140723
vn -8.29012424e-06 0.299171269 -0.954199493
vn 0.000104729981 0.299456716 -0.954109907
vn -0.255778432 -0.1430704 -0.956090093
vn -0.252495915 -0.142748579 -0.957010269
vn -0.255923897 -0.143089682 -0.956048369
vn -0.252470613 -0.142736554 -0.957018793
vn -0.86427331 -0.503022552 -1.59492556e-05
vn -0.86427331 -0.503022552 -1.59492556e-05
vn -0.86427331 -0.503022552 -1.59492556e-05
vn -0.86427331 -0.503022552 -1.59492556e-05
vn 0.265644163 -0.154384047 -0.95162946
vn 0.272859961 -0.163076818 -0.948131561
vn 0.266390622 -0.153256163 -0.951603174
vn 0.272640109 -0.163506836 -0.948120713
vn 0.872320294 -0.488933772 0.00103572011
vn 0.872322381 -0.488930196 0.00103400124
vn 0.872326255 -0.488923222 0.0010431949
vn 0.872356474 -0.488869756 0.00071025081
vn -0.000429578271 0.999999821 -0.000205981123
vn -0.000429793057 0.999999821 -0.000205547927
vn -0.000429434323 0.999999821 -0.000205078381
vn -0.000429144129 0.999999821 -0.000205664226
vn -0.000840649009 0.320956826 0.947093368
vn 0.000153891742 0.3209562 0.947093904
vn 0.000567605661 0.320957243 0.947093427
vn -0.000417799689 0.320955694 0.947094023
vn -0.864087522 0.503341675 6.71109137e-06
vn -0.864087522 0.503341675 6.71109137e-06
vn -0.864087522 0.503341675 6.71109137e-06
vn -0.864087522 0.503341675 6.71109137e-06
vn 0.000161094358 -0.986483216 0.163862318
vn 0.000161305114 -0.986483157 0.163862839
vn 0.000156055205 -0.986483276 0.163862154
vn 0.000160881522 -0.986483157 0.16386269
vn -0.852343023 -0.502932489 0.1434232
vn -0.855265439 -0.498402774 0.141829565
vn -0.852183461 -0.503207147 0.143407762
vn -0.855118394 -0.498659045 0.141815409
vn 0.853490591 0.494791389 0.163509399
vn 0.853489935 0.49479413 0.16350475
vn 0.853489578 0.494795203 0.163503468
vn 0.853489399 0.494793773 0.163508102
vn 0.854829013 -0.492414176 0.163693368
vn 0.854832172 -0.492407948 0.163695902
vn 0.854830384 -0.492407888 0.163704932
vn 0.854830563 -0.492408544 0.163702428
vn 8.11755526e-05 0.99999994 5.95284428e-06
vn 8.11755526e-05 0.99999994 5.95284428e-06
vn 8.11755526e-05 0.99999994 5.95284428e-06
vn 8.11755526e-05 0.99999994 5.95284428e-06
vn 0.866269469 -0.499576896 -2.11063093e-06
vn 0.866269469 -0.499576896 -2.11063093e-06
vn 0.866269469 -0.499576896 -2.11063093e-06
vn 0.866269469 -0.499576896 -2.11063093e-06
vn -0.00055530807 0.990274131 0.139128685
vn -0.000248410041 0.990274191 0.139129579
vn 0.000418940705 0.99028033 0.139085814
vn 9.70335677e-05 0.990274549 0.139127091
vn 0.858313024 -0.493858039 0.139294192
vn 0.857986212 -0.49442482 0.139297187
vn 0.857998729 -0.494437486 0.139174908
vn 0.858163178 -0.494126976 0.139264181
vn -0.865865707 0.500275373 0.00106289983
vn -0.865872681 0.500263274 0.00107568491
vn -0.865869582 0.500268638 0.00107860402
vn -0.865869343 0.500269115 0.00105986372
vn 9.11505849e-05 9.93484427e-05 1
vn 9.11505849e-05 9.93484427e-05 1
vn 9.11505849e-05 9.93484427e-05 1
vn 9.11505849e-05 9.93484427e-05 1
vn 9.11505849e-05 9.93484427e-05 1
vn 9.11505849e-05 9.93484427e-05 1
f 1/1/1 2/2/2 3/3/3
f 3/3/3 2/2/2 4/4/4
f 5/5/5 6/6/6 7/7/7
f 6/6/6 5/5/5 8/8/8
f 9/9/9 10/10/10 11/11/11
f 10/10/10 9/9/9 12/12/12
f 13/13/13 14/14/14 15/15/15
f 15/15/15 14/14/14 16/16/16
f 17/17/17 18/18/18 19/19/19
f 19/19/19 20/20/20 17/17/17
f 21/21/21 22/22/22 23/23/23
f 23/23/23 24/24/24 21/21/21
f 24/24/24 23/23/23 25/25/25
f 22/22/22 21/21/21 26/26/26
f 27/27/27 28/28/28 29/29/29
f 29/29/29 30/30/30 27/27/27
f 31/31/31 32/32/32 33/33/33
f 32/32/32 34/34/34 33/33/33
f 35/35/35 36/36/36 37/37/37
f 36/36/36 35/35/35 38/38/38
f 39/39/39 40/40/40 41/41/41
f 41/41/41 40/40/40 42/42/42
f 43/43/43 44/44/44 45/45/45
f 46/46/46 45/45/45 44/44/44
f 47/47/47 48/48/48 49/49/49
f 50/50/50 49/49/49 48/48/48
f 51/51/51 52/52/52 53/53/53
f 52/52/52 51/51/51 54/54/54
f 55/55/55 56/56/56 57/57/57
f 56/56/56 55/55/55 58/58/58
f 59/59/59 60/60/60 61/61/61
f 60/60/60 59/59/59 62/62/62
f 63/63/63 64/64/64 65/65/65
f 64/64/64 63/63/63 66/66/66
f 67/67/67 68/68/68 69/69/69
f 68/68/68 67/67/67 70/70/70
f 71/71/71 72/72/72 73/73/73
f 72/72/72 71/71/71 74/74/74
f 75/75/75 76/76/76 77/77/77
f 76/76/76 75/75/75 78/78/78
f 79/79/79 80/80/80 81/81/81
f 81/81/81 80/80/80 82/82/82
f 83/83/83 84/84/84 85/85/85
f 85/85/85 86/86/86 83/83/83
f 86/86/86 85/85/85 87/87/87
f 84/84/84 83/83/83 88/88/88
f 89/89/89 90/90/90 91/91/91
f 90/90/90 89/89/89 92/92/92
f 93/93/93 94/94/94 95/95/95
f 95/95/95 96/96/96 93/93/93
f 97/97/97 98/98/98 99/99/99
f 98/98/98 100/100/100 99/99/99
f 101/101/101 102/102/102 103/103/103
f 102/102/102 104/104/104 103/103/103
f 105/105/105 106/106/106 107/107/107
f 106/106/106 105/105/105 108/108/108
f 109/109/109 110/110/110 111/111/111
f 111/111/111 110/110/110 112/112/112
f 113/113/113 114/114/114 115/115/115
f 114/114/114 113/113/113 116/116/116
f 117/117/117 118/118/118 119/119/119
f 120/120/120 119/119/119 118/118/118
f 121/121/121 122/122/122 123/123/123
f 122/122/122 121/121/121 124/124/124
f 125/125/125 126/126/126 127/127/127
f 126/126/126 125/125/125 128/128/128
f 129/129/129 130/130/130 131/131/131
f 130/130/130 129/129/129 132/132/132
f 133/133/133 134/134/134 135/135/135
f 134/134/134 133/133/133 136/136/136
f 137/137/137 138/138/138 139/139/139
f 138/138/138 137/137/137 140/140/140
f 141/141/141 142/142/142 143/143/143
f 142/142/142 141/141/141 144/144/144
f 145/145/145 146/146/146 147/147/147
f 145/145/145 147/147/147 148/148/148
f 149/149/149 150/150/150 151/151/151
f 149/149/149 151/151/151 152/152/152
f 153/153/153 154/154/154 155/155/155
f 154/154/154 153/153/153 156/156/156
f 157/157/157 158/158/158 159/159/159
f 158/158/158 157/157/157 160/160/160
f 161/161/161 162/162/162 163/163/163
f 162/162/162 161/161/161 164/164/164
f 165/165/165 166/166/166 167/167/167
f 166/166/166 165/165/165 168/168/168
f 169/169/169 170/170/170 171/171/171
f 170/170/170 169/169/169 172/172/172
f 173/173/173 174/174/174 175/175/175
f 174/174/174 173/173/173 176/176/176
f 177/177/177 178/178/178 179/179/179
f 178/178/178 177/177/177 180/180/180
f 181/181/181 182/182/182 183/183/183
f 184/184/184 183/183/183 182/182/182
f 185/185/185 186/186/186 187/187/187
f 186/186/186 185/185/185 188/188/188
f 189/189/189 190/190/190 191/191/191
f 190/190/190 189/189/189 192/192/192
f 193/193/193 194/194/194 195/195/195
f 194/194/194 193/193/193 196/196/196
f 197/197/197 198/198/198 199/199/199
f 198/198/198 197/197/197 200/200/200
f 201/201/201 202/202/202 203/203/203
f 202/202/202 201/201/201 204/204/204
f 205/205/205 206/206/206 207/207/207
f 206/206/206 205/205/205 208/208/208
f 209/209/209 210/210/210 211/211/211
f 210/210/210 209/209/209 212/212/212
f 213/213/213 214/214/214 215/215/215
f 214/214/214 213/213/213 216/216/216
f 217/217/217 218/218/218 219/219/219
f 218/218/218 217/217/217 220/220/220
f 221/221/221 222/222/222 223/223/223
f 222/222/222 221/221/221 224/224/224
f 225/225/225 226/226/226 227/227/227
f 226/226/226 225/225/225 228/228/228
f 229/229/229 230/230/230 231/231/231
f 230/230/230 229/229/229 232/232/232
f 233/233/233 234/234/234 235/235/235
f 234/234/234 233/233/233 236/236/236
f 237/237/237 238/238/238 239/239/239
f 239/239/239 238/238/238 240/240/240
f 241/241/241 242/242/242 243/243/243
f 243/243/243 244/244/244 241/241/241
f 245/245/245 246/246/246 247/247/247
f 246/246/246 245/245/245 248/248/248
f 249/249/249 250/250/250 251/251/251
f 251/251/251 252/252/252 249/249/249
f 253/253/253 254/254/254 255/255/255
f 254/254/254 256/256/256 255/255/255
f 257/257/257 258/258/258 259/259/259
f 259/259/259 258/258/258 260/260/260
f 261/261/261 262/262/262 263/263/263
f 263/263/263 262/262/262 264/264/264
f 265/265/265 266/266/266 267/267/267
f 268/268/268 267/267/267 266/266/266
f 269/269/269 270/270/270 271/271/271
f 270/270/270 269/269/269 272/272/272
f 273/273/273 274/274/274 275/275/275
f 274/274/274 273/273/273 276/276/276
f 277/277/277 278/278/278 279/279/279
f 278/278/278 277/277/277 280/280/280
f 281/281/281 282/282/282 283/283/283
f 282/282/282 281/281/281 284/284/284
f 285/285/285 286/286/286 287/287/287
f 288/288/288 287/287/287 286/286/286
f 289/289/289 290/290/290 291/291/291
f 292/292/292 291/291/291 290/290/290
f 293/293/293 294/294/294 295/295/295
f 294/294/294 293/293/293 296/296/296
f 297/297/297 298/298/298 299/299/299
f 298/298/298 297/297/297 300/300/300
f 301/301/301 302/302/302 303/303/303
f 302/302/302 301/301/301 304/304/304
f 305/305/305 306/306/306 307/307/307
f 306/306/306 305/305/305 308/308/308
f 309/309/309 310/310/310 311/311/311
f 310/310/310 309/309/309 312/312/312
f 313/313/313 314/314/314 315/315/315
f 314/314/314 313/313/313 316/316/316
f 317/317/317 318/318/318 319/319/319
f 318/318/318 317/317/317 320/320/320
f 321/321/321 322/322/322 323/323/323
f 322/322/322 321/321/321 324/324/324
f 325/325/325 326/326/326 327/327/327
f 326/326/326 325/325/325 328/328/328
f 329/329/329 330/330/330 331/331/331
f 330/330/330 329/329/329 332/332/332
f 333/333/333 334/334/334 335/335/335
f 335/335/335 336/336/336 333/333/333
f 337/337/337 338/338/338 339/339/339
f 338/338/338 337/337/337 340/340/340
f 341/341/341 342/342/342 343/343/343
f 342/342/342 344/344/344 343/343/343
f 345/345/345 346/346/346 347/347/347
f 346/346/346 345/345/345 348/348/348
f 349/349/349 350/350/350 351/351/351
f 350/350/350 349/349/349 352/352/352
f 353/353/353 354/354/354 355/355/355
f 355/355/355 354/354/354 356/356/356
f 357/357/357 358/358/358 359/359/359
f 358/358/358 357/357/357 360/360/360
f 361/361/361 362/362/362 363/363/363
f 362/362/362 364/364/364 363/363/363
f 365/365/365 366/366/366 367/367/367
f 366/366/366 365/365/365 368/368/368
f 369/369/369 370/370/370 371/371/371
f 372/372/372 371/371/371 370/370/370
f 373/373/373 374/374/374 375/375/375
f 374/374/374 373/373/373 376/376/376
f 377/377/377 378/378/378 379/379/379
f 379/379/379 380/380/380 377/377/377
f 380/380/380 379/379/379 381/381/381
f 378/378/378 377/377/377 382/382/382
f 383/383/383 384/384/384 385/385/385
f 383/383/383 385/385/385 386/386/386
f 387/387/387 388/388/388 389/389/389
f 388/388/388 387/387/387 390/390/390
f 391/391/391 392/392/392 393/393/393
f 392/392/392 391/391/391 394/394/394
f 395/395/395 396/396/396 397/397/397
f 396/396/396 395/395/395 398/398/398
f 399/399/399 400/400/400 401/401/401
f 400/400/400 399/399/399 402/402/402
f 403/403/403 404/404/404 405/405/405
f 404/404/404 403/403/403 406/406/406
f 407/407/407 408/408/408 409/409/409
f 408/408/408 407/407/407 410/410/410
f 411/411/411 412/412/412 413/413/413
f 412/412/412 411/411/411 414/414/414
f 415/415/415 416/416/416 417/417/417
f 418/418/418 417/417/417 416/416/416
f 419/419/419 420/420/420 421/421/421
f 420/420/420 419/419/419 422/422/422
f 423/423/423 424/424/424 425/425/425
f 425/425/425 424/424/424 426/426/426
f 427/427/427 428/428/428 429/429/429
f 430/430/430 429/429/429 428/428/428
f 431/431/431 432/432/432 433/433/433
f 432/432/432 431/431/431 434/434/434
f 435/435/435 436/436/436 437/437/437
f 436/436/436 438/438/438 437/437/437
f 439/439/439 440/440/440 441/441/441
f 442/442/442 441/441/441 440/440/440
f 443/443/443 444/444/444 445/445/445
f 445/445/445 444/444/444 446/446/446
f 447/447/447 448/448/448 449/449/449
f 449/449/449 450/450/450 447/447/447
f 451/451/451 452/452/452 453/453/453
f 452/452/452 451/451/451 454/454/454
f 455/455/455 456/456/456 457/457/457
f 456/456/456 455/455/455 458/458/458
f 459/459/459 460/460/460 461/461/461
f 460/460/460 459/459/459 462/462/462
f 463/463/463 464/464/464 465/465/465
f 465/465/465 464/464/464 466/466/466
f 467/467/467 468/468/468 469/469/469
f 468/468/468 467/467/467 470/470/470
f 471/471/471 472/472/472 473/473/473
f 472/472/472 471/471/471 474/474/474
f 475/475/475 476/476/476 477/477/477
f 476/476/476 475/475/475 478/478/478
f 479/479/479 480/480/480 481/481/481
f 480/480/480 479/479/479 482/482/482
f 483/483/483 484/484/484 485/485/485
f 485/485/485 486/486/486 483/483/483
f 487/487/487 488/488/488 489/489/489
f 488/488/488 490/490/490 489/489/489
f 491/491/491 492/492/492 493/493/493
f 492/492/492 491/491/491 494/494/494
f 495/495/495 496/496/496 497/497/497
f 496/496/496 495/495/495 498/498/498
f 499/499/499 500/500/500 501/501/501
f 501/501/501 502/502/502 499/499/499
f 502/502/502 501/501/501 503/503/503
f 500/500/500 499/499/499 504/504/504
f 505/505/505 506/506/506 507/507/507
f 507/507/507 506/506/506 508/508/508
f 509/509/509 510/510/510 511/511/511
f 510/510/510 509/509/509 512/512/512
f 513/513/513 514/514/514 515/515/515
f 514/514/514 513/513/513 516/516/516
f 517/517/517 518/518/518 519/519/519
f 519/519/519 518/518/518 520/520/520
f 521/521/521 522/522/522 523/523/523
f 523/523/523 524/524/524 521/521/521
f 524/524/524 523/523/523 525/525/525
f 522/522/522 521/521/521 526/526/526
f 527/527/527 528/528/528 529/529/529
f 529/529/529 528/528/528 530/530/530
f 531/531/531 532/532/532 533/533/533
f 534/534/534 533/533/533 532/532/532
f 535/535/535 536/536/536 537/537/537
f 538/538/538 537/537/537 536/536/536
f 539/539/539 540/540/540 541/541/541
f 540/540/540 539/539/539 542/542/542
f 543/543/543 544/544/544 545/545/545
f 544/544/544 543/543/543 546/546/546
f 547/547/547 548/548/548 549/549/549
f 548/548/548 547/547/547 550/550/550
f 551/551/551 552/552/552 553/553/553
f 553/553/553 552/552/552 554/554/554
f 555/555/555 556/556/556 557/557/557
f 557/557/557 558/558/558 555/555/555
f 559/559/559 560/560/560 561/561/561
f 560/560/560 562/562/562 561/561/561
f 563/563/563 564/564/564 565/565/565
f 564/564/564 566/566/566 565/565/565
f 567/567/567 568/568/568 569/569/569
f 570/570/570 569/569/569 568/568/568
f 571/571/571 572/572/572 573/573/573
f 572/572/572 571/571/571 574/574/574
f 575/575/575 576/576/576 577/577/577
f 576/576/576 575/575/575 578/578/578
f 579/579/579 580/580/580 581/581/581
f 580/580/580 579/579/579 582/582/582
f 583/583/583 584/584/584 585/585/585
f 584/584/584 583/583/583 586/586/586
f 587/587/587 588/588/588 589/589/589
f 588/588/588 587/587/587 590/590/590
f 591/591/591 592/592/592 593/593/593
f 591/591/591 593/593/593 594/594/594
f 595/595/595 596/596/596 597/597/597
f 596/596/596 595/595/595 598/598/598
f 599/599/599 600/600/600 601/601/601
f 600/600/600 599/599/599 602/602/602
f 603/603/603 604/604/604 605/605/605
f 604/604/604 603/603/603 606/606/606
f 607/607/607 608/608/608 609/609/609
f 608/608/608 607/607/607 610/610/610
f 611/611/611 612/612/612 613/613/613
f 612/612/612 611/611/611 614/614/614
f 615/615/615 616/616/616 617/617/617
f 616/616/616 615/615/615 618/618/618
f 619/619/619 620/620/620 621/621/621
f 620/620/620 619/619/619 622/622/622
f 623/623/623 624/624/624 625/625/625
f 624/624/624 623/623/623 626/626/626
f 627/627/627 628/628/628 629/629/629
f 628/628/628 627/627/627 630/630/630
f 631/631/631 632/632/632 633/633/633
f 632/632/632 631/631/631 634/634/634
f 635/635/635 636/636/636 637/637/637
f 636/636/636 635/635/635 638/638/638
f 639/639/639 640/640/640 641/641/641
f 640/640/640 639/639/639 642/642/642
f 643/643/643 644/644/644 645/645/645
f 645/645/645 646/646/646 643/643/643
f 647/647/647 648/648/648 649/649/649
f 648/648/648 647/647/647 650/650/650
f 651/651/651 652/652/652 653/653/653
f 653/653/653 654/654/654 651/651/651
f 655/655/655 656/656/656 657/657/657
f 657/657/657 656/656/656 658/658/658
f 659/659/659 660/660/660 661/661/661
f 660/660/660 659/659/659 662/662/662
f 663/663/663 664/664/664 665/665/665
f 664/664/664 663/663/663 666/666/666
f 667/667/667 668/668/668 669/669/669
f 670/670/670 669/669/669 668/668/668
f 671/671/671 672/672/672 673/673/673
f 674/674/674 673/673/673 672/672/672
f 675/675/675 676/676/676 677/677/677
f 676/676/676 675/675/675 678/678/678
f 679/679/679 680/680/680 681/681/681
f 680/680/680 679/679/679 682/682/682
f 683/683/683 684/684/684 685/685/685
f 684/684/684 683/683/683 686/686/686
f 687/687/687 688/688/688 689/689/689
f 688/688/688 687/687/687 690/690/690
f 691/691/691 692/692/692 693/693/693
f 692/692/692 691/691/691 694/694/694
f 695/695/695 696/696/696 697/697/697
f 696/696/696 695/695/695 698/698/698
f 699/699/699 700/700/700 701/701/701
f 700/700/700 699/699/699 702/702/702
f 703/703/703 704/704/704 705/705/705
f 704/704/704 703/703/703 706/706/706
f 707/707/707 708/708/708 709/709/709
f 708/708/708 707/707/707 710/710/710
f 711/711/711 712/712/712 713/713/713
f 712/712/712 711/711/711 714/714/714
f 715/715/715 716/716/716 717/717/717
f 717/717/717 718/718/718 715/715/715
f 719/719/719 720/720/720 721/721/721
f 720/720/720 719/719/719 722/722/722
f 723/723/723 724/724/724 725/725/725
f 724/724/724 726/726/726 725/725/725
f 727/727/727 728/728/728 729/729/729
f 728/728/728 727/727/727 730/730/730
f 731/731/731 732/732/732 733/733/733
f 732/732/732 731/731/731 734/734/734
f 735/735/735 736/736/736 737/737/737
f 737/737/737 736/736/736 738/738/738
f 739/739/739 740/740/740 741/741/741
f 740/740/740 742/742/742 741/741/741
f 743/743/743 744/744/744 745/745/745
f 744/744/744 743/743/743 746/746/746
f 747/747/747 748/748/748 749/749/749
f 750/750/750 749/749/749 748/748/748
f 751/751/751 752/752/752 753/753/753
f 753/753/753 754/754/754 751/751/751
f 754/754/754 753/753/753 755/755/755
f 752/752/752 751/751/751 756/756/756
