# Extracted from the Cocos Creator 3.8.3 playable build
# Geometry-only OBJ preview for Unity; rig and animation stay in the raw assets.
o zhalan_broken
v 0.00679820776 -0.909982204 0.792060733
v 0.00679785758 -0.909982681 -2.53054667
v -0.218154162 -1.04045939 0.757099271
v -0.21815452 -1.04045987 -2.53054667
v -0.218166202 -1.10401058 0.740070939
v -0.21815452 -1.04045987 -2.53054667
v -0.218161404 -1.30226421 0.686948895
v -0.218204141 -1.30226433 -2.53054667
v -0.218154162 -1.04045939 0.757099271
v 0.212416112 -0.48082751 1.40254152
v 0.00574012846 -0.361646354 -2.5249114
v 0.00574050099 -0.361645699 1.43447626
v 0.212385535 -0.480827332 -2.5249114
v 0.289991379 -0.761273861 0.198340774
v 0.289945781 -0.435392439 0.197805762
v 0.289946795 -0.761253119 0.34460032
v 0.289825678 -0.430130839 0.344582438
v -0.275071084 -0.756840646 0.198149085
v 0.00719116628 -0.924938679 0.197995305
v -0.274901927 -0.761976957 0.344273448
v 0.00719324499 -0.92493856 0.344446063
v -0.275070071 -0.43980515 0.344256043
v 0.00719233602 -0.394630551 0.403884292
v 0.00719224662 -0.271706879 0.344410539
v -0.170026481 -0.499404728 0.403881669
v 0.00236292183 -1.39654577 0.630481362
v 0.311377347 -1.35237801 0.569316506
v 0.19332397 -1.28203928 0.630483747
v 0.00236330926 -1.53126609 0.569157004
v 0.289825678 -0.430130839 0.344582438
v 0.181925714 -0.696892142 0.403886914
v 0.289946795 -0.761253119 0.34460032
v 0.18184644 -0.493374765 0.403886914
v 0.0071842894 -0.257364988 0.600892425
v 0.298928559 -0.215665713 0.543038964
v 0.18747288 -0.149258271 0.600894809
v 0.00718464702 -0.38455534 0.542888522
v 0.18738994 -0.155839756 0.34193337
v 0.00718250871 -0.384555399 0.399973512
v 0.00718259066 -0.257723689 0.341935754
v 0.298974574 -0.215687677 0.400310636
v -0.175671041 -0.149618074 0.3419379
v -0.283881068 0.12130291 0.400107026
v -0.175581664 0.0603702366 0.341937661
v -0.284054518 -0.211112723 0.400123954
v -0.20674181 -0.176049367 -2.53020811
v -0.206694573 0.0711250007 1.07054675
v -0.206694931 0.0711244196 -2.53020811
v -0.20669359 -0.176049128 1.31772149
v 0.00568565726 0.19430916 0.947362065
v -0.206694931 0.0711244196 -2.53020811
v -0.206694573 0.0711250007 1.07054675
v 0.00568531454 0.194308594 -2.53020811
v 0.00718360394 0.289445847 0.542853951
v -0.283881068 0.12130291 0.400107026
v -0.284053385 0.116003074 0.542703748
v 0.00718360394 0.289445817 0.399938703
v 0.00719116628 -0.924938679 0.197995305
v 0.289991379 -0.761273861 0.198340774
v 0.00719324499 -0.92493856 0.344446063
v 0.289946795 -0.761253119 0.34460032
v -0.275070071 -0.43980515 0.344256043
v -0.275071084 -0.756840646 0.198149085
v -0.274901927 -0.761976957 0.344273448
v -0.275070071 -0.43980515 0.197957873
v -0.306114972 -1.00107551 0.568961263
v 0.00236231089 -0.951705694 0.630480886
v 0.00236219913 -0.817366242 0.569120526
v -0.191315532 -1.06621075 0.630478501
v -0.284053385 0.116003074 0.542703748
v 0.00718370825 0.162614033 0.600891709
v 0.00718360394 0.289445847 0.542853951
v -0.175669909 0.0545084924 0.600889564
v 0.00719324499 -0.92493856 0.344446063
v -0.169939876 -0.702921689 0.403882146
v -0.274901927 -0.761976957 0.344273448
v 0.00719289482 -0.801667452 0.403884292
v 0.193236113 -1.28901076 0.356699109
v 0.00236103684 -1.53126609 0.418062091
v 0.00236112624 -1.39692569 0.356701255
v 0.311243832 -1.35812843 0.417883992
v -0.191316694 -1.28242111 0.356703877
v -0.305932403 -0.995462894 0.418202519
v -0.191222072 -1.06000233 0.356703639
v -0.306116045 -1.34755588 0.418220639
v -0.275070071 -0.43980515 0.344256043
v 0.00719224662 -0.271706879 0.344410539
v 0.00719223171 -0.271706879 0.197960019
v -0.275070071 -0.43980515 0.197957873
v 0.00718360394 0.289445847 0.542853951
v 0.298803568 0.125984967 0.543021798
v 0.298826575 0.125991404 0.400125146
v 0.00718360394 0.289445817 0.399938703
v 0.298974574 -0.215687677 0.400310636
v 0.298803568 0.125984967 0.543021798
v 0.298928559 -0.215665713 0.543038964
v 0.298826575 0.125991404 0.400125146
v 0.298803568 0.125984967 0.543021798
v 0.18747288 -0.149258271 0.600894809
v 0.298928559 -0.215665713 0.543038964
v 0.187391043 0.0607301146 0.600894094
v 0.18184644 -0.493374765 0.403886914
v 0.00719224662 -0.271706879 0.344410539
v 0.00719233602 -0.394630551 0.403884292
v 0.289825678 -0.430130839 0.344582438
v 0.311244965 -0.99050355 0.56929791
v 0.19332397 -1.28203928 0.630483747
v 0.311377347 -1.35237801 0.569316506
v 0.193237245 -1.05962074 0.63048327
v 0.00236219913 -0.817366242 0.418024898
v -0.191222072 -1.06000233 0.356703639
v -0.305932403 -0.995462894 0.418202519
v 0.0023617968 -0.952086329 0.356701016
v 0.311243832 -1.35812843 0.417883992
v 0.193322837 -1.06659257 0.356698394
v 0.311376333 -0.996254086 0.417865872
v 0.193236113 -1.28901076 0.356699109
v 0.289825678 -0.430130839 0.344582438
v 0.00719223171 -0.271706879 0.197960019
v 0.00719224662 -0.271706879 0.344410539
v 0.289945781 -0.435392439 0.197805762
v -0.284054518 -0.211112723 0.400123954
v 0.00718250871 -0.384555399 0.399973512
v -0.283880055 -0.216412559 0.542720199
v 0.00718464702 -0.38455534 0.542888522
v 0.193237245 -1.05962074 0.63048327
v 0.00236219913 -0.817366242 0.569120526
v 0.00236231089 -0.951705694 0.630480886
v 0.311244965 -0.99050355 0.56929791
v 0.00719289482 -0.801667452 0.403884292
v 0.289946795 -0.761253119 0.34460032
v 0.181925714 -0.696892142 0.403886914
v 0.00719324499 -0.92493856 0.344446063
v 0.00718464702 -0.38455534 0.542888522
v -0.175580591 -0.155479953 0.60089004
v -0.283880055 -0.216412559 0.542720199
v 0.0071842894 -0.257364988 0.600892425
v 0.00718360394 0.289445817 0.399938703
v -0.175581664 0.0603702366 0.341937661
v -0.283881068 0.12130291 0.400107026
v 0.00718322396 0.162255287 0.341935277
v 0.298974574 -0.215687677 0.400310636
v 0.187471807 0.0541485846 0.341932893
v 0.298826575 0.125991404 0.400125146
v 0.18738994 -0.155839756 0.34193337
v -0.284054518 -0.211112723 0.400123954
v 0.00718259066 -0.257723689 0.341935754
v 0.00718250871 -0.384555399 0.399973512
v -0.175671041 -0.149618074 0.3419379
v 0.00719187409 -0.394978106 0.138520598
v 0.289945781 -0.435392439 0.197805762
v 0.181924701 -0.499753475 0.138518453
v 0.00719223171 -0.271706879 0.197960019
v 0.00718322396 0.162255287 0.341935277
v 0.298826575 0.125991404 0.400125146
v 0.187471807 0.0541485846 0.341932893
v 0.00718360394 0.289445817 0.399938703
v -0.275071084 -0.756840646 0.198149085
v 0.00719125569 -0.802015185 0.138521314
v 0.00719116628 -0.924938679 0.197995305
v -0.170027524 -0.697241127 0.138523698
v -0.175669909 0.0545084924 0.600889564
v -0.283880055 -0.216412559 0.542720199
v -0.175580591 -0.155479953 0.60089004
v -0.284053385 0.116003074 0.542703748
v 0.289991379 -0.761273861 0.198340774
v 0.181924701 -0.499753475 0.138518453
v 0.289945781 -0.435392439 0.197805762
v 0.181845367 -0.703270793 0.138518691
v -0.170026481 -0.499404728 0.403881669
v -0.274901927 -0.761976957 0.344273448
v -0.169939876 -0.702921689 0.403882146
v -0.275070071 -0.43980515 0.344256043
v 0.00574050099 -0.361645699 1.43447626
v 0.00574012846 -0.361646354 -2.5249114
v -0.200095028 -0.481034219 1.40248621
v -0.200095415 -0.481034875 -2.5249114
v 0.21893084 0.071337536 1.07033455
v 0.218901157 0.0713379234 -2.53020811
v 0.00568565726 0.19430916 0.947362065
v 0.00568531454 0.194308594 -2.53020811
v 0.00718250871 -0.384555399 0.399973512
v 0.298974574 -0.215687677 0.400310636
v 0.00718464702 -0.38455534 0.542888522
v 0.298928559 -0.215665713 0.543038964
v 0.187391043 0.0607301146 0.600894094
v 0.00718360394 0.289445847 0.542853951
v 0.00718370825 0.162614033 0.600891709
v 0.298803568 0.125984967 0.543021798
v -0.306116045 -1.34755588 0.418220639
v 0.00236112624 -1.39692569 0.356701255
v 0.00236103684 -1.53126609 0.418062091
v -0.191316694 -1.28242111 0.356703877
v 0.00236219913 -0.817366242 0.569120526
v -0.305932403 -0.995462894 0.418202519
v -0.306114972 -1.00107551 0.568961263
v 0.00236219913 -0.817366242 0.418024898
v -0.284053385 0.116003074 0.542703748
v -0.284054518 -0.211112723 0.400123954
v -0.283880055 -0.216412559 0.542720199
v -0.283881068 0.12130291 0.400107026
v 0.311243832 -1.35812843 0.417883992
v 0.311376333 -0.996254086 0.417865872
v 0.311377347 -1.35237801 0.569316506
v 0.311244965 -0.99050355 0.56929791
v 0.00236103684 -1.53126609 0.418062091
v 0.311243832 -1.35812843 0.417883992
v 0.00236330926 -1.53126609 0.569157004
v 0.311377347 -1.35237801 0.569316506
v 0.00236330926 -1.53126609 0.569157004
v -0.191220969 -1.28862965 0.630478978
v -0.30593133 -1.35316908 0.568979383
v 0.00236292183 -1.39654577 0.630481362
v 0.00719223171 -0.271706879 0.197960019
v -0.169940948 -0.493723512 0.138523221
v -0.275070071 -0.43980515 0.197957873
v 0.00719187409 -0.394978106 0.138520598
v -0.170027524 -0.697241127 0.138523698
v -0.275070071 -0.43980515 0.197957873
v -0.169940948 -0.493723512 0.138523221
v -0.275071084 -0.756840646 0.198149085
v 0.181845367 -0.703270793 0.138518691
v 0.00719116628 -0.924938679 0.197995305
v 0.00719125569 -0.802015185 0.138521314
v 0.289991379 -0.761273861 0.198340774
v 0.0023617968 -0.952086329 0.356701016
v 0.311376333 -0.996254086 0.417865872
v 0.193322837 -1.06659257 0.356698394
v 0.00236219913 -0.817366242 0.418024898
v 0.311244965 -0.99050355 0.56929791
v 0.00236219913 -0.817366242 0.418024898
v 0.00236219913 -0.817366242 0.569120526
v 0.311376333 -0.996254086 0.417865872
v -0.306114972 -1.00107551 0.568961263
v -0.306116045 -1.34755588 0.418220639
v -0.30593133 -1.35316908 0.568979383
v -0.305932403 -0.995462894 0.418202519
v -0.191315532 -1.06621075 0.630478501
v -0.30593133 -1.35316908 0.568979383
v -0.191220969 -1.28862965 0.630478978
v -0.306114972 -1.00107551 0.568961263
v -0.200100362 -0.509268582 1.39492047
v -0.200095415 -0.481034875 -2.5249114
v -0.200095177 -0.72059077 1.33829701
v -0.200140864 -0.720590413 -2.52491093
v -0.200095028 -0.481034219 1.40248621
v 0.232664049 -1.04023325 0.757160306
v 0.00679785758 -0.909982681 -2.53054667
v 0.00679820776 -0.909982204 0.792060733
v 0.232635319 -1.04023325 -2.53054667
v -0.306116045 -1.34755588 0.418220639
v 0.00236103684 -1.53126609 0.418062091
v -0.30593133 -1.35316908 0.568979383
v 0.00236330926 -1.53126609 0.569157004
v -0.119338863 0.593234122 0.467630506
v 0.359210461 0.712415397 -2.48852491
v -0.347708285 0.712415934 0.536657691
v 0.560434937 0.593234301 -2.44150305
v -0.347708285 0.712415934 0.536657691
v 0.359210461 0.712415397 -2.48852491
v -0.528749406 0.593027294 0.406822562
v 0.158774614 0.593026817 -2.53536272
v -0.520068467 0.554846585 0.3696419
v 0.158730417 0.353471309 -2.53537273
v -0.52457279 0.353470832 0.388926148
v 0.158774614 0.593026817 -2.53536272
v -0.528749406 0.593027294 0.406822562
v 0.212415934 1.72767198 1.37988102
v 0.212385535 1.72767222 -2.5249114
v 0.00574049354 1.84685373 1.34794724
v 0.00574012846 1.84685314 -2.5249114
v 0.289991379 1.44722557 0.198340535
v 0.289945781 1.77310693 0.197805524
v 0.289946795 1.44724631 0.344600081
v 0.289825678 1.77836859 0.3445822
v -0.275071084 1.45165873 0.198148847
v 0.00719116628 1.28356075 0.197995067
v -0.274901927 1.44652247 0.34427321
v 0.00719324499 1.28356087 0.344445825
v -0.275070071 1.76869428 0.344255567
v 0.00719233602 1.81386888 0.403884053
v 0.00719224662 1.93679261 0.344410062
v -0.170026481 1.70909476 0.403881192
v 0.289825678 1.77836859 0.3445822
v 0.181925714 1.51160729 0.403886676
v 0.289946795 1.44724631 0.344600081
v 0.18184644 1.71512473 0.403886437
v 0.00719116628 1.28356075 0.197995067
v 0.289991379 1.44722557 0.198340535
v 0.00719324499 1.28356087 0.344445825
v 0.289946795 1.44724631 0.344600081
v -0.275070071 1.76869428 0.344255567
v -0.275071084 1.45165873 0.198148847
v -0.274901927 1.44652247 0.34427321
v -0.275070071 1.76869416 0.197957635
v 0.00719324499 1.28356087 0.344445825
v -0.169939876 1.5055778 0.403881907
v -0.274901927 1.44652247 0.34427321
v 0.00719289482 1.40683198 0.403884053
v -0.275070071 1.76869428 0.344255567
v 0.00719224662 1.93679261 0.344410062
v 0.00719223171 1.93679249 0.197959542
v -0.275070071 1.76869416 0.197957635
v 0.18184644 1.71512473 0.403886437
v 0.00719224662 1.93679261 0.344410062
v 0.00719233602 1.81386888 0.403884053
v 0.289825678 1.77836859 0.3445822
v 0.289825678 1.77836859 0.3445822
v 0.00719223171 1.93679249 0.197959542
v 0.00719224662 1.93679261 0.344410062
v 0.289945781 1.77310693 0.197805524
v 0.00719289482 1.40683198 0.403884053
v 0.289946795 1.44724631 0.344600081
v 0.181925714 1.51160729 0.403886676
v 0.00719324499 1.28356087 0.344445825
v 0.00719187409 1.81352127 0.138520122
v 0.289945781 1.77310693 0.197805524
v 0.181924701 1.70874596 0.138517976
v 0.00719223171 1.93679249 0.197959542
v -0.275071084 1.45165873 0.198148847
v 0.00719125569 1.40648425 0.138521075
v 0.00719116628 1.28356075 0.197995067
v -0.170027524 1.51125824 0.138523459
v 0.289991379 1.44722557 0.198340535
v 0.181924701 1.70874596 0.138517976
v 0.289945781 1.77310693 0.197805524
v 0.181845367 1.50522852 0.138518453
v -0.170026481 1.70909476 0.403881192
v -0.274901927 1.44652247 0.34427321
v -0.169939876 1.5055778 0.403881907
v -0.275070071 1.76869428 0.344255567
v 0.00574049354 1.84685373 1.34794724
v -0.200095415 1.72746456 -2.5249114
v -0.200095028 1.72746503 1.37993729
v 0.00574012846 1.84685314 -2.5249114
v 0.00719223171 1.93679249 0.197959542
v -0.169940948 1.7147758 0.138522744
v -0.275070071 1.76869416 0.197957635
v 0.00719187409 1.81352127 0.138520122
v -0.170027524 1.51125824 0.138523459
v -0.275070071 1.76869416 0.197957635
v -0.169940948 1.7147758 0.138522744
v -0.275071084 1.45165873 0.198148847
v 0.181845367 1.50522852 0.138518453
v 0.00719116628 1.28356075 0.197995067
v 0.00719125569 1.40648425 0.138521075
v 0.289991379 1.44722557 0.198340535
v -0.200095028 1.72746503 1.37993729
v -0.200140864 1.48790908 -2.5249114
v -0.200093925 1.48790872 1.44412625
v -0.200095415 1.72746456 -2.5249114
v 0.214155942 -0.178511843 1.32018363
v -0.202465802 -0.178511873 1.32018363
v 0.0057894215 -0.299821973 1.44149482
v -0.20669359 -0.176049128 1.31772149
v 0.00566342473 -0.299777806 -2.53020811
v -0.202465802 -0.178511873 1.32018363
v -0.20674181 -0.176049367 -2.53020811
v 0.0057894215 -0.299821973 1.44149482
v -0.200100362 -0.509268582 1.39492047
v 0.212416112 -0.48082751 1.40254152
v 0.00574050099 -0.361645699 1.43447626
v 0.212443411 -0.720265687 1.33838403
v 0.00583355129 -0.840546966 1.30615485
v -0.200095028 -0.481034219 1.40248621
v -0.200095177 -0.72059077 1.33829701
v 0.214155942 -0.178511843 1.32018363
v 0.00566342473 -0.299777806 -2.53020811
v 0.218962252 -0.175713524 1.31738555
v 0.0057894215 -0.299821973 1.44149482
v 0.21890372 -0.175712332 -2.53020811
v 0.359189808 0.233554751 -2.48852968
v -0.122837655 0.353796065 0.482713342
v -0.331365883 0.233518526 0.467081666
v 0.560437381 0.353797406 -2.44150257
v 0.00568565726 0.19430916 0.947362065
v 0.21893084 0.071337536 1.07033455
v -0.206694573 0.0711250007 1.07054675
v -0.20669359 -0.176049128 1.31772149
v 0.218962252 -0.175713524 1.31738555
v -0.218161404 -1.30226421 0.686948895
v -0.218204141 -1.30226433 -2.53054667
v 0.00688173622 -1.43335474 0.65182364
v 0.00677467138 -1.43331766 -2.53054667
v 0.00583764911 1.36795115 1.44304097
v 0.212388039 1.48823524 -2.5249114
v 0.212444931 1.48823369 1.44403946
v 0.00571892411 1.36799252 -2.5249114
v 0.073368229 1.4072597 1.46573603
v 0.073368229 1.4072597 1.46573603
v -0.0616433844 1.4072597 1.46573651
v 0.00583764911 1.36795115 1.44304097
v -0.52457279 0.353470832 0.388926148
v 0.359189808 0.233554751 -2.48852968
v -0.331365883 0.233518526 0.467081666
v 0.158730417 0.353471309 -2.53537273
v -0.347708285 0.712415934 0.536657691
v -0.528749406 0.593027294 0.406822562
v -0.520068467 0.554846585 0.3696419
v -0.110603742 0.554846585 0.43024981
v -0.119338863 0.593234122 0.467630506
v 0.212444931 1.48823369 1.44403946
v 0.212388039 1.48823524 -2.5249114
v 0.212415934 1.72767198 1.37988102
v 0.212385535 1.72767222 -2.5249114
v -0.200093925 1.48790872 1.44412625
v -0.200140864 1.48790908 -2.5249114
v 0.00583764911 1.36795115 1.44304097
v -0.0616433844 1.4072597 1.46573651
v 0.00571892411 1.36799252 -2.5249114
v 0.00583355129 -0.840546966 1.30615485
v 0.212388039 -0.720264256 -2.52491093
v 0.212443411 -0.720265687 1.33838403
v 0.00571892411 -0.840506911 -2.52491093
v 0.232689917 -1.30190885 0.687044263
v 0.232635319 -1.04023325 -2.53054667
v 0.232664049 -1.04023325 0.757160306
v 0.232638031 -1.30190766 -2.53054667
v 0.00688173622 -1.43335474 0.65182364
v 0.232638031 -1.30190766 -2.53054667
v 0.232689917 -1.30190885 0.687044263
v 0.00677467138 -1.43331766 -2.53054667
v 0.212443411 -0.720265687 1.33838403
v 0.212385535 -0.480827332 -2.5249114
v 0.212416112 -0.48082751 1.40254152
v 0.212388039 -0.720264256 -2.52491093
v 0.00574049354 1.84685373 1.34794724
v 0.073368229 1.4072597 1.46573603
v 0.212415934 1.72767198 1.37988102
v -0.0616433844 1.4072597 1.46573651
v -0.200095028 1.72746503 1.37993729
v 0.212444931 1.48823369 1.44403946
v -0.200093925 1.48790872 1.44412625
v -0.520068467 0.554846585 0.3696419
v -0.122837655 0.353796065 0.482713342
v -0.110603742 0.554846585 0.43024981
v -0.331365883 0.233518526 0.467081666
v -0.52457279 0.353470832 0.388926148
v 0.560434937 0.593234301 -2.44150305
v -0.110603742 0.554846585 0.43024981
v 0.560437381 0.353797406 -2.44150257
v -0.122837655 0.353796065 0.482713342
v -0.119338863 0.593234122 0.467630506
v 0.218962252 -0.175713524 1.31738555
v 0.21890372 -0.175712332 -2.53020811
v 0.21893084 0.071337536 1.07033455
v 0.218901157 0.0713379234 -2.53020811
v -0.200095177 -0.72059077 1.33829701
v -0.200140864 -0.720590413 -2.52491093
v 0.00583355129 -0.840546966 1.30615485
v 0.00571892411 -0.840506911 -2.52491093
v 0.00679820776 -0.909982204 0.792060733
v -0.218166202 -1.10401058 0.740070939
v 0.232664049 -1.04023325 0.757160306
v 0.00688173622 -1.43335474 0.65182364
v -0.218161404 -1.30226421 0.686948895
v 0.232689917 -1.30190885 0.687044263
v -0.218154162 -1.04045939 0.757099271
vt 0.298146427 0.915236235
vt 0.298146427 0.75
vt 0.313718319 0.913497925
vt 0.313718319 0.75
vt 0.317528099 0.912650883
vt 0.313718319 0.75
vt 0.329412937 0.910007894
vt 0.329412937 0.75
vt 0.313718319 0.913497925
vt 0.690371394 0.939840674
vt 0.705987096 0.75
vt 0.705987096 0.941385865
vt 0.690371394 0.75
vt 0.453225195 0.373155475
vt 0.453225195 0.415012598
vt 0.445665926 0.373155475
vt 0.445665926 0.415012598
vt 0.453225195 0.289672315
vt 0.453225195 0.331347227
vt 0.445665926 0.289672315
vt 0.445665926 0.331347227
vt 0.445665926 0.49823302
vt 0.435243726 0.456588984
vt 0.445665926 0.456588984
vt 0.435243726 0.49823302
vt 0.437614888 0.833220422
vt 0.447707236 0.875077546
vt 0.437614888 0.875077546
vt 0.447707236 0.833220422
vt 0.445665926 0.415012598
vt 0.435243726 0.373155475
vt 0.445665926 0.373155475
vt 0.435243726 0.415012598
vt 0.470920205 0.332400858
vt 0.480938435 0.374209106
vt 0.470920205 0.374209106
vt 0.480938435 0.332400858
vt 0.497829795 0.374209106
vt 0.488034993 0.332400858
vt 0.497829795 0.332400858
vt 0.488034993 0.374209106
vt 0.497829795 0.290725946
vt 0.488034993 0.249286652
vt 0.497829795 0.249286652
vt 0.488034993 0.290725946
vt 0.171922818 0.249286652
vt 0.156228215 0.428139567
vt 0.156228215 0.249286652
vt 0.171922803 0.440415204
vt 0.140656307 0.422020316
vt 0.156228215 0.249286652
vt 0.156228215 0.428139567
vt 0.140656307 0.249286652
vt 0.480938435 0.457642615
vt 0.488034993 0.499286652
vt 0.480938435 0.499286652
vt 0.488034993 0.457642615
vt 0.453225195 0.331347227
vt 0.453225195 0.373155475
vt 0.445665926 0.331347227
vt 0.445665926 0.373155475
vt 0.445665926 0.24823302
vt 0.453225195 0.289672315
vt 0.445665926 0.289672315
vt 0.453225195 0.24823302
vt 0.447707236 1
vt 0.437614888 0.958560705
vt 0.447707236 0.958560705
vt 0.437614888 1
vt 0.480938435 0.499286652
vt 0.470920205 0.457642615
vt 0.480938435 0.457642615
vt 0.470920205 0.499286652
vt 0.445665926 0.331347227
vt 0.435243726 0.289672315
vt 0.445665926 0.289672315
vt 0.435243726 0.331347227
vt 0.464728862 0.875077546
vt 0.454867095 0.833220422
vt 0.464728862 0.833220422
vt 0.454867095 0.875077546
vt 0.464728862 0.791644037
vt 0.454867095 0.75
vt 0.464728862 0.75
vt 0.454867095 0.791644037
vt 0.445665926 0.49823302
vt 0.445665926 0.456588984
vt 0.453225195 0.456588984
vt 0.453225195 0.49823302
vt 0.480938435 0.457642615
vt 0.480938435 0.416066229
vt 0.488034993 0.416066229
vt 0.488034993 0.457642615
vt 0.488034993 0.374209106
vt 0.480938435 0.416066229
vt 0.480938435 0.374209106
vt 0.488034993 0.416066229
vt 0.480938435 0.416066229
vt 0.470920205 0.374209106
vt 0.480938435 0.374209106
vt 0.470920205 0.416066229
vt 0.435243726 0.415012598
vt 0.445665926 0.456588984
vt 0.435243726 0.456588984
vt 0.445665926 0.415012598
vt 0.447707236 0.916885793
vt 0.437614888 0.875077546
vt 0.447707236 0.875077546
vt 0.437614888 0.916885793
vt 0.454867095 0.958560705
vt 0.464728862 1
vt 0.454867095 1
vt 0.464728862 0.958560705
vt 0.454867095 0.875077546
vt 0.464728862 0.916885793
vt 0.454867095 0.916885793
vt 0.464728862 0.875077546
vt 0.445665926 0.415012598
vt 0.453225195 0.456588984
vt 0.445665926 0.456588984
vt 0.453225195 0.415012598
vt 0.488034993 0.290725946
vt 0.488034993 0.332400858
vt 0.480938435 0.290725946
vt 0.480938435 0.332400858
vt 0.437614888 0.916885793
vt 0.447707236 0.958560705
vt 0.437614888 0.958560705
vt 0.447707236 0.916885793
vt 0.435243726 0.331347227
vt 0.445665926 0.373155475
vt 0.435243726 0.373155475
vt 0.445665926 0.331347227
vt 0.480938435 0.332400858
vt 0.470920205 0.290725946
vt 0.480938435 0.290725946
vt 0.470920205 0.332400858
vt 0.488034993 0.457642615
vt 0.497829795 0.499286652
vt 0.488034993 0.499286652
vt 0.497829795 0.457642615
vt 0.488034993 0.374209106
vt 0.497829795 0.416066229
vt 0.488034993 0.416066229
vt 0.497829795 0.374209106
vt 0.488034993 0.290725946
vt 0.497829795 0.332400858
vt 0.488034993 0.332400858
vt 0.497829795 0.290725946
vt 0.463586688 0.456588984
vt 0.453225195 0.415012598
vt 0.463586688 0.415012598
vt 0.453225195 0.456588984
vt 0.497829795 0.457642615
vt 0.488034993 0.416066229
vt 0.497829795 0.416066229
vt 0.488034993 0.457642615
vt 0.453225195 0.289672315
vt 0.463586688 0.331347227
vt 0.453225195 0.331347227
vt 0.463586688 0.289672315
vt 0.470920205 0.249286652
vt 0.480938435 0.290725946
vt 0.470920205 0.290725946
vt 0.480938435 0.249286652
vt 0.453225195 0.373155475
vt 0.463586688 0.415012598
vt 0.453225195 0.415012598
vt 0.463586688 0.373155475
vt 0.435243726 0.24823302
vt 0.445665926 0.289672315
vt 0.435243726 0.289672315
vt 0.445665926 0.24823302
vt 0.705987096 0.941385865
vt 0.705987096 0.75
vt 0.721559048 0.939840078
vt 0.721559048 0.75
vt 0.125040606 0.428126693
vt 0.125040606 0.249286652
vt 0.140656307 0.422020316
vt 0.140656307 0.249286652
vt 0.488034993 0.332400858
vt 0.488034993 0.374209106
vt 0.480938435 0.332400858
vt 0.480938435 0.374209106
vt 0.470920205 0.416066229
vt 0.480938435 0.457642615
vt 0.470920205 0.457642615
vt 0.480938435 0.416066229
vt 0.454867095 0.791644037
vt 0.464728862 0.833220422
vt 0.454867095 0.833220422
vt 0.464728862 0.791644037
vt 0.447707236 0.958560705
vt 0.454867095 1
vt 0.447707236 1
vt 0.454867095 0.958560705
vt 0.480938435 0.249286652
vt 0.488034993 0.290725946
vt 0.480938435 0.290725946
vt 0.488034993 0.249286652
vt 0.454867095 0.875077546
vt 0.454867095 0.916885793
vt 0.447707236 0.875077546
vt 0.447707236 0.916885793
vt 0.454867095 0.833220422
vt 0.454867095 0.875077546
vt 0.447707236 0.833220422
vt 0.447707236 0.875077546
vt 0.447707236 0.833220422
vt 0.437614888 0.791644037
vt 0.447707236 0.791644037
vt 0.437614888 0.833220422
vt 0.453225195 0.456588984
vt 0.463586688 0.49823302
vt 0.453225195 0.49823302
vt 0.463586688 0.456588984
vt 0.463586688 0.289672315
vt 0.453225195 0.24823302
vt 0.463586688 0.24823302
vt 0.453225195 0.289672315
vt 0.463586688 0.373155475
vt 0.453225195 0.331347227
vt 0.463586688 0.331347227
vt 0.453225195 0.373155475
vt 0.464728862 0.958560705
vt 0.454867095 0.916885793
vt 0.464728862 0.916885793
vt 0.454867095 0.958560705
vt 0.447707236 0.916885793
vt 0.454867095 0.958560705
vt 0.447707236 0.958560705
vt 0.454867095 0.916885793
vt 0.447707236 0.75
vt 0.454867095 0.791644037
vt 0.447707236 0.791644037
vt 0.454867095 0.75
vt 0.437614888 0.75
vt 0.447707236 0.791644037
vt 0.437614888 0.791644037
vt 0.447707236 0.75
vt 0.723408699 0.939474106
vt 0.721559048 0.75
vt 0.737253606 0.936735928
vt 0.737253606 0.75
vt 0.721559048 0.939840078
vt 0.282530725 0.913498878
vt 0.298146427 0.75
vt 0.298146427 0.915236235
vt 0.282530725 0.75
vt 0.454867095 0.791644037
vt 0.454867095 0.833220422
vt 0.447707236 0.791644037
vt 0.447707236 0.833220422
vt 0.812394321 0.414550304
vt 0.828010023 0.250030994
vt 0.828010023 0.420322478
vt 0.812394321 0.250030994
vt 0.828010023 0.420322478
vt 0.828010023 0.250030994
vt 0.843581975 0.414542198
vt 0.843581975 0.250030994
vt 0.846083343 0.412693262
vt 0.859276533 0.250030994
vt 0.859276533 0.41530484
vt 0.843581975 0.250030994
vt 0.843581975 0.414542198
vt 0.811465144 0.93874532
vt 0.811465144 0.75
vt 0.827080846 0.937203288
vt 0.827080846 0.75
vt 0.98750031 0.874922454
vt 0.98750031 0.916779578
vt 0.979165733 0.874922454
vt 0.979165733 0.916779578
vt 0.98750031 0.791439295
vt 0.98750031 0.833114207
vt 0.979165733 0.791439295
vt 0.979165733 0.833114207
vt 0.979165733 1
vt 0.967674553 0.958355963
vt 0.979165733 0.958355963
vt 0.967674553 1
vt 0.979165733 0.916779578
vt 0.967674553 0.874922454
vt 0.979165733 0.874922454
vt 0.967674553 0.916779578
vt 0.98750031 0.833114207
vt 0.98750031 0.874922454
vt 0.979165733 0.833114207
vt 0.979165733 0.874922454
vt 0.979165733 0.75
vt 0.98750031 0.791439295
vt 0.979165733 0.791439295
vt 0.98750031 0.75
vt 0.979165733 0.833114207
vt 0.967674553 0.791439295
vt 0.979165733 0.791439295
vt 0.967674553 0.833114207
vt 0.979165733 1
vt 0.979165733 0.958355963
vt 0.98750031 0.958355963
vt 0.98750031 1
vt 0.967674553 0.916779578
vt 0.979165733 0.958355963
vt 0.967674553 0.958355963
vt 0.979165733 0.916779578
vt 0.979165733 0.916779578
vt 0.98750031 0.958355963
vt 0.979165733 0.958355963
vt 0.98750031 0.916779578
vt 0.967674553 0.833114207
vt 0.979165733 0.874922454
vt 0.967674553 0.874922454
vt 0.979165733 0.833114207
vt 0.998924553 0.958355963
vt 0.98750031 0.916779578
vt 0.998924553 0.916779578
vt 0.98750031 0.958355963
vt 0.98750031 0.791439295
vt 0.998924553 0.833114207
vt 0.98750031 0.833114207
vt 0.998924553 0.791439295
vt 0.98750031 0.874922454
vt 0.998924553 0.916779578
vt 0.98750031 0.916779578
vt 0.998924553 0.874922454
vt 0.967674553 0.75
vt 0.979165733 0.791439295
vt 0.967674553 0.791439295
vt 0.979165733 0.75
vt 0.827080846 0.937203288
vt 0.842652798 0.75
vt 0.842652798 0.938750207
vt 0.827080846 0.75
vt 0.98750031 0.958355963
vt 0.998924553 1
vt 0.98750031 1
vt 0.998924553 0.958355963
vt 0.998924553 0.791439295
vt 0.98750031 0.75
vt 0.998924553 0.75
vt 0.98750031 0.791439295
vt 0.998924553 0.874922454
vt 0.98750031 0.833114207
vt 0.998924553 0.833114207
vt 0.98750031 0.874922454
vt 0.842652798 0.938750207
vt 0.858347356 0.75
vt 0.858347356 0.941851377
vt 0.842652798 0.75
vt 0.590943575 0.053408742
vt 0.521864235 0.0534089208
vt 0.556394577 0.025386095
vt 0.171922803 0.440415204
vt 0.1875 0.249286652
vt 0.172232747 0.440537512
vt 0.171922818 0.249286652
vt 0.1875 0.446562171
vt 0.660112619 0.138426363
vt 0.591740489 0.133988857
vt 0.625993192 0.113697529
vt 0.591740489 0.174390495
vt 0.625986874 0.194505095
vt 0.660111129 0.133662224
vt 0.660115719 0.174083829
vt 0.109055564 0.44053632
vt 0.09375 0.249286652
vt 0.109408617 0.440397382
vt 0.09375 0.446562171
vt 0.109408617 0.249286652
vt 0.78110373 0.250030994
vt 0.796762347 0.415299773
vt 0.78110373 0.416860342
vt 0.796762347 0.250030994
vt 0.556377709 0.13953042
vt 0.591735482 0.1111238
vt 0.521163225 0.111074924
vt 0.521163225 0.0539777279
vt 0.591740489 0.0540550947
vt 0.329412937 0.910007894
vt 0.329412937 0.75
vt 0.344990134 0.908260286
vt 0.344990104 0.75
vt 0.780174553 0.941798091
vt 0.79583317 0.75
vt 0.795833111 0.941846192
vt 0.780174553 0.75
vt 0.785292447 0.942895055
vt 0.667619467 0.182551861
vt 0.667619467 0.204929352
vt 0.660115719 0.193760753
vt 0.859276533 0.41530484
vt 0.87485373 0.250030994
vt 0.87485373 0.416860342
vt 0.859276533 0.250030994
vt 0.70007813 0.0624943972
vt 0.674907982 0.0944672227
vt 0.666465759 0.0936418176
vt 0.666465759 0.025386095
vt 0.67495364 0.0262171626
vt 0.795833111 0.941846192
vt 0.79583317 0.75
vt 0.811465144 0.93874532
vt 0.811465144 0.75
vt 0.858347356 0.941851377
vt 0.858347356 0.75
vt 0.873924494 0.941798091
vt 0.868820012 0.942895293
vt 0.873924553 0.75
vt 0.659080803 0.935181499
vt 0.67473942 0.75
vt 0.67473942 0.936739206
vt 0.659080803 0.75
vt 0.266898721 0.910011649
vt 0.282530725 0.75
vt 0.282530725 0.913498878
vt 0.266898721 0.75
vt 0.251240104 0.908260286
vt 0.266898721 0.75
vt 0.266898721 0.910011649
vt 0.251240104 0.75
vt 0.67473942 0.936739206
vt 0.690371394 0.75
vt 0.690371394 0.939840674
vt 0.67473942 0.75
vt 0.555292547 0.210392296
vt 0.566505432 0.13953042
vt 0.589560986 0.191180348
vt 0.544119358 0.13953048
vt 0.521163225 0.191147208
vt 0.589565575 0.152583122
vt 0.521163225 0.152531087
vt 0.71015048 0.182551861
vt 0.677819908 0.113697588
vt 0.71015048 0.114413679
vt 0.660115719 0.146891356
vt 0.68103683 0.180823326
vt 0.812394321 0.250030994
vt 0.809888065 0.412691593
vt 0.796762347 0.250030994
vt 0.796762347 0.415299773
vt 0.812394321 0.414550304
vt 0.109408617 0.440397382
vt 0.109408617 0.249286652
vt 0.125040606 0.428126693
vt 0.125040606 0.249286652
vt 0.737253606 0.936735928
vt 0.737253606 0.75
vt 0.752830803 0.935181499
vt 0.752830803 0.75
vt 0.629173934 0.025386095
vt 0.666463315 0.0579289198
vt 0.591740489 0.0475614071
vt 0.629168689 0.113697529
vt 0.666465759 0.0913813114
vt 0.591740489 0.0917153358
vt 0.666460276 0.047205627
vn -0.501731932 0.865023136 -6.93472373e-08
vn -0.501731932 0.865023136 -6.93472373e-08
vn -0.501731932 0.865023136 -6.93472373e-08
vn -0.501731932 0.865023136 -6.93472373e-08
vn -0.99999994 0.000108179236 5.04628179e-06
vn -0.99999994 0.000108179236 5.04628179e-06
vn -0.99999994 0.000108179236 5.04628179e-06
vn -0.99999994 0.000108179236 5.04628179e-06
vn -0.99999994 0.000108179236 5.04628179e-06
vn 0.499578208 0.866268754 -2.02745878e-06
vn 0.499578208 0.866268754 -2.02745878e-06
vn 0.499578208 0.866268754 -2.02745878e-06
vn 0.499578208 0.866268754 -2.02745878e-06
vn 0.999999821 0.000507357356 0.000150370033
vn 0.999999821 0.000507287914 0.000150195643
vn 0.999999821 0.000507166609 0.000150120541
vn 0.999999821 0.000507352408 0.000150366366
vn -0.500378013 -0.865806997 -0.000376213342
vn -0.500196934 -0.865911603 0.000508558936
vn -0.500391722 -0.865799129 -0.000394163973
vn -0.500133872 -0.865947783 0.00080001168
vn -0.153486386 0.257303149 0.954063416
vn -0.151184767 0.255619645 0.954883099
vn -0.153452739 0.257255971 0.954081595
vn -0.15116623 0.255596638 0.954892218
vn 0.16310513 -0.27294904 0.948101044
vn 0.154432759 -0.265775084 0.951585054
vn 0.163573891 -0.272758782 0.948074996
vn 0.153328016 -0.266507208 0.951558948
vn 0.290567815 0.00012434274 0.956854403
vn 0.29056862 0.000128224492 0.956854165
vn 0.29060787 0.000132720481 0.956842303
vn 0.290607572 0.000114438044 0.956842422
vn 0.152731329 -0.254711002 0.954879701
vn 0.14324972 -0.247889906 0.958138824
vn 0.152686521 -0.254679561 0.954895318
vn 0.143215254 -0.247872844 0.95814842
vn 0.142794341 -0.252553165 -0.956988335
vn 0.143111736 -0.255878001 -0.956057191
vn 0.142803609 -0.252585351 -0.95697844
vn 0.143133685 -0.256017894 -0.956016481
vn -0.299629122 0.00012537092 -0.954055786
vn -0.299629003 0.000129207969 -0.954055846
vn -0.299628854 0.000118618678 -0.954055786
vn -0.299628794 0.00012619175 -0.954055846
vn -0.99999994 9.61065816e-05 6.52164954e-06
vn -0.99999994 9.61065816e-05 6.52164954e-06
vn -0.99999994 9.61065816e-05 6.52164954e-06
vn -0.99999994 9.61065816e-05 6.52164954e-06
vn -0.501729131 0.865024686 -9.43184588e-08
vn -0.501729131 0.865024686 -9.43184588e-08
vn -0.501729131 0.865024686 -9.43184588e-08
vn -0.501729131 0.865024686 -9.43184588e-08
vn -0.511664748 0.859185219 -6.90430579e-06
vn -0.511669874 0.859182179 -4.86808131e-06
vn -0.51167649 0.859178245 1.41002238e-06
vn -0.511672974 0.859180272 -1.2293458e-07
vn 0.500949502 -0.865476489 0.000134985719
vn 0.500949502 -0.865476489 0.000134985719
vn 0.500949502 -0.865476489 0.000134985719
vn 0.500949502 -0.865476489 0.000134985719
vn -0.999999762 -0.000476200657 0.000145227707
vn -0.999999762 -0.000476271438 0.00014526234
vn -0.999999762 -0.000476347719 0.000145586062
vn -0.999999762 -0.000476400484 0.000145613216
vn -0.164837539 0.275219291 0.947144687
vn -0.161920935 0.274231106 0.947934091
vn -0.163444147 0.275809884 0.947214365
vn -0.162361413 0.273888052 0.947957933
vn -0.153190836 0.257078409 0.954171479
vn -0.150998756 0.255484819 0.954948545
vn -0.153500319 0.257308066 0.954059839
vn -0.151053354 0.255536735 0.954926014
vn -0.147557646 -0.254895777 0.955643773
vn -0.148865491 -0.267017901 0.952124357
vn -0.147550374 -0.254944623 0.955631912
vn -0.148845732 -0.266990721 0.952134907
vn 0.153433412 -0.270993829 -0.950273931
vn 0.152902022 -0.274657309 -0.949307263
vn 0.15294157 -0.271210551 -0.950291395
vn 0.154052734 -0.274117351 -0.949277282
vn -0.321089208 -0.000154063106 -0.947048962
vn -0.321089864 0.000839903951 -0.947048366
vn -0.321088791 0.000417278352 -0.947049022
vn -0.321090341 -0.000567542913 -0.947048426
vn -0.511674404 0.859179437 0
vn -0.511674404 0.859179437 0
vn -0.511674404 0.859179437 0
vn -0.511674404 0.859179437 0
vn 0.488931566 0.872322142 5.8909689e-05
vn 0.488931566 0.872322142 5.8909689e-05
vn 0.488931566 0.872322142 5.8909689e-05
vn 0.488931566 0.872322142 5.8909689e-05
vn 0.999999821 0.000399601471 0.000241631336
vn 0.999999821 0.000399601471 0.000241631336
vn 0.999999821 0.000399601471 0.000241631336
vn 0.999999821 0.000399601471 0.000241631336
vn 0.290609211 0.000127710402 0.956841886
vn 0.290609717 0.000121422112 0.956841648
vn 0.29060474 0.000136400835 0.956843197
vn 0.290604472 0.000129558321 0.956843317
vn 0.142783761 0.252615482 0.956973493
vn 0.143106669 0.255759448 0.956089735
vn 0.142797217 0.252638042 0.956965506
vn 0.143090412 0.255881667 0.956059515
vn 0.311738968 0.000800803304 0.950167418
vn 0.311738759 -0.000148378313 0.950167775
vn 0.311735451 -0.000544423528 0.950168669
vn 0.311733603 0.00041960628 0.950169384
vn -0.157582834 0.273899943 -0.948760509
vn -0.159682155 0.285412014 -0.945008755
vn -0.158868074 0.273262024 -0.948730111
vn -0.159239635 0.285710782 -0.944993138
vn 0.311737716 -0.000799976289 -0.950167894
vn 0.311737418 0.000148788095 -0.950168252
vn 0.311734438 0.000544941926 -0.950169086
vn 0.31173259 -0.000419138174 -0.950169742
vn 0.48905912 0.872250378 0.000642114377
vn 0.488932908 0.872321486 0.000103989303
vn 0.489046276 0.87225759 0.000679310411
vn 0.488926232 0.872325182 9.95760784e-05
vn -0.500264049 -0.865872741 0.000162782148
vn -0.500270128 -0.865869284 0.000170504631
vn -0.500270545 -0.865868986 0.000171184307
vn -0.500268102 -0.865870476 0.000164534897
vn 0.153434485 0.270995855 0.950273156
vn 0.152879581 0.274515718 0.949351907
vn 0.152932018 0.271323353 0.950260699
vn 0.154031068 0.273871332 0.949351907
vn 0.152666345 -0.254656851 0.954904675
vn 0.143186152 -0.247856498 0.958157063
vn 0.152680635 -0.254680514 0.954896152
vn 0.143254191 -0.247885317 0.95813942
vn -0.14757368 -0.254890561 0.955642581
vn -0.148852736 -0.266998112 0.952131748
vn -0.147532195 -0.254896492 0.955647528
vn -0.148855984 -0.266963214 0.952141106
vn -0.147571713 0.254887253 -0.955643713
vn -0.14885059 0.266994894 -0.952133
vn -0.147552311 0.254933238 -0.955634534
vn -0.148850828 0.266908944 -0.952157021
vn 0.290862173 -0.000121727586 -0.956764877
vn 0.290863425 -0.000134974718 -0.956764519
vn 0.290756047 -0.000140713106 -0.956797183
vn 0.290846378 -0.00013622822 -0.956769705
vn -0.153626353 -0.257406652 -0.95401305
vn -0.151001334 -0.255485505 -0.954948068
vn -0.153743923 -0.257485151 -0.953972936
vn -0.151144981 -0.255590647 -0.954897165
vn 0.152714342 0.25468868 -0.954888403
vn 0.143189549 0.247861028 -0.958155274
vn 0.152684152 0.254685313 -0.954894245
vn 0.143309176 0.24791269 -0.958124101
vn 0.152703851 0.25469166 -0.954889297
vn 0.142591372 0.247441053 -0.958353043
vn 0.152695388 0.254689276 -0.954891264
vn 0.142610997 0.247423887 -0.958354533
vn -0.153460994 -0.257265687 -0.954077601
vn -0.151112139 -0.25555703 -0.954911351
vn -0.153727621 -0.257466227 -0.953980625
vn -0.151070014 -0.255548239 -0.954920411
vn -0.299629033 -0.000125549734 0.954055786
vn -0.299629003 -0.000129655004 0.954055786
vn -0.299628347 -0.000118911477 0.954056025
vn -0.299628407 -0.000126310944 0.954056025
vn 0.290438056 -5.62816858e-05 -0.956893623
vn 0.290316939 -1.48117542e-05 -0.956930459
vn 0.290427268 -5.76771126e-05 -0.956896901
vn 0.290500462 -9.59788449e-05 -0.956874728
vn -0.299629301 -0.000130072236 0.954055667
vn -0.299629152 -0.000122368336 0.954055727
vn -0.299628735 -0.000135001523 0.954055786
vn -0.299628675 -0.000127101914 0.954055846
vn -0.501730382 0.86502409 -7.94013673e-08
vn -0.501730382 0.86502409 -7.94013673e-08
vn -0.501730382 0.86502409 -7.94013673e-08
vn -0.501730382 0.86502409 -7.94013673e-08
vn 0.499581307 0.866267025 -2.14246279e-06
vn 0.499581307 0.866267025 -2.14246279e-06
vn 0.499581307 0.866267025 -2.14246279e-06
vn 0.499581307 0.866267025 -2.14246279e-06
vn 0.500947952 -0.865477383 0.000143538535
vn 0.500947952 -0.865477383 0.000143538535
vn 0.500947952 -0.865477383 0.000143538535
vn 0.500947952 -0.865477383 0.000143538535
vn 0.142794579 0.252702564 0.956948757
vn 0.143075109 0.25561294 0.956133544
vn 0.14278391 0.25259909 0.956977606
vn 0.143092811 0.255880654 0.956059277
vn -0.165152967 -0.275453806 -0.947021604
vn -0.16179508 -0.274146616 -0.947980106
vn -0.164059341 -0.276235402 -0.946983993
vn -0.162360787 -0.273887336 -0.947958291
vn -0.511670232 0.859181404 -0.000915555283
vn -0.511684835 0.859172761 -0.000909297029
vn -0.511693537 0.859167576 -0.000888671726
vn -0.511676967 0.85917747 -0.000896180049
vn -0.999999881 -0.000478701171 3.43514257e-05
vn -0.999999881 -0.000429434498 -0.000205728778
vn -0.999999881 -0.000478164467 3.44671971e-05
vn -0.999999881 -0.000428991771 -0.000205430028
vn 0.99999994 0.000230500445 0.000236487438
vn 1 -1.35960491e-07 -7.0784431e-06
vn 0.99999994 0.000231032871 0.000236347085
vn 1 -1.35960491e-07 -7.0784431e-06
vn 0.500998557 -0.865447998 -0.000474534929
vn 0.500994384 -0.865450442 -0.000454935478
vn 0.500981092 -0.865458131 -0.000461178366
vn 0.501013756 -0.865439236 -0.000467928126
vn -0.157586262 -0.273850381 0.948774278
vn -0.159696266 -0.285355628 0.945023477
vn -0.158894166 -0.273252368 0.948728621
vn -0.159236521 -0.285665154 0.945007503
vn -0.147590756 0.254886955 -0.955640852
vn -0.148986906 0.266889125 -0.952141285
vn -0.147573575 0.254885197 -0.955644011
vn -0.148966298 0.266871482 -0.952149451
vn -0.299495518 7.4274838e-05 -0.954097748
vn -0.299504936 6.17057085e-05 -0.954094887
vn -0.299593776 0.000104801147 -0.954066992
vn -0.29930833 -8.23866867e-06 -0.954156578
vn 0.142818779 -0.252614409 -0.956968427
vn 0.143141121 -0.25589633 -0.956047893
vn 0.142806232 -0.252588451 -0.956977129
vn 0.143160284 -0.25604105 -0.956006229
vn 0.163144514 0.272979051 -0.948085725
vn 0.154454693 0.265761912 -0.951585233
vn 0.163573444 0.272758543 -0.948075235
vn 0.153327644 0.26650694 -0.951559186
vn 0.48893401 0.872320175 0.00103517121
vn 0.488930464 0.872322261 0.00103345141
vn 0.48892349 0.872326136 0.00104263611
vn 0.488867879 0.872357547 0.000708673149
vn -0.999999881 -0.000429591426 -0.000206226076
vn -0.999999881 -0.000429837499 -0.000205729797
vn -0.999999881 -0.000429478678 -0.000205259959
vn -0.999999881 -0.000429188309 -0.000205846125
vn -0.321093738 0.000154413283 0.947047412
vn -0.321094334 -0.00083964318 0.947046816
vn -0.321093202 -0.000416855706 0.947047532
vn -0.321094632 0.000567755196 0.947046936
vn -1 9.45673746e-05 5.22968503e-06
vn -1 9.45673746e-05 5.22968503e-06
vn -1 9.45673746e-05 5.22968503e-06
vn -1 9.45673746e-05 5.22968503e-06
vn -1 9.45673746e-05 5.22968503e-06
vn 0.499583572 0.866265774 -2.21342952e-06
vn 0.499583572 0.866265774 -2.21342952e-06
vn 0.499583572 0.866265774 -2.21342952e-06
vn 0.499583572 0.866265774 -2.21342952e-06
vn -0.500272989 -0.865867138 0.00106212124
vn -0.500262976 -0.86587292 0.00107584137
vn -0.50026834 -0.86586982 0.00107874814
vn -0.500268817 -0.865869582 0.00106002577
vn 0.486476511 0.866266847 0.113676623
vn 0.486476511 0.866266847 0.113676623
vn 0.486476511 0.866266847 0.113676623
vn 0.486476511 0.866266847 0.113676623
vn -0.488568485 0.865023971 -0.114167839
vn -0.488568485 0.865023971 -0.114167839
vn -0.488568485 0.865023971 -0.114167839
vn -0.488568485 0.865023971 -0.114167839
vn -0.973768175 0.000105838983 -0.2275424
vn -0.973768175 0.000105838983 -0.2275424
vn -0.973768175 0.000105838983 -0.2275424
vn -0.973768175 0.000105838983 -0.2275424
vn -0.973768175 0.000105838983 -0.2275424
vn 0.499578416 0.866268694 -2.02380011e-06
vn 0.499578416 0.866268694 -2.02380011e-06
vn 0.499578416 0.866268694 -2.02380011e-06
vn 0.499578416 0.866268694 -2.02380011e-06
vn 0.999999881 0.00025424952 0.000557421881
vn 0.999999881 0.00025424952 0.000557421881
vn 0.999999881 0.00025424952 0.000557421881
vn 0.999999881 0.00025424952 0.000557421881
vn -0.500377536 -0.865807235 -0.000375623815
vn -0.500196457 -0.865911841 0.000509151258
vn -0.500391245 -0.865799367 -0.000393570284
vn -0.500133395 -0.865947962 0.000800609589
vn -0.153486922 0.257303357 0.954063296
vn -0.151185438 0.255619735 0.95488286
vn -0.153453395 0.257256329 0.954081297
vn -0.15116699 0.255596876 0.95489192
vn 0.290563673 0.00012473762 0.956855655
vn 0.290563971 0.000128723681 0.956855536
vn 0.290603846 0.00013311689 0.956843495
vn 0.290603161 0.000114925817 0.956843615
vn 0.500949502 -0.865476489 0.000134932852
vn 0.500949502 -0.865476489 0.000134932852
vn 0.500949502 -0.865476489 0.000134932852
vn 0.500949502 -0.865476489 0.000134932852
vn -0.999999762 -0.00047622624 0.000145227532
vn -0.999999762 -0.000476296816 0.000145262078
vn -0.999999762 -0.000476373069 0.000145585771
vn -0.999999762 -0.000476425776 0.000145612896
vn -0.147558808 -0.254895449 0.955643654
vn -0.148866624 -0.267017394 0.952124238
vn -0.147551507 -0.254943967 0.955631733
vn -0.14884685 -0.266990334 0.952134848
vn -0.511674762 0.859179318 -6.19749812e-07
vn -0.511674762 0.859179318 -6.19749812e-07
vn -0.511674762 0.859179318 -6.19749812e-07
vn -0.511674762 0.859179318 -6.19749812e-07
vn 0.142783642 0.252616078 0.956973374
vn 0.143106401 0.255760014 0.956089616
vn 0.142796949 0.25263837 0.956965506
vn 0.14308992 0.255882084 0.956059396
vn 0.489059567 0.87225014 0.000641493592
vn 0.488933355 0.872321129 0.000103363433
vn 0.489046723 0.872257292 0.000678683631
vn 0.488926649 0.872324824 9.89576802e-05
vn 0.15266566 -0.254656404 0.954904795
vn 0.143185541 -0.2478562 0.958157182
vn 0.15267998 -0.254680097 0.954896212
vn 0.143253505 -0.247884914 0.958139479
vn 0.152715236 0.254689127 -0.954888165
vn 0.143190339 0.247861534 -0.958155096
vn 0.152684867 0.254685581 -0.954894006
vn 0.143309876 0.247913092 -0.958123922
vn -0.153460562 -0.257265031 -0.954077899
vn -0.151111662 -0.255556256 -0.954911709
vn -0.153727129 -0.257465571 -0.953980863
vn -0.151069567 -0.255547404 -0.954920769
vn 0.290437728 -5.68255782e-05 -0.956893861
vn 0.290316492 -1.52885914e-05 -0.956930757
vn 0.290427148 -5.79773478e-05 -0.95689714
vn 0.290500164 -9.65442086e-05 -0.956874967
vn -0.299628437 -0.00012923032 0.954055905
vn -0.299628407 -0.000121511519 0.954055965
vn -0.299627841 -0.000134116272 0.954056144
vn -0.2996279 -0.00012626157 0.954056144
vn -0.501730859 0.865023851 -9.66178817e-08
vn -0.501730859 0.865023851 -9.66178817e-08
vn -0.501730859 0.865023851 -9.66178817e-08
vn -0.501730859 0.865023851 -9.66178817e-08
vn -0.147589803 0.254887521 -0.955640972
vn -0.148986012 0.266889811 -0.952141285
vn -0.147572994 0.254886121 -0.955643952
vn -0.148965403 0.266872287 -0.952149451
vn -0.299497306 7.38278031e-05 -0.954097152
vn -0.299506605 6.13853335e-05 -0.954094231
vn -0.299595416 0.000104361017 -0.954066336
vn -0.29930979 -8.63285823e-06 -0.954155982
vn 0.14281854 -0.252614856 -0.956968427
vn 0.143140882 -0.255896747 -0.956047833
vn 0.142806083 -0.252588928 -0.956977129
vn 0.143160015 -0.256041646 -0.956006289
vn -1 9.34030322e-05 6.00862222e-06
vn -1 9.34030322e-05 6.00862222e-06
vn -1 9.34030322e-05 6.00862222e-06
vn -1 9.34030322e-05 6.00862222e-06
vn -4.31230205e-07 0.707107663 0.707105875
vn -4.31271332e-07 0.707107723 0.707105935
vn -8.33919785e-07 0.707110047 0.707103491
vn -0.50334096 -0.864087939 6.34795333e-06
vn -0.50334096 -0.864087939 6.34795333e-06
vn -0.50334096 -0.864087939 6.34795333e-06
vn -0.50334096 -0.864087939 6.34795333e-06
vn -0.50334096 -0.864087939 6.34795333e-06
vn 0 -0.25881961 0.965925634
vn 0 -0.25881961 0.965925634
vn 0 -0.25881961 0.965925634
vn 0 -0.25881961 0.965925634
vn 0 -0.25881961 0.965925634
vn 0 -0.25881961 0.965925634
vn 0 -0.25881961 0.965925634
vn 0.503009617 -0.86428082 -1.68947809e-05
vn 0.503009617 -0.86428082 -1.68947809e-05
vn 0.503009617 -0.86428082 -1.68947809e-05
vn 0.503009617 -0.86428082 -1.68947809e-05
vn 0.503009617 -0.86428082 -1.68947809e-05
vn 0.489801675 -0.864290774 0.114437394
vn 0.489801675 -0.864290774 0.114437394
vn 0.489801675 -0.864290774 0.114437394
vn 0.489801675 -0.864290774 0.114437394
vn -3.18133658e-07 0.707107008 0.70710659
vn -3.18133658e-07 0.707107008 0.70710659
vn -3.18133658e-07 0.707107008 0.70710659
vn -3.18133658e-07 0.707107008 0.70710659
vn -3.18133658e-07 0.707107008 0.70710659
vn -0.503341913 -0.864087284 6.79541427e-06
vn -0.503341913 -0.864087284 6.79541427e-06
vn -0.503341913 -0.864087284 6.79541427e-06
vn -0.503341913 -0.864087284 6.79541427e-06
vn 0.503008842 -0.864281237 -1.64441244e-05
vn 0.503008842 -0.864281237 -1.64441244e-05
vn 0.503008842 -0.864281237 -1.64441244e-05
vn 0.503008842 -0.864281237 -1.64441244e-05
vn 0.503008842 -0.864281237 -1.64441244e-05
vn 4.86318004e-06 -0.500008523 0.866020501
vn 4.86318004e-06 -0.500008523 0.866020501
vn 4.86318004e-06 -0.500008523 0.866020501
vn -0.49014017 -0.864086807 -0.114528142
vn -0.49014017 -0.864086807 -0.114528142
vn -0.49014017 -0.864086807 -0.114528142
vn -0.49014017 -0.864086807 -0.114528142
vn -0.10835094 -0.67284739 0.731803596
vn -0.10835094 -0.67284739 0.731803596
vn -0.10835094 -0.67284739 0.731803596
vn -0.10835094 -0.67284739 0.731803596
vn -0.10835094 -0.67284739 0.731803596
vn 0.99999994 6.43700987e-05 -1.1086322e-05
vn 0.99999994 6.43700987e-05 -1.1086322e-05
vn 0.99999994 6.43700987e-05 -1.1086322e-05
vn 0.99999994 6.43700987e-05 -1.1086322e-05
vn -0.503342509 -0.864086986 5.93984851e-06
vn -0.503342509 -0.864086986 5.93984851e-06
vn -0.503342509 -0.864086986 5.93984851e-06
vn -0.503342509 -0.864086986 5.93984851e-06
vn -0.503342509 -0.864086986 5.93984851e-06
vn 0.503004968 -0.864283502 -1.57790237e-05
vn 0.503004968 -0.864283502 -1.57790237e-05
vn 0.503004968 -0.864283502 -1.57790237e-05
vn 0.503004968 -0.864283502 -1.57790237e-05
vn 1 5.63036738e-05 -1.23922428e-05
vn 1 5.63036738e-05 -1.23922428e-05
vn 1 5.63036738e-05 -1.23922428e-05
vn 1 5.63036738e-05 -1.23922428e-05
vn 0.502987683 -0.864293575 -1.76788399e-05
vn 0.502987683 -0.864293575 -1.76788399e-05
vn 0.502987683 -0.864293575 -1.76788399e-05
vn 0.502987683 -0.864293575 -1.76788399e-05
vn 1 6.37313351e-05 -1.10322926e-05
vn 1 6.37313351e-05 -1.10322926e-05
vn 1 6.37313351e-05 -1.10322926e-05
vn 1 6.37313351e-05 -1.10322926e-05
vn 1.18687308e-06 0.258819997 0.965925574
vn 1.18687308e-06 0.258819997 0.965925574
vn 1.18687308e-06 0.258819997 0.965925574
vn 1.18687308e-06 0.258819997 0.965925574
vn 1.18687308e-06 0.258819997 0.965925574
vn 1.18687308e-06 0.258819997 0.965925574
vn 1.18687308e-06 0.258819997 0.965925574
vn -0.192471728 0.198457628 0.961025119
vn -0.192471728 0.198457628 0.961025119
vn -0.192471728 0.198457628 0.961025119
vn -0.192471728 0.198457628 0.961025119
vn -0.192471728 0.198457628 0.961025119
vn 0.973769665 5.69311378e-05 0.22753638
vn 0.973769665 5.69311378e-05 0.22753638
vn 0.973769665 5.69311378e-05 0.22753638
vn 0.973769665 5.69311378e-05 0.22753638
vn 0.973769665 5.69311378e-05 0.22753638
vn 1 6.28417547e-05 -1.18438747e-05
vn 1 6.28417547e-05 -1.18438747e-05
vn 1 6.28417547e-05 -1.18438747e-05
vn 1 6.28417547e-05 -1.18438747e-05
vn -0.503342628 -0.864086986 5.98195084e-06
vn -0.503342628 -0.864086986 5.98195084e-06
vn -0.503342628 -0.864086986 5.98195084e-06
vn -0.503342628 -0.864086986 5.98195084e-06
vn 0 -0.258819044 0.965925872
vn 0 -0.258819044 0.965925872
vn 0 -0.258819044 0.965925872
vn 0 -0.258819044 0.965925872
vn 0 -0.258819044 0.965925872
vn 0 -0.258819044 0.965925872
vn 0 -0.258819044 0.965925872
f 1/1/1 2/2/2 3/3/3
f 3/3/3 2/2/2 4/4/4
f 5/5/5 6/6/6 7/7/7
f 7/7/7 6/6/6 8/8/8
f 9/9/9 6/6/6 5/5/5
f 10/10/10 11/11/11 12/12/12
f 11/11/11 10/10/10 13/13/13
f 14/14/14 15/15/15 16/16/16
f 17/17/17 16/16/16 15/15/15
f 18/18/18 19/19/19 20/20/20
f 21/21/21 20/20/20 19/19/19
f 22/22/22 23/23/23 24/24/24
f 23/23/23 22/22/22 25/25/25
f 26/26/26 27/27/27 28/28/28
f 27/27/27 26/26/26 29/29/29
f 30/30/30 31/31/31 32/32/32
f 31/31/31 30/30/30 33/33/33
f 34/34/34 35/35/35 36/36/36
f 35/35/35 34/34/34 37/37/37
f 38/38/38 39/39/39 40/40/40
f 39/39/39 38/38/38 41/41/41
f 42/42/42 43/43/43 44/44/44
f 43/43/43 42/42/42 45/45/45
f 46/46/46 47/47/47 48/48/48
f 47/47/47 46/46/46 49/49/49
f 50/50/50 51/51/51 52/52/52
f 51/51/51 50/50/50 53/53/53
f 54/54/54 55/55/55 56/56/56
f 55/55/55 54/54/54 57/57/57
f 58/58/58 59/59/59 60/60/60
f 61/61/61 60/60/60 59/59/59
f 62/62/62 63/63/63 64/64/64
f 63/63/63 62/62/62 65/65/65
f 66/66/66 67/67/67 68/68/68
f 67/67/67 66/66/66 69/69/69
f 70/70/70 71/71/71 72/72/72
f 71/71/71 70/70/70 73/73/73
f 74/74/74 75/75/75 76/76/76
f 75/75/75 74/74/74 77/77/77
f 78/78/78 79/79/79 80/80/80
f 79/79/79 78/78/78 81/81/81
f 82/82/82 83/83/83 84/84/84
f 83/83/83 82/82/82 85/85/85
f 86/86/86 87/87/87 88/88/88
f 86/86/86 88/88/88 89/89/89
f 90/90/90 91/91/91 92/92/92
f 90/90/90 92/92/92 93/93/93
f 94/94/94 95/95/95 96/96/96
f 95/95/95 94/94/94 97/97/97
f 98/98/98 99/99/99 100/100/100
f 99/99/99 98/98/98 101/101/101
f 102/102/102 103/103/103 104/104/104
f 103/103/103 102/102/102 105/105/105
f 106/106/106 107/107/107 108/108/108
f 107/107/107 106/106/106 109/109/109
f 110/110/110 111/111/111 112/112/112
f 111/111/111 110/110/110 113/113/113
f 114/114/114 115/115/115 116/116/116
f 115/115/115 114/114/114 117/117/117
f 118/118/118 119/119/119 120/120/120
f 119/119/119 118/118/118 121/121/121
f 122/122/122 123/123/123 124/124/124
f 125/125/125 124/124/124 123/123/123
f 126/126/126 127/127/127 128/128/128
f 127/127/127 126/126/126 129/129/129
f 130/130/130 131/131/131 132/132/132
f 131/131/131 130/130/130 133/133/133
f 134/134/134 135/135/135 136/136/136
f 135/135/135 134/134/134 137/137/137
f 138/138/138 139/139/139 140/140/140
f 139/139/139 138/138/138 141/141/141
f 142/142/142 143/143/143 144/144/144
f 143/143/143 142/142/142 145/145/145
f 146/146/146 147/147/147 148/148/148
f 147/147/147 146/146/146 149/149/149
f 150/150/150 151/151/151 152/152/152
f 151/151/151 150/150/150 153/153/153
f 154/154/154 155/155/155 156/156/156
f 155/155/155 154/154/154 157/157/157
f 158/158/158 159/159/159 160/160/160
f 159/159/159 158/158/158 161/161/161
f 162/162/162 163/163/163 164/164/164
f 163/163/163 162/162/162 165/165/165
f 166/166/166 167/167/167 168/168/168
f 167/167/167 166/166/166 169/169/169
f 170/170/170 171/171/171 172/172/172
f 171/171/171 170/170/170 173/173/173
f 174/174/174 175/175/175 176/176/176
f 176/176/176 175/175/175 177/177/177
f 178/178/178 179/179/179 180/180/180
f 180/180/180 179/179/179 181/181/181
f 182/182/182 183/183/183 184/184/184
f 185/185/185 184/184/184 183/183/183
f 186/186/186 187/187/187 188/188/188
f 187/187/187 186/186/186 189/189/189
f 190/190/190 191/191/191 192/192/192
f 191/191/191 190/190/190 193/193/193
f 194/194/194 195/195/195 196/196/196
f 195/195/195 194/194/194 197/197/197
f 198/198/198 199/199/199 200/200/200
f 199/199/199 198/198/198 201/201/201
f 202/202/202 203/203/203 204/204/204
f 205/205/205 204/204/204 203/203/203
f 206/206/206 207/207/207 208/208/208
f 209/209/209 208/208/208 207/207/207
f 210/210/210 211/211/211 212/212/212
f 211/211/211 210/210/210 213/213/213
f 214/214/214 215/215/215 216/216/216
f 215/215/215 214/214/214 217/217/217
f 218/218/218 219/219/219 220/220/220
f 219/219/219 218/218/218 221/221/221
f 222/222/222 223/223/223 224/224/224
f 223/223/223 222/222/222 225/225/225
f 226/226/226 227/227/227 228/228/228
f 227/227/227 226/226/226 229/229/229
f 230/230/230 231/231/231 232/232/232
f 231/231/231 230/230/230 233/233/233
f 234/234/234 235/235/235 236/236/236
f 235/235/235 234/234/234 237/237/237
f 238/238/238 239/239/239 240/240/240
f 239/239/239 238/238/238 241/241/241
f 242/242/242 243/243/243 244/244/244
f 244/244/244 243/243/243 245/245/245
f 246/246/246 243/243/243 242/242/242
f 247/247/247 248/248/248 249/249/249
f 248/248/248 247/247/247 250/250/250
f 251/251/251 252/252/252 253/253/253
f 254/254/254 253/253/253 252/252/252
f 255/255/255 256/256/256 257/257/257
f 256/256/256 255/255/255 258/258/258
f 259/259/259 260/260/260 261/261/261
f 261/261/261 260/260/260 262/262/262
f 263/263/263 264/264/264 265/265/265
f 264/264/264 263/263/263 266/266/266
f 267/267/267 266/266/266 263/263/263
f 268/268/268 269/269/269 270/270/270
f 270/270/270 269/269/269 271/271/271
f 272/272/272 273/273/273 274/274/274
f 275/275/275 274/274/274 273/273/273
f 276/276/276 277/277/277 278/278/278
f 279/279/279 278/278/278 277/277/277
f 280/280/280 281/281/281 282/282/282
f 281/281/281 280/280/280 283/283/283
f 284/284/284 285/285/285 286/286/286
f 285/285/285 284/284/284 287/287/287
f 288/288/288 289/289/289 290/290/290
f 291/291/291 290/290/290 289/289/289
f 292/292/292 293/293/293 294/294/294
f 293/293/293 292/292/292 295/295/295
f 296/296/296 297/297/297 298/298/298
f 297/297/297 296/296/296 299/299/299
f 300/300/300 301/301/301 302/302/302
f 300/300/300 302/302/302 303/303/303
f 304/304/304 305/305/305 306/306/306
f 305/305/305 304/304/304 307/307/307
f 308/308/308 309/309/309 310/310/310
f 309/309/309 308/308/308 311/311/311
f 312/312/312 313/313/313 314/314/314
f 313/313/313 312/312/312 315/315/315
f 316/316/316 317/317/317 318/318/318
f 317/317/317 316/316/316 319/319/319
f 320/320/320 321/321/321 322/322/322
f 321/321/321 320/320/320 323/323/323
f 324/324/324 325/325/325 326/326/326
f 325/325/325 324/324/324 327/327/327
f 328/328/328 329/329/329 330/330/330
f 329/329/329 328/328/328 331/331/331
f 332/332/332 333/333/333 334/334/334
f 333/333/333 332/332/332 335/335/335
f 336/336/336 337/337/337 338/338/338
f 337/337/337 336/336/336 339/339/339
f 340/340/340 341/341/341 342/342/342
f 341/341/341 340/340/340 343/343/343
f 344/344/344 345/345/345 346/346/346
f 345/345/345 344/344/344 347/347/347
f 348/348/348 349/349/349 350/350/350
f 349/349/349 348/348/348 351/351/351
f 352/352/352 353/353/353 354/354/354
f 355/355/355 356/356/356 357/357/357
f 356/356/356 355/355/355 358/358/358
f 357/357/357 356/356/356 359/359/359
f 360/360/360 361/361/361 362/362/362
f 363/363/363 360/360/360 364/364/364
f 361/361/361 360/360/360 363/363/363
f 362/362/362 365/365/365 360/360/360
f 364/364/364 360/360/360 366/366/366
f 367/367/367 368/368/368 369/369/369
f 370/370/370 368/368/368 367/367/367
f 369/369/369 368/368/368 371/371/371
f 372/372/372 373/373/373 374/374/374
f 373/373/373 372/372/372 375/375/375
f 376/376/376 352/352/352 377/377/377
f 378/378/378 379/379/379 353/353/353
f 377/377/377 352/352/352 380/380/380
f 353/353/353 376/376/376 378/378/378
f 376/376/376 353/353/353 352/352/352
f 381/381/381 382/382/382 383/383/383
f 383/383/383 382/382/382 384/384/384
f 385/385/385 386/386/386 387/387/387
f 386/386/386 385/385/385 388/388/388
f 385/385/385 387/387/387 389/389/389
f 390/390/390 391/391/391 392/392/392
f 393/393/393 394/394/394 395/395/395
f 394/394/394 393/393/393 396/396/396
f 397/397/397 398/398/398 399/399/399
f 400/400/400 397/397/397 399/399/399
f 397/397/397 400/400/400 401/401/401
f 402/402/402 403/403/403 404/404/404
f 404/404/404 403/403/403 405/405/405
f 406/406/406 407/407/407 408/408/408
f 406/406/406 408/408/408 409/409/409
f 408/408/408 407/407/407 410/410/410
f 411/411/411 412/412/412 413/413/413
f 412/412/412 411/411/411 414/414/414
f 415/415/415 416/416/416 417/417/417
f 416/416/416 415/415/415 418/418/418
f 419/419/419 420/420/420 421/421/421
f 420/420/420 419/419/419 422/422/422
f 423/423/423 424/424/424 425/425/425
f 424/424/424 423/423/423 426/426/426
f 427/427/427 428/428/428 429/429/429
f 427/427/427 430/430/430 428/428/428
f 430/430/430 427/427/427 431/431/431
f 429/429/429 428/428/428 432/432/432
f 430/430/430 431/431/431 433/433/433
f 434/434/434 435/435/435 436/436/436
f 435/435/435 434/434/434 437/437/437
f 437/437/437 434/434/434 438/438/438
f 439/439/439 440/440/440 441/441/441
f 442/442/442 441/441/441 440/440/440
f 440/440/440 439/439/439 443/443/443
f 444/444/444 445/445/445 446/446/446
f 446/446/446 445/445/445 447/447/447
f 448/448/448 449/449/449 450/450/450
f 450/450/450 449/449/449 451/451/451
f 452/452/452 453/453/453 454/454/454
f 455/455/455 453/453/453 456/456/456
f 454/454/454 453/453/453 457/457/457
f 453/453/453 455/455/455 457/457/457
f 453/453/453 452/452/452 458/458/458
