# Extracted from the Cocos Creator 3.8.3 playable build
# Geometry-only OBJ preview for Unity; rig and animation stay in the raw assets.
o zhalan_1G
v -0.373878896 0.143911541 1.28165364
v -0.343826711 0.125065491 -3.51838946
v -0.291642964 -0.248169348 1.28188825
v -0.278080583 -0.256568372 -3.51838946
v -0.291642964 -0.248169348 1.28188825
v -0.278080583 -0.256568372 -3.51838946
v 0.0828936026 -0.396592468 1.28204465
v 0.0722430944 -0.389887094 -3.51838946
v 0.0828936026 -0.396592468 1.28204465
v 0.3573533 -0.141915619 -3.51838946
v 0.376395673 -0.153696388 1.28196836
v 0.0722430944 -0.389887094 -3.51838946
v 0.376395673 -0.153696388 1.28196836
v 0.3573533 -0.141915619 -3.51838946
v 0.295039237 0.238613963 1.28173566
v 0.292110085 0.240178451 -3.51838946
v 0.0828936026 -0.396592468 1.28204465
v 0.180651426 -0.0605389401 2.2366631
v 0.0299801026 -0.188561067 2.23672223
v 0.376395673 -0.153696388 1.28196836
v 0.295039237 0.238613963 1.28173566
v -0.058516223 0.373722702 -3.51838946
v -0.0805175826 0.387711197 1.28157735
v 0.292110085 0.240178451 -3.51838946
v -0.0805175826 0.387711197 1.28157735
v -0.343826711 0.125065491 -3.51838946
v -0.373878896 0.143911541 1.28165364
v -0.058516223 0.373722702 -3.51838946
v 0.14231351 0.141002014 2.23652005
v -0.158836812 -0.115125217 2.2366364
v 0.180651426 -0.0605389401 2.2366631
v 0.0299801026 -0.188561067 2.23672223
v -0.197175756 0.0864107683 2.23649335
v -0.0465044789 0.214438543 2.23643613
v -0.0805175826 0.387711197 1.28157735
v -0.197175756 0.0864107683 2.23649335
v -0.0465044789 0.214438543 2.23643613
v -0.373878896 0.143911541 1.28165364
v 0.376395673 -0.153696388 1.28196836
v 0.14231351 0.141002014 2.23652005
v 0.180651426 -0.0605389401 2.2366631
v 0.295039237 0.238613963 1.28173566
v -0.158836812 -0.115125217 2.2366364
v 0.0828936026 -0.396592468 1.28204465
v 0.0299801026 -0.188561067 2.23672223
v -0.291642964 -0.248169348 1.28188825
v 0.14231351 0.141002014 2.23652005
v -0.0805175826 0.387711197 1.28157735
v -0.0465044789 0.214438543 2.23643613
v 0.295039237 0.238613963 1.28173566
v -0.373878896 0.143911541 1.28165364
v -0.158836812 -0.115125217 2.2366364
v -0.197175756 0.0864107683 2.23649335
v -0.291642964 -0.248169348 1.28188825
vt 0.575231791 0.464396238
vt 0.575231791 0.249606431
vt 0.588602722 0.464396238
vt 0.588602722 0.249606431
vt 0.588602722 0.464396238
vt 0.588602722 0.249606431
vt 0.602049351 0.464396238
vt 0.602049351 0.249606431
vt 0.602049351 0.464396238
vt 0.615371108 0.249606431
vt 0.615371108 0.464396238
vt 0.602049351 0.249606431
vt 0.615371108 0.464396238
vt 0.615371108 0.249606431
vt 0.628745914 0.464396238
vt 0.628745914 0.249606431
vt 0.602049351 0.464396238
vt 0.615371108 0.49960649
vt 0.602049351 0.49960649
vt 0.615371108 0.464396238
vt 0.548421741 0.464396238
vt 0.561894894 0.249606431
vt 0.561894894 0.464396238
vt 0.548421741 0.249606431
vt 0.561894894 0.464396238
vt 0.575231791 0.249606431
vt 0.575231791 0.464396238
vt 0.561894894 0.249606431
vt 0.920955658 0.0578517914
vt 0.889052987 0.00399851799
vt 0.93636924 0.0306439996
vt 0.920960724 0.00399851799
vt 0.87386924 0.0311121941
vt 0.88888067 0.0578517914
vt 0.561894894 0.464396238
vt 0.575231791 0.49960649
vt 0.561894894 0.49960649
vt 0.575231791 0.464396238
vt 0.615371108 0.464396238
vt 0.628745914 0.49960649
vt 0.615371108 0.49960649
vt 0.628745914 0.464396238
vt 0.588602722 0.49960649
vt 0.602049351 0.464396238
vt 0.602049351 0.49960649
vt 0.588602722 0.464396238
vt 0.548421741 0.49960649
vt 0.561894894 0.464396238
vt 0.561894894 0.49960649
vt 0.548421741 0.464396238
vt 0.575231791 0.464396238
vt 0.588602722 0.49960649
vt 0.575231791 0.49960649
vt 0.588602722 0.464396238
vn -0.982188642 -0.187856331 -0.00392899057
vn -0.982188642 -0.187856331 -0.00392899057
vn -0.982188642 -0.187856331 -0.00392899057
vn -0.982188642 -0.187856331 -0.00392899057
vn -0.362280697 -0.932069063 5.45443872e-05
vn -0.362280697 -0.932069063 5.45443872e-05
vn -0.362280697 -0.932069063 5.45443872e-05
vn -0.362280697 -0.932069063 5.45443872e-05
vn 0.646914899 -0.762554348 -0.00346903014
vn 0.646914899 -0.762554348 -0.00346903014
vn 0.646914899 -0.762554348 -0.00346903014
vn 0.646914899 -0.762554348 -0.00346903014
vn 0.982547343 0.186001807 -0.00199008943
vn 0.982547343 0.186001807 -0.00199008943
vn 0.982547343 0.186001807 -0.00199008943
vn 0.982547343 0.186001807 -0.00199008943
vn 0.628006399 -0.751962185 0.200401604
vn 0.628006399 -0.751962185 0.200401604
vn 0.628006399 -0.751962185 0.200401604
vn 0.628006399 -0.751962185 0.200401604
vn 0.362710357 0.931901753 -0.000485439057
vn 0.362710357 0.931901753 -0.000485439057
vn 0.362710357 0.931901753 -0.000485439057
vn 0.362710357 0.931901753 -0.000485439057
vn -0.648084223 0.761544108 -0.0061187516
vn -0.648084223 0.761544108 -0.0061187516
vn -0.648084223 0.761544108 -0.0061187516
vn -0.648084223 0.761544108 -0.0061187516
vn -0.000186562218 0.000674351468 0.999999702
vn -0.000186562218 0.000674351468 0.999999702
vn -0.000186562218 0.000674351468 0.999999702
vn -0.000186562218 0.000674351468 0.999999702
vn -0.000186562218 0.000674351468 0.999999702
vn -0.000186562218 0.000674351468 0.999999702
vn -0.63357687 0.756668687 0.161346912
vn -0.63357687 0.756668687 0.161346912
vn -0.63357687 0.756668687 0.161346912
vn -0.63357687 0.756668687 0.161346912
vn 0.964868128 0.194586754 0.176537395
vn 0.964868128 0.194586754 0.176537395
vn 0.964868128 0.194586754 0.176537395
vn 0.964868128 0.194586754 0.176537395
vn -0.360601306 -0.915458262 0.178613827
vn -0.360601306 -0.915458262 0.178613827
vn -0.360601306 -0.915458262 0.178613827
vn -0.360601306 -0.915458262 0.178613827
vn 0.362443775 0.919370651 0.152944788
vn 0.362443775 0.919370651 0.152944788
vn 0.362443775 0.919370651 0.152944788
vn 0.362443775 0.919370651 0.152944788
vn -0.966667891 -0.196244031 0.164442644
vn -0.966667891 -0.196244031 0.164442644
vn -0.966667891 -0.196244031 0.164442644
vn -0.966667891 -0.196244031 0.164442644
f 1/1/1 2/2/2 3/3/3
f 3/3/3 2/2/2 4/4/4
f 5/5/5 6/6/6 7/7/7
f 7/7/7 6/6/6 8/8/8
f 9/9/9 10/10/10 11/11/11
f 10/10/10 9/9/9 12/12/12
f 13/13/13 14/14/14 15/15/15
f 15/15/15 14/14/14 16/16/16
f 17/17/17 18/18/18 19/19/19
f 18/18/18 17/17/17 20/20/20
f 21/21/21 22/22/22 23/23/23
f 22/22/22 21/21/21 24/24/24
f 25/25/25 26/26/26 27/27/27
f 26/26/26 25/25/25 28/28/28
f 29/29/29 30/30/30 31/31/31
f 31/31/31 30/30/30 32/32/32
f 30/30/30 29/29/29 33/33/33
f 33/33/33 29/29/29 34/34/34
f 35/35/35 36/36/36 37/37/37
f 36/36/36 35/35/35 38/38/38
f 39/39/39 40/40/40 41/41/41
f 40/40/40 39/39/39 42/42/42
f 43/43/43 44/44/44 45/45/45
f 44/44/44 43/43/43 46/46/46
f 47/47/47 48/48/48 49/49/49
f 48/48/48 47/47/47 50/50/50
f 51/51/51 52/52/52 53/53/53
f 52/52/52 51/51/51 54/54/54
